<?xml version="1.0" encoding="utf-8" standalone="no"?>
<!DOCTYPE svg PUBLIC "-//W3C//DTD SVG 1.1//EN"
  "http://www.w3.org/Graphics/SVG/1.1/DTD/svg11.dtd">
<!-- Created with matplotlib (http://matplotlib.org/) -->
<svg height="432pt" version="1.1" viewBox="0 0 864 432" width="864pt" xmlns="http://www.w3.org/2000/svg" xmlns:xlink="http://www.w3.org/1999/xlink">
 <defs>
  <style type="text/css">
*{stroke-linecap:butt;stroke-linejoin:round;}
  </style>
 </defs>
 <g id="figure_1">
  <g id="patch_1">
   <path d="M 0 432 
L 864 432 
L 864 0 
L 0 0 
z
" style="fill:#ffffff;"/>
  </g>
  <g id="axes_1">
   <g id="patch_2">
    <path d="M 30.67 362.9 
L 850.68 362.9 
L 850.68 13.32 
L 30.67 13.32 
z
" style="fill:#ffffff;"/>
   </g>
   <g id="PolyCollection_1">
    <path clip-path="url(#pf3c3ed61d0)" d="M 173.547545 94.147461 
L 161.129122 94.147461 
L 161.029463 93.491527 
L 160.934992 92.835593 
L 160.844004 92.179659 
L 160.754536 91.523725 
L 160.664387 90.867792 
L 160.571144 90.211858 
L 160.472211 89.555924 
L 160.364846 88.89999 
L 160.246194 88.244056 
L 160.113335 87.588122 
L 159.963324 86.932188 
L 159.793242 86.276254 
L 159.600238 85.62032 
L 159.38158 84.964386 
L 159.1347 84.308452 
L 158.857242 83.652518 
L 158.547098 82.996584 
L 158.202454 82.34065 
L 157.821822 81.684716 
L 157.404068 81.028782 
L 156.948438 80.372848 
L 156.454579 79.716914 
L 155.922546 79.06098 
L 155.352814 78.405046 
L 154.746272 77.749112 
L 154.104221 77.093179 
L 153.428356 76.437245 
L 152.72075 75.781311 
L 151.98383 75.125377 
L 151.220346 74.469443 
L 150.433336 73.813509 
L 149.626096 73.157575 
L 148.802132 72.501641 
L 147.965129 71.845707 
L 147.118901 71.189773 
L 146.267354 70.533839 
L 145.414447 69.877905 
L 144.564151 69.221971 
L 143.720414 68.566037 
L 142.887128 67.910103 
L 142.068102 67.254169 
L 141.267035 66.598235 
L 140.487492 65.942301 
L 139.732893 65.286367 
L 139.006494 64.630433 
L 138.311384 63.974499 
L 137.650472 63.318566 
L 137.026489 62.662632 
L 136.441986 62.006698 
L 135.899335 61.350764 
L 135.40073 60.69483 
L 134.948192 60.038896 
L 134.543567 59.382962 
L 134.18853 58.727028 
L 133.884584 58.071094 
L 133.633056 57.41516 
L 133.435096 56.759226 
L 133.291665 56.103292 
L 133.203529 55.447358 
L 133.17125 54.791424 
L 133.195167 54.13549 
L 133.275388 53.479556 
L 133.411769 52.823622 
L 133.603906 52.167688 
L 133.851115 51.511754 
L 134.152423 50.85582 
L 134.506559 50.199886 
L 134.911944 49.543953 
L 135.366693 48.888019 
L 135.868616 48.232085 
L 136.415224 47.576151 
L 137.003746 46.920217 
L 137.631146 46.264283 
L 138.294148 45.608349 
L 138.989266 44.952415 
L 139.71284 44.296481 
L 140.461075 43.640547 
L 141.230086 42.984613 
L 142.015941 42.328679 
L 142.81471 41.672745 
L 143.622512 41.016811 
L 144.435562 40.360877 
L 145.250216 39.704943 
L 146.063014 39.049009 
L 146.870715 38.393075 
L 147.670333 37.737141 
L 148.45916 37.081207 
L 149.234791 36.425273 
L 149.995133 35.76934 
L 150.738419 35.113406 
L 151.463199 34.457472 
L 152.168342 33.801538 
L 152.853019 33.145604 
L 153.516684 32.48967 
L 154.159056 31.833736 
L 154.780086 31.177802 
L 155.379931 30.521868 
L 155.958923 29.865934 
L 156.517533 29.21 
L 178.159134 29.21 
L 178.159134 29.21 
L 178.717743 29.865934 
L 179.296735 30.521868 
L 179.896581 31.177802 
L 180.517611 31.833736 
L 181.159982 32.48967 
L 181.823648 33.145604 
L 182.508324 33.801538 
L 183.213468 34.457472 
L 183.938248 35.113406 
L 184.681533 35.76934 
L 185.441876 36.425273 
L 186.217507 37.081207 
L 187.006334 37.737141 
L 187.805951 38.393075 
L 188.613653 39.049009 
L 189.426451 39.704943 
L 190.241105 40.360877 
L 191.054155 41.016811 
L 191.861957 41.672745 
L 192.660725 42.328679 
L 193.44658 42.984613 
L 194.215591 43.640547 
L 194.963827 44.296481 
L 195.687401 44.952415 
L 196.382518 45.608349 
L 197.04552 46.264283 
L 197.67292 46.920217 
L 198.261443 47.576151 
L 198.808051 48.232085 
L 199.309974 48.888019 
L 199.764723 49.543953 
L 200.170108 50.199886 
L 200.524243 50.85582 
L 200.825552 51.511754 
L 201.072761 52.167688 
L 201.264897 52.823622 
L 201.401279 53.479556 
L 201.481499 54.13549 
L 201.505417 54.791424 
L 201.473137 55.447358 
L 201.385002 56.103292 
L 201.241571 56.759226 
L 201.04361 57.41516 
L 200.792083 58.071094 
L 200.488137 58.727028 
L 200.1331 59.382962 
L 199.728475 60.038896 
L 199.275936 60.69483 
L 198.777332 61.350764 
L 198.234681 62.006698 
L 197.650178 62.662632 
L 197.026195 63.318566 
L 196.365283 63.974499 
L 195.670172 64.630433 
L 194.943774 65.286367 
L 194.189175 65.942301 
L 193.409632 66.598235 
L 192.608564 67.254169 
L 191.789539 67.910103 
L 190.956253 68.566037 
L 190.112516 69.221971 
L 189.26222 69.877905 
L 188.409313 70.533839 
L 187.557766 71.189773 
L 186.711538 71.845707 
L 185.874534 72.501641 
L 185.050571 73.157575 
L 184.243331 73.813509 
L 183.456321 74.469443 
L 182.692836 75.125377 
L 181.955916 75.781311 
L 181.248311 76.437245 
L 180.572446 77.093179 
L 179.930394 77.749112 
L 179.323853 78.405046 
L 178.75412 79.06098 
L 178.222088 79.716914 
L 177.728228 80.372848 
L 177.272599 81.028782 
L 176.854844 81.684716 
L 176.474212 82.34065 
L 176.129569 82.996584 
L 175.819425 83.652518 
L 175.541966 84.308452 
L 175.295087 84.964386 
L 175.076428 85.62032 
L 174.883424 86.276254 
L 174.713342 86.932188 
L 174.563332 87.588122 
L 174.430473 88.244056 
L 174.311821 88.89999 
L 174.204456 89.555924 
L 174.105523 90.211858 
L 174.01228 90.867792 
L 173.922131 91.523725 
L 173.832662 92.179659 
L 173.741674 92.835593 
L 173.647204 93.491527 
L 173.547545 94.147461 
z
" style="fill:#1f77b4;fill-opacity:0.3;"/>
   </g>
   <g id="PolyCollection_2">
    <path clip-path="url(#pf3c3ed61d0)" d="M 323.467307 75.453344 
L 284.546026 75.453344 
L 283.825706 75.155192 
L 283.111531 74.85704 
L 282.405543 74.558888 
L 281.709749 74.260736 
L 281.026105 73.962585 
L 280.356494 73.664433 
L 279.702712 73.366281 
L 279.066449 73.068129 
L 278.449273 72.769977 
L 277.852617 72.471826 
L 277.277761 72.173674 
L 276.725825 71.875522 
L 276.197752 71.57737 
L 275.694306 71.279219 
L 275.21606 70.981067 
L 274.763398 70.682915 
L 274.336508 70.384763 
L 273.935389 70.086611 
L 273.55985 69.78846 
L 273.209522 69.490308 
L 272.883864 69.192156 
L 272.582178 68.894004 
L 272.303619 68.595852 
L 272.047221 68.297701 
L 271.811904 67.999549 
L 271.596508 67.701397 
L 271.399802 67.403245 
L 271.220517 67.105093 
L 271.057366 66.806942 
L 270.909066 66.50879 
L 270.774363 66.210638 
L 270.652058 65.912486 
L 270.541023 65.614334 
L 270.440225 65.316183 
L 270.348742 65.018031 
L 270.26578 64.719879 
L 270.190689 64.421727 
L 270.122966 64.123575 
L 270.062273 63.825424 
L 270.008431 63.527272 
L 269.961428 63.22912 
L 269.921414 62.930968 
L 269.888698 62.632816 
L 269.863736 62.334665 
L 269.847125 62.036513 
L 269.839583 61.738361 
L 269.84194 61.440209 
L 269.855113 61.142057 
L 269.880092 60.843906 
L 269.917917 60.545754 
L 269.969655 60.247602 
L 270.036382 59.94945 
L 270.119158 59.651298 
L 270.219004 59.353147 
L 270.336889 59.054995 
L 270.473702 58.756843 
L 270.630241 58.458691 
L 270.807196 58.160539 
L 271.005134 57.862388 
L 271.224488 57.564236 
L 271.465553 57.266084 
L 271.728473 56.967932 
L 272.013246 56.66978 
L 272.319717 56.371629 
L 272.647585 56.073477 
L 272.996404 55.775325 
L 273.365593 55.477173 
L 273.754441 55.179021 
L 274.162125 54.88087 
L 274.587713 54.582718 
L 275.030186 54.284566 
L 275.48845 53.986414 
L 275.961348 53.688263 
L 276.447681 53.390111 
L 276.94622 53.091959 
L 277.455724 52.793807 
L 277.97495 52.495655 
L 278.502674 52.197504 
L 279.037697 51.899352 
L 279.57886 51.6012 
L 280.125053 51.303048 
L 280.675223 51.004896 
L 281.228384 50.706745 
L 281.783614 50.408593 
L 282.340066 50.110441 
L 282.896967 49.812289 
L 283.453614 49.514137 
L 284.009378 49.215986 
L 284.563696 48.917834 
L 285.11607 48.619682 
L 285.666056 48.32153 
L 286.213266 48.023378 
L 286.757351 47.725227 
L 287.298 47.427075 
L 287.834931 47.128923 
L 288.36788 46.830771 
L 288.896597 46.532619 
L 289.420835 46.234468 
L 289.940348 45.936316 
L 318.072985 45.936316 
L 318.072985 45.936316 
L 318.592498 46.234468 
L 319.116737 46.532619 
L 319.645453 46.830771 
L 320.178403 47.128923 
L 320.715333 47.427075 
L 321.255983 47.725227 
L 321.800068 48.023378 
L 322.347277 48.32153 
L 322.897264 48.619682 
L 323.449637 48.917834 
L 324.003955 49.215986 
L 324.559719 49.514137 
L 325.116367 49.812289 
L 325.673267 50.110441 
L 326.22972 50.408593 
L 326.78495 50.706745 
L 327.33811 51.004896 
L 327.888281 51.303048 
L 328.434474 51.6012 
L 328.975636 51.899352 
L 329.510659 52.197504 
L 330.038383 52.495655 
L 330.557609 52.793807 
L 331.067113 53.091959 
L 331.565652 53.390111 
L 332.051985 53.688263 
L 332.524884 53.986414 
L 332.983147 54.284566 
L 333.425621 54.582718 
L 333.851209 54.88087 
L 334.258892 55.179021 
L 334.64774 55.477173 
L 335.016929 55.775325 
L 335.365748 56.073477 
L 335.693616 56.371629 
L 336.000087 56.66978 
L 336.28486 56.967932 
L 336.547781 57.266084 
L 336.788845 57.564236 
L 337.008199 57.862388 
L 337.206137 58.160539 
L 337.383092 58.458691 
L 337.539631 58.756843 
L 337.676445 59.054995 
L 337.794329 59.353147 
L 337.894176 59.651298 
L 337.976951 59.94945 
L 338.043678 60.247602 
L 338.095416 60.545754 
L 338.133241 60.843906 
L 338.158221 61.142057 
L 338.171394 61.440209 
L 338.17375 61.738361 
L 338.166208 62.036513 
L 338.149597 62.334665 
L 338.124635 62.632816 
L 338.091919 62.930968 
L 338.051906 63.22912 
L 338.004903 63.527272 
L 337.95106 63.825424 
L 337.890367 64.123575 
L 337.822645 64.421727 
L 337.747553 64.719879 
L 337.664592 65.018031 
L 337.573109 65.316183 
L 337.47231 65.614334 
L 337.361275 65.912486 
L 337.23897 66.210638 
L 337.104268 66.50879 
L 336.955967 66.806942 
L 336.792816 67.105093 
L 336.613532 67.403245 
L 336.416826 67.701397 
L 336.201429 67.999549 
L 335.966113 68.297701 
L 335.709714 68.595852 
L 335.431156 68.894004 
L 335.129469 69.192156 
L 334.803811 69.490308 
L 334.453483 69.78846 
L 334.077945 70.086611 
L 333.676825 70.384763 
L 333.249936 70.682915 
L 332.797273 70.981067 
L 332.319028 71.279219 
L 331.815581 71.57737 
L 331.287509 71.875522 
L 330.735572 72.173674 
L 330.160717 72.471826 
L 329.564061 72.769977 
L 328.946885 73.068129 
L 328.310621 73.366281 
L 327.656839 73.664433 
L 326.987228 73.962585 
L 326.303584 74.260736 
L 325.607791 74.558888 
L 324.901803 74.85704 
L 324.187627 75.155192 
L 323.467307 75.453344 
z
" style="fill:#1f77b4;fill-opacity:0.3;"/>
   </g>
   <g id="PolyCollection_3">
    <path clip-path="url(#pf3c3ed61d0)" d="M 456.985925 149.737864 
L 424.364075 149.737864 
L 423.74413 149.524188 
L 423.121386 149.310513 
L 422.497064 149.096837 
L 421.872424 148.883162 
L 421.248755 148.669487 
L 420.627367 148.455811 
L 420.009584 148.242136 
L 419.396735 148.02846 
L 418.79014 147.814785 
L 418.191108 147.601109 
L 417.600915 147.387434 
L 417.020804 147.173758 
L 416.451964 146.960083 
L 415.895526 146.746407 
L 415.35255 146.532732 
L 414.824014 146.319057 
L 414.310804 146.105381 
L 413.813709 145.891706 
L 413.333412 145.67803 
L 412.870483 145.464355 
L 412.425378 145.250679 
L 411.998434 145.037004 
L 411.589872 144.823328 
L 411.199796 144.609653 
L 410.828198 144.395977 
L 410.474964 144.182302 
L 410.13988 143.968627 
L 409.822645 143.754951 
L 409.522878 143.541276 
L 409.240136 143.3276 
L 408.973922 143.113925 
L 408.723704 142.900249 
L 408.488931 142.686574 
L 408.269046 142.472898 
L 408.063503 142.259223 
L 407.871785 142.045547 
L 407.693415 141.831872 
L 407.527969 141.618197 
L 407.375095 141.404521 
L 407.234513 141.190846 
L 407.10603 140.97717 
L 406.989546 140.763495 
L 406.885054 140.549819 
L 406.792643 140.336144 
L 406.712495 140.122468 
L 406.644883 139.908793 
L 406.590161 139.695117 
L 406.548758 139.481442 
L 406.521163 139.267767 
L 406.507917 139.054091 
L 406.509591 138.840416 
L 406.526775 138.62674 
L 406.560061 138.413065 
L 406.610022 138.199389 
L 406.677198 137.985714 
L 406.762076 137.772038 
L 406.865076 137.558363 
L 406.986535 137.344687 
L 407.126695 137.131012 
L 407.285688 136.917337 
L 407.463531 136.703661 
L 407.660119 136.489986 
L 407.875218 136.27631 
L 408.108466 136.062635 
L 408.359375 135.848959 
L 408.627337 135.635284 
L 408.911627 135.421608 
L 409.211417 135.207933 
L 409.525788 134.994257 
L 409.853742 134.780582 
L 410.194219 134.566907 
L 410.546117 134.353231 
L 410.908307 134.139556 
L 411.279653 133.92588 
L 411.659034 133.712205 
L 412.045357 133.498529 
L 412.437582 133.284854 
L 412.83473 133.071178 
L 413.235908 132.857503 
L 413.640314 132.643827 
L 414.047253 132.430152 
L 414.456143 132.216477 
L 414.866522 132.002801 
L 415.278052 131.789126 
L 415.690516 131.57545 
L 416.103821 131.361775 
L 416.517986 131.148099 
L 416.933143 130.934424 
L 417.349517 130.720748 
L 417.767422 130.507073 
L 418.187242 130.293397 
L 418.609418 130.079722 
L 419.034431 129.866047 
L 419.462784 129.652371 
L 419.894984 129.438696 
L 420.331524 129.22502 
L 420.772868 129.011345 
L 421.219432 128.797669 
L 421.67157 128.583994 
L 459.67843 128.583994 
L 459.67843 128.583994 
L 460.130568 128.797669 
L 460.577132 129.011345 
L 461.018476 129.22502 
L 461.455016 129.438696 
L 461.887216 129.652371 
L 462.315569 129.866047 
L 462.740582 130.079722 
L 463.162758 130.293397 
L 463.582578 130.507073 
L 464.000483 130.720748 
L 464.416857 130.934424 
L 464.832014 131.148099 
L 465.246179 131.361775 
L 465.659484 131.57545 
L 466.071948 131.789126 
L 466.483478 132.002801 
L 466.893857 132.216477 
L 467.302747 132.430152 
L 467.709686 132.643827 
L 468.114092 132.857503 
L 468.51527 133.071178 
L 468.912418 133.284854 
L 469.304643 133.498529 
L 469.690966 133.712205 
L 470.070347 133.92588 
L 470.441693 134.139556 
L 470.803883 134.353231 
L 471.155781 134.566907 
L 471.496258 134.780582 
L 471.824212 134.994257 
L 472.138583 135.207933 
L 472.438373 135.421608 
L 472.722663 135.635284 
L 472.990625 135.848959 
L 473.241534 136.062635 
L 473.474782 136.27631 
L 473.689881 136.489986 
L 473.886469 136.703661 
L 474.064312 136.917337 
L 474.223305 137.131012 
L 474.363465 137.344687 
L 474.484924 137.558363 
L 474.587924 137.772038 
L 474.672802 137.985714 
L 474.739978 138.199389 
L 474.789939 138.413065 
L 474.823225 138.62674 
L 474.840409 138.840416 
L 474.842083 139.054091 
L 474.828837 139.267767 
L 474.801242 139.481442 
L 474.759839 139.695117 
L 474.705117 139.908793 
L 474.637505 140.122468 
L 474.557357 140.336144 
L 474.464946 140.549819 
L 474.360454 140.763495 
L 474.24397 140.97717 
L 474.115487 141.190846 
L 473.974905 141.404521 
L 473.822031 141.618197 
L 473.656585 141.831872 
L 473.478215 142.045547 
L 473.286497 142.259223 
L 473.080954 142.472898 
L 472.861069 142.686574 
L 472.626296 142.900249 
L 472.376078 143.113925 
L 472.109864 143.3276 
L 471.827122 143.541276 
L 471.527355 143.754951 
L 471.21012 143.968627 
L 470.875036 144.182302 
L 470.521802 144.395977 
L 470.150204 144.609653 
L 469.760128 144.823328 
L 469.351566 145.037004 
L 468.924622 145.250679 
L 468.479517 145.464355 
L 468.016588 145.67803 
L 467.536291 145.891706 
L 467.039196 146.105381 
L 466.525986 146.319057 
L 465.99745 146.532732 
L 465.454474 146.746407 
L 464.898036 146.960083 
L 464.329196 147.173758 
L 463.749085 147.387434 
L 463.158892 147.601109 
L 462.55986 147.814785 
L 461.953265 148.02846 
L 461.340416 148.242136 
L 460.722633 148.455811 
L 460.101245 148.669487 
L 459.477576 148.883162 
L 458.852936 149.096837 
L 458.228614 149.310513 
L 457.60587 149.524188 
L 456.985925 149.737864 
z
" style="fill:#1f77b4;fill-opacity:0.3;"/>
   </g>
   <g id="PolyCollection_4">
    <path clip-path="url(#pf3c3ed61d0)" d="M 582.958953 319.460774 
L 571.727714 319.460774 
L 571.669849 319.147715 
L 571.620547 318.834655 
L 571.578123 318.521596 
L 571.540571 318.208536 
L 571.505578 317.895477 
L 571.470541 317.582418 
L 571.432585 317.269358 
L 571.388594 316.956299 
L 571.335243 316.64324 
L 571.269035 316.33018 
L 571.186343 316.017121 
L 571.083459 315.704061 
L 570.956638 315.391002 
L 570.802156 315.077943 
L 570.616359 314.764883 
L 570.395726 314.451824 
L 570.136918 314.138764 
L 569.836841 313.825705 
L 569.4927 313.512646 
L 569.102052 313.199586 
L 568.662859 312.886527 
L 568.173539 312.573467 
L 567.633005 312.260408 
L 567.040711 311.947349 
L 566.39668 311.634289 
L 565.701536 311.32123 
L 564.956519 311.008171 
L 564.163503 310.695111 
L 563.324991 310.382052 
L 562.444119 310.068992 
L 561.524634 309.755933 
L 560.570874 309.442874 
L 559.587733 309.129814 
L 558.580618 308.816755 
L 557.555398 308.503695 
L 556.518345 308.190636 
L 555.476063 307.877577 
L 554.435417 307.564517 
L 553.403453 307.251458 
L 552.387309 306.938399 
L 551.394134 306.625339 
L 550.430994 306.31228 
L 549.504784 305.99922 
L 548.622141 305.686161 
L 547.78936 305.373102 
L 547.012313 305.060042 
L 546.296376 304.746983 
L 545.646364 304.433923 
L 545.066471 304.120864 
L 544.560228 303.807805 
L 544.13046 303.494745 
L 543.779265 303.181686 
L 543.508001 302.868627 
L 543.317278 302.555567 
L 543.206974 302.242508 
L 543.17625 301.929448 
L 543.223586 301.616389 
L 543.346816 301.30333 
L 543.543181 300.99027 
L 543.809382 300.677211 
L 544.141645 300.364151 
L 544.535785 300.051092 
L 544.987278 299.738033 
L 545.491329 299.424973 
L 546.042951 299.111914 
L 546.637027 298.798854 
L 547.268385 298.485795 
L 547.931865 298.172736 
L 548.622372 297.859676 
L 549.334943 297.546617 
L 550.06479 297.233558 
L 550.807349 296.920498 
L 551.558317 296.607439 
L 552.313682 296.294379 
L 553.069754 295.98132 
L 553.823176 295.668261 
L 554.570945 295.355201 
L 555.310411 295.042142 
L 556.039282 294.729082 
L 556.755622 294.416023 
L 557.457837 294.102964 
L 558.144664 293.789904 
L 558.815158 293.476845 
L 559.468667 293.163786 
L 560.10481 292.850726 
L 560.723456 292.537667 
L 561.324694 292.224607 
L 561.908803 291.911548 
L 562.476231 291.598489 
L 563.027559 291.285429 
L 563.563474 290.97237 
L 564.08474 290.65931 
L 564.592175 290.346251 
L 565.086616 290.033192 
L 565.568904 289.720132 
L 566.039852 289.407073 
L 566.500234 289.094014 
L 566.950757 288.780954 
L 567.392055 288.467895 
L 587.294612 288.467895 
L 587.294612 288.467895 
L 587.73591 288.780954 
L 588.186433 289.094014 
L 588.646814 289.407073 
L 589.117763 289.720132 
L 589.60005 290.033192 
L 590.094492 290.346251 
L 590.601926 290.65931 
L 591.123193 290.97237 
L 591.659107 291.285429 
L 592.210435 291.598489 
L 592.777863 291.911548 
L 593.361973 292.224607 
L 593.96321 292.537667 
L 594.581856 292.850726 
L 595.218 293.163786 
L 595.871508 293.476845 
L 596.542002 293.789904 
L 597.22883 294.102964 
L 597.931045 294.416023 
L 598.647384 294.729082 
L 599.376256 295.042142 
L 600.115722 295.355201 
L 600.86349 295.668261 
L 601.616913 295.98132 
L 602.372984 296.294379 
L 603.12835 296.607439 
L 603.879317 296.920498 
L 604.621876 297.233558 
L 605.351724 297.546617 
L 606.064295 297.859676 
L 606.754802 298.172736 
L 607.418281 298.485795 
L 608.04964 298.798854 
L 608.643716 299.111914 
L 609.195337 299.424973 
L 609.699389 299.738033 
L 610.150881 300.051092 
L 610.545021 300.364151 
L 610.877285 300.677211 
L 611.143486 300.99027 
L 611.339851 301.30333 
L 611.463081 301.616389 
L 611.510417 301.929448 
L 611.479693 302.242508 
L 611.369389 302.555567 
L 611.178666 302.868627 
L 610.907401 303.181686 
L 610.556207 303.494745 
L 610.126439 303.807805 
L 609.620196 304.120864 
L 609.040303 304.433923 
L 608.390291 304.746983 
L 607.674354 305.060042 
L 606.897306 305.373102 
L 606.064525 305.686161 
L 605.181883 305.99922 
L 604.255673 306.31228 
L 603.292532 306.625339 
L 602.299358 306.938399 
L 601.283214 307.251458 
L 600.25125 307.564517 
L 599.210604 307.877577 
L 598.168322 308.190636 
L 597.131268 308.503695 
L 596.106049 308.816755 
L 595.098934 309.129814 
L 594.115793 309.442874 
L 593.162033 309.755933 
L 592.242548 310.068992 
L 591.361676 310.382052 
L 590.523164 310.695111 
L 589.730147 311.008171 
L 588.985131 311.32123 
L 588.289987 311.634289 
L 587.645956 311.947349 
L 587.053662 312.260408 
L 586.513128 312.573467 
L 586.023807 312.886527 
L 585.584615 313.199586 
L 585.193966 313.512646 
L 584.849825 313.825705 
L 584.549749 314.138764 
L 584.290941 314.451824 
L 584.070307 314.764883 
L 583.884511 315.077943 
L 583.730029 315.391002 
L 583.603208 315.704061 
L 583.500323 316.017121 
L 583.417632 316.33018 
L 583.351424 316.64324 
L 583.298073 316.956299 
L 583.254081 317.269358 
L 583.216125 317.582418 
L 583.181088 317.895477 
L 583.146096 318.208536 
L 583.108544 318.521596 
L 583.066119 318.834655 
L 583.016818 319.147715 
L 582.958953 319.460774 
z
" style="fill:#1f77b4;fill-opacity:0.3;"/>
   </g>
   <g id="PolyCollection_5">
    <path clip-path="url(#pf3c3ed61d0)" d="M 724.554546 347.01 
L 703.468787 347.01 
L 703.102705 346.736694 
L 702.730017 346.463388 
L 702.350138 346.190083 
L 701.962467 345.916777 
L 701.566404 345.643471 
L 701.161363 345.370165 
L 700.746795 345.096859 
L 700.322197 344.823553 
L 699.887132 344.550248 
L 699.441246 344.276942 
L 698.98428 344.003636 
L 698.516083 343.73033 
L 698.036629 343.457024 
L 697.546019 343.183719 
L 697.044496 342.910413 
L 696.532445 342.637107 
L 696.010401 342.363801 
L 695.479043 342.090495 
L 694.939198 341.81719 
L 694.391832 341.543884 
L 693.838044 341.270578 
L 693.279056 340.997272 
L 692.716199 340.723966 
L 692.150902 340.45066 
L 691.584674 340.177355 
L 691.019087 339.904049 
L 690.455756 339.630743 
L 689.896324 339.357437 
L 689.342437 339.084131 
L 688.795728 338.810826 
L 688.257797 338.53752 
L 687.730191 338.264214 
L 687.214386 337.990908 
L 686.711773 337.717602 
L 686.223642 337.444297 
L 685.751167 337.170991 
L 685.295399 336.897685 
L 684.857253 336.624379 
L 684.437506 336.351073 
L 684.036788 336.077767 
L 683.655585 335.804462 
L 683.294236 335.531156 
L 682.952941 335.25785 
L 682.63176 334.984544 
L 682.330628 334.711238 
L 682.049359 334.437933 
L 681.787661 334.164627 
L 681.545146 333.891321 
L 681.321351 333.618015 
L 681.115745 333.344709 
L 680.927754 333.071404 
L 680.756773 332.798098 
L 680.602184 332.524792 
L 680.463377 332.251486 
L 680.339764 331.97818 
L 680.230795 331.704874 
L 680.135977 331.431569 
L 680.054886 331.158263 
L 679.98718 330.884957 
L 679.932614 330.611651 
L 679.891045 330.338345 
L 679.862439 330.06504 
L 679.846884 329.791734 
L 679.844583 329.518428 
L 679.855862 329.245122 
L 679.881165 328.971816 
L 679.921048 328.69851 
L 679.976177 328.425205 
L 680.047315 328.151899 
L 680.135313 327.878593 
L 680.241096 327.605287 
L 680.365645 327.331981 
L 680.509987 327.058676 
L 680.675171 326.78537 
L 680.862253 326.512064 
L 681.072271 326.238758 
L 681.306233 325.965452 
L 681.565088 325.692147 
L 681.849713 325.418841 
L 682.160889 325.145535 
L 682.499287 324.872229 
L 682.865446 324.598923 
L 683.259763 324.325617 
L 683.682473 324.052312 
L 684.133644 323.779006 
L 684.613161 323.5057 
L 685.120725 323.232394 
L 685.655842 322.959088 
L 686.217829 322.685783 
L 686.805805 322.412477 
L 687.418703 322.139171 
L 688.05527 321.865865 
L 688.714077 321.592559 
L 689.393529 321.319254 
L 690.091877 321.045948 
L 690.807234 320.772642 
L 691.53759 320.499336 
L 692.280828 320.22603 
L 693.034745 319.952724 
L 734.988589 319.952724 
L 734.988589 319.952724 
L 735.742505 320.22603 
L 736.485743 320.499336 
L 737.216099 320.772642 
L 737.931456 321.045948 
L 738.629805 321.319254 
L 739.309256 321.592559 
L 739.968063 321.865865 
L 740.60463 322.139171 
L 741.217528 322.412477 
L 741.805505 322.685783 
L 742.367491 322.959088 
L 742.902609 323.232394 
L 743.410172 323.5057 
L 743.889689 323.779006 
L 744.34086 324.052312 
L 744.76357 324.325617 
L 745.157887 324.598923 
L 745.524046 324.872229 
L 745.862444 325.145535 
L 746.173621 325.418841 
L 746.458245 325.692147 
L 746.717101 325.965452 
L 746.951062 326.238758 
L 747.161081 326.512064 
L 747.348162 326.78537 
L 747.513346 327.058676 
L 747.657688 327.331981 
L 747.782238 327.605287 
L 747.88802 327.878593 
L 747.976018 328.151899 
L 748.047156 328.425205 
L 748.102285 328.69851 
L 748.142169 328.971816 
L 748.167471 329.245122 
L 748.17875 329.518428 
L 748.176449 329.791734 
L 748.160894 330.06504 
L 748.132289 330.338345 
L 748.090719 330.611651 
L 748.036153 330.884957 
L 747.968448 331.158263 
L 747.887357 331.431569 
L 747.792538 331.704874 
L 747.683569 331.97818 
L 747.559956 332.251486 
L 747.421149 332.524792 
L 747.26656 332.798098 
L 747.095579 333.071404 
L 746.907588 333.344709 
L 746.701982 333.618015 
L 746.478187 333.891321 
L 746.235673 334.164627 
L 745.973974 334.437933 
L 745.692705 334.711238 
L 745.391573 334.984544 
L 745.070392 335.25785 
L 744.729097 335.531156 
L 744.367748 335.804462 
L 743.986545 336.077767 
L 743.585827 336.351073 
L 743.16608 336.624379 
L 742.727935 336.897685 
L 742.272166 337.170991 
L 741.799692 337.444297 
L 741.311561 337.717602 
L 740.808948 337.990908 
L 740.293143 338.264214 
L 739.765536 338.53752 
L 739.227605 338.810826 
L 738.680896 339.084131 
L 738.127009 339.357437 
L 737.567577 339.630743 
L 737.004246 339.904049 
L 736.438659 340.177355 
L 735.872431 340.45066 
L 735.307134 340.723966 
L 734.744277 340.997272 
L 734.185289 341.270578 
L 733.631501 341.543884 
L 733.084135 341.81719 
L 732.54429 342.090495 
L 732.012933 342.363801 
L 731.490888 342.637107 
L 730.978838 342.910413 
L 730.477314 343.183719 
L 729.986704 343.457024 
L 729.50725 343.73033 
L 729.039054 344.003636 
L 728.582087 344.276942 
L 728.136201 344.550248 
L 727.701137 344.823553 
L 727.276538 345.096859 
L 726.86197 345.370165 
L 726.45693 345.643471 
L 726.060866 345.916777 
L 725.673195 346.190083 
L 725.293316 346.463388 
L 724.920629 346.736694 
L 724.554546 347.01 
z
" style="fill:#1f77b4;fill-opacity:0.3;"/>
   </g>
   <g id="matplotlib.axis_1">
    <g id="xtick_1">
     <g id="line2d_1">
      <defs>
       <path d="M 0 0 
L 0 3.5 
" id="me2c3411565" style="stroke:#000000;stroke-width:0.8;"/>
      </defs>
      <g>
       <use style="stroke:#000000;stroke-width:0.8;" x="167.338333" xlink:href="#me2c3411565" y="362.9"/>
      </g>
     </g>
     <g id="text_1">
      <!-- Defector -->
      <defs>
       <path d="M 19.671875 64.796875 
L 19.671875 8.109375 
L 31.59375 8.109375 
Q 46.6875 8.109375 53.6875 14.9375 
Q 60.6875 21.78125 60.6875 36.53125 
Q 60.6875 51.171875 53.6875 57.984375 
Q 46.6875 64.796875 31.59375 64.796875 
z
M 9.8125 72.90625 
L 30.078125 72.90625 
Q 51.265625 72.90625 61.171875 64.09375 
Q 71.09375 55.28125 71.09375 36.53125 
Q 71.09375 17.671875 61.125 8.828125 
Q 51.171875 0 30.078125 0 
L 9.8125 0 
z
" id="DejaVuSans-44"/>
       <path d="M 56.203125 29.59375 
L 56.203125 25.203125 
L 14.890625 25.203125 
Q 15.484375 15.921875 20.484375 11.0625 
Q 25.484375 6.203125 34.421875 6.203125 
Q 39.59375 6.203125 44.453125 7.46875 
Q 49.3125 8.734375 54.109375 11.28125 
L 54.109375 2.78125 
Q 49.265625 0.734375 44.1875 -0.34375 
Q 39.109375 -1.421875 33.890625 -1.421875 
Q 20.796875 -1.421875 13.15625 6.1875 
Q 5.515625 13.8125 5.515625 26.8125 
Q 5.515625 40.234375 12.765625 48.109375 
Q 20.015625 56 32.328125 56 
Q 43.359375 56 49.78125 48.890625 
Q 56.203125 41.796875 56.203125 29.59375 
M 47.21875 32.234375 
Q 47.125 39.59375 43.09375 43.984375 
Q 39.0625 48.390625 32.421875 48.390625 
Q 24.90625 48.390625 20.390625 44.140625 
Q 15.875 39.890625 15.1875 32.171875 
z
" id="DejaVuSans-65"/>
       <path d="M 37.109375 75.984375 
L 37.109375 68.5 
L 28.515625 68.5 
Q 23.6875 68.5 21.796875 66.546875 
Q 19.921875 64.59375 19.921875 59.515625 
L 19.921875 54.6875 
L 34.71875 54.6875 
L 34.71875 47.703125 
L 19.921875 47.703125 
L 19.921875 0 
L 10.890625 0 
L 10.890625 47.703125 
L 2.296875 47.703125 
L 2.296875 54.6875 
L 10.890625 54.6875 
L 10.890625 58.5 
Q 10.890625 67.625 15.140625 71.796875 
Q 19.390625 75.984375 28.609375 75.984375 
z
" id="DejaVuSans-66"/>
       <path d="M 48.78125 52.59375 
L 48.78125 44.1875 
Q 44.96875 46.296875 41.140625 47.34375 
Q 37.3125 48.390625 33.40625 48.390625 
Q 24.65625 48.390625 19.8125 42.84375 
Q 14.984375 37.3125 14.984375 27.296875 
Q 14.984375 17.28125 19.8125 11.734375 
Q 24.65625 6.203125 33.40625 6.203125 
Q 37.3125 6.203125 41.140625 7.25 
Q 44.96875 8.296875 48.78125 10.40625 
L 48.78125 2.09375 
Q 45.015625 0.34375 40.984375 -0.53125 
Q 36.96875 -1.421875 32.421875 -1.421875 
Q 20.0625 -1.421875 12.78125 6.34375 
Q 5.515625 14.109375 5.515625 27.296875 
Q 5.515625 40.671875 12.859375 48.328125 
Q 20.21875 56 33.015625 56 
Q 37.15625 56 41.109375 55.140625 
Q 45.0625 54.296875 48.78125 52.59375 
" id="DejaVuSans-63"/>
       <path d="M 18.3125 70.21875 
L 18.3125 54.6875 
L 36.8125 54.6875 
L 36.8125 47.703125 
L 18.3125 47.703125 
L 18.3125 18.015625 
Q 18.3125 11.328125 20.140625 9.421875 
Q 21.96875 7.515625 27.59375 7.515625 
L 36.8125 7.515625 
L 36.8125 0 
L 27.59375 0 
Q 17.1875 0 13.234375 3.875 
Q 9.28125 7.765625 9.28125 18.015625 
L 9.28125 47.703125 
L 2.6875 47.703125 
L 2.6875 54.6875 
L 9.28125 54.6875 
L 9.28125 70.21875 
z
" id="DejaVuSans-74"/>
       <path d="M 30.609375 48.390625 
Q 23.390625 48.390625 19.1875 42.75 
Q 14.984375 37.109375 14.984375 27.296875 
Q 14.984375 17.484375 19.15625 11.84375 
Q 23.34375 6.203125 30.609375 6.203125 
Q 37.796875 6.203125 41.984375 11.859375 
Q 46.1875 17.53125 46.1875 27.296875 
Q 46.1875 37.015625 41.984375 42.703125 
Q 37.796875 48.390625 30.609375 48.390625 
M 30.609375 56 
Q 42.328125 56 49.015625 48.375 
Q 55.71875 40.765625 55.71875 27.296875 
Q 55.71875 13.875 49.015625 6.21875 
Q 42.328125 -1.421875 30.609375 -1.421875 
Q 18.84375 -1.421875 12.171875 6.21875 
Q 5.515625 13.875 5.515625 27.296875 
Q 5.515625 40.765625 12.171875 48.375 
Q 18.84375 56 30.609375 56 
" id="DejaVuSans-6f"/>
       <path d="M 41.109375 46.296875 
Q 39.59375 47.171875 37.8125 47.578125 
Q 36.03125 48 33.890625 48 
Q 26.265625 48 22.1875 43.046875 
Q 18.109375 38.09375 18.109375 28.8125 
L 18.109375 0 
L 9.078125 0 
L 9.078125 54.6875 
L 18.109375 54.6875 
L 18.109375 46.1875 
Q 20.953125 51.171875 25.484375 53.578125 
Q 30.03125 56 36.53125 56 
Q 37.453125 56 38.578125 55.875 
Q 39.703125 55.765625 41.0625 55.515625 
z
" id="DejaVuSans-72"/>
      </defs>
      <g transform="translate(169.545833 404.44)rotate(-90)scale(0.08 -0.08)">
       <use xlink:href="#DejaVuSans-44"/>
       <use x="77.001953" xlink:href="#DejaVuSans-65"/>
       <use x="138.525391" xlink:href="#DejaVuSans-66"/>
       <use x="173.730469" xlink:href="#DejaVuSans-65"/>
       <use x="235.253906" xlink:href="#DejaVuSans-63"/>
       <use x="290.234375" xlink:href="#DejaVuSans-74"/>
       <use x="329.443359" xlink:href="#DejaVuSans-6f"/>
       <use x="390.625" xlink:href="#DejaVuSans-72"/>
      </g>
     </g>
    </g>
    <g id="xtick_2">
     <g id="line2d_2">
      <g>
       <use style="stroke:#000000;stroke-width:0.8;" x="304.006667" xlink:href="#me2c3411565" y="362.9"/>
      </g>
     </g>
     <g id="text_2">
      <!-- Grudger -->
      <defs>
       <path d="M 59.515625 10.40625 
L 59.515625 29.984375 
L 43.40625 29.984375 
L 43.40625 38.09375 
L 69.28125 38.09375 
L 69.28125 6.78125 
Q 63.578125 2.734375 56.6875 0.65625 
Q 49.8125 -1.421875 42 -1.421875 
Q 24.90625 -1.421875 15.25 8.5625 
Q 5.609375 18.5625 5.609375 36.375 
Q 5.609375 54.25 15.25 64.234375 
Q 24.90625 74.21875 42 74.21875 
Q 49.125 74.21875 55.546875 72.453125 
Q 61.96875 70.703125 67.390625 67.28125 
L 67.390625 56.78125 
Q 61.921875 61.421875 55.765625 63.765625 
Q 49.609375 66.109375 42.828125 66.109375 
Q 29.4375 66.109375 22.71875 58.640625 
Q 16.015625 51.171875 16.015625 36.375 
Q 16.015625 21.625 22.71875 14.15625 
Q 29.4375 6.6875 42.828125 6.6875 
Q 48.046875 6.6875 52.140625 7.59375 
Q 56.25 8.5 59.515625 10.40625 
" id="DejaVuSans-47"/>
       <path d="M 8.5 21.578125 
L 8.5 54.6875 
L 17.484375 54.6875 
L 17.484375 21.921875 
Q 17.484375 14.15625 20.5 10.265625 
Q 23.53125 6.390625 29.59375 6.390625 
Q 36.859375 6.390625 41.078125 11.03125 
Q 45.3125 15.671875 45.3125 23.6875 
L 45.3125 54.6875 
L 54.296875 54.6875 
L 54.296875 0 
L 45.3125 0 
L 45.3125 8.40625 
Q 42.046875 3.421875 37.71875 1 
Q 33.40625 -1.421875 27.6875 -1.421875 
Q 18.265625 -1.421875 13.375 4.4375 
Q 8.5 10.296875 8.5 21.578125 
M 31.109375 56 
z
" id="DejaVuSans-75"/>
       <path d="M 45.40625 46.390625 
L 45.40625 75.984375 
L 54.390625 75.984375 
L 54.390625 0 
L 45.40625 0 
L 45.40625 8.203125 
Q 42.578125 3.328125 38.25 0.953125 
Q 33.9375 -1.421875 27.875 -1.421875 
Q 17.96875 -1.421875 11.734375 6.484375 
Q 5.515625 14.40625 5.515625 27.296875 
Q 5.515625 40.1875 11.734375 48.09375 
Q 17.96875 56 27.875 56 
Q 33.9375 56 38.25 53.625 
Q 42.578125 51.265625 45.40625 46.390625 
M 14.796875 27.296875 
Q 14.796875 17.390625 18.875 11.75 
Q 22.953125 6.109375 30.078125 6.109375 
Q 37.203125 6.109375 41.296875 11.75 
Q 45.40625 17.390625 45.40625 27.296875 
Q 45.40625 37.203125 41.296875 42.84375 
Q 37.203125 48.484375 30.078125 48.484375 
Q 22.953125 48.484375 18.875 42.84375 
Q 14.796875 37.203125 14.796875 27.296875 
" id="DejaVuSans-64"/>
       <path d="M 45.40625 27.984375 
Q 45.40625 37.75 41.375 43.109375 
Q 37.359375 48.484375 30.078125 48.484375 
Q 22.859375 48.484375 18.828125 43.109375 
Q 14.796875 37.75 14.796875 27.984375 
Q 14.796875 18.265625 18.828125 12.890625 
Q 22.859375 7.515625 30.078125 7.515625 
Q 37.359375 7.515625 41.375 12.890625 
Q 45.40625 18.265625 45.40625 27.984375 
M 54.390625 6.78125 
Q 54.390625 -7.171875 48.1875 -13.984375 
Q 42 -20.796875 29.203125 -20.796875 
Q 24.46875 -20.796875 20.265625 -20.09375 
Q 16.0625 -19.390625 12.109375 -17.921875 
L 12.109375 -9.1875 
Q 16.0625 -11.328125 19.921875 -12.34375 
Q 23.78125 -13.375 27.78125 -13.375 
Q 36.625 -13.375 41.015625 -8.765625 
Q 45.40625 -4.15625 45.40625 5.171875 
L 45.40625 9.625 
Q 42.625 4.78125 38.28125 2.390625 
Q 33.9375 0 27.875 0 
Q 17.828125 0 11.671875 7.65625 
Q 5.515625 15.328125 5.515625 27.984375 
Q 5.515625 40.671875 11.671875 48.328125 
Q 17.828125 56 27.875 56 
Q 33.9375 56 38.28125 53.609375 
Q 42.625 51.21875 45.40625 46.390625 
L 45.40625 54.6875 
L 54.390625 54.6875 
z
" id="DejaVuSans-67"/>
      </defs>
      <g transform="translate(306.214167 402.82625)rotate(-90)scale(0.08 -0.08)">
       <use xlink:href="#DejaVuSans-47"/>
       <use x="77.490234" xlink:href="#DejaVuSans-72"/>
       <use x="118.603516" xlink:href="#DejaVuSans-75"/>
       <use x="181.982422" xlink:href="#DejaVuSans-64"/>
       <use x="245.458984" xlink:href="#DejaVuSans-67"/>
       <use x="308.935547" xlink:href="#DejaVuSans-65"/>
       <use x="370.458984" xlink:href="#DejaVuSans-72"/>
      </g>
     </g>
    </g>
    <g id="xtick_3">
     <g id="line2d_3">
      <g>
       <use style="stroke:#000000;stroke-width:0.8;" x="440.675" xlink:href="#me2c3411565" y="362.9"/>
      </g>
     </g>
     <g id="text_3">
      <!-- Tit For Tat -->
      <defs>
       <path d="M -0.296875 72.90625 
L 61.375 72.90625 
L 61.375 64.59375 
L 35.5 64.59375 
L 35.5 0 
L 25.59375 0 
L 25.59375 64.59375 
L -0.296875 64.59375 
z
" id="DejaVuSans-54"/>
       <path d="M 9.421875 54.6875 
L 18.40625 54.6875 
L 18.40625 0 
L 9.421875 0 
z
M 9.421875 75.984375 
L 18.40625 75.984375 
L 18.40625 64.59375 
L 9.421875 64.59375 
z
" id="DejaVuSans-69"/>
       <path id="DejaVuSans-20"/>
       <path d="M 9.8125 72.90625 
L 51.703125 72.90625 
L 51.703125 64.59375 
L 19.671875 64.59375 
L 19.671875 43.109375 
L 48.578125 43.109375 
L 48.578125 34.8125 
L 19.671875 34.8125 
L 19.671875 0 
L 9.8125 0 
z
" id="DejaVuSans-46"/>
       <path d="M 34.28125 27.484375 
Q 23.390625 27.484375 19.1875 25 
Q 14.984375 22.515625 14.984375 16.5 
Q 14.984375 11.71875 18.140625 8.90625 
Q 21.296875 6.109375 26.703125 6.109375 
Q 34.1875 6.109375 38.703125 11.40625 
Q 43.21875 16.703125 43.21875 25.484375 
L 43.21875 27.484375 
z
M 52.203125 31.203125 
L 52.203125 0 
L 43.21875 0 
L 43.21875 8.296875 
Q 40.140625 3.328125 35.546875 0.953125 
Q 30.953125 -1.421875 24.3125 -1.421875 
Q 15.921875 -1.421875 10.953125 3.296875 
Q 6 8.015625 6 15.921875 
Q 6 25.140625 12.171875 29.828125 
Q 18.359375 34.515625 30.609375 34.515625 
L 43.21875 34.515625 
L 43.21875 35.40625 
Q 43.21875 41.609375 39.140625 45 
Q 35.0625 48.390625 27.6875 48.390625 
Q 23 48.390625 18.546875 47.265625 
Q 14.109375 46.140625 10.015625 43.890625 
L 10.015625 52.203125 
Q 14.9375 54.109375 19.578125 55.046875 
Q 24.21875 56 28.609375 56 
Q 40.484375 56 46.34375 49.84375 
Q 52.203125 43.703125 52.203125 31.203125 
" id="DejaVuSans-61"/>
      </defs>
      <g transform="translate(442.8825 410.9125)rotate(-90)scale(0.08 -0.08)">
       <use xlink:href="#DejaVuSans-54"/>
       <use x="61.037109" xlink:href="#DejaVuSans-69"/>
       <use x="88.820312" xlink:href="#DejaVuSans-74"/>
       <use x="128.029297" xlink:href="#DejaVuSans-20"/>
       <use x="159.816406" xlink:href="#DejaVuSans-46"/>
       <use x="217.289062" xlink:href="#DejaVuSans-6f"/>
       <use x="278.470703" xlink:href="#DejaVuSans-72"/>
       <use x="319.583984" xlink:href="#DejaVuSans-20"/>
       <use x="351.371094" xlink:href="#DejaVuSans-54"/>
       <use x="412.205078" xlink:href="#DejaVuSans-61"/>
       <use x="473.484375" xlink:href="#DejaVuSans-74"/>
      </g>
     </g>
    </g>
    <g id="xtick_4">
     <g id="line2d_4">
      <g>
       <use style="stroke:#000000;stroke-width:0.8;" x="577.343333" xlink:href="#me2c3411565" y="362.9"/>
      </g>
     </g>
     <g id="text_4">
      <!-- Cooperator -->
      <defs>
       <path d="M 64.40625 67.28125 
L 64.40625 56.890625 
Q 59.421875 61.53125 53.78125 63.8125 
Q 48.140625 66.109375 41.796875 66.109375 
Q 29.296875 66.109375 22.65625 58.46875 
Q 16.015625 50.828125 16.015625 36.375 
Q 16.015625 21.96875 22.65625 14.328125 
Q 29.296875 6.6875 41.796875 6.6875 
Q 48.140625 6.6875 53.78125 8.984375 
Q 59.421875 11.28125 64.40625 15.921875 
L 64.40625 5.609375 
Q 59.234375 2.09375 53.4375 0.328125 
Q 47.65625 -1.421875 41.21875 -1.421875 
Q 24.65625 -1.421875 15.125 8.703125 
Q 5.609375 18.84375 5.609375 36.375 
Q 5.609375 53.953125 15.125 64.078125 
Q 24.65625 74.21875 41.21875 74.21875 
Q 47.75 74.21875 53.53125 72.484375 
Q 59.328125 70.75 64.40625 67.28125 
" id="DejaVuSans-43"/>
       <path d="M 18.109375 8.203125 
L 18.109375 -20.796875 
L 9.078125 -20.796875 
L 9.078125 54.6875 
L 18.109375 54.6875 
L 18.109375 46.390625 
Q 20.953125 51.265625 25.265625 53.625 
Q 29.59375 56 35.59375 56 
Q 45.5625 56 51.78125 48.09375 
Q 58.015625 40.1875 58.015625 27.296875 
Q 58.015625 14.40625 51.78125 6.484375 
Q 45.5625 -1.421875 35.59375 -1.421875 
Q 29.59375 -1.421875 25.265625 0.953125 
Q 20.953125 3.328125 18.109375 8.203125 
M 48.6875 27.296875 
Q 48.6875 37.203125 44.609375 42.84375 
Q 40.53125 48.484375 33.40625 48.484375 
Q 26.265625 48.484375 22.1875 42.84375 
Q 18.109375 37.203125 18.109375 27.296875 
Q 18.109375 17.390625 22.1875 11.75 
Q 26.265625 6.109375 33.40625 6.109375 
Q 40.53125 6.109375 44.609375 11.75 
Q 48.6875 17.390625 48.6875 27.296875 
" id="DejaVuSans-70"/>
      </defs>
      <g transform="translate(579.550833 414.78875)rotate(-90)scale(0.08 -0.08)">
       <use xlink:href="#DejaVuSans-43"/>
       <use x="69.824219" xlink:href="#DejaVuSans-6f"/>
       <use x="131.005859" xlink:href="#DejaVuSans-6f"/>
       <use x="192.1875" xlink:href="#DejaVuSans-70"/>
       <use x="255.664062" xlink:href="#DejaVuSans-65"/>
       <use x="317.1875" xlink:href="#DejaVuSans-72"/>
       <use x="358.300781" xlink:href="#DejaVuSans-61"/>
       <use x="419.580078" xlink:href="#DejaVuSans-74"/>
       <use x="458.789062" xlink:href="#DejaVuSans-6f"/>
       <use x="519.970703" xlink:href="#DejaVuSans-72"/>
      </g>
     </g>
    </g>
    <g id="xtick_5">
     <g id="line2d_5">
      <g>
       <use style="stroke:#000000;stroke-width:0.8;" x="714.011667" xlink:href="#me2c3411565" y="362.9"/>
      </g>
     </g>
     <g id="text_5">
      <!-- Random: 0.5 -->
      <defs>
       <path d="M 44.390625 34.1875 
Q 47.5625 33.109375 50.5625 29.59375 
Q 53.5625 26.078125 56.59375 19.921875 
L 66.609375 0 
L 56 0 
L 46.6875 18.703125 
Q 43.0625 26.03125 39.671875 28.421875 
Q 36.28125 30.8125 30.421875 30.8125 
L 19.671875 30.8125 
L 19.671875 0 
L 9.8125 0 
L 9.8125 72.90625 
L 32.078125 72.90625 
Q 44.578125 72.90625 50.734375 67.671875 
Q 56.890625 62.453125 56.890625 51.90625 
Q 56.890625 45.015625 53.6875 40.46875 
Q 50.484375 35.9375 44.390625 34.1875 
M 19.671875 64.796875 
L 19.671875 38.921875 
L 32.078125 38.921875 
Q 39.203125 38.921875 42.84375 42.21875 
Q 46.484375 45.515625 46.484375 51.90625 
Q 46.484375 58.296875 42.84375 61.546875 
Q 39.203125 64.796875 32.078125 64.796875 
z
" id="DejaVuSans-52"/>
       <path d="M 54.890625 33.015625 
L 54.890625 0 
L 45.90625 0 
L 45.90625 32.71875 
Q 45.90625 40.484375 42.875 44.328125 
Q 39.84375 48.1875 33.796875 48.1875 
Q 26.515625 48.1875 22.3125 43.546875 
Q 18.109375 38.921875 18.109375 30.90625 
L 18.109375 0 
L 9.078125 0 
L 9.078125 54.6875 
L 18.109375 54.6875 
L 18.109375 46.1875 
Q 21.34375 51.125 25.703125 53.5625 
Q 30.078125 56 35.796875 56 
Q 45.21875 56 50.046875 50.171875 
Q 54.890625 44.34375 54.890625 33.015625 
" id="DejaVuSans-6e"/>
       <path d="M 52 44.1875 
Q 55.375 50.25 60.0625 53.125 
Q 64.75 56 71.09375 56 
Q 79.640625 56 84.28125 50.015625 
Q 88.921875 44.046875 88.921875 33.015625 
L 88.921875 0 
L 79.890625 0 
L 79.890625 32.71875 
Q 79.890625 40.578125 77.09375 44.375 
Q 74.3125 48.1875 68.609375 48.1875 
Q 61.625 48.1875 57.5625 43.546875 
Q 53.515625 38.921875 53.515625 30.90625 
L 53.515625 0 
L 44.484375 0 
L 44.484375 32.71875 
Q 44.484375 40.625 41.703125 44.40625 
Q 38.921875 48.1875 33.109375 48.1875 
Q 26.21875 48.1875 22.15625 43.53125 
Q 18.109375 38.875 18.109375 30.90625 
L 18.109375 0 
L 9.078125 0 
L 9.078125 54.6875 
L 18.109375 54.6875 
L 18.109375 46.1875 
Q 21.1875 51.21875 25.484375 53.609375 
Q 29.78125 56 35.6875 56 
Q 41.65625 56 45.828125 52.96875 
Q 50 49.953125 52 44.1875 
" id="DejaVuSans-6d"/>
       <path d="M 11.71875 12.40625 
L 22.015625 12.40625 
L 22.015625 0 
L 11.71875 0 
z
M 11.71875 51.703125 
L 22.015625 51.703125 
L 22.015625 39.3125 
L 11.71875 39.3125 
z
" id="DejaVuSans-3a"/>
       <path d="M 31.78125 66.40625 
Q 24.171875 66.40625 20.328125 58.90625 
Q 16.5 51.421875 16.5 36.375 
Q 16.5 21.390625 20.328125 13.890625 
Q 24.171875 6.390625 31.78125 6.390625 
Q 39.453125 6.390625 43.28125 13.890625 
Q 47.125 21.390625 47.125 36.375 
Q 47.125 51.421875 43.28125 58.90625 
Q 39.453125 66.40625 31.78125 66.40625 
M 31.78125 74.21875 
Q 44.046875 74.21875 50.515625 64.515625 
Q 56.984375 54.828125 56.984375 36.375 
Q 56.984375 17.96875 50.515625 8.265625 
Q 44.046875 -1.421875 31.78125 -1.421875 
Q 19.53125 -1.421875 13.0625 8.265625 
Q 6.59375 17.96875 6.59375 36.375 
Q 6.59375 54.828125 13.0625 64.515625 
Q 19.53125 74.21875 31.78125 74.21875 
" id="DejaVuSans-30"/>
       <path d="M 10.6875 12.40625 
L 21 12.40625 
L 21 0 
L 10.6875 0 
z
" id="DejaVuSans-2e"/>
       <path d="M 10.796875 72.90625 
L 49.515625 72.90625 
L 49.515625 64.59375 
L 19.828125 64.59375 
L 19.828125 46.734375 
Q 21.96875 47.46875 24.109375 47.828125 
Q 26.265625 48.1875 28.421875 48.1875 
Q 40.625 48.1875 47.75 41.5 
Q 54.890625 34.8125 54.890625 23.390625 
Q 54.890625 11.625 47.5625 5.09375 
Q 40.234375 -1.421875 26.90625 -1.421875 
Q 22.3125 -1.421875 17.546875 -0.640625 
Q 12.796875 0.140625 7.71875 1.703125 
L 7.71875 11.625 
Q 12.109375 9.234375 16.796875 8.0625 
Q 21.484375 6.890625 26.703125 6.890625 
Q 35.15625 6.890625 40.078125 11.328125 
Q 45.015625 15.765625 45.015625 23.390625 
Q 45.015625 31 40.078125 35.4375 
Q 35.15625 39.890625 26.703125 39.890625 
Q 22.75 39.890625 18.8125 39.015625 
Q 14.890625 38.140625 10.796875 36.28125 
z
" id="DejaVuSans-35"/>
      </defs>
      <g transform="translate(716.219167 421.155)rotate(-90)scale(0.08 -0.08)">
       <use xlink:href="#DejaVuSans-52"/>
       <use x="69.451172" xlink:href="#DejaVuSans-61"/>
       <use x="130.730469" xlink:href="#DejaVuSans-6e"/>
       <use x="194.109375" xlink:href="#DejaVuSans-64"/>
       <use x="257.585938" xlink:href="#DejaVuSans-6f"/>
       <use x="318.767578" xlink:href="#DejaVuSans-6d"/>
       <use x="416.179688" xlink:href="#DejaVuSans-3a"/>
       <use x="449.871094" xlink:href="#DejaVuSans-20"/>
       <use x="481.658203" xlink:href="#DejaVuSans-30"/>
       <use x="545.28125" xlink:href="#DejaVuSans-2e"/>
       <use x="577.068359" xlink:href="#DejaVuSans-35"/>
      </g>
     </g>
    </g>
   </g>
   <g id="matplotlib.axis_2">
    <g id="ytick_1">
     <g id="line2d_6">
      <defs>
       <path d="M 0 0 
L -3.5 0 
" id="m726af23860" style="stroke:#000000;stroke-width:0.8;"/>
      </defs>
      <g>
       <use style="stroke:#000000;stroke-width:0.8;" x="30.67" xlink:href="#m726af23860" y="334.219288"/>
      </g>
     </g>
     <g id="text_6">
      <!-- 1.8 -->
      <defs>
       <path d="M 12.40625 8.296875 
L 28.515625 8.296875 
L 28.515625 63.921875 
L 10.984375 60.40625 
L 10.984375 69.390625 
L 28.421875 72.90625 
L 38.28125 72.90625 
L 38.28125 8.296875 
L 54.390625 8.296875 
L 54.390625 0 
L 12.40625 0 
z
" id="DejaVuSans-31"/>
       <path d="M 31.78125 34.625 
Q 24.75 34.625 20.71875 30.859375 
Q 16.703125 27.09375 16.703125 20.515625 
Q 16.703125 13.921875 20.71875 10.15625 
Q 24.75 6.390625 31.78125 6.390625 
Q 38.8125 6.390625 42.859375 10.171875 
Q 46.921875 13.96875 46.921875 20.515625 
Q 46.921875 27.09375 42.890625 30.859375 
Q 38.875 34.625 31.78125 34.625 
M 21.921875 38.8125 
Q 15.578125 40.375 12.03125 44.71875 
Q 8.5 49.078125 8.5 55.328125 
Q 8.5 64.0625 14.71875 69.140625 
Q 20.953125 74.21875 31.78125 74.21875 
Q 42.671875 74.21875 48.875 69.140625 
Q 55.078125 64.0625 55.078125 55.328125 
Q 55.078125 49.078125 51.53125 44.71875 
Q 48 40.375 41.703125 38.8125 
Q 48.828125 37.15625 52.796875 32.3125 
Q 56.78125 27.484375 56.78125 20.515625 
Q 56.78125 9.90625 50.3125 4.234375 
Q 43.84375 -1.421875 31.78125 -1.421875 
Q 19.734375 -1.421875 13.25 4.234375 
Q 6.78125 9.90625 6.78125 20.515625 
Q 6.78125 27.484375 10.78125 32.3125 
Q 14.796875 37.15625 21.921875 38.8125 
M 18.3125 54.390625 
Q 18.3125 48.734375 21.84375 45.5625 
Q 25.390625 42.390625 31.78125 42.390625 
Q 38.140625 42.390625 41.71875 45.5625 
Q 45.3125 48.734375 45.3125 54.390625 
Q 45.3125 60.0625 41.71875 63.234375 
Q 38.140625 66.40625 31.78125 66.40625 
Q 25.390625 66.40625 21.84375 63.234375 
Q 18.3125 60.0625 18.3125 54.390625 
" id="DejaVuSans-38"/>
      </defs>
      <g transform="translate(10.9475 337.258663)scale(0.08 -0.08)">
       <use xlink:href="#DejaVuSans-31"/>
       <use x="63.623047" xlink:href="#DejaVuSans-2e"/>
       <use x="95.410156" xlink:href="#DejaVuSans-38"/>
      </g>
     </g>
    </g>
    <g id="ytick_2">
     <g id="line2d_7">
      <g>
       <use style="stroke:#000000;stroke-width:0.8;" x="30.67" xlink:href="#m726af23860" y="294.863251"/>
      </g>
     </g>
     <g id="text_7">
      <!-- 1.9 -->
      <defs>
       <path d="M 10.984375 1.515625 
L 10.984375 10.5 
Q 14.703125 8.734375 18.5 7.8125 
Q 22.3125 6.890625 25.984375 6.890625 
Q 35.75 6.890625 40.890625 13.453125 
Q 46.046875 20.015625 46.78125 33.40625 
Q 43.953125 29.203125 39.59375 26.953125 
Q 35.25 24.703125 29.984375 24.703125 
Q 19.046875 24.703125 12.671875 31.3125 
Q 6.296875 37.9375 6.296875 49.421875 
Q 6.296875 60.640625 12.9375 67.421875 
Q 19.578125 74.21875 30.609375 74.21875 
Q 43.265625 74.21875 49.921875 64.515625 
Q 56.59375 54.828125 56.59375 36.375 
Q 56.59375 19.140625 48.40625 8.859375 
Q 40.234375 -1.421875 26.421875 -1.421875 
Q 22.703125 -1.421875 18.890625 -0.6875 
Q 15.09375 0.046875 10.984375 1.515625 
M 30.609375 32.421875 
Q 37.25 32.421875 41.125 36.953125 
Q 45.015625 41.5 45.015625 49.421875 
Q 45.015625 57.28125 41.125 61.84375 
Q 37.25 66.40625 30.609375 66.40625 
Q 23.96875 66.40625 20.09375 61.84375 
Q 16.21875 57.28125 16.21875 49.421875 
Q 16.21875 41.5 20.09375 36.953125 
Q 23.96875 32.421875 30.609375 32.421875 
" id="DejaVuSans-39"/>
      </defs>
      <g transform="translate(10.9475 297.902626)scale(0.08 -0.08)">
       <use xlink:href="#DejaVuSans-31"/>
       <use x="63.623047" xlink:href="#DejaVuSans-2e"/>
       <use x="95.410156" xlink:href="#DejaVuSans-39"/>
      </g>
     </g>
    </g>
    <g id="ytick_3">
     <g id="line2d_8">
      <g>
       <use style="stroke:#000000;stroke-width:0.8;" x="30.67" xlink:href="#m726af23860" y="255.507214"/>
      </g>
     </g>
     <g id="text_8">
      <!-- 2.0 -->
      <defs>
       <path d="M 19.1875 8.296875 
L 53.609375 8.296875 
L 53.609375 0 
L 7.328125 0 
L 7.328125 8.296875 
Q 12.9375 14.109375 22.625 23.890625 
Q 32.328125 33.6875 34.8125 36.53125 
Q 39.546875 41.84375 41.421875 45.53125 
Q 43.3125 49.21875 43.3125 52.78125 
Q 43.3125 58.59375 39.234375 62.25 
Q 35.15625 65.921875 28.609375 65.921875 
Q 23.96875 65.921875 18.8125 64.3125 
Q 13.671875 62.703125 7.8125 59.421875 
L 7.8125 69.390625 
Q 13.765625 71.78125 18.9375 73 
Q 24.125 74.21875 28.421875 74.21875 
Q 39.75 74.21875 46.484375 68.546875 
Q 53.21875 62.890625 53.21875 53.421875 
Q 53.21875 48.921875 51.53125 44.890625 
Q 49.859375 40.875 45.40625 35.40625 
Q 44.1875 33.984375 37.640625 27.21875 
Q 31.109375 20.453125 19.1875 8.296875 
" id="DejaVuSans-32"/>
      </defs>
      <g transform="translate(10.9475 258.546589)scale(0.08 -0.08)">
       <use xlink:href="#DejaVuSans-32"/>
       <use x="63.623047" xlink:href="#DejaVuSans-2e"/>
       <use x="95.410156" xlink:href="#DejaVuSans-30"/>
      </g>
     </g>
    </g>
    <g id="ytick_4">
     <g id="line2d_9">
      <g>
       <use style="stroke:#000000;stroke-width:0.8;" x="30.67" xlink:href="#m726af23860" y="216.151176"/>
      </g>
     </g>
     <g id="text_9">
      <!-- 2.1 -->
      <g transform="translate(10.9475 219.190551)scale(0.08 -0.08)">
       <use xlink:href="#DejaVuSans-32"/>
       <use x="63.623047" xlink:href="#DejaVuSans-2e"/>
       <use x="95.410156" xlink:href="#DejaVuSans-31"/>
      </g>
     </g>
    </g>
    <g id="ytick_5">
     <g id="line2d_10">
      <g>
       <use style="stroke:#000000;stroke-width:0.8;" x="30.67" xlink:href="#m726af23860" y="176.795139"/>
      </g>
     </g>
     <g id="text_10">
      <!-- 2.2 -->
      <g transform="translate(10.9475 179.834514)scale(0.08 -0.08)">
       <use xlink:href="#DejaVuSans-32"/>
       <use x="63.623047" xlink:href="#DejaVuSans-2e"/>
       <use x="95.410156" xlink:href="#DejaVuSans-32"/>
      </g>
     </g>
    </g>
    <g id="ytick_6">
     <g id="line2d_11">
      <g>
       <use style="stroke:#000000;stroke-width:0.8;" x="30.67" xlink:href="#m726af23860" y="137.439102"/>
      </g>
     </g>
     <g id="text_11">
      <!-- 2.3 -->
      <defs>
       <path d="M 40.578125 39.3125 
Q 47.65625 37.796875 51.625 33 
Q 55.609375 28.21875 55.609375 21.1875 
Q 55.609375 10.40625 48.1875 4.484375 
Q 40.765625 -1.421875 27.09375 -1.421875 
Q 22.515625 -1.421875 17.65625 -0.515625 
Q 12.796875 0.390625 7.625 2.203125 
L 7.625 11.71875 
Q 11.71875 9.328125 16.59375 8.109375 
Q 21.484375 6.890625 26.8125 6.890625 
Q 36.078125 6.890625 40.9375 10.546875 
Q 45.796875 14.203125 45.796875 21.1875 
Q 45.796875 27.640625 41.28125 31.265625 
Q 36.765625 34.90625 28.71875 34.90625 
L 20.21875 34.90625 
L 20.21875 43.015625 
L 29.109375 43.015625 
Q 36.375 43.015625 40.234375 45.921875 
Q 44.09375 48.828125 44.09375 54.296875 
Q 44.09375 59.90625 40.109375 62.90625 
Q 36.140625 65.921875 28.71875 65.921875 
Q 24.65625 65.921875 20.015625 65.03125 
Q 15.375 64.15625 9.8125 62.3125 
L 9.8125 71.09375 
Q 15.4375 72.65625 20.34375 73.4375 
Q 25.25 74.21875 29.59375 74.21875 
Q 40.828125 74.21875 47.359375 69.109375 
Q 53.90625 64.015625 53.90625 55.328125 
Q 53.90625 49.265625 50.4375 45.09375 
Q 46.96875 40.921875 40.578125 39.3125 
" id="DejaVuSans-33"/>
      </defs>
      <g transform="translate(10.9475 140.478477)scale(0.08 -0.08)">
       <use xlink:href="#DejaVuSans-32"/>
       <use x="63.623047" xlink:href="#DejaVuSans-2e"/>
       <use x="95.410156" xlink:href="#DejaVuSans-33"/>
      </g>
     </g>
    </g>
    <g id="ytick_7">
     <g id="line2d_12">
      <g>
       <use style="stroke:#000000;stroke-width:0.8;" x="30.67" xlink:href="#m726af23860" y="98.083065"/>
      </g>
     </g>
     <g id="text_12">
      <!-- 2.4 -->
      <defs>
       <path d="M 37.796875 64.3125 
L 12.890625 25.390625 
L 37.796875 25.390625 
z
M 35.203125 72.90625 
L 47.609375 72.90625 
L 47.609375 25.390625 
L 58.015625 25.390625 
L 58.015625 17.1875 
L 47.609375 17.1875 
L 47.609375 0 
L 37.796875 0 
L 37.796875 17.1875 
L 4.890625 17.1875 
L 4.890625 26.703125 
z
" id="DejaVuSans-34"/>
      </defs>
      <g transform="translate(10.9475 101.12244)scale(0.08 -0.08)">
       <use xlink:href="#DejaVuSans-32"/>
       <use x="63.623047" xlink:href="#DejaVuSans-2e"/>
       <use x="95.410156" xlink:href="#DejaVuSans-34"/>
      </g>
     </g>
    </g>
    <g id="ytick_8">
     <g id="line2d_13">
      <g>
       <use style="stroke:#000000;stroke-width:0.8;" x="30.67" xlink:href="#m726af23860" y="58.727028"/>
      </g>
     </g>
     <g id="text_13">
      <!-- 2.5 -->
      <g transform="translate(10.9475 61.766403)scale(0.08 -0.08)">
       <use xlink:href="#DejaVuSans-32"/>
       <use x="63.623047" xlink:href="#DejaVuSans-2e"/>
       <use x="95.410156" xlink:href="#DejaVuSans-35"/>
      </g>
     </g>
    </g>
    <g id="ytick_9">
     <g id="line2d_14">
      <g>
       <use style="stroke:#000000;stroke-width:0.8;" x="30.67" xlink:href="#m726af23860" y="19.370991"/>
      </g>
     </g>
     <g id="text_14">
      <!-- 2.6 -->
      <defs>
       <path d="M 33.015625 40.375 
Q 26.375 40.375 22.484375 35.828125 
Q 18.609375 31.296875 18.609375 23.390625 
Q 18.609375 15.53125 22.484375 10.953125 
Q 26.375 6.390625 33.015625 6.390625 
Q 39.65625 6.390625 43.53125 10.953125 
Q 47.40625 15.53125 47.40625 23.390625 
Q 47.40625 31.296875 43.53125 35.828125 
Q 39.65625 40.375 33.015625 40.375 
M 52.59375 71.296875 
L 52.59375 62.3125 
Q 48.875 64.0625 45.09375 64.984375 
Q 41.3125 65.921875 37.59375 65.921875 
Q 27.828125 65.921875 22.671875 59.328125 
Q 17.53125 52.734375 16.796875 39.40625 
Q 19.671875 43.65625 24.015625 45.921875 
Q 28.375 48.1875 33.59375 48.1875 
Q 44.578125 48.1875 50.953125 41.515625 
Q 57.328125 34.859375 57.328125 23.390625 
Q 57.328125 12.15625 50.6875 5.359375 
Q 44.046875 -1.421875 33.015625 -1.421875 
Q 20.359375 -1.421875 13.671875 8.265625 
Q 6.984375 17.96875 6.984375 36.375 
Q 6.984375 53.65625 15.1875 63.9375 
Q 23.390625 74.21875 37.203125 74.21875 
Q 40.921875 74.21875 44.703125 73.484375 
Q 48.484375 72.75 52.59375 71.296875 
" id="DejaVuSans-36"/>
      </defs>
      <g transform="translate(10.9475 22.410366)scale(0.08 -0.08)">
       <use xlink:href="#DejaVuSans-32"/>
       <use x="63.623047" xlink:href="#DejaVuSans-2e"/>
       <use x="95.410156" xlink:href="#DejaVuSans-36"/>
      </g>
     </g>
    </g>
   </g>
   <g id="LineCollection_1">
    <path clip-path="url(#pf3c3ed61d0)" d="M 150.254792 55.775325 
L 184.421875 55.775325 
" style="fill:none;stroke:#1f77b4;stroke-width:1.5;"/>
    <path clip-path="url(#pf3c3ed61d0)" d="M 286.923125 61.18678 
L 321.090208 61.18678 
" style="fill:none;stroke:#1f77b4;stroke-width:1.5;"/>
    <path clip-path="url(#pf3c3ed61d0)" d="M 423.591458 137.931053 
L 457.758542 137.931053 
" style="fill:none;stroke:#1f77b4;stroke-width:1.5;"/>
    <path clip-path="url(#pf3c3ed61d0)" d="M 560.259792 302.488483 
L 594.426875 302.488483 
" style="fill:none;stroke:#1f77b4;stroke-width:1.5;"/>
    <path clip-path="url(#pf3c3ed61d0)" d="M 696.928125 331.51356 
L 731.095208 331.51356 
" style="fill:none;stroke:#1f77b4;stroke-width:1.5;"/>
   </g>
   <g id="patch_3">
    <path d="M 30.67 362.9 
L 30.67 13.32 
" style="fill:none;stroke:#000000;stroke-linecap:square;stroke-linejoin:miter;stroke-width:0.8;"/>
   </g>
   <g id="patch_4">
    <path d="M 850.68 362.9 
L 850.68 13.32 
" style="fill:none;stroke:#000000;stroke-linecap:square;stroke-linejoin:miter;stroke-width:0.8;"/>
   </g>
   <g id="patch_5">
    <path d="M 30.67 362.9 
L 850.68 362.9 
" style="fill:none;stroke:#000000;stroke-linecap:square;stroke-linejoin:miter;stroke-width:0.8;"/>
   </g>
   <g id="patch_6">
    <path d="M 30.67 13.32 
L 850.68 13.32 
" style="fill:none;stroke:#000000;stroke-linecap:square;stroke-linejoin:miter;stroke-width:0.8;"/>
   </g>
  </g>
 </g>
 <defs>
  <clipPath id="pf3c3ed61d0">
   <rect height="349.58" width="820.01" x="30.67" y="13.32"/>
  </clipPath>
 </defs>
</svg>
