<?xml version="1.0" encoding="utf-8" standalone="no"?>
<!DOCTYPE svg PUBLIC "-//W3C//DTD SVG 1.1//EN"
  "http://www.w3.org/Graphics/SVG/1.1/DTD/svg11.dtd">
<!-- Created with matplotlib (http://matplotlib.org/) -->
<svg height="432pt" version="1.1" viewBox="0 0 864 432" width="864pt" xmlns="http://www.w3.org/2000/svg" xmlns:xlink="http://www.w3.org/1999/xlink">
 <defs>
  <style type="text/css">
*{stroke-linecap:butt;stroke-linejoin:round;}
  </style>
 </defs>
 <g id="figure_1">
  <g id="patch_1">
   <path d="M 0 432 
L 864 432 
L 864 0 
L 0 0 
z
" style="fill:#ffffff;"/>
  </g>
  <g id="axes_1">
   <g id="patch_2">
    <path d="M 22.93 369.29 
L 850.68 369.29 
L 850.68 13.32 
L 22.93 13.32 
z
" style="fill:#ffffff;"/>
   </g>
   <g id="PolyCollection_1">
    <path clip-path="url(#p15d42ba8df)" d="M 228.51272 299.174697 
L 148.44728 299.174697 
L 148.015488 296.450715 
L 147.66438 293.726732 
L 147.395623 291.00275 
L 147.210377 288.278768 
L 147.10929 285.554786 
L 147.0925 282.830803 
L 147.159636 280.106821 
L 147.309831 277.382839 
L 147.541737 274.658857 
L 147.853544 271.934875 
L 148.243001 269.210892 
L 148.707445 266.48691 
L 149.243832 263.762928 
L 149.848763 261.038946 
L 150.518527 258.314963 
L 151.249131 255.590981 
L 152.03634 252.866999 
L 152.875712 250.143017 
L 153.762642 247.419034 
L 154.692392 244.695052 
L 155.660136 241.97107 
L 156.660992 239.247088 
L 157.690057 236.523105 
L 158.742443 233.799123 
L 159.813308 231.075141 
L 160.897883 228.351159 
L 161.991505 225.627176 
L 163.089635 222.903194 
L 164.187888 220.179212 
L 165.282046 217.45523 
L 166.368083 214.731247 
L 167.442172 212.007265 
L 168.500703 209.283283 
L 169.54029 206.559301 
L 170.55778 203.835318 
L 171.550255 201.111336 
L 172.515038 198.387354 
L 173.449689 195.663372 
L 174.352005 192.939389 
L 175.220019 190.215407 
L 176.051988 187.491425 
L 176.846393 184.767443 
L 177.601924 182.04346 
L 178.317476 179.319478 
L 178.992134 176.595496 
L 179.625164 173.871514 
L 180.216 171.147531 
L 180.764233 168.423549 
L 181.269599 165.699567 
L 181.731965 162.975585 
L 182.151321 160.251602 
L 182.527766 157.52762 
L 182.861502 154.803638 
L 183.152819 152.079656 
L 183.402096 149.355673 
L 183.609785 146.631691 
L 183.776413 143.907709 
L 183.902575 141.183727 
L 183.988934 138.459744 
L 184.036219 135.735762 
L 184.045225 133.01178 
L 184.016819 130.287798 
L 183.951938 127.563815 
L 183.851598 124.839833 
L 183.716897 122.115851 
L 183.549022 119.391869 
L 183.349257 116.667886 
L 183.118986 113.943904 
L 182.859702 111.219922 
L 182.573015 108.49594 
L 182.260653 105.771957 
L 181.924471 103.047975 
L 181.56645 100.323993 
L 181.188703 97.600011 
L 180.793472 94.876028 
L 180.383126 92.152046 
L 179.960158 89.428064 
L 179.527175 86.704082 
L 179.086894 83.980099 
L 178.642126 81.256117 
L 178.195762 78.532135 
L 177.750761 75.808153 
L 177.310123 73.08417 
L 176.876877 70.360188 
L 176.454051 67.636206 
L 176.044653 64.912224 
L 175.65164 62.188242 
L 175.277896 59.464259 
L 174.926204 56.740277 
L 174.599217 54.016295 
L 174.299434 51.292313 
L 174.029173 48.56833 
L 173.790545 45.844348 
L 173.585436 43.120366 
L 173.415481 40.396384 
L 173.282053 37.672401 
L 173.186239 34.948419 
L 173.128835 32.224437 
L 173.110339 29.500455 
L 203.849661 29.500455 
L 203.849661 29.500455 
L 203.831165 32.224437 
L 203.773761 34.948419 
L 203.677947 37.672401 
L 203.544519 40.396384 
L 203.374564 43.120366 
L 203.169455 45.844348 
L 202.930827 48.56833 
L 202.660566 51.292313 
L 202.360783 54.016295 
L 202.033796 56.740277 
L 201.682104 59.464259 
L 201.30836 62.188242 
L 200.915347 64.912224 
L 200.505949 67.636206 
L 200.083123 70.360188 
L 199.649877 73.08417 
L 199.209239 75.808153 
L 198.764238 78.532135 
L 198.317874 81.256117 
L 197.873106 83.980099 
L 197.432825 86.704082 
L 196.999842 89.428064 
L 196.576874 92.152046 
L 196.166528 94.876028 
L 195.771297 97.600011 
L 195.39355 100.323993 
L 195.035529 103.047975 
L 194.699347 105.771957 
L 194.386985 108.49594 
L 194.100298 111.219922 
L 193.841014 113.943904 
L 193.610743 116.667886 
L 193.410978 119.391869 
L 193.243103 122.115851 
L 193.108402 124.839833 
L 193.008062 127.563815 
L 192.943181 130.287798 
L 192.914775 133.01178 
L 192.923781 135.735762 
L 192.971066 138.459744 
L 193.057425 141.183727 
L 193.183587 143.907709 
L 193.350215 146.631691 
L 193.557904 149.355673 
L 193.807181 152.079656 
L 194.098498 154.803638 
L 194.432234 157.52762 
L 194.808679 160.251602 
L 195.228035 162.975585 
L 195.690401 165.699567 
L 196.195767 168.423549 
L 196.744 171.147531 
L 197.334836 173.871514 
L 197.967866 176.595496 
L 198.642524 179.319478 
L 199.358076 182.04346 
L 200.113607 184.767443 
L 200.908012 187.491425 
L 201.739981 190.215407 
L 202.607995 192.939389 
L 203.510311 195.663372 
L 204.444962 198.387354 
L 205.409745 201.111336 
L 206.40222 203.835318 
L 207.41971 206.559301 
L 208.459297 209.283283 
L 209.517828 212.007265 
L 210.591917 214.731247 
L 211.677954 217.45523 
L 212.772112 220.179212 
L 213.870365 222.903194 
L 214.968495 225.627176 
L 216.062117 228.351159 
L 217.146692 231.075141 
L 218.217557 233.799123 
L 219.269943 236.523105 
L 220.299008 239.247088 
L 221.299864 241.97107 
L 222.267608 244.695052 
L 223.197358 247.419034 
L 224.084288 250.143017 
L 224.92366 252.866999 
L 225.710869 255.590981 
L 226.441473 258.314963 
L 227.111237 261.038946 
L 227.716168 263.762928 
L 228.252555 266.48691 
L 228.716999 269.210892 
L 229.106456 271.934875 
L 229.418263 274.658857 
L 229.650169 277.382839 
L 229.800364 280.106821 
L 229.8675 282.830803 
L 229.85071 285.554786 
L 229.749623 288.278768 
L 229.564377 291.00275 
L 229.29562 293.726732 
L 228.944512 296.450715 
L 228.51272 299.174697 
z
" style="fill:#1f77b4;fill-opacity:0.3;"/>
   </g>
   <g id="PolyCollection_2">
    <path clip-path="url(#p15d42ba8df)" d="M 392.219921 353.109545 
L 315.840079 353.109545 
L 315.160298 349.840767 
L 314.555611 346.571988 
L 314.029431 343.303209 
L 313.584649 340.034431 
L 313.223603 336.765652 
L 312.948043 333.496873 
L 312.759107 330.228095 
L 312.657305 326.959316 
L 312.6425 323.690537 
L 312.713905 320.421758 
L 312.870081 317.15298 
L 313.108944 313.884201 
L 313.427774 310.615422 
L 313.823241 307.346644 
L 314.291421 304.077865 
L 314.827837 300.809086 
L 315.427489 297.540308 
L 316.084902 294.271529 
L 316.794169 291.00275 
L 317.549008 287.733972 
L 318.342819 284.465193 
L 319.168741 281.196414 
L 320.019716 277.927635 
L 320.88856 274.658857 
L 321.768022 271.390078 
L 322.650859 268.121299 
L 323.5299 264.852521 
L 324.398118 261.583742 
L 325.248691 258.314963 
L 326.075071 255.046185 
L 326.871043 251.777406 
L 327.630784 248.508627 
L 328.348915 245.239848 
L 329.020551 241.97107 
L 329.641343 238.702291 
L 330.207517 235.433512 
L 330.7159 232.164734 
L 331.163949 228.895955 
L 331.549763 225.627176 
L 331.872092 222.358398 
L 332.130338 219.089619 
L 332.324549 215.82084 
L 332.455403 212.552062 
L 332.524185 209.283283 
L 332.532759 206.014504 
L 332.48353 202.745725 
L 332.379403 199.476947 
L 332.22373 196.208168 
L 332.020261 192.939389 
L 331.773086 189.670611 
L 331.486568 186.401832 
L 331.165284 183.133053 
L 330.813962 179.864275 
L 330.437407 176.595496 
L 330.040446 173.326717 
L 329.627857 170.057938 
L 329.204313 166.78916 
L 328.774325 163.520381 
L 328.342189 160.251602 
L 327.911942 156.982824 
L 327.487321 153.714045 
L 327.07173 150.445266 
L 326.668217 147.176488 
L 326.279456 143.907709 
L 325.907736 140.63893 
L 325.554965 137.370152 
L 325.222672 134.101373 
L 324.912022 130.832594 
L 324.623841 127.563815 
L 324.358644 124.295037 
L 324.116662 121.026258 
L 323.89789 117.757479 
L 323.70212 114.488701 
L 323.528993 111.219922 
L 323.378038 107.951143 
L 323.248725 104.682365 
L 323.140503 101.413586 
L 323.052846 98.144807 
L 322.985294 94.876028 
L 322.937485 91.60725 
L 322.909185 88.338471 
L 322.900316 85.069692 
L 322.910967 81.800914 
L 322.941412 78.532135 
L 322.992106 75.263356 
L 323.06369 71.994578 
L 323.156971 68.725799 
L 323.272914 65.45702 
L 323.412613 62.188242 
L 323.577265 58.919463 
L 323.768136 55.650684 
L 323.986526 52.381905 
L 324.233728 49.113127 
L 324.510988 45.844348 
L 324.819465 42.575569 
L 325.160186 39.306791 
L 325.534014 36.038012 
L 325.941606 32.769233 
L 326.383383 29.500455 
L 381.676617 29.500455 
L 381.676617 29.500455 
L 382.118394 32.769233 
L 382.525986 36.038012 
L 382.899814 39.306791 
L 383.240535 42.575569 
L 383.549012 45.844348 
L 383.826272 49.113127 
L 384.073474 52.381905 
L 384.291864 55.650684 
L 384.482735 58.919463 
L 384.647387 62.188242 
L 384.787086 65.45702 
L 384.903029 68.725799 
L 384.99631 71.994578 
L 385.067894 75.263356 
L 385.118588 78.532135 
L 385.149033 81.800914 
L 385.159684 85.069692 
L 385.150815 88.338471 
L 385.122515 91.60725 
L 385.074706 94.876028 
L 385.007154 98.144807 
L 384.919497 101.413586 
L 384.811275 104.682365 
L 384.681962 107.951143 
L 384.531007 111.219922 
L 384.35788 114.488701 
L 384.16211 117.757479 
L 383.943338 121.026258 
L 383.701356 124.295037 
L 383.436159 127.563815 
L 383.147978 130.832594 
L 382.837328 134.101373 
L 382.505035 137.370152 
L 382.152264 140.63893 
L 381.780544 143.907709 
L 381.391783 147.176488 
L 380.98827 150.445266 
L 380.572679 153.714045 
L 380.148058 156.982824 
L 379.717811 160.251602 
L 379.285675 163.520381 
L 378.855687 166.78916 
L 378.432143 170.057938 
L 378.019554 173.326717 
L 377.622593 176.595496 
L 377.246038 179.864275 
L 376.894716 183.133053 
L 376.573432 186.401832 
L 376.286914 189.670611 
L 376.039739 192.939389 
L 375.83627 196.208168 
L 375.680597 199.476947 
L 375.57647 202.745725 
L 375.527241 206.014504 
L 375.535815 209.283283 
L 375.604597 212.552062 
L 375.735451 215.82084 
L 375.929662 219.089619 
L 376.187908 222.358398 
L 376.510237 225.627176 
L 376.896051 228.895955 
L 377.3441 232.164734 
L 377.852483 235.433512 
L 378.418657 238.702291 
L 379.039449 241.97107 
L 379.711085 245.239848 
L 380.429216 248.508627 
L 381.188957 251.777406 
L 381.984929 255.046185 
L 382.811309 258.314963 
L 383.661882 261.583742 
L 384.5301 264.852521 
L 385.409141 268.121299 
L 386.291978 271.390078 
L 387.17144 274.658857 
L 388.040284 277.927635 
L 388.891259 281.196414 
L 389.717181 284.465193 
L 390.510992 287.733972 
L 391.265831 291.00275 
L 391.975098 294.271529 
L 392.632511 297.540308 
L 393.232163 300.809086 
L 393.768579 304.077865 
L 394.236759 307.346644 
L 394.632226 310.615422 
L 394.951056 313.884201 
L 395.189919 317.15298 
L 395.346095 320.421758 
L 395.4175 323.690537 
L 395.402695 326.959316 
L 395.300893 330.228095 
L 395.111957 333.496873 
L 394.836397 336.765652 
L 394.475351 340.034431 
L 394.030569 343.303209 
L 393.504389 346.571988 
L 392.899702 349.840767 
L 392.219921 353.109545 
z
" style="fill:#1f77b4;fill-opacity:0.3;"/>
   </g>
   <g id="PolyCollection_3">
    <path clip-path="url(#p15d42ba8df)" d="M 560.9675 353.109545 
L 478.1925 353.109545 
L 478.240448 352.019953 
L 478.384031 350.93036 
L 478.62225 349.840767 
L 478.953452 348.751174 
L 479.375354 347.661581 
L 479.885062 346.571988 
L 480.479111 345.482395 
L 481.153497 344.392802 
L 481.903728 343.303209 
L 482.724869 342.213616 
L 483.611597 341.124024 
L 484.55826 340.034431 
L 485.55893 338.944838 
L 486.607472 337.855245 
L 487.697601 336.765652 
L 488.822942 335.676059 
L 489.977093 334.586466 
L 491.153682 333.496873 
L 492.346426 332.40728 
L 493.549177 331.317687 
L 494.755976 330.228095 
L 495.961097 329.138502 
L 497.159082 328.048909 
L 498.344782 326.959316 
L 499.51338 325.869723 
L 500.660419 324.78013 
L 501.781816 323.690537 
L 502.873878 322.600944 
L 503.933306 321.511351 
L 504.9572 320.421758 
L 505.943055 319.332166 
L 506.888751 318.242573 
L 507.792547 317.15298 
L 508.653059 316.063387 
L 509.469249 314.973794 
L 510.240397 313.884201 
L 510.966083 312.794608 
L 511.646159 311.705015 
L 512.280724 310.615422 
L 512.870096 309.52583 
L 513.414787 308.436237 
L 513.915472 307.346644 
L 514.372966 306.257051 
L 514.7882 305.167458 
L 515.16219 304.077865 
L 515.496022 302.988272 
L 515.790827 301.898679 
L 516.047762 300.809086 
L 516.267997 299.719493 
L 516.452696 298.629901 
L 516.603008 297.540308 
L 516.720059 296.450715 
L 516.80494 295.361122 
L 516.858707 294.271529 
L 516.882376 293.181936 
L 516.876924 292.092343 
L 516.843291 291.00275 
L 516.782381 289.913157 
L 516.69507 288.823564 
L 516.582214 287.733972 
L 516.444653 286.644379 
L 516.283222 285.554786 
L 516.098765 284.465193 
L 515.892137 283.3756 
L 515.664223 282.286007 
L 515.415943 281.196414 
L 515.148267 280.106821 
L 514.862221 279.017228 
L 514.558898 277.927635 
L 514.239469 276.838043 
L 513.905184 275.74845 
L 513.557385 274.658857 
L 513.197504 273.569264 
L 512.827069 272.479671 
L 512.447706 271.390078 
L 512.061132 270.300485 
L 511.66916 269.210892 
L 511.273687 268.121299 
L 510.876689 267.031706 
L 510.480214 265.942114 
L 510.086369 264.852521 
L 509.697307 263.762928 
L 509.315213 262.673335 
L 508.94229 261.583742 
L 508.580737 260.494149 
L 508.232738 259.404556 
L 507.900437 258.314963 
L 507.585921 257.22537 
L 507.291201 256.135777 
L 507.018192 255.046185 
L 506.768693 253.956592 
L 506.54437 252.866999 
L 506.34674 251.777406 
L 506.177152 250.687813 
L 506.036774 249.59822 
L 505.926581 248.508627 
L 505.847342 247.419034 
L 505.799617 246.329441 
L 505.783743 245.239848 
L 533.376257 245.239848 
L 533.376257 245.239848 
L 533.360383 246.329441 
L 533.312658 247.419034 
L 533.233419 248.508627 
L 533.123226 249.59822 
L 532.982848 250.687813 
L 532.81326 251.777406 
L 532.61563 252.866999 
L 532.391307 253.956592 
L 532.141808 255.046185 
L 531.868799 256.135777 
L 531.574079 257.22537 
L 531.259563 258.314963 
L 530.927262 259.404556 
L 530.579263 260.494149 
L 530.21771 261.583742 
L 529.844787 262.673335 
L 529.462693 263.762928 
L 529.073631 264.852521 
L 528.679786 265.942114 
L 528.283311 267.031706 
L 527.886313 268.121299 
L 527.49084 269.210892 
L 527.098868 270.300485 
L 526.712294 271.390078 
L 526.332931 272.479671 
L 525.962496 273.569264 
L 525.602615 274.658857 
L 525.254816 275.74845 
L 524.920531 276.838043 
L 524.601102 277.927635 
L 524.297779 279.017228 
L 524.011733 280.106821 
L 523.744057 281.196414 
L 523.495777 282.286007 
L 523.267863 283.3756 
L 523.061235 284.465193 
L 522.876778 285.554786 
L 522.715347 286.644379 
L 522.577786 287.733972 
L 522.46493 288.823564 
L 522.377619 289.913157 
L 522.316709 291.00275 
L 522.283076 292.092343 
L 522.277624 293.181936 
L 522.301293 294.271529 
L 522.35506 295.361122 
L 522.439941 296.450715 
L 522.556992 297.540308 
L 522.707304 298.629901 
L 522.892003 299.719493 
L 523.112238 300.809086 
L 523.369173 301.898679 
L 523.663978 302.988272 
L 523.99781 304.077865 
L 524.3718 305.167458 
L 524.787034 306.257051 
L 525.244528 307.346644 
L 525.745213 308.436237 
L 526.289904 309.52583 
L 526.879276 310.615422 
L 527.513841 311.705015 
L 528.193917 312.794608 
L 528.919603 313.884201 
L 529.690751 314.973794 
L 530.506941 316.063387 
L 531.367453 317.15298 
L 532.271249 318.242573 
L 533.216945 319.332166 
L 534.2028 320.421758 
L 535.226694 321.511351 
L 536.286122 322.600944 
L 537.378184 323.690537 
L 538.499581 324.78013 
L 539.64662 325.869723 
L 540.815218 326.959316 
L 542.000918 328.048909 
L 543.198903 329.138502 
L 544.404024 330.228095 
L 545.610823 331.317687 
L 546.813574 332.40728 
L 548.006318 333.496873 
L 549.182907 334.586466 
L 550.337058 335.676059 
L 551.462399 336.765652 
L 552.552528 337.855245 
L 553.60107 338.944838 
L 554.60174 340.034431 
L 555.548403 341.124024 
L 556.435131 342.213616 
L 557.256272 343.303209 
L 558.006503 344.392802 
L 558.680889 345.482395 
L 559.274938 346.571988 
L 559.784646 347.661581 
L 560.206548 348.751174 
L 560.53775 349.840767 
L 560.775969 350.93036 
L 560.919552 352.019953 
L 560.9675 353.109545 
z
" style="fill:#1f77b4;fill-opacity:0.3;"/>
   </g>
   <g id="PolyCollection_4">
    <path clip-path="url(#p15d42ba8df)" d="M 714.848687 353.109545 
L 655.411313 353.109545 
L 654.425965 350.93036 
L 653.459924 348.751174 
L 652.516761 346.571988 
L 651.600158 344.392802 
L 650.713915 342.213616 
L 649.861934 340.034431 
L 649.048215 337.855245 
L 648.276835 335.676059 
L 647.551931 333.496873 
L 646.877674 331.317687 
L 646.258232 329.138502 
L 645.697737 326.959316 
L 645.200242 324.78013 
L 644.769672 322.600944 
L 644.409772 320.421758 
L 644.124058 318.242573 
L 643.915754 316.063387 
L 643.787742 313.884201 
L 643.7425 311.705015 
L 643.782052 309.52583 
L 643.907914 307.346644 
L 644.121052 305.167458 
L 644.42184 302.988272 
L 644.810024 300.809086 
L 645.284705 298.629901 
L 645.844318 296.450715 
L 646.486629 294.271529 
L 647.208739 292.092343 
L 648.007102 289.913157 
L 648.87755 287.733972 
L 649.815326 285.554786 
L 650.815134 283.3756 
L 651.87119 281.196414 
L 652.977284 279.017228 
L 654.126848 276.838043 
L 655.313028 274.658857 
L 656.52876 272.479671 
L 657.766849 270.300485 
L 659.020044 268.121299 
L 660.281121 265.942114 
L 661.54295 263.762928 
L 662.798569 261.583742 
L 664.04125 259.404556 
L 665.264554 257.22537 
L 666.462389 255.046185 
L 667.629045 252.866999 
L 668.75924 250.687813 
L 669.848139 248.508627 
L 670.891379 246.329441 
L 671.885076 244.150256 
L 672.825834 241.97107 
L 673.710737 239.791884 
L 674.537341 237.612698 
L 675.303659 235.433512 
L 676.008143 233.254327 
L 676.64966 231.075141 
L 677.227465 228.895955 
L 677.741178 226.716769 
L 678.190752 224.537583 
L 678.576449 222.358398 
L 678.898816 220.179212 
L 679.158655 218.000026 
L 679.357008 215.82084 
L 679.495132 213.641654 
L 679.574489 211.462469 
L 679.596732 209.283283 
L 679.563693 207.104097 
L 679.477382 204.924911 
L 679.339977 202.745725 
L 679.15383 200.56654 
L 678.921465 198.387354 
L 678.645579 196.208168 
L 678.329046 194.028982 
L 677.974922 191.849796 
L 677.586441 189.670611 
L 677.167023 187.491425 
L 676.720266 185.312239 
L 676.249944 183.133053 
L 675.760001 180.953867 
L 675.254534 178.774682 
L 674.737785 176.595496 
L 674.214113 174.41631 
L 673.687976 172.237124 
L 673.163897 170.057938 
L 672.646436 167.878753 
L 672.140151 165.699567 
L 671.649557 163.520381 
L 671.179089 161.341195 
L 670.73305 159.162009 
L 670.315573 156.982824 
L 669.93057 154.803638 
L 669.581691 152.624452 
L 669.27228 150.445266 
L 669.005331 148.266081 
L 668.783457 146.086895 
L 668.608852 143.907709 
L 668.483266 141.728523 
L 668.407984 139.549337 
L 668.383809 137.370152 
L 701.876191 137.370152 
L 701.876191 137.370152 
L 701.852016 139.549337 
L 701.776734 141.728523 
L 701.651148 143.907709 
L 701.476543 146.086895 
L 701.254669 148.266081 
L 700.98772 150.445266 
L 700.678309 152.624452 
L 700.32943 154.803638 
L 699.944427 156.982824 
L 699.52695 159.162009 
L 699.080911 161.341195 
L 698.610443 163.520381 
L 698.119849 165.699567 
L 697.613564 167.878753 
L 697.096103 170.057938 
L 696.572024 172.237124 
L 696.045887 174.41631 
L 695.522215 176.595496 
L 695.005466 178.774682 
L 694.499999 180.953867 
L 694.010056 183.133053 
L 693.539734 185.312239 
L 693.092977 187.491425 
L 692.673559 189.670611 
L 692.285078 191.849796 
L 691.930954 194.028982 
L 691.614421 196.208168 
L 691.338535 198.387354 
L 691.10617 200.56654 
L 690.920023 202.745725 
L 690.782618 204.924911 
L 690.696307 207.104097 
L 690.663268 209.283283 
L 690.685511 211.462469 
L 690.764868 213.641654 
L 690.902992 215.82084 
L 691.101345 218.000026 
L 691.361184 220.179212 
L 691.683551 222.358398 
L 692.069248 224.537583 
L 692.518822 226.716769 
L 693.032535 228.895955 
L 693.61034 231.075141 
L 694.251857 233.254327 
L 694.956341 235.433512 
L 695.722659 237.612698 
L 696.549263 239.791884 
L 697.434166 241.97107 
L 698.374924 244.150256 
L 699.368621 246.329441 
L 700.411861 248.508627 
L 701.50076 250.687813 
L 702.630955 252.866999 
L 703.797611 255.046185 
L 704.995446 257.22537 
L 706.21875 259.404556 
L 707.461431 261.583742 
L 708.71705 263.762928 
L 709.978879 265.942114 
L 711.239956 268.121299 
L 712.493151 270.300485 
L 713.73124 272.479671 
L 714.946972 274.658857 
L 716.133152 276.838043 
L 717.282716 279.017228 
L 718.38881 281.196414 
L 719.444866 283.3756 
L 720.444674 285.554786 
L 721.38245 287.733972 
L 722.252898 289.913157 
L 723.051261 292.092343 
L 723.773371 294.271529 
L 724.415682 296.450715 
L 724.975295 298.629901 
L 725.449976 300.809086 
L 725.83816 302.988272 
L 726.138948 305.167458 
L 726.352086 307.346644 
L 726.477948 309.52583 
L 726.5175 311.705015 
L 726.472258 313.884201 
L 726.344246 316.063387 
L 726.135942 318.242573 
L 725.850228 320.421758 
L 725.490328 322.600944 
L 725.059758 324.78013 
L 724.562263 326.959316 
L 724.001768 329.138502 
L 723.382326 331.317687 
L 722.708069 333.496873 
L 721.983165 335.676059 
L 721.211785 337.855245 
L 720.398066 340.034431 
L 719.546085 342.213616 
L 718.659842 344.392802 
L 717.743239 346.571988 
L 716.800076 348.751174 
L 715.834035 350.93036 
L 714.848687 353.109545 
z
" style="fill:#1f77b4;fill-opacity:0.3;"/>
   </g>
   <g id="matplotlib.axis_1">
    <g id="xtick_1">
     <g id="line2d_1">
      <defs>
       <path d="M 0 0 
L 0 3.5 
" id="md7ea10918a" style="stroke:#000000;stroke-width:0.8;"/>
      </defs>
      <g>
       <use style="stroke:#000000;stroke-width:0.8;" x="188.48" xlink:href="#md7ea10918a" y="369.29"/>
      </g>
     </g>
     <g id="text_1">
      <!-- Defector -->
      <defs>
       <path d="M 19.671875 64.796875 
L 19.671875 8.109375 
L 31.59375 8.109375 
Q 46.6875 8.109375 53.6875 14.9375 
Q 60.6875 21.78125 60.6875 36.53125 
Q 60.6875 51.171875 53.6875 57.984375 
Q 46.6875 64.796875 31.59375 64.796875 
z
M 9.8125 72.90625 
L 30.078125 72.90625 
Q 51.265625 72.90625 61.171875 64.09375 
Q 71.09375 55.28125 71.09375 36.53125 
Q 71.09375 17.671875 61.125 8.828125 
Q 51.171875 0 30.078125 0 
L 9.8125 0 
z
" id="DejaVuSans-44"/>
       <path d="M 56.203125 29.59375 
L 56.203125 25.203125 
L 14.890625 25.203125 
Q 15.484375 15.921875 20.484375 11.0625 
Q 25.484375 6.203125 34.421875 6.203125 
Q 39.59375 6.203125 44.453125 7.46875 
Q 49.3125 8.734375 54.109375 11.28125 
L 54.109375 2.78125 
Q 49.265625 0.734375 44.1875 -0.34375 
Q 39.109375 -1.421875 33.890625 -1.421875 
Q 20.796875 -1.421875 13.15625 6.1875 
Q 5.515625 13.8125 5.515625 26.8125 
Q 5.515625 40.234375 12.765625 48.109375 
Q 20.015625 56 32.328125 56 
Q 43.359375 56 49.78125 48.890625 
Q 56.203125 41.796875 56.203125 29.59375 
M 47.21875 32.234375 
Q 47.125 39.59375 43.09375 43.984375 
Q 39.0625 48.390625 32.421875 48.390625 
Q 24.90625 48.390625 20.390625 44.140625 
Q 15.875 39.890625 15.1875 32.171875 
z
" id="DejaVuSans-65"/>
       <path d="M 37.109375 75.984375 
L 37.109375 68.5 
L 28.515625 68.5 
Q 23.6875 68.5 21.796875 66.546875 
Q 19.921875 64.59375 19.921875 59.515625 
L 19.921875 54.6875 
L 34.71875 54.6875 
L 34.71875 47.703125 
L 19.921875 47.703125 
L 19.921875 0 
L 10.890625 0 
L 10.890625 47.703125 
L 2.296875 47.703125 
L 2.296875 54.6875 
L 10.890625 54.6875 
L 10.890625 58.5 
Q 10.890625 67.625 15.140625 71.796875 
Q 19.390625 75.984375 28.609375 75.984375 
z
" id="DejaVuSans-66"/>
       <path d="M 48.78125 52.59375 
L 48.78125 44.1875 
Q 44.96875 46.296875 41.140625 47.34375 
Q 37.3125 48.390625 33.40625 48.390625 
Q 24.65625 48.390625 19.8125 42.84375 
Q 14.984375 37.3125 14.984375 27.296875 
Q 14.984375 17.28125 19.8125 11.734375 
Q 24.65625 6.203125 33.40625 6.203125 
Q 37.3125 6.203125 41.140625 7.25 
Q 44.96875 8.296875 48.78125 10.40625 
L 48.78125 2.09375 
Q 45.015625 0.34375 40.984375 -0.53125 
Q 36.96875 -1.421875 32.421875 -1.421875 
Q 20.0625 -1.421875 12.78125 6.34375 
Q 5.515625 14.109375 5.515625 27.296875 
Q 5.515625 40.671875 12.859375 48.328125 
Q 20.21875 56 33.015625 56 
Q 37.15625 56 41.109375 55.140625 
Q 45.0625 54.296875 48.78125 52.59375 
" id="DejaVuSans-63"/>
       <path d="M 18.3125 70.21875 
L 18.3125 54.6875 
L 36.8125 54.6875 
L 36.8125 47.703125 
L 18.3125 47.703125 
L 18.3125 18.015625 
Q 18.3125 11.328125 20.140625 9.421875 
Q 21.96875 7.515625 27.59375 7.515625 
L 36.8125 7.515625 
L 36.8125 0 
L 27.59375 0 
Q 17.1875 0 13.234375 3.875 
Q 9.28125 7.765625 9.28125 18.015625 
L 9.28125 47.703125 
L 2.6875 47.703125 
L 2.6875 54.6875 
L 9.28125 54.6875 
L 9.28125 70.21875 
z
" id="DejaVuSans-74"/>
       <path d="M 30.609375 48.390625 
Q 23.390625 48.390625 19.1875 42.75 
Q 14.984375 37.109375 14.984375 27.296875 
Q 14.984375 17.484375 19.15625 11.84375 
Q 23.34375 6.203125 30.609375 6.203125 
Q 37.796875 6.203125 41.984375 11.859375 
Q 46.1875 17.53125 46.1875 27.296875 
Q 46.1875 37.015625 41.984375 42.703125 
Q 37.796875 48.390625 30.609375 48.390625 
M 30.609375 56 
Q 42.328125 56 49.015625 48.375 
Q 55.71875 40.765625 55.71875 27.296875 
Q 55.71875 13.875 49.015625 6.21875 
Q 42.328125 -1.421875 30.609375 -1.421875 
Q 18.84375 -1.421875 12.171875 6.21875 
Q 5.515625 13.875 5.515625 27.296875 
Q 5.515625 40.765625 12.171875 48.375 
Q 18.84375 56 30.609375 56 
" id="DejaVuSans-6f"/>
       <path d="M 41.109375 46.296875 
Q 39.59375 47.171875 37.8125 47.578125 
Q 36.03125 48 33.890625 48 
Q 26.265625 48 22.1875 43.046875 
Q 18.109375 38.09375 18.109375 28.8125 
L 18.109375 0 
L 9.078125 0 
L 9.078125 54.6875 
L 18.109375 54.6875 
L 18.109375 46.1875 
Q 20.953125 51.171875 25.484375 53.578125 
Q 30.03125 56 36.53125 56 
Q 37.453125 56 38.578125 55.875 
Q 39.703125 55.765625 41.0625 55.515625 
z
" id="DejaVuSans-72"/>
      </defs>
      <g transform="translate(190.6875 410.83)rotate(-90)scale(0.08 -0.08)">
       <use xlink:href="#DejaVuSans-44"/>
       <use x="77.001953" xlink:href="#DejaVuSans-65"/>
       <use x="138.525391" xlink:href="#DejaVuSans-66"/>
       <use x="173.730469" xlink:href="#DejaVuSans-65"/>
       <use x="235.253906" xlink:href="#DejaVuSans-63"/>
       <use x="290.234375" xlink:href="#DejaVuSans-74"/>
       <use x="329.443359" xlink:href="#DejaVuSans-6f"/>
       <use x="390.625" xlink:href="#DejaVuSans-72"/>
      </g>
     </g>
    </g>
    <g id="xtick_2">
     <g id="line2d_2">
      <g>
       <use style="stroke:#000000;stroke-width:0.8;" x="354.03" xlink:href="#md7ea10918a" y="369.29"/>
      </g>
     </g>
     <g id="text_2">
      <!-- Grudger -->
      <defs>
       <path d="M 59.515625 10.40625 
L 59.515625 29.984375 
L 43.40625 29.984375 
L 43.40625 38.09375 
L 69.28125 38.09375 
L 69.28125 6.78125 
Q 63.578125 2.734375 56.6875 0.65625 
Q 49.8125 -1.421875 42 -1.421875 
Q 24.90625 -1.421875 15.25 8.5625 
Q 5.609375 18.5625 5.609375 36.375 
Q 5.609375 54.25 15.25 64.234375 
Q 24.90625 74.21875 42 74.21875 
Q 49.125 74.21875 55.546875 72.453125 
Q 61.96875 70.703125 67.390625 67.28125 
L 67.390625 56.78125 
Q 61.921875 61.421875 55.765625 63.765625 
Q 49.609375 66.109375 42.828125 66.109375 
Q 29.4375 66.109375 22.71875 58.640625 
Q 16.015625 51.171875 16.015625 36.375 
Q 16.015625 21.625 22.71875 14.15625 
Q 29.4375 6.6875 42.828125 6.6875 
Q 48.046875 6.6875 52.140625 7.59375 
Q 56.25 8.5 59.515625 10.40625 
" id="DejaVuSans-47"/>
       <path d="M 8.5 21.578125 
L 8.5 54.6875 
L 17.484375 54.6875 
L 17.484375 21.921875 
Q 17.484375 14.15625 20.5 10.265625 
Q 23.53125 6.390625 29.59375 6.390625 
Q 36.859375 6.390625 41.078125 11.03125 
Q 45.3125 15.671875 45.3125 23.6875 
L 45.3125 54.6875 
L 54.296875 54.6875 
L 54.296875 0 
L 45.3125 0 
L 45.3125 8.40625 
Q 42.046875 3.421875 37.71875 1 
Q 33.40625 -1.421875 27.6875 -1.421875 
Q 18.265625 -1.421875 13.375 4.4375 
Q 8.5 10.296875 8.5 21.578125 
M 31.109375 56 
z
" id="DejaVuSans-75"/>
       <path d="M 45.40625 46.390625 
L 45.40625 75.984375 
L 54.390625 75.984375 
L 54.390625 0 
L 45.40625 0 
L 45.40625 8.203125 
Q 42.578125 3.328125 38.25 0.953125 
Q 33.9375 -1.421875 27.875 -1.421875 
Q 17.96875 -1.421875 11.734375 6.484375 
Q 5.515625 14.40625 5.515625 27.296875 
Q 5.515625 40.1875 11.734375 48.09375 
Q 17.96875 56 27.875 56 
Q 33.9375 56 38.25 53.625 
Q 42.578125 51.265625 45.40625 46.390625 
M 14.796875 27.296875 
Q 14.796875 17.390625 18.875 11.75 
Q 22.953125 6.109375 30.078125 6.109375 
Q 37.203125 6.109375 41.296875 11.75 
Q 45.40625 17.390625 45.40625 27.296875 
Q 45.40625 37.203125 41.296875 42.84375 
Q 37.203125 48.484375 30.078125 48.484375 
Q 22.953125 48.484375 18.875 42.84375 
Q 14.796875 37.203125 14.796875 27.296875 
" id="DejaVuSans-64"/>
       <path d="M 45.40625 27.984375 
Q 45.40625 37.75 41.375 43.109375 
Q 37.359375 48.484375 30.078125 48.484375 
Q 22.859375 48.484375 18.828125 43.109375 
Q 14.796875 37.75 14.796875 27.984375 
Q 14.796875 18.265625 18.828125 12.890625 
Q 22.859375 7.515625 30.078125 7.515625 
Q 37.359375 7.515625 41.375 12.890625 
Q 45.40625 18.265625 45.40625 27.984375 
M 54.390625 6.78125 
Q 54.390625 -7.171875 48.1875 -13.984375 
Q 42 -20.796875 29.203125 -20.796875 
Q 24.46875 -20.796875 20.265625 -20.09375 
Q 16.0625 -19.390625 12.109375 -17.921875 
L 12.109375 -9.1875 
Q 16.0625 -11.328125 19.921875 -12.34375 
Q 23.78125 -13.375 27.78125 -13.375 
Q 36.625 -13.375 41.015625 -8.765625 
Q 45.40625 -4.15625 45.40625 5.171875 
L 45.40625 9.625 
Q 42.625 4.78125 38.28125 2.390625 
Q 33.9375 0 27.875 0 
Q 17.828125 0 11.671875 7.65625 
Q 5.515625 15.328125 5.515625 27.984375 
Q 5.515625 40.671875 11.671875 48.328125 
Q 17.828125 56 27.875 56 
Q 33.9375 56 38.28125 53.609375 
Q 42.625 51.21875 45.40625 46.390625 
L 45.40625 54.6875 
L 54.390625 54.6875 
z
" id="DejaVuSans-67"/>
      </defs>
      <g transform="translate(356.2375 409.21625)rotate(-90)scale(0.08 -0.08)">
       <use xlink:href="#DejaVuSans-47"/>
       <use x="77.490234" xlink:href="#DejaVuSans-72"/>
       <use x="118.603516" xlink:href="#DejaVuSans-75"/>
       <use x="181.982422" xlink:href="#DejaVuSans-64"/>
       <use x="245.458984" xlink:href="#DejaVuSans-67"/>
       <use x="308.935547" xlink:href="#DejaVuSans-65"/>
       <use x="370.458984" xlink:href="#DejaVuSans-72"/>
      </g>
     </g>
    </g>
    <g id="xtick_3">
     <g id="line2d_3">
      <g>
       <use style="stroke:#000000;stroke-width:0.8;" x="519.58" xlink:href="#md7ea10918a" y="369.29"/>
      </g>
     </g>
     <g id="text_3">
      <!-- Tit For Tat -->
      <defs>
       <path d="M -0.296875 72.90625 
L 61.375 72.90625 
L 61.375 64.59375 
L 35.5 64.59375 
L 35.5 0 
L 25.59375 0 
L 25.59375 64.59375 
L -0.296875 64.59375 
z
" id="DejaVuSans-54"/>
       <path d="M 9.421875 54.6875 
L 18.40625 54.6875 
L 18.40625 0 
L 9.421875 0 
z
M 9.421875 75.984375 
L 18.40625 75.984375 
L 18.40625 64.59375 
L 9.421875 64.59375 
z
" id="DejaVuSans-69"/>
       <path id="DejaVuSans-20"/>
       <path d="M 9.8125 72.90625 
L 51.703125 72.90625 
L 51.703125 64.59375 
L 19.671875 64.59375 
L 19.671875 43.109375 
L 48.578125 43.109375 
L 48.578125 34.8125 
L 19.671875 34.8125 
L 19.671875 0 
L 9.8125 0 
z
" id="DejaVuSans-46"/>
       <path d="M 34.28125 27.484375 
Q 23.390625 27.484375 19.1875 25 
Q 14.984375 22.515625 14.984375 16.5 
Q 14.984375 11.71875 18.140625 8.90625 
Q 21.296875 6.109375 26.703125 6.109375 
Q 34.1875 6.109375 38.703125 11.40625 
Q 43.21875 16.703125 43.21875 25.484375 
L 43.21875 27.484375 
z
M 52.203125 31.203125 
L 52.203125 0 
L 43.21875 0 
L 43.21875 8.296875 
Q 40.140625 3.328125 35.546875 0.953125 
Q 30.953125 -1.421875 24.3125 -1.421875 
Q 15.921875 -1.421875 10.953125 3.296875 
Q 6 8.015625 6 15.921875 
Q 6 25.140625 12.171875 29.828125 
Q 18.359375 34.515625 30.609375 34.515625 
L 43.21875 34.515625 
L 43.21875 35.40625 
Q 43.21875 41.609375 39.140625 45 
Q 35.0625 48.390625 27.6875 48.390625 
Q 23 48.390625 18.546875 47.265625 
Q 14.109375 46.140625 10.015625 43.890625 
L 10.015625 52.203125 
Q 14.9375 54.109375 19.578125 55.046875 
Q 24.21875 56 28.609375 56 
Q 40.484375 56 46.34375 49.84375 
Q 52.203125 43.703125 52.203125 31.203125 
" id="DejaVuSans-61"/>
      </defs>
      <g transform="translate(521.7875 417.3025)rotate(-90)scale(0.08 -0.08)">
       <use xlink:href="#DejaVuSans-54"/>
       <use x="61.037109" xlink:href="#DejaVuSans-69"/>
       <use x="88.820312" xlink:href="#DejaVuSans-74"/>
       <use x="128.029297" xlink:href="#DejaVuSans-20"/>
       <use x="159.816406" xlink:href="#DejaVuSans-46"/>
       <use x="217.289062" xlink:href="#DejaVuSans-6f"/>
       <use x="278.470703" xlink:href="#DejaVuSans-72"/>
       <use x="319.583984" xlink:href="#DejaVuSans-20"/>
       <use x="351.371094" xlink:href="#DejaVuSans-54"/>
       <use x="412.205078" xlink:href="#DejaVuSans-61"/>
       <use x="473.484375" xlink:href="#DejaVuSans-74"/>
      </g>
     </g>
    </g>
    <g id="xtick_4">
     <g id="line2d_4">
      <g>
       <use style="stroke:#000000;stroke-width:0.8;" x="685.13" xlink:href="#md7ea10918a" y="369.29"/>
      </g>
     </g>
     <g id="text_4">
      <!-- Cooperator -->
      <defs>
       <path d="M 64.40625 67.28125 
L 64.40625 56.890625 
Q 59.421875 61.53125 53.78125 63.8125 
Q 48.140625 66.109375 41.796875 66.109375 
Q 29.296875 66.109375 22.65625 58.46875 
Q 16.015625 50.828125 16.015625 36.375 
Q 16.015625 21.96875 22.65625 14.328125 
Q 29.296875 6.6875 41.796875 6.6875 
Q 48.140625 6.6875 53.78125 8.984375 
Q 59.421875 11.28125 64.40625 15.921875 
L 64.40625 5.609375 
Q 59.234375 2.09375 53.4375 0.328125 
Q 47.65625 -1.421875 41.21875 -1.421875 
Q 24.65625 -1.421875 15.125 8.703125 
Q 5.609375 18.84375 5.609375 36.375 
Q 5.609375 53.953125 15.125 64.078125 
Q 24.65625 74.21875 41.21875 74.21875 
Q 47.75 74.21875 53.53125 72.484375 
Q 59.328125 70.75 64.40625 67.28125 
" id="DejaVuSans-43"/>
       <path d="M 18.109375 8.203125 
L 18.109375 -20.796875 
L 9.078125 -20.796875 
L 9.078125 54.6875 
L 18.109375 54.6875 
L 18.109375 46.390625 
Q 20.953125 51.265625 25.265625 53.625 
Q 29.59375 56 35.59375 56 
Q 45.5625 56 51.78125 48.09375 
Q 58.015625 40.1875 58.015625 27.296875 
Q 58.015625 14.40625 51.78125 6.484375 
Q 45.5625 -1.421875 35.59375 -1.421875 
Q 29.59375 -1.421875 25.265625 0.953125 
Q 20.953125 3.328125 18.109375 8.203125 
M 48.6875 27.296875 
Q 48.6875 37.203125 44.609375 42.84375 
Q 40.53125 48.484375 33.40625 48.484375 
Q 26.265625 48.484375 22.1875 42.84375 
Q 18.109375 37.203125 18.109375 27.296875 
Q 18.109375 17.390625 22.1875 11.75 
Q 26.265625 6.109375 33.40625 6.109375 
Q 40.53125 6.109375 44.609375 11.75 
Q 48.6875 17.390625 48.6875 27.296875 
" id="DejaVuSans-70"/>
      </defs>
      <g transform="translate(687.3375 421.17875)rotate(-90)scale(0.08 -0.08)">
       <use xlink:href="#DejaVuSans-43"/>
       <use x="69.824219" xlink:href="#DejaVuSans-6f"/>
       <use x="131.005859" xlink:href="#DejaVuSans-6f"/>
       <use x="192.1875" xlink:href="#DejaVuSans-70"/>
       <use x="255.664062" xlink:href="#DejaVuSans-65"/>
       <use x="317.1875" xlink:href="#DejaVuSans-72"/>
       <use x="358.300781" xlink:href="#DejaVuSans-61"/>
       <use x="419.580078" xlink:href="#DejaVuSans-74"/>
       <use x="458.789062" xlink:href="#DejaVuSans-6f"/>
       <use x="519.970703" xlink:href="#DejaVuSans-72"/>
      </g>
     </g>
    </g>
   </g>
   <g id="matplotlib.axis_2">
    <g id="ytick_1">
     <g id="line2d_5">
      <defs>
       <path d="M 0 0 
L -3.5 0 
" id="m7b19e8feaa" style="stroke:#000000;stroke-width:0.8;"/>
      </defs>
      <g>
       <use style="stroke:#000000;stroke-width:0.8;" x="22.93" xlink:href="#m7b19e8feaa" y="353.109545"/>
      </g>
     </g>
     <g id="text_5">
      <!-- 1 -->
      <defs>
       <path d="M 12.40625 8.296875 
L 28.515625 8.296875 
L 28.515625 63.921875 
L 10.984375 60.40625 
L 10.984375 69.390625 
L 28.421875 72.90625 
L 38.28125 72.90625 
L 38.28125 8.296875 
L 54.390625 8.296875 
L 54.390625 0 
L 12.40625 0 
z
" id="DejaVuSans-31"/>
      </defs>
      <g transform="translate(10.84 356.14892)scale(0.08 -0.08)">
       <use xlink:href="#DejaVuSans-31"/>
      </g>
     </g>
    </g>
    <g id="ytick_2">
     <g id="line2d_6">
      <g>
       <use style="stroke:#000000;stroke-width:0.8;" x="22.93" xlink:href="#m7b19e8feaa" y="299.174697"/>
      </g>
     </g>
     <g id="text_6">
      <!-- 2 -->
      <defs>
       <path d="M 19.1875 8.296875 
L 53.609375 8.296875 
L 53.609375 0 
L 7.328125 0 
L 7.328125 8.296875 
Q 12.9375 14.109375 22.625 23.890625 
Q 32.328125 33.6875 34.8125 36.53125 
Q 39.546875 41.84375 41.421875 45.53125 
Q 43.3125 49.21875 43.3125 52.78125 
Q 43.3125 58.59375 39.234375 62.25 
Q 35.15625 65.921875 28.609375 65.921875 
Q 23.96875 65.921875 18.8125 64.3125 
Q 13.671875 62.703125 7.8125 59.421875 
L 7.8125 69.390625 
Q 13.765625 71.78125 18.9375 73 
Q 24.125 74.21875 28.421875 74.21875 
Q 39.75 74.21875 46.484375 68.546875 
Q 53.21875 62.890625 53.21875 53.421875 
Q 53.21875 48.921875 51.53125 44.890625 
Q 49.859375 40.875 45.40625 35.40625 
Q 44.1875 33.984375 37.640625 27.21875 
Q 31.109375 20.453125 19.1875 8.296875 
" id="DejaVuSans-32"/>
      </defs>
      <g transform="translate(10.84 302.214072)scale(0.08 -0.08)">
       <use xlink:href="#DejaVuSans-32"/>
      </g>
     </g>
    </g>
    <g id="ytick_3">
     <g id="line2d_7">
      <g>
       <use style="stroke:#000000;stroke-width:0.8;" x="22.93" xlink:href="#m7b19e8feaa" y="245.239848"/>
      </g>
     </g>
     <g id="text_7">
      <!-- 3 -->
      <defs>
       <path d="M 40.578125 39.3125 
Q 47.65625 37.796875 51.625 33 
Q 55.609375 28.21875 55.609375 21.1875 
Q 55.609375 10.40625 48.1875 4.484375 
Q 40.765625 -1.421875 27.09375 -1.421875 
Q 22.515625 -1.421875 17.65625 -0.515625 
Q 12.796875 0.390625 7.625 2.203125 
L 7.625 11.71875 
Q 11.71875 9.328125 16.59375 8.109375 
Q 21.484375 6.890625 26.8125 6.890625 
Q 36.078125 6.890625 40.9375 10.546875 
Q 45.796875 14.203125 45.796875 21.1875 
Q 45.796875 27.640625 41.28125 31.265625 
Q 36.765625 34.90625 28.71875 34.90625 
L 20.21875 34.90625 
L 20.21875 43.015625 
L 29.109375 43.015625 
Q 36.375 43.015625 40.234375 45.921875 
Q 44.09375 48.828125 44.09375 54.296875 
Q 44.09375 59.90625 40.109375 62.90625 
Q 36.140625 65.921875 28.71875 65.921875 
Q 24.65625 65.921875 20.015625 65.03125 
Q 15.375 64.15625 9.8125 62.3125 
L 9.8125 71.09375 
Q 15.4375 72.65625 20.34375 73.4375 
Q 25.25 74.21875 29.59375 74.21875 
Q 40.828125 74.21875 47.359375 69.109375 
Q 53.90625 64.015625 53.90625 55.328125 
Q 53.90625 49.265625 50.4375 45.09375 
Q 46.96875 40.921875 40.578125 39.3125 
" id="DejaVuSans-33"/>
      </defs>
      <g transform="translate(10.84 248.279223)scale(0.08 -0.08)">
       <use xlink:href="#DejaVuSans-33"/>
      </g>
     </g>
    </g>
    <g id="ytick_4">
     <g id="line2d_8">
      <g>
       <use style="stroke:#000000;stroke-width:0.8;" x="22.93" xlink:href="#m7b19e8feaa" y="191.305"/>
      </g>
     </g>
     <g id="text_8">
      <!-- 4 -->
      <defs>
       <path d="M 37.796875 64.3125 
L 12.890625 25.390625 
L 37.796875 25.390625 
z
M 35.203125 72.90625 
L 47.609375 72.90625 
L 47.609375 25.390625 
L 58.015625 25.390625 
L 58.015625 17.1875 
L 47.609375 17.1875 
L 47.609375 0 
L 37.796875 0 
L 37.796875 17.1875 
L 4.890625 17.1875 
L 4.890625 26.703125 
z
" id="DejaVuSans-34"/>
      </defs>
      <g transform="translate(10.84 194.344375)scale(0.08 -0.08)">
       <use xlink:href="#DejaVuSans-34"/>
      </g>
     </g>
    </g>
    <g id="ytick_5">
     <g id="line2d_9">
      <g>
       <use style="stroke:#000000;stroke-width:0.8;" x="22.93" xlink:href="#m7b19e8feaa" y="137.370152"/>
      </g>
     </g>
     <g id="text_9">
      <!-- 5 -->
      <defs>
       <path d="M 10.796875 72.90625 
L 49.515625 72.90625 
L 49.515625 64.59375 
L 19.828125 64.59375 
L 19.828125 46.734375 
Q 21.96875 47.46875 24.109375 47.828125 
Q 26.265625 48.1875 28.421875 48.1875 
Q 40.625 48.1875 47.75 41.5 
Q 54.890625 34.8125 54.890625 23.390625 
Q 54.890625 11.625 47.5625 5.09375 
Q 40.234375 -1.421875 26.90625 -1.421875 
Q 22.3125 -1.421875 17.546875 -0.640625 
Q 12.796875 0.140625 7.71875 1.703125 
L 7.71875 11.625 
Q 12.109375 9.234375 16.796875 8.0625 
Q 21.484375 6.890625 26.703125 6.890625 
Q 35.15625 6.890625 40.078125 11.328125 
Q 45.015625 15.765625 45.015625 23.390625 
Q 45.015625 31 40.078125 35.4375 
Q 35.15625 39.890625 26.703125 39.890625 
Q 22.75 39.890625 18.8125 39.015625 
Q 14.890625 38.140625 10.796875 36.28125 
z
" id="DejaVuSans-35"/>
      </defs>
      <g transform="translate(10.84 140.409527)scale(0.08 -0.08)">
       <use xlink:href="#DejaVuSans-35"/>
      </g>
     </g>
    </g>
    <g id="ytick_6">
     <g id="line2d_10">
      <g>
       <use style="stroke:#000000;stroke-width:0.8;" x="22.93" xlink:href="#m7b19e8feaa" y="83.435303"/>
      </g>
     </g>
     <g id="text_10">
      <!-- 6 -->
      <defs>
       <path d="M 33.015625 40.375 
Q 26.375 40.375 22.484375 35.828125 
Q 18.609375 31.296875 18.609375 23.390625 
Q 18.609375 15.53125 22.484375 10.953125 
Q 26.375 6.390625 33.015625 6.390625 
Q 39.65625 6.390625 43.53125 10.953125 
Q 47.40625 15.53125 47.40625 23.390625 
Q 47.40625 31.296875 43.53125 35.828125 
Q 39.65625 40.375 33.015625 40.375 
M 52.59375 71.296875 
L 52.59375 62.3125 
Q 48.875 64.0625 45.09375 64.984375 
Q 41.3125 65.921875 37.59375 65.921875 
Q 27.828125 65.921875 22.671875 59.328125 
Q 17.53125 52.734375 16.796875 39.40625 
Q 19.671875 43.65625 24.015625 45.921875 
Q 28.375 48.1875 33.59375 48.1875 
Q 44.578125 48.1875 50.953125 41.515625 
Q 57.328125 34.859375 57.328125 23.390625 
Q 57.328125 12.15625 50.6875 5.359375 
Q 44.046875 -1.421875 33.015625 -1.421875 
Q 20.359375 -1.421875 13.671875 8.265625 
Q 6.984375 17.96875 6.984375 36.375 
Q 6.984375 53.65625 15.1875 63.9375 
Q 23.390625 74.21875 37.203125 74.21875 
Q 40.921875 74.21875 44.703125 73.484375 
Q 48.484375 72.75 52.59375 71.296875 
" id="DejaVuSans-36"/>
      </defs>
      <g transform="translate(10.84 86.474678)scale(0.08 -0.08)">
       <use xlink:href="#DejaVuSans-36"/>
      </g>
     </g>
    </g>
    <g id="ytick_7">
     <g id="line2d_11">
      <g>
       <use style="stroke:#000000;stroke-width:0.8;" x="22.93" xlink:href="#m7b19e8feaa" y="29.500455"/>
      </g>
     </g>
     <g id="text_11">
      <!-- 7 -->
      <defs>
       <path d="M 8.203125 72.90625 
L 55.078125 72.90625 
L 55.078125 68.703125 
L 28.609375 0 
L 18.3125 0 
L 43.21875 64.59375 
L 8.203125 64.59375 
z
" id="DejaVuSans-37"/>
      </defs>
      <g transform="translate(10.84 32.53983)scale(0.08 -0.08)">
       <use xlink:href="#DejaVuSans-37"/>
      </g>
     </g>
    </g>
   </g>
   <g id="LineCollection_1">
    <path clip-path="url(#p15d42ba8df)" d="M 167.78625 272.207273 
L 209.17375 272.207273 
" style="fill:none;stroke:#1f77b4;stroke-width:1.5;"/>
    <path clip-path="url(#p15d42ba8df)" d="M 333.33625 218.272424 
L 374.72375 218.272424 
" style="fill:none;stroke:#1f77b4;stroke-width:1.5;"/>
    <path clip-path="url(#p15d42ba8df)" d="M 498.88625 353.109545 
L 540.27375 353.109545 
" style="fill:none;stroke:#1f77b4;stroke-width:1.5;"/>
    <path clip-path="url(#p15d42ba8df)" d="M 664.43625 299.174697 
L 705.82375 299.174697 
" style="fill:none;stroke:#1f77b4;stroke-width:1.5;"/>
   </g>
   <g id="patch_3">
    <path d="M 22.93 369.29 
L 22.93 13.32 
" style="fill:none;stroke:#000000;stroke-linecap:square;stroke-linejoin:miter;stroke-width:0.8;"/>
   </g>
   <g id="patch_4">
    <path d="M 850.68 369.29 
L 850.68 13.32 
" style="fill:none;stroke:#000000;stroke-linecap:square;stroke-linejoin:miter;stroke-width:0.8;"/>
   </g>
   <g id="patch_5">
    <path d="M 22.93 369.29 
L 850.68 369.29 
" style="fill:none;stroke:#000000;stroke-linecap:square;stroke-linejoin:miter;stroke-width:0.8;"/>
   </g>
   <g id="patch_6">
    <path d="M 22.93 13.32 
L 850.68 13.32 
" style="fill:none;stroke:#000000;stroke-linecap:square;stroke-linejoin:miter;stroke-width:0.8;"/>
   </g>
  </g>
 </g>
 <defs>
  <clipPath id="p15d42ba8df">
   <rect height="355.97" width="827.75" x="22.93" y="13.32"/>
  </clipPath>
 </defs>
</svg>
