<?xml version="1.0" encoding="utf-8" standalone="no"?>
<!DOCTYPE svg PUBLIC "-//W3C//DTD SVG 1.1//EN"
  "http://www.w3.org/Graphics/SVG/1.1/DTD/svg11.dtd">
<!-- Created with matplotlib (http://matplotlib.org/) -->
<svg height="432pt" version="1.1" viewBox="0 0 864 432" width="864pt" xmlns="http://www.w3.org/2000/svg" xmlns:xlink="http://www.w3.org/1999/xlink">
 <defs>
  <style type="text/css">
*{stroke-linecap:butt;stroke-linejoin:round;}
  </style>
 </defs>
 <g id="figure_1">
  <g id="patch_1">
   <path d="M 0 432 
L 864 432 
L 864 0 
L 0 0 
z
" style="fill:#ffffff;"/>
  </g>
  <g id="axes_1">
   <g id="patch_2">
    <path d="M 30.58 369.29 
L 850.68 369.29 
L 850.68 13.32 
L 30.58 13.32 
z
" style="fill:#ffffff;"/>
   </g>
   <g id="PolyCollection_1">
    <path clip-path="url(#p2690849733)" d="M 222.137451 146.80875 
L 167.062549 146.80875 
L 167.039155 145.909836 
L 167.038637 145.010922 
L 167.060649 144.112008 
L 167.104758 143.213093 
L 167.170443 142.314179 
L 167.257099 141.415265 
L 167.364039 140.516351 
L 167.490491 139.617437 
L 167.635605 138.718523 
L 167.798452 137.819609 
L 167.978032 136.920694 
L 168.173272 136.02178 
L 168.383032 135.122866 
L 168.606107 134.223952 
L 168.841237 133.325038 
L 169.087102 132.426124 
L 169.342338 131.52721 
L 169.60553 130.628295 
L 169.875229 129.729381 
L 170.149947 128.830467 
L 170.428171 127.931553 
L 170.708363 127.032639 
L 170.988967 126.133725 
L 171.268417 125.234811 
L 171.545144 124.335896 
L 171.817575 123.436982 
L 172.084147 122.538068 
L 172.343311 121.639154 
L 172.593533 120.74024 
L 172.833308 119.841326 
L 173.061161 118.942412 
L 173.275652 118.043497 
L 173.475387 117.144583 
L 173.659016 116.245669 
L 173.825247 115.346755 
L 173.972845 114.447841 
L 174.100639 113.548927 
L 174.207528 112.650013 
L 174.292484 111.751098 
L 174.354558 110.852184 
L 174.392883 109.95327 
L 174.40668 109.054356 
L 174.395256 108.155442 
L 174.358017 107.256528 
L 174.294461 106.357614 
L 174.204187 105.458699 
L 174.086896 104.559785 
L 173.942392 103.660871 
L 173.770584 102.761957 
L 173.571488 101.863043 
L 173.345228 100.964129 
L 173.092036 100.065215 
L 172.81225 99.166301 
L 172.506319 98.267386 
L 172.174799 97.368472 
L 171.818351 96.469558 
L 171.437741 95.570644 
L 171.033839 94.67173 
L 170.607614 93.772816 
L 170.160137 92.873902 
L 169.692569 91.974987 
L 169.206166 91.076073 
L 168.702271 90.177159 
L 168.182309 89.278245 
L 167.647785 88.379331 
L 167.100279 87.480417 
L 166.541438 86.581503 
L 165.972972 85.682588 
L 165.396647 84.783674 
L 164.814283 83.88476 
L 164.22774 82.985846 
L 163.638918 82.086932 
L 163.049747 81.188018 
L 162.462179 80.289104 
L 161.878184 79.390189 
L 161.299737 78.491275 
L 160.728818 77.592361 
L 160.167396 76.693447 
L 159.617429 75.794533 
L 159.08085 74.895619 
L 158.559564 73.996705 
L 158.055438 73.09779 
L 157.570293 72.198876 
L 157.1059 71.299962 
L 156.663969 70.401048 
L 156.246145 69.502134 
L 155.853999 68.60322 
L 155.489026 67.704306 
L 155.152633 66.805391 
L 154.846137 65.906477 
L 154.57076 65.007563 
L 154.327624 64.108649 
L 154.117744 63.209735 
L 153.94203 62.310821 
L 153.801276 61.411907 
L 153.696164 60.512992 
L 153.627257 59.614078 
L 153.595 58.715164 
L 153.599718 57.81625 
L 235.600282 57.81625 
L 235.600282 57.81625 
L 235.605 58.715164 
L 235.572743 59.614078 
L 235.503836 60.512992 
L 235.398724 61.411907 
L 235.25797 62.310821 
L 235.082256 63.209735 
L 234.872376 64.108649 
L 234.62924 65.007563 
L 234.353863 65.906477 
L 234.047367 66.805391 
L 233.710974 67.704306 
L 233.346001 68.60322 
L 232.953855 69.502134 
L 232.536031 70.401048 
L 232.0941 71.299962 
L 231.629707 72.198876 
L 231.144562 73.09779 
L 230.640436 73.996705 
L 230.11915 74.895619 
L 229.582571 75.794533 
L 229.032604 76.693447 
L 228.471182 77.592361 
L 227.900263 78.491275 
L 227.321816 79.390189 
L 226.737821 80.289104 
L 226.150253 81.188018 
L 225.561082 82.086932 
L 224.97226 82.985846 
L 224.385717 83.88476 
L 223.803353 84.783674 
L 223.227028 85.682588 
L 222.658562 86.581503 
L 222.099721 87.480417 
L 221.552215 88.379331 
L 221.017691 89.278245 
L 220.497729 90.177159 
L 219.993834 91.076073 
L 219.507431 91.974987 
L 219.039863 92.873902 
L 218.592386 93.772816 
L 218.166161 94.67173 
L 217.762259 95.570644 
L 217.381649 96.469558 
L 217.025201 97.368472 
L 216.693681 98.267386 
L 216.38775 99.166301 
L 216.107964 100.065215 
L 215.854772 100.964129 
L 215.628512 101.863043 
L 215.429416 102.761957 
L 215.257608 103.660871 
L 215.113104 104.559785 
L 214.995813 105.458699 
L 214.905539 106.357614 
L 214.841983 107.256528 
L 214.804744 108.155442 
L 214.79332 109.054356 
L 214.807117 109.95327 
L 214.845442 110.852184 
L 214.907516 111.751098 
L 214.992472 112.650013 
L 215.099361 113.548927 
L 215.227155 114.447841 
L 215.374753 115.346755 
L 215.540984 116.245669 
L 215.724613 117.144583 
L 215.924348 118.043497 
L 216.138839 118.942412 
L 216.366692 119.841326 
L 216.606467 120.74024 
L 216.856689 121.639154 
L 217.115853 122.538068 
L 217.382425 123.436982 
L 217.654856 124.335896 
L 217.931583 125.234811 
L 218.211033 126.133725 
L 218.491637 127.032639 
L 218.771829 127.931553 
L 219.050053 128.830467 
L 219.324771 129.729381 
L 219.59447 130.628295 
L 219.857662 131.52721 
L 220.112898 132.426124 
L 220.358763 133.325038 
L 220.593893 134.223952 
L 220.816968 135.122866 
L 221.026728 136.02178 
L 221.221968 136.920694 
L 221.401548 137.819609 
L 221.564395 138.718523 
L 221.709509 139.617437 
L 221.835961 140.516351 
L 221.942901 141.415265 
L 222.029557 142.314179 
L 222.095242 143.213093 
L 222.139351 144.112008 
L 222.161363 145.010922 
L 222.160845 145.909836 
L 222.137451 146.80875 
z
" style="fill:#1f77b4;fill-opacity:0.3;"/>
   </g>
   <g id="PolyCollection_2">
    <path clip-path="url(#p2690849733)" d="M 399.620282 146.80875 
L 317.619718 146.80875 
L 317.615 145.909836 
L 317.647257 145.010922 
L 317.716164 144.112008 
L 317.821276 143.213093 
L 317.96203 142.314179 
L 318.137744 141.415265 
L 318.347624 140.516351 
L 318.59076 139.617437 
L 318.866137 138.718523 
L 319.172633 137.819609 
L 319.509026 136.920694 
L 319.873999 136.02178 
L 320.266145 135.122866 
L 320.683969 134.223952 
L 321.1259 133.325038 
L 321.590293 132.426124 
L 322.075438 131.52721 
L 322.579564 130.628295 
L 323.10085 129.729381 
L 323.637429 128.830467 
L 324.187396 127.931553 
L 324.748818 127.032639 
L 325.319737 126.133725 
L 325.898184 125.234811 
L 326.482179 124.335896 
L 327.069747 123.436982 
L 327.658918 122.538068 
L 328.24774 121.639154 
L 328.834283 120.74024 
L 329.416647 119.841326 
L 329.992972 118.942412 
L 330.561438 118.043497 
L 331.120279 117.144583 
L 331.667785 116.245669 
L 332.202309 115.346755 
L 332.722271 114.447841 
L 333.226166 113.548927 
L 333.712569 112.650013 
L 334.180137 111.751098 
L 334.627614 110.852184 
L 335.053839 109.95327 
L 335.457741 109.054356 
L 335.838351 108.155442 
L 336.194799 107.256528 
L 336.526319 106.357614 
L 336.83225 105.458699 
L 337.112036 104.559785 
L 337.365228 103.660871 
L 337.591488 102.761957 
L 337.790584 101.863043 
L 337.962392 100.964129 
L 338.106896 100.065215 
L 338.224187 99.166301 
L 338.314461 98.267386 
L 338.378017 97.368472 
L 338.415256 96.469558 
L 338.42668 95.570644 
L 338.412883 94.67173 
L 338.374558 93.772816 
L 338.312484 92.873902 
L 338.227528 91.974987 
L 338.120639 91.076073 
L 337.992845 90.177159 
L 337.845247 89.278245 
L 337.679016 88.379331 
L 337.495387 87.480417 
L 337.295652 86.581503 
L 337.081161 85.682588 
L 336.853308 84.783674 
L 336.613533 83.88476 
L 336.363311 82.985846 
L 336.104147 82.086932 
L 335.837575 81.188018 
L 335.565144 80.289104 
L 335.288417 79.390189 
L 335.008967 78.491275 
L 334.728363 77.592361 
L 334.448171 76.693447 
L 334.169947 75.794533 
L 333.895229 74.895619 
L 333.62553 73.996705 
L 333.362338 73.09779 
L 333.107102 72.198876 
L 332.861237 71.299962 
L 332.626107 70.401048 
L 332.403032 69.502134 
L 332.193272 68.60322 
L 331.998032 67.704306 
L 331.818452 66.805391 
L 331.655605 65.906477 
L 331.510491 65.007563 
L 331.384039 64.108649 
L 331.277099 63.209735 
L 331.190443 62.310821 
L 331.124758 61.411907 
L 331.080649 60.512992 
L 331.058637 59.614078 
L 331.059155 58.715164 
L 331.082549 57.81625 
L 386.157451 57.81625 
L 386.157451 57.81625 
L 386.180845 58.715164 
L 386.181363 59.614078 
L 386.159351 60.512992 
L 386.115242 61.411907 
L 386.049557 62.310821 
L 385.962901 63.209735 
L 385.855961 64.108649 
L 385.729509 65.007563 
L 385.584395 65.906477 
L 385.421548 66.805391 
L 385.241968 67.704306 
L 385.046728 68.60322 
L 384.836968 69.502134 
L 384.613893 70.401048 
L 384.378763 71.299962 
L 384.132898 72.198876 
L 383.877662 73.09779 
L 383.61447 73.996705 
L 383.344771 74.895619 
L 383.070053 75.794533 
L 382.791829 76.693447 
L 382.511637 77.592361 
L 382.231033 78.491275 
L 381.951583 79.390189 
L 381.674856 80.289104 
L 381.402425 81.188018 
L 381.135853 82.086932 
L 380.876689 82.985846 
L 380.626467 83.88476 
L 380.386692 84.783674 
L 380.158839 85.682588 
L 379.944348 86.581503 
L 379.744613 87.480417 
L 379.560984 88.379331 
L 379.394753 89.278245 
L 379.247155 90.177159 
L 379.119361 91.076073 
L 379.012472 91.974987 
L 378.927516 92.873902 
L 378.865442 93.772816 
L 378.827117 94.67173 
L 378.81332 95.570644 
L 378.824744 96.469558 
L 378.861983 97.368472 
L 378.925539 98.267386 
L 379.015813 99.166301 
L 379.133104 100.065215 
L 379.277608 100.964129 
L 379.449416 101.863043 
L 379.648512 102.761957 
L 379.874772 103.660871 
L 380.127964 104.559785 
L 380.40775 105.458699 
L 380.713681 106.357614 
L 381.045201 107.256528 
L 381.401649 108.155442 
L 381.782259 109.054356 
L 382.186161 109.95327 
L 382.612386 110.852184 
L 383.059863 111.751098 
L 383.527431 112.650013 
L 384.013834 113.548927 
L 384.517729 114.447841 
L 385.037691 115.346755 
L 385.572215 116.245669 
L 386.119721 117.144583 
L 386.678562 118.043497 
L 387.247028 118.942412 
L 387.823353 119.841326 
L 388.405717 120.74024 
L 388.99226 121.639154 
L 389.581082 122.538068 
L 390.170253 123.436982 
L 390.757821 124.335896 
L 391.341816 125.234811 
L 391.920263 126.133725 
L 392.491182 127.032639 
L 393.052604 127.931553 
L 393.602571 128.830467 
L 394.13915 129.729381 
L 394.660436 130.628295 
L 395.164562 131.52721 
L 395.649707 132.426124 
L 396.1141 133.325038 
L 396.556031 134.223952 
L 396.973855 135.122866 
L 397.366001 136.02178 
L 397.730974 136.920694 
L 398.067367 137.819609 
L 398.373863 138.718523 
L 398.64924 139.617437 
L 398.892376 140.516351 
L 399.102256 141.415265 
L 399.27797 142.314179 
L 399.418724 143.213093 
L 399.523836 144.112008 
L 399.592743 145.010922 
L 399.625 145.909836 
L 399.620282 146.80875 
z
" style="fill:#1f77b4;fill-opacity:0.3;"/>
   </g>
   <g id="PolyCollection_3">
    <path clip-path="url(#p2690849733)" d="M 563.645 235.80125 
L 481.635 235.80125 
L 481.635 235.80125 
L 481.635 235.80125 
L 481.635 235.80125 
L 481.635 235.80125 
L 481.635 235.80125 
L 481.635 235.80125 
L 481.635 235.80125 
L 481.635 235.80125 
L 481.635 235.80125 
L 481.635 235.80125 
L 481.635 235.80125 
L 481.635 235.80125 
L 481.635 235.80125 
L 481.635 235.80125 
L 481.635 235.80125 
L 481.635 235.80125 
L 481.635 235.80125 
L 481.635 235.80125 
L 481.635 235.80125 
L 481.635 235.80125 
L 481.635 235.80125 
L 481.635 235.80125 
L 481.635 235.80125 
L 481.635 235.80125 
L 481.635 235.80125 
L 481.635 235.80125 
L 481.635 235.80125 
L 481.635 235.80125 
L 481.635 235.80125 
L 481.635 235.80125 
L 481.635 235.80125 
L 481.635 235.80125 
L 481.635 235.80125 
L 481.635 235.80125 
L 481.635 235.80125 
L 481.635 235.80125 
L 481.635 235.80125 
L 481.635 235.80125 
L 481.635 235.80125 
L 481.635 235.80125 
L 481.635 235.80125 
L 481.635 235.80125 
L 481.635 235.80125 
L 481.635 235.80125 
L 481.635 235.80125 
L 481.635 235.80125 
L 481.635 235.80125 
L 481.635 235.80125 
L 481.635 235.80125 
L 481.635 235.80125 
L 481.635 235.80125 
L 481.635 235.80125 
L 481.635 235.80125 
L 481.635 235.80125 
L 481.635 235.80125 
L 481.635 235.80125 
L 481.635 235.80125 
L 481.635 235.80125 
L 481.635 235.80125 
L 481.635 235.80125 
L 481.635 235.80125 
L 481.635 235.80125 
L 481.635 235.80125 
L 481.635 235.80125 
L 481.635 235.80125 
L 481.635 235.80125 
L 481.635 235.80125 
L 481.635 235.80125 
L 481.635 235.80125 
L 481.635 235.80125 
L 481.635 235.80125 
L 481.635 235.80125 
L 481.635 235.80125 
L 481.635 235.80125 
L 481.635 235.80125 
L 481.635 235.80125 
L 481.635 235.80125 
L 481.635 235.80125 
L 481.635 235.80125 
L 481.635 235.80125 
L 481.635 235.80125 
L 481.635 235.80125 
L 481.635 235.80125 
L 481.635 235.80125 
L 481.635 235.80125 
L 481.635 235.80125 
L 481.635 235.80125 
L 481.635 235.80125 
L 481.635 235.80125 
L 481.635 235.80125 
L 481.635 235.80125 
L 481.635 235.80125 
L 481.635 235.80125 
L 481.635 235.80125 
L 481.635 235.80125 
L 481.635 235.80125 
L 481.635 235.80125 
L 481.635 235.80125 
L 481.635 235.80125 
L 563.645 235.80125 
L 563.645 235.80125 
L 563.645 235.80125 
L 563.645 235.80125 
L 563.645 235.80125 
L 563.645 235.80125 
L 563.645 235.80125 
L 563.645 235.80125 
L 563.645 235.80125 
L 563.645 235.80125 
L 563.645 235.80125 
L 563.645 235.80125 
L 563.645 235.80125 
L 563.645 235.80125 
L 563.645 235.80125 
L 563.645 235.80125 
L 563.645 235.80125 
L 563.645 235.80125 
L 563.645 235.80125 
L 563.645 235.80125 
L 563.645 235.80125 
L 563.645 235.80125 
L 563.645 235.80125 
L 563.645 235.80125 
L 563.645 235.80125 
L 563.645 235.80125 
L 563.645 235.80125 
L 563.645 235.80125 
L 563.645 235.80125 
L 563.645 235.80125 
L 563.645 235.80125 
L 563.645 235.80125 
L 563.645 235.80125 
L 563.645 235.80125 
L 563.645 235.80125 
L 563.645 235.80125 
L 563.645 235.80125 
L 563.645 235.80125 
L 563.645 235.80125 
L 563.645 235.80125 
L 563.645 235.80125 
L 563.645 235.80125 
L 563.645 235.80125 
L 563.645 235.80125 
L 563.645 235.80125 
L 563.645 235.80125 
L 563.645 235.80125 
L 563.645 235.80125 
L 563.645 235.80125 
L 563.645 235.80125 
L 563.645 235.80125 
L 563.645 235.80125 
L 563.645 235.80125 
L 563.645 235.80125 
L 563.645 235.80125 
L 563.645 235.80125 
L 563.645 235.80125 
L 563.645 235.80125 
L 563.645 235.80125 
L 563.645 235.80125 
L 563.645 235.80125 
L 563.645 235.80125 
L 563.645 235.80125 
L 563.645 235.80125 
L 563.645 235.80125 
L 563.645 235.80125 
L 563.645 235.80125 
L 563.645 235.80125 
L 563.645 235.80125 
L 563.645 235.80125 
L 563.645 235.80125 
L 563.645 235.80125 
L 563.645 235.80125 
L 563.645 235.80125 
L 563.645 235.80125 
L 563.645 235.80125 
L 563.645 235.80125 
L 563.645 235.80125 
L 563.645 235.80125 
L 563.645 235.80125 
L 563.645 235.80125 
L 563.645 235.80125 
L 563.645 235.80125 
L 563.645 235.80125 
L 563.645 235.80125 
L 563.645 235.80125 
L 563.645 235.80125 
L 563.645 235.80125 
L 563.645 235.80125 
L 563.645 235.80125 
L 563.645 235.80125 
L 563.645 235.80125 
L 563.645 235.80125 
L 563.645 235.80125 
L 563.645 235.80125 
L 563.645 235.80125 
L 563.645 235.80125 
L 563.645 235.80125 
L 563.645 235.80125 
L 563.645 235.80125 
L 563.645 235.80125 
z
" style="fill:#1f77b4;fill-opacity:0.3;"/>
   </g>
   <g id="PolyCollection_4">
    <path clip-path="url(#p2690849733)" d="M 727.665 324.79375 
L 645.655 324.79375 
L 645.655 324.79375 
L 645.655 324.79375 
L 645.655 324.79375 
L 645.655 324.79375 
L 645.655 324.79375 
L 645.655 324.79375 
L 645.655 324.79375 
L 645.655 324.79375 
L 645.655 324.79375 
L 645.655 324.79375 
L 645.655 324.79375 
L 645.655 324.79375 
L 645.655 324.79375 
L 645.655 324.79375 
L 645.655 324.79375 
L 645.655 324.79375 
L 645.655 324.79375 
L 645.655 324.79375 
L 645.655 324.79375 
L 645.655 324.79375 
L 645.655 324.79375 
L 645.655 324.79375 
L 645.655 324.79375 
L 645.655 324.79375 
L 645.655 324.79375 
L 645.655 324.79375 
L 645.655 324.79375 
L 645.655 324.79375 
L 645.655 324.79375 
L 645.655 324.79375 
L 645.655 324.79375 
L 645.655 324.79375 
L 645.655 324.79375 
L 645.655 324.79375 
L 645.655 324.79375 
L 645.655 324.79375 
L 645.655 324.79375 
L 645.655 324.79375 
L 645.655 324.79375 
L 645.655 324.79375 
L 645.655 324.79375 
L 645.655 324.79375 
L 645.655 324.79375 
L 645.655 324.79375 
L 645.655 324.79375 
L 645.655 324.79375 
L 645.655 324.79375 
L 645.655 324.79375 
L 645.655 324.79375 
L 645.655 324.79375 
L 645.655 324.79375 
L 645.655 324.79375 
L 645.655 324.79375 
L 645.655 324.79375 
L 645.655 324.79375 
L 645.655 324.79375 
L 645.655 324.79375 
L 645.655 324.79375 
L 645.655 324.79375 
L 645.655 324.79375 
L 645.655 324.79375 
L 645.655 324.79375 
L 645.655 324.79375 
L 645.655 324.79375 
L 645.655 324.79375 
L 645.655 324.79375 
L 645.655 324.79375 
L 645.655 324.79375 
L 645.655 324.79375 
L 645.655 324.79375 
L 645.655 324.79375 
L 645.655 324.79375 
L 645.655 324.79375 
L 645.655 324.79375 
L 645.655 324.79375 
L 645.655 324.79375 
L 645.655 324.79375 
L 645.655 324.79375 
L 645.655 324.79375 
L 645.655 324.79375 
L 645.655 324.79375 
L 645.655 324.79375 
L 645.655 324.79375 
L 645.655 324.79375 
L 645.655 324.79375 
L 645.655 324.79375 
L 645.655 324.79375 
L 645.655 324.79375 
L 645.655 324.79375 
L 645.655 324.79375 
L 645.655 324.79375 
L 645.655 324.79375 
L 645.655 324.79375 
L 645.655 324.79375 
L 645.655 324.79375 
L 645.655 324.79375 
L 645.655 324.79375 
L 645.655 324.79375 
L 645.655 324.79375 
L 727.665 324.79375 
L 727.665 324.79375 
L 727.665 324.79375 
L 727.665 324.79375 
L 727.665 324.79375 
L 727.665 324.79375 
L 727.665 324.79375 
L 727.665 324.79375 
L 727.665 324.79375 
L 727.665 324.79375 
L 727.665 324.79375 
L 727.665 324.79375 
L 727.665 324.79375 
L 727.665 324.79375 
L 727.665 324.79375 
L 727.665 324.79375 
L 727.665 324.79375 
L 727.665 324.79375 
L 727.665 324.79375 
L 727.665 324.79375 
L 727.665 324.79375 
L 727.665 324.79375 
L 727.665 324.79375 
L 727.665 324.79375 
L 727.665 324.79375 
L 727.665 324.79375 
L 727.665 324.79375 
L 727.665 324.79375 
L 727.665 324.79375 
L 727.665 324.79375 
L 727.665 324.79375 
L 727.665 324.79375 
L 727.665 324.79375 
L 727.665 324.79375 
L 727.665 324.79375 
L 727.665 324.79375 
L 727.665 324.79375 
L 727.665 324.79375 
L 727.665 324.79375 
L 727.665 324.79375 
L 727.665 324.79375 
L 727.665 324.79375 
L 727.665 324.79375 
L 727.665 324.79375 
L 727.665 324.79375 
L 727.665 324.79375 
L 727.665 324.79375 
L 727.665 324.79375 
L 727.665 324.79375 
L 727.665 324.79375 
L 727.665 324.79375 
L 727.665 324.79375 
L 727.665 324.79375 
L 727.665 324.79375 
L 727.665 324.79375 
L 727.665 324.79375 
L 727.665 324.79375 
L 727.665 324.79375 
L 727.665 324.79375 
L 727.665 324.79375 
L 727.665 324.79375 
L 727.665 324.79375 
L 727.665 324.79375 
L 727.665 324.79375 
L 727.665 324.79375 
L 727.665 324.79375 
L 727.665 324.79375 
L 727.665 324.79375 
L 727.665 324.79375 
L 727.665 324.79375 
L 727.665 324.79375 
L 727.665 324.79375 
L 727.665 324.79375 
L 727.665 324.79375 
L 727.665 324.79375 
L 727.665 324.79375 
L 727.665 324.79375 
L 727.665 324.79375 
L 727.665 324.79375 
L 727.665 324.79375 
L 727.665 324.79375 
L 727.665 324.79375 
L 727.665 324.79375 
L 727.665 324.79375 
L 727.665 324.79375 
L 727.665 324.79375 
L 727.665 324.79375 
L 727.665 324.79375 
L 727.665 324.79375 
L 727.665 324.79375 
L 727.665 324.79375 
L 727.665 324.79375 
L 727.665 324.79375 
L 727.665 324.79375 
L 727.665 324.79375 
L 727.665 324.79375 
L 727.665 324.79375 
L 727.665 324.79375 
L 727.665 324.79375 
L 727.665 324.79375 
L 727.665 324.79375 
z
" style="fill:#1f77b4;fill-opacity:0.3;"/>
   </g>
   <g id="matplotlib.axis_1">
    <g id="xtick_1">
     <g id="line2d_1">
      <defs>
       <path d="M 0 0 
L 0 3.5 
" id="m76dfc1be67" style="stroke:#000000;stroke-width:0.8;"/>
      </defs>
      <g>
       <use style="stroke:#000000;stroke-width:0.8;" x="194.6" xlink:href="#m76dfc1be67" y="369.29"/>
      </g>
     </g>
     <g id="text_1">
      <!-- Grudger -->
      <defs>
       <path d="M 59.515625 10.40625 
L 59.515625 29.984375 
L 43.40625 29.984375 
L 43.40625 38.09375 
L 69.28125 38.09375 
L 69.28125 6.78125 
Q 63.578125 2.734375 56.6875 0.65625 
Q 49.8125 -1.421875 42 -1.421875 
Q 24.90625 -1.421875 15.25 8.5625 
Q 5.609375 18.5625 5.609375 36.375 
Q 5.609375 54.25 15.25 64.234375 
Q 24.90625 74.21875 42 74.21875 
Q 49.125 74.21875 55.546875 72.453125 
Q 61.96875 70.703125 67.390625 67.28125 
L 67.390625 56.78125 
Q 61.921875 61.421875 55.765625 63.765625 
Q 49.609375 66.109375 42.828125 66.109375 
Q 29.4375 66.109375 22.71875 58.640625 
Q 16.015625 51.171875 16.015625 36.375 
Q 16.015625 21.625 22.71875 14.15625 
Q 29.4375 6.6875 42.828125 6.6875 
Q 48.046875 6.6875 52.140625 7.59375 
Q 56.25 8.5 59.515625 10.40625 
" id="DejaVuSans-47"/>
       <path d="M 41.109375 46.296875 
Q 39.59375 47.171875 37.8125 47.578125 
Q 36.03125 48 33.890625 48 
Q 26.265625 48 22.1875 43.046875 
Q 18.109375 38.09375 18.109375 28.8125 
L 18.109375 0 
L 9.078125 0 
L 9.078125 54.6875 
L 18.109375 54.6875 
L 18.109375 46.1875 
Q 20.953125 51.171875 25.484375 53.578125 
Q 30.03125 56 36.53125 56 
Q 37.453125 56 38.578125 55.875 
Q 39.703125 55.765625 41.0625 55.515625 
z
" id="DejaVuSans-72"/>
       <path d="M 8.5 21.578125 
L 8.5 54.6875 
L 17.484375 54.6875 
L 17.484375 21.921875 
Q 17.484375 14.15625 20.5 10.265625 
Q 23.53125 6.390625 29.59375 6.390625 
Q 36.859375 6.390625 41.078125 11.03125 
Q 45.3125 15.671875 45.3125 23.6875 
L 45.3125 54.6875 
L 54.296875 54.6875 
L 54.296875 0 
L 45.3125 0 
L 45.3125 8.40625 
Q 42.046875 3.421875 37.71875 1 
Q 33.40625 -1.421875 27.6875 -1.421875 
Q 18.265625 -1.421875 13.375 4.4375 
Q 8.5 10.296875 8.5 21.578125 
M 31.109375 56 
z
" id="DejaVuSans-75"/>
       <path d="M 45.40625 46.390625 
L 45.40625 75.984375 
L 54.390625 75.984375 
L 54.390625 0 
L 45.40625 0 
L 45.40625 8.203125 
Q 42.578125 3.328125 38.25 0.953125 
Q 33.9375 -1.421875 27.875 -1.421875 
Q 17.96875 -1.421875 11.734375 6.484375 
Q 5.515625 14.40625 5.515625 27.296875 
Q 5.515625 40.1875 11.734375 48.09375 
Q 17.96875 56 27.875 56 
Q 33.9375 56 38.25 53.625 
Q 42.578125 51.265625 45.40625 46.390625 
M 14.796875 27.296875 
Q 14.796875 17.390625 18.875 11.75 
Q 22.953125 6.109375 30.078125 6.109375 
Q 37.203125 6.109375 41.296875 11.75 
Q 45.40625 17.390625 45.40625 27.296875 
Q 45.40625 37.203125 41.296875 42.84375 
Q 37.203125 48.484375 30.078125 48.484375 
Q 22.953125 48.484375 18.875 42.84375 
Q 14.796875 37.203125 14.796875 27.296875 
" id="DejaVuSans-64"/>
       <path d="M 45.40625 27.984375 
Q 45.40625 37.75 41.375 43.109375 
Q 37.359375 48.484375 30.078125 48.484375 
Q 22.859375 48.484375 18.828125 43.109375 
Q 14.796875 37.75 14.796875 27.984375 
Q 14.796875 18.265625 18.828125 12.890625 
Q 22.859375 7.515625 30.078125 7.515625 
Q 37.359375 7.515625 41.375 12.890625 
Q 45.40625 18.265625 45.40625 27.984375 
M 54.390625 6.78125 
Q 54.390625 -7.171875 48.1875 -13.984375 
Q 42 -20.796875 29.203125 -20.796875 
Q 24.46875 -20.796875 20.265625 -20.09375 
Q 16.0625 -19.390625 12.109375 -17.921875 
L 12.109375 -9.1875 
Q 16.0625 -11.328125 19.921875 -12.34375 
Q 23.78125 -13.375 27.78125 -13.375 
Q 36.625 -13.375 41.015625 -8.765625 
Q 45.40625 -4.15625 45.40625 5.171875 
L 45.40625 9.625 
Q 42.625 4.78125 38.28125 2.390625 
Q 33.9375 0 27.875 0 
Q 17.828125 0 11.671875 7.65625 
Q 5.515625 15.328125 5.515625 27.984375 
Q 5.515625 40.671875 11.671875 48.328125 
Q 17.828125 56 27.875 56 
Q 33.9375 56 38.28125 53.609375 
Q 42.625 51.21875 45.40625 46.390625 
L 45.40625 54.6875 
L 54.390625 54.6875 
z
" id="DejaVuSans-67"/>
       <path d="M 56.203125 29.59375 
L 56.203125 25.203125 
L 14.890625 25.203125 
Q 15.484375 15.921875 20.484375 11.0625 
Q 25.484375 6.203125 34.421875 6.203125 
Q 39.59375 6.203125 44.453125 7.46875 
Q 49.3125 8.734375 54.109375 11.28125 
L 54.109375 2.78125 
Q 49.265625 0.734375 44.1875 -0.34375 
Q 39.109375 -1.421875 33.890625 -1.421875 
Q 20.796875 -1.421875 13.15625 6.1875 
Q 5.515625 13.8125 5.515625 26.8125 
Q 5.515625 40.234375 12.765625 48.109375 
Q 20.015625 56 32.328125 56 
Q 43.359375 56 49.78125 48.890625 
Q 56.203125 41.796875 56.203125 29.59375 
M 47.21875 32.234375 
Q 47.125 39.59375 43.09375 43.984375 
Q 39.0625 48.390625 32.421875 48.390625 
Q 24.90625 48.390625 20.390625 44.140625 
Q 15.875 39.890625 15.1875 32.171875 
z
" id="DejaVuSans-65"/>
      </defs>
      <g transform="translate(196.8075 409.21625)rotate(-90)scale(0.08 -0.08)">
       <use xlink:href="#DejaVuSans-47"/>
       <use x="77.490234" xlink:href="#DejaVuSans-72"/>
       <use x="118.603516" xlink:href="#DejaVuSans-75"/>
       <use x="181.982422" xlink:href="#DejaVuSans-64"/>
       <use x="245.458984" xlink:href="#DejaVuSans-67"/>
       <use x="308.935547" xlink:href="#DejaVuSans-65"/>
       <use x="370.458984" xlink:href="#DejaVuSans-72"/>
      </g>
     </g>
    </g>
    <g id="xtick_2">
     <g id="line2d_2">
      <g>
       <use style="stroke:#000000;stroke-width:0.8;" x="358.62" xlink:href="#m76dfc1be67" y="369.29"/>
      </g>
     </g>
     <g id="text_2">
      <!-- Defector -->
      <defs>
       <path d="M 19.671875 64.796875 
L 19.671875 8.109375 
L 31.59375 8.109375 
Q 46.6875 8.109375 53.6875 14.9375 
Q 60.6875 21.78125 60.6875 36.53125 
Q 60.6875 51.171875 53.6875 57.984375 
Q 46.6875 64.796875 31.59375 64.796875 
z
M 9.8125 72.90625 
L 30.078125 72.90625 
Q 51.265625 72.90625 61.171875 64.09375 
Q 71.09375 55.28125 71.09375 36.53125 
Q 71.09375 17.671875 61.125 8.828125 
Q 51.171875 0 30.078125 0 
L 9.8125 0 
z
" id="DejaVuSans-44"/>
       <path d="M 37.109375 75.984375 
L 37.109375 68.5 
L 28.515625 68.5 
Q 23.6875 68.5 21.796875 66.546875 
Q 19.921875 64.59375 19.921875 59.515625 
L 19.921875 54.6875 
L 34.71875 54.6875 
L 34.71875 47.703125 
L 19.921875 47.703125 
L 19.921875 0 
L 10.890625 0 
L 10.890625 47.703125 
L 2.296875 47.703125 
L 2.296875 54.6875 
L 10.890625 54.6875 
L 10.890625 58.5 
Q 10.890625 67.625 15.140625 71.796875 
Q 19.390625 75.984375 28.609375 75.984375 
z
" id="DejaVuSans-66"/>
       <path d="M 48.78125 52.59375 
L 48.78125 44.1875 
Q 44.96875 46.296875 41.140625 47.34375 
Q 37.3125 48.390625 33.40625 48.390625 
Q 24.65625 48.390625 19.8125 42.84375 
Q 14.984375 37.3125 14.984375 27.296875 
Q 14.984375 17.28125 19.8125 11.734375 
Q 24.65625 6.203125 33.40625 6.203125 
Q 37.3125 6.203125 41.140625 7.25 
Q 44.96875 8.296875 48.78125 10.40625 
L 48.78125 2.09375 
Q 45.015625 0.34375 40.984375 -0.53125 
Q 36.96875 -1.421875 32.421875 -1.421875 
Q 20.0625 -1.421875 12.78125 6.34375 
Q 5.515625 14.109375 5.515625 27.296875 
Q 5.515625 40.671875 12.859375 48.328125 
Q 20.21875 56 33.015625 56 
Q 37.15625 56 41.109375 55.140625 
Q 45.0625 54.296875 48.78125 52.59375 
" id="DejaVuSans-63"/>
       <path d="M 18.3125 70.21875 
L 18.3125 54.6875 
L 36.8125 54.6875 
L 36.8125 47.703125 
L 18.3125 47.703125 
L 18.3125 18.015625 
Q 18.3125 11.328125 20.140625 9.421875 
Q 21.96875 7.515625 27.59375 7.515625 
L 36.8125 7.515625 
L 36.8125 0 
L 27.59375 0 
Q 17.1875 0 13.234375 3.875 
Q 9.28125 7.765625 9.28125 18.015625 
L 9.28125 47.703125 
L 2.6875 47.703125 
L 2.6875 54.6875 
L 9.28125 54.6875 
L 9.28125 70.21875 
z
" id="DejaVuSans-74"/>
       <path d="M 30.609375 48.390625 
Q 23.390625 48.390625 19.1875 42.75 
Q 14.984375 37.109375 14.984375 27.296875 
Q 14.984375 17.484375 19.15625 11.84375 
Q 23.34375 6.203125 30.609375 6.203125 
Q 37.796875 6.203125 41.984375 11.859375 
Q 46.1875 17.53125 46.1875 27.296875 
Q 46.1875 37.015625 41.984375 42.703125 
Q 37.796875 48.390625 30.609375 48.390625 
M 30.609375 56 
Q 42.328125 56 49.015625 48.375 
Q 55.71875 40.765625 55.71875 27.296875 
Q 55.71875 13.875 49.015625 6.21875 
Q 42.328125 -1.421875 30.609375 -1.421875 
Q 18.84375 -1.421875 12.171875 6.21875 
Q 5.515625 13.875 5.515625 27.296875 
Q 5.515625 40.765625 12.171875 48.375 
Q 18.84375 56 30.609375 56 
" id="DejaVuSans-6f"/>
      </defs>
      <g transform="translate(360.8275 410.83)rotate(-90)scale(0.08 -0.08)">
       <use xlink:href="#DejaVuSans-44"/>
       <use x="77.001953" xlink:href="#DejaVuSans-65"/>
       <use x="138.525391" xlink:href="#DejaVuSans-66"/>
       <use x="173.730469" xlink:href="#DejaVuSans-65"/>
       <use x="235.253906" xlink:href="#DejaVuSans-63"/>
       <use x="290.234375" xlink:href="#DejaVuSans-74"/>
       <use x="329.443359" xlink:href="#DejaVuSans-6f"/>
       <use x="390.625" xlink:href="#DejaVuSans-72"/>
      </g>
     </g>
    </g>
    <g id="xtick_3">
     <g id="line2d_3">
      <g>
       <use style="stroke:#000000;stroke-width:0.8;" x="522.64" xlink:href="#m76dfc1be67" y="369.29"/>
      </g>
     </g>
     <g id="text_3">
      <!-- Tit For Tat -->
      <defs>
       <path d="M -0.296875 72.90625 
L 61.375 72.90625 
L 61.375 64.59375 
L 35.5 64.59375 
L 35.5 0 
L 25.59375 0 
L 25.59375 64.59375 
L -0.296875 64.59375 
z
" id="DejaVuSans-54"/>
       <path d="M 9.421875 54.6875 
L 18.40625 54.6875 
L 18.40625 0 
L 9.421875 0 
z
M 9.421875 75.984375 
L 18.40625 75.984375 
L 18.40625 64.59375 
L 9.421875 64.59375 
z
" id="DejaVuSans-69"/>
       <path id="DejaVuSans-20"/>
       <path d="M 9.8125 72.90625 
L 51.703125 72.90625 
L 51.703125 64.59375 
L 19.671875 64.59375 
L 19.671875 43.109375 
L 48.578125 43.109375 
L 48.578125 34.8125 
L 19.671875 34.8125 
L 19.671875 0 
L 9.8125 0 
z
" id="DejaVuSans-46"/>
       <path d="M 34.28125 27.484375 
Q 23.390625 27.484375 19.1875 25 
Q 14.984375 22.515625 14.984375 16.5 
Q 14.984375 11.71875 18.140625 8.90625 
Q 21.296875 6.109375 26.703125 6.109375 
Q 34.1875 6.109375 38.703125 11.40625 
Q 43.21875 16.703125 43.21875 25.484375 
L 43.21875 27.484375 
z
M 52.203125 31.203125 
L 52.203125 0 
L 43.21875 0 
L 43.21875 8.296875 
Q 40.140625 3.328125 35.546875 0.953125 
Q 30.953125 -1.421875 24.3125 -1.421875 
Q 15.921875 -1.421875 10.953125 3.296875 
Q 6 8.015625 6 15.921875 
Q 6 25.140625 12.171875 29.828125 
Q 18.359375 34.515625 30.609375 34.515625 
L 43.21875 34.515625 
L 43.21875 35.40625 
Q 43.21875 41.609375 39.140625 45 
Q 35.0625 48.390625 27.6875 48.390625 
Q 23 48.390625 18.546875 47.265625 
Q 14.109375 46.140625 10.015625 43.890625 
L 10.015625 52.203125 
Q 14.9375 54.109375 19.578125 55.046875 
Q 24.21875 56 28.609375 56 
Q 40.484375 56 46.34375 49.84375 
Q 52.203125 43.703125 52.203125 31.203125 
" id="DejaVuSans-61"/>
      </defs>
      <g transform="translate(524.8475 417.3025)rotate(-90)scale(0.08 -0.08)">
       <use xlink:href="#DejaVuSans-54"/>
       <use x="61.037109" xlink:href="#DejaVuSans-69"/>
       <use x="88.820312" xlink:href="#DejaVuSans-74"/>
       <use x="128.029297" xlink:href="#DejaVuSans-20"/>
       <use x="159.816406" xlink:href="#DejaVuSans-46"/>
       <use x="217.289062" xlink:href="#DejaVuSans-6f"/>
       <use x="278.470703" xlink:href="#DejaVuSans-72"/>
       <use x="319.583984" xlink:href="#DejaVuSans-20"/>
       <use x="351.371094" xlink:href="#DejaVuSans-54"/>
       <use x="412.205078" xlink:href="#DejaVuSans-61"/>
       <use x="473.484375" xlink:href="#DejaVuSans-74"/>
      </g>
     </g>
    </g>
    <g id="xtick_4">
     <g id="line2d_4">
      <g>
       <use style="stroke:#000000;stroke-width:0.8;" x="686.66" xlink:href="#m76dfc1be67" y="369.29"/>
      </g>
     </g>
     <g id="text_4">
      <!-- Cooperator -->
      <defs>
       <path d="M 64.40625 67.28125 
L 64.40625 56.890625 
Q 59.421875 61.53125 53.78125 63.8125 
Q 48.140625 66.109375 41.796875 66.109375 
Q 29.296875 66.109375 22.65625 58.46875 
Q 16.015625 50.828125 16.015625 36.375 
Q 16.015625 21.96875 22.65625 14.328125 
Q 29.296875 6.6875 41.796875 6.6875 
Q 48.140625 6.6875 53.78125 8.984375 
Q 59.421875 11.28125 64.40625 15.921875 
L 64.40625 5.609375 
Q 59.234375 2.09375 53.4375 0.328125 
Q 47.65625 -1.421875 41.21875 -1.421875 
Q 24.65625 -1.421875 15.125 8.703125 
Q 5.609375 18.84375 5.609375 36.375 
Q 5.609375 53.953125 15.125 64.078125 
Q 24.65625 74.21875 41.21875 74.21875 
Q 47.75 74.21875 53.53125 72.484375 
Q 59.328125 70.75 64.40625 67.28125 
" id="DejaVuSans-43"/>
       <path d="M 18.109375 8.203125 
L 18.109375 -20.796875 
L 9.078125 -20.796875 
L 9.078125 54.6875 
L 18.109375 54.6875 
L 18.109375 46.390625 
Q 20.953125 51.265625 25.265625 53.625 
Q 29.59375 56 35.59375 56 
Q 45.5625 56 51.78125 48.09375 
Q 58.015625 40.1875 58.015625 27.296875 
Q 58.015625 14.40625 51.78125 6.484375 
Q 45.5625 -1.421875 35.59375 -1.421875 
Q 29.59375 -1.421875 25.265625 0.953125 
Q 20.953125 3.328125 18.109375 8.203125 
M 48.6875 27.296875 
Q 48.6875 37.203125 44.609375 42.84375 
Q 40.53125 48.484375 33.40625 48.484375 
Q 26.265625 48.484375 22.1875 42.84375 
Q 18.109375 37.203125 18.109375 27.296875 
Q 18.109375 17.390625 22.1875 11.75 
Q 26.265625 6.109375 33.40625 6.109375 
Q 40.53125 6.109375 44.609375 11.75 
Q 48.6875 17.390625 48.6875 27.296875 
" id="DejaVuSans-70"/>
      </defs>
      <g transform="translate(688.8675 421.17875)rotate(-90)scale(0.08 -0.08)">
       <use xlink:href="#DejaVuSans-43"/>
       <use x="69.824219" xlink:href="#DejaVuSans-6f"/>
       <use x="131.005859" xlink:href="#DejaVuSans-6f"/>
       <use x="192.1875" xlink:href="#DejaVuSans-70"/>
       <use x="255.664062" xlink:href="#DejaVuSans-65"/>
       <use x="317.1875" xlink:href="#DejaVuSans-72"/>
       <use x="358.300781" xlink:href="#DejaVuSans-61"/>
       <use x="419.580078" xlink:href="#DejaVuSans-74"/>
       <use x="458.789062" xlink:href="#DejaVuSans-6f"/>
       <use x="519.970703" xlink:href="#DejaVuSans-72"/>
      </g>
     </g>
    </g>
   </g>
   <g id="matplotlib.axis_2">
    <g id="ytick_1">
     <g id="line2d_5">
      <defs>
       <path d="M 0 0 
L -3.5 0 
" id="m64abb45a31" style="stroke:#000000;stroke-width:0.8;"/>
      </defs>
      <g>
       <use style="stroke:#000000;stroke-width:0.8;" x="30.58" xlink:href="#m64abb45a31" y="369.29"/>
      </g>
     </g>
     <g id="text_5">
      <!-- −0.5 -->
      <defs>
       <path d="M 10.59375 35.5 
L 73.1875 35.5 
L 73.1875 27.203125 
L 10.59375 27.203125 
z
" id="DejaVuSans-2212"/>
       <path d="M 31.78125 66.40625 
Q 24.171875 66.40625 20.328125 58.90625 
Q 16.5 51.421875 16.5 36.375 
Q 16.5 21.390625 20.328125 13.890625 
Q 24.171875 6.390625 31.78125 6.390625 
Q 39.453125 6.390625 43.28125 13.890625 
Q 47.125 21.390625 47.125 36.375 
Q 47.125 51.421875 43.28125 58.90625 
Q 39.453125 66.40625 31.78125 66.40625 
M 31.78125 74.21875 
Q 44.046875 74.21875 50.515625 64.515625 
Q 56.984375 54.828125 56.984375 36.375 
Q 56.984375 17.96875 50.515625 8.265625 
Q 44.046875 -1.421875 31.78125 -1.421875 
Q 19.53125 -1.421875 13.0625 8.265625 
Q 6.59375 17.96875 6.59375 36.375 
Q 6.59375 54.828125 13.0625 64.515625 
Q 19.53125 74.21875 31.78125 74.21875 
" id="DejaVuSans-30"/>
       <path d="M 10.6875 12.40625 
L 21 12.40625 
L 21 0 
L 10.6875 0 
z
" id="DejaVuSans-2e"/>
       <path d="M 10.796875 72.90625 
L 49.515625 72.90625 
L 49.515625 64.59375 
L 19.828125 64.59375 
L 19.828125 46.734375 
Q 21.96875 47.46875 24.109375 47.828125 
Q 26.265625 48.1875 28.421875 48.1875 
Q 40.625 48.1875 47.75 41.5 
Q 54.890625 34.8125 54.890625 23.390625 
Q 54.890625 11.625 47.5625 5.09375 
Q 40.234375 -1.421875 26.90625 -1.421875 
Q 22.3125 -1.421875 17.546875 -0.640625 
Q 12.796875 0.140625 7.71875 1.703125 
L 7.71875 11.625 
Q 12.109375 9.234375 16.796875 8.0625 
Q 21.484375 6.890625 26.703125 6.890625 
Q 35.15625 6.890625 40.078125 11.328125 
Q 45.015625 15.765625 45.015625 23.390625 
Q 45.015625 31 40.078125 35.4375 
Q 35.15625 39.890625 26.703125 39.890625 
Q 22.75 39.890625 18.8125 39.015625 
Q 14.890625 38.140625 10.796875 36.28125 
z
" id="DejaVuSans-35"/>
      </defs>
      <g transform="translate(4.15375 372.329375)scale(0.08 -0.08)">
       <use xlink:href="#DejaVuSans-2212"/>
       <use x="83.789062" xlink:href="#DejaVuSans-30"/>
       <use x="147.412109" xlink:href="#DejaVuSans-2e"/>
       <use x="179.199219" xlink:href="#DejaVuSans-35"/>
      </g>
     </g>
    </g>
    <g id="ytick_2">
     <g id="line2d_6">
      <g>
       <use style="stroke:#000000;stroke-width:0.8;" x="30.58" xlink:href="#m64abb45a31" y="324.79375"/>
      </g>
     </g>
     <g id="text_6">
      <!-- 0.0 -->
      <g transform="translate(10.8575 327.833125)scale(0.08 -0.08)">
       <use xlink:href="#DejaVuSans-30"/>
       <use x="63.623047" xlink:href="#DejaVuSans-2e"/>
       <use x="95.410156" xlink:href="#DejaVuSans-30"/>
      </g>
     </g>
    </g>
    <g id="ytick_3">
     <g id="line2d_7">
      <g>
       <use style="stroke:#000000;stroke-width:0.8;" x="30.58" xlink:href="#m64abb45a31" y="280.2975"/>
      </g>
     </g>
     <g id="text_7">
      <!-- 0.5 -->
      <g transform="translate(10.8575 283.336875)scale(0.08 -0.08)">
       <use xlink:href="#DejaVuSans-30"/>
       <use x="63.623047" xlink:href="#DejaVuSans-2e"/>
       <use x="95.410156" xlink:href="#DejaVuSans-35"/>
      </g>
     </g>
    </g>
    <g id="ytick_4">
     <g id="line2d_8">
      <g>
       <use style="stroke:#000000;stroke-width:0.8;" x="30.58" xlink:href="#m64abb45a31" y="235.80125"/>
      </g>
     </g>
     <g id="text_8">
      <!-- 1.0 -->
      <defs>
       <path d="M 12.40625 8.296875 
L 28.515625 8.296875 
L 28.515625 63.921875 
L 10.984375 60.40625 
L 10.984375 69.390625 
L 28.421875 72.90625 
L 38.28125 72.90625 
L 38.28125 8.296875 
L 54.390625 8.296875 
L 54.390625 0 
L 12.40625 0 
z
" id="DejaVuSans-31"/>
      </defs>
      <g transform="translate(10.8575 238.840625)scale(0.08 -0.08)">
       <use xlink:href="#DejaVuSans-31"/>
       <use x="63.623047" xlink:href="#DejaVuSans-2e"/>
       <use x="95.410156" xlink:href="#DejaVuSans-30"/>
      </g>
     </g>
    </g>
    <g id="ytick_5">
     <g id="line2d_9">
      <g>
       <use style="stroke:#000000;stroke-width:0.8;" x="30.58" xlink:href="#m64abb45a31" y="191.305"/>
      </g>
     </g>
     <g id="text_9">
      <!-- 1.5 -->
      <g transform="translate(10.8575 194.344375)scale(0.08 -0.08)">
       <use xlink:href="#DejaVuSans-31"/>
       <use x="63.623047" xlink:href="#DejaVuSans-2e"/>
       <use x="95.410156" xlink:href="#DejaVuSans-35"/>
      </g>
     </g>
    </g>
    <g id="ytick_6">
     <g id="line2d_10">
      <g>
       <use style="stroke:#000000;stroke-width:0.8;" x="30.58" xlink:href="#m64abb45a31" y="146.80875"/>
      </g>
     </g>
     <g id="text_10">
      <!-- 2.0 -->
      <defs>
       <path d="M 19.1875 8.296875 
L 53.609375 8.296875 
L 53.609375 0 
L 7.328125 0 
L 7.328125 8.296875 
Q 12.9375 14.109375 22.625 23.890625 
Q 32.328125 33.6875 34.8125 36.53125 
Q 39.546875 41.84375 41.421875 45.53125 
Q 43.3125 49.21875 43.3125 52.78125 
Q 43.3125 58.59375 39.234375 62.25 
Q 35.15625 65.921875 28.609375 65.921875 
Q 23.96875 65.921875 18.8125 64.3125 
Q 13.671875 62.703125 7.8125 59.421875 
L 7.8125 69.390625 
Q 13.765625 71.78125 18.9375 73 
Q 24.125 74.21875 28.421875 74.21875 
Q 39.75 74.21875 46.484375 68.546875 
Q 53.21875 62.890625 53.21875 53.421875 
Q 53.21875 48.921875 51.53125 44.890625 
Q 49.859375 40.875 45.40625 35.40625 
Q 44.1875 33.984375 37.640625 27.21875 
Q 31.109375 20.453125 19.1875 8.296875 
" id="DejaVuSans-32"/>
      </defs>
      <g transform="translate(10.8575 149.848125)scale(0.08 -0.08)">
       <use xlink:href="#DejaVuSans-32"/>
       <use x="63.623047" xlink:href="#DejaVuSans-2e"/>
       <use x="95.410156" xlink:href="#DejaVuSans-30"/>
      </g>
     </g>
    </g>
    <g id="ytick_7">
     <g id="line2d_11">
      <g>
       <use style="stroke:#000000;stroke-width:0.8;" x="30.58" xlink:href="#m64abb45a31" y="102.3125"/>
      </g>
     </g>
     <g id="text_11">
      <!-- 2.5 -->
      <g transform="translate(10.8575 105.351875)scale(0.08 -0.08)">
       <use xlink:href="#DejaVuSans-32"/>
       <use x="63.623047" xlink:href="#DejaVuSans-2e"/>
       <use x="95.410156" xlink:href="#DejaVuSans-35"/>
      </g>
     </g>
    </g>
    <g id="ytick_8">
     <g id="line2d_12">
      <g>
       <use style="stroke:#000000;stroke-width:0.8;" x="30.58" xlink:href="#m64abb45a31" y="57.81625"/>
      </g>
     </g>
     <g id="text_12">
      <!-- 3.0 -->
      <defs>
       <path d="M 40.578125 39.3125 
Q 47.65625 37.796875 51.625 33 
Q 55.609375 28.21875 55.609375 21.1875 
Q 55.609375 10.40625 48.1875 4.484375 
Q 40.765625 -1.421875 27.09375 -1.421875 
Q 22.515625 -1.421875 17.65625 -0.515625 
Q 12.796875 0.390625 7.625 2.203125 
L 7.625 11.71875 
Q 11.71875 9.328125 16.59375 8.109375 
Q 21.484375 6.890625 26.8125 6.890625 
Q 36.078125 6.890625 40.9375 10.546875 
Q 45.796875 14.203125 45.796875 21.1875 
Q 45.796875 27.640625 41.28125 31.265625 
Q 36.765625 34.90625 28.71875 34.90625 
L 20.21875 34.90625 
L 20.21875 43.015625 
L 29.109375 43.015625 
Q 36.375 43.015625 40.234375 45.921875 
Q 44.09375 48.828125 44.09375 54.296875 
Q 44.09375 59.90625 40.109375 62.90625 
Q 36.140625 65.921875 28.71875 65.921875 
Q 24.65625 65.921875 20.015625 65.03125 
Q 15.375 64.15625 9.8125 62.3125 
L 9.8125 71.09375 
Q 15.4375 72.65625 20.34375 73.4375 
Q 25.25 74.21875 29.59375 74.21875 
Q 40.828125 74.21875 47.359375 69.109375 
Q 53.90625 64.015625 53.90625 55.328125 
Q 53.90625 49.265625 50.4375 45.09375 
Q 46.96875 40.921875 40.578125 39.3125 
" id="DejaVuSans-33"/>
      </defs>
      <g transform="translate(10.8575 60.855625)scale(0.08 -0.08)">
       <use xlink:href="#DejaVuSans-33"/>
       <use x="63.623047" xlink:href="#DejaVuSans-2e"/>
       <use x="95.410156" xlink:href="#DejaVuSans-30"/>
      </g>
     </g>
    </g>
    <g id="ytick_9">
     <g id="line2d_13">
      <g>
       <use style="stroke:#000000;stroke-width:0.8;" x="30.58" xlink:href="#m64abb45a31" y="13.32"/>
      </g>
     </g>
     <g id="text_13">
      <!-- 3.5 -->
      <g transform="translate(10.8575 16.359375)scale(0.08 -0.08)">
       <use xlink:href="#DejaVuSans-33"/>
       <use x="63.623047" xlink:href="#DejaVuSans-2e"/>
       <use x="95.410156" xlink:href="#DejaVuSans-35"/>
      </g>
     </g>
    </g>
   </g>
   <g id="LineCollection_1">
    <path clip-path="url(#p2690849733)" d="M 174.0975 57.81625 
L 215.1025 57.81625 
" style="fill:none;stroke:#1f77b4;stroke-width:1.5;"/>
    <path clip-path="url(#p2690849733)" d="M 338.1175 146.80875 
L 379.1225 146.80875 
" style="fill:none;stroke:#1f77b4;stroke-width:1.5;"/>
    <path clip-path="url(#p2690849733)" d="M 502.1375 235.80125 
L 543.1425 235.80125 
" style="fill:none;stroke:#1f77b4;stroke-width:1.5;"/>
    <path clip-path="url(#p2690849733)" d="M 666.1575 324.79375 
L 707.1625 324.79375 
" style="fill:none;stroke:#1f77b4;stroke-width:1.5;"/>
   </g>
   <g id="patch_3">
    <path d="M 30.58 369.29 
L 30.58 13.32 
" style="fill:none;stroke:#000000;stroke-linecap:square;stroke-linejoin:miter;stroke-width:0.8;"/>
   </g>
   <g id="patch_4">
    <path d="M 850.68 369.29 
L 850.68 13.32 
" style="fill:none;stroke:#000000;stroke-linecap:square;stroke-linejoin:miter;stroke-width:0.8;"/>
   </g>
   <g id="patch_5">
    <path d="M 30.58 369.29 
L 850.68 369.29 
" style="fill:none;stroke:#000000;stroke-linecap:square;stroke-linejoin:miter;stroke-width:0.8;"/>
   </g>
   <g id="patch_6">
    <path d="M 30.58 13.32 
L 850.68 13.32 
" style="fill:none;stroke:#000000;stroke-linecap:square;stroke-linejoin:miter;stroke-width:0.8;"/>
   </g>
  </g>
 </g>
 <defs>
  <clipPath id="p2690849733">
   <rect height="355.97" width="820.1" x="30.58" y="13.32"/>
  </clipPath>
 </defs>
</svg>
