<?xml version="1.0" encoding="utf-8" standalone="no"?>
<!DOCTYPE svg PUBLIC "-//W3C//DTD SVG 1.1//EN"
  "http://www.w3.org/Graphics/SVG/1.1/DTD/svg11.dtd">
<!-- Created with matplotlib (http://matplotlib.org/) -->
<svg height="432pt" version="1.1" viewBox="0 0 864 432" width="864pt" xmlns="http://www.w3.org/2000/svg" xmlns:xlink="http://www.w3.org/1999/xlink">
 <defs>
  <style type="text/css">
*{stroke-linecap:butt;stroke-linejoin:round;}
  </style>
 </defs>
 <g id="figure_1">
  <g id="patch_1">
   <path d="M 0 432 
L 864 432 
L 864 0 
L 0 0 
z
" style="fill:#ffffff;"/>
  </g>
  <g id="axes_1">
   <g id="patch_2">
    <path d="M 30.67 369.29 
L 850.68 369.29 
L 850.68 13.32 
L 30.67 13.32 
z
" style="fill:#ffffff;"/>
   </g>
   <g id="PolyCollection_1">
    <path clip-path="url(#p1759e04d03)" d="M 222.29598 70.145137 
L 167.04802 70.145137 
L 166.349433 69.832335 
L 165.665173 69.519533 
L 164.996459 69.206732 
L 164.344434 68.89393 
L 163.710165 68.581128 
L 163.094634 68.268326 
L 162.498738 67.955524 
L 161.923285 67.642723 
L 161.368993 67.329921 
L 160.836484 67.017119 
L 160.326287 66.704317 
L 159.838837 66.391516 
L 159.374472 66.078714 
L 158.933434 65.765912 
L 158.515874 65.45311 
L 158.121846 65.140308 
L 157.751312 64.827507 
L 157.404147 64.514705 
L 157.080133 64.201903 
L 156.778972 63.889101 
L 156.500278 63.576299 
L 156.243588 63.263498 
L 156.008362 62.950696 
L 155.793986 62.637894 
L 155.59978 62.325092 
L 155.424995 62.01229 
L 155.268826 61.699489 
L 155.130408 61.386687 
L 155.008828 61.073885 
L 154.903125 60.761083 
L 154.812301 60.448282 
L 154.735319 60.13548 
L 154.671116 59.822678 
L 154.618605 59.509876 
L 154.576684 59.197074 
L 154.544238 58.884273 
L 154.520151 58.571471 
L 154.503309 58.258669 
L 154.49261 57.945867 
L 154.486966 57.633065 
L 154.485315 57.320264 
L 154.486626 57.007462 
L 154.489907 56.69466 
L 154.49421 56.381858 
L 154.498637 56.069057 
L 154.502352 55.756255 
L 154.504582 55.443453 
L 154.504626 55.130651 
L 154.501857 54.817849 
L 154.495736 54.505048 
L 154.485806 54.192246 
L 154.471706 53.879444 
L 154.45317 53.566642 
L 154.430033 53.25384 
L 154.402233 52.941039 
L 154.369816 52.628237 
L 154.332934 52.315435 
L 154.291849 52.002633 
L 154.246934 51.689831 
L 154.19867 51.37703 
L 154.147649 51.064228 
L 154.094571 50.751426 
L 154.04024 50.438624 
L 153.985562 50.125823 
L 153.931541 49.813021 
L 153.879277 49.500219 
L 153.829954 49.187417 
L 153.784841 48.874615 
L 153.745278 48.561814 
L 153.712675 48.249012 
L 153.688495 47.93621 
L 153.674253 47.623408 
L 153.6715 47.310606 
L 153.681815 46.997805 
L 153.706793 46.685003 
L 153.748033 46.372201 
L 153.807123 46.059399 
L 153.885634 45.746597 
L 153.985101 45.433796 
L 154.107011 45.120994 
L 154.252793 44.808192 
L 154.423801 44.49539 
L 154.621304 44.182589 
L 154.846472 43.869787 
L 155.100364 43.556985 
L 155.383917 43.244183 
L 155.697936 42.931381 
L 156.043083 42.61858 
L 156.419867 42.305778 
L 156.82864 41.992976 
L 157.269587 41.680174 
L 157.742721 41.367372 
L 158.247882 41.054571 
L 158.784731 40.741769 
L 159.352751 40.428967 
L 159.95125 40.116165 
L 160.579358 39.803363 
L 161.236034 39.490562 
L 161.920074 39.17776 
L 227.423926 39.17776 
L 227.423926 39.17776 
L 228.107966 39.490562 
L 228.764642 39.803363 
L 229.39275 40.116165 
L 229.991249 40.428967 
L 230.559269 40.741769 
L 231.096118 41.054571 
L 231.601279 41.367372 
L 232.074413 41.680174 
L 232.51536 41.992976 
L 232.924133 42.305778 
L 233.300917 42.61858 
L 233.646064 42.931381 
L 233.960083 43.244183 
L 234.243636 43.556985 
L 234.497528 43.869787 
L 234.722696 44.182589 
L 234.920199 44.49539 
L 235.091207 44.808192 
L 235.236989 45.120994 
L 235.358899 45.433796 
L 235.458366 45.746597 
L 235.536877 46.059399 
L 235.595967 46.372201 
L 235.637207 46.685003 
L 235.662185 46.997805 
L 235.6725 47.310606 
L 235.669747 47.623408 
L 235.655505 47.93621 
L 235.631325 48.249012 
L 235.598722 48.561814 
L 235.559159 48.874615 
L 235.514046 49.187417 
L 235.464723 49.500219 
L 235.412459 49.813021 
L 235.358438 50.125823 
L 235.30376 50.438624 
L 235.249429 50.751426 
L 235.196351 51.064228 
L 235.14533 51.37703 
L 235.097066 51.689831 
L 235.052151 52.002633 
L 235.011066 52.315435 
L 234.974184 52.628237 
L 234.941767 52.941039 
L 234.913967 53.25384 
L 234.89083 53.566642 
L 234.872294 53.879444 
L 234.858194 54.192246 
L 234.848264 54.505048 
L 234.842143 54.817849 
L 234.839374 55.130651 
L 234.839418 55.443453 
L 234.841648 55.756255 
L 234.845363 56.069057 
L 234.84979 56.381858 
L 234.854093 56.69466 
L 234.857374 57.007462 
L 234.858685 57.320264 
L 234.857034 57.633065 
L 234.85139 57.945867 
L 234.840691 58.258669 
L 234.823849 58.571471 
L 234.799762 58.884273 
L 234.767316 59.197074 
L 234.725395 59.509876 
L 234.672884 59.822678 
L 234.608681 60.13548 
L 234.531699 60.448282 
L 234.440875 60.761083 
L 234.335172 61.073885 
L 234.213592 61.386687 
L 234.075174 61.699489 
L 233.919005 62.01229 
L 233.74422 62.325092 
L 233.550014 62.637894 
L 233.335638 62.950696 
L 233.100412 63.263498 
L 232.843722 63.576299 
L 232.565028 63.889101 
L 232.263867 64.201903 
L 231.939853 64.514705 
L 231.592688 64.827507 
L 231.222154 65.140308 
L 230.828126 65.45311 
L 230.410566 65.765912 
L 229.969528 66.078714 
L 229.505163 66.391516 
L 229.017713 66.704317 
L 228.507516 67.017119 
L 227.975007 67.329921 
L 227.420715 67.642723 
L 226.845262 67.955524 
L 226.249366 68.268326 
L 225.633835 68.581128 
L 224.999566 68.89393 
L 224.347541 69.206732 
L 223.678827 69.519533 
L 222.994567 69.832335 
L 222.29598 70.145137 
z
" style="fill:#1f77b4;fill-opacity:0.3;"/>
   </g>
   <g id="PolyCollection_2">
    <path clip-path="url(#p1759e04d03)" d="M 380.286105 63.564569 
L 337.061895 63.564569 
L 336.131029 63.220487 
L 335.195339 62.876405 
L 334.256856 62.532323 
L 333.317713 62.188242 
L 332.380146 61.84416 
L 331.446505 61.500078 
L 330.519251 61.155996 
L 329.600966 60.811914 
L 328.694346 60.467832 
L 327.802202 60.12375 
L 326.927454 59.779668 
L 326.073122 59.435586 
L 325.242315 59.091504 
L 324.438214 58.747422 
L 323.664054 58.40334 
L 322.923103 58.059258 
L 322.218633 57.715176 
L 321.553895 57.371094 
L 320.932085 57.027012 
L 320.356315 56.68293 
L 319.829576 56.338848 
L 319.354704 55.994766 
L 318.934347 55.650684 
L 318.570932 55.306602 
L 318.266629 54.96252 
L 318.023326 54.618438 
L 317.8426 54.274356 
L 317.725694 53.930274 
L 317.6735 53.586192 
L 317.686541 53.24211 
L 317.764963 52.898028 
L 317.908533 52.553946 
L 318.116635 52.209864 
L 318.388275 51.865782 
L 318.722096 51.5217 
L 319.116387 51.177619 
L 319.569106 50.833537 
L 320.077899 50.489455 
L 320.640125 50.145373 
L 321.252889 49.801291 
L 321.913065 49.457209 
L 322.617331 49.113127 
L 323.3622 48.769045 
L 324.144052 48.424963 
L 324.959165 48.080881 
L 325.803745 47.736799 
L 326.673955 47.392717 
L 327.565945 47.048635 
L 328.475873 46.704553 
L 329.399931 46.360471 
L 330.334367 46.016389 
L 331.2755 45.672307 
L 332.21974 45.328225 
L 333.1636 44.984143 
L 334.10371 44.640061 
L 335.036828 44.295979 
L 335.959845 43.951897 
L 336.869801 43.607815 
L 337.763885 43.263733 
L 338.639442 42.919651 
L 339.493984 42.575569 
L 340.32519 42.231487 
L 341.130916 41.887405 
L 341.909196 41.543323 
L 342.658254 41.199241 
L 343.376503 40.855159 
L 344.062558 40.511078 
L 344.715236 40.166996 
L 345.333566 39.822914 
L 345.916795 39.478832 
L 346.464391 39.13475 
L 346.97605 38.790668 
L 347.451698 38.446586 
L 347.891494 38.102504 
L 348.295832 37.758422 
L 348.665339 37.41434 
L 349.00087 37.070258 
L 349.30351 36.726176 
L 349.574555 36.382094 
L 349.815514 36.038012 
L 350.028087 35.69393 
L 350.214152 35.349848 
L 350.375752 35.005766 
L 350.515065 34.661684 
L 350.63439 34.317602 
L 350.736117 33.97352 
L 350.822705 33.629438 
L 350.896649 33.285356 
L 350.960455 32.941274 
L 351.016613 32.597192 
L 351.067561 32.25311 
L 351.115667 31.909028 
L 351.163192 31.564946 
L 351.21227 31.220864 
L 351.264884 30.876782 
L 351.322844 30.5327 
L 351.387768 30.188618 
L 351.461067 29.844537 
L 351.543933 29.500455 
L 365.804067 29.500455 
L 365.804067 29.500455 
L 365.886933 29.844537 
L 365.960232 30.188618 
L 366.025156 30.5327 
L 366.083116 30.876782 
L 366.13573 31.220864 
L 366.184808 31.564946 
L 366.232333 31.909028 
L 366.280439 32.25311 
L 366.331387 32.597192 
L 366.387545 32.941274 
L 366.451351 33.285356 
L 366.525295 33.629438 
L 366.611883 33.97352 
L 366.71361 34.317602 
L 366.832935 34.661684 
L 366.972248 35.005766 
L 367.133848 35.349848 
L 367.319913 35.69393 
L 367.532486 36.038012 
L 367.773445 36.382094 
L 368.04449 36.726176 
L 368.34713 37.070258 
L 368.682661 37.41434 
L 369.052168 37.758422 
L 369.456506 38.102504 
L 369.896302 38.446586 
L 370.37195 38.790668 
L 370.883609 39.13475 
L 371.431205 39.478832 
L 372.014434 39.822914 
L 372.632764 40.166996 
L 373.285442 40.511078 
L 373.971497 40.855159 
L 374.689746 41.199241 
L 375.438804 41.543323 
L 376.217084 41.887405 
L 377.02281 42.231487 
L 377.854016 42.575569 
L 378.708558 42.919651 
L 379.584115 43.263733 
L 380.478199 43.607815 
L 381.388155 43.951897 
L 382.311172 44.295979 
L 383.24429 44.640061 
L 384.1844 44.984143 
L 385.12826 45.328225 
L 386.0725 45.672307 
L 387.013633 46.016389 
L 387.948069 46.360471 
L 388.872127 46.704553 
L 389.782055 47.048635 
L 390.674045 47.392717 
L 391.544255 47.736799 
L 392.388835 48.080881 
L 393.203948 48.424963 
L 393.9858 48.769045 
L 394.730669 49.113127 
L 395.434935 49.457209 
L 396.095111 49.801291 
L 396.707875 50.145373 
L 397.270101 50.489455 
L 397.778894 50.833537 
L 398.231613 51.177619 
L 398.625904 51.5217 
L 398.959725 51.865782 
L 399.231365 52.209864 
L 399.439467 52.553946 
L 399.583037 52.898028 
L 399.661459 53.24211 
L 399.6745 53.586192 
L 399.622306 53.930274 
L 399.5054 54.274356 
L 399.324674 54.618438 
L 399.081371 54.96252 
L 398.777068 55.306602 
L 398.413653 55.650684 
L 397.993296 55.994766 
L 397.518424 56.338848 
L 396.991685 56.68293 
L 396.415915 57.027012 
L 395.794105 57.371094 
L 395.129367 57.715176 
L 394.424897 58.059258 
L 393.683946 58.40334 
L 392.909786 58.747422 
L 392.105685 59.091504 
L 391.274878 59.435586 
L 390.420546 59.779668 
L 389.545798 60.12375 
L 388.653654 60.467832 
L 387.747034 60.811914 
L 386.828749 61.155996 
L 385.901495 61.500078 
L 384.967854 61.84416 
L 384.030287 62.188242 
L 383.091144 62.532323 
L 382.152661 62.876405 
L 381.216971 63.220487 
L 380.286105 63.564569 
z
" style="fill:#1f77b4;fill-opacity:0.3;"/>
   </g>
   <g id="PolyCollection_3">
    <path clip-path="url(#p1759e04d03)" d="M 554.129791 205.627412 
L 491.222209 205.627412 
L 490.451876 205.32243 
L 489.70187 205.017448 
L 488.974275 204.712467 
L 488.271134 204.407485 
L 487.594449 204.102503 
L 486.946166 203.797521 
L 486.328166 203.49254 
L 485.74226 203.187558 
L 485.190175 202.882576 
L 484.673548 202.577594 
L 484.193918 202.272613 
L 483.752714 201.967631 
L 483.35125 201.662649 
L 482.990714 201.357667 
L 482.672163 201.052686 
L 482.396511 200.747704 
L 482.164529 200.442722 
L 481.976832 200.137741 
L 481.833875 199.832759 
L 481.735949 199.527777 
L 481.683175 199.222795 
L 481.6755 198.917814 
L 481.712694 198.612832 
L 481.794347 198.30785 
L 481.919868 198.002868 
L 482.088486 197.697887 
L 482.299249 197.392905 
L 482.551024 197.087923 
L 482.842504 196.782941 
L 483.172209 196.47796 
L 483.53849 196.172978 
L 483.939539 195.867996 
L 484.373394 195.563014 
L 484.837949 195.258033 
L 485.330961 194.953051 
L 485.850065 194.648069 
L 486.392784 194.343087 
L 486.95654 194.038106 
L 487.538673 193.733124 
L 488.13645 193.428142 
L 488.747087 193.12316 
L 489.36776 192.818179 
L 489.995624 192.513197 
L 490.627832 192.208215 
L 491.261547 191.903233 
L 491.893968 191.598252 
L 492.52234 191.29327 
L 493.143977 190.988288 
L 493.756277 190.683306 
L 494.356739 190.378325 
L 494.942978 190.073343 
L 495.512745 189.768361 
L 496.063936 189.463379 
L 496.594611 189.158398 
L 497.103003 188.853416 
L 497.58753 188.548434 
L 498.046806 188.243452 
L 498.47965 187.938471 
L 498.885089 187.633489 
L 499.26237 187.328507 
L 499.610958 187.023526 
L 499.930541 186.718544 
L 500.221029 186.413562 
L 500.482554 186.10858 
L 500.715466 185.803599 
L 500.920329 185.498617 
L 501.097911 185.193635 
L 501.249184 184.888653 
L 501.375305 184.583672 
L 501.477611 184.27869 
L 501.557607 183.973708 
L 501.616949 183.668726 
L 501.65743 183.363745 
L 501.680968 183.058763 
L 501.689585 182.753781 
L 501.685394 182.448799 
L 501.670576 182.143818 
L 501.647367 181.838836 
L 501.618037 181.533854 
L 501.584873 181.228872 
L 501.550159 180.923891 
L 501.516159 180.618909 
L 501.4851 180.313927 
L 501.459152 180.008945 
L 501.440416 179.703964 
L 501.430904 179.398982 
L 501.432527 179.094 
L 501.447081 178.789018 
L 501.476235 178.484037 
L 501.521519 178.179055 
L 501.584312 177.874073 
L 501.66584 177.569091 
L 501.767163 177.26411 
L 501.889173 176.959128 
L 502.032589 176.654146 
L 502.197955 176.349164 
L 502.38564 176.044183 
L 502.595836 175.739201 
L 502.828565 175.434219 
L 542.523435 175.434219 
L 542.523435 175.434219 
L 542.756164 175.739201 
L 542.96636 176.044183 
L 543.154045 176.349164 
L 543.319411 176.654146 
L 543.462827 176.959128 
L 543.584837 177.26411 
L 543.68616 177.569091 
L 543.767688 177.874073 
L 543.830481 178.179055 
L 543.875765 178.484037 
L 543.904919 178.789018 
L 543.919473 179.094 
L 543.921096 179.398982 
L 543.911584 179.703964 
L 543.892848 180.008945 
L 543.8669 180.313927 
L 543.835841 180.618909 
L 543.801841 180.923891 
L 543.767127 181.228872 
L 543.733963 181.533854 
L 543.704633 181.838836 
L 543.681424 182.143818 
L 543.666606 182.448799 
L 543.662415 182.753781 
L 543.671032 183.058763 
L 543.69457 183.363745 
L 543.735051 183.668726 
L 543.794393 183.973708 
L 543.874389 184.27869 
L 543.976695 184.583672 
L 544.102816 184.888653 
L 544.254089 185.193635 
L 544.431671 185.498617 
L 544.636534 185.803599 
L 544.869446 186.10858 
L 545.130971 186.413562 
L 545.421459 186.718544 
L 545.741042 187.023526 
L 546.08963 187.328507 
L 546.466911 187.633489 
L 546.87235 187.938471 
L 547.305194 188.243452 
L 547.76447 188.548434 
L 548.248997 188.853416 
L 548.757389 189.158398 
L 549.288064 189.463379 
L 549.839255 189.768361 
L 550.409022 190.073343 
L 550.995261 190.378325 
L 551.595723 190.683306 
L 552.208023 190.988288 
L 552.82966 191.29327 
L 553.458032 191.598252 
L 554.090453 191.903233 
L 554.724168 192.208215 
L 555.356376 192.513197 
L 555.98424 192.818179 
L 556.604913 193.12316 
L 557.21555 193.428142 
L 557.813327 193.733124 
L 558.39546 194.038106 
L 558.959216 194.343087 
L 559.501935 194.648069 
L 560.021039 194.953051 
L 560.514051 195.258033 
L 560.978606 195.563014 
L 561.412461 195.867996 
L 561.81351 196.172978 
L 562.179791 196.47796 
L 562.509496 196.782941 
L 562.800976 197.087923 
L 563.052751 197.392905 
L 563.263514 197.697887 
L 563.432132 198.002868 
L 563.557653 198.30785 
L 563.639306 198.612832 
L 563.6765 198.917814 
L 563.668825 199.222795 
L 563.616051 199.527777 
L 563.518125 199.832759 
L 563.375168 200.137741 
L 563.187471 200.442722 
L 562.955489 200.747704 
L 562.679837 201.052686 
L 562.361286 201.357667 
L 562.00075 201.662649 
L 561.599286 201.967631 
L 561.158082 202.272613 
L 560.678452 202.577594 
L 560.161825 202.882576 
L 559.60974 203.187558 
L 559.023834 203.49254 
L 558.405834 203.797521 
L 557.757551 204.102503 
L 557.080866 204.407485 
L 556.377725 204.712467 
L 555.65013 205.017448 
L 554.900124 205.32243 
L 554.129791 205.627412 
z
" style="fill:#1f77b4;fill-opacity:0.3;"/>
   </g>
   <g id="PolyCollection_4">
    <path clip-path="url(#p1759e04d03)" d="M 715.136337 353.109545 
L 658.219663 353.109545 
L 657.194481 352.698993 
L 656.188486 352.288441 
L 655.205923 351.877888 
L 654.251036 351.467336 
L 653.328036 351.056784 
L 652.441069 350.646231 
L 651.594177 350.235679 
L 650.79127 349.825127 
L 650.036083 349.414574 
L 649.332148 349.004022 
L 648.682757 348.59347 
L 648.090926 348.182917 
L 647.559371 347.772365 
L 647.090467 347.361813 
L 646.686232 346.95126 
L 646.348295 346.540708 
L 646.077877 346.130156 
L 645.875775 345.719603 
L 645.742346 345.309051 
L 645.6775 344.898498 
L 645.680695 344.487946 
L 645.750937 344.077394 
L 645.886788 343.666841 
L 646.086375 343.256289 
L 646.347408 342.845737 
L 646.667199 342.435184 
L 647.042692 342.024632 
L 647.47049 341.61408 
L 647.946893 341.203527 
L 648.467938 340.792975 
L 649.029438 340.382423 
L 649.627034 339.97187 
L 650.256235 339.561318 
L 650.912473 339.150766 
L 651.591153 338.740213 
L 652.287697 338.329661 
L 652.997602 337.919109 
L 653.71648 337.508556 
L 654.440107 337.098004 
L 655.164463 336.687452 
L 655.885774 336.276899 
L 656.600543 335.866347 
L 657.30558 335.455794 
L 657.998024 335.045242 
L 658.675369 334.63469 
L 659.335465 334.224137 
L 659.976537 333.813585 
L 660.597175 333.403033 
L 661.196337 332.99248 
L 661.773333 332.581928 
L 662.327815 332.171376 
L 662.859751 331.760823 
L 663.369403 331.350271 
L 663.857301 330.939719 
L 664.324206 330.529166 
L 664.771084 330.118614 
L 665.199065 329.708062 
L 665.60941 329.297509 
L 666.003476 328.886957 
L 666.382681 328.476405 
L 666.74847 328.065852 
L 667.102284 327.6553 
L 667.445529 327.244748 
L 667.779556 326.834195 
L 668.105632 326.423643 
L 668.424928 326.01309 
L 668.738498 325.602538 
L 669.047274 325.191986 
L 669.352057 324.781433 
L 669.653514 324.370881 
L 669.952183 323.960329 
L 670.248471 323.549776 
L 670.542668 323.139224 
L 670.834956 322.728672 
L 671.125418 322.318119 
L 671.414057 321.907567 
L 671.70081 321.497015 
L 671.985565 321.086462 
L 672.268175 320.67591 
L 672.548476 320.265358 
L 672.826303 319.854805 
L 673.101504 319.444253 
L 673.37395 319.033701 
L 673.64355 318.623148 
L 673.910257 318.212596 
L 674.174074 317.802044 
L 674.435059 317.391491 
L 674.693328 316.980939 
L 674.949052 316.570386 
L 675.202454 316.159834 
L 675.453808 315.749282 
L 675.703429 315.338729 
L 675.951663 314.928177 
L 676.198884 314.517625 
L 676.445477 314.107072 
L 676.69183 313.69652 
L 676.938324 313.285968 
L 677.185319 312.875415 
L 677.433145 312.464863 
L 695.922855 312.464863 
L 695.922855 312.464863 
L 696.170681 312.875415 
L 696.417676 313.285968 
L 696.66417 313.69652 
L 696.910523 314.107072 
L 697.157116 314.517625 
L 697.404337 314.928177 
L 697.652571 315.338729 
L 697.902192 315.749282 
L 698.153546 316.159834 
L 698.406948 316.570386 
L 698.662672 316.980939 
L 698.920941 317.391491 
L 699.181926 317.802044 
L 699.445743 318.212596 
L 699.71245 318.623148 
L 699.98205 319.033701 
L 700.254496 319.444253 
L 700.529697 319.854805 
L 700.807524 320.265358 
L 701.087825 320.67591 
L 701.370435 321.086462 
L 701.65519 321.497015 
L 701.941943 321.907567 
L 702.230582 322.318119 
L 702.521044 322.728672 
L 702.813332 323.139224 
L 703.107529 323.549776 
L 703.403817 323.960329 
L 703.702486 324.370881 
L 704.003943 324.781433 
L 704.308726 325.191986 
L 704.617502 325.602538 
L 704.931072 326.01309 
L 705.250368 326.423643 
L 705.576444 326.834195 
L 705.910471 327.244748 
L 706.253716 327.6553 
L 706.60753 328.065852 
L 706.973319 328.476405 
L 707.352524 328.886957 
L 707.74659 329.297509 
L 708.156935 329.708062 
L 708.584916 330.118614 
L 709.031794 330.529166 
L 709.498699 330.939719 
L 709.986597 331.350271 
L 710.496249 331.760823 
L 711.028185 332.171376 
L 711.582667 332.581928 
L 712.159663 332.99248 
L 712.758825 333.403033 
L 713.379463 333.813585 
L 714.020535 334.224137 
L 714.680631 334.63469 
L 715.357976 335.045242 
L 716.05042 335.455794 
L 716.755457 335.866347 
L 717.470226 336.276899 
L 718.191537 336.687452 
L 718.915893 337.098004 
L 719.63952 337.508556 
L 720.358398 337.919109 
L 721.068303 338.329661 
L 721.764847 338.740213 
L 722.443527 339.150766 
L 723.099765 339.561318 
L 723.728966 339.97187 
L 724.326562 340.382423 
L 724.888062 340.792975 
L 725.409107 341.203527 
L 725.88551 341.61408 
L 726.313308 342.024632 
L 726.688801 342.435184 
L 727.008592 342.845737 
L 727.269625 343.256289 
L 727.469212 343.666841 
L 727.605063 344.077394 
L 727.675305 344.487946 
L 727.6785 344.898498 
L 727.613654 345.309051 
L 727.480225 345.719603 
L 727.278123 346.130156 
L 727.007705 346.540708 
L 726.669768 346.95126 
L 726.265533 347.361813 
L 725.796629 347.772365 
L 725.265074 348.182917 
L 724.673243 348.59347 
L 724.023852 349.004022 
L 723.319917 349.414574 
L 722.56473 349.825127 
L 721.761823 350.235679 
L 720.914931 350.646231 
L 720.027964 351.056784 
L 719.104964 351.467336 
L 718.150077 351.877888 
L 717.167514 352.288441 
L 716.161519 352.698993 
L 715.136337 353.109545 
z
" style="fill:#1f77b4;fill-opacity:0.3;"/>
   </g>
   <g id="matplotlib.axis_1">
    <g id="xtick_1">
     <g id="line2d_1">
      <defs>
       <path d="M 0 0 
L 0 3.5 
" id="m2d0c111ef3" style="stroke:#000000;stroke-width:0.8;"/>
      </defs>
      <g>
       <use style="stroke:#000000;stroke-width:0.8;" x="194.672" xlink:href="#m2d0c111ef3" y="369.29"/>
      </g>
     </g>
     <g id="text_1">
      <!-- Grudger -->
      <defs>
       <path d="M 59.515625 10.40625 
L 59.515625 29.984375 
L 43.40625 29.984375 
L 43.40625 38.09375 
L 69.28125 38.09375 
L 69.28125 6.78125 
Q 63.578125 2.734375 56.6875 0.65625 
Q 49.8125 -1.421875 42 -1.421875 
Q 24.90625 -1.421875 15.25 8.5625 
Q 5.609375 18.5625 5.609375 36.375 
Q 5.609375 54.25 15.25 64.234375 
Q 24.90625 74.21875 42 74.21875 
Q 49.125 74.21875 55.546875 72.453125 
Q 61.96875 70.703125 67.390625 67.28125 
L 67.390625 56.78125 
Q 61.921875 61.421875 55.765625 63.765625 
Q 49.609375 66.109375 42.828125 66.109375 
Q 29.4375 66.109375 22.71875 58.640625 
Q 16.015625 51.171875 16.015625 36.375 
Q 16.015625 21.625 22.71875 14.15625 
Q 29.4375 6.6875 42.828125 6.6875 
Q 48.046875 6.6875 52.140625 7.59375 
Q 56.25 8.5 59.515625 10.40625 
" id="DejaVuSans-47"/>
       <path d="M 41.109375 46.296875 
Q 39.59375 47.171875 37.8125 47.578125 
Q 36.03125 48 33.890625 48 
Q 26.265625 48 22.1875 43.046875 
Q 18.109375 38.09375 18.109375 28.8125 
L 18.109375 0 
L 9.078125 0 
L 9.078125 54.6875 
L 18.109375 54.6875 
L 18.109375 46.1875 
Q 20.953125 51.171875 25.484375 53.578125 
Q 30.03125 56 36.53125 56 
Q 37.453125 56 38.578125 55.875 
Q 39.703125 55.765625 41.0625 55.515625 
z
" id="DejaVuSans-72"/>
       <path d="M 8.5 21.578125 
L 8.5 54.6875 
L 17.484375 54.6875 
L 17.484375 21.921875 
Q 17.484375 14.15625 20.5 10.265625 
Q 23.53125 6.390625 29.59375 6.390625 
Q 36.859375 6.390625 41.078125 11.03125 
Q 45.3125 15.671875 45.3125 23.6875 
L 45.3125 54.6875 
L 54.296875 54.6875 
L 54.296875 0 
L 45.3125 0 
L 45.3125 8.40625 
Q 42.046875 3.421875 37.71875 1 
Q 33.40625 -1.421875 27.6875 -1.421875 
Q 18.265625 -1.421875 13.375 4.4375 
Q 8.5 10.296875 8.5 21.578125 
M 31.109375 56 
z
" id="DejaVuSans-75"/>
       <path d="M 45.40625 46.390625 
L 45.40625 75.984375 
L 54.390625 75.984375 
L 54.390625 0 
L 45.40625 0 
L 45.40625 8.203125 
Q 42.578125 3.328125 38.25 0.953125 
Q 33.9375 -1.421875 27.875 -1.421875 
Q 17.96875 -1.421875 11.734375 6.484375 
Q 5.515625 14.40625 5.515625 27.296875 
Q 5.515625 40.1875 11.734375 48.09375 
Q 17.96875 56 27.875 56 
Q 33.9375 56 38.25 53.625 
Q 42.578125 51.265625 45.40625 46.390625 
M 14.796875 27.296875 
Q 14.796875 17.390625 18.875 11.75 
Q 22.953125 6.109375 30.078125 6.109375 
Q 37.203125 6.109375 41.296875 11.75 
Q 45.40625 17.390625 45.40625 27.296875 
Q 45.40625 37.203125 41.296875 42.84375 
Q 37.203125 48.484375 30.078125 48.484375 
Q 22.953125 48.484375 18.875 42.84375 
Q 14.796875 37.203125 14.796875 27.296875 
" id="DejaVuSans-64"/>
       <path d="M 45.40625 27.984375 
Q 45.40625 37.75 41.375 43.109375 
Q 37.359375 48.484375 30.078125 48.484375 
Q 22.859375 48.484375 18.828125 43.109375 
Q 14.796875 37.75 14.796875 27.984375 
Q 14.796875 18.265625 18.828125 12.890625 
Q 22.859375 7.515625 30.078125 7.515625 
Q 37.359375 7.515625 41.375 12.890625 
Q 45.40625 18.265625 45.40625 27.984375 
M 54.390625 6.78125 
Q 54.390625 -7.171875 48.1875 -13.984375 
Q 42 -20.796875 29.203125 -20.796875 
Q 24.46875 -20.796875 20.265625 -20.09375 
Q 16.0625 -19.390625 12.109375 -17.921875 
L 12.109375 -9.1875 
Q 16.0625 -11.328125 19.921875 -12.34375 
Q 23.78125 -13.375 27.78125 -13.375 
Q 36.625 -13.375 41.015625 -8.765625 
Q 45.40625 -4.15625 45.40625 5.171875 
L 45.40625 9.625 
Q 42.625 4.78125 38.28125 2.390625 
Q 33.9375 0 27.875 0 
Q 17.828125 0 11.671875 7.65625 
Q 5.515625 15.328125 5.515625 27.984375 
Q 5.515625 40.671875 11.671875 48.328125 
Q 17.828125 56 27.875 56 
Q 33.9375 56 38.28125 53.609375 
Q 42.625 51.21875 45.40625 46.390625 
L 45.40625 54.6875 
L 54.390625 54.6875 
z
" id="DejaVuSans-67"/>
       <path d="M 56.203125 29.59375 
L 56.203125 25.203125 
L 14.890625 25.203125 
Q 15.484375 15.921875 20.484375 11.0625 
Q 25.484375 6.203125 34.421875 6.203125 
Q 39.59375 6.203125 44.453125 7.46875 
Q 49.3125 8.734375 54.109375 11.28125 
L 54.109375 2.78125 
Q 49.265625 0.734375 44.1875 -0.34375 
Q 39.109375 -1.421875 33.890625 -1.421875 
Q 20.796875 -1.421875 13.15625 6.1875 
Q 5.515625 13.8125 5.515625 26.8125 
Q 5.515625 40.234375 12.765625 48.109375 
Q 20.015625 56 32.328125 56 
Q 43.359375 56 49.78125 48.890625 
Q 56.203125 41.796875 56.203125 29.59375 
M 47.21875 32.234375 
Q 47.125 39.59375 43.09375 43.984375 
Q 39.0625 48.390625 32.421875 48.390625 
Q 24.90625 48.390625 20.390625 44.140625 
Q 15.875 39.890625 15.1875 32.171875 
z
" id="DejaVuSans-65"/>
      </defs>
      <g transform="translate(196.8795 409.21625)rotate(-90)scale(0.08 -0.08)">
       <use xlink:href="#DejaVuSans-47"/>
       <use x="77.490234" xlink:href="#DejaVuSans-72"/>
       <use x="118.603516" xlink:href="#DejaVuSans-75"/>
       <use x="181.982422" xlink:href="#DejaVuSans-64"/>
       <use x="245.458984" xlink:href="#DejaVuSans-67"/>
       <use x="308.935547" xlink:href="#DejaVuSans-65"/>
       <use x="370.458984" xlink:href="#DejaVuSans-72"/>
      </g>
     </g>
    </g>
    <g id="xtick_2">
     <g id="line2d_2">
      <g>
       <use style="stroke:#000000;stroke-width:0.8;" x="358.674" xlink:href="#m2d0c111ef3" y="369.29"/>
      </g>
     </g>
     <g id="text_2">
      <!-- Defector -->
      <defs>
       <path d="M 19.671875 64.796875 
L 19.671875 8.109375 
L 31.59375 8.109375 
Q 46.6875 8.109375 53.6875 14.9375 
Q 60.6875 21.78125 60.6875 36.53125 
Q 60.6875 51.171875 53.6875 57.984375 
Q 46.6875 64.796875 31.59375 64.796875 
z
M 9.8125 72.90625 
L 30.078125 72.90625 
Q 51.265625 72.90625 61.171875 64.09375 
Q 71.09375 55.28125 71.09375 36.53125 
Q 71.09375 17.671875 61.125 8.828125 
Q 51.171875 0 30.078125 0 
L 9.8125 0 
z
" id="DejaVuSans-44"/>
       <path d="M 37.109375 75.984375 
L 37.109375 68.5 
L 28.515625 68.5 
Q 23.6875 68.5 21.796875 66.546875 
Q 19.921875 64.59375 19.921875 59.515625 
L 19.921875 54.6875 
L 34.71875 54.6875 
L 34.71875 47.703125 
L 19.921875 47.703125 
L 19.921875 0 
L 10.890625 0 
L 10.890625 47.703125 
L 2.296875 47.703125 
L 2.296875 54.6875 
L 10.890625 54.6875 
L 10.890625 58.5 
Q 10.890625 67.625 15.140625 71.796875 
Q 19.390625 75.984375 28.609375 75.984375 
z
" id="DejaVuSans-66"/>
       <path d="M 48.78125 52.59375 
L 48.78125 44.1875 
Q 44.96875 46.296875 41.140625 47.34375 
Q 37.3125 48.390625 33.40625 48.390625 
Q 24.65625 48.390625 19.8125 42.84375 
Q 14.984375 37.3125 14.984375 27.296875 
Q 14.984375 17.28125 19.8125 11.734375 
Q 24.65625 6.203125 33.40625 6.203125 
Q 37.3125 6.203125 41.140625 7.25 
Q 44.96875 8.296875 48.78125 10.40625 
L 48.78125 2.09375 
Q 45.015625 0.34375 40.984375 -0.53125 
Q 36.96875 -1.421875 32.421875 -1.421875 
Q 20.0625 -1.421875 12.78125 6.34375 
Q 5.515625 14.109375 5.515625 27.296875 
Q 5.515625 40.671875 12.859375 48.328125 
Q 20.21875 56 33.015625 56 
Q 37.15625 56 41.109375 55.140625 
Q 45.0625 54.296875 48.78125 52.59375 
" id="DejaVuSans-63"/>
       <path d="M 18.3125 70.21875 
L 18.3125 54.6875 
L 36.8125 54.6875 
L 36.8125 47.703125 
L 18.3125 47.703125 
L 18.3125 18.015625 
Q 18.3125 11.328125 20.140625 9.421875 
Q 21.96875 7.515625 27.59375 7.515625 
L 36.8125 7.515625 
L 36.8125 0 
L 27.59375 0 
Q 17.1875 0 13.234375 3.875 
Q 9.28125 7.765625 9.28125 18.015625 
L 9.28125 47.703125 
L 2.6875 47.703125 
L 2.6875 54.6875 
L 9.28125 54.6875 
L 9.28125 70.21875 
z
" id="DejaVuSans-74"/>
       <path d="M 30.609375 48.390625 
Q 23.390625 48.390625 19.1875 42.75 
Q 14.984375 37.109375 14.984375 27.296875 
Q 14.984375 17.484375 19.15625 11.84375 
Q 23.34375 6.203125 30.609375 6.203125 
Q 37.796875 6.203125 41.984375 11.859375 
Q 46.1875 17.53125 46.1875 27.296875 
Q 46.1875 37.015625 41.984375 42.703125 
Q 37.796875 48.390625 30.609375 48.390625 
M 30.609375 56 
Q 42.328125 56 49.015625 48.375 
Q 55.71875 40.765625 55.71875 27.296875 
Q 55.71875 13.875 49.015625 6.21875 
Q 42.328125 -1.421875 30.609375 -1.421875 
Q 18.84375 -1.421875 12.171875 6.21875 
Q 5.515625 13.875 5.515625 27.296875 
Q 5.515625 40.765625 12.171875 48.375 
Q 18.84375 56 30.609375 56 
" id="DejaVuSans-6f"/>
      </defs>
      <g transform="translate(360.8815 410.83)rotate(-90)scale(0.08 -0.08)">
       <use xlink:href="#DejaVuSans-44"/>
       <use x="77.001953" xlink:href="#DejaVuSans-65"/>
       <use x="138.525391" xlink:href="#DejaVuSans-66"/>
       <use x="173.730469" xlink:href="#DejaVuSans-65"/>
       <use x="235.253906" xlink:href="#DejaVuSans-63"/>
       <use x="290.234375" xlink:href="#DejaVuSans-74"/>
       <use x="329.443359" xlink:href="#DejaVuSans-6f"/>
       <use x="390.625" xlink:href="#DejaVuSans-72"/>
      </g>
     </g>
    </g>
    <g id="xtick_3">
     <g id="line2d_3">
      <g>
       <use style="stroke:#000000;stroke-width:0.8;" x="522.676" xlink:href="#m2d0c111ef3" y="369.29"/>
      </g>
     </g>
     <g id="text_3">
      <!-- Tit For Tat -->
      <defs>
       <path d="M -0.296875 72.90625 
L 61.375 72.90625 
L 61.375 64.59375 
L 35.5 64.59375 
L 35.5 0 
L 25.59375 0 
L 25.59375 64.59375 
L -0.296875 64.59375 
z
" id="DejaVuSans-54"/>
       <path d="M 9.421875 54.6875 
L 18.40625 54.6875 
L 18.40625 0 
L 9.421875 0 
z
M 9.421875 75.984375 
L 18.40625 75.984375 
L 18.40625 64.59375 
L 9.421875 64.59375 
z
" id="DejaVuSans-69"/>
       <path id="DejaVuSans-20"/>
       <path d="M 9.8125 72.90625 
L 51.703125 72.90625 
L 51.703125 64.59375 
L 19.671875 64.59375 
L 19.671875 43.109375 
L 48.578125 43.109375 
L 48.578125 34.8125 
L 19.671875 34.8125 
L 19.671875 0 
L 9.8125 0 
z
" id="DejaVuSans-46"/>
       <path d="M 34.28125 27.484375 
Q 23.390625 27.484375 19.1875 25 
Q 14.984375 22.515625 14.984375 16.5 
Q 14.984375 11.71875 18.140625 8.90625 
Q 21.296875 6.109375 26.703125 6.109375 
Q 34.1875 6.109375 38.703125 11.40625 
Q 43.21875 16.703125 43.21875 25.484375 
L 43.21875 27.484375 
z
M 52.203125 31.203125 
L 52.203125 0 
L 43.21875 0 
L 43.21875 8.296875 
Q 40.140625 3.328125 35.546875 0.953125 
Q 30.953125 -1.421875 24.3125 -1.421875 
Q 15.921875 -1.421875 10.953125 3.296875 
Q 6 8.015625 6 15.921875 
Q 6 25.140625 12.171875 29.828125 
Q 18.359375 34.515625 30.609375 34.515625 
L 43.21875 34.515625 
L 43.21875 35.40625 
Q 43.21875 41.609375 39.140625 45 
Q 35.0625 48.390625 27.6875 48.390625 
Q 23 48.390625 18.546875 47.265625 
Q 14.109375 46.140625 10.015625 43.890625 
L 10.015625 52.203125 
Q 14.9375 54.109375 19.578125 55.046875 
Q 24.21875 56 28.609375 56 
Q 40.484375 56 46.34375 49.84375 
Q 52.203125 43.703125 52.203125 31.203125 
" id="DejaVuSans-61"/>
      </defs>
      <g transform="translate(524.8835 417.3025)rotate(-90)scale(0.08 -0.08)">
       <use xlink:href="#DejaVuSans-54"/>
       <use x="61.037109" xlink:href="#DejaVuSans-69"/>
       <use x="88.820312" xlink:href="#DejaVuSans-74"/>
       <use x="128.029297" xlink:href="#DejaVuSans-20"/>
       <use x="159.816406" xlink:href="#DejaVuSans-46"/>
       <use x="217.289062" xlink:href="#DejaVuSans-6f"/>
       <use x="278.470703" xlink:href="#DejaVuSans-72"/>
       <use x="319.583984" xlink:href="#DejaVuSans-20"/>
       <use x="351.371094" xlink:href="#DejaVuSans-54"/>
       <use x="412.205078" xlink:href="#DejaVuSans-61"/>
       <use x="473.484375" xlink:href="#DejaVuSans-74"/>
      </g>
     </g>
    </g>
    <g id="xtick_4">
     <g id="line2d_4">
      <g>
       <use style="stroke:#000000;stroke-width:0.8;" x="686.678" xlink:href="#m2d0c111ef3" y="369.29"/>
      </g>
     </g>
     <g id="text_4">
      <!-- Cooperator -->
      <defs>
       <path d="M 64.40625 67.28125 
L 64.40625 56.890625 
Q 59.421875 61.53125 53.78125 63.8125 
Q 48.140625 66.109375 41.796875 66.109375 
Q 29.296875 66.109375 22.65625 58.46875 
Q 16.015625 50.828125 16.015625 36.375 
Q 16.015625 21.96875 22.65625 14.328125 
Q 29.296875 6.6875 41.796875 6.6875 
Q 48.140625 6.6875 53.78125 8.984375 
Q 59.421875 11.28125 64.40625 15.921875 
L 64.40625 5.609375 
Q 59.234375 2.09375 53.4375 0.328125 
Q 47.65625 -1.421875 41.21875 -1.421875 
Q 24.65625 -1.421875 15.125 8.703125 
Q 5.609375 18.84375 5.609375 36.375 
Q 5.609375 53.953125 15.125 64.078125 
Q 24.65625 74.21875 41.21875 74.21875 
Q 47.75 74.21875 53.53125 72.484375 
Q 59.328125 70.75 64.40625 67.28125 
" id="DejaVuSans-43"/>
       <path d="M 18.109375 8.203125 
L 18.109375 -20.796875 
L 9.078125 -20.796875 
L 9.078125 54.6875 
L 18.109375 54.6875 
L 18.109375 46.390625 
Q 20.953125 51.265625 25.265625 53.625 
Q 29.59375 56 35.59375 56 
Q 45.5625 56 51.78125 48.09375 
Q 58.015625 40.1875 58.015625 27.296875 
Q 58.015625 14.40625 51.78125 6.484375 
Q 45.5625 -1.421875 35.59375 -1.421875 
Q 29.59375 -1.421875 25.265625 0.953125 
Q 20.953125 3.328125 18.109375 8.203125 
M 48.6875 27.296875 
Q 48.6875 37.203125 44.609375 42.84375 
Q 40.53125 48.484375 33.40625 48.484375 
Q 26.265625 48.484375 22.1875 42.84375 
Q 18.109375 37.203125 18.109375 27.296875 
Q 18.109375 17.390625 22.1875 11.75 
Q 26.265625 6.109375 33.40625 6.109375 
Q 40.53125 6.109375 44.609375 11.75 
Q 48.6875 17.390625 48.6875 27.296875 
" id="DejaVuSans-70"/>
      </defs>
      <g transform="translate(688.8855 421.17875)rotate(-90)scale(0.08 -0.08)">
       <use xlink:href="#DejaVuSans-43"/>
       <use x="69.824219" xlink:href="#DejaVuSans-6f"/>
       <use x="131.005859" xlink:href="#DejaVuSans-6f"/>
       <use x="192.1875" xlink:href="#DejaVuSans-70"/>
       <use x="255.664062" xlink:href="#DejaVuSans-65"/>
       <use x="317.1875" xlink:href="#DejaVuSans-72"/>
       <use x="358.300781" xlink:href="#DejaVuSans-61"/>
       <use x="419.580078" xlink:href="#DejaVuSans-74"/>
       <use x="458.789062" xlink:href="#DejaVuSans-6f"/>
       <use x="519.970703" xlink:href="#DejaVuSans-72"/>
      </g>
     </g>
    </g>
   </g>
   <g id="matplotlib.axis_2">
    <g id="ytick_1">
     <g id="line2d_5">
      <defs>
       <path d="M 0 0 
L -3.5 0 
" id="meed8885fab" style="stroke:#000000;stroke-width:0.8;"/>
      </defs>
      <g>
       <use style="stroke:#000000;stroke-width:0.8;" x="30.67" xlink:href="#meed8885fab" y="339.94841"/>
      </g>
     </g>
     <g id="text_5">
      <!-- 1.2 -->
      <defs>
       <path d="M 12.40625 8.296875 
L 28.515625 8.296875 
L 28.515625 63.921875 
L 10.984375 60.40625 
L 10.984375 69.390625 
L 28.421875 72.90625 
L 38.28125 72.90625 
L 38.28125 8.296875 
L 54.390625 8.296875 
L 54.390625 0 
L 12.40625 0 
z
" id="DejaVuSans-31"/>
       <path d="M 10.6875 12.40625 
L 21 12.40625 
L 21 0 
L 10.6875 0 
z
" id="DejaVuSans-2e"/>
       <path d="M 19.1875 8.296875 
L 53.609375 8.296875 
L 53.609375 0 
L 7.328125 0 
L 7.328125 8.296875 
Q 12.9375 14.109375 22.625 23.890625 
Q 32.328125 33.6875 34.8125 36.53125 
Q 39.546875 41.84375 41.421875 45.53125 
Q 43.3125 49.21875 43.3125 52.78125 
Q 43.3125 58.59375 39.234375 62.25 
Q 35.15625 65.921875 28.609375 65.921875 
Q 23.96875 65.921875 18.8125 64.3125 
Q 13.671875 62.703125 7.8125 59.421875 
L 7.8125 69.390625 
Q 13.765625 71.78125 18.9375 73 
Q 24.125 74.21875 28.421875 74.21875 
Q 39.75 74.21875 46.484375 68.546875 
Q 53.21875 62.890625 53.21875 53.421875 
Q 53.21875 48.921875 51.53125 44.890625 
Q 49.859375 40.875 45.40625 35.40625 
Q 44.1875 33.984375 37.640625 27.21875 
Q 31.109375 20.453125 19.1875 8.296875 
" id="DejaVuSans-32"/>
      </defs>
      <g transform="translate(10.9475 342.987785)scale(0.08 -0.08)">
       <use xlink:href="#DejaVuSans-31"/>
       <use x="63.623047" xlink:href="#DejaVuSans-2e"/>
       <use x="95.410156" xlink:href="#DejaVuSans-32"/>
      </g>
     </g>
    </g>
    <g id="ytick_2">
     <g id="line2d_6">
      <g>
       <use style="stroke:#000000;stroke-width:0.8;" x="30.67" xlink:href="#meed8885fab" y="293.497344"/>
      </g>
     </g>
     <g id="text_6">
      <!-- 1.4 -->
      <defs>
       <path d="M 37.796875 64.3125 
L 12.890625 25.390625 
L 37.796875 25.390625 
z
M 35.203125 72.90625 
L 47.609375 72.90625 
L 47.609375 25.390625 
L 58.015625 25.390625 
L 58.015625 17.1875 
L 47.609375 17.1875 
L 47.609375 0 
L 37.796875 0 
L 37.796875 17.1875 
L 4.890625 17.1875 
L 4.890625 26.703125 
z
" id="DejaVuSans-34"/>
      </defs>
      <g transform="translate(10.9475 296.536719)scale(0.08 -0.08)">
       <use xlink:href="#DejaVuSans-31"/>
       <use x="63.623047" xlink:href="#DejaVuSans-2e"/>
       <use x="95.410156" xlink:href="#DejaVuSans-34"/>
      </g>
     </g>
    </g>
    <g id="ytick_3">
     <g id="line2d_7">
      <g>
       <use style="stroke:#000000;stroke-width:0.8;" x="30.67" xlink:href="#meed8885fab" y="247.046279"/>
      </g>
     </g>
     <g id="text_7">
      <!-- 1.6 -->
      <defs>
       <path d="M 33.015625 40.375 
Q 26.375 40.375 22.484375 35.828125 
Q 18.609375 31.296875 18.609375 23.390625 
Q 18.609375 15.53125 22.484375 10.953125 
Q 26.375 6.390625 33.015625 6.390625 
Q 39.65625 6.390625 43.53125 10.953125 
Q 47.40625 15.53125 47.40625 23.390625 
Q 47.40625 31.296875 43.53125 35.828125 
Q 39.65625 40.375 33.015625 40.375 
M 52.59375 71.296875 
L 52.59375 62.3125 
Q 48.875 64.0625 45.09375 64.984375 
Q 41.3125 65.921875 37.59375 65.921875 
Q 27.828125 65.921875 22.671875 59.328125 
Q 17.53125 52.734375 16.796875 39.40625 
Q 19.671875 43.65625 24.015625 45.921875 
Q 28.375 48.1875 33.59375 48.1875 
Q 44.578125 48.1875 50.953125 41.515625 
Q 57.328125 34.859375 57.328125 23.390625 
Q 57.328125 12.15625 50.6875 5.359375 
Q 44.046875 -1.421875 33.015625 -1.421875 
Q 20.359375 -1.421875 13.671875 8.265625 
Q 6.984375 17.96875 6.984375 36.375 
Q 6.984375 53.65625 15.1875 63.9375 
Q 23.390625 74.21875 37.203125 74.21875 
Q 40.921875 74.21875 44.703125 73.484375 
Q 48.484375 72.75 52.59375 71.296875 
" id="DejaVuSans-36"/>
      </defs>
      <g transform="translate(10.9475 250.085654)scale(0.08 -0.08)">
       <use xlink:href="#DejaVuSans-31"/>
       <use x="63.623047" xlink:href="#DejaVuSans-2e"/>
       <use x="95.410156" xlink:href="#DejaVuSans-36"/>
      </g>
     </g>
    </g>
    <g id="ytick_4">
     <g id="line2d_8">
      <g>
       <use style="stroke:#000000;stroke-width:0.8;" x="30.67" xlink:href="#meed8885fab" y="200.595213"/>
      </g>
     </g>
     <g id="text_8">
      <!-- 1.8 -->
      <defs>
       <path d="M 31.78125 34.625 
Q 24.75 34.625 20.71875 30.859375 
Q 16.703125 27.09375 16.703125 20.515625 
Q 16.703125 13.921875 20.71875 10.15625 
Q 24.75 6.390625 31.78125 6.390625 
Q 38.8125 6.390625 42.859375 10.171875 
Q 46.921875 13.96875 46.921875 20.515625 
Q 46.921875 27.09375 42.890625 30.859375 
Q 38.875 34.625 31.78125 34.625 
M 21.921875 38.8125 
Q 15.578125 40.375 12.03125 44.71875 
Q 8.5 49.078125 8.5 55.328125 
Q 8.5 64.0625 14.71875 69.140625 
Q 20.953125 74.21875 31.78125 74.21875 
Q 42.671875 74.21875 48.875 69.140625 
Q 55.078125 64.0625 55.078125 55.328125 
Q 55.078125 49.078125 51.53125 44.71875 
Q 48 40.375 41.703125 38.8125 
Q 48.828125 37.15625 52.796875 32.3125 
Q 56.78125 27.484375 56.78125 20.515625 
Q 56.78125 9.90625 50.3125 4.234375 
Q 43.84375 -1.421875 31.78125 -1.421875 
Q 19.734375 -1.421875 13.25 4.234375 
Q 6.78125 9.90625 6.78125 20.515625 
Q 6.78125 27.484375 10.78125 32.3125 
Q 14.796875 37.15625 21.921875 38.8125 
M 18.3125 54.390625 
Q 18.3125 48.734375 21.84375 45.5625 
Q 25.390625 42.390625 31.78125 42.390625 
Q 38.140625 42.390625 41.71875 45.5625 
Q 45.3125 48.734375 45.3125 54.390625 
Q 45.3125 60.0625 41.71875 63.234375 
Q 38.140625 66.40625 31.78125 66.40625 
Q 25.390625 66.40625 21.84375 63.234375 
Q 18.3125 60.0625 18.3125 54.390625 
" id="DejaVuSans-38"/>
      </defs>
      <g transform="translate(10.9475 203.634588)scale(0.08 -0.08)">
       <use xlink:href="#DejaVuSans-31"/>
       <use x="63.623047" xlink:href="#DejaVuSans-2e"/>
       <use x="95.410156" xlink:href="#DejaVuSans-38"/>
      </g>
     </g>
    </g>
    <g id="ytick_5">
     <g id="line2d_9">
      <g>
       <use style="stroke:#000000;stroke-width:0.8;" x="30.67" xlink:href="#meed8885fab" y="154.144147"/>
      </g>
     </g>
     <g id="text_9">
      <!-- 2.0 -->
      <defs>
       <path d="M 31.78125 66.40625 
Q 24.171875 66.40625 20.328125 58.90625 
Q 16.5 51.421875 16.5 36.375 
Q 16.5 21.390625 20.328125 13.890625 
Q 24.171875 6.390625 31.78125 6.390625 
Q 39.453125 6.390625 43.28125 13.890625 
Q 47.125 21.390625 47.125 36.375 
Q 47.125 51.421875 43.28125 58.90625 
Q 39.453125 66.40625 31.78125 66.40625 
M 31.78125 74.21875 
Q 44.046875 74.21875 50.515625 64.515625 
Q 56.984375 54.828125 56.984375 36.375 
Q 56.984375 17.96875 50.515625 8.265625 
Q 44.046875 -1.421875 31.78125 -1.421875 
Q 19.53125 -1.421875 13.0625 8.265625 
Q 6.59375 17.96875 6.59375 36.375 
Q 6.59375 54.828125 13.0625 64.515625 
Q 19.53125 74.21875 31.78125 74.21875 
" id="DejaVuSans-30"/>
      </defs>
      <g transform="translate(10.9475 157.183522)scale(0.08 -0.08)">
       <use xlink:href="#DejaVuSans-32"/>
       <use x="63.623047" xlink:href="#DejaVuSans-2e"/>
       <use x="95.410156" xlink:href="#DejaVuSans-30"/>
      </g>
     </g>
    </g>
    <g id="ytick_6">
     <g id="line2d_10">
      <g>
       <use style="stroke:#000000;stroke-width:0.8;" x="30.67" xlink:href="#meed8885fab" y="107.693082"/>
      </g>
     </g>
     <g id="text_10">
      <!-- 2.2 -->
      <g transform="translate(10.9475 110.732457)scale(0.08 -0.08)">
       <use xlink:href="#DejaVuSans-32"/>
       <use x="63.623047" xlink:href="#DejaVuSans-2e"/>
       <use x="95.410156" xlink:href="#DejaVuSans-32"/>
      </g>
     </g>
    </g>
    <g id="ytick_7">
     <g id="line2d_11">
      <g>
       <use style="stroke:#000000;stroke-width:0.8;" x="30.67" xlink:href="#meed8885fab" y="61.242016"/>
      </g>
     </g>
     <g id="text_11">
      <!-- 2.4 -->
      <g transform="translate(10.9475 64.281391)scale(0.08 -0.08)">
       <use xlink:href="#DejaVuSans-32"/>
       <use x="63.623047" xlink:href="#DejaVuSans-2e"/>
       <use x="95.410156" xlink:href="#DejaVuSans-34"/>
      </g>
     </g>
    </g>
    <g id="ytick_8">
     <g id="line2d_12">
      <g>
       <use style="stroke:#000000;stroke-width:0.8;" x="30.67" xlink:href="#meed8885fab" y="14.79095"/>
      </g>
     </g>
     <g id="text_12">
      <!-- 2.6 -->
      <g transform="translate(10.9475 17.830325)scale(0.08 -0.08)">
       <use xlink:href="#DejaVuSans-32"/>
       <use x="63.623047" xlink:href="#DejaVuSans-2e"/>
       <use x="95.410156" xlink:href="#DejaVuSans-36"/>
      </g>
     </g>
    </g>
   </g>
   <g id="LineCollection_1">
    <path clip-path="url(#p1759e04d03)" d="M 174.17175 53.500172 
L 215.17225 53.500172 
" style="fill:none;stroke:#1f77b4;stroke-width:1.5;"/>
    <path clip-path="url(#p1759e04d03)" d="M 338.17375 53.887264 
L 379.17425 53.887264 
" style="fill:none;stroke:#1f77b4;stroke-width:1.5;"/>
    <path clip-path="url(#p1759e04d03)" d="M 502.17575 196.337199 
L 543.17625 196.337199 
" style="fill:none;stroke:#1f77b4;stroke-width:1.5;"/>
    <path clip-path="url(#p1759e04d03)" d="M 666.17775 342.270963 
L 707.17825 342.270963 
" style="fill:none;stroke:#1f77b4;stroke-width:1.5;"/>
   </g>
   <g id="patch_3">
    <path d="M 30.67 369.29 
L 30.67 13.32 
" style="fill:none;stroke:#000000;stroke-linecap:square;stroke-linejoin:miter;stroke-width:0.8;"/>
   </g>
   <g id="patch_4">
    <path d="M 850.68 369.29 
L 850.68 13.32 
" style="fill:none;stroke:#000000;stroke-linecap:square;stroke-linejoin:miter;stroke-width:0.8;"/>
   </g>
   <g id="patch_5">
    <path d="M 30.67 369.29 
L 850.68 369.29 
" style="fill:none;stroke:#000000;stroke-linecap:square;stroke-linejoin:miter;stroke-width:0.8;"/>
   </g>
   <g id="patch_6">
    <path d="M 30.67 13.32 
L 850.68 13.32 
" style="fill:none;stroke:#000000;stroke-linecap:square;stroke-linejoin:miter;stroke-width:0.8;"/>
   </g>
  </g>
 </g>
 <defs>
  <clipPath id="p1759e04d03">
   <rect height="355.97" width="820.01" x="30.67" y="13.32"/>
  </clipPath>
 </defs>
</svg>
