<?xml version="1.0" encoding="utf-8" standalone="no"?>
<!DOCTYPE svg PUBLIC "-//W3C//DTD SVG 1.1//EN"
  "http://www.w3.org/Graphics/SVG/1.1/DTD/svg11.dtd">
<!-- Created with matplotlib (http://matplotlib.org/) -->
<svg height="432pt" version="1.1" viewBox="0 0 864 432" width="864pt" xmlns="http://www.w3.org/2000/svg" xmlns:xlink="http://www.w3.org/1999/xlink">
 <defs>
  <style type="text/css">
*{stroke-linecap:butt;stroke-linejoin:round;}
  </style>
 </defs>
 <g id="figure_1">
  <g id="patch_1">
   <path d="M 0 432 
L 864 432 
L 864 0 
L 0 0 
z
" style="fill:#ffffff;"/>
  </g>
  <g id="axes_1">
   <g id="patch_2">
    <path d="M 35.71 369.29 
L 850.68 369.29 
L 850.68 13.32 
L 35.71 13.32 
z
" style="fill:#ffffff;"/>
   </g>
   <g id="PolyCollection_1">
    <path clip-path="url(#p338ed1d5c8)" d="M 239.4525 29.500455 
L 157.9555 29.500455 
L 157.9555 29.500455 
L 157.9555 29.500455 
L 157.9555 29.500455 
L 157.9555 29.500455 
L 157.9555 29.500455 
L 157.9555 29.500455 
L 157.9555 29.500455 
L 157.9555 29.500455 
L 157.9555 29.500455 
L 157.9555 29.500455 
L 157.9555 29.500455 
L 157.9555 29.500455 
L 157.9555 29.500455 
L 157.9555 29.500455 
L 157.9555 29.500455 
L 157.9555 29.500455 
L 157.9555 29.500455 
L 157.9555 29.500455 
L 157.9555 29.500455 
L 157.9555 29.500455 
L 157.9555 29.500455 
L 157.9555 29.500455 
L 157.9555 29.500455 
L 157.9555 29.500455 
L 157.9555 29.500455 
L 157.9555 29.500455 
L 157.9555 29.500455 
L 157.9555 29.500455 
L 157.9555 29.500455 
L 157.9555 29.500455 
L 157.9555 29.500455 
L 157.9555 29.500455 
L 157.9555 29.500455 
L 157.9555 29.500455 
L 157.9555 29.500455 
L 157.9555 29.500455 
L 157.9555 29.500455 
L 157.9555 29.500455 
L 157.9555 29.500455 
L 157.9555 29.500455 
L 157.9555 29.500455 
L 157.9555 29.500455 
L 157.9555 29.500455 
L 157.9555 29.500455 
L 157.9555 29.500455 
L 157.9555 29.500455 
L 157.9555 29.500455 
L 157.9555 29.500455 
L 157.9555 29.500455 
L 157.9555 29.500455 
L 157.9555 29.500455 
L 157.9555 29.500455 
L 157.9555 29.500455 
L 157.9555 29.500455 
L 157.9555 29.500455 
L 157.9555 29.500455 
L 157.9555 29.500455 
L 157.9555 29.500455 
L 157.9555 29.500455 
L 157.9555 29.500455 
L 157.9555 29.500455 
L 157.9555 29.500455 
L 157.9555 29.500455 
L 157.9555 29.500455 
L 157.9555 29.500455 
L 157.9555 29.500455 
L 157.9555 29.500455 
L 157.9555 29.500455 
L 157.9555 29.500455 
L 157.9555 29.500455 
L 157.9555 29.500455 
L 157.9555 29.500455 
L 157.9555 29.500455 
L 157.9555 29.500455 
L 157.9555 29.500455 
L 157.9555 29.500455 
L 157.9555 29.500455 
L 157.9555 29.500455 
L 157.9555 29.500455 
L 157.9555 29.500455 
L 157.9555 29.500455 
L 157.9555 29.500455 
L 157.9555 29.500455 
L 157.9555 29.500455 
L 157.9555 29.500455 
L 157.9555 29.500455 
L 157.9555 29.500455 
L 157.9555 29.500455 
L 157.9555 29.500455 
L 157.9555 29.500455 
L 157.9555 29.500455 
L 157.9555 29.500455 
L 157.9555 29.500455 
L 157.9555 29.500455 
L 157.9555 29.500455 
L 157.9555 29.500455 
L 157.9555 29.500455 
L 157.9555 29.500455 
L 157.9555 29.500455 
L 239.4525 29.500455 
L 239.4525 29.500455 
L 239.4525 29.500455 
L 239.4525 29.500455 
L 239.4525 29.500455 
L 239.4525 29.500455 
L 239.4525 29.500455 
L 239.4525 29.500455 
L 239.4525 29.500455 
L 239.4525 29.500455 
L 239.4525 29.500455 
L 239.4525 29.500455 
L 239.4525 29.500455 
L 239.4525 29.500455 
L 239.4525 29.500455 
L 239.4525 29.500455 
L 239.4525 29.500455 
L 239.4525 29.500455 
L 239.4525 29.500455 
L 239.4525 29.500455 
L 239.4525 29.500455 
L 239.4525 29.500455 
L 239.4525 29.500455 
L 239.4525 29.500455 
L 239.4525 29.500455 
L 239.4525 29.500455 
L 239.4525 29.500455 
L 239.4525 29.500455 
L 239.4525 29.500455 
L 239.4525 29.500455 
L 239.4525 29.500455 
L 239.4525 29.500455 
L 239.4525 29.500455 
L 239.4525 29.500455 
L 239.4525 29.500455 
L 239.4525 29.500455 
L 239.4525 29.500455 
L 239.4525 29.500455 
L 239.4525 29.500455 
L 239.4525 29.500455 
L 239.4525 29.500455 
L 239.4525 29.500455 
L 239.4525 29.500455 
L 239.4525 29.500455 
L 239.4525 29.500455 
L 239.4525 29.500455 
L 239.4525 29.500455 
L 239.4525 29.500455 
L 239.4525 29.500455 
L 239.4525 29.500455 
L 239.4525 29.500455 
L 239.4525 29.500455 
L 239.4525 29.500455 
L 239.4525 29.500455 
L 239.4525 29.500455 
L 239.4525 29.500455 
L 239.4525 29.500455 
L 239.4525 29.500455 
L 239.4525 29.500455 
L 239.4525 29.500455 
L 239.4525 29.500455 
L 239.4525 29.500455 
L 239.4525 29.500455 
L 239.4525 29.500455 
L 239.4525 29.500455 
L 239.4525 29.500455 
L 239.4525 29.500455 
L 239.4525 29.500455 
L 239.4525 29.500455 
L 239.4525 29.500455 
L 239.4525 29.500455 
L 239.4525 29.500455 
L 239.4525 29.500455 
L 239.4525 29.500455 
L 239.4525 29.500455 
L 239.4525 29.500455 
L 239.4525 29.500455 
L 239.4525 29.500455 
L 239.4525 29.500455 
L 239.4525 29.500455 
L 239.4525 29.500455 
L 239.4525 29.500455 
L 239.4525 29.500455 
L 239.4525 29.500455 
L 239.4525 29.500455 
L 239.4525 29.500455 
L 239.4525 29.500455 
L 239.4525 29.500455 
L 239.4525 29.500455 
L 239.4525 29.500455 
L 239.4525 29.500455 
L 239.4525 29.500455 
L 239.4525 29.500455 
L 239.4525 29.500455 
L 239.4525 29.500455 
L 239.4525 29.500455 
L 239.4525 29.500455 
L 239.4525 29.500455 
L 239.4525 29.500455 
L 239.4525 29.500455 
L 239.4525 29.500455 
z
" style="fill:#1f77b4;fill-opacity:0.3;"/>
   </g>
   <g id="PolyCollection_2">
    <path clip-path="url(#p338ed1d5c8)" d="M 402.4465 43.502771 
L 320.9495 43.502771 
L 320.9495 43.502771 
L 320.9495 43.502771 
L 320.9495 43.502771 
L 320.9495 43.502771 
L 320.9495 43.502771 
L 320.9495 43.502771 
L 320.9495 43.502771 
L 320.9495 43.502771 
L 320.9495 43.502771 
L 320.9495 43.502771 
L 320.9495 43.502771 
L 320.9495 43.502771 
L 320.9495 43.502771 
L 320.9495 43.502771 
L 320.9495 43.502771 
L 320.9495 43.502771 
L 320.9495 43.502771 
L 320.9495 43.502771 
L 320.9495 43.502771 
L 320.9495 43.502771 
L 320.9495 43.502771 
L 320.9495 43.502771 
L 320.9495 43.502771 
L 320.9495 43.502771 
L 320.9495 43.502771 
L 320.9495 43.502771 
L 320.9495 43.502771 
L 320.9495 43.502771 
L 320.9495 43.502771 
L 320.9495 43.502771 
L 320.9495 43.502771 
L 320.9495 43.502771 
L 320.9495 43.502771 
L 320.9495 43.502771 
L 320.9495 43.502771 
L 320.9495 43.502771 
L 320.9495 43.502771 
L 320.9495 43.502771 
L 320.9495 43.502771 
L 320.9495 43.502771 
L 320.9495 43.502771 
L 320.9495 43.502771 
L 320.9495 43.502771 
L 320.9495 43.502771 
L 320.9495 43.502771 
L 320.9495 43.502771 
L 320.9495 43.502771 
L 320.9495 43.502771 
L 320.9495 43.502771 
L 320.9495 43.502771 
L 320.9495 43.502771 
L 320.9495 43.502771 
L 320.9495 43.502771 
L 320.9495 43.502771 
L 320.9495 43.502771 
L 320.9495 43.502771 
L 320.9495 43.502771 
L 320.9495 43.502771 
L 320.9495 43.502771 
L 320.9495 43.502771 
L 320.9495 43.502771 
L 320.9495 43.502771 
L 320.9495 43.502771 
L 320.9495 43.502771 
L 320.9495 43.502771 
L 320.9495 43.502771 
L 320.9495 43.502771 
L 320.9495 43.502771 
L 320.9495 43.502771 
L 320.9495 43.502771 
L 320.9495 43.502771 
L 320.9495 43.502771 
L 320.9495 43.502771 
L 320.9495 43.502771 
L 320.9495 43.502771 
L 320.9495 43.502771 
L 320.9495 43.502771 
L 320.9495 43.502771 
L 320.9495 43.502771 
L 320.9495 43.502771 
L 320.9495 43.502771 
L 320.9495 43.502771 
L 320.9495 43.502771 
L 320.9495 43.502771 
L 320.9495 43.502771 
L 320.9495 43.502771 
L 320.9495 43.502771 
L 320.9495 43.502771 
L 320.9495 43.502771 
L 320.9495 43.502771 
L 320.9495 43.502771 
L 320.9495 43.502771 
L 320.9495 43.502771 
L 320.9495 43.502771 
L 320.9495 43.502771 
L 320.9495 43.502771 
L 320.9495 43.502771 
L 320.9495 43.502771 
L 320.9495 43.502771 
L 402.4465 43.502771 
L 402.4465 43.502771 
L 402.4465 43.502771 
L 402.4465 43.502771 
L 402.4465 43.502771 
L 402.4465 43.502771 
L 402.4465 43.502771 
L 402.4465 43.502771 
L 402.4465 43.502771 
L 402.4465 43.502771 
L 402.4465 43.502771 
L 402.4465 43.502771 
L 402.4465 43.502771 
L 402.4465 43.502771 
L 402.4465 43.502771 
L 402.4465 43.502771 
L 402.4465 43.502771 
L 402.4465 43.502771 
L 402.4465 43.502771 
L 402.4465 43.502771 
L 402.4465 43.502771 
L 402.4465 43.502771 
L 402.4465 43.502771 
L 402.4465 43.502771 
L 402.4465 43.502771 
L 402.4465 43.502771 
L 402.4465 43.502771 
L 402.4465 43.502771 
L 402.4465 43.502771 
L 402.4465 43.502771 
L 402.4465 43.502771 
L 402.4465 43.502771 
L 402.4465 43.502771 
L 402.4465 43.502771 
L 402.4465 43.502771 
L 402.4465 43.502771 
L 402.4465 43.502771 
L 402.4465 43.502771 
L 402.4465 43.502771 
L 402.4465 43.502771 
L 402.4465 43.502771 
L 402.4465 43.502771 
L 402.4465 43.502771 
L 402.4465 43.502771 
L 402.4465 43.502771 
L 402.4465 43.502771 
L 402.4465 43.502771 
L 402.4465 43.502771 
L 402.4465 43.502771 
L 402.4465 43.502771 
L 402.4465 43.502771 
L 402.4465 43.502771 
L 402.4465 43.502771 
L 402.4465 43.502771 
L 402.4465 43.502771 
L 402.4465 43.502771 
L 402.4465 43.502771 
L 402.4465 43.502771 
L 402.4465 43.502771 
L 402.4465 43.502771 
L 402.4465 43.502771 
L 402.4465 43.502771 
L 402.4465 43.502771 
L 402.4465 43.502771 
L 402.4465 43.502771 
L 402.4465 43.502771 
L 402.4465 43.502771 
L 402.4465 43.502771 
L 402.4465 43.502771 
L 402.4465 43.502771 
L 402.4465 43.502771 
L 402.4465 43.502771 
L 402.4465 43.502771 
L 402.4465 43.502771 
L 402.4465 43.502771 
L 402.4465 43.502771 
L 402.4465 43.502771 
L 402.4465 43.502771 
L 402.4465 43.502771 
L 402.4465 43.502771 
L 402.4465 43.502771 
L 402.4465 43.502771 
L 402.4465 43.502771 
L 402.4465 43.502771 
L 402.4465 43.502771 
L 402.4465 43.502771 
L 402.4465 43.502771 
L 402.4465 43.502771 
L 402.4465 43.502771 
L 402.4465 43.502771 
L 402.4465 43.502771 
L 402.4465 43.502771 
L 402.4465 43.502771 
L 402.4465 43.502771 
L 402.4465 43.502771 
L 402.4465 43.502771 
L 402.4465 43.502771 
L 402.4465 43.502771 
L 402.4465 43.502771 
L 402.4465 43.502771 
L 402.4465 43.502771 
z
" style="fill:#1f77b4;fill-opacity:0.3;"/>
   </g>
   <g id="PolyCollection_3">
    <path clip-path="url(#p338ed1d5c8)" d="M 565.4405 43.502771 
L 483.9435 43.502771 
L 483.9435 43.502771 
L 483.9435 43.502771 
L 483.9435 43.502771 
L 483.9435 43.502771 
L 483.9435 43.502771 
L 483.9435 43.502771 
L 483.9435 43.502771 
L 483.9435 43.502771 
L 483.9435 43.502771 
L 483.9435 43.502771 
L 483.9435 43.502771 
L 483.9435 43.502771 
L 483.9435 43.502771 
L 483.9435 43.502771 
L 483.9435 43.502771 
L 483.9435 43.502771 
L 483.9435 43.502771 
L 483.9435 43.502771 
L 483.9435 43.502771 
L 483.9435 43.502771 
L 483.9435 43.502771 
L 483.9435 43.502771 
L 483.9435 43.502771 
L 483.9435 43.502771 
L 483.9435 43.502771 
L 483.9435 43.502771 
L 483.9435 43.502771 
L 483.9435 43.502771 
L 483.9435 43.502771 
L 483.9435 43.502771 
L 483.9435 43.502771 
L 483.9435 43.502771 
L 483.9435 43.502771 
L 483.9435 43.502771 
L 483.9435 43.502771 
L 483.9435 43.502771 
L 483.9435 43.502771 
L 483.9435 43.502771 
L 483.9435 43.502771 
L 483.9435 43.502771 
L 483.9435 43.502771 
L 483.9435 43.502771 
L 483.9435 43.502771 
L 483.9435 43.502771 
L 483.9435 43.502771 
L 483.9435 43.502771 
L 483.9435 43.502771 
L 483.9435 43.502771 
L 483.9435 43.502771 
L 483.9435 43.502771 
L 483.9435 43.502771 
L 483.9435 43.502771 
L 483.9435 43.502771 
L 483.9435 43.502771 
L 483.9435 43.502771 
L 483.9435 43.502771 
L 483.9435 43.502771 
L 483.9435 43.502771 
L 483.9435 43.502771 
L 483.9435 43.502771 
L 483.9435 43.502771 
L 483.9435 43.502771 
L 483.9435 43.502771 
L 483.9435 43.502771 
L 483.9435 43.502771 
L 483.9435 43.502771 
L 483.9435 43.502771 
L 483.9435 43.502771 
L 483.9435 43.502771 
L 483.9435 43.502771 
L 483.9435 43.502771 
L 483.9435 43.502771 
L 483.9435 43.502771 
L 483.9435 43.502771 
L 483.9435 43.502771 
L 483.9435 43.502771 
L 483.9435 43.502771 
L 483.9435 43.502771 
L 483.9435 43.502771 
L 483.9435 43.502771 
L 483.9435 43.502771 
L 483.9435 43.502771 
L 483.9435 43.502771 
L 483.9435 43.502771 
L 483.9435 43.502771 
L 483.9435 43.502771 
L 483.9435 43.502771 
L 483.9435 43.502771 
L 483.9435 43.502771 
L 483.9435 43.502771 
L 483.9435 43.502771 
L 483.9435 43.502771 
L 483.9435 43.502771 
L 483.9435 43.502771 
L 483.9435 43.502771 
L 483.9435 43.502771 
L 483.9435 43.502771 
L 483.9435 43.502771 
L 483.9435 43.502771 
L 565.4405 43.502771 
L 565.4405 43.502771 
L 565.4405 43.502771 
L 565.4405 43.502771 
L 565.4405 43.502771 
L 565.4405 43.502771 
L 565.4405 43.502771 
L 565.4405 43.502771 
L 565.4405 43.502771 
L 565.4405 43.502771 
L 565.4405 43.502771 
L 565.4405 43.502771 
L 565.4405 43.502771 
L 565.4405 43.502771 
L 565.4405 43.502771 
L 565.4405 43.502771 
L 565.4405 43.502771 
L 565.4405 43.502771 
L 565.4405 43.502771 
L 565.4405 43.502771 
L 565.4405 43.502771 
L 565.4405 43.502771 
L 565.4405 43.502771 
L 565.4405 43.502771 
L 565.4405 43.502771 
L 565.4405 43.502771 
L 565.4405 43.502771 
L 565.4405 43.502771 
L 565.4405 43.502771 
L 565.4405 43.502771 
L 565.4405 43.502771 
L 565.4405 43.502771 
L 565.4405 43.502771 
L 565.4405 43.502771 
L 565.4405 43.502771 
L 565.4405 43.502771 
L 565.4405 43.502771 
L 565.4405 43.502771 
L 565.4405 43.502771 
L 565.4405 43.502771 
L 565.4405 43.502771 
L 565.4405 43.502771 
L 565.4405 43.502771 
L 565.4405 43.502771 
L 565.4405 43.502771 
L 565.4405 43.502771 
L 565.4405 43.502771 
L 565.4405 43.502771 
L 565.4405 43.502771 
L 565.4405 43.502771 
L 565.4405 43.502771 
L 565.4405 43.502771 
L 565.4405 43.502771 
L 565.4405 43.502771 
L 565.4405 43.502771 
L 565.4405 43.502771 
L 565.4405 43.502771 
L 565.4405 43.502771 
L 565.4405 43.502771 
L 565.4405 43.502771 
L 565.4405 43.502771 
L 565.4405 43.502771 
L 565.4405 43.502771 
L 565.4405 43.502771 
L 565.4405 43.502771 
L 565.4405 43.502771 
L 565.4405 43.502771 
L 565.4405 43.502771 
L 565.4405 43.502771 
L 565.4405 43.502771 
L 565.4405 43.502771 
L 565.4405 43.502771 
L 565.4405 43.502771 
L 565.4405 43.502771 
L 565.4405 43.502771 
L 565.4405 43.502771 
L 565.4405 43.502771 
L 565.4405 43.502771 
L 565.4405 43.502771 
L 565.4405 43.502771 
L 565.4405 43.502771 
L 565.4405 43.502771 
L 565.4405 43.502771 
L 565.4405 43.502771 
L 565.4405 43.502771 
L 565.4405 43.502771 
L 565.4405 43.502771 
L 565.4405 43.502771 
L 565.4405 43.502771 
L 565.4405 43.502771 
L 565.4405 43.502771 
L 565.4405 43.502771 
L 565.4405 43.502771 
L 565.4405 43.502771 
L 565.4405 43.502771 
L 565.4405 43.502771 
L 565.4405 43.502771 
L 565.4405 43.502771 
L 565.4405 43.502771 
L 565.4405 43.502771 
L 565.4405 43.502771 
z
" style="fill:#1f77b4;fill-opacity:0.3;"/>
   </g>
   <g id="PolyCollection_4">
    <path clip-path="url(#p338ed1d5c8)" d="M 728.4345 353.109545 
L 646.9375 353.109545 
L 646.9375 353.109545 
L 646.9375 353.109545 
L 646.9375 353.109545 
L 646.9375 353.109545 
L 646.9375 353.109545 
L 646.9375 353.109545 
L 646.9375 353.109545 
L 646.9375 353.109545 
L 646.9375 353.109545 
L 646.9375 353.109545 
L 646.9375 353.109545 
L 646.9375 353.109545 
L 646.9375 353.109545 
L 646.9375 353.109545 
L 646.9375 353.109545 
L 646.9375 353.109545 
L 646.9375 353.109545 
L 646.9375 353.109545 
L 646.9375 353.109545 
L 646.9375 353.109545 
L 646.9375 353.109545 
L 646.9375 353.109545 
L 646.9375 353.109545 
L 646.9375 353.109545 
L 646.9375 353.109545 
L 646.9375 353.109545 
L 646.9375 353.109545 
L 646.9375 353.109545 
L 646.9375 353.109545 
L 646.9375 353.109545 
L 646.9375 353.109545 
L 646.9375 353.109545 
L 646.9375 353.109545 
L 646.9375 353.109545 
L 646.9375 353.109545 
L 646.9375 353.109545 
L 646.9375 353.109545 
L 646.9375 353.109545 
L 646.9375 353.109545 
L 646.9375 353.109545 
L 646.9375 353.109545 
L 646.9375 353.109545 
L 646.9375 353.109545 
L 646.9375 353.109545 
L 646.9375 353.109545 
L 646.9375 353.109545 
L 646.9375 353.109545 
L 646.9375 353.109545 
L 646.9375 353.109545 
L 646.9375 353.109545 
L 646.9375 353.109545 
L 646.9375 353.109545 
L 646.9375 353.109545 
L 646.9375 353.109545 
L 646.9375 353.109545 
L 646.9375 353.109545 
L 646.9375 353.109545 
L 646.9375 353.109545 
L 646.9375 353.109545 
L 646.9375 353.109545 
L 646.9375 353.109545 
L 646.9375 353.109545 
L 646.9375 353.109545 
L 646.9375 353.109545 
L 646.9375 353.109545 
L 646.9375 353.109545 
L 646.9375 353.109545 
L 646.9375 353.109545 
L 646.9375 353.109545 
L 646.9375 353.109545 
L 646.9375 353.109545 
L 646.9375 353.109545 
L 646.9375 353.109545 
L 646.9375 353.109545 
L 646.9375 353.109545 
L 646.9375 353.109545 
L 646.9375 353.109545 
L 646.9375 353.109545 
L 646.9375 353.109545 
L 646.9375 353.109545 
L 646.9375 353.109545 
L 646.9375 353.109545 
L 646.9375 353.109545 
L 646.9375 353.109545 
L 646.9375 353.109545 
L 646.9375 353.109545 
L 646.9375 353.109545 
L 646.9375 353.109545 
L 646.9375 353.109545 
L 646.9375 353.109545 
L 646.9375 353.109545 
L 646.9375 353.109545 
L 646.9375 353.109545 
L 646.9375 353.109545 
L 646.9375 353.109545 
L 646.9375 353.109545 
L 646.9375 353.109545 
L 646.9375 353.109545 
L 646.9375 353.109545 
L 728.4345 353.109545 
L 728.4345 353.109545 
L 728.4345 353.109545 
L 728.4345 353.109545 
L 728.4345 353.109545 
L 728.4345 353.109545 
L 728.4345 353.109545 
L 728.4345 353.109545 
L 728.4345 353.109545 
L 728.4345 353.109545 
L 728.4345 353.109545 
L 728.4345 353.109545 
L 728.4345 353.109545 
L 728.4345 353.109545 
L 728.4345 353.109545 
L 728.4345 353.109545 
L 728.4345 353.109545 
L 728.4345 353.109545 
L 728.4345 353.109545 
L 728.4345 353.109545 
L 728.4345 353.109545 
L 728.4345 353.109545 
L 728.4345 353.109545 
L 728.4345 353.109545 
L 728.4345 353.109545 
L 728.4345 353.109545 
L 728.4345 353.109545 
L 728.4345 353.109545 
L 728.4345 353.109545 
L 728.4345 353.109545 
L 728.4345 353.109545 
L 728.4345 353.109545 
L 728.4345 353.109545 
L 728.4345 353.109545 
L 728.4345 353.109545 
L 728.4345 353.109545 
L 728.4345 353.109545 
L 728.4345 353.109545 
L 728.4345 353.109545 
L 728.4345 353.109545 
L 728.4345 353.109545 
L 728.4345 353.109545 
L 728.4345 353.109545 
L 728.4345 353.109545 
L 728.4345 353.109545 
L 728.4345 353.109545 
L 728.4345 353.109545 
L 728.4345 353.109545 
L 728.4345 353.109545 
L 728.4345 353.109545 
L 728.4345 353.109545 
L 728.4345 353.109545 
L 728.4345 353.109545 
L 728.4345 353.109545 
L 728.4345 353.109545 
L 728.4345 353.109545 
L 728.4345 353.109545 
L 728.4345 353.109545 
L 728.4345 353.109545 
L 728.4345 353.109545 
L 728.4345 353.109545 
L 728.4345 353.109545 
L 728.4345 353.109545 
L 728.4345 353.109545 
L 728.4345 353.109545 
L 728.4345 353.109545 
L 728.4345 353.109545 
L 728.4345 353.109545 
L 728.4345 353.109545 
L 728.4345 353.109545 
L 728.4345 353.109545 
L 728.4345 353.109545 
L 728.4345 353.109545 
L 728.4345 353.109545 
L 728.4345 353.109545 
L 728.4345 353.109545 
L 728.4345 353.109545 
L 728.4345 353.109545 
L 728.4345 353.109545 
L 728.4345 353.109545 
L 728.4345 353.109545 
L 728.4345 353.109545 
L 728.4345 353.109545 
L 728.4345 353.109545 
L 728.4345 353.109545 
L 728.4345 353.109545 
L 728.4345 353.109545 
L 728.4345 353.109545 
L 728.4345 353.109545 
L 728.4345 353.109545 
L 728.4345 353.109545 
L 728.4345 353.109545 
L 728.4345 353.109545 
L 728.4345 353.109545 
L 728.4345 353.109545 
L 728.4345 353.109545 
L 728.4345 353.109545 
L 728.4345 353.109545 
L 728.4345 353.109545 
L 728.4345 353.109545 
L 728.4345 353.109545 
z
" style="fill:#1f77b4;fill-opacity:0.3;"/>
   </g>
   <g id="matplotlib.axis_1">
    <g id="xtick_1">
     <g id="line2d_1">
      <defs>
       <path d="M 0 0 
L 0 3.5 
" id="m0b3b5923d1" style="stroke:#000000;stroke-width:0.8;"/>
      </defs>
      <g>
       <use style="stroke:#000000;stroke-width:0.8;" x="198.704" xlink:href="#m0b3b5923d1" y="369.29"/>
      </g>
     </g>
     <g id="text_1">
      <!-- Defector -->
      <defs>
       <path d="M 19.671875 64.796875 
L 19.671875 8.109375 
L 31.59375 8.109375 
Q 46.6875 8.109375 53.6875 14.9375 
Q 60.6875 21.78125 60.6875 36.53125 
Q 60.6875 51.171875 53.6875 57.984375 
Q 46.6875 64.796875 31.59375 64.796875 
z
M 9.8125 72.90625 
L 30.078125 72.90625 
Q 51.265625 72.90625 61.171875 64.09375 
Q 71.09375 55.28125 71.09375 36.53125 
Q 71.09375 17.671875 61.125 8.828125 
Q 51.171875 0 30.078125 0 
L 9.8125 0 
z
" id="DejaVuSans-44"/>
       <path d="M 56.203125 29.59375 
L 56.203125 25.203125 
L 14.890625 25.203125 
Q 15.484375 15.921875 20.484375 11.0625 
Q 25.484375 6.203125 34.421875 6.203125 
Q 39.59375 6.203125 44.453125 7.46875 
Q 49.3125 8.734375 54.109375 11.28125 
L 54.109375 2.78125 
Q 49.265625 0.734375 44.1875 -0.34375 
Q 39.109375 -1.421875 33.890625 -1.421875 
Q 20.796875 -1.421875 13.15625 6.1875 
Q 5.515625 13.8125 5.515625 26.8125 
Q 5.515625 40.234375 12.765625 48.109375 
Q 20.015625 56 32.328125 56 
Q 43.359375 56 49.78125 48.890625 
Q 56.203125 41.796875 56.203125 29.59375 
M 47.21875 32.234375 
Q 47.125 39.59375 43.09375 43.984375 
Q 39.0625 48.390625 32.421875 48.390625 
Q 24.90625 48.390625 20.390625 44.140625 
Q 15.875 39.890625 15.1875 32.171875 
z
" id="DejaVuSans-65"/>
       <path d="M 37.109375 75.984375 
L 37.109375 68.5 
L 28.515625 68.5 
Q 23.6875 68.5 21.796875 66.546875 
Q 19.921875 64.59375 19.921875 59.515625 
L 19.921875 54.6875 
L 34.71875 54.6875 
L 34.71875 47.703125 
L 19.921875 47.703125 
L 19.921875 0 
L 10.890625 0 
L 10.890625 47.703125 
L 2.296875 47.703125 
L 2.296875 54.6875 
L 10.890625 54.6875 
L 10.890625 58.5 
Q 10.890625 67.625 15.140625 71.796875 
Q 19.390625 75.984375 28.609375 75.984375 
z
" id="DejaVuSans-66"/>
       <path d="M 48.78125 52.59375 
L 48.78125 44.1875 
Q 44.96875 46.296875 41.140625 47.34375 
Q 37.3125 48.390625 33.40625 48.390625 
Q 24.65625 48.390625 19.8125 42.84375 
Q 14.984375 37.3125 14.984375 27.296875 
Q 14.984375 17.28125 19.8125 11.734375 
Q 24.65625 6.203125 33.40625 6.203125 
Q 37.3125 6.203125 41.140625 7.25 
Q 44.96875 8.296875 48.78125 10.40625 
L 48.78125 2.09375 
Q 45.015625 0.34375 40.984375 -0.53125 
Q 36.96875 -1.421875 32.421875 -1.421875 
Q 20.0625 -1.421875 12.78125 6.34375 
Q 5.515625 14.109375 5.515625 27.296875 
Q 5.515625 40.671875 12.859375 48.328125 
Q 20.21875 56 33.015625 56 
Q 37.15625 56 41.109375 55.140625 
Q 45.0625 54.296875 48.78125 52.59375 
" id="DejaVuSans-63"/>
       <path d="M 18.3125 70.21875 
L 18.3125 54.6875 
L 36.8125 54.6875 
L 36.8125 47.703125 
L 18.3125 47.703125 
L 18.3125 18.015625 
Q 18.3125 11.328125 20.140625 9.421875 
Q 21.96875 7.515625 27.59375 7.515625 
L 36.8125 7.515625 
L 36.8125 0 
L 27.59375 0 
Q 17.1875 0 13.234375 3.875 
Q 9.28125 7.765625 9.28125 18.015625 
L 9.28125 47.703125 
L 2.6875 47.703125 
L 2.6875 54.6875 
L 9.28125 54.6875 
L 9.28125 70.21875 
z
" id="DejaVuSans-74"/>
       <path d="M 30.609375 48.390625 
Q 23.390625 48.390625 19.1875 42.75 
Q 14.984375 37.109375 14.984375 27.296875 
Q 14.984375 17.484375 19.15625 11.84375 
Q 23.34375 6.203125 30.609375 6.203125 
Q 37.796875 6.203125 41.984375 11.859375 
Q 46.1875 17.53125 46.1875 27.296875 
Q 46.1875 37.015625 41.984375 42.703125 
Q 37.796875 48.390625 30.609375 48.390625 
M 30.609375 56 
Q 42.328125 56 49.015625 48.375 
Q 55.71875 40.765625 55.71875 27.296875 
Q 55.71875 13.875 49.015625 6.21875 
Q 42.328125 -1.421875 30.609375 -1.421875 
Q 18.84375 -1.421875 12.171875 6.21875 
Q 5.515625 13.875 5.515625 27.296875 
Q 5.515625 40.765625 12.171875 48.375 
Q 18.84375 56 30.609375 56 
" id="DejaVuSans-6f"/>
       <path d="M 41.109375 46.296875 
Q 39.59375 47.171875 37.8125 47.578125 
Q 36.03125 48 33.890625 48 
Q 26.265625 48 22.1875 43.046875 
Q 18.109375 38.09375 18.109375 28.8125 
L 18.109375 0 
L 9.078125 0 
L 9.078125 54.6875 
L 18.109375 54.6875 
L 18.109375 46.1875 
Q 20.953125 51.171875 25.484375 53.578125 
Q 30.03125 56 36.53125 56 
Q 37.453125 56 38.578125 55.875 
Q 39.703125 55.765625 41.0625 55.515625 
z
" id="DejaVuSans-72"/>
      </defs>
      <g transform="translate(200.9115 410.83)rotate(-90)scale(0.08 -0.08)">
       <use xlink:href="#DejaVuSans-44"/>
       <use x="77.001953" xlink:href="#DejaVuSans-65"/>
       <use x="138.525391" xlink:href="#DejaVuSans-66"/>
       <use x="173.730469" xlink:href="#DejaVuSans-65"/>
       <use x="235.253906" xlink:href="#DejaVuSans-63"/>
       <use x="290.234375" xlink:href="#DejaVuSans-74"/>
       <use x="329.443359" xlink:href="#DejaVuSans-6f"/>
       <use x="390.625" xlink:href="#DejaVuSans-72"/>
      </g>
     </g>
    </g>
    <g id="xtick_2">
     <g id="line2d_2">
      <g>
       <use style="stroke:#000000;stroke-width:0.8;" x="361.698" xlink:href="#m0b3b5923d1" y="369.29"/>
      </g>
     </g>
     <g id="text_2">
      <!-- Tit For Tat -->
      <defs>
       <path d="M -0.296875 72.90625 
L 61.375 72.90625 
L 61.375 64.59375 
L 35.5 64.59375 
L 35.5 0 
L 25.59375 0 
L 25.59375 64.59375 
L -0.296875 64.59375 
z
" id="DejaVuSans-54"/>
       <path d="M 9.421875 54.6875 
L 18.40625 54.6875 
L 18.40625 0 
L 9.421875 0 
z
M 9.421875 75.984375 
L 18.40625 75.984375 
L 18.40625 64.59375 
L 9.421875 64.59375 
z
" id="DejaVuSans-69"/>
       <path id="DejaVuSans-20"/>
       <path d="M 9.8125 72.90625 
L 51.703125 72.90625 
L 51.703125 64.59375 
L 19.671875 64.59375 
L 19.671875 43.109375 
L 48.578125 43.109375 
L 48.578125 34.8125 
L 19.671875 34.8125 
L 19.671875 0 
L 9.8125 0 
z
" id="DejaVuSans-46"/>
       <path d="M 34.28125 27.484375 
Q 23.390625 27.484375 19.1875 25 
Q 14.984375 22.515625 14.984375 16.5 
Q 14.984375 11.71875 18.140625 8.90625 
Q 21.296875 6.109375 26.703125 6.109375 
Q 34.1875 6.109375 38.703125 11.40625 
Q 43.21875 16.703125 43.21875 25.484375 
L 43.21875 27.484375 
z
M 52.203125 31.203125 
L 52.203125 0 
L 43.21875 0 
L 43.21875 8.296875 
Q 40.140625 3.328125 35.546875 0.953125 
Q 30.953125 -1.421875 24.3125 -1.421875 
Q 15.921875 -1.421875 10.953125 3.296875 
Q 6 8.015625 6 15.921875 
Q 6 25.140625 12.171875 29.828125 
Q 18.359375 34.515625 30.609375 34.515625 
L 43.21875 34.515625 
L 43.21875 35.40625 
Q 43.21875 41.609375 39.140625 45 
Q 35.0625 48.390625 27.6875 48.390625 
Q 23 48.390625 18.546875 47.265625 
Q 14.109375 46.140625 10.015625 43.890625 
L 10.015625 52.203125 
Q 14.9375 54.109375 19.578125 55.046875 
Q 24.21875 56 28.609375 56 
Q 40.484375 56 46.34375 49.84375 
Q 52.203125 43.703125 52.203125 31.203125 
" id="DejaVuSans-61"/>
      </defs>
      <g transform="translate(363.9055 417.3025)rotate(-90)scale(0.08 -0.08)">
       <use xlink:href="#DejaVuSans-54"/>
       <use x="61.037109" xlink:href="#DejaVuSans-69"/>
       <use x="88.820312" xlink:href="#DejaVuSans-74"/>
       <use x="128.029297" xlink:href="#DejaVuSans-20"/>
       <use x="159.816406" xlink:href="#DejaVuSans-46"/>
       <use x="217.289062" xlink:href="#DejaVuSans-6f"/>
       <use x="278.470703" xlink:href="#DejaVuSans-72"/>
       <use x="319.583984" xlink:href="#DejaVuSans-20"/>
       <use x="351.371094" xlink:href="#DejaVuSans-54"/>
       <use x="412.205078" xlink:href="#DejaVuSans-61"/>
       <use x="473.484375" xlink:href="#DejaVuSans-74"/>
      </g>
     </g>
    </g>
    <g id="xtick_3">
     <g id="line2d_3">
      <g>
       <use style="stroke:#000000;stroke-width:0.8;" x="524.692" xlink:href="#m0b3b5923d1" y="369.29"/>
      </g>
     </g>
     <g id="text_3">
      <!-- Grudger -->
      <defs>
       <path d="M 59.515625 10.40625 
L 59.515625 29.984375 
L 43.40625 29.984375 
L 43.40625 38.09375 
L 69.28125 38.09375 
L 69.28125 6.78125 
Q 63.578125 2.734375 56.6875 0.65625 
Q 49.8125 -1.421875 42 -1.421875 
Q 24.90625 -1.421875 15.25 8.5625 
Q 5.609375 18.5625 5.609375 36.375 
Q 5.609375 54.25 15.25 64.234375 
Q 24.90625 74.21875 42 74.21875 
Q 49.125 74.21875 55.546875 72.453125 
Q 61.96875 70.703125 67.390625 67.28125 
L 67.390625 56.78125 
Q 61.921875 61.421875 55.765625 63.765625 
Q 49.609375 66.109375 42.828125 66.109375 
Q 29.4375 66.109375 22.71875 58.640625 
Q 16.015625 51.171875 16.015625 36.375 
Q 16.015625 21.625 22.71875 14.15625 
Q 29.4375 6.6875 42.828125 6.6875 
Q 48.046875 6.6875 52.140625 7.59375 
Q 56.25 8.5 59.515625 10.40625 
" id="DejaVuSans-47"/>
       <path d="M 8.5 21.578125 
L 8.5 54.6875 
L 17.484375 54.6875 
L 17.484375 21.921875 
Q 17.484375 14.15625 20.5 10.265625 
Q 23.53125 6.390625 29.59375 6.390625 
Q 36.859375 6.390625 41.078125 11.03125 
Q 45.3125 15.671875 45.3125 23.6875 
L 45.3125 54.6875 
L 54.296875 54.6875 
L 54.296875 0 
L 45.3125 0 
L 45.3125 8.40625 
Q 42.046875 3.421875 37.71875 1 
Q 33.40625 -1.421875 27.6875 -1.421875 
Q 18.265625 -1.421875 13.375 4.4375 
Q 8.5 10.296875 8.5 21.578125 
M 31.109375 56 
z
" id="DejaVuSans-75"/>
       <path d="M 45.40625 46.390625 
L 45.40625 75.984375 
L 54.390625 75.984375 
L 54.390625 0 
L 45.40625 0 
L 45.40625 8.203125 
Q 42.578125 3.328125 38.25 0.953125 
Q 33.9375 -1.421875 27.875 -1.421875 
Q 17.96875 -1.421875 11.734375 6.484375 
Q 5.515625 14.40625 5.515625 27.296875 
Q 5.515625 40.1875 11.734375 48.09375 
Q 17.96875 56 27.875 56 
Q 33.9375 56 38.25 53.625 
Q 42.578125 51.265625 45.40625 46.390625 
M 14.796875 27.296875 
Q 14.796875 17.390625 18.875 11.75 
Q 22.953125 6.109375 30.078125 6.109375 
Q 37.203125 6.109375 41.296875 11.75 
Q 45.40625 17.390625 45.40625 27.296875 
Q 45.40625 37.203125 41.296875 42.84375 
Q 37.203125 48.484375 30.078125 48.484375 
Q 22.953125 48.484375 18.875 42.84375 
Q 14.796875 37.203125 14.796875 27.296875 
" id="DejaVuSans-64"/>
       <path d="M 45.40625 27.984375 
Q 45.40625 37.75 41.375 43.109375 
Q 37.359375 48.484375 30.078125 48.484375 
Q 22.859375 48.484375 18.828125 43.109375 
Q 14.796875 37.75 14.796875 27.984375 
Q 14.796875 18.265625 18.828125 12.890625 
Q 22.859375 7.515625 30.078125 7.515625 
Q 37.359375 7.515625 41.375 12.890625 
Q 45.40625 18.265625 45.40625 27.984375 
M 54.390625 6.78125 
Q 54.390625 -7.171875 48.1875 -13.984375 
Q 42 -20.796875 29.203125 -20.796875 
Q 24.46875 -20.796875 20.265625 -20.09375 
Q 16.0625 -19.390625 12.109375 -17.921875 
L 12.109375 -9.1875 
Q 16.0625 -11.328125 19.921875 -12.34375 
Q 23.78125 -13.375 27.78125 -13.375 
Q 36.625 -13.375 41.015625 -8.765625 
Q 45.40625 -4.15625 45.40625 5.171875 
L 45.40625 9.625 
Q 42.625 4.78125 38.28125 2.390625 
Q 33.9375 0 27.875 0 
Q 17.828125 0 11.671875 7.65625 
Q 5.515625 15.328125 5.515625 27.984375 
Q 5.515625 40.671875 11.671875 48.328125 
Q 17.828125 56 27.875 56 
Q 33.9375 56 38.28125 53.609375 
Q 42.625 51.21875 45.40625 46.390625 
L 45.40625 54.6875 
L 54.390625 54.6875 
z
" id="DejaVuSans-67"/>
      </defs>
      <g transform="translate(526.8995 409.21625)rotate(-90)scale(0.08 -0.08)">
       <use xlink:href="#DejaVuSans-47"/>
       <use x="77.490234" xlink:href="#DejaVuSans-72"/>
       <use x="118.603516" xlink:href="#DejaVuSans-75"/>
       <use x="181.982422" xlink:href="#DejaVuSans-64"/>
       <use x="245.458984" xlink:href="#DejaVuSans-67"/>
       <use x="308.935547" xlink:href="#DejaVuSans-65"/>
       <use x="370.458984" xlink:href="#DejaVuSans-72"/>
      </g>
     </g>
    </g>
    <g id="xtick_4">
     <g id="line2d_4">
      <g>
       <use style="stroke:#000000;stroke-width:0.8;" x="687.686" xlink:href="#m0b3b5923d1" y="369.29"/>
      </g>
     </g>
     <g id="text_4">
      <!-- Cooperator -->
      <defs>
       <path d="M 64.40625 67.28125 
L 64.40625 56.890625 
Q 59.421875 61.53125 53.78125 63.8125 
Q 48.140625 66.109375 41.796875 66.109375 
Q 29.296875 66.109375 22.65625 58.46875 
Q 16.015625 50.828125 16.015625 36.375 
Q 16.015625 21.96875 22.65625 14.328125 
Q 29.296875 6.6875 41.796875 6.6875 
Q 48.140625 6.6875 53.78125 8.984375 
Q 59.421875 11.28125 64.40625 15.921875 
L 64.40625 5.609375 
Q 59.234375 2.09375 53.4375 0.328125 
Q 47.65625 -1.421875 41.21875 -1.421875 
Q 24.65625 -1.421875 15.125 8.703125 
Q 5.609375 18.84375 5.609375 36.375 
Q 5.609375 53.953125 15.125 64.078125 
Q 24.65625 74.21875 41.21875 74.21875 
Q 47.75 74.21875 53.53125 72.484375 
Q 59.328125 70.75 64.40625 67.28125 
" id="DejaVuSans-43"/>
       <path d="M 18.109375 8.203125 
L 18.109375 -20.796875 
L 9.078125 -20.796875 
L 9.078125 54.6875 
L 18.109375 54.6875 
L 18.109375 46.390625 
Q 20.953125 51.265625 25.265625 53.625 
Q 29.59375 56 35.59375 56 
Q 45.5625 56 51.78125 48.09375 
Q 58.015625 40.1875 58.015625 27.296875 
Q 58.015625 14.40625 51.78125 6.484375 
Q 45.5625 -1.421875 35.59375 -1.421875 
Q 29.59375 -1.421875 25.265625 0.953125 
Q 20.953125 3.328125 18.109375 8.203125 
M 48.6875 27.296875 
Q 48.6875 37.203125 44.609375 42.84375 
Q 40.53125 48.484375 33.40625 48.484375 
Q 26.265625 48.484375 22.1875 42.84375 
Q 18.109375 37.203125 18.109375 27.296875 
Q 18.109375 17.390625 22.1875 11.75 
Q 26.265625 6.109375 33.40625 6.109375 
Q 40.53125 6.109375 44.609375 11.75 
Q 48.6875 17.390625 48.6875 27.296875 
" id="DejaVuSans-70"/>
      </defs>
      <g transform="translate(689.8935 421.17875)rotate(-90)scale(0.08 -0.08)">
       <use xlink:href="#DejaVuSans-43"/>
       <use x="69.824219" xlink:href="#DejaVuSans-6f"/>
       <use x="131.005859" xlink:href="#DejaVuSans-6f"/>
       <use x="192.1875" xlink:href="#DejaVuSans-70"/>
       <use x="255.664062" xlink:href="#DejaVuSans-65"/>
       <use x="317.1875" xlink:href="#DejaVuSans-72"/>
       <use x="358.300781" xlink:href="#DejaVuSans-61"/>
       <use x="419.580078" xlink:href="#DejaVuSans-74"/>
       <use x="458.789062" xlink:href="#DejaVuSans-6f"/>
       <use x="519.970703" xlink:href="#DejaVuSans-72"/>
      </g>
     </g>
    </g>
   </g>
   <g id="matplotlib.axis_2">
    <g id="ytick_1">
     <g id="line2d_5">
      <defs>
       <path d="M 0 0 
L -3.5 0 
" id="me8f6191f3b" style="stroke:#000000;stroke-width:0.8;"/>
      </defs>
      <g>
       <use style="stroke:#000000;stroke-width:0.8;" x="35.71" xlink:href="#me8f6191f3b" y="353.109545"/>
      </g>
     </g>
     <g id="text_5">
      <!-- 2.00 -->
      <defs>
       <path d="M 19.1875 8.296875 
L 53.609375 8.296875 
L 53.609375 0 
L 7.328125 0 
L 7.328125 8.296875 
Q 12.9375 14.109375 22.625 23.890625 
Q 32.328125 33.6875 34.8125 36.53125 
Q 39.546875 41.84375 41.421875 45.53125 
Q 43.3125 49.21875 43.3125 52.78125 
Q 43.3125 58.59375 39.234375 62.25 
Q 35.15625 65.921875 28.609375 65.921875 
Q 23.96875 65.921875 18.8125 64.3125 
Q 13.671875 62.703125 7.8125 59.421875 
L 7.8125 69.390625 
Q 13.765625 71.78125 18.9375 73 
Q 24.125 74.21875 28.421875 74.21875 
Q 39.75 74.21875 46.484375 68.546875 
Q 53.21875 62.890625 53.21875 53.421875 
Q 53.21875 48.921875 51.53125 44.890625 
Q 49.859375 40.875 45.40625 35.40625 
Q 44.1875 33.984375 37.640625 27.21875 
Q 31.109375 20.453125 19.1875 8.296875 
" id="DejaVuSans-32"/>
       <path d="M 10.6875 12.40625 
L 21 12.40625 
L 21 0 
L 10.6875 0 
z
" id="DejaVuSans-2e"/>
       <path d="M 31.78125 66.40625 
Q 24.171875 66.40625 20.328125 58.90625 
Q 16.5 51.421875 16.5 36.375 
Q 16.5 21.390625 20.328125 13.890625 
Q 24.171875 6.390625 31.78125 6.390625 
Q 39.453125 6.390625 43.28125 13.890625 
Q 47.125 21.390625 47.125 36.375 
Q 47.125 51.421875 43.28125 58.90625 
Q 39.453125 66.40625 31.78125 66.40625 
M 31.78125 74.21875 
Q 44.046875 74.21875 50.515625 64.515625 
Q 56.984375 54.828125 56.984375 36.375 
Q 56.984375 17.96875 50.515625 8.265625 
Q 44.046875 -1.421875 31.78125 -1.421875 
Q 19.53125 -1.421875 13.0625 8.265625 
Q 6.59375 17.96875 6.59375 36.375 
Q 6.59375 54.828125 13.0625 64.515625 
Q 19.53125 74.21875 31.78125 74.21875 
" id="DejaVuSans-30"/>
      </defs>
      <g transform="translate(10.8975 356.14892)scale(0.08 -0.08)">
       <use xlink:href="#DejaVuSans-32"/>
       <use x="63.623047" xlink:href="#DejaVuSans-2e"/>
       <use x="95.410156" xlink:href="#DejaVuSans-30"/>
       <use x="159.033203" xlink:href="#DejaVuSans-30"/>
      </g>
     </g>
    </g>
    <g id="ytick_2">
     <g id="line2d_6">
      <g>
       <use style="stroke:#000000;stroke-width:0.8;" x="35.71" xlink:href="#me8f6191f3b" y="306.435157"/>
      </g>
     </g>
     <g id="text_6">
      <!-- 2.05 -->
      <defs>
       <path d="M 10.796875 72.90625 
L 49.515625 72.90625 
L 49.515625 64.59375 
L 19.828125 64.59375 
L 19.828125 46.734375 
Q 21.96875 47.46875 24.109375 47.828125 
Q 26.265625 48.1875 28.421875 48.1875 
Q 40.625 48.1875 47.75 41.5 
Q 54.890625 34.8125 54.890625 23.390625 
Q 54.890625 11.625 47.5625 5.09375 
Q 40.234375 -1.421875 26.90625 -1.421875 
Q 22.3125 -1.421875 17.546875 -0.640625 
Q 12.796875 0.140625 7.71875 1.703125 
L 7.71875 11.625 
Q 12.109375 9.234375 16.796875 8.0625 
Q 21.484375 6.890625 26.703125 6.890625 
Q 35.15625 6.890625 40.078125 11.328125 
Q 45.015625 15.765625 45.015625 23.390625 
Q 45.015625 31 40.078125 35.4375 
Q 35.15625 39.890625 26.703125 39.890625 
Q 22.75 39.890625 18.8125 39.015625 
Q 14.890625 38.140625 10.796875 36.28125 
z
" id="DejaVuSans-35"/>
      </defs>
      <g transform="translate(10.8975 309.474532)scale(0.08 -0.08)">
       <use xlink:href="#DejaVuSans-32"/>
       <use x="63.623047" xlink:href="#DejaVuSans-2e"/>
       <use x="95.410156" xlink:href="#DejaVuSans-30"/>
       <use x="159.033203" xlink:href="#DejaVuSans-35"/>
      </g>
     </g>
    </g>
    <g id="ytick_3">
     <g id="line2d_7">
      <g>
       <use style="stroke:#000000;stroke-width:0.8;" x="35.71" xlink:href="#me8f6191f3b" y="259.760769"/>
      </g>
     </g>
     <g id="text_7">
      <!-- 2.10 -->
      <defs>
       <path d="M 12.40625 8.296875 
L 28.515625 8.296875 
L 28.515625 63.921875 
L 10.984375 60.40625 
L 10.984375 69.390625 
L 28.421875 72.90625 
L 38.28125 72.90625 
L 38.28125 8.296875 
L 54.390625 8.296875 
L 54.390625 0 
L 12.40625 0 
z
" id="DejaVuSans-31"/>
      </defs>
      <g transform="translate(10.8975 262.800144)scale(0.08 -0.08)">
       <use xlink:href="#DejaVuSans-32"/>
       <use x="63.623047" xlink:href="#DejaVuSans-2e"/>
       <use x="95.410156" xlink:href="#DejaVuSans-31"/>
       <use x="159.033203" xlink:href="#DejaVuSans-30"/>
      </g>
     </g>
    </g>
    <g id="ytick_4">
     <g id="line2d_8">
      <g>
       <use style="stroke:#000000;stroke-width:0.8;" x="35.71" xlink:href="#me8f6191f3b" y="213.086381"/>
      </g>
     </g>
     <g id="text_8">
      <!-- 2.15 -->
      <g transform="translate(10.8975 216.125756)scale(0.08 -0.08)">
       <use xlink:href="#DejaVuSans-32"/>
       <use x="63.623047" xlink:href="#DejaVuSans-2e"/>
       <use x="95.410156" xlink:href="#DejaVuSans-31"/>
       <use x="159.033203" xlink:href="#DejaVuSans-35"/>
      </g>
     </g>
    </g>
    <g id="ytick_5">
     <g id="line2d_9">
      <g>
       <use style="stroke:#000000;stroke-width:0.8;" x="35.71" xlink:href="#me8f6191f3b" y="166.411993"/>
      </g>
     </g>
     <g id="text_9">
      <!-- 2.20 -->
      <g transform="translate(10.8975 169.451368)scale(0.08 -0.08)">
       <use xlink:href="#DejaVuSans-32"/>
       <use x="63.623047" xlink:href="#DejaVuSans-2e"/>
       <use x="95.410156" xlink:href="#DejaVuSans-32"/>
       <use x="159.033203" xlink:href="#DejaVuSans-30"/>
      </g>
     </g>
    </g>
    <g id="ytick_6">
     <g id="line2d_10">
      <g>
       <use style="stroke:#000000;stroke-width:0.8;" x="35.71" xlink:href="#me8f6191f3b" y="119.737605"/>
      </g>
     </g>
     <g id="text_10">
      <!-- 2.25 -->
      <g transform="translate(10.8975 122.77698)scale(0.08 -0.08)">
       <use xlink:href="#DejaVuSans-32"/>
       <use x="63.623047" xlink:href="#DejaVuSans-2e"/>
       <use x="95.410156" xlink:href="#DejaVuSans-32"/>
       <use x="159.033203" xlink:href="#DejaVuSans-35"/>
      </g>
     </g>
    </g>
    <g id="ytick_7">
     <g id="line2d_11">
      <g>
       <use style="stroke:#000000;stroke-width:0.8;" x="35.71" xlink:href="#me8f6191f3b" y="73.063217"/>
      </g>
     </g>
     <g id="text_11">
      <!-- 2.30 -->
      <defs>
       <path d="M 40.578125 39.3125 
Q 47.65625 37.796875 51.625 33 
Q 55.609375 28.21875 55.609375 21.1875 
Q 55.609375 10.40625 48.1875 4.484375 
Q 40.765625 -1.421875 27.09375 -1.421875 
Q 22.515625 -1.421875 17.65625 -0.515625 
Q 12.796875 0.390625 7.625 2.203125 
L 7.625 11.71875 
Q 11.71875 9.328125 16.59375 8.109375 
Q 21.484375 6.890625 26.8125 6.890625 
Q 36.078125 6.890625 40.9375 10.546875 
Q 45.796875 14.203125 45.796875 21.1875 
Q 45.796875 27.640625 41.28125 31.265625 
Q 36.765625 34.90625 28.71875 34.90625 
L 20.21875 34.90625 
L 20.21875 43.015625 
L 29.109375 43.015625 
Q 36.375 43.015625 40.234375 45.921875 
Q 44.09375 48.828125 44.09375 54.296875 
Q 44.09375 59.90625 40.109375 62.90625 
Q 36.140625 65.921875 28.71875 65.921875 
Q 24.65625 65.921875 20.015625 65.03125 
Q 15.375 64.15625 9.8125 62.3125 
L 9.8125 71.09375 
Q 15.4375 72.65625 20.34375 73.4375 
Q 25.25 74.21875 29.59375 74.21875 
Q 40.828125 74.21875 47.359375 69.109375 
Q 53.90625 64.015625 53.90625 55.328125 
Q 53.90625 49.265625 50.4375 45.09375 
Q 46.96875 40.921875 40.578125 39.3125 
" id="DejaVuSans-33"/>
      </defs>
      <g transform="translate(10.8975 76.102592)scale(0.08 -0.08)">
       <use xlink:href="#DejaVuSans-32"/>
       <use x="63.623047" xlink:href="#DejaVuSans-2e"/>
       <use x="95.410156" xlink:href="#DejaVuSans-33"/>
       <use x="159.033203" xlink:href="#DejaVuSans-30"/>
      </g>
     </g>
    </g>
    <g id="ytick_8">
     <g id="line2d_12">
      <g>
       <use style="stroke:#000000;stroke-width:0.8;" x="35.71" xlink:href="#me8f6191f3b" y="26.388829"/>
      </g>
     </g>
     <g id="text_12">
      <!-- 2.35 -->
      <g transform="translate(10.8975 29.428204)scale(0.08 -0.08)">
       <use xlink:href="#DejaVuSans-32"/>
       <use x="63.623047" xlink:href="#DejaVuSans-2e"/>
       <use x="95.410156" xlink:href="#DejaVuSans-33"/>
       <use x="159.033203" xlink:href="#DejaVuSans-35"/>
      </g>
     </g>
    </g>
   </g>
   <g id="LineCollection_1">
    <path clip-path="url(#p338ed1d5c8)" d="M 178.32975 29.500455 
L 219.07825 29.500455 
" style="fill:none;stroke:#1f77b4;stroke-width:1.5;"/>
    <path clip-path="url(#p338ed1d5c8)" d="M 341.32375 43.502771 
L 382.07225 43.502771 
" style="fill:none;stroke:#1f77b4;stroke-width:1.5;"/>
    <path clip-path="url(#p338ed1d5c8)" d="M 504.31775 43.502771 
L 545.06625 43.502771 
" style="fill:none;stroke:#1f77b4;stroke-width:1.5;"/>
    <path clip-path="url(#p338ed1d5c8)" d="M 667.31175 353.109545 
L 708.06025 353.109545 
" style="fill:none;stroke:#1f77b4;stroke-width:1.5;"/>
   </g>
   <g id="patch_3">
    <path d="M 35.71 369.29 
L 35.71 13.32 
" style="fill:none;stroke:#000000;stroke-linecap:square;stroke-linejoin:miter;stroke-width:0.8;"/>
   </g>
   <g id="patch_4">
    <path d="M 850.68 369.29 
L 850.68 13.32 
" style="fill:none;stroke:#000000;stroke-linecap:square;stroke-linejoin:miter;stroke-width:0.8;"/>
   </g>
   <g id="patch_5">
    <path d="M 35.71 369.29 
L 850.68 369.29 
" style="fill:none;stroke:#000000;stroke-linecap:square;stroke-linejoin:miter;stroke-width:0.8;"/>
   </g>
   <g id="patch_6">
    <path d="M 35.71 13.32 
L 850.68 13.32 
" style="fill:none;stroke:#000000;stroke-linecap:square;stroke-linejoin:miter;stroke-width:0.8;"/>
   </g>
  </g>
 </g>
 <defs>
  <clipPath id="p338ed1d5c8">
   <rect height="355.97" width="814.97" x="35.71" y="13.32"/>
  </clipPath>
 </defs>
</svg>
