<?xml version="1.0" encoding="utf-8" standalone="no"?>
<!DOCTYPE svg PUBLIC "-//W3C//DTD SVG 1.1//EN"
  "http://www.w3.org/Graphics/SVG/1.1/DTD/svg11.dtd">
<!-- Created with matplotlib (http://matplotlib.org/) -->
<svg height="432pt" version="1.1" viewBox="0 0 576 432" width="576pt" xmlns="http://www.w3.org/2000/svg" xmlns:xlink="http://www.w3.org/1999/xlink">
 <defs>
  <style type="text/css">
*{stroke-linecap:butt;stroke-linejoin:round;}
  </style>
 </defs>
 <g id="figure_1">
  <g id="patch_1">
   <path d="
M0 432
L576 432
L576 0
L0 0
z
" style="fill:#ffffff;"/>
  </g>
  <g id="axes_1">
   <g id="patch_2">
    <path d="
M72 388.8
L518.4 388.8
L518.4 43.2
L72 43.2
z
" style="fill:#ffffff;"/>
   </g>
   <g id="PolyCollection_1">
    <defs>
     <path d="
M72 -374.597
L72 -43.2
L75.1886 -43.2
L78.3771 -43.2
L81.5657 -43.2
L84.7543 -43.2
L87.9429 -43.2
L91.1314 -43.2
L94.32 -43.2
L97.5086 -43.2
L100.697 -43.2
L103.886 -43.2
L107.074 -43.2
L110.263 -43.2
L113.451 -43.2
L116.64 -43.2
L119.829 -43.2
L123.017 -43.2
L126.206 -43.2
L129.394 -43.2
L132.583 -43.2
L135.771 -43.2
L138.96 -43.2
L142.149 -43.2
L145.337 -43.2
L148.526 -43.2
L151.714 -43.2
L154.903 -43.2
L158.091 -43.2
L161.28 -43.2
L164.469 -43.2
L167.657 -43.2
L170.846 -43.2
L174.034 -43.2
L177.223 -43.2
L180.411 -43.2
L183.6 -43.2
L186.789 -43.2
L189.977 -43.2
L193.166 -43.2
L196.354 -43.2
L199.543 -43.2
L202.731 -43.2
L205.92 -43.2
L209.109 -43.2
L212.297 -43.2
L215.486 -43.2
L218.674 -43.2
L221.863 -43.2
L225.051 -43.2
L228.24 -43.2
L231.429 -43.2
L234.617 -43.2
L237.806 -43.2
L240.994 -43.2
L244.183 -43.2
L247.371 -43.2
L250.56 -43.2
L253.749 -43.2
L256.937 -43.2
L260.126 -43.2
L263.314 -43.2
L266.503 -43.2
L269.691 -43.2
L272.88 -43.2
L276.069 -43.2
L279.257 -43.2
L282.446 -43.2
L285.634 -43.2
L288.823 -43.2
L292.011 -43.2
L295.2 -43.2
L298.389 -43.2
L301.577 -43.2
L304.766 -43.2
L307.954 -43.2
L311.143 -43.2
L314.331 -43.2
L317.52 -43.2
L320.709 -43.2
L323.897 -43.2
L327.086 -43.2
L330.274 -43.2
L333.463 -43.2
L336.651 -43.2
L339.84 -43.2
L343.029 -43.2
L346.217 -43.2
L349.406 -43.2
L352.594 -43.2
L355.783 -43.2
L358.971 -43.2
L362.16 -43.2
L365.349 -43.2
L368.537 -43.2
L371.726 -43.2
L374.914 -43.2
L378.103 -43.2
L381.291 -43.2
L384.48 -43.2
L387.669 -43.2
L390.857 -43.2
L394.046 -43.2
L397.234 -43.2
L400.423 -43.2
L403.611 -43.2
L406.8 -43.2
L409.989 -43.2
L413.177 -43.2
L416.366 -43.2
L419.554 -43.2
L422.743 -43.2
L425.931 -43.2
L429.12 -43.2
L432.309 -43.2
L435.497 -43.2
L438.686 -43.2
L441.874 -43.2
L445.063 -43.2
L448.251 -43.2
L451.44 -43.2
L454.629 -43.2
L457.817 -43.2
L461.006 -43.2
L464.194 -43.2
L467.383 -43.2
L470.571 -43.2
L473.76 -43.2
L476.949 -43.2
L480.137 -43.2
L483.326 -43.2
L486.514 -43.2
L489.703 -43.2
L492.891 -43.2
L496.08 -43.2
L499.269 -43.2
L502.457 -43.2
L505.646 -43.2
L508.834 -43.2
L512.023 -43.2
L515.211 -43.2
L518.4 -43.2
L518.4 -43.2
L518.4 -43.2
L515.211 -43.2
L512.023 -43.2
L508.834 -43.2
L505.646 -43.2
L502.457 -43.2
L499.269 -43.2
L496.08 -43.2
L492.891 -43.2
L489.703 -43.2
L486.514 -43.2
L483.326 -43.2
L480.137 -43.2
L476.949 -43.2
L473.76 -43.2
L470.571 -43.2
L467.383 -43.2
L464.194 -43.2
L461.006 -43.2
L457.817 -43.2
L454.629 -43.2
L451.44 -43.2
L448.251 -43.2
L445.063 -43.2
L441.874 -43.2
L438.686 -43.2001
L435.497 -43.2002
L432.309 -43.2006
L429.12 -43.2018
L425.931 -43.2054
L422.743 -43.216
L419.554 -43.2471
L416.366 -43.3383
L413.177 -43.6062
L409.989 -44.3894
L406.8 -46.6526
L403.611 -52.9837
L400.423 -69.2419
L397.234 -103.736
L394.046 -156.915
L390.857 -213.877
L387.669 -260.157
L384.48 -292.861
L381.291 -315.061
L378.103 -330.262
L374.914 -340.955
L371.726 -348.715
L368.537 -354.519
L365.349 -358.978
L362.16 -362.487
L358.971 -365.304
L355.783 -367.607
L352.594 -369.518
L349.406 -371.127
L346.217 -372.497
L343.029 -373.676
L339.84 -374.699
L336.651 -375.596
L333.463 -376.387
L330.274 -377.089
L327.086 -377.717
L323.897 -378.281
L320.709 -378.79
L317.52 -379.252
L314.331 -379.673
L311.143 -380.057
L307.954 -380.41
L304.766 -380.735
L301.577 -381.035
L298.389 -381.313
L295.2 -381.572
L292.011 -381.812
L288.823 -382.036
L285.634 -382.246
L282.446 -382.442
L279.257 -382.627
L276.069 -382.8
L272.88 -382.964
L269.691 -383.118
L266.503 -383.264
L263.314 -383.402
L260.126 -383.533
L256.937 -383.657
L253.749 -383.775
L250.56 -383.888
L247.371 -383.995
L244.183 -384.097
L240.994 -384.194
L237.806 -384.287
L234.617 -384.376
L231.429 -384.462
L228.24 -384.543
L225.051 -384.622
L221.863 -384.697
L218.674 -384.769
L215.486 -384.839
L212.297 -384.906
L209.109 -384.97
L205.92 -385.032
L202.731 -385.092
L199.543 -385.149
L196.354 -385.205
L193.166 -385.259
L189.977 -385.311
L186.789 -385.361
L183.6 -385.409
L180.411 -385.457
L177.223 -385.502
L174.034 -385.546
L170.846 -385.589
L167.657 -385.63
L164.469 -385.671
L161.28 -385.71
L158.091 -385.748
L154.903 -385.784
L151.714 -385.82
L148.526 -385.855
L145.337 -385.889
L142.149 -385.922
L138.96 -385.954
L135.771 -385.985
L132.583 -386.015
L129.394 -386.045
L126.206 -386.074
L123.017 -386.101
L119.829 -386.129
L116.64 -386.155
L113.451 -386.18
L110.263 -386.204
L107.074 -386.226
L103.886 -386.244
L100.697 -386.257
L97.5086 -386.256
L94.32 -386.23
L91.1314 -386.163
L87.9429 -385.997
L84.7543 -385.686
L81.5657 -385.004
L78.3771 -383.695
L75.1886 -381.095
L72 -374.597
z
" id="mbdf7f8a702" style="stroke:#000000;"/>
    </defs>
    <g clip-path="url(#p7ff5b81e1d)">
     <use style="fill:#0000ff;stroke:#000000;" x="0.0" xlink:href="#mbdf7f8a702" y="432.0"/>
    </g>
   </g>
   <g id="PolyCollection_2">
    <defs>
     <path d="
M72 -379.332
L72 -374.597
L75.1886 -381.095
L78.3771 -383.695
L81.5657 -385.004
L84.7543 -385.686
L87.9429 -385.997
L91.1314 -386.163
L94.32 -386.23
L97.5086 -386.256
L100.697 -386.257
L103.886 -386.244
L107.074 -386.226
L110.263 -386.204
L113.451 -386.18
L116.64 -386.155
L119.829 -386.129
L123.017 -386.101
L126.206 -386.074
L129.394 -386.045
L132.583 -386.015
L135.771 -385.985
L138.96 -385.954
L142.149 -385.922
L145.337 -385.889
L148.526 -385.855
L151.714 -385.82
L154.903 -385.784
L158.091 -385.748
L161.28 -385.71
L164.469 -385.671
L167.657 -385.63
L170.846 -385.589
L174.034 -385.546
L177.223 -385.502
L180.411 -385.457
L183.6 -385.409
L186.789 -385.361
L189.977 -385.311
L193.166 -385.259
L196.354 -385.205
L199.543 -385.149
L202.731 -385.092
L205.92 -385.032
L209.109 -384.97
L212.297 -384.906
L215.486 -384.839
L218.674 -384.769
L221.863 -384.697
L225.051 -384.622
L228.24 -384.543
L231.429 -384.462
L234.617 -384.376
L237.806 -384.287
L240.994 -384.194
L244.183 -384.097
L247.371 -383.995
L250.56 -383.888
L253.749 -383.775
L256.937 -383.657
L260.126 -383.533
L263.314 -383.402
L266.503 -383.264
L269.691 -383.118
L272.88 -382.964
L276.069 -382.8
L279.257 -382.627
L282.446 -382.442
L285.634 -382.246
L288.823 -382.036
L292.011 -381.812
L295.2 -381.572
L298.389 -381.313
L301.577 -381.035
L304.766 -380.735
L307.954 -380.41
L311.143 -380.057
L314.331 -379.673
L317.52 -379.252
L320.709 -378.79
L323.897 -378.281
L327.086 -377.717
L330.274 -377.089
L333.463 -376.387
L336.651 -375.596
L339.84 -374.699
L343.029 -373.676
L346.217 -372.497
L349.406 -371.127
L352.594 -369.518
L355.783 -367.607
L358.971 -365.304
L362.16 -362.487
L365.349 -358.978
L368.537 -354.519
L371.726 -348.715
L374.914 -340.955
L378.103 -330.262
L381.291 -315.061
L384.48 -292.861
L387.669 -260.157
L390.857 -213.877
L394.046 -156.915
L397.234 -103.736
L400.423 -69.2419
L403.611 -52.9837
L406.8 -46.6526
L409.989 -44.3894
L413.177 -43.6062
L416.366 -43.3383
L419.554 -43.2471
L422.743 -43.216
L425.931 -43.2054
L429.12 -43.2018
L432.309 -43.2006
L435.497 -43.2002
L438.686 -43.2001
L441.874 -43.2
L445.063 -43.2
L448.251 -43.2
L451.44 -43.2
L454.629 -43.2
L457.817 -43.2
L461.006 -43.2
L464.194 -43.2
L467.383 -43.2
L470.571 -43.2
L473.76 -43.2
L476.949 -43.2
L480.137 -43.2
L483.326 -43.2
L486.514 -43.2
L489.703 -43.2
L492.891 -43.2
L496.08 -43.2
L499.269 -43.2
L502.457 -43.2
L505.646 -43.2
L508.834 -43.2
L512.023 -43.2
L515.211 -43.2
L518.4 -43.2
L518.4 -43.2
L518.4 -43.2
L515.211 -43.2
L512.023 -43.2
L508.834 -43.2
L505.646 -43.2
L502.457 -43.2
L499.269 -43.2
L496.08 -43.2
L492.891 -43.2
L489.703 -43.2
L486.514 -43.2
L483.326 -43.2
L480.137 -43.2
L476.949 -43.2
L473.76 -43.2
L470.571 -43.2
L467.383 -43.2
L464.194 -43.2
L461.006 -43.2
L457.817 -43.2
L454.629 -43.2
L451.44 -43.2
L448.251 -43.2
L445.063 -43.2
L441.874 -43.2
L438.686 -43.2001
L435.497 -43.2002
L432.309 -43.2006
L429.12 -43.2018
L425.931 -43.2054
L422.743 -43.216
L419.554 -43.2471
L416.366 -43.3383
L413.177 -43.6062
L409.989 -44.3894
L406.8 -46.6526
L403.611 -52.9837
L400.423 -69.2419
L397.234 -103.736
L394.046 -156.915
L390.857 -213.877
L387.669 -260.157
L384.48 -292.861
L381.291 -315.061
L378.103 -330.262
L374.914 -340.955
L371.726 -348.715
L368.537 -354.519
L365.349 -358.978
L362.16 -362.487
L358.971 -365.304
L355.783 -367.607
L352.594 -369.518
L349.406 -371.127
L346.217 -372.497
L343.029 -373.676
L339.84 -374.699
L336.651 -375.596
L333.463 -376.387
L330.274 -377.089
L327.086 -377.717
L323.897 -378.281
L320.709 -378.79
L317.52 -379.252
L314.331 -379.673
L311.143 -380.057
L307.954 -380.41
L304.766 -380.735
L301.577 -381.035
L298.389 -381.313
L295.2 -381.572
L292.011 -381.812
L288.823 -382.036
L285.634 -382.246
L282.446 -382.442
L279.257 -382.627
L276.069 -382.8
L272.88 -382.964
L269.691 -383.118
L266.503 -383.264
L263.314 -383.402
L260.126 -383.533
L256.937 -383.657
L253.749 -383.775
L250.56 -383.888
L247.371 -383.995
L244.183 -384.097
L240.994 -384.194
L237.806 -384.287
L234.617 -384.376
L231.429 -384.462
L228.24 -384.543
L225.051 -384.622
L221.863 -384.697
L218.674 -384.769
L215.486 -384.839
L212.297 -384.906
L209.109 -384.97
L205.92 -385.032
L202.731 -385.092
L199.543 -385.149
L196.354 -385.205
L193.166 -385.259
L189.977 -385.311
L186.789 -385.361
L183.6 -385.409
L180.411 -385.457
L177.223 -385.502
L174.034 -385.546
L170.846 -385.589
L167.657 -385.63
L164.469 -385.671
L161.28 -385.71
L158.091 -385.748
L154.903 -385.784
L151.714 -385.82
L148.526 -385.855
L145.337 -385.889
L142.149 -385.922
L138.96 -385.954
L135.771 -385.985
L132.583 -386.015
L129.394 -386.045
L126.206 -386.074
L123.017 -386.102
L119.829 -386.129
L116.64 -386.156
L113.451 -386.181
L110.263 -386.206
L107.074 -386.229
L103.886 -386.251
L100.697 -386.27
L97.5086 -386.282
L94.32 -386.281
L91.1314 -386.261
L87.9429 -386.188
L84.7543 -386.056
L81.5657 -385.719
L78.3771 -385.067
L75.1886 -383.699
L72 -379.332
z
" id="m5afafa6abf" style="stroke:#000000;"/>
    </defs>
    <g clip-path="url(#p7ff5b81e1d)">
     <use style="fill:#008000;stroke:#000000;" x="0.0" xlink:href="#m5afafa6abf" y="432.0"/>
    </g>
   </g>
   <g id="PolyCollection_3">
    <defs>
     <path d="
M72 -384.066
L72 -379.332
L75.1886 -383.699
L78.3771 -385.067
L81.5657 -385.719
L84.7543 -386.056
L87.9429 -386.188
L91.1314 -386.261
L94.32 -386.281
L97.5086 -386.282
L100.697 -386.27
L103.886 -386.251
L107.074 -386.229
L110.263 -386.206
L113.451 -386.181
L116.64 -386.156
L119.829 -386.129
L123.017 -386.102
L126.206 -386.074
L129.394 -386.045
L132.583 -386.015
L135.771 -385.985
L138.96 -385.954
L142.149 -385.922
L145.337 -385.889
L148.526 -385.855
L151.714 -385.82
L154.903 -385.784
L158.091 -385.748
L161.28 -385.71
L164.469 -385.671
L167.657 -385.63
L170.846 -385.589
L174.034 -385.546
L177.223 -385.502
L180.411 -385.457
L183.6 -385.409
L186.789 -385.361
L189.977 -385.311
L193.166 -385.259
L196.354 -385.205
L199.543 -385.149
L202.731 -385.092
L205.92 -385.032
L209.109 -384.97
L212.297 -384.906
L215.486 -384.839
L218.674 -384.769
L221.863 -384.697
L225.051 -384.622
L228.24 -384.543
L231.429 -384.462
L234.617 -384.376
L237.806 -384.287
L240.994 -384.194
L244.183 -384.097
L247.371 -383.995
L250.56 -383.888
L253.749 -383.775
L256.937 -383.657
L260.126 -383.533
L263.314 -383.402
L266.503 -383.264
L269.691 -383.118
L272.88 -382.964
L276.069 -382.8
L279.257 -382.627
L282.446 -382.442
L285.634 -382.246
L288.823 -382.036
L292.011 -381.812
L295.2 -381.572
L298.389 -381.313
L301.577 -381.035
L304.766 -380.735
L307.954 -380.41
L311.143 -380.057
L314.331 -379.673
L317.52 -379.252
L320.709 -378.79
L323.897 -378.281
L327.086 -377.717
L330.274 -377.089
L333.463 -376.387
L336.651 -375.596
L339.84 -374.699
L343.029 -373.676
L346.217 -372.497
L349.406 -371.127
L352.594 -369.518
L355.783 -367.607
L358.971 -365.304
L362.16 -362.487
L365.349 -358.978
L368.537 -354.519
L371.726 -348.715
L374.914 -340.955
L378.103 -330.262
L381.291 -315.061
L384.48 -292.861
L387.669 -260.157
L390.857 -213.877
L394.046 -156.915
L397.234 -103.736
L400.423 -69.2419
L403.611 -52.9837
L406.8 -46.6526
L409.989 -44.3894
L413.177 -43.6062
L416.366 -43.3383
L419.554 -43.2471
L422.743 -43.216
L425.931 -43.2054
L429.12 -43.2018
L432.309 -43.2006
L435.497 -43.2002
L438.686 -43.2001
L441.874 -43.2
L445.063 -43.2
L448.251 -43.2
L451.44 -43.2
L454.629 -43.2
L457.817 -43.2
L461.006 -43.2
L464.194 -43.2
L467.383 -43.2
L470.571 -43.2
L473.76 -43.2
L476.949 -43.2
L480.137 -43.2
L483.326 -43.2
L486.514 -43.2
L489.703 -43.2
L492.891 -43.2
L496.08 -43.2
L499.269 -43.2
L502.457 -43.2
L505.646 -43.2
L508.834 -43.2
L512.023 -43.2
L515.211 -43.2
L518.4 -43.2
L518.4 -43.2
L518.4 -43.2
L515.211 -43.2
L512.023 -43.2
L508.834 -43.2
L505.646 -43.2
L502.457 -43.2
L499.269 -43.2
L496.08 -43.2
L492.891 -43.2
L489.703 -43.2
L486.514 -43.2
L483.326 -43.2
L480.137 -43.2
L476.949 -43.2
L473.76 -43.2
L470.571 -43.2
L467.383 -43.2
L464.194 -43.2
L461.006 -43.2
L457.817 -43.2
L454.629 -43.2
L451.44 -43.2
L448.251 -43.2
L445.063 -43.2
L441.874 -43.2
L438.686 -43.2001
L435.497 -43.2002
L432.309 -43.2006
L429.12 -43.2018
L425.931 -43.2054
L422.743 -43.216
L419.554 -43.2471
L416.366 -43.3383
L413.177 -43.6062
L409.989 -44.3894
L406.8 -46.6526
L403.611 -52.9837
L400.423 -69.2419
L397.234 -103.736
L394.046 -156.915
L390.857 -213.877
L387.669 -260.157
L384.48 -292.861
L381.291 -315.061
L378.103 -330.262
L374.914 -340.955
L371.726 -348.715
L368.537 -354.519
L365.349 -358.978
L362.16 -362.487
L358.971 -365.304
L355.783 -367.607
L352.594 -369.518
L349.406 -371.127
L346.217 -372.497
L343.029 -373.676
L339.84 -374.699
L336.651 -375.596
L333.463 -376.387
L330.274 -377.089
L327.086 -377.717
L323.897 -378.281
L320.709 -378.79
L317.52 -379.252
L314.331 -379.673
L311.143 -380.057
L307.954 -380.41
L304.766 -380.735
L301.577 -381.035
L298.389 -381.313
L295.2 -381.572
L292.011 -381.812
L288.823 -382.036
L285.634 -382.246
L282.446 -382.442
L279.257 -382.627
L276.069 -382.8
L272.88 -382.964
L269.691 -383.118
L266.503 -383.264
L263.314 -383.402
L260.126 -383.533
L256.937 -383.657
L253.749 -383.775
L250.56 -383.888
L247.371 -383.995
L244.183 -384.097
L240.994 -384.194
L237.806 -384.287
L234.617 -384.376
L231.429 -384.462
L228.24 -384.543
L225.051 -384.622
L221.863 -384.697
L218.674 -384.769
L215.486 -384.839
L212.297 -384.906
L209.109 -384.97
L205.92 -385.032
L202.731 -385.092
L199.543 -385.149
L196.354 -385.205
L193.166 -385.259
L189.977 -385.311
L186.789 -385.361
L183.6 -385.409
L180.411 -385.457
L177.223 -385.502
L174.034 -385.546
L170.846 -385.589
L167.657 -385.63
L164.469 -385.671
L161.28 -385.71
L158.091 -385.748
L154.903 -385.784
L151.714 -385.82
L148.526 -385.855
L145.337 -385.889
L142.149 -385.922
L138.96 -385.954
L135.771 -385.985
L132.583 -386.015
L129.394 -386.045
L126.206 -386.074
L123.017 -386.102
L119.829 -386.129
L116.64 -386.156
L113.451 -386.182
L110.263 -386.207
L107.074 -386.232
L103.886 -386.256
L100.697 -386.28
L97.5086 -386.303
L94.32 -386.326
L91.1314 -386.348
L87.9429 -386.369
L84.7543 -386.389
L81.5657 -386.408
L78.3771 -386.418
L75.1886 -386.257
L72 -384.066
z
" id="m3386eac648" style="stroke:#000000;"/>
    </defs>
    <g clip-path="url(#p7ff5b81e1d)">
     <use style="fill:#ff0000;stroke:#000000;" x="0.0" xlink:href="#m3386eac648" y="432.0"/>
    </g>
   </g>
   <g id="PolyCollection_4">
    <defs>
     <path d="
M72 -386.433
L72 -384.066
L75.1886 -386.257
L78.3771 -386.418
L81.5657 -386.408
L84.7543 -386.389
L87.9429 -386.369
L91.1314 -386.348
L94.32 -386.326
L97.5086 -386.303
L100.697 -386.28
L103.886 -386.256
L107.074 -386.232
L110.263 -386.207
L113.451 -386.182
L116.64 -386.156
L119.829 -386.129
L123.017 -386.102
L126.206 -386.074
L129.394 -386.045
L132.583 -386.015
L135.771 -385.985
L138.96 -385.954
L142.149 -385.922
L145.337 -385.889
L148.526 -385.855
L151.714 -385.82
L154.903 -385.784
L158.091 -385.748
L161.28 -385.71
L164.469 -385.671
L167.657 -385.63
L170.846 -385.589
L174.034 -385.546
L177.223 -385.502
L180.411 -385.457
L183.6 -385.409
L186.789 -385.361
L189.977 -385.311
L193.166 -385.259
L196.354 -385.205
L199.543 -385.149
L202.731 -385.092
L205.92 -385.032
L209.109 -384.97
L212.297 -384.906
L215.486 -384.839
L218.674 -384.769
L221.863 -384.697
L225.051 -384.622
L228.24 -384.543
L231.429 -384.462
L234.617 -384.376
L237.806 -384.287
L240.994 -384.194
L244.183 -384.097
L247.371 -383.995
L250.56 -383.888
L253.749 -383.775
L256.937 -383.657
L260.126 -383.533
L263.314 -383.402
L266.503 -383.264
L269.691 -383.118
L272.88 -382.964
L276.069 -382.8
L279.257 -382.627
L282.446 -382.442
L285.634 -382.246
L288.823 -382.036
L292.011 -381.812
L295.2 -381.572
L298.389 -381.313
L301.577 -381.035
L304.766 -380.735
L307.954 -380.41
L311.143 -380.057
L314.331 -379.673
L317.52 -379.252
L320.709 -378.79
L323.897 -378.281
L327.086 -377.717
L330.274 -377.089
L333.463 -376.387
L336.651 -375.596
L339.84 -374.699
L343.029 -373.676
L346.217 -372.497
L349.406 -371.127
L352.594 -369.518
L355.783 -367.607
L358.971 -365.304
L362.16 -362.487
L365.349 -358.978
L368.537 -354.519
L371.726 -348.715
L374.914 -340.955
L378.103 -330.262
L381.291 -315.061
L384.48 -292.861
L387.669 -260.157
L390.857 -213.877
L394.046 -156.915
L397.234 -103.736
L400.423 -69.2419
L403.611 -52.9837
L406.8 -46.6526
L409.989 -44.3894
L413.177 -43.6062
L416.366 -43.3383
L419.554 -43.2471
L422.743 -43.216
L425.931 -43.2054
L429.12 -43.2018
L432.309 -43.2006
L435.497 -43.2002
L438.686 -43.2001
L441.874 -43.2
L445.063 -43.2
L448.251 -43.2
L451.44 -43.2
L454.629 -43.2
L457.817 -43.2
L461.006 -43.2
L464.194 -43.2
L467.383 -43.2
L470.571 -43.2
L473.76 -43.2
L476.949 -43.2
L480.137 -43.2
L483.326 -43.2
L486.514 -43.2
L489.703 -43.2
L492.891 -43.2
L496.08 -43.2
L499.269 -43.2
L502.457 -43.2
L505.646 -43.2
L508.834 -43.2
L512.023 -43.2
L515.211 -43.2
L518.4 -43.2
L518.4 -388.8
L518.4 -388.8
L515.211 -388.8
L512.023 -388.8
L508.834 -388.8
L505.646 -388.8
L502.457 -388.8
L499.269 -388.8
L496.08 -388.8
L492.891 -388.8
L489.703 -388.8
L486.514 -388.8
L483.326 -388.8
L480.137 -388.8
L476.949 -388.8
L473.76 -388.8
L470.571 -388.8
L467.383 -388.8
L464.194 -388.8
L461.006 -388.8
L457.817 -388.8
L454.629 -388.8
L451.44 -388.8
L448.251 -388.8
L445.063 -388.8
L441.874 -388.8
L438.686 -388.8
L435.497 -388.8
L432.309 -388.8
L429.12 -388.8
L425.931 -388.8
L422.743 -388.8
L419.554 -388.8
L416.366 -388.8
L413.177 -388.8
L409.989 -388.8
L406.8 -388.8
L403.611 -388.8
L400.423 -388.8
L397.234 -388.8
L394.046 -388.8
L390.857 -388.8
L387.669 -388.8
L384.48 -388.8
L381.291 -388.8
L378.103 -388.8
L374.914 -388.8
L371.726 -388.8
L368.537 -388.8
L365.349 -388.8
L362.16 -388.8
L358.971 -388.8
L355.783 -388.8
L352.594 -388.8
L349.406 -388.8
L346.217 -388.8
L343.029 -388.8
L339.84 -388.8
L336.651 -388.8
L333.463 -388.8
L330.274 -388.8
L327.086 -388.8
L323.897 -388.8
L320.709 -388.8
L317.52 -388.8
L314.331 -388.8
L311.143 -388.8
L307.954 -388.8
L304.766 -388.8
L301.577 -388.8
L298.389 -388.8
L295.2 -388.8
L292.011 -388.8
L288.823 -388.8
L285.634 -388.8
L282.446 -388.8
L279.257 -388.8
L276.069 -388.8
L272.88 -388.8
L269.691 -388.8
L266.503 -388.8
L263.314 -388.8
L260.126 -388.8
L256.937 -388.8
L253.749 -388.8
L250.56 -388.8
L247.371 -388.8
L244.183 -388.8
L240.994 -388.8
L237.806 -388.8
L234.617 -388.8
L231.429 -388.8
L228.24 -388.8
L225.051 -388.8
L221.863 -388.8
L218.674 -388.8
L215.486 -388.8
L212.297 -388.8
L209.109 -388.8
L205.92 -388.8
L202.731 -388.8
L199.543 -388.8
L196.354 -388.8
L193.166 -388.8
L189.977 -388.8
L186.789 -388.8
L183.6 -388.8
L180.411 -388.8
L177.223 -388.8
L174.034 -388.8
L170.846 -388.8
L167.657 -388.8
L164.469 -388.8
L161.28 -388.8
L158.091 -388.8
L154.903 -388.8
L151.714 -388.8
L148.526 -388.8
L145.337 -388.8
L142.149 -388.8
L138.96 -388.8
L135.771 -388.8
L132.583 -388.8
L129.394 -388.8
L126.206 -388.8
L123.017 -388.8
L119.829 -388.8
L116.64 -388.8
L113.451 -388.8
L110.263 -388.8
L107.074 -388.8
L103.886 -388.8
L100.697 -388.8
L97.5086 -388.8
L94.32 -388.8
L91.1314 -388.8
L87.9429 -388.8
L84.7543 -388.8
L81.5657 -388.8
L78.3771 -388.792
L75.1886 -388.616
L72 -386.433
z
" id="mbc5e372c59" style="stroke:#000000;"/>
    </defs>
    <g clip-path="url(#p7ff5b81e1d)">
     <use style="fill:#00bfbf;stroke:#000000;" x="0.0" xlink:href="#mbc5e372c59" y="432.0"/>
    </g>
   </g>
   <g id="PolyCollection_5">
    <defs>
     <path d="
M72 -388.8
L72 -386.433
L75.1886 -388.616
L78.3771 -388.792
L81.5657 -388.8
L84.7543 -388.8
L87.9429 -388.8
L91.1314 -388.8
L94.32 -388.8
L97.5086 -388.8
L100.697 -388.8
L103.886 -388.8
L107.074 -388.8
L110.263 -388.8
L113.451 -388.8
L116.64 -388.8
L119.829 -388.8
L123.017 -388.8
L126.206 -388.8
L129.394 -388.8
L132.583 -388.8
L135.771 -388.8
L138.96 -388.8
L142.149 -388.8
L145.337 -388.8
L148.526 -388.8
L151.714 -388.8
L154.903 -388.8
L158.091 -388.8
L161.28 -388.8
L164.469 -388.8
L167.657 -388.8
L170.846 -388.8
L174.034 -388.8
L177.223 -388.8
L180.411 -388.8
L183.6 -388.8
L186.789 -388.8
L189.977 -388.8
L193.166 -388.8
L196.354 -388.8
L199.543 -388.8
L202.731 -388.8
L205.92 -388.8
L209.109 -388.8
L212.297 -388.8
L215.486 -388.8
L218.674 -388.8
L221.863 -388.8
L225.051 -388.8
L228.24 -388.8
L231.429 -388.8
L234.617 -388.8
L237.806 -388.8
L240.994 -388.8
L244.183 -388.8
L247.371 -388.8
L250.56 -388.8
L253.749 -388.8
L256.937 -388.8
L260.126 -388.8
L263.314 -388.8
L266.503 -388.8
L269.691 -388.8
L272.88 -388.8
L276.069 -388.8
L279.257 -388.8
L282.446 -388.8
L285.634 -388.8
L288.823 -388.8
L292.011 -388.8
L295.2 -388.8
L298.389 -388.8
L301.577 -388.8
L304.766 -388.8
L307.954 -388.8
L311.143 -388.8
L314.331 -388.8
L317.52 -388.8
L320.709 -388.8
L323.897 -388.8
L327.086 -388.8
L330.274 -388.8
L333.463 -388.8
L336.651 -388.8
L339.84 -388.8
L343.029 -388.8
L346.217 -388.8
L349.406 -388.8
L352.594 -388.8
L355.783 -388.8
L358.971 -388.8
L362.16 -388.8
L365.349 -388.8
L368.537 -388.8
L371.726 -388.8
L374.914 -388.8
L378.103 -388.8
L381.291 -388.8
L384.48 -388.8
L387.669 -388.8
L390.857 -388.8
L394.046 -388.8
L397.234 -388.8
L400.423 -388.8
L403.611 -388.8
L406.8 -388.8
L409.989 -388.8
L413.177 -388.8
L416.366 -388.8
L419.554 -388.8
L422.743 -388.8
L425.931 -388.8
L429.12 -388.8
L432.309 -388.8
L435.497 -388.8
L438.686 -388.8
L441.874 -388.8
L445.063 -388.8
L448.251 -388.8
L451.44 -388.8
L454.629 -388.8
L457.817 -388.8
L461.006 -388.8
L464.194 -388.8
L467.383 -388.8
L470.571 -388.8
L473.76 -388.8
L476.949 -388.8
L480.137 -388.8
L483.326 -388.8
L486.514 -388.8
L489.703 -388.8
L492.891 -388.8
L496.08 -388.8
L499.269 -388.8
L502.457 -388.8
L505.646 -388.8
L508.834 -388.8
L512.023 -388.8
L515.211 -388.8
L518.4 -388.8
L518.4 -388.8
L518.4 -388.8
L515.211 -388.8
L512.023 -388.8
L508.834 -388.8
L505.646 -388.8
L502.457 -388.8
L499.269 -388.8
L496.08 -388.8
L492.891 -388.8
L489.703 -388.8
L486.514 -388.8
L483.326 -388.8
L480.137 -388.8
L476.949 -388.8
L473.76 -388.8
L470.571 -388.8
L467.383 -388.8
L464.194 -388.8
L461.006 -388.8
L457.817 -388.8
L454.629 -388.8
L451.44 -388.8
L448.251 -388.8
L445.063 -388.8
L441.874 -388.8
L438.686 -388.8
L435.497 -388.8
L432.309 -388.8
L429.12 -388.8
L425.931 -388.8
L422.743 -388.8
L419.554 -388.8
L416.366 -388.8
L413.177 -388.8
L409.989 -388.8
L406.8 -388.8
L403.611 -388.8
L400.423 -388.8
L397.234 -388.8
L394.046 -388.8
L390.857 -388.8
L387.669 -388.8
L384.48 -388.8
L381.291 -388.8
L378.103 -388.8
L374.914 -388.8
L371.726 -388.8
L368.537 -388.8
L365.349 -388.8
L362.16 -388.8
L358.971 -388.8
L355.783 -388.8
L352.594 -388.8
L349.406 -388.8
L346.217 -388.8
L343.029 -388.8
L339.84 -388.8
L336.651 -388.8
L333.463 -388.8
L330.274 -388.8
L327.086 -388.8
L323.897 -388.8
L320.709 -388.8
L317.52 -388.8
L314.331 -388.8
L311.143 -388.8
L307.954 -388.8
L304.766 -388.8
L301.577 -388.8
L298.389 -388.8
L295.2 -388.8
L292.011 -388.8
L288.823 -388.8
L285.634 -388.8
L282.446 -388.8
L279.257 -388.8
L276.069 -388.8
L272.88 -388.8
L269.691 -388.8
L266.503 -388.8
L263.314 -388.8
L260.126 -388.8
L256.937 -388.8
L253.749 -388.8
L250.56 -388.8
L247.371 -388.8
L244.183 -388.8
L240.994 -388.8
L237.806 -388.8
L234.617 -388.8
L231.429 -388.8
L228.24 -388.8
L225.051 -388.8
L221.863 -388.8
L218.674 -388.8
L215.486 -388.8
L212.297 -388.8
L209.109 -388.8
L205.92 -388.8
L202.731 -388.8
L199.543 -388.8
L196.354 -388.8
L193.166 -388.8
L189.977 -388.8
L186.789 -388.8
L183.6 -388.8
L180.411 -388.8
L177.223 -388.8
L174.034 -388.8
L170.846 -388.8
L167.657 -388.8
L164.469 -388.8
L161.28 -388.8
L158.091 -388.8
L154.903 -388.8
L151.714 -388.8
L148.526 -388.8
L145.337 -388.8
L142.149 -388.8
L138.96 -388.8
L135.771 -388.8
L132.583 -388.8
L129.394 -388.8
L126.206 -388.8
L123.017 -388.8
L119.829 -388.8
L116.64 -388.8
L113.451 -388.8
L110.263 -388.8
L107.074 -388.8
L103.886 -388.8
L100.697 -388.8
L97.5086 -388.8
L94.32 -388.8
L91.1314 -388.8
L87.9429 -388.8
L84.7543 -388.8
L81.5657 -388.8
L78.3771 -388.8
L75.1886 -388.8
L72 -388.8
z
" id="mbd17989310" style="stroke:#000000;"/>
    </defs>
    <g clip-path="url(#p7ff5b81e1d)">
     <use style="fill:#bf00bf;stroke:#000000;" x="0.0" xlink:href="#mbd17989310" y="432.0"/>
    </g>
   </g>
   <g id="patch_3">
    <path d="
M72 43.2
L518.4 43.2" style="fill:none;stroke:#000000;stroke-linecap:square;stroke-linejoin:miter;"/>
   </g>
   <g id="patch_4">
    <path d="
M518.4 388.8
L518.4 43.2" style="fill:none;stroke:#000000;stroke-linecap:square;stroke-linejoin:miter;"/>
   </g>
   <g id="patch_5">
    <path d="
M72 388.8
L518.4 388.8" style="fill:none;stroke:#000000;stroke-linecap:square;stroke-linejoin:miter;"/>
   </g>
   <g id="patch_6">
    <path d="
M72 388.8
L72 43.2" style="fill:none;stroke:#000000;stroke-linecap:square;stroke-linejoin:miter;"/>
   </g>
   <g id="matplotlib.axis_1">
    <g id="xtick_1">
     <g id="line2d_1">
      <defs>
       <path d="
M0 0
L0 4" id="m741efc42ff" style="stroke:#000000;stroke-width:0.5;"/>
      </defs>
      <g>
       <use style="stroke:#000000;stroke-width:0.5;" x="72.0" xlink:href="#m741efc42ff" y="388.8"/>
      </g>
     </g>
     <g id="line2d_2">
      <defs>
       <path d="
M0 0
L0 -4" id="m93b0483c22" style="stroke:#000000;stroke-width:0.5;"/>
      </defs>
      <g>
       <use style="stroke:#000000;stroke-width:0.5;" x="72.0" xlink:href="#m93b0483c22" y="43.2"/>
      </g>
     </g>
     <g id="text_1">
      <!-- 0 -->
      <defs>
       <path d="
M31.7812 66.4062
Q24.1719 66.4062 20.3281 58.9062
Q16.5 51.4219 16.5 36.375
Q16.5 21.3906 20.3281 13.8906
Q24.1719 6.39062 31.7812 6.39062
Q39.4531 6.39062 43.2812 13.8906
Q47.125 21.3906 47.125 36.375
Q47.125 51.4219 43.2812 58.9062
Q39.4531 66.4062 31.7812 66.4062
M31.7812 74.2188
Q44.0469 74.2188 50.5156 64.5156
Q56.9844 54.8281 56.9844 36.375
Q56.9844 17.9688 50.5156 8.26562
Q44.0469 -1.42188 31.7812 -1.42188
Q19.5312 -1.42188 13.0625 8.26562
Q6.59375 17.9688 6.59375 36.375
Q6.59375 54.8281 13.0625 64.5156
Q19.5312 74.2188 31.7812 74.2188" id="BitstreamVeraSans-Roman-30"/>
      </defs>
      <g transform="translate(68.9765625 405.918125)scale(0.12 -0.12)">
       <use xlink:href="#BitstreamVeraSans-Roman-30"/>
      </g>
     </g>
    </g>
    <g id="xtick_2">
     <g id="line2d_3">
      <g>
       <use style="stroke:#000000;stroke-width:0.5;" x="135.771428571" xlink:href="#m741efc42ff" y="388.8"/>
      </g>
     </g>
     <g id="line2d_4">
      <g>
       <use style="stroke:#000000;stroke-width:0.5;" x="135.771428571" xlink:href="#m93b0483c22" y="43.2"/>
      </g>
     </g>
     <g id="text_2">
      <!-- 20 -->
      <defs>
       <path d="
M19.1875 8.29688
L53.6094 8.29688
L53.6094 0
L7.32812 0
L7.32812 8.29688
Q12.9375 14.1094 22.625 23.8906
Q32.3281 33.6875 34.8125 36.5312
Q39.5469 41.8438 41.4219 45.5312
Q43.3125 49.2188 43.3125 52.7812
Q43.3125 58.5938 39.2344 62.25
Q35.1562 65.9219 28.6094 65.9219
Q23.9688 65.9219 18.8125 64.3125
Q13.6719 62.7031 7.8125 59.4219
L7.8125 69.3906
Q13.7656 71.7812 18.9375 73
Q24.125 74.2188 28.4219 74.2188
Q39.75 74.2188 46.4844 68.5469
Q53.2188 62.8906 53.2188 53.4219
Q53.2188 48.9219 51.5312 44.8906
Q49.8594 40.875 45.4062 35.4062
Q44.1875 33.9844 37.6406 27.2188
Q31.1094 20.4531 19.1875 8.29688" id="BitstreamVeraSans-Roman-32"/>
      </defs>
      <g transform="translate(128.974553571 405.918125)scale(0.12 -0.12)">
       <use xlink:href="#BitstreamVeraSans-Roman-32"/>
       <use x="63.623046875" xlink:href="#BitstreamVeraSans-Roman-30"/>
      </g>
     </g>
    </g>
    <g id="xtick_3">
     <g id="line2d_5">
      <g>
       <use style="stroke:#000000;stroke-width:0.5;" x="199.542857143" xlink:href="#m741efc42ff" y="388.8"/>
      </g>
     </g>
     <g id="line2d_6">
      <g>
       <use style="stroke:#000000;stroke-width:0.5;" x="199.542857143" xlink:href="#m93b0483c22" y="43.2"/>
      </g>
     </g>
     <g id="text_3">
      <!-- 40 -->
      <defs>
       <path d="
M37.7969 64.3125
L12.8906 25.3906
L37.7969 25.3906
z

M35.2031 72.9062
L47.6094 72.9062
L47.6094 25.3906
L58.0156 25.3906
L58.0156 17.1875
L47.6094 17.1875
L47.6094 0
L37.7969 0
L37.7969 17.1875
L4.89062 17.1875
L4.89062 26.7031
z
" id="BitstreamVeraSans-Roman-34"/>
      </defs>
      <g transform="translate(192.599732143 405.918125)scale(0.12 -0.12)">
       <use xlink:href="#BitstreamVeraSans-Roman-34"/>
       <use x="63.623046875" xlink:href="#BitstreamVeraSans-Roman-30"/>
      </g>
     </g>
    </g>
    <g id="xtick_4">
     <g id="line2d_7">
      <g>
       <use style="stroke:#000000;stroke-width:0.5;" x="263.314285714" xlink:href="#m741efc42ff" y="388.8"/>
      </g>
     </g>
     <g id="line2d_8">
      <g>
       <use style="stroke:#000000;stroke-width:0.5;" x="263.314285714" xlink:href="#m93b0483c22" y="43.2"/>
      </g>
     </g>
     <g id="text_4">
      <!-- 60 -->
      <defs>
       <path d="
M33.0156 40.375
Q26.375 40.375 22.4844 35.8281
Q18.6094 31.2969 18.6094 23.3906
Q18.6094 15.5312 22.4844 10.9531
Q26.375 6.39062 33.0156 6.39062
Q39.6562 6.39062 43.5312 10.9531
Q47.4062 15.5312 47.4062 23.3906
Q47.4062 31.2969 43.5312 35.8281
Q39.6562 40.375 33.0156 40.375
M52.5938 71.2969
L52.5938 62.3125
Q48.875 64.0625 45.0938 64.9844
Q41.3125 65.9219 37.5938 65.9219
Q27.8281 65.9219 22.6719 59.3281
Q17.5312 52.7344 16.7969 39.4062
Q19.6719 43.6562 24.0156 45.9219
Q28.375 48.1875 33.5938 48.1875
Q44.5781 48.1875 50.9531 41.5156
Q57.3281 34.8594 57.3281 23.3906
Q57.3281 12.1562 50.6875 5.35938
Q44.0469 -1.42188 33.0156 -1.42188
Q20.3594 -1.42188 13.6719 8.26562
Q6.98438 17.9688 6.98438 36.375
Q6.98438 53.6562 15.1875 63.9375
Q23.3906 74.2188 37.2031 74.2188
Q40.9219 74.2188 44.7031 73.4844
Q48.4844 72.75 52.5938 71.2969" id="BitstreamVeraSans-Roman-36"/>
      </defs>
      <g transform="translate(256.496785714 405.918125)scale(0.12 -0.12)">
       <use xlink:href="#BitstreamVeraSans-Roman-36"/>
       <use x="63.623046875" xlink:href="#BitstreamVeraSans-Roman-30"/>
      </g>
     </g>
    </g>
    <g id="xtick_5">
     <g id="line2d_9">
      <g>
       <use style="stroke:#000000;stroke-width:0.5;" x="327.085714286" xlink:href="#m741efc42ff" y="388.8"/>
      </g>
     </g>
     <g id="line2d_10">
      <g>
       <use style="stroke:#000000;stroke-width:0.5;" x="327.085714286" xlink:href="#m93b0483c22" y="43.2"/>
      </g>
     </g>
     <g id="text_5">
      <!-- 80 -->
      <defs>
       <path d="
M31.7812 34.625
Q24.75 34.625 20.7188 30.8594
Q16.7031 27.0938 16.7031 20.5156
Q16.7031 13.9219 20.7188 10.1562
Q24.75 6.39062 31.7812 6.39062
Q38.8125 6.39062 42.8594 10.1719
Q46.9219 13.9688 46.9219 20.5156
Q46.9219 27.0938 42.8906 30.8594
Q38.875 34.625 31.7812 34.625
M21.9219 38.8125
Q15.5781 40.375 12.0312 44.7188
Q8.5 49.0781 8.5 55.3281
Q8.5 64.0625 14.7188 69.1406
Q20.9531 74.2188 31.7812 74.2188
Q42.6719 74.2188 48.875 69.1406
Q55.0781 64.0625 55.0781 55.3281
Q55.0781 49.0781 51.5312 44.7188
Q48 40.375 41.7031 38.8125
Q48.8281 37.1562 52.7969 32.3125
Q56.7812 27.4844 56.7812 20.5156
Q56.7812 9.90625 50.3125 4.23438
Q43.8438 -1.42188 31.7812 -1.42188
Q19.7344 -1.42188 13.25 4.23438
Q6.78125 9.90625 6.78125 20.5156
Q6.78125 27.4844 10.7812 32.3125
Q14.7969 37.1562 21.9219 38.8125
M18.3125 54.3906
Q18.3125 48.7344 21.8438 45.5625
Q25.3906 42.3906 31.7812 42.3906
Q38.1406 42.3906 41.7188 45.5625
Q45.3125 48.7344 45.3125 54.3906
Q45.3125 60.0625 41.7188 63.2344
Q38.1406 66.4062 31.7812 66.4062
Q25.3906 66.4062 21.8438 63.2344
Q18.3125 60.0625 18.3125 54.3906" id="BitstreamVeraSans-Roman-38"/>
      </defs>
      <g transform="translate(320.256026786 405.918125)scale(0.12 -0.12)">
       <use xlink:href="#BitstreamVeraSans-Roman-38"/>
       <use x="63.623046875" xlink:href="#BitstreamVeraSans-Roman-30"/>
      </g>
     </g>
    </g>
    <g id="xtick_6">
     <g id="line2d_11">
      <g>
       <use style="stroke:#000000;stroke-width:0.5;" x="390.857142857" xlink:href="#m741efc42ff" y="388.8"/>
      </g>
     </g>
     <g id="line2d_12">
      <g>
       <use style="stroke:#000000;stroke-width:0.5;" x="390.857142857" xlink:href="#m93b0483c22" y="43.2"/>
      </g>
     </g>
     <g id="text_6">
      <!-- 100 -->
      <defs>
       <path d="
M12.4062 8.29688
L28.5156 8.29688
L28.5156 63.9219
L10.9844 60.4062
L10.9844 69.3906
L28.4219 72.9062
L38.2812 72.9062
L38.2812 8.29688
L54.3906 8.29688
L54.3906 0
L12.4062 0
z
" id="BitstreamVeraSans-Roman-31"/>
      </defs>
      <g transform="translate(380.462142857 405.918125)scale(0.12 -0.12)">
       <use xlink:href="#BitstreamVeraSans-Roman-31"/>
       <use x="63.623046875" xlink:href="#BitstreamVeraSans-Roman-30"/>
       <use x="127.24609375" xlink:href="#BitstreamVeraSans-Roman-30"/>
      </g>
     </g>
    </g>
    <g id="xtick_7">
     <g id="line2d_13">
      <g>
       <use style="stroke:#000000;stroke-width:0.5;" x="454.628571429" xlink:href="#m741efc42ff" y="388.8"/>
      </g>
     </g>
     <g id="line2d_14">
      <g>
       <use style="stroke:#000000;stroke-width:0.5;" x="454.628571429" xlink:href="#m93b0483c22" y="43.2"/>
      </g>
     </g>
     <g id="text_7">
      <!-- 120 -->
      <g transform="translate(444.233571429 405.918125)scale(0.12 -0.12)">
       <use xlink:href="#BitstreamVeraSans-Roman-31"/>
       <use x="63.623046875" xlink:href="#BitstreamVeraSans-Roman-32"/>
       <use x="127.24609375" xlink:href="#BitstreamVeraSans-Roman-30"/>
      </g>
     </g>
    </g>
    <g id="xtick_8">
     <g id="line2d_15">
      <g>
       <use style="stroke:#000000;stroke-width:0.5;" x="518.4" xlink:href="#m741efc42ff" y="388.8"/>
      </g>
     </g>
     <g id="line2d_16">
      <g>
       <use style="stroke:#000000;stroke-width:0.5;" x="518.4" xlink:href="#m93b0483c22" y="43.2"/>
      </g>
     </g>
     <g id="text_8">
      <!-- 140 -->
      <g transform="translate(508.005 405.918125)scale(0.12 -0.12)">
       <use xlink:href="#BitstreamVeraSans-Roman-31"/>
       <use x="63.623046875" xlink:href="#BitstreamVeraSans-Roman-34"/>
       <use x="127.24609375" xlink:href="#BitstreamVeraSans-Roman-30"/>
      </g>
     </g>
    </g>
    <g id="text_9">
     <!-- Turn -->
     <defs>
      <path d="
M54.8906 33.0156
L54.8906 0
L45.9062 0
L45.9062 32.7188
Q45.9062 40.4844 42.875 44.3281
Q39.8438 48.1875 33.7969 48.1875
Q26.5156 48.1875 22.3125 43.5469
Q18.1094 38.9219 18.1094 30.9062
L18.1094 0
L9.07812 0
L9.07812 54.6875
L18.1094 54.6875
L18.1094 46.1875
Q21.3438 51.125 25.7031 53.5625
Q30.0781 56 35.7969 56
Q45.2188 56 50.0469 50.1719
Q54.8906 44.3438 54.8906 33.0156" id="BitstreamVeraSans-Roman-6e"/>
      <path d="
M41.1094 46.2969
Q39.5938 47.1719 37.8125 47.5781
Q36.0312 48 33.8906 48
Q26.2656 48 22.1875 43.0469
Q18.1094 38.0938 18.1094 28.8125
L18.1094 0
L9.07812 0
L9.07812 54.6875
L18.1094 54.6875
L18.1094 46.1875
Q20.9531 51.1719 25.4844 53.5781
Q30.0312 56 36.5312 56
Q37.4531 56 38.5781 55.875
Q39.7031 55.7656 41.0625 55.5156
z
" id="BitstreamVeraSans-Roman-72"/>
      <path d="
M8.5 21.5781
L8.5 54.6875
L17.4844 54.6875
L17.4844 21.9219
Q17.4844 14.1562 20.5 10.2656
Q23.5312 6.39062 29.5938 6.39062
Q36.8594 6.39062 41.0781 11.0312
Q45.3125 15.6719 45.3125 23.6875
L45.3125 54.6875
L54.2969 54.6875
L54.2969 0
L45.3125 0
L45.3125 8.40625
Q42.0469 3.42188 37.7188 1
Q33.4062 -1.42188 27.6875 -1.42188
Q18.2656 -1.42188 13.375 4.4375
Q8.5 10.2969 8.5 21.5781" id="BitstreamVeraSans-Roman-75"/>
      <path d="
M-0.296875 72.9062
L61.375 72.9062
L61.375 64.5938
L35.5 64.5938
L35.5 0
L25.5938 0
L25.5938 64.5938
L-0.296875 64.5938
z
" id="BitstreamVeraSans-Roman-54"/>
     </defs>
     <g transform="translate(282.9675 422.531875)scale(0.12 -0.12)">
      <use xlink:href="#BitstreamVeraSans-Roman-54"/>
      <use x="45.958984375" xlink:href="#BitstreamVeraSans-Roman-75"/>
      <use x="109.337890625" xlink:href="#BitstreamVeraSans-Roman-72"/>
      <use x="148.701171875" xlink:href="#BitstreamVeraSans-Roman-6e"/>
     </g>
    </g>
   </g>
   <g id="matplotlib.axis_2">
    <g id="ytick_1">
     <g id="line2d_17">
      <defs>
       <path d="
M0 0
L-4 0" id="mcb0005524f" style="stroke:#000000;stroke-width:0.5;"/>
      </defs>
      <g>
       <use style="stroke:#000000;stroke-width:0.5;" x="72.0" xlink:href="#mcb0005524f" y="354.24"/>
      </g>
     </g>
    </g>
    <g id="ytick_2">
     <g id="line2d_18">
      <g>
       <use style="stroke:#000000;stroke-width:0.5;" x="72.0" xlink:href="#mcb0005524f" y="285.12"/>
      </g>
     </g>
    </g>
    <g id="ytick_3">
     <g id="line2d_19">
      <g>
       <use style="stroke:#000000;stroke-width:0.5;" x="72.0" xlink:href="#mcb0005524f" y="216.0"/>
      </g>
     </g>
    </g>
    <g id="ytick_4">
     <g id="line2d_20">
      <g>
       <use style="stroke:#000000;stroke-width:0.5;" x="72.0" xlink:href="#mcb0005524f" y="146.88"/>
      </g>
     </g>
    </g>
    <g id="ytick_5">
     <g id="line2d_21">
      <g>
       <use style="stroke:#000000;stroke-width:0.5;" x="72.0" xlink:href="#mcb0005524f" y="77.76"/>
      </g>
     </g>
    </g>
    <g id="text_10">
     <!-- Relative population size -->
     <defs>
      <path id="BitstreamVeraSans-Roman-20"/>
      <path d="
M30.6094 48.3906
Q23.3906 48.3906 19.1875 42.75
Q14.9844 37.1094 14.9844 27.2969
Q14.9844 17.4844 19.1562 11.8438
Q23.3438 6.20312 30.6094 6.20312
Q37.7969 6.20312 41.9844 11.8594
Q46.1875 17.5312 46.1875 27.2969
Q46.1875 37.0156 41.9844 42.7031
Q37.7969 48.3906 30.6094 48.3906
M30.6094 56
Q42.3281 56 49.0156 48.375
Q55.7188 40.7656 55.7188 27.2969
Q55.7188 13.875 49.0156 6.21875
Q42.3281 -1.42188 30.6094 -1.42188
Q18.8438 -1.42188 12.1719 6.21875
Q5.51562 13.875 5.51562 27.2969
Q5.51562 40.7656 12.1719 48.375
Q18.8438 56 30.6094 56" id="BitstreamVeraSans-Roman-6f"/>
      <path d="
M9.42188 75.9844
L18.4062 75.9844
L18.4062 0
L9.42188 0
z
" id="BitstreamVeraSans-Roman-6c"/>
      <path d="
M5.51562 54.6875
L48.1875 54.6875
L48.1875 46.4844
L14.4062 7.17188
L48.1875 7.17188
L48.1875 0
L4.29688 0
L4.29688 8.20312
L38.0938 47.5156
L5.51562 47.5156
z
" id="BitstreamVeraSans-Roman-7a"/>
      <path d="
M2.98438 54.6875
L12.5 54.6875
L29.5938 8.79688
L46.6875 54.6875
L56.2031 54.6875
L35.6875 0
L23.4844 0
z
" id="BitstreamVeraSans-Roman-76"/>
      <path d="
M44.3906 34.1875
Q47.5625 33.1094 50.5625 29.5938
Q53.5625 26.0781 56.5938 19.9219
L66.6094 0
L56 0
L46.6875 18.7031
Q43.0625 26.0312 39.6719 28.4219
Q36.2812 30.8125 30.4219 30.8125
L19.6719 30.8125
L19.6719 0
L9.8125 0
L9.8125 72.9062
L32.0781 72.9062
Q44.5781 72.9062 50.7344 67.6719
Q56.8906 62.4531 56.8906 51.9062
Q56.8906 45.0156 53.6875 40.4688
Q50.4844 35.9375 44.3906 34.1875
M19.6719 64.7969
L19.6719 38.9219
L32.0781 38.9219
Q39.2031 38.9219 42.8438 42.2188
Q46.4844 45.5156 46.4844 51.9062
Q46.4844 58.2969 42.8438 61.5469
Q39.2031 64.7969 32.0781 64.7969
z
" id="BitstreamVeraSans-Roman-52"/>
      <path d="
M9.42188 54.6875
L18.4062 54.6875
L18.4062 0
L9.42188 0
z

M9.42188 75.9844
L18.4062 75.9844
L18.4062 64.5938
L9.42188 64.5938
z
" id="BitstreamVeraSans-Roman-69"/>
      <path d="
M56.2031 29.5938
L56.2031 25.2031
L14.8906 25.2031
Q15.4844 15.9219 20.4844 11.0625
Q25.4844 6.20312 34.4219 6.20312
Q39.5938 6.20312 44.4531 7.46875
Q49.3125 8.73438 54.1094 11.2812
L54.1094 2.78125
Q49.2656 0.734375 44.1875 -0.34375
Q39.1094 -1.42188 33.8906 -1.42188
Q20.7969 -1.42188 13.1562 6.1875
Q5.51562 13.8125 5.51562 26.8125
Q5.51562 40.2344 12.7656 48.1094
Q20.0156 56 32.3281 56
Q43.3594 56 49.7812 48.8906
Q56.2031 41.7969 56.2031 29.5938
M47.2188 32.2344
Q47.125 39.5938 43.0938 43.9844
Q39.0625 48.3906 32.4219 48.3906
Q24.9062 48.3906 20.3906 44.1406
Q15.875 39.8906 15.1875 32.1719
z
" id="BitstreamVeraSans-Roman-65"/>
      <path d="
M18.3125 70.2188
L18.3125 54.6875
L36.8125 54.6875
L36.8125 47.7031
L18.3125 47.7031
L18.3125 18.0156
Q18.3125 11.3281 20.1406 9.42188
Q21.9688 7.51562 27.5938 7.51562
L36.8125 7.51562
L36.8125 0
L27.5938 0
Q17.1875 0 13.2344 3.875
Q9.28125 7.76562 9.28125 18.0156
L9.28125 47.7031
L2.6875 47.7031
L2.6875 54.6875
L9.28125 54.6875
L9.28125 70.2188
z
" id="BitstreamVeraSans-Roman-74"/>
      <path d="
M34.2812 27.4844
Q23.3906 27.4844 19.1875 25
Q14.9844 22.5156 14.9844 16.5
Q14.9844 11.7188 18.1406 8.90625
Q21.2969 6.10938 26.7031 6.10938
Q34.1875 6.10938 38.7031 11.4062
Q43.2188 16.7031 43.2188 25.4844
L43.2188 27.4844
z

M52.2031 31.2031
L52.2031 0
L43.2188 0
L43.2188 8.29688
Q40.1406 3.32812 35.5469 0.953125
Q30.9531 -1.42188 24.3125 -1.42188
Q15.9219 -1.42188 10.9531 3.29688
Q6 8.01562 6 15.9219
Q6 25.1406 12.1719 29.8281
Q18.3594 34.5156 30.6094 34.5156
L43.2188 34.5156
L43.2188 35.4062
Q43.2188 41.6094 39.1406 45
Q35.0625 48.3906 27.6875 48.3906
Q23 48.3906 18.5469 47.2656
Q14.1094 46.1406 10.0156 43.8906
L10.0156 52.2031
Q14.9375 54.1094 19.5781 55.0469
Q24.2188 56 28.6094 56
Q40.4844 56 46.3438 49.8438
Q52.2031 43.7031 52.2031 31.2031" id="BitstreamVeraSans-Roman-61"/>
      <path d="
M44.2812 53.0781
L44.2812 44.5781
Q40.4844 46.5312 36.375 47.5
Q32.2812 48.4844 27.875 48.4844
Q21.1875 48.4844 17.8438 46.4375
Q14.5 44.3906 14.5 40.2812
Q14.5 37.1562 16.8906 35.375
Q19.2812 33.5938 26.5156 31.9844
L29.5938 31.2969
Q39.1562 29.25 43.1875 25.5156
Q47.2188 21.7812 47.2188 15.0938
Q47.2188 7.46875 41.1875 3.01562
Q35.1562 -1.42188 24.6094 -1.42188
Q20.2188 -1.42188 15.4531 -0.5625
Q10.6875 0.296875 5.42188 2
L5.42188 11.2812
Q10.4062 8.6875 15.2344 7.39062
Q20.0625 6.10938 24.8125 6.10938
Q31.1562 6.10938 34.5625 8.28125
Q37.9844 10.4531 37.9844 14.4062
Q37.9844 18.0625 35.5156 20.0156
Q33.0625 21.9688 24.7031 23.7812
L21.5781 24.5156
Q13.2344 26.2656 9.51562 29.9062
Q5.8125 33.5469 5.8125 39.8906
Q5.8125 47.6094 11.2812 51.7969
Q16.75 56 26.8125 56
Q31.7812 56 36.1719 55.2656
Q40.5781 54.5469 44.2812 53.0781" id="BitstreamVeraSans-Roman-73"/>
      <path d="
M18.1094 8.20312
L18.1094 -20.7969
L9.07812 -20.7969
L9.07812 54.6875
L18.1094 54.6875
L18.1094 46.3906
Q20.9531 51.2656 25.2656 53.625
Q29.5938 56 35.5938 56
Q45.5625 56 51.7812 48.0938
Q58.0156 40.1875 58.0156 27.2969
Q58.0156 14.4062 51.7812 6.48438
Q45.5625 -1.42188 35.5938 -1.42188
Q29.5938 -1.42188 25.2656 0.953125
Q20.9531 3.32812 18.1094 8.20312
M48.6875 27.2969
Q48.6875 37.2031 44.6094 42.8438
Q40.5312 48.4844 33.4062 48.4844
Q26.2656 48.4844 22.1875 42.8438
Q18.1094 37.2031 18.1094 27.2969
Q18.1094 17.3906 22.1875 11.75
Q26.2656 6.10938 33.4062 6.10938
Q40.5312 6.10938 44.6094 11.75
Q48.6875 17.3906 48.6875 27.2969" id="BitstreamVeraSans-Roman-70"/>
     </defs>
     <g transform="translate(552.518125 287.2528125)rotate(-90.0)scale(0.12 -0.12)">
      <use xlink:href="#BitstreamVeraSans-Roman-52"/>
      <use x="64.982421875" xlink:href="#BitstreamVeraSans-Roman-65"/>
      <use x="126.505859375" xlink:href="#BitstreamVeraSans-Roman-6c"/>
      <use x="154.2890625" xlink:href="#BitstreamVeraSans-Roman-61"/>
      <use x="215.568359375" xlink:href="#BitstreamVeraSans-Roman-74"/>
      <use x="254.77734375" xlink:href="#BitstreamVeraSans-Roman-69"/>
      <use x="282.560546875" xlink:href="#BitstreamVeraSans-Roman-76"/>
      <use x="341.740234375" xlink:href="#BitstreamVeraSans-Roman-65"/>
      <use x="403.263671875" xlink:href="#BitstreamVeraSans-Roman-20"/>
      <use x="435.05078125" xlink:href="#BitstreamVeraSans-Roman-70"/>
      <use x="498.52734375" xlink:href="#BitstreamVeraSans-Roman-6f"/>
      <use x="559.708984375" xlink:href="#BitstreamVeraSans-Roman-70"/>
      <use x="623.185546875" xlink:href="#BitstreamVeraSans-Roman-75"/>
      <use x="686.564453125" xlink:href="#BitstreamVeraSans-Roman-6c"/>
      <use x="714.34765625" xlink:href="#BitstreamVeraSans-Roman-61"/>
      <use x="775.626953125" xlink:href="#BitstreamVeraSans-Roman-74"/>
      <use x="814.8359375" xlink:href="#BitstreamVeraSans-Roman-69"/>
      <use x="842.619140625" xlink:href="#BitstreamVeraSans-Roman-6f"/>
      <use x="903.80078125" xlink:href="#BitstreamVeraSans-Roman-6e"/>
      <use x="967.1796875" xlink:href="#BitstreamVeraSans-Roman-20"/>
      <use x="998.966796875" xlink:href="#BitstreamVeraSans-Roman-73"/>
      <use x="1051.06640625" xlink:href="#BitstreamVeraSans-Roman-69"/>
      <use x="1078.84960938" xlink:href="#BitstreamVeraSans-Roman-7a"/>
      <use x="1131.33984375" xlink:href="#BitstreamVeraSans-Roman-65"/>
     </g>
    </g>
   </g>
   <g id="text_11">
    <!-- Defector -->
    <defs>
     <path d="
M19.6719 64.7969
L19.6719 8.10938
L31.5938 8.10938
Q46.6875 8.10938 53.6875 14.9375
Q60.6875 21.7812 60.6875 36.5312
Q60.6875 51.1719 53.6875 57.9844
Q46.6875 64.7969 31.5938 64.7969
z

M9.8125 72.9062
L30.0781 72.9062
Q51.2656 72.9062 61.1719 64.0938
Q71.0938 55.2812 71.0938 36.5312
Q71.0938 17.6719 61.125 8.82812
Q51.1719 0 30.0781 0
L9.8125 0
z
" id="BitstreamVeraSans-Roman-44"/>
     <path d="
M37.1094 75.9844
L37.1094 68.5
L28.5156 68.5
Q23.6875 68.5 21.7969 66.5469
Q19.9219 64.5938 19.9219 59.5156
L19.9219 54.6875
L34.7188 54.6875
L34.7188 47.7031
L19.9219 47.7031
L19.9219 0
L10.8906 0
L10.8906 47.7031
L2.29688 47.7031
L2.29688 54.6875
L10.8906 54.6875
L10.8906 58.5
Q10.8906 67.625 15.1406 71.7969
Q19.3906 75.9844 28.6094 75.9844
z
" id="BitstreamVeraSans-Roman-66"/>
     <path d="
M48.7812 52.5938
L48.7812 44.1875
Q44.9688 46.2969 41.1406 47.3438
Q37.3125 48.3906 33.4062 48.3906
Q24.6562 48.3906 19.8125 42.8438
Q14.9844 37.3125 14.9844 27.2969
Q14.9844 17.2812 19.8125 11.7344
Q24.6562 6.20312 33.4062 6.20312
Q37.3125 6.20312 41.1406 7.25
Q44.9688 8.29688 48.7812 10.4062
L48.7812 2.09375
Q45.0156 0.34375 40.9844 -0.53125
Q36.9688 -1.42188 32.4219 -1.42188
Q20.0625 -1.42188 12.7812 6.34375
Q5.51562 14.1094 5.51562 27.2969
Q5.51562 40.6719 12.8594 48.3281
Q20.2188 56 33.0156 56
Q37.1562 56 41.1094 55.1406
Q45.0625 54.2969 48.7812 52.5938" id="BitstreamVeraSans-Roman-63"/>
    </defs>
    <g transform="translate(29.317 356.4475)scale(0.08 -0.08)">
     <use xlink:href="#BitstreamVeraSans-Roman-44"/>
     <use x="77.001953125" xlink:href="#BitstreamVeraSans-Roman-65"/>
     <use x="138.525390625" xlink:href="#BitstreamVeraSans-Roman-66"/>
     <use x="173.73046875" xlink:href="#BitstreamVeraSans-Roman-65"/>
     <use x="235.25390625" xlink:href="#BitstreamVeraSans-Roman-63"/>
     <use x="290.234375" xlink:href="#BitstreamVeraSans-Roman-74"/>
     <use x="329.443359375" xlink:href="#BitstreamVeraSans-Roman-6f"/>
     <use x="390.625" xlink:href="#BitstreamVeraSans-Roman-72"/>
    </g>
   </g>
   <g id="text_12">
    <!-- Alternator -->
    <defs>
     <path d="
M34.1875 63.1875
L20.7969 26.9062
L47.6094 26.9062
z

M28.6094 72.9062
L39.7969 72.9062
L67.5781 0
L57.3281 0
L50.6875 18.7031
L17.8281 18.7031
L11.1875 0
L0.78125 0
z
" id="BitstreamVeraSans-Roman-41"/>
    </defs>
    <g transform="translate(22.9395 287.3275)scale(0.08 -0.08)">
     <use xlink:href="#BitstreamVeraSans-Roman-41"/>
     <use x="68.408203125" xlink:href="#BitstreamVeraSans-Roman-6c"/>
     <use x="96.19140625" xlink:href="#BitstreamVeraSans-Roman-74"/>
     <use x="135.400390625" xlink:href="#BitstreamVeraSans-Roman-65"/>
     <use x="196.923828125" xlink:href="#BitstreamVeraSans-Roman-72"/>
     <use x="236.287109375" xlink:href="#BitstreamVeraSans-Roman-6e"/>
     <use x="299.666015625" xlink:href="#BitstreamVeraSans-Roman-61"/>
     <use x="360.9453125" xlink:href="#BitstreamVeraSans-Roman-74"/>
     <use x="400.154296875" xlink:href="#BitstreamVeraSans-Roman-6f"/>
     <use x="461.3359375" xlink:href="#BitstreamVeraSans-Roman-72"/>
    </g>
   </g>
   <g id="text_13">
    <!-- Random -->
    <defs>
     <path d="
M45.4062 46.3906
L45.4062 75.9844
L54.3906 75.9844
L54.3906 0
L45.4062 0
L45.4062 8.20312
Q42.5781 3.32812 38.25 0.953125
Q33.9375 -1.42188 27.875 -1.42188
Q17.9688 -1.42188 11.7344 6.48438
Q5.51562 14.4062 5.51562 27.2969
Q5.51562 40.1875 11.7344 48.0938
Q17.9688 56 27.875 56
Q33.9375 56 38.25 53.625
Q42.5781 51.2656 45.4062 46.3906
M14.7969 27.2969
Q14.7969 17.3906 18.875 11.75
Q22.9531 6.10938 30.0781 6.10938
Q37.2031 6.10938 41.2969 11.75
Q45.4062 17.3906 45.4062 27.2969
Q45.4062 37.2031 41.2969 42.8438
Q37.2031 48.4844 30.0781 48.4844
Q22.9531 48.4844 18.875 42.8438
Q14.7969 37.2031 14.7969 27.2969" id="BitstreamVeraSans-Roman-64"/>
     <path d="
M52 44.1875
Q55.375 50.25 60.0625 53.125
Q64.75 56 71.0938 56
Q79.6406 56 84.2812 50.0156
Q88.9219 44.0469 88.9219 33.0156
L88.9219 0
L79.8906 0
L79.8906 32.7188
Q79.8906 40.5781 77.0938 44.375
Q74.3125 48.1875 68.6094 48.1875
Q61.625 48.1875 57.5625 43.5469
Q53.5156 38.9219 53.5156 30.9062
L53.5156 0
L44.4844 0
L44.4844 32.7188
Q44.4844 40.625 41.7031 44.4062
Q38.9219 48.1875 33.1094 48.1875
Q26.2188 48.1875 22.1562 43.5312
Q18.1094 38.875 18.1094 30.9062
L18.1094 0
L9.07812 0
L9.07812 54.6875
L18.1094 54.6875
L18.1094 46.1875
Q21.1875 51.2188 25.4844 53.6094
Q29.7812 56 35.6875 56
Q41.6562 56 45.8281 52.9688
Q50 49.9531 52 44.1875" id="BitstreamVeraSans-Roman-6d"/>
    </defs>
    <g transform="translate(31.41825 218.2075)scale(0.08 -0.08)">
     <use xlink:href="#BitstreamVeraSans-Roman-52"/>
     <use x="67.232421875" xlink:href="#BitstreamVeraSans-Roman-61"/>
     <use x="128.51171875" xlink:href="#BitstreamVeraSans-Roman-6e"/>
     <use x="191.890625" xlink:href="#BitstreamVeraSans-Roman-64"/>
     <use x="255.3671875" xlink:href="#BitstreamVeraSans-Roman-6f"/>
     <use x="316.548828125" xlink:href="#BitstreamVeraSans-Roman-6d"/>
    </g>
   </g>
   <g id="text_14">
    <!-- Tit For Tat -->
    <defs>
     <path d="
M9.8125 72.9062
L51.7031 72.9062
L51.7031 64.5938
L19.6719 64.5938
L19.6719 43.1094
L48.5781 43.1094
L48.5781 34.8125
L19.6719 34.8125
L19.6719 0
L9.8125 0
z
" id="BitstreamVeraSans-Roman-46"/>
    </defs>
    <g transform="translate(24.0595 149.0875)scale(0.08 -0.08)">
     <use xlink:href="#BitstreamVeraSans-Roman-54"/>
     <use x="57.958984375" xlink:href="#BitstreamVeraSans-Roman-69"/>
     <use x="85.7421875" xlink:href="#BitstreamVeraSans-Roman-74"/>
     <use x="124.951171875" xlink:href="#BitstreamVeraSans-Roman-20"/>
     <use x="156.73828125" xlink:href="#BitstreamVeraSans-Roman-46"/>
     <use x="210.6328125" xlink:href="#BitstreamVeraSans-Roman-6f"/>
     <use x="271.814453125" xlink:href="#BitstreamVeraSans-Roman-72"/>
     <use x="312.927734375" xlink:href="#BitstreamVeraSans-Roman-20"/>
     <use x="344.71484375" xlink:href="#BitstreamVeraSans-Roman-54"/>
     <use x="389.298828125" xlink:href="#BitstreamVeraSans-Roman-61"/>
     <use x="450.578125" xlink:href="#BitstreamVeraSans-Roman-74"/>
    </g>
   </g>
   <g id="text_15">
    <!-- Cooperator -->
    <defs>
     <path d="
M64.4062 67.2812
L64.4062 56.8906
Q59.4219 61.5312 53.7812 63.8125
Q48.1406 66.1094 41.7969 66.1094
Q29.2969 66.1094 22.6562 58.4688
Q16.0156 50.8281 16.0156 36.375
Q16.0156 21.9688 22.6562 14.3281
Q29.2969 6.6875 41.7969 6.6875
Q48.1406 6.6875 53.7812 8.98438
Q59.4219 11.2812 64.4062 15.9219
L64.4062 5.60938
Q59.2344 2.09375 53.4375 0.328125
Q47.6562 -1.42188 41.2188 -1.42188
Q24.6562 -1.42188 15.125 8.70312
Q5.60938 18.8438 5.60938 36.375
Q5.60938 53.9531 15.125 64.0781
Q24.6562 74.2188 41.2188 74.2188
Q47.75 74.2188 53.5312 72.4844
Q59.3281 70.75 64.4062 67.2812" id="BitstreamVeraSans-Roman-43"/>
    </defs>
    <g transform="translate(18.632 79.9675)scale(0.08 -0.08)">
     <use xlink:href="#BitstreamVeraSans-Roman-43"/>
     <use x="69.82421875" xlink:href="#BitstreamVeraSans-Roman-6f"/>
     <use x="131.005859375" xlink:href="#BitstreamVeraSans-Roman-6f"/>
     <use x="192.1875" xlink:href="#BitstreamVeraSans-Roman-70"/>
     <use x="255.6640625" xlink:href="#BitstreamVeraSans-Roman-65"/>
     <use x="317.1875" xlink:href="#BitstreamVeraSans-Roman-72"/>
     <use x="358.30078125" xlink:href="#BitstreamVeraSans-Roman-61"/>
     <use x="419.580078125" xlink:href="#BitstreamVeraSans-Roman-74"/>
     <use x="458.7890625" xlink:href="#BitstreamVeraSans-Roman-6f"/>
     <use x="519.970703125" xlink:href="#BitstreamVeraSans-Roman-72"/>
    </g>
   </g>
   <g id="text_16">
    <!-- Strategy population dynamics based on average payoffs -->
    <defs>
     <path d="
M45.4062 27.9844
Q45.4062 37.75 41.375 43.1094
Q37.3594 48.4844 30.0781 48.4844
Q22.8594 48.4844 18.8281 43.1094
Q14.7969 37.75 14.7969 27.9844
Q14.7969 18.2656 18.8281 12.8906
Q22.8594 7.51562 30.0781 7.51562
Q37.3594 7.51562 41.375 12.8906
Q45.4062 18.2656 45.4062 27.9844
M54.3906 6.78125
Q54.3906 -7.17188 48.1875 -13.9844
Q42 -20.7969 29.2031 -20.7969
Q24.4688 -20.7969 20.2656 -20.0938
Q16.0625 -19.3906 12.1094 -17.9219
L12.1094 -9.1875
Q16.0625 -11.3281 19.9219 -12.3438
Q23.7812 -13.375 27.7812 -13.375
Q36.625 -13.375 41.0156 -8.76562
Q45.4062 -4.15625 45.4062 5.17188
L45.4062 9.625
Q42.625 4.78125 38.2812 2.39062
Q33.9375 0 27.875 0
Q17.8281 0 11.6719 7.65625
Q5.51562 15.3281 5.51562 27.9844
Q5.51562 40.6719 11.6719 48.3281
Q17.8281 56 27.875 56
Q33.9375 56 38.2812 53.6094
Q42.625 51.2188 45.4062 46.3906
L45.4062 54.6875
L54.3906 54.6875
z
" id="BitstreamVeraSans-Roman-67"/>
     <path d="
M53.5156 70.5156
L53.5156 60.8906
Q47.9062 63.5781 42.9219 64.8906
Q37.9375 66.2188 33.2969 66.2188
Q25.25 66.2188 20.875 63.0938
Q16.5 59.9688 16.5 54.2031
Q16.5 49.3594 19.4062 46.8906
Q22.3125 44.4375 30.4219 42.9219
L36.375 41.7031
Q47.4062 39.5938 52.6562 34.2969
Q57.9062 29 57.9062 20.125
Q57.9062 9.51562 50.7969 4.04688
Q43.7031 -1.42188 29.9844 -1.42188
Q24.8125 -1.42188 18.9688 -0.25
Q13.1406 0.921875 6.89062 3.21875
L6.89062 13.375
Q12.8906 10.0156 18.6562 8.29688
Q24.4219 6.59375 29.9844 6.59375
Q38.4219 6.59375 43.0156 9.90625
Q47.6094 13.2344 47.6094 19.3906
Q47.6094 24.75 44.3125 27.7812
Q41.0156 30.8125 33.5 32.3281
L27.4844 33.5
Q16.4531 35.6875 11.5156 40.375
Q6.59375 45.0625 6.59375 53.4219
Q6.59375 63.0938 13.4062 68.6562
Q20.2188 74.2188 32.1719 74.2188
Q37.3125 74.2188 42.625 73.2812
Q47.9531 72.3594 53.5156 70.5156" id="BitstreamVeraSans-Roman-53"/>
     <path d="
M48.6875 27.2969
Q48.6875 37.2031 44.6094 42.8438
Q40.5312 48.4844 33.4062 48.4844
Q26.2656 48.4844 22.1875 42.8438
Q18.1094 37.2031 18.1094 27.2969
Q18.1094 17.3906 22.1875 11.75
Q26.2656 6.10938 33.4062 6.10938
Q40.5312 6.10938 44.6094 11.75
Q48.6875 17.3906 48.6875 27.2969
M18.1094 46.3906
Q20.9531 51.2656 25.2656 53.625
Q29.5938 56 35.5938 56
Q45.5625 56 51.7812 48.0938
Q58.0156 40.1875 58.0156 27.2969
Q58.0156 14.4062 51.7812 6.48438
Q45.5625 -1.42188 35.5938 -1.42188
Q29.5938 -1.42188 25.2656 0.953125
Q20.9531 3.32812 18.1094 8.20312
L18.1094 0
L9.07812 0
L9.07812 75.9844
L18.1094 75.9844
z
" id="BitstreamVeraSans-Roman-62"/>
     <path d="
M32.1719 -5.07812
Q28.375 -14.8438 24.75 -17.8125
Q21.1406 -20.7969 15.0938 -20.7969
L7.90625 -20.7969
L7.90625 -13.2812
L13.1875 -13.2812
Q16.8906 -13.2812 18.9375 -11.5156
Q21 -9.76562 23.4844 -3.21875
L25.0938 0.875
L2.98438 54.6875
L12.5 54.6875
L29.5938 11.9219
L46.6875 54.6875
L56.2031 54.6875
z
" id="BitstreamVeraSans-Roman-79"/>
    </defs>
    <g transform="translate(91.474875 38.2)scale(0.144 -0.144)">
     <use xlink:href="#BitstreamVeraSans-Roman-53"/>
     <use x="63.4765625" xlink:href="#BitstreamVeraSans-Roman-74"/>
     <use x="102.685546875" xlink:href="#BitstreamVeraSans-Roman-72"/>
     <use x="143.798828125" xlink:href="#BitstreamVeraSans-Roman-61"/>
     <use x="205.078125" xlink:href="#BitstreamVeraSans-Roman-74"/>
     <use x="244.287109375" xlink:href="#BitstreamVeraSans-Roman-65"/>
     <use x="305.810546875" xlink:href="#BitstreamVeraSans-Roman-67"/>
     <use x="369.287109375" xlink:href="#BitstreamVeraSans-Roman-79"/>
     <use x="428.466796875" xlink:href="#BitstreamVeraSans-Roman-20"/>
     <use x="460.25390625" xlink:href="#BitstreamVeraSans-Roman-70"/>
     <use x="523.73046875" xlink:href="#BitstreamVeraSans-Roman-6f"/>
     <use x="584.912109375" xlink:href="#BitstreamVeraSans-Roman-70"/>
     <use x="648.388671875" xlink:href="#BitstreamVeraSans-Roman-75"/>
     <use x="711.767578125" xlink:href="#BitstreamVeraSans-Roman-6c"/>
     <use x="739.55078125" xlink:href="#BitstreamVeraSans-Roman-61"/>
     <use x="800.830078125" xlink:href="#BitstreamVeraSans-Roman-74"/>
     <use x="840.0390625" xlink:href="#BitstreamVeraSans-Roman-69"/>
     <use x="867.822265625" xlink:href="#BitstreamVeraSans-Roman-6f"/>
     <use x="929.00390625" xlink:href="#BitstreamVeraSans-Roman-6e"/>
     <use x="992.3828125" xlink:href="#BitstreamVeraSans-Roman-20"/>
     <use x="1024.16992188" xlink:href="#BitstreamVeraSans-Roman-64"/>
     <use x="1087.64648438" xlink:href="#BitstreamVeraSans-Roman-79"/>
     <use x="1146.82617188" xlink:href="#BitstreamVeraSans-Roman-6e"/>
     <use x="1210.20507812" xlink:href="#BitstreamVeraSans-Roman-61"/>
     <use x="1271.484375" xlink:href="#BitstreamVeraSans-Roman-6d"/>
     <use x="1368.89648438" xlink:href="#BitstreamVeraSans-Roman-69"/>
     <use x="1396.6796875" xlink:href="#BitstreamVeraSans-Roman-63"/>
     <use x="1451.66015625" xlink:href="#BitstreamVeraSans-Roman-73"/>
     <use x="1503.75976562" xlink:href="#BitstreamVeraSans-Roman-20"/>
     <use x="1535.546875" xlink:href="#BitstreamVeraSans-Roman-62"/>
     <use x="1599.0234375" xlink:href="#BitstreamVeraSans-Roman-61"/>
     <use x="1660.30273438" xlink:href="#BitstreamVeraSans-Roman-73"/>
     <use x="1712.40234375" xlink:href="#BitstreamVeraSans-Roman-65"/>
     <use x="1773.92578125" xlink:href="#BitstreamVeraSans-Roman-64"/>
     <use x="1837.40234375" xlink:href="#BitstreamVeraSans-Roman-20"/>
     <use x="1869.18945312" xlink:href="#BitstreamVeraSans-Roman-6f"/>
     <use x="1930.37109375" xlink:href="#BitstreamVeraSans-Roman-6e"/>
     <use x="1993.75" xlink:href="#BitstreamVeraSans-Roman-20"/>
     <use x="2025.53710938" xlink:href="#BitstreamVeraSans-Roman-61"/>
     <use x="2086.81640625" xlink:href="#BitstreamVeraSans-Roman-76"/>
     <use x="2145.99609375" xlink:href="#BitstreamVeraSans-Roman-65"/>
     <use x="2207.51953125" xlink:href="#BitstreamVeraSans-Roman-72"/>
     <use x="2248.6328125" xlink:href="#BitstreamVeraSans-Roman-61"/>
     <use x="2309.91210938" xlink:href="#BitstreamVeraSans-Roman-67"/>
     <use x="2373.38867188" xlink:href="#BitstreamVeraSans-Roman-65"/>
     <use x="2434.91210938" xlink:href="#BitstreamVeraSans-Roman-20"/>
     <use x="2466.69921875" xlink:href="#BitstreamVeraSans-Roman-70"/>
     <use x="2530.17578125" xlink:href="#BitstreamVeraSans-Roman-61"/>
     <use x="2591.45507812" xlink:href="#BitstreamVeraSans-Roman-79"/>
     <use x="2650.63476562" xlink:href="#BitstreamVeraSans-Roman-6f"/>
     <use x="2711.81640625" xlink:href="#BitstreamVeraSans-Roman-66"/>
     <use x="2747.02148438" xlink:href="#BitstreamVeraSans-Roman-66"/>
     <use x="2782.2265625" xlink:href="#BitstreamVeraSans-Roman-73"/>
    </g>
   </g>
  </g>
  <g id="axes_2">
   <g id="patch_7">
    <path d="
M72 43.2
L518.4 43.2" style="fill:none;stroke:#000000;stroke-linecap:square;stroke-linejoin:miter;"/>
   </g>
   <g id="patch_8">
    <path d="
M518.4 388.8
L518.4 43.2" style="fill:none;stroke:#000000;stroke-linecap:square;stroke-linejoin:miter;"/>
   </g>
   <g id="patch_9">
    <path d="
M72 388.8
L518.4 388.8" style="fill:none;stroke:#000000;stroke-linecap:square;stroke-linejoin:miter;"/>
   </g>
   <g id="patch_10">
    <path d="
M72 388.8
L72 43.2" style="fill:none;stroke:#000000;stroke-linecap:square;stroke-linejoin:miter;"/>
   </g>
   <g id="matplotlib.axis_3">
    <g id="ytick_6">
     <g id="line2d_22">
      <g>
       <use style="stroke:#000000;stroke-width:0.5;" x="518.4" xlink:href="#mcb0005524f" y="388.8"/>
      </g>
     </g>
     <g id="text_17">
      <!-- 0.0 -->
      <defs>
       <path d="
M10.6875 12.4062
L21 12.4062
L21 0
L10.6875 0
z
" id="BitstreamVeraSans-Roman-2e"/>
      </defs>
      <g transform="translate(522.4 392.11125)scale(0.12 -0.12)">
       <use xlink:href="#BitstreamVeraSans-Roman-30"/>
       <use x="63.623046875" xlink:href="#BitstreamVeraSans-Roman-2e"/>
       <use x="95.41015625" xlink:href="#BitstreamVeraSans-Roman-30"/>
      </g>
     </g>
    </g>
    <g id="ytick_7">
     <g id="line2d_23">
      <g>
       <use style="stroke:#000000;stroke-width:0.5;" x="518.4" xlink:href="#mcb0005524f" y="319.68"/>
      </g>
     </g>
     <g id="text_18">
      <!-- 0.2 -->
      <g transform="translate(522.4 322.99125)scale(0.12 -0.12)">
       <use xlink:href="#BitstreamVeraSans-Roman-30"/>
       <use x="63.623046875" xlink:href="#BitstreamVeraSans-Roman-2e"/>
       <use x="95.41015625" xlink:href="#BitstreamVeraSans-Roman-32"/>
      </g>
     </g>
    </g>
    <g id="ytick_8">
     <g id="line2d_24">
      <g>
       <use style="stroke:#000000;stroke-width:0.5;" x="518.4" xlink:href="#mcb0005524f" y="250.56"/>
      </g>
     </g>
     <g id="text_19">
      <!-- 0.4 -->
      <g transform="translate(522.4 253.87125)scale(0.12 -0.12)">
       <use xlink:href="#BitstreamVeraSans-Roman-30"/>
       <use x="63.623046875" xlink:href="#BitstreamVeraSans-Roman-2e"/>
       <use x="95.41015625" xlink:href="#BitstreamVeraSans-Roman-34"/>
      </g>
     </g>
    </g>
    <g id="ytick_9">
     <g id="line2d_25">
      <g>
       <use style="stroke:#000000;stroke-width:0.5;" x="518.4" xlink:href="#mcb0005524f" y="181.44"/>
      </g>
     </g>
     <g id="text_20">
      <!-- 0.6 -->
      <g transform="translate(522.4 184.75125)scale(0.12 -0.12)">
       <use xlink:href="#BitstreamVeraSans-Roman-30"/>
       <use x="63.623046875" xlink:href="#BitstreamVeraSans-Roman-2e"/>
       <use x="95.41015625" xlink:href="#BitstreamVeraSans-Roman-36"/>
      </g>
     </g>
    </g>
    <g id="ytick_10">
     <g id="line2d_26">
      <g>
       <use style="stroke:#000000;stroke-width:0.5;" x="518.4" xlink:href="#mcb0005524f" y="112.32"/>
      </g>
     </g>
     <g id="text_21">
      <!-- 0.8 -->
      <g transform="translate(522.4 115.63125)scale(0.12 -0.12)">
       <use xlink:href="#BitstreamVeraSans-Roman-30"/>
       <use x="63.623046875" xlink:href="#BitstreamVeraSans-Roman-2e"/>
       <use x="95.41015625" xlink:href="#BitstreamVeraSans-Roman-38"/>
      </g>
     </g>
    </g>
    <g id="ytick_11">
     <g id="line2d_27">
      <g>
       <use style="stroke:#000000;stroke-width:0.5;" x="518.4" xlink:href="#mcb0005524f" y="43.2"/>
      </g>
     </g>
     <g id="text_22">
      <!-- 1.0 -->
      <g transform="translate(522.4 46.51125)scale(0.12 -0.12)">
       <use xlink:href="#BitstreamVeraSans-Roman-31"/>
       <use x="63.623046875" xlink:href="#BitstreamVeraSans-Roman-2e"/>
       <use x="95.41015625" xlink:href="#BitstreamVeraSans-Roman-30"/>
      </g>
     </g>
    </g>
   </g>
  </g>
 </g>
 <defs>
  <clipPath id="p7ff5b81e1d">
   <rect height="345.6" width="446.4" x="72.0" y="43.2"/>
  </clipPath>
 </defs>
</svg>
