<?xml version="1.0" encoding="utf-8" standalone="no"?>
<!DOCTYPE svg PUBLIC "-//W3C//DTD SVG 1.1//EN"
  "http://www.w3.org/Graphics/SVG/1.1/DTD/svg11.dtd">
<!-- Created with matplotlib (http://matplotlib.org/) -->
<svg height="432pt" version="1.1" viewBox="0 0 576 432" width="576pt" xmlns="http://www.w3.org/2000/svg" xmlns:xlink="http://www.w3.org/1999/xlink">
 <defs>
  <style type="text/css">
*{stroke-linecap:butt;stroke-linejoin:round;}
  </style>
 </defs>
 <g id="figure_1">
  <g id="patch_1">
   <path d="
M0 432
L576 432
L576 0
L0 0
z
" style="fill:#ffffff;"/>
  </g>
  <g id="axes_1">
   <g id="patch_2">
    <path d="
M72 388.8
L518.4 388.8
L518.4 43.2
L72 43.2
z
" style="fill:#ffffff;"/>
   </g>
   <g id="PolyCollection_1">
    <defs>
     <path d="
M72 -112.32
L72 -43.2
L73.7856 -43.2
L75.5712 -43.2
L77.3568 -43.2
L79.1424 -43.2
L80.928 -43.2
L82.7136 -43.2
L84.4992 -43.2
L86.2848 -43.2
L88.0704 -43.2
L89.856 -43.2
L91.6416 -43.2
L93.4272 -43.2
L95.2128 -43.2
L96.9984 -43.2
L98.784 -43.2
L100.57 -43.2
L102.355 -43.2
L104.141 -43.2
L105.926 -43.2
L107.712 -43.2
L109.498 -43.2
L111.283 -43.2
L113.069 -43.2
L114.854 -43.2
L116.64 -43.2
L118.426 -43.2
L120.211 -43.2
L121.997 -43.2
L123.782 -43.2
L125.568 -43.2
L127.354 -43.2
L129.139 -43.2
L130.925 -43.2
L132.71 -43.2
L134.496 -43.2
L136.282 -43.2
L138.067 -43.2
L139.853 -43.2
L141.638 -43.2
L143.424 -43.2
L145.21 -43.2
L146.995 -43.2
L148.781 -43.2
L150.566 -43.2
L152.352 -43.2
L154.138 -43.2
L155.923 -43.2
L157.709 -43.2
L159.494 -43.2
L161.28 -43.2
L163.066 -43.2
L164.851 -43.2
L166.637 -43.2
L168.422 -43.2
L170.208 -43.2
L171.994 -43.2
L173.779 -43.2
L175.565 -43.2
L177.35 -43.2
L179.136 -43.2
L180.922 -43.2
L182.707 -43.2
L184.493 -43.2
L186.278 -43.2
L188.064 -43.2
L189.85 -43.2
L191.635 -43.2
L193.421 -43.2
L195.206 -43.2
L196.992 -43.2
L198.778 -43.2
L200.563 -43.2
L202.349 -43.2
L204.134 -43.2
L205.92 -43.2
L207.706 -43.2
L209.491 -43.2
L211.277 -43.2
L213.062 -43.2
L214.848 -43.2
L216.634 -43.2
L218.419 -43.2
L220.205 -43.2
L221.99 -43.2
L223.776 -43.2
L225.562 -43.2
L227.347 -43.2
L229.133 -43.2
L230.918 -43.2
L232.704 -43.2
L234.49 -43.2
L236.275 -43.2
L238.061 -43.2
L239.846 -43.2
L241.632 -43.2
L243.418 -43.2
L245.203 -43.2
L246.989 -43.2
L248.774 -43.2
L250.56 -43.2
L252.346 -43.2
L254.131 -43.2
L255.917 -43.2
L257.702 -43.2
L259.488 -43.2
L261.274 -43.2
L263.059 -43.2
L264.845 -43.2
L266.63 -43.2
L268.416 -43.2
L270.202 -43.2
L271.987 -43.2
L273.773 -43.2
L275.558 -43.2
L277.344 -43.2
L279.13 -43.2
L280.915 -43.2
L282.701 -43.2
L284.486 -43.2
L286.272 -43.2
L288.058 -43.2
L289.843 -43.2
L291.629 -43.2
L293.414 -43.2
L295.2 -43.2
L296.986 -43.2
L298.771 -43.2
L300.557 -43.2
L302.342 -43.2
L304.128 -43.2
L305.914 -43.2
L307.699 -43.2
L309.485 -43.2
L311.27 -43.2
L313.056 -43.2
L314.842 -43.2
L316.627 -43.2
L318.413 -43.2
L320.198 -43.2
L321.984 -43.2
L323.77 -43.2
L325.555 -43.2
L327.341 -43.2
L329.126 -43.2
L330.912 -43.2
L332.698 -43.2
L334.483 -43.2
L336.269 -43.2
L338.054 -43.2
L339.84 -43.2
L341.626 -43.2
L343.411 -43.2
L345.197 -43.2
L346.982 -43.2
L348.768 -43.2
L350.554 -43.2
L352.339 -43.2
L354.125 -43.2
L355.91 -43.2
L357.696 -43.2
L359.482 -43.2
L361.267 -43.2
L363.053 -43.2
L364.838 -43.2
L366.624 -43.2
L368.41 -43.2
L370.195 -43.2
L371.981 -43.2
L373.766 -43.2
L375.552 -43.2
L377.338 -43.2
L379.123 -43.2
L380.909 -43.2
L382.694 -43.2
L384.48 -43.2
L386.266 -43.2
L388.051 -43.2
L389.837 -43.2
L391.622 -43.2
L393.408 -43.2
L395.194 -43.2
L396.979 -43.2
L398.765 -43.2
L400.55 -43.2
L402.336 -43.2
L404.122 -43.2
L405.907 -43.2
L407.693 -43.2
L409.478 -43.2
L411.264 -43.2
L413.05 -43.2
L414.835 -43.2
L416.621 -43.2
L418.406 -43.2
L420.192 -43.2
L421.978 -43.2
L423.763 -43.2
L425.549 -43.2
L427.334 -43.2
L429.12 -43.2
L430.906 -43.2
L432.691 -43.2
L434.477 -43.2
L436.262 -43.2
L438.048 -43.2
L439.834 -43.2
L441.619 -43.2
L443.405 -43.2
L445.19 -43.2
L446.976 -43.2
L448.762 -43.2
L450.547 -43.2
L452.333 -43.2
L454.118 -43.2
L455.904 -43.2
L457.69 -43.2
L459.475 -43.2
L461.261 -43.2
L463.046 -43.2
L464.832 -43.2
L466.618 -43.2
L468.403 -43.2
L470.189 -43.2
L471.974 -43.2
L473.76 -43.2
L475.546 -43.2
L477.331 -43.2
L479.117 -43.2
L480.902 -43.2
L482.688 -43.2
L484.474 -43.2
L486.259 -43.2
L488.045 -43.2
L489.83 -43.2
L491.616 -43.2
L493.402 -43.2
L495.187 -43.2
L496.973 -43.2
L498.758 -43.2
L500.544 -43.2
L502.33 -43.2
L504.115 -43.2
L505.901 -43.2
L507.686 -43.2
L509.472 -43.2
L511.258 -43.2
L513.043 -43.2
L514.829 -43.2
L516.614 -43.2
L518.4 -43.2
L518.4 -43.2
L518.4 -43.2
L516.614 -43.2
L514.829 -43.2
L513.043 -43.2
L511.258 -43.2
L509.472 -43.2
L507.686 -43.2
L505.901 -43.2
L504.115 -43.2
L502.33 -43.2
L500.544 -43.2
L498.758 -43.2
L496.973 -43.2
L495.187 -43.2
L493.402 -43.2
L491.616 -43.2
L489.83 -43.2
L488.045 -43.2
L486.259 -43.2
L484.474 -43.2
L482.688 -43.2
L480.902 -43.2
L479.117 -43.2
L477.331 -43.2
L475.546 -43.2
L473.76 -43.2
L471.974 -43.2
L470.189 -43.2
L468.403 -43.2
L466.618 -43.2
L464.832 -43.2
L463.046 -43.2
L461.261 -43.2
L459.475 -43.2
L457.69 -43.2
L455.904 -43.2
L454.118 -43.2
L452.333 -43.2
L450.547 -43.2
L448.762 -43.2
L446.976 -43.2
L445.19 -43.2
L443.405 -43.2
L441.619 -43.2
L439.834 -43.2
L438.048 -43.2
L436.262 -43.2
L434.477 -43.2
L432.691 -43.2
L430.906 -43.2
L429.12 -43.2
L427.334 -43.2
L425.549 -43.2
L423.763 -43.2
L421.978 -43.2
L420.192 -43.2
L418.406 -43.2
L416.621 -43.2
L414.835 -43.2
L413.05 -43.2
L411.264 -43.2
L409.478 -43.2
L407.693 -43.2
L405.907 -43.2
L404.122 -43.2
L402.336 -43.2
L400.55 -43.2
L398.765 -43.2
L396.979 -43.2
L395.194 -43.2
L393.408 -43.2
L391.622 -43.2
L389.837 -43.2
L388.051 -43.2
L386.266 -43.2
L384.48 -43.2
L382.694 -43.2
L380.909 -43.2
L379.123 -43.2
L377.338 -43.2
L375.552 -43.2
L373.766 -43.2
L371.981 -43.2
L370.195 -43.2
L368.41 -43.2
L366.624 -43.2
L364.838 -43.2
L363.053 -43.2
L361.267 -43.2
L359.482 -43.2
L357.696 -43.2
L355.91 -43.2
L354.125 -43.2
L352.339 -43.2
L350.554 -43.2
L348.768 -43.2
L346.982 -43.2
L345.197 -43.2
L343.411 -43.2
L341.626 -43.2
L339.84 -43.2
L338.054 -43.2
L336.269 -43.2
L334.483 -43.2
L332.698 -43.2
L330.912 -43.2
L329.126 -43.2
L327.341 -43.2
L325.555 -43.2
L323.77 -43.2
L321.984 -43.2
L320.198 -43.2
L318.413 -43.2
L316.627 -43.2
L314.842 -43.2
L313.056 -43.2
L311.27 -43.2
L309.485 -43.2
L307.699 -43.2
L305.914 -43.2
L304.128 -43.2
L302.342 -43.2
L300.557 -43.2
L298.771 -43.2
L296.986 -43.2
L295.2 -43.2
L293.414 -43.2
L291.629 -43.2
L289.843 -43.2
L288.058 -43.2
L286.272 -43.2
L284.486 -43.2
L282.701 -43.2
L280.915 -43.2
L279.13 -43.2
L277.344 -43.2
L275.558 -43.2
L273.773 -43.2
L271.987 -43.2
L270.202 -43.2
L268.416 -43.2001
L266.63 -43.2001
L264.845 -43.2001
L263.059 -43.2001
L261.274 -43.2001
L259.488 -43.2002
L257.702 -43.2002
L255.917 -43.2003
L254.131 -43.2004
L252.346 -43.2005
L250.56 -43.2006
L248.774 -43.2008
L246.989 -43.201
L245.203 -43.2012
L243.418 -43.2016
L241.632 -43.202
L239.846 -43.2025
L238.061 -43.2031
L236.275 -43.2039
L234.49 -43.205
L232.704 -43.2063
L230.918 -43.2079
L229.133 -43.2099
L227.347 -43.2125
L225.562 -43.2157
L223.776 -43.2197
L221.99 -43.2248
L220.205 -43.2311
L218.419 -43.239
L216.634 -43.2489
L214.848 -43.2612
L213.062 -43.2766
L211.277 -43.2958
L209.491 -43.3196
L207.706 -43.3492
L205.92 -43.3857
L204.134 -43.431
L202.349 -43.487
L200.563 -43.556
L198.778 -43.6415
L196.992 -43.746
L195.206 -43.8746
L193.421 -44.0315
L191.635 -44.2225
L189.85 -44.4556
L188.064 -44.7368
L186.278 -45.0765
L184.493 -45.4849
L182.707 -45.9767
L180.922 -46.5639
L179.136 -47.2553
L177.35 -48.0772
L175.565 -49.0431
L173.779 -50.1739
L171.994 -51.4697
L170.208 -52.9723
L168.422 -54.6827
L166.637 -56.6564
L164.851 -58.8432
L163.066 -61.2968
L161.28 -63.9703
L159.494 -66.9414
L157.709 -70.1564
L155.923 -73.612
L154.138 -77.2119
L152.352 -81.0577
L150.566 -85.1628
L148.781 -89.3865
L146.995 -93.6646
L145.21 -97.9903
L143.424 -102.243
L141.638 -106.584
L139.853 -110.838
L138.067 -115.157
L136.282 -119.117
L134.496 -122.94
L132.71 -126.591
L130.925 -129.971
L129.139 -133.32
L127.354 -136.333
L125.568 -139.118
L123.782 -141.81
L121.997 -143.963
L120.211 -146.053
L118.426 -147.752
L116.64 -149.153
L114.854 -150.343
L113.069 -150.951
L111.283 -151.591
L109.498 -151.925
L107.712 -151.936
L105.926 -151.69
L104.141 -151.355
L102.355 -151.102
L100.57 -150.468
L98.784 -149.514
L96.9984 -148.509
L95.2128 -146.922
L93.4272 -145.302
L91.6416 -143.458
L89.856 -141.323
L88.0704 -139.023
L86.2848 -136.495
L84.4992 -133.736
L82.7136 -131.02
L80.928 -128.078
L79.1424 -124.878
L77.3568 -121.916
L75.5712 -118.73
L73.7856 -115.702
L72 -112.32
z
" id="m4c12c30b9e" style="stroke:#000000;"/>
    </defs>
    <g clip-path="url(#p7ff5b81e1d)">
     <use style="fill:#0000ff;stroke:#000000;" x="0.0" xlink:href="#m4c12c30b9e" y="432.0"/>
    </g>
   </g>
   <g id="PolyCollection_2">
    <defs>
     <path d="
M72 -181.44
L72 -112.32
L73.7856 -115.702
L75.5712 -118.73
L77.3568 -121.916
L79.1424 -124.878
L80.928 -128.078
L82.7136 -131.02
L84.4992 -133.736
L86.2848 -136.495
L88.0704 -139.023
L89.856 -141.323
L91.6416 -143.458
L93.4272 -145.302
L95.2128 -146.922
L96.9984 -148.509
L98.784 -149.514
L100.57 -150.468
L102.355 -151.102
L104.141 -151.355
L105.926 -151.69
L107.712 -151.936
L109.498 -151.925
L111.283 -151.591
L113.069 -150.951
L114.854 -150.343
L116.64 -149.153
L118.426 -147.752
L120.211 -146.053
L121.997 -143.963
L123.782 -141.81
L125.568 -139.118
L127.354 -136.333
L129.139 -133.32
L130.925 -129.971
L132.71 -126.591
L134.496 -122.94
L136.282 -119.117
L138.067 -115.157
L139.853 -110.838
L141.638 -106.584
L143.424 -102.243
L145.21 -97.9903
L146.995 -93.6646
L148.781 -89.3865
L150.566 -85.1628
L152.352 -81.0577
L154.138 -77.2119
L155.923 -73.612
L157.709 -70.1564
L159.494 -66.9414
L161.28 -63.9703
L163.066 -61.2968
L164.851 -58.8432
L166.637 -56.6564
L168.422 -54.6827
L170.208 -52.9723
L171.994 -51.4697
L173.779 -50.1739
L175.565 -49.0431
L177.35 -48.0772
L179.136 -47.2553
L180.922 -46.5639
L182.707 -45.9767
L184.493 -45.4849
L186.278 -45.0765
L188.064 -44.7368
L189.85 -44.4556
L191.635 -44.2225
L193.421 -44.0315
L195.206 -43.8746
L196.992 -43.746
L198.778 -43.6415
L200.563 -43.556
L202.349 -43.487
L204.134 -43.431
L205.92 -43.3857
L207.706 -43.3492
L209.491 -43.3196
L211.277 -43.2958
L213.062 -43.2766
L214.848 -43.2612
L216.634 -43.2489
L218.419 -43.239
L220.205 -43.2311
L221.99 -43.2248
L223.776 -43.2197
L225.562 -43.2157
L227.347 -43.2125
L229.133 -43.2099
L230.918 -43.2079
L232.704 -43.2063
L234.49 -43.205
L236.275 -43.2039
L238.061 -43.2031
L239.846 -43.2025
L241.632 -43.202
L243.418 -43.2016
L245.203 -43.2012
L246.989 -43.201
L248.774 -43.2008
L250.56 -43.2006
L252.346 -43.2005
L254.131 -43.2004
L255.917 -43.2003
L257.702 -43.2002
L259.488 -43.2002
L261.274 -43.2001
L263.059 -43.2001
L264.845 -43.2001
L266.63 -43.2001
L268.416 -43.2001
L270.202 -43.2
L271.987 -43.2
L273.773 -43.2
L275.558 -43.2
L277.344 -43.2
L279.13 -43.2
L280.915 -43.2
L282.701 -43.2
L284.486 -43.2
L286.272 -43.2
L288.058 -43.2
L289.843 -43.2
L291.629 -43.2
L293.414 -43.2
L295.2 -43.2
L296.986 -43.2
L298.771 -43.2
L300.557 -43.2
L302.342 -43.2
L304.128 -43.2
L305.914 -43.2
L307.699 -43.2
L309.485 -43.2
L311.27 -43.2
L313.056 -43.2
L314.842 -43.2
L316.627 -43.2
L318.413 -43.2
L320.198 -43.2
L321.984 -43.2
L323.77 -43.2
L325.555 -43.2
L327.341 -43.2
L329.126 -43.2
L330.912 -43.2
L332.698 -43.2
L334.483 -43.2
L336.269 -43.2
L338.054 -43.2
L339.84 -43.2
L341.626 -43.2
L343.411 -43.2
L345.197 -43.2
L346.982 -43.2
L348.768 -43.2
L350.554 -43.2
L352.339 -43.2
L354.125 -43.2
L355.91 -43.2
L357.696 -43.2
L359.482 -43.2
L361.267 -43.2
L363.053 -43.2
L364.838 -43.2
L366.624 -43.2
L368.41 -43.2
L370.195 -43.2
L371.981 -43.2
L373.766 -43.2
L375.552 -43.2
L377.338 -43.2
L379.123 -43.2
L380.909 -43.2
L382.694 -43.2
L384.48 -43.2
L386.266 -43.2
L388.051 -43.2
L389.837 -43.2
L391.622 -43.2
L393.408 -43.2
L395.194 -43.2
L396.979 -43.2
L398.765 -43.2
L400.55 -43.2
L402.336 -43.2
L404.122 -43.2
L405.907 -43.2
L407.693 -43.2
L409.478 -43.2
L411.264 -43.2
L413.05 -43.2
L414.835 -43.2
L416.621 -43.2
L418.406 -43.2
L420.192 -43.2
L421.978 -43.2
L423.763 -43.2
L425.549 -43.2
L427.334 -43.2
L429.12 -43.2
L430.906 -43.2
L432.691 -43.2
L434.477 -43.2
L436.262 -43.2
L438.048 -43.2
L439.834 -43.2
L441.619 -43.2
L443.405 -43.2
L445.19 -43.2
L446.976 -43.2
L448.762 -43.2
L450.547 -43.2
L452.333 -43.2
L454.118 -43.2
L455.904 -43.2
L457.69 -43.2
L459.475 -43.2
L461.261 -43.2
L463.046 -43.2
L464.832 -43.2
L466.618 -43.2
L468.403 -43.2
L470.189 -43.2
L471.974 -43.2
L473.76 -43.2
L475.546 -43.2
L477.331 -43.2
L479.117 -43.2
L480.902 -43.2
L482.688 -43.2
L484.474 -43.2
L486.259 -43.2
L488.045 -43.2
L489.83 -43.2
L491.616 -43.2
L493.402 -43.2
L495.187 -43.2
L496.973 -43.2
L498.758 -43.2
L500.544 -43.2
L502.33 -43.2
L504.115 -43.2
L505.901 -43.2
L507.686 -43.2
L509.472 -43.2
L511.258 -43.2
L513.043 -43.2
L514.829 -43.2
L516.614 -43.2
L518.4 -43.2
L518.4 -43.2002
L518.4 -43.2002
L516.614 -43.2002
L514.829 -43.2003
L513.043 -43.2003
L511.258 -43.2003
L509.472 -43.2003
L507.686 -43.2003
L505.901 -43.2004
L504.115 -43.2004
L502.33 -43.2004
L500.544 -43.2004
L498.758 -43.2005
L496.973 -43.2005
L495.187 -43.2005
L493.402 -43.2006
L491.616 -43.2006
L489.83 -43.2006
L488.045 -43.2007
L486.259 -43.2007
L484.474 -43.2008
L482.688 -43.2008
L480.902 -43.2009
L479.117 -43.2009
L477.331 -43.201
L475.546 -43.201
L473.76 -43.2011
L471.974 -43.2012
L470.189 -43.2012
L468.403 -43.2013
L466.618 -43.2014
L464.832 -43.2015
L463.046 -43.2016
L461.261 -43.2017
L459.475 -43.2018
L457.69 -43.2019
L455.904 -43.202
L454.118 -43.2022
L452.333 -43.2023
L450.547 -43.2024
L448.762 -43.2026
L446.976 -43.2028
L445.19 -43.2029
L443.405 -43.2031
L441.619 -43.2033
L439.834 -43.2035
L438.048 -43.2038
L436.262 -43.204
L434.477 -43.2043
L432.691 -43.2045
L430.906 -43.2048
L429.12 -43.2051
L427.334 -43.2055
L425.549 -43.2058
L423.763 -43.2062
L421.978 -43.2066
L420.192 -43.207
L418.406 -43.2074
L416.621 -43.2079
L414.835 -43.2084
L413.05 -43.2089
L411.264 -43.2095
L409.478 -43.2101
L407.693 -43.2108
L405.907 -43.2114
L404.122 -43.2122
L402.336 -43.2129
L400.55 -43.2138
L398.765 -43.2146
L396.979 -43.2156
L395.194 -43.2166
L393.408 -43.2176
L391.622 -43.2187
L389.837 -43.2199
L388.051 -43.2212
L386.266 -43.2225
L384.48 -43.224
L382.694 -43.2255
L380.909 -43.2271
L379.123 -43.2289
L377.338 -43.2307
L375.552 -43.2326
L373.766 -43.2347
L371.981 -43.2369
L370.195 -43.2393
L368.41 -43.2418
L366.624 -43.2444
L364.838 -43.2473
L363.053 -43.2503
L361.267 -43.2535
L359.482 -43.2569
L357.696 -43.2605
L355.91 -43.2643
L354.125 -43.2684
L352.339 -43.2728
L350.554 -43.2774
L348.768 -43.2823
L346.982 -43.2876
L345.197 -43.2932
L343.411 -43.2991
L341.626 -43.3054
L339.84 -43.3121
L338.054 -43.3192
L336.269 -43.3268
L334.483 -43.3349
L332.698 -43.3434
L330.912 -43.3526
L329.126 -43.3623
L327.341 -43.3726
L325.555 -43.3836
L323.77 -43.3952
L321.984 -43.4077
L320.198 -43.4209
L318.413 -43.4349
L316.627 -43.4498
L314.842 -43.4657
L313.056 -43.4826
L311.27 -43.5006
L309.485 -43.5197
L307.699 -43.54
L305.914 -43.5616
L304.128 -43.5846
L302.342 -43.609
L300.557 -43.635
L298.771 -43.6627
L296.986 -43.692
L295.2 -43.7233
L293.414 -43.7565
L291.629 -43.7918
L289.843 -43.8294
L288.058 -43.8693
L286.272 -43.9118
L284.486 -43.957
L282.701 -44.005
L280.915 -44.056
L279.13 -44.1103
L277.344 -44.1679
L275.558 -44.2292
L273.773 -44.2944
L271.987 -44.3637
L270.202 -44.4374
L268.416 -44.5157
L266.63 -44.5989
L264.845 -44.6873
L263.059 -44.7812
L261.274 -44.8811
L259.488 -44.9871
L257.702 -45.0999
L255.917 -45.2197
L254.131 -45.347
L252.346 -45.4821
L250.56 -45.6257
L248.774 -45.7781
L246.989 -45.9399
L245.203 -46.1118
L243.418 -46.2945
L241.632 -46.4882
L239.846 -46.6937
L238.061 -46.9119
L236.275 -47.1438
L234.49 -47.39
L232.704 -47.6505
L230.918 -47.9275
L229.133 -48.222
L227.347 -48.5338
L225.562 -48.8649
L223.776 -49.2155
L221.99 -49.588
L220.205 -49.9823
L218.419 -50.4014
L216.634 -50.8456
L214.848 -51.3163
L213.062 -51.8182
L211.277 -52.3488
L209.491 -52.9103
L207.706 -53.5103
L205.92 -54.1367
L204.134 -54.8066
L202.349 -55.5228
L200.563 -56.286
L198.778 -57.1102
L196.992 -57.9781
L195.206 -58.9172
L193.421 -59.9105
L191.635 -60.9742
L189.85 -62.122
L188.064 -63.3476
L186.278 -64.6654
L184.493 -66.0939
L182.707 -67.6472
L180.922 -69.3466
L179.136 -71.1371
L177.35 -73.0903
L175.565 -75.2117
L173.779 -77.5153
L171.994 -79.969
L170.208 -82.6722
L168.422 -85.5699
L166.637 -88.8192
L164.851 -92.2253
L163.066 -95.8078
L161.28 -99.6369
L159.494 -103.791
L157.709 -108.102
L155.923 -112.635
L154.138 -117.211
L152.352 -122.057
L150.566 -127.154
L148.781 -132.313
L146.995 -137.457
L145.21 -142.586
L143.424 -147.41
L141.638 -152.537
L139.853 -157.454
L138.067 -162.449
L136.282 -167.015
L134.496 -171.472
L132.71 -175.637
L130.925 -179.795
L129.139 -183.819
L127.354 -187.314
L125.568 -190.558
L123.782 -193.751
L121.997 -196.61
L120.211 -199.364
L118.426 -201.502
L116.64 -203.657
L114.854 -205.373
L113.069 -206.658
L111.283 -208.094
L109.498 -209.058
L107.712 -209.78
L105.926 -210.333
L104.141 -210.691
L102.355 -210.897
L100.57 -211.093
L98.784 -210.882
L96.9984 -210.561
L95.2128 -209.684
L93.4272 -208.778
L91.6416 -207.437
L89.856 -205.91
L88.0704 -204.358
L86.2848 -202.654
L84.4992 -200.507
L82.7136 -198.49
L80.928 -196.083
L79.1424 -193.367
L77.3568 -190.599
L75.5712 -187.611
L73.7856 -184.781
L72 -181.44
z
" id="md2dc4c16b5" style="stroke:#000000;"/>
    </defs>
    <g clip-path="url(#p7ff5b81e1d)">
     <use style="fill:#008000;stroke:#000000;" x="0.0" xlink:href="#md2dc4c16b5" y="432.0"/>
    </g>
   </g>
   <g id="PolyCollection_3">
    <defs>
     <path d="
M72 -250.56
L72 -181.44
L73.7856 -184.781
L75.5712 -187.611
L77.3568 -190.599
L79.1424 -193.367
L80.928 -196.083
L82.7136 -198.49
L84.4992 -200.507
L86.2848 -202.654
L88.0704 -204.358
L89.856 -205.91
L91.6416 -207.437
L93.4272 -208.778
L95.2128 -209.684
L96.9984 -210.561
L98.784 -210.882
L100.57 -211.093
L102.355 -210.897
L104.141 -210.691
L105.926 -210.333
L107.712 -209.78
L109.498 -209.058
L111.283 -208.094
L113.069 -206.658
L114.854 -205.373
L116.64 -203.657
L118.426 -201.502
L120.211 -199.364
L121.997 -196.61
L123.782 -193.751
L125.568 -190.558
L127.354 -187.314
L129.139 -183.819
L130.925 -179.795
L132.71 -175.637
L134.496 -171.472
L136.282 -167.015
L138.067 -162.449
L139.853 -157.454
L141.638 -152.537
L143.424 -147.41
L145.21 -142.586
L146.995 -137.457
L148.781 -132.313
L150.566 -127.154
L152.352 -122.057
L154.138 -117.211
L155.923 -112.635
L157.709 -108.102
L159.494 -103.791
L161.28 -99.6369
L163.066 -95.8078
L164.851 -92.2253
L166.637 -88.8192
L168.422 -85.5699
L170.208 -82.6722
L171.994 -79.969
L173.779 -77.5153
L175.565 -75.2117
L177.35 -73.0903
L179.136 -71.1371
L180.922 -69.3466
L182.707 -67.6472
L184.493 -66.0939
L186.278 -64.6654
L188.064 -63.3476
L189.85 -62.122
L191.635 -60.9742
L193.421 -59.9105
L195.206 -58.9172
L196.992 -57.9781
L198.778 -57.1102
L200.563 -56.286
L202.349 -55.5228
L204.134 -54.8066
L205.92 -54.1367
L207.706 -53.5103
L209.491 -52.9103
L211.277 -52.3488
L213.062 -51.8182
L214.848 -51.3163
L216.634 -50.8456
L218.419 -50.4014
L220.205 -49.9823
L221.99 -49.588
L223.776 -49.2155
L225.562 -48.8649
L227.347 -48.5338
L229.133 -48.222
L230.918 -47.9275
L232.704 -47.6505
L234.49 -47.39
L236.275 -47.1438
L238.061 -46.9119
L239.846 -46.6937
L241.632 -46.4882
L243.418 -46.2945
L245.203 -46.1118
L246.989 -45.9399
L248.774 -45.7781
L250.56 -45.6257
L252.346 -45.4821
L254.131 -45.347
L255.917 -45.2197
L257.702 -45.0999
L259.488 -44.9871
L261.274 -44.8811
L263.059 -44.7812
L264.845 -44.6873
L266.63 -44.5989
L268.416 -44.5157
L270.202 -44.4374
L271.987 -44.3637
L273.773 -44.2944
L275.558 -44.2292
L277.344 -44.1679
L279.13 -44.1103
L280.915 -44.056
L282.701 -44.005
L284.486 -43.957
L286.272 -43.9118
L288.058 -43.8693
L289.843 -43.8294
L291.629 -43.7918
L293.414 -43.7565
L295.2 -43.7233
L296.986 -43.692
L298.771 -43.6627
L300.557 -43.635
L302.342 -43.609
L304.128 -43.5846
L305.914 -43.5616
L307.699 -43.54
L309.485 -43.5197
L311.27 -43.5006
L313.056 -43.4826
L314.842 -43.4657
L316.627 -43.4498
L318.413 -43.4349
L320.198 -43.4209
L321.984 -43.4077
L323.77 -43.3952
L325.555 -43.3836
L327.341 -43.3726
L329.126 -43.3623
L330.912 -43.3526
L332.698 -43.3434
L334.483 -43.3349
L336.269 -43.3268
L338.054 -43.3192
L339.84 -43.3121
L341.626 -43.3054
L343.411 -43.2991
L345.197 -43.2932
L346.982 -43.2876
L348.768 -43.2823
L350.554 -43.2774
L352.339 -43.2728
L354.125 -43.2684
L355.91 -43.2643
L357.696 -43.2605
L359.482 -43.2569
L361.267 -43.2535
L363.053 -43.2503
L364.838 -43.2473
L366.624 -43.2444
L368.41 -43.2418
L370.195 -43.2393
L371.981 -43.2369
L373.766 -43.2347
L375.552 -43.2326
L377.338 -43.2307
L379.123 -43.2289
L380.909 -43.2271
L382.694 -43.2255
L384.48 -43.224
L386.266 -43.2225
L388.051 -43.2212
L389.837 -43.2199
L391.622 -43.2187
L393.408 -43.2176
L395.194 -43.2166
L396.979 -43.2156
L398.765 -43.2146
L400.55 -43.2138
L402.336 -43.2129
L404.122 -43.2122
L405.907 -43.2114
L407.693 -43.2108
L409.478 -43.2101
L411.264 -43.2095
L413.05 -43.2089
L414.835 -43.2084
L416.621 -43.2079
L418.406 -43.2074
L420.192 -43.207
L421.978 -43.2066
L423.763 -43.2062
L425.549 -43.2058
L427.334 -43.2055
L429.12 -43.2051
L430.906 -43.2048
L432.691 -43.2045
L434.477 -43.2043
L436.262 -43.204
L438.048 -43.2038
L439.834 -43.2035
L441.619 -43.2033
L443.405 -43.2031
L445.19 -43.2029
L446.976 -43.2028
L448.762 -43.2026
L450.547 -43.2024
L452.333 -43.2023
L454.118 -43.2022
L455.904 -43.202
L457.69 -43.2019
L459.475 -43.2018
L461.261 -43.2017
L463.046 -43.2016
L464.832 -43.2015
L466.618 -43.2014
L468.403 -43.2013
L470.189 -43.2012
L471.974 -43.2012
L473.76 -43.2011
L475.546 -43.201
L477.331 -43.201
L479.117 -43.2009
L480.902 -43.2009
L482.688 -43.2008
L484.474 -43.2008
L486.259 -43.2007
L488.045 -43.2007
L489.83 -43.2006
L491.616 -43.2006
L493.402 -43.2006
L495.187 -43.2005
L496.973 -43.2005
L498.758 -43.2005
L500.544 -43.2004
L502.33 -43.2004
L504.115 -43.2004
L505.901 -43.2004
L507.686 -43.2003
L509.472 -43.2003
L511.258 -43.2003
L513.043 -43.2003
L514.829 -43.2003
L516.614 -43.2002
L518.4 -43.2002
L518.4 -43.2002
L518.4 -43.2002
L516.614 -43.2002
L514.829 -43.2003
L513.043 -43.2003
L511.258 -43.2003
L509.472 -43.2003
L507.686 -43.2003
L505.901 -43.2004
L504.115 -43.2004
L502.33 -43.2004
L500.544 -43.2004
L498.758 -43.2005
L496.973 -43.2005
L495.187 -43.2005
L493.402 -43.2006
L491.616 -43.2006
L489.83 -43.2006
L488.045 -43.2007
L486.259 -43.2007
L484.474 -43.2008
L482.688 -43.2008
L480.902 -43.2009
L479.117 -43.2009
L477.331 -43.201
L475.546 -43.201
L473.76 -43.2011
L471.974 -43.2012
L470.189 -43.2012
L468.403 -43.2013
L466.618 -43.2014
L464.832 -43.2015
L463.046 -43.2016
L461.261 -43.2017
L459.475 -43.2018
L457.69 -43.2019
L455.904 -43.202
L454.118 -43.2022
L452.333 -43.2023
L450.547 -43.2025
L448.762 -43.2026
L446.976 -43.2028
L445.19 -43.203
L443.405 -43.2032
L441.619 -43.2034
L439.834 -43.2036
L438.048 -43.2038
L436.262 -43.204
L434.477 -43.2043
L432.691 -43.2046
L430.906 -43.2049
L429.12 -43.2052
L427.334 -43.2055
L425.549 -43.2059
L423.763 -43.2062
L421.978 -43.2066
L420.192 -43.2071
L418.406 -43.2075
L416.621 -43.208
L414.835 -43.2085
L413.05 -43.209
L411.264 -43.2096
L409.478 -43.2102
L407.693 -43.2109
L405.907 -43.2116
L404.122 -43.2123
L402.336 -43.2131
L400.55 -43.214
L398.765 -43.2149
L396.979 -43.2158
L395.194 -43.2168
L393.408 -43.2179
L391.622 -43.2191
L389.837 -43.2203
L388.051 -43.2216
L386.266 -43.223
L384.48 -43.2245
L382.694 -43.226
L380.909 -43.2277
L379.123 -43.2295
L377.338 -43.2314
L375.552 -43.2334
L373.766 -43.2355
L371.981 -43.2378
L370.195 -43.2403
L368.41 -43.2429
L366.624 -43.2457
L364.838 -43.2486
L363.053 -43.2517
L361.267 -43.2551
L359.482 -43.2586
L357.696 -43.2624
L355.91 -43.2664
L354.125 -43.2707
L352.339 -43.2753
L350.554 -43.2801
L348.768 -43.2853
L346.982 -43.2908
L345.197 -43.2967
L343.411 -43.3029
L341.626 -43.3096
L339.84 -43.3167
L338.054 -43.3242
L336.269 -43.3322
L334.483 -43.3408
L332.698 -43.35
L330.912 -43.3598
L329.126 -43.3702
L327.341 -43.3813
L325.555 -43.393
L323.77 -43.4056
L321.984 -43.4188
L320.198 -43.4329
L318.413 -43.4482
L316.627 -43.4645
L314.842 -43.4818
L313.056 -43.5005
L311.27 -43.5199
L309.485 -43.5407
L307.699 -43.5629
L305.914 -43.5865
L304.128 -43.612
L302.342 -43.6395
L300.557 -43.669
L298.771 -43.6998
L296.986 -43.7326
L295.2 -43.7674
L293.414 -43.8049
L291.629 -43.8445
L289.843 -43.8863
L288.058 -43.9326
L286.272 -43.9817
L284.486 -44.0336
L282.701 -44.0888
L280.915 -44.1481
L279.13 -44.2112
L277.344 -44.2802
L275.558 -44.3505
L273.773 -44.4259
L271.987 -44.5064
L270.202 -44.5921
L268.416 -44.6864
L266.63 -44.7846
L264.845 -44.8943
L263.059 -45.0095
L261.274 -45.1305
L259.488 -45.2638
L257.702 -45.4013
L255.917 -45.5501
L254.131 -45.7101
L252.346 -45.8908
L250.56 -46.0649
L248.774 -46.2654
L246.989 -46.4832
L245.203 -46.7046
L243.418 -46.9291
L241.632 -47.1892
L239.846 -47.4818
L238.061 -47.7792
L236.275 -48.0886
L234.49 -48.4235
L232.704 -48.8065
L230.918 -49.1816
L229.133 -49.5874
L227.347 -50.0243
L225.562 -50.4713
L223.776 -51.006
L221.99 -51.5746
L220.205 -52.206
L218.419 -52.8099
L216.634 -53.5161
L214.848 -54.2189
L213.062 -54.9222
L211.277 -55.7378
L209.491 -56.6337
L207.706 -57.5401
L205.92 -58.6917
L204.134 -59.7647
L202.349 -60.8719
L200.563 -62.1391
L198.778 -63.276
L196.992 -64.7082
L195.206 -66.1711
L193.421 -67.7414
L191.635 -69.4416
L189.85 -71.2919
L188.064 -73.384
L186.278 -75.6108
L184.493 -77.9653
L182.707 -80.3268
L180.922 -82.9086
L179.136 -85.8492
L177.35 -88.7797
L175.565 -92.2045
L173.779 -95.8001
L171.994 -99.4556
L170.208 -103.495
L168.422 -107.637
L166.637 -112.021
L164.851 -116.527
L163.066 -121.525
L161.28 -127.022
L159.494 -132.32
L157.709 -137.545
L155.923 -143.489
L154.138 -149.525
L152.352 -155.463
L150.566 -161.8
L148.781 -167.785
L146.995 -174.281
L145.21 -180.337
L143.424 -186.525
L141.638 -192.518
L139.853 -198.134
L138.067 -203.918
L136.282 -209.576
L134.496 -214.918
L132.71 -220.005
L130.925 -224.574
L129.139 -229.196
L127.354 -233.593
L125.568 -237.621
L123.782 -241.643
L121.997 -245.392
L120.211 -248.607
L118.426 -251.722
L116.64 -254.577
L114.854 -257.167
L113.069 -259.605
L111.283 -261.824
L109.498 -263.693
L107.712 -265.278
L105.926 -266.768
L104.141 -267.651
L102.355 -268.842
L100.57 -269.94
L98.784 -270.551
L96.9984 -271.096
L95.2128 -271.091
L93.4272 -271.025
L91.6416 -270.813
L89.856 -270.33
L88.0704 -269.236
L86.2848 -268.186
L84.4992 -266.895
L82.7136 -265.198
L80.928 -263.225
L79.1424 -261.223
L77.3568 -258.764
L75.5712 -256.146
L73.7856 -253.72
L72 -250.56
z
" id="mb55524dae1" style="stroke:#000000;"/>
    </defs>
    <g clip-path="url(#p7ff5b81e1d)">
     <use style="fill:#ff0000;stroke:#000000;" x="0.0" xlink:href="#mb55524dae1" y="432.0"/>
    </g>
   </g>
   <g id="PolyCollection_4">
    <defs>
     <path d="
M72 -319.68
L72 -250.56
L73.7856 -253.72
L75.5712 -256.146
L77.3568 -258.764
L79.1424 -261.223
L80.928 -263.225
L82.7136 -265.198
L84.4992 -266.895
L86.2848 -268.186
L88.0704 -269.236
L89.856 -270.33
L91.6416 -270.813
L93.4272 -271.025
L95.2128 -271.091
L96.9984 -271.096
L98.784 -270.551
L100.57 -269.94
L102.355 -268.842
L104.141 -267.651
L105.926 -266.768
L107.712 -265.278
L109.498 -263.693
L111.283 -261.824
L113.069 -259.605
L114.854 -257.167
L116.64 -254.577
L118.426 -251.722
L120.211 -248.607
L121.997 -245.392
L123.782 -241.643
L125.568 -237.621
L127.354 -233.593
L129.139 -229.196
L130.925 -224.574
L132.71 -220.005
L134.496 -214.918
L136.282 -209.576
L138.067 -203.918
L139.853 -198.134
L141.638 -192.518
L143.424 -186.525
L145.21 -180.337
L146.995 -174.281
L148.781 -167.785
L150.566 -161.8
L152.352 -155.463
L154.138 -149.525
L155.923 -143.489
L157.709 -137.545
L159.494 -132.32
L161.28 -127.022
L163.066 -121.525
L164.851 -116.527
L166.637 -112.021
L168.422 -107.637
L170.208 -103.495
L171.994 -99.4556
L173.779 -95.8001
L175.565 -92.2045
L177.35 -88.7797
L179.136 -85.8492
L180.922 -82.9086
L182.707 -80.3268
L184.493 -77.9653
L186.278 -75.6108
L188.064 -73.384
L189.85 -71.2919
L191.635 -69.4416
L193.421 -67.7414
L195.206 -66.1711
L196.992 -64.7082
L198.778 -63.276
L200.563 -62.1391
L202.349 -60.8719
L204.134 -59.7647
L205.92 -58.6917
L207.706 -57.5401
L209.491 -56.6337
L211.277 -55.7378
L213.062 -54.9222
L214.848 -54.2189
L216.634 -53.5161
L218.419 -52.8099
L220.205 -52.206
L221.99 -51.5746
L223.776 -51.006
L225.562 -50.4713
L227.347 -50.0243
L229.133 -49.5874
L230.918 -49.1816
L232.704 -48.8065
L234.49 -48.4235
L236.275 -48.0886
L238.061 -47.7792
L239.846 -47.4818
L241.632 -47.1892
L243.418 -46.9291
L245.203 -46.7046
L246.989 -46.4832
L248.774 -46.2654
L250.56 -46.0649
L252.346 -45.8908
L254.131 -45.7101
L255.917 -45.5501
L257.702 -45.4013
L259.488 -45.2638
L261.274 -45.1305
L263.059 -45.0095
L264.845 -44.8943
L266.63 -44.7846
L268.416 -44.6864
L270.202 -44.5921
L271.987 -44.5064
L273.773 -44.4259
L275.558 -44.3505
L277.344 -44.2802
L279.13 -44.2112
L280.915 -44.1481
L282.701 -44.0888
L284.486 -44.0336
L286.272 -43.9817
L288.058 -43.9326
L289.843 -43.8863
L291.629 -43.8445
L293.414 -43.8049
L295.2 -43.7674
L296.986 -43.7326
L298.771 -43.6998
L300.557 -43.669
L302.342 -43.6395
L304.128 -43.612
L305.914 -43.5865
L307.699 -43.5629
L309.485 -43.5407
L311.27 -43.5199
L313.056 -43.5005
L314.842 -43.4818
L316.627 -43.4645
L318.413 -43.4482
L320.198 -43.4329
L321.984 -43.4188
L323.77 -43.4056
L325.555 -43.393
L327.341 -43.3813
L329.126 -43.3702
L330.912 -43.3598
L332.698 -43.35
L334.483 -43.3408
L336.269 -43.3322
L338.054 -43.3242
L339.84 -43.3167
L341.626 -43.3096
L343.411 -43.3029
L345.197 -43.2967
L346.982 -43.2908
L348.768 -43.2853
L350.554 -43.2801
L352.339 -43.2753
L354.125 -43.2707
L355.91 -43.2664
L357.696 -43.2624
L359.482 -43.2586
L361.267 -43.2551
L363.053 -43.2517
L364.838 -43.2486
L366.624 -43.2457
L368.41 -43.2429
L370.195 -43.2403
L371.981 -43.2378
L373.766 -43.2355
L375.552 -43.2334
L377.338 -43.2314
L379.123 -43.2295
L380.909 -43.2277
L382.694 -43.226
L384.48 -43.2245
L386.266 -43.223
L388.051 -43.2216
L389.837 -43.2203
L391.622 -43.2191
L393.408 -43.2179
L395.194 -43.2168
L396.979 -43.2158
L398.765 -43.2149
L400.55 -43.214
L402.336 -43.2131
L404.122 -43.2123
L405.907 -43.2116
L407.693 -43.2109
L409.478 -43.2102
L411.264 -43.2096
L413.05 -43.209
L414.835 -43.2085
L416.621 -43.208
L418.406 -43.2075
L420.192 -43.2071
L421.978 -43.2066
L423.763 -43.2062
L425.549 -43.2059
L427.334 -43.2055
L429.12 -43.2052
L430.906 -43.2049
L432.691 -43.2046
L434.477 -43.2043
L436.262 -43.204
L438.048 -43.2038
L439.834 -43.2036
L441.619 -43.2034
L443.405 -43.2032
L445.19 -43.203
L446.976 -43.2028
L448.762 -43.2026
L450.547 -43.2025
L452.333 -43.2023
L454.118 -43.2022
L455.904 -43.202
L457.69 -43.2019
L459.475 -43.2018
L461.261 -43.2017
L463.046 -43.2016
L464.832 -43.2015
L466.618 -43.2014
L468.403 -43.2013
L470.189 -43.2012
L471.974 -43.2012
L473.76 -43.2011
L475.546 -43.201
L477.331 -43.201
L479.117 -43.2009
L480.902 -43.2009
L482.688 -43.2008
L484.474 -43.2008
L486.259 -43.2007
L488.045 -43.2007
L489.83 -43.2006
L491.616 -43.2006
L493.402 -43.2006
L495.187 -43.2005
L496.973 -43.2005
L498.758 -43.2005
L500.544 -43.2004
L502.33 -43.2004
L504.115 -43.2004
L505.901 -43.2004
L507.686 -43.2003
L509.472 -43.2003
L511.258 -43.2003
L513.043 -43.2003
L514.829 -43.2003
L516.614 -43.2002
L518.4 -43.2002
L518.4 -379.608
L518.4 -379.608
L516.614 -379.608
L514.829 -379.608
L513.043 -379.608
L511.258 -379.608
L509.472 -379.608
L507.686 -379.608
L505.901 -379.608
L504.115 -379.608
L502.33 -379.608
L500.544 -379.608
L498.758 -379.608
L496.973 -379.608
L495.187 -379.608
L493.402 -379.608
L491.616 -379.608
L489.83 -379.608
L488.045 -379.608
L486.259 -379.608
L484.474 -379.608
L482.688 -379.608
L480.902 -379.608
L479.117 -379.608
L477.331 -379.608
L475.546 -379.608
L473.76 -379.608
L471.974 -379.608
L470.189 -379.608
L468.403 -379.608
L466.618 -379.608
L464.832 -379.608
L463.046 -379.608
L461.261 -379.608
L459.475 -379.608
L457.69 -379.608
L455.904 -379.608
L454.118 -379.608
L452.333 -379.608
L450.547 -379.608
L448.762 -379.608
L446.976 -379.608
L445.19 -379.608
L443.405 -379.608
L441.619 -379.608
L439.834 -379.608
L438.048 -379.608
L436.262 -379.608
L434.477 -379.608
L432.691 -379.608
L430.906 -379.608
L429.12 -379.608
L427.334 -379.608
L425.549 -379.608
L423.763 -379.608
L421.978 -379.608
L420.192 -379.608
L418.406 -379.608
L416.621 -379.608
L414.835 -379.608
L413.05 -379.608
L411.264 -379.608
L409.478 -379.608
L407.693 -379.608
L405.907 -379.608
L404.122 -379.608
L402.336 -379.608
L400.55 -379.608
L398.765 -379.608
L396.979 -379.608
L395.194 -379.607
L393.408 -379.607
L391.622 -379.607
L389.837 -379.607
L388.051 -379.607
L386.266 -379.607
L384.48 -379.607
L382.694 -379.607
L380.909 -379.607
L379.123 -379.607
L377.338 -379.607
L375.552 -379.607
L373.766 -379.607
L371.981 -379.607
L370.195 -379.607
L368.41 -379.607
L366.624 -379.607
L364.838 -379.606
L363.053 -379.606
L361.267 -379.606
L359.482 -379.606
L357.696 -379.606
L355.91 -379.606
L354.125 -379.606
L352.339 -379.606
L350.554 -379.605
L348.768 -379.605
L346.982 -379.605
L345.197 -379.605
L343.411 -379.605
L341.626 -379.604
L339.84 -379.604
L338.054 -379.604
L336.269 -379.604
L334.483 -379.603
L332.698 -379.603
L330.912 -379.603
L329.126 -379.602
L327.341 -379.602
L325.555 -379.602
L323.77 -379.601
L321.984 -379.601
L320.198 -379.6
L318.413 -379.6
L316.627 -379.599
L314.842 -379.599
L313.056 -379.598
L311.27 -379.598
L309.485 -379.597
L307.699 -379.596
L305.914 -379.595
L304.128 -379.595
L302.342 -379.594
L300.557 -379.593
L298.771 -379.592
L296.986 -379.591
L295.2 -379.59
L293.414 -379.589
L291.629 -379.587
L289.843 -379.586
L288.058 -379.585
L286.272 -379.583
L284.486 -379.582
L282.701 -379.58
L280.915 -379.578
L279.13 -379.576
L277.344 -379.574
L275.558 -379.572
L273.773 -379.57
L271.987 -379.567
L270.202 -379.564
L268.416 -379.562
L266.63 -379.559
L264.845 -379.555
L263.059 -379.552
L261.274 -379.549
L259.488 -379.545
L257.702 -379.541
L255.917 -379.537
L254.131 -379.532
L252.346 -379.527
L250.56 -379.522
L248.774 -379.517
L246.989 -379.511
L245.203 -379.505
L243.418 -379.498
L241.632 -379.491
L239.846 -379.484
L238.061 -379.476
L236.275 -379.468
L234.49 -379.458
L232.704 -379.449
L230.918 -379.438
L229.133 -379.425
L227.347 -379.412
L225.562 -379.398
L223.776 -379.385
L221.99 -379.372
L220.205 -379.355
L218.419 -379.338
L216.634 -379.321
L214.848 -379.3
L213.062 -379.277
L211.277 -379.259
L209.491 -379.237
L207.706 -379.215
L205.92 -379.2
L204.134 -379.171
L202.349 -379.145
L200.563 -379.115
L198.778 -379.087
L196.992 -379.049
L195.206 -379.012
L193.421 -378.975
L191.635 -378.936
L189.85 -378.892
L188.064 -378.848
L186.278 -378.806
L184.493 -378.76
L182.707 -378.699
L180.922 -378.627
L179.136 -378.571
L177.35 -378.504
L175.565 -378.44
L173.779 -378.38
L171.994 -378.305
L170.208 -378.232
L168.422 -378.171
L166.637 -378.085
L164.851 -377.995
L163.066 -377.918
L161.28 -377.822
L159.494 -377.706
L157.709 -377.61
L155.923 -377.498
L154.138 -377.369
L152.352 -377.265
L150.566 -377.102
L148.781 -376.942
L146.995 -376.742
L145.21 -376.586
L143.424 -376.462
L141.638 -376.23
L139.853 -375.98
L138.067 -375.682
L136.282 -375.408
L134.496 -375.072
L132.71 -374.749
L130.925 -374.382
L129.139 -373.969
L127.354 -373.469
L125.568 -373.001
L123.782 -372.471
L121.997 -371.914
L120.211 -371.305
L118.426 -370.641
L116.64 -369.994
L114.854 -369.178
L113.069 -368.38
L111.283 -367.475
L109.498 -366.468
L107.712 -365.412
L105.926 -364.253
L104.141 -363.09
L102.355 -361.746
L100.57 -360.511
L98.784 -358.952
L96.9984 -357.347
L95.2128 -355.65
L93.4272 -353.826
L91.6416 -351.858
L89.856 -349.576
L88.0704 -347.237
L86.2848 -344.833
L84.4992 -342.281
L82.7136 -339.365
L80.928 -336.418
L79.1424 -333.24
L77.3568 -330.088
L75.5712 -326.734
L73.7856 -323.423
L72 -319.68
z
" id="m65d7230057" style="stroke:#000000;"/>
    </defs>
    <g clip-path="url(#p7ff5b81e1d)">
     <use style="fill:#00bfbf;stroke:#000000;" x="0.0" xlink:href="#m65d7230057" y="432.0"/>
    </g>
   </g>
   <g id="PolyCollection_5">
    <defs>
     <path d="
M72 -388.8
L72 -319.68
L73.7856 -323.423
L75.5712 -326.734
L77.3568 -330.088
L79.1424 -333.24
L80.928 -336.418
L82.7136 -339.365
L84.4992 -342.281
L86.2848 -344.833
L88.0704 -347.237
L89.856 -349.576
L91.6416 -351.858
L93.4272 -353.826
L95.2128 -355.65
L96.9984 -357.347
L98.784 -358.952
L100.57 -360.511
L102.355 -361.746
L104.141 -363.09
L105.926 -364.253
L107.712 -365.412
L109.498 -366.468
L111.283 -367.475
L113.069 -368.38
L114.854 -369.178
L116.64 -369.994
L118.426 -370.641
L120.211 -371.305
L121.997 -371.914
L123.782 -372.471
L125.568 -373.001
L127.354 -373.469
L129.139 -373.969
L130.925 -374.382
L132.71 -374.749
L134.496 -375.072
L136.282 -375.408
L138.067 -375.682
L139.853 -375.98
L141.638 -376.23
L143.424 -376.462
L145.21 -376.586
L146.995 -376.742
L148.781 -376.942
L150.566 -377.102
L152.352 -377.265
L154.138 -377.369
L155.923 -377.498
L157.709 -377.61
L159.494 -377.706
L161.28 -377.822
L163.066 -377.918
L164.851 -377.995
L166.637 -378.085
L168.422 -378.171
L170.208 -378.232
L171.994 -378.305
L173.779 -378.38
L175.565 -378.44
L177.35 -378.504
L179.136 -378.571
L180.922 -378.627
L182.707 -378.699
L184.493 -378.76
L186.278 -378.806
L188.064 -378.848
L189.85 -378.892
L191.635 -378.936
L193.421 -378.975
L195.206 -379.012
L196.992 -379.049
L198.778 -379.087
L200.563 -379.115
L202.349 -379.145
L204.134 -379.171
L205.92 -379.2
L207.706 -379.215
L209.491 -379.237
L211.277 -379.259
L213.062 -379.277
L214.848 -379.3
L216.634 -379.321
L218.419 -379.338
L220.205 -379.355
L221.99 -379.372
L223.776 -379.385
L225.562 -379.398
L227.347 -379.412
L229.133 -379.425
L230.918 -379.438
L232.704 -379.449
L234.49 -379.458
L236.275 -379.468
L238.061 -379.476
L239.846 -379.484
L241.632 -379.491
L243.418 -379.498
L245.203 -379.505
L246.989 -379.511
L248.774 -379.517
L250.56 -379.522
L252.346 -379.527
L254.131 -379.532
L255.917 -379.537
L257.702 -379.541
L259.488 -379.545
L261.274 -379.549
L263.059 -379.552
L264.845 -379.555
L266.63 -379.559
L268.416 -379.562
L270.202 -379.564
L271.987 -379.567
L273.773 -379.57
L275.558 -379.572
L277.344 -379.574
L279.13 -379.576
L280.915 -379.578
L282.701 -379.58
L284.486 -379.582
L286.272 -379.583
L288.058 -379.585
L289.843 -379.586
L291.629 -379.587
L293.414 -379.589
L295.2 -379.59
L296.986 -379.591
L298.771 -379.592
L300.557 -379.593
L302.342 -379.594
L304.128 -379.595
L305.914 -379.595
L307.699 -379.596
L309.485 -379.597
L311.27 -379.598
L313.056 -379.598
L314.842 -379.599
L316.627 -379.599
L318.413 -379.6
L320.198 -379.6
L321.984 -379.601
L323.77 -379.601
L325.555 -379.602
L327.341 -379.602
L329.126 -379.602
L330.912 -379.603
L332.698 -379.603
L334.483 -379.603
L336.269 -379.604
L338.054 -379.604
L339.84 -379.604
L341.626 -379.604
L343.411 -379.605
L345.197 -379.605
L346.982 -379.605
L348.768 -379.605
L350.554 -379.605
L352.339 -379.606
L354.125 -379.606
L355.91 -379.606
L357.696 -379.606
L359.482 -379.606
L361.267 -379.606
L363.053 -379.606
L364.838 -379.606
L366.624 -379.607
L368.41 -379.607
L370.195 -379.607
L371.981 -379.607
L373.766 -379.607
L375.552 -379.607
L377.338 -379.607
L379.123 -379.607
L380.909 -379.607
L382.694 -379.607
L384.48 -379.607
L386.266 -379.607
L388.051 -379.607
L389.837 -379.607
L391.622 -379.607
L393.408 -379.607
L395.194 -379.607
L396.979 -379.608
L398.765 -379.608
L400.55 -379.608
L402.336 -379.608
L404.122 -379.608
L405.907 -379.608
L407.693 -379.608
L409.478 -379.608
L411.264 -379.608
L413.05 -379.608
L414.835 -379.608
L416.621 -379.608
L418.406 -379.608
L420.192 -379.608
L421.978 -379.608
L423.763 -379.608
L425.549 -379.608
L427.334 -379.608
L429.12 -379.608
L430.906 -379.608
L432.691 -379.608
L434.477 -379.608
L436.262 -379.608
L438.048 -379.608
L439.834 -379.608
L441.619 -379.608
L443.405 -379.608
L445.19 -379.608
L446.976 -379.608
L448.762 -379.608
L450.547 -379.608
L452.333 -379.608
L454.118 -379.608
L455.904 -379.608
L457.69 -379.608
L459.475 -379.608
L461.261 -379.608
L463.046 -379.608
L464.832 -379.608
L466.618 -379.608
L468.403 -379.608
L470.189 -379.608
L471.974 -379.608
L473.76 -379.608
L475.546 -379.608
L477.331 -379.608
L479.117 -379.608
L480.902 -379.608
L482.688 -379.608
L484.474 -379.608
L486.259 -379.608
L488.045 -379.608
L489.83 -379.608
L491.616 -379.608
L493.402 -379.608
L495.187 -379.608
L496.973 -379.608
L498.758 -379.608
L500.544 -379.608
L502.33 -379.608
L504.115 -379.608
L505.901 -379.608
L507.686 -379.608
L509.472 -379.608
L511.258 -379.608
L513.043 -379.608
L514.829 -379.608
L516.614 -379.608
L518.4 -379.608
L518.4 -388.8
L518.4 -388.8
L516.614 -388.8
L514.829 -388.8
L513.043 -388.8
L511.258 -388.8
L509.472 -388.8
L507.686 -388.8
L505.901 -388.8
L504.115 -388.8
L502.33 -388.8
L500.544 -388.8
L498.758 -388.8
L496.973 -388.8
L495.187 -388.8
L493.402 -388.8
L491.616 -388.8
L489.83 -388.8
L488.045 -388.8
L486.259 -388.8
L484.474 -388.8
L482.688 -388.8
L480.902 -388.8
L479.117 -388.8
L477.331 -388.8
L475.546 -388.8
L473.76 -388.8
L471.974 -388.8
L470.189 -388.8
L468.403 -388.8
L466.618 -388.8
L464.832 -388.8
L463.046 -388.8
L461.261 -388.8
L459.475 -388.8
L457.69 -388.8
L455.904 -388.8
L454.118 -388.8
L452.333 -388.8
L450.547 -388.8
L448.762 -388.8
L446.976 -388.8
L445.19 -388.8
L443.405 -388.8
L441.619 -388.8
L439.834 -388.8
L438.048 -388.8
L436.262 -388.8
L434.477 -388.8
L432.691 -388.8
L430.906 -388.8
L429.12 -388.8
L427.334 -388.8
L425.549 -388.8
L423.763 -388.8
L421.978 -388.8
L420.192 -388.8
L418.406 -388.8
L416.621 -388.8
L414.835 -388.8
L413.05 -388.8
L411.264 -388.8
L409.478 -388.8
L407.693 -388.8
L405.907 -388.8
L404.122 -388.8
L402.336 -388.8
L400.55 -388.8
L398.765 -388.8
L396.979 -388.8
L395.194 -388.8
L393.408 -388.8
L391.622 -388.8
L389.837 -388.8
L388.051 -388.8
L386.266 -388.8
L384.48 -388.8
L382.694 -388.8
L380.909 -388.8
L379.123 -388.8
L377.338 -388.8
L375.552 -388.8
L373.766 -388.8
L371.981 -388.8
L370.195 -388.8
L368.41 -388.8
L366.624 -388.8
L364.838 -388.8
L363.053 -388.8
L361.267 -388.8
L359.482 -388.8
L357.696 -388.8
L355.91 -388.8
L354.125 -388.8
L352.339 -388.8
L350.554 -388.8
L348.768 -388.8
L346.982 -388.8
L345.197 -388.8
L343.411 -388.8
L341.626 -388.8
L339.84 -388.8
L338.054 -388.8
L336.269 -388.8
L334.483 -388.8
L332.698 -388.8
L330.912 -388.8
L329.126 -388.8
L327.341 -388.8
L325.555 -388.8
L323.77 -388.8
L321.984 -388.8
L320.198 -388.8
L318.413 -388.8
L316.627 -388.8
L314.842 -388.8
L313.056 -388.8
L311.27 -388.8
L309.485 -388.8
L307.699 -388.8
L305.914 -388.8
L304.128 -388.8
L302.342 -388.8
L300.557 -388.8
L298.771 -388.8
L296.986 -388.8
L295.2 -388.8
L293.414 -388.8
L291.629 -388.8
L289.843 -388.8
L288.058 -388.8
L286.272 -388.8
L284.486 -388.8
L282.701 -388.8
L280.915 -388.8
L279.13 -388.8
L277.344 -388.8
L275.558 -388.8
L273.773 -388.8
L271.987 -388.8
L270.202 -388.8
L268.416 -388.8
L266.63 -388.8
L264.845 -388.8
L263.059 -388.8
L261.274 -388.8
L259.488 -388.8
L257.702 -388.8
L255.917 -388.8
L254.131 -388.8
L252.346 -388.8
L250.56 -388.8
L248.774 -388.8
L246.989 -388.8
L245.203 -388.8
L243.418 -388.8
L241.632 -388.8
L239.846 -388.8
L238.061 -388.8
L236.275 -388.8
L234.49 -388.8
L232.704 -388.8
L230.918 -388.8
L229.133 -388.8
L227.347 -388.8
L225.562 -388.8
L223.776 -388.8
L221.99 -388.8
L220.205 -388.8
L218.419 -388.8
L216.634 -388.8
L214.848 -388.8
L213.062 -388.8
L211.277 -388.8
L209.491 -388.8
L207.706 -388.8
L205.92 -388.8
L204.134 -388.8
L202.349 -388.8
L200.563 -388.8
L198.778 -388.8
L196.992 -388.8
L195.206 -388.8
L193.421 -388.8
L191.635 -388.8
L189.85 -388.8
L188.064 -388.8
L186.278 -388.8
L184.493 -388.8
L182.707 -388.8
L180.922 -388.8
L179.136 -388.8
L177.35 -388.8
L175.565 -388.8
L173.779 -388.8
L171.994 -388.8
L170.208 -388.8
L168.422 -388.8
L166.637 -388.8
L164.851 -388.8
L163.066 -388.8
L161.28 -388.8
L159.494 -388.8
L157.709 -388.8
L155.923 -388.8
L154.138 -388.8
L152.352 -388.8
L150.566 -388.8
L148.781 -388.8
L146.995 -388.8
L145.21 -388.8
L143.424 -388.8
L141.638 -388.8
L139.853 -388.8
L138.067 -388.8
L136.282 -388.8
L134.496 -388.8
L132.71 -388.8
L130.925 -388.8
L129.139 -388.8
L127.354 -388.8
L125.568 -388.8
L123.782 -388.8
L121.997 -388.8
L120.211 -388.8
L118.426 -388.8
L116.64 -388.8
L114.854 -388.8
L113.069 -388.8
L111.283 -388.8
L109.498 -388.8
L107.712 -388.8
L105.926 -388.8
L104.141 -388.8
L102.355 -388.8
L100.57 -388.8
L98.784 -388.8
L96.9984 -388.8
L95.2128 -388.8
L93.4272 -388.8
L91.6416 -388.8
L89.856 -388.8
L88.0704 -388.8
L86.2848 -388.8
L84.4992 -388.8
L82.7136 -388.8
L80.928 -388.8
L79.1424 -388.8
L77.3568 -388.8
L75.5712 -388.8
L73.7856 -388.8
L72 -388.8
z
" id="ma7051f99e1" style="stroke:#000000;"/>
    </defs>
    <g clip-path="url(#p7ff5b81e1d)">
     <use style="fill:#bf00bf;stroke:#000000;" x="0.0" xlink:href="#ma7051f99e1" y="432.0"/>
    </g>
   </g>
   <g id="patch_3">
    <path d="
M72 43.2
L518.4 43.2" style="fill:none;stroke:#000000;stroke-linecap:square;stroke-linejoin:miter;"/>
   </g>
   <g id="patch_4">
    <path d="
M518.4 388.8
L518.4 43.2" style="fill:none;stroke:#000000;stroke-linecap:square;stroke-linejoin:miter;"/>
   </g>
   <g id="patch_5">
    <path d="
M72 388.8
L518.4 388.8" style="fill:none;stroke:#000000;stroke-linecap:square;stroke-linejoin:miter;"/>
   </g>
   <g id="patch_6">
    <path d="
M72 388.8
L72 43.2" style="fill:none;stroke:#000000;stroke-linecap:square;stroke-linejoin:miter;"/>
   </g>
   <g id="matplotlib.axis_1">
    <g id="xtick_1">
     <g id="line2d_1">
      <defs>
       <path d="
M0 0
L0 4" id="m741efc42ff" style="stroke:#000000;stroke-width:0.5;"/>
      </defs>
      <g>
       <use style="stroke:#000000;stroke-width:0.5;" x="72.0" xlink:href="#m741efc42ff" y="388.8"/>
      </g>
     </g>
     <g id="line2d_2">
      <defs>
       <path d="
M0 0
L0 -4" id="m93b0483c22" style="stroke:#000000;stroke-width:0.5;"/>
      </defs>
      <g>
       <use style="stroke:#000000;stroke-width:0.5;" x="72.0" xlink:href="#m93b0483c22" y="43.2"/>
      </g>
     </g>
     <g id="text_1">
      <!-- 0 -->
      <defs>
       <path d="
M31.7812 66.4062
Q24.1719 66.4062 20.3281 58.9062
Q16.5 51.4219 16.5 36.375
Q16.5 21.3906 20.3281 13.8906
Q24.1719 6.39062 31.7812 6.39062
Q39.4531 6.39062 43.2812 13.8906
Q47.125 21.3906 47.125 36.375
Q47.125 51.4219 43.2812 58.9062
Q39.4531 66.4062 31.7812 66.4062
M31.7812 74.2188
Q44.0469 74.2188 50.5156 64.5156
Q56.9844 54.8281 56.9844 36.375
Q56.9844 17.9688 50.5156 8.26562
Q44.0469 -1.42188 31.7812 -1.42188
Q19.5312 -1.42188 13.0625 8.26562
Q6.59375 17.9688 6.59375 36.375
Q6.59375 54.8281 13.0625 64.5156
Q19.5312 74.2188 31.7812 74.2188" id="BitstreamVeraSans-Roman-30"/>
      </defs>
      <g transform="translate(68.9765625 405.918125)scale(0.12 -0.12)">
       <use xlink:href="#BitstreamVeraSans-Roman-30"/>
      </g>
     </g>
    </g>
    <g id="xtick_2">
     <g id="line2d_3">
      <g>
       <use style="stroke:#000000;stroke-width:0.5;" x="161.28" xlink:href="#m741efc42ff" y="388.8"/>
      </g>
     </g>
     <g id="line2d_4">
      <g>
       <use style="stroke:#000000;stroke-width:0.5;" x="161.28" xlink:href="#m93b0483c22" y="43.2"/>
      </g>
     </g>
     <g id="text_2">
      <!-- 50 -->
      <defs>
       <path d="
M10.7969 72.9062
L49.5156 72.9062
L49.5156 64.5938
L19.8281 64.5938
L19.8281 46.7344
Q21.9688 47.4688 24.1094 47.8281
Q26.2656 48.1875 28.4219 48.1875
Q40.625 48.1875 47.75 41.5
Q54.8906 34.8125 54.8906 23.3906
Q54.8906 11.625 47.5625 5.09375
Q40.2344 -1.42188 26.9062 -1.42188
Q22.3125 -1.42188 17.5469 -0.640625
Q12.7969 0.140625 7.71875 1.70312
L7.71875 11.625
Q12.1094 9.23438 16.7969 8.0625
Q21.4844 6.89062 26.7031 6.89062
Q35.1562 6.89062 40.0781 11.3281
Q45.0156 15.7656 45.0156 23.3906
Q45.0156 31 40.0781 35.4375
Q35.1562 39.8906 26.7031 39.8906
Q22.75 39.8906 18.8125 39.0156
Q14.8906 38.1406 10.7969 36.2812
z
" id="BitstreamVeraSans-Roman-35"/>
      </defs>
      <g transform="translate(154.5065625 405.918125)scale(0.12 -0.12)">
       <use xlink:href="#BitstreamVeraSans-Roman-35"/>
       <use x="63.623046875" xlink:href="#BitstreamVeraSans-Roman-30"/>
      </g>
     </g>
    </g>
    <g id="xtick_3">
     <g id="line2d_5">
      <g>
       <use style="stroke:#000000;stroke-width:0.5;" x="250.56" xlink:href="#m741efc42ff" y="388.8"/>
      </g>
     </g>
     <g id="line2d_6">
      <g>
       <use style="stroke:#000000;stroke-width:0.5;" x="250.56" xlink:href="#m93b0483c22" y="43.2"/>
      </g>
     </g>
     <g id="text_3">
      <!-- 100 -->
      <defs>
       <path d="
M12.4062 8.29688
L28.5156 8.29688
L28.5156 63.9219
L10.9844 60.4062
L10.9844 69.3906
L28.4219 72.9062
L38.2812 72.9062
L38.2812 8.29688
L54.3906 8.29688
L54.3906 0
L12.4062 0
z
" id="BitstreamVeraSans-Roman-31"/>
      </defs>
      <g transform="translate(240.165 405.918125)scale(0.12 -0.12)">
       <use xlink:href="#BitstreamVeraSans-Roman-31"/>
       <use x="63.623046875" xlink:href="#BitstreamVeraSans-Roman-30"/>
       <use x="127.24609375" xlink:href="#BitstreamVeraSans-Roman-30"/>
      </g>
     </g>
    </g>
    <g id="xtick_4">
     <g id="line2d_7">
      <g>
       <use style="stroke:#000000;stroke-width:0.5;" x="339.84" xlink:href="#m741efc42ff" y="388.8"/>
      </g>
     </g>
     <g id="line2d_8">
      <g>
       <use style="stroke:#000000;stroke-width:0.5;" x="339.84" xlink:href="#m93b0483c22" y="43.2"/>
      </g>
     </g>
     <g id="text_4">
      <!-- 150 -->
      <g transform="translate(329.445 405.918125)scale(0.12 -0.12)">
       <use xlink:href="#BitstreamVeraSans-Roman-31"/>
       <use x="63.623046875" xlink:href="#BitstreamVeraSans-Roman-35"/>
       <use x="127.24609375" xlink:href="#BitstreamVeraSans-Roman-30"/>
      </g>
     </g>
    </g>
    <g id="xtick_5">
     <g id="line2d_9">
      <g>
       <use style="stroke:#000000;stroke-width:0.5;" x="429.12" xlink:href="#m741efc42ff" y="388.8"/>
      </g>
     </g>
     <g id="line2d_10">
      <g>
       <use style="stroke:#000000;stroke-width:0.5;" x="429.12" xlink:href="#m93b0483c22" y="43.2"/>
      </g>
     </g>
     <g id="text_5">
      <!-- 200 -->
      <defs>
       <path d="
M19.1875 8.29688
L53.6094 8.29688
L53.6094 0
L7.32812 0
L7.32812 8.29688
Q12.9375 14.1094 22.625 23.8906
Q32.3281 33.6875 34.8125 36.5312
Q39.5469 41.8438 41.4219 45.5312
Q43.3125 49.2188 43.3125 52.7812
Q43.3125 58.5938 39.2344 62.25
Q35.1562 65.9219 28.6094 65.9219
Q23.9688 65.9219 18.8125 64.3125
Q13.6719 62.7031 7.8125 59.4219
L7.8125 69.3906
Q13.7656 71.7812 18.9375 73
Q24.125 74.2188 28.4219 74.2188
Q39.75 74.2188 46.4844 68.5469
Q53.2188 62.8906 53.2188 53.4219
Q53.2188 48.9219 51.5312 44.8906
Q49.8594 40.875 45.4062 35.4062
Q44.1875 33.9844 37.6406 27.2188
Q31.1094 20.4531 19.1875 8.29688" id="BitstreamVeraSans-Roman-32"/>
      </defs>
      <g transform="translate(418.505625 405.918125)scale(0.12 -0.12)">
       <use xlink:href="#BitstreamVeraSans-Roman-32"/>
       <use x="63.623046875" xlink:href="#BitstreamVeraSans-Roman-30"/>
       <use x="127.24609375" xlink:href="#BitstreamVeraSans-Roman-30"/>
      </g>
     </g>
    </g>
    <g id="xtick_6">
     <g id="line2d_11">
      <g>
       <use style="stroke:#000000;stroke-width:0.5;" x="518.4" xlink:href="#m741efc42ff" y="388.8"/>
      </g>
     </g>
     <g id="line2d_12">
      <g>
       <use style="stroke:#000000;stroke-width:0.5;" x="518.4" xlink:href="#m93b0483c22" y="43.2"/>
      </g>
     </g>
     <g id="text_6">
      <!-- 250 -->
      <g transform="translate(507.785625 405.918125)scale(0.12 -0.12)">
       <use xlink:href="#BitstreamVeraSans-Roman-32"/>
       <use x="63.623046875" xlink:href="#BitstreamVeraSans-Roman-35"/>
       <use x="127.24609375" xlink:href="#BitstreamVeraSans-Roman-30"/>
      </g>
     </g>
    </g>
    <g id="text_7">
     <!-- Turn -->
     <defs>
      <path d="
M54.8906 33.0156
L54.8906 0
L45.9062 0
L45.9062 32.7188
Q45.9062 40.4844 42.875 44.3281
Q39.8438 48.1875 33.7969 48.1875
Q26.5156 48.1875 22.3125 43.5469
Q18.1094 38.9219 18.1094 30.9062
L18.1094 0
L9.07812 0
L9.07812 54.6875
L18.1094 54.6875
L18.1094 46.1875
Q21.3438 51.125 25.7031 53.5625
Q30.0781 56 35.7969 56
Q45.2188 56 50.0469 50.1719
Q54.8906 44.3438 54.8906 33.0156" id="BitstreamVeraSans-Roman-6e"/>
      <path d="
M41.1094 46.2969
Q39.5938 47.1719 37.8125 47.5781
Q36.0312 48 33.8906 48
Q26.2656 48 22.1875 43.0469
Q18.1094 38.0938 18.1094 28.8125
L18.1094 0
L9.07812 0
L9.07812 54.6875
L18.1094 54.6875
L18.1094 46.1875
Q20.9531 51.1719 25.4844 53.5781
Q30.0312 56 36.5312 56
Q37.4531 56 38.5781 55.875
Q39.7031 55.7656 41.0625 55.5156
z
" id="BitstreamVeraSans-Roman-72"/>
      <path d="
M8.5 21.5781
L8.5 54.6875
L17.4844 54.6875
L17.4844 21.9219
Q17.4844 14.1562 20.5 10.2656
Q23.5312 6.39062 29.5938 6.39062
Q36.8594 6.39062 41.0781 11.0312
Q45.3125 15.6719 45.3125 23.6875
L45.3125 54.6875
L54.2969 54.6875
L54.2969 0
L45.3125 0
L45.3125 8.40625
Q42.0469 3.42188 37.7188 1
Q33.4062 -1.42188 27.6875 -1.42188
Q18.2656 -1.42188 13.375 4.4375
Q8.5 10.2969 8.5 21.5781" id="BitstreamVeraSans-Roman-75"/>
      <path d="
M-0.296875 72.9062
L61.375 72.9062
L61.375 64.5938
L35.5 64.5938
L35.5 0
L25.5938 0
L25.5938 64.5938
L-0.296875 64.5938
z
" id="BitstreamVeraSans-Roman-54"/>
     </defs>
     <g transform="translate(282.9675 422.531875)scale(0.12 -0.12)">
      <use xlink:href="#BitstreamVeraSans-Roman-54"/>
      <use x="45.958984375" xlink:href="#BitstreamVeraSans-Roman-75"/>
      <use x="109.337890625" xlink:href="#BitstreamVeraSans-Roman-72"/>
      <use x="148.701171875" xlink:href="#BitstreamVeraSans-Roman-6e"/>
     </g>
    </g>
   </g>
   <g id="matplotlib.axis_2">
    <g id="ytick_1">
     <g id="line2d_13">
      <defs>
       <path d="
M0 0
L-4 0" id="mcb0005524f" style="stroke:#000000;stroke-width:0.5;"/>
      </defs>
      <g>
       <use style="stroke:#000000;stroke-width:0.5;" x="72.0" xlink:href="#mcb0005524f" y="354.24"/>
      </g>
     </g>
    </g>
    <g id="ytick_2">
     <g id="line2d_14">
      <g>
       <use style="stroke:#000000;stroke-width:0.5;" x="72.0" xlink:href="#mcb0005524f" y="285.12"/>
      </g>
     </g>
    </g>
    <g id="ytick_3">
     <g id="line2d_15">
      <g>
       <use style="stroke:#000000;stroke-width:0.5;" x="72.0" xlink:href="#mcb0005524f" y="216.0"/>
      </g>
     </g>
    </g>
    <g id="ytick_4">
     <g id="line2d_16">
      <g>
       <use style="stroke:#000000;stroke-width:0.5;" x="72.0" xlink:href="#mcb0005524f" y="146.88"/>
      </g>
     </g>
    </g>
    <g id="ytick_5">
     <g id="line2d_17">
      <g>
       <use style="stroke:#000000;stroke-width:0.5;" x="72.0" xlink:href="#mcb0005524f" y="77.76"/>
      </g>
     </g>
    </g>
    <g id="text_8">
     <!-- Relative population size -->
     <defs>
      <path id="BitstreamVeraSans-Roman-20"/>
      <path d="
M30.6094 48.3906
Q23.3906 48.3906 19.1875 42.75
Q14.9844 37.1094 14.9844 27.2969
Q14.9844 17.4844 19.1562 11.8438
Q23.3438 6.20312 30.6094 6.20312
Q37.7969 6.20312 41.9844 11.8594
Q46.1875 17.5312 46.1875 27.2969
Q46.1875 37.0156 41.9844 42.7031
Q37.7969 48.3906 30.6094 48.3906
M30.6094 56
Q42.3281 56 49.0156 48.375
Q55.7188 40.7656 55.7188 27.2969
Q55.7188 13.875 49.0156 6.21875
Q42.3281 -1.42188 30.6094 -1.42188
Q18.8438 -1.42188 12.1719 6.21875
Q5.51562 13.875 5.51562 27.2969
Q5.51562 40.7656 12.1719 48.375
Q18.8438 56 30.6094 56" id="BitstreamVeraSans-Roman-6f"/>
      <path d="
M9.42188 75.9844
L18.4062 75.9844
L18.4062 0
L9.42188 0
z
" id="BitstreamVeraSans-Roman-6c"/>
      <path d="
M5.51562 54.6875
L48.1875 54.6875
L48.1875 46.4844
L14.4062 7.17188
L48.1875 7.17188
L48.1875 0
L4.29688 0
L4.29688 8.20312
L38.0938 47.5156
L5.51562 47.5156
z
" id="BitstreamVeraSans-Roman-7a"/>
      <path d="
M2.98438 54.6875
L12.5 54.6875
L29.5938 8.79688
L46.6875 54.6875
L56.2031 54.6875
L35.6875 0
L23.4844 0
z
" id="BitstreamVeraSans-Roman-76"/>
      <path d="
M44.3906 34.1875
Q47.5625 33.1094 50.5625 29.5938
Q53.5625 26.0781 56.5938 19.9219
L66.6094 0
L56 0
L46.6875 18.7031
Q43.0625 26.0312 39.6719 28.4219
Q36.2812 30.8125 30.4219 30.8125
L19.6719 30.8125
L19.6719 0
L9.8125 0
L9.8125 72.9062
L32.0781 72.9062
Q44.5781 72.9062 50.7344 67.6719
Q56.8906 62.4531 56.8906 51.9062
Q56.8906 45.0156 53.6875 40.4688
Q50.4844 35.9375 44.3906 34.1875
M19.6719 64.7969
L19.6719 38.9219
L32.0781 38.9219
Q39.2031 38.9219 42.8438 42.2188
Q46.4844 45.5156 46.4844 51.9062
Q46.4844 58.2969 42.8438 61.5469
Q39.2031 64.7969 32.0781 64.7969
z
" id="BitstreamVeraSans-Roman-52"/>
      <path d="
M9.42188 54.6875
L18.4062 54.6875
L18.4062 0
L9.42188 0
z

M9.42188 75.9844
L18.4062 75.9844
L18.4062 64.5938
L9.42188 64.5938
z
" id="BitstreamVeraSans-Roman-69"/>
      <path d="
M56.2031 29.5938
L56.2031 25.2031
L14.8906 25.2031
Q15.4844 15.9219 20.4844 11.0625
Q25.4844 6.20312 34.4219 6.20312
Q39.5938 6.20312 44.4531 7.46875
Q49.3125 8.73438 54.1094 11.2812
L54.1094 2.78125
Q49.2656 0.734375 44.1875 -0.34375
Q39.1094 -1.42188 33.8906 -1.42188
Q20.7969 -1.42188 13.1562 6.1875
Q5.51562 13.8125 5.51562 26.8125
Q5.51562 40.2344 12.7656 48.1094
Q20.0156 56 32.3281 56
Q43.3594 56 49.7812 48.8906
Q56.2031 41.7969 56.2031 29.5938
M47.2188 32.2344
Q47.125 39.5938 43.0938 43.9844
Q39.0625 48.3906 32.4219 48.3906
Q24.9062 48.3906 20.3906 44.1406
Q15.875 39.8906 15.1875 32.1719
z
" id="BitstreamVeraSans-Roman-65"/>
      <path d="
M18.3125 70.2188
L18.3125 54.6875
L36.8125 54.6875
L36.8125 47.7031
L18.3125 47.7031
L18.3125 18.0156
Q18.3125 11.3281 20.1406 9.42188
Q21.9688 7.51562 27.5938 7.51562
L36.8125 7.51562
L36.8125 0
L27.5938 0
Q17.1875 0 13.2344 3.875
Q9.28125 7.76562 9.28125 18.0156
L9.28125 47.7031
L2.6875 47.7031
L2.6875 54.6875
L9.28125 54.6875
L9.28125 70.2188
z
" id="BitstreamVeraSans-Roman-74"/>
      <path d="
M34.2812 27.4844
Q23.3906 27.4844 19.1875 25
Q14.9844 22.5156 14.9844 16.5
Q14.9844 11.7188 18.1406 8.90625
Q21.2969 6.10938 26.7031 6.10938
Q34.1875 6.10938 38.7031 11.4062
Q43.2188 16.7031 43.2188 25.4844
L43.2188 27.4844
z

M52.2031 31.2031
L52.2031 0
L43.2188 0
L43.2188 8.29688
Q40.1406 3.32812 35.5469 0.953125
Q30.9531 -1.42188 24.3125 -1.42188
Q15.9219 -1.42188 10.9531 3.29688
Q6 8.01562 6 15.9219
Q6 25.1406 12.1719 29.8281
Q18.3594 34.5156 30.6094 34.5156
L43.2188 34.5156
L43.2188 35.4062
Q43.2188 41.6094 39.1406 45
Q35.0625 48.3906 27.6875 48.3906
Q23 48.3906 18.5469 47.2656
Q14.1094 46.1406 10.0156 43.8906
L10.0156 52.2031
Q14.9375 54.1094 19.5781 55.0469
Q24.2188 56 28.6094 56
Q40.4844 56 46.3438 49.8438
Q52.2031 43.7031 52.2031 31.2031" id="BitstreamVeraSans-Roman-61"/>
      <path d="
M44.2812 53.0781
L44.2812 44.5781
Q40.4844 46.5312 36.375 47.5
Q32.2812 48.4844 27.875 48.4844
Q21.1875 48.4844 17.8438 46.4375
Q14.5 44.3906 14.5 40.2812
Q14.5 37.1562 16.8906 35.375
Q19.2812 33.5938 26.5156 31.9844
L29.5938 31.2969
Q39.1562 29.25 43.1875 25.5156
Q47.2188 21.7812 47.2188 15.0938
Q47.2188 7.46875 41.1875 3.01562
Q35.1562 -1.42188 24.6094 -1.42188
Q20.2188 -1.42188 15.4531 -0.5625
Q10.6875 0.296875 5.42188 2
L5.42188 11.2812
Q10.4062 8.6875 15.2344 7.39062
Q20.0625 6.10938 24.8125 6.10938
Q31.1562 6.10938 34.5625 8.28125
Q37.9844 10.4531 37.9844 14.4062
Q37.9844 18.0625 35.5156 20.0156
Q33.0625 21.9688 24.7031 23.7812
L21.5781 24.5156
Q13.2344 26.2656 9.51562 29.9062
Q5.8125 33.5469 5.8125 39.8906
Q5.8125 47.6094 11.2812 51.7969
Q16.75 56 26.8125 56
Q31.7812 56 36.1719 55.2656
Q40.5781 54.5469 44.2812 53.0781" id="BitstreamVeraSans-Roman-73"/>
      <path d="
M18.1094 8.20312
L18.1094 -20.7969
L9.07812 -20.7969
L9.07812 54.6875
L18.1094 54.6875
L18.1094 46.3906
Q20.9531 51.2656 25.2656 53.625
Q29.5938 56 35.5938 56
Q45.5625 56 51.7812 48.0938
Q58.0156 40.1875 58.0156 27.2969
Q58.0156 14.4062 51.7812 6.48438
Q45.5625 -1.42188 35.5938 -1.42188
Q29.5938 -1.42188 25.2656 0.953125
Q20.9531 3.32812 18.1094 8.20312
M48.6875 27.2969
Q48.6875 37.2031 44.6094 42.8438
Q40.5312 48.4844 33.4062 48.4844
Q26.2656 48.4844 22.1875 42.8438
Q18.1094 37.2031 18.1094 27.2969
Q18.1094 17.3906 22.1875 11.75
Q26.2656 6.10938 33.4062 6.10938
Q40.5312 6.10938 44.6094 11.75
Q48.6875 17.3906 48.6875 27.2969" id="BitstreamVeraSans-Roman-70"/>
     </defs>
     <g transform="translate(552.518125 287.2528125)rotate(-90.0)scale(0.12 -0.12)">
      <use xlink:href="#BitstreamVeraSans-Roman-52"/>
      <use x="64.982421875" xlink:href="#BitstreamVeraSans-Roman-65"/>
      <use x="126.505859375" xlink:href="#BitstreamVeraSans-Roman-6c"/>
      <use x="154.2890625" xlink:href="#BitstreamVeraSans-Roman-61"/>
      <use x="215.568359375" xlink:href="#BitstreamVeraSans-Roman-74"/>
      <use x="254.77734375" xlink:href="#BitstreamVeraSans-Roman-69"/>
      <use x="282.560546875" xlink:href="#BitstreamVeraSans-Roman-76"/>
      <use x="341.740234375" xlink:href="#BitstreamVeraSans-Roman-65"/>
      <use x="403.263671875" xlink:href="#BitstreamVeraSans-Roman-20"/>
      <use x="435.05078125" xlink:href="#BitstreamVeraSans-Roman-70"/>
      <use x="498.52734375" xlink:href="#BitstreamVeraSans-Roman-6f"/>
      <use x="559.708984375" xlink:href="#BitstreamVeraSans-Roman-70"/>
      <use x="623.185546875" xlink:href="#BitstreamVeraSans-Roman-75"/>
      <use x="686.564453125" xlink:href="#BitstreamVeraSans-Roman-6c"/>
      <use x="714.34765625" xlink:href="#BitstreamVeraSans-Roman-61"/>
      <use x="775.626953125" xlink:href="#BitstreamVeraSans-Roman-74"/>
      <use x="814.8359375" xlink:href="#BitstreamVeraSans-Roman-69"/>
      <use x="842.619140625" xlink:href="#BitstreamVeraSans-Roman-6f"/>
      <use x="903.80078125" xlink:href="#BitstreamVeraSans-Roman-6e"/>
      <use x="967.1796875" xlink:href="#BitstreamVeraSans-Roman-20"/>
      <use x="998.966796875" xlink:href="#BitstreamVeraSans-Roman-73"/>
      <use x="1051.06640625" xlink:href="#BitstreamVeraSans-Roman-69"/>
      <use x="1078.84960938" xlink:href="#BitstreamVeraSans-Roman-7a"/>
      <use x="1131.33984375" xlink:href="#BitstreamVeraSans-Roman-65"/>
     </g>
    </g>
   </g>
   <g id="text_9">
    <!-- Defector -->
    <defs>
     <path d="
M19.6719 64.7969
L19.6719 8.10938
L31.5938 8.10938
Q46.6875 8.10938 53.6875 14.9375
Q60.6875 21.7812 60.6875 36.5312
Q60.6875 51.1719 53.6875 57.9844
Q46.6875 64.7969 31.5938 64.7969
z

M9.8125 72.9062
L30.0781 72.9062
Q51.2656 72.9062 61.1719 64.0938
Q71.0938 55.2812 71.0938 36.5312
Q71.0938 17.6719 61.125 8.82812
Q51.1719 0 30.0781 0
L9.8125 0
z
" id="BitstreamVeraSans-Roman-44"/>
     <path d="
M37.1094 75.9844
L37.1094 68.5
L28.5156 68.5
Q23.6875 68.5 21.7969 66.5469
Q19.9219 64.5938 19.9219 59.5156
L19.9219 54.6875
L34.7188 54.6875
L34.7188 47.7031
L19.9219 47.7031
L19.9219 0
L10.8906 0
L10.8906 47.7031
L2.29688 47.7031
L2.29688 54.6875
L10.8906 54.6875
L10.8906 58.5
Q10.8906 67.625 15.1406 71.7969
Q19.3906 75.9844 28.6094 75.9844
z
" id="BitstreamVeraSans-Roman-66"/>
     <path d="
M48.7812 52.5938
L48.7812 44.1875
Q44.9688 46.2969 41.1406 47.3438
Q37.3125 48.3906 33.4062 48.3906
Q24.6562 48.3906 19.8125 42.8438
Q14.9844 37.3125 14.9844 27.2969
Q14.9844 17.2812 19.8125 11.7344
Q24.6562 6.20312 33.4062 6.20312
Q37.3125 6.20312 41.1406 7.25
Q44.9688 8.29688 48.7812 10.4062
L48.7812 2.09375
Q45.0156 0.34375 40.9844 -0.53125
Q36.9688 -1.42188 32.4219 -1.42188
Q20.0625 -1.42188 12.7812 6.34375
Q5.51562 14.1094 5.51562 27.2969
Q5.51562 40.6719 12.8594 48.3281
Q20.2188 56 33.0156 56
Q37.1562 56 41.1094 55.1406
Q45.0625 54.2969 48.7812 52.5938" id="BitstreamVeraSans-Roman-63"/>
    </defs>
    <g transform="translate(29.317 356.4475)scale(0.08 -0.08)">
     <use xlink:href="#BitstreamVeraSans-Roman-44"/>
     <use x="77.001953125" xlink:href="#BitstreamVeraSans-Roman-65"/>
     <use x="138.525390625" xlink:href="#BitstreamVeraSans-Roman-66"/>
     <use x="173.73046875" xlink:href="#BitstreamVeraSans-Roman-65"/>
     <use x="235.25390625" xlink:href="#BitstreamVeraSans-Roman-63"/>
     <use x="290.234375" xlink:href="#BitstreamVeraSans-Roman-74"/>
     <use x="329.443359375" xlink:href="#BitstreamVeraSans-Roman-6f"/>
     <use x="390.625" xlink:href="#BitstreamVeraSans-Roman-72"/>
    </g>
   </g>
   <g id="text_10">
    <!-- Alternator -->
    <defs>
     <path d="
M34.1875 63.1875
L20.7969 26.9062
L47.6094 26.9062
z

M28.6094 72.9062
L39.7969 72.9062
L67.5781 0
L57.3281 0
L50.6875 18.7031
L17.8281 18.7031
L11.1875 0
L0.78125 0
z
" id="BitstreamVeraSans-Roman-41"/>
    </defs>
    <g transform="translate(22.9395 287.3275)scale(0.08 -0.08)">
     <use xlink:href="#BitstreamVeraSans-Roman-41"/>
     <use x="68.408203125" xlink:href="#BitstreamVeraSans-Roman-6c"/>
     <use x="96.19140625" xlink:href="#BitstreamVeraSans-Roman-74"/>
     <use x="135.400390625" xlink:href="#BitstreamVeraSans-Roman-65"/>
     <use x="196.923828125" xlink:href="#BitstreamVeraSans-Roman-72"/>
     <use x="236.287109375" xlink:href="#BitstreamVeraSans-Roman-6e"/>
     <use x="299.666015625" xlink:href="#BitstreamVeraSans-Roman-61"/>
     <use x="360.9453125" xlink:href="#BitstreamVeraSans-Roman-74"/>
     <use x="400.154296875" xlink:href="#BitstreamVeraSans-Roman-6f"/>
     <use x="461.3359375" xlink:href="#BitstreamVeraSans-Roman-72"/>
    </g>
   </g>
   <g id="text_11">
    <!-- Random -->
    <defs>
     <path d="
M45.4062 46.3906
L45.4062 75.9844
L54.3906 75.9844
L54.3906 0
L45.4062 0
L45.4062 8.20312
Q42.5781 3.32812 38.25 0.953125
Q33.9375 -1.42188 27.875 -1.42188
Q17.9688 -1.42188 11.7344 6.48438
Q5.51562 14.4062 5.51562 27.2969
Q5.51562 40.1875 11.7344 48.0938
Q17.9688 56 27.875 56
Q33.9375 56 38.25 53.625
Q42.5781 51.2656 45.4062 46.3906
M14.7969 27.2969
Q14.7969 17.3906 18.875 11.75
Q22.9531 6.10938 30.0781 6.10938
Q37.2031 6.10938 41.2969 11.75
Q45.4062 17.3906 45.4062 27.2969
Q45.4062 37.2031 41.2969 42.8438
Q37.2031 48.4844 30.0781 48.4844
Q22.9531 48.4844 18.875 42.8438
Q14.7969 37.2031 14.7969 27.2969" id="BitstreamVeraSans-Roman-64"/>
     <path d="
M52 44.1875
Q55.375 50.25 60.0625 53.125
Q64.75 56 71.0938 56
Q79.6406 56 84.2812 50.0156
Q88.9219 44.0469 88.9219 33.0156
L88.9219 0
L79.8906 0
L79.8906 32.7188
Q79.8906 40.5781 77.0938 44.375
Q74.3125 48.1875 68.6094 48.1875
Q61.625 48.1875 57.5625 43.5469
Q53.5156 38.9219 53.5156 30.9062
L53.5156 0
L44.4844 0
L44.4844 32.7188
Q44.4844 40.625 41.7031 44.4062
Q38.9219 48.1875 33.1094 48.1875
Q26.2188 48.1875 22.1562 43.5312
Q18.1094 38.875 18.1094 30.9062
L18.1094 0
L9.07812 0
L9.07812 54.6875
L18.1094 54.6875
L18.1094 46.1875
Q21.1875 51.2188 25.4844 53.6094
Q29.7812 56 35.6875 56
Q41.6562 56 45.8281 52.9688
Q50 49.9531 52 44.1875" id="BitstreamVeraSans-Roman-6d"/>
    </defs>
    <g transform="translate(31.41825 218.2075)scale(0.08 -0.08)">
     <use xlink:href="#BitstreamVeraSans-Roman-52"/>
     <use x="67.232421875" xlink:href="#BitstreamVeraSans-Roman-61"/>
     <use x="128.51171875" xlink:href="#BitstreamVeraSans-Roman-6e"/>
     <use x="191.890625" xlink:href="#BitstreamVeraSans-Roman-64"/>
     <use x="255.3671875" xlink:href="#BitstreamVeraSans-Roman-6f"/>
     <use x="316.548828125" xlink:href="#BitstreamVeraSans-Roman-6d"/>
    </g>
   </g>
   <g id="text_12">
    <!-- Tit For Tat -->
    <defs>
     <path d="
M9.8125 72.9062
L51.7031 72.9062
L51.7031 64.5938
L19.6719 64.5938
L19.6719 43.1094
L48.5781 43.1094
L48.5781 34.8125
L19.6719 34.8125
L19.6719 0
L9.8125 0
z
" id="BitstreamVeraSans-Roman-46"/>
    </defs>
    <g transform="translate(24.0595 149.0875)scale(0.08 -0.08)">
     <use xlink:href="#BitstreamVeraSans-Roman-54"/>
     <use x="57.958984375" xlink:href="#BitstreamVeraSans-Roman-69"/>
     <use x="85.7421875" xlink:href="#BitstreamVeraSans-Roman-74"/>
     <use x="124.951171875" xlink:href="#BitstreamVeraSans-Roman-20"/>
     <use x="156.73828125" xlink:href="#BitstreamVeraSans-Roman-46"/>
     <use x="210.6328125" xlink:href="#BitstreamVeraSans-Roman-6f"/>
     <use x="271.814453125" xlink:href="#BitstreamVeraSans-Roman-72"/>
     <use x="312.927734375" xlink:href="#BitstreamVeraSans-Roman-20"/>
     <use x="344.71484375" xlink:href="#BitstreamVeraSans-Roman-54"/>
     <use x="389.298828125" xlink:href="#BitstreamVeraSans-Roman-61"/>
     <use x="450.578125" xlink:href="#BitstreamVeraSans-Roman-74"/>
    </g>
   </g>
   <g id="text_13">
    <!-- Cooperator -->
    <defs>
     <path d="
M64.4062 67.2812
L64.4062 56.8906
Q59.4219 61.5312 53.7812 63.8125
Q48.1406 66.1094 41.7969 66.1094
Q29.2969 66.1094 22.6562 58.4688
Q16.0156 50.8281 16.0156 36.375
Q16.0156 21.9688 22.6562 14.3281
Q29.2969 6.6875 41.7969 6.6875
Q48.1406 6.6875 53.7812 8.98438
Q59.4219 11.2812 64.4062 15.9219
L64.4062 5.60938
Q59.2344 2.09375 53.4375 0.328125
Q47.6562 -1.42188 41.2188 -1.42188
Q24.6562 -1.42188 15.125 8.70312
Q5.60938 18.8438 5.60938 36.375
Q5.60938 53.9531 15.125 64.0781
Q24.6562 74.2188 41.2188 74.2188
Q47.75 74.2188 53.5312 72.4844
Q59.3281 70.75 64.4062 67.2812" id="BitstreamVeraSans-Roman-43"/>
    </defs>
    <g transform="translate(18.632 79.9675)scale(0.08 -0.08)">
     <use xlink:href="#BitstreamVeraSans-Roman-43"/>
     <use x="69.82421875" xlink:href="#BitstreamVeraSans-Roman-6f"/>
     <use x="131.005859375" xlink:href="#BitstreamVeraSans-Roman-6f"/>
     <use x="192.1875" xlink:href="#BitstreamVeraSans-Roman-70"/>
     <use x="255.6640625" xlink:href="#BitstreamVeraSans-Roman-65"/>
     <use x="317.1875" xlink:href="#BitstreamVeraSans-Roman-72"/>
     <use x="358.30078125" xlink:href="#BitstreamVeraSans-Roman-61"/>
     <use x="419.580078125" xlink:href="#BitstreamVeraSans-Roman-74"/>
     <use x="458.7890625" xlink:href="#BitstreamVeraSans-Roman-6f"/>
     <use x="519.970703125" xlink:href="#BitstreamVeraSans-Roman-72"/>
    </g>
   </g>
   <g id="text_14">
    <!-- Strategy population dynamics based on average payoffs -->
    <defs>
     <path d="
M45.4062 27.9844
Q45.4062 37.75 41.375 43.1094
Q37.3594 48.4844 30.0781 48.4844
Q22.8594 48.4844 18.8281 43.1094
Q14.7969 37.75 14.7969 27.9844
Q14.7969 18.2656 18.8281 12.8906
Q22.8594 7.51562 30.0781 7.51562
Q37.3594 7.51562 41.375 12.8906
Q45.4062 18.2656 45.4062 27.9844
M54.3906 6.78125
Q54.3906 -7.17188 48.1875 -13.9844
Q42 -20.7969 29.2031 -20.7969
Q24.4688 -20.7969 20.2656 -20.0938
Q16.0625 -19.3906 12.1094 -17.9219
L12.1094 -9.1875
Q16.0625 -11.3281 19.9219 -12.3438
Q23.7812 -13.375 27.7812 -13.375
Q36.625 -13.375 41.0156 -8.76562
Q45.4062 -4.15625 45.4062 5.17188
L45.4062 9.625
Q42.625 4.78125 38.2812 2.39062
Q33.9375 0 27.875 0
Q17.8281 0 11.6719 7.65625
Q5.51562 15.3281 5.51562 27.9844
Q5.51562 40.6719 11.6719 48.3281
Q17.8281 56 27.875 56
Q33.9375 56 38.2812 53.6094
Q42.625 51.2188 45.4062 46.3906
L45.4062 54.6875
L54.3906 54.6875
z
" id="BitstreamVeraSans-Roman-67"/>
     <path d="
M53.5156 70.5156
L53.5156 60.8906
Q47.9062 63.5781 42.9219 64.8906
Q37.9375 66.2188 33.2969 66.2188
Q25.25 66.2188 20.875 63.0938
Q16.5 59.9688 16.5 54.2031
Q16.5 49.3594 19.4062 46.8906
Q22.3125 44.4375 30.4219 42.9219
L36.375 41.7031
Q47.4062 39.5938 52.6562 34.2969
Q57.9062 29 57.9062 20.125
Q57.9062 9.51562 50.7969 4.04688
Q43.7031 -1.42188 29.9844 -1.42188
Q24.8125 -1.42188 18.9688 -0.25
Q13.1406 0.921875 6.89062 3.21875
L6.89062 13.375
Q12.8906 10.0156 18.6562 8.29688
Q24.4219 6.59375 29.9844 6.59375
Q38.4219 6.59375 43.0156 9.90625
Q47.6094 13.2344 47.6094 19.3906
Q47.6094 24.75 44.3125 27.7812
Q41.0156 30.8125 33.5 32.3281
L27.4844 33.5
Q16.4531 35.6875 11.5156 40.375
Q6.59375 45.0625 6.59375 53.4219
Q6.59375 63.0938 13.4062 68.6562
Q20.2188 74.2188 32.1719 74.2188
Q37.3125 74.2188 42.625 73.2812
Q47.9531 72.3594 53.5156 70.5156" id="BitstreamVeraSans-Roman-53"/>
     <path d="
M48.6875 27.2969
Q48.6875 37.2031 44.6094 42.8438
Q40.5312 48.4844 33.4062 48.4844
Q26.2656 48.4844 22.1875 42.8438
Q18.1094 37.2031 18.1094 27.2969
Q18.1094 17.3906 22.1875 11.75
Q26.2656 6.10938 33.4062 6.10938
Q40.5312 6.10938 44.6094 11.75
Q48.6875 17.3906 48.6875 27.2969
M18.1094 46.3906
Q20.9531 51.2656 25.2656 53.625
Q29.5938 56 35.5938 56
Q45.5625 56 51.7812 48.0938
Q58.0156 40.1875 58.0156 27.2969
Q58.0156 14.4062 51.7812 6.48438
Q45.5625 -1.42188 35.5938 -1.42188
Q29.5938 -1.42188 25.2656 0.953125
Q20.9531 3.32812 18.1094 8.20312
L18.1094 0
L9.07812 0
L9.07812 75.9844
L18.1094 75.9844
z
" id="BitstreamVeraSans-Roman-62"/>
     <path d="
M32.1719 -5.07812
Q28.375 -14.8438 24.75 -17.8125
Q21.1406 -20.7969 15.0938 -20.7969
L7.90625 -20.7969
L7.90625 -13.2812
L13.1875 -13.2812
Q16.8906 -13.2812 18.9375 -11.5156
Q21 -9.76562 23.4844 -3.21875
L25.0938 0.875
L2.98438 54.6875
L12.5 54.6875
L29.5938 11.9219
L46.6875 54.6875
L56.2031 54.6875
z
" id="BitstreamVeraSans-Roman-79"/>
    </defs>
    <g transform="translate(91.474875 38.2)scale(0.144 -0.144)">
     <use xlink:href="#BitstreamVeraSans-Roman-53"/>
     <use x="63.4765625" xlink:href="#BitstreamVeraSans-Roman-74"/>
     <use x="102.685546875" xlink:href="#BitstreamVeraSans-Roman-72"/>
     <use x="143.798828125" xlink:href="#BitstreamVeraSans-Roman-61"/>
     <use x="205.078125" xlink:href="#BitstreamVeraSans-Roman-74"/>
     <use x="244.287109375" xlink:href="#BitstreamVeraSans-Roman-65"/>
     <use x="305.810546875" xlink:href="#BitstreamVeraSans-Roman-67"/>
     <use x="369.287109375" xlink:href="#BitstreamVeraSans-Roman-79"/>
     <use x="428.466796875" xlink:href="#BitstreamVeraSans-Roman-20"/>
     <use x="460.25390625" xlink:href="#BitstreamVeraSans-Roman-70"/>
     <use x="523.73046875" xlink:href="#BitstreamVeraSans-Roman-6f"/>
     <use x="584.912109375" xlink:href="#BitstreamVeraSans-Roman-70"/>
     <use x="648.388671875" xlink:href="#BitstreamVeraSans-Roman-75"/>
     <use x="711.767578125" xlink:href="#BitstreamVeraSans-Roman-6c"/>
     <use x="739.55078125" xlink:href="#BitstreamVeraSans-Roman-61"/>
     <use x="800.830078125" xlink:href="#BitstreamVeraSans-Roman-74"/>
     <use x="840.0390625" xlink:href="#BitstreamVeraSans-Roman-69"/>
     <use x="867.822265625" xlink:href="#BitstreamVeraSans-Roman-6f"/>
     <use x="929.00390625" xlink:href="#BitstreamVeraSans-Roman-6e"/>
     <use x="992.3828125" xlink:href="#BitstreamVeraSans-Roman-20"/>
     <use x="1024.16992188" xlink:href="#BitstreamVeraSans-Roman-64"/>
     <use x="1087.64648438" xlink:href="#BitstreamVeraSans-Roman-79"/>
     <use x="1146.82617188" xlink:href="#BitstreamVeraSans-Roman-6e"/>
     <use x="1210.20507812" xlink:href="#BitstreamVeraSans-Roman-61"/>
     <use x="1271.484375" xlink:href="#BitstreamVeraSans-Roman-6d"/>
     <use x="1368.89648438" xlink:href="#BitstreamVeraSans-Roman-69"/>
     <use x="1396.6796875" xlink:href="#BitstreamVeraSans-Roman-63"/>
     <use x="1451.66015625" xlink:href="#BitstreamVeraSans-Roman-73"/>
     <use x="1503.75976562" xlink:href="#BitstreamVeraSans-Roman-20"/>
     <use x="1535.546875" xlink:href="#BitstreamVeraSans-Roman-62"/>
     <use x="1599.0234375" xlink:href="#BitstreamVeraSans-Roman-61"/>
     <use x="1660.30273438" xlink:href="#BitstreamVeraSans-Roman-73"/>
     <use x="1712.40234375" xlink:href="#BitstreamVeraSans-Roman-65"/>
     <use x="1773.92578125" xlink:href="#BitstreamVeraSans-Roman-64"/>
     <use x="1837.40234375" xlink:href="#BitstreamVeraSans-Roman-20"/>
     <use x="1869.18945312" xlink:href="#BitstreamVeraSans-Roman-6f"/>
     <use x="1930.37109375" xlink:href="#BitstreamVeraSans-Roman-6e"/>
     <use x="1993.75" xlink:href="#BitstreamVeraSans-Roman-20"/>
     <use x="2025.53710938" xlink:href="#BitstreamVeraSans-Roman-61"/>
     <use x="2086.81640625" xlink:href="#BitstreamVeraSans-Roman-76"/>
     <use x="2145.99609375" xlink:href="#BitstreamVeraSans-Roman-65"/>
     <use x="2207.51953125" xlink:href="#BitstreamVeraSans-Roman-72"/>
     <use x="2248.6328125" xlink:href="#BitstreamVeraSans-Roman-61"/>
     <use x="2309.91210938" xlink:href="#BitstreamVeraSans-Roman-67"/>
     <use x="2373.38867188" xlink:href="#BitstreamVeraSans-Roman-65"/>
     <use x="2434.91210938" xlink:href="#BitstreamVeraSans-Roman-20"/>
     <use x="2466.69921875" xlink:href="#BitstreamVeraSans-Roman-70"/>
     <use x="2530.17578125" xlink:href="#BitstreamVeraSans-Roman-61"/>
     <use x="2591.45507812" xlink:href="#BitstreamVeraSans-Roman-79"/>
     <use x="2650.63476562" xlink:href="#BitstreamVeraSans-Roman-6f"/>
     <use x="2711.81640625" xlink:href="#BitstreamVeraSans-Roman-66"/>
     <use x="2747.02148438" xlink:href="#BitstreamVeraSans-Roman-66"/>
     <use x="2782.2265625" xlink:href="#BitstreamVeraSans-Roman-73"/>
    </g>
   </g>
  </g>
  <g id="axes_2">
   <g id="patch_7">
    <path d="
M72 43.2
L518.4 43.2" style="fill:none;stroke:#000000;stroke-linecap:square;stroke-linejoin:miter;"/>
   </g>
   <g id="patch_8">
    <path d="
M518.4 388.8
L518.4 43.2" style="fill:none;stroke:#000000;stroke-linecap:square;stroke-linejoin:miter;"/>
   </g>
   <g id="patch_9">
    <path d="
M72 388.8
L518.4 388.8" style="fill:none;stroke:#000000;stroke-linecap:square;stroke-linejoin:miter;"/>
   </g>
   <g id="patch_10">
    <path d="
M72 388.8
L72 43.2" style="fill:none;stroke:#000000;stroke-linecap:square;stroke-linejoin:miter;"/>
   </g>
   <g id="matplotlib.axis_3">
    <g id="ytick_6">
     <g id="line2d_18">
      <g>
       <use style="stroke:#000000;stroke-width:0.5;" x="518.4" xlink:href="#mcb0005524f" y="388.8"/>
      </g>
     </g>
     <g id="text_15">
      <!-- 0.0 -->
      <defs>
       <path d="
M10.6875 12.4062
L21 12.4062
L21 0
L10.6875 0
z
" id="BitstreamVeraSans-Roman-2e"/>
      </defs>
      <g transform="translate(522.4 392.11125)scale(0.12 -0.12)">
       <use xlink:href="#BitstreamVeraSans-Roman-30"/>
       <use x="63.623046875" xlink:href="#BitstreamVeraSans-Roman-2e"/>
       <use x="95.41015625" xlink:href="#BitstreamVeraSans-Roman-30"/>
      </g>
     </g>
    </g>
    <g id="ytick_7">
     <g id="line2d_19">
      <g>
       <use style="stroke:#000000;stroke-width:0.5;" x="518.4" xlink:href="#mcb0005524f" y="319.68"/>
      </g>
     </g>
     <g id="text_16">
      <!-- 0.2 -->
      <g transform="translate(522.4 322.99125)scale(0.12 -0.12)">
       <use xlink:href="#BitstreamVeraSans-Roman-30"/>
       <use x="63.623046875" xlink:href="#BitstreamVeraSans-Roman-2e"/>
       <use x="95.41015625" xlink:href="#BitstreamVeraSans-Roman-32"/>
      </g>
     </g>
    </g>
    <g id="ytick_8">
     <g id="line2d_20">
      <g>
       <use style="stroke:#000000;stroke-width:0.5;" x="518.4" xlink:href="#mcb0005524f" y="250.56"/>
      </g>
     </g>
     <g id="text_17">
      <!-- 0.4 -->
      <defs>
       <path d="
M37.7969 64.3125
L12.8906 25.3906
L37.7969 25.3906
z

M35.2031 72.9062
L47.6094 72.9062
L47.6094 25.3906
L58.0156 25.3906
L58.0156 17.1875
L47.6094 17.1875
L47.6094 0
L37.7969 0
L37.7969 17.1875
L4.89062 17.1875
L4.89062 26.7031
z
" id="BitstreamVeraSans-Roman-34"/>
      </defs>
      <g transform="translate(522.4 253.87125)scale(0.12 -0.12)">
       <use xlink:href="#BitstreamVeraSans-Roman-30"/>
       <use x="63.623046875" xlink:href="#BitstreamVeraSans-Roman-2e"/>
       <use x="95.41015625" xlink:href="#BitstreamVeraSans-Roman-34"/>
      </g>
     </g>
    </g>
    <g id="ytick_9">
     <g id="line2d_21">
      <g>
       <use style="stroke:#000000;stroke-width:0.5;" x="518.4" xlink:href="#mcb0005524f" y="181.44"/>
      </g>
     </g>
     <g id="text_18">
      <!-- 0.6 -->
      <defs>
       <path d="
M33.0156 40.375
Q26.375 40.375 22.4844 35.8281
Q18.6094 31.2969 18.6094 23.3906
Q18.6094 15.5312 22.4844 10.9531
Q26.375 6.39062 33.0156 6.39062
Q39.6562 6.39062 43.5312 10.9531
Q47.4062 15.5312 47.4062 23.3906
Q47.4062 31.2969 43.5312 35.8281
Q39.6562 40.375 33.0156 40.375
M52.5938 71.2969
L52.5938 62.3125
Q48.875 64.0625 45.0938 64.9844
Q41.3125 65.9219 37.5938 65.9219
Q27.8281 65.9219 22.6719 59.3281
Q17.5312 52.7344 16.7969 39.4062
Q19.6719 43.6562 24.0156 45.9219
Q28.375 48.1875 33.5938 48.1875
Q44.5781 48.1875 50.9531 41.5156
Q57.3281 34.8594 57.3281 23.3906
Q57.3281 12.1562 50.6875 5.35938
Q44.0469 -1.42188 33.0156 -1.42188
Q20.3594 -1.42188 13.6719 8.26562
Q6.98438 17.9688 6.98438 36.375
Q6.98438 53.6562 15.1875 63.9375
Q23.3906 74.2188 37.2031 74.2188
Q40.9219 74.2188 44.7031 73.4844
Q48.4844 72.75 52.5938 71.2969" id="BitstreamVeraSans-Roman-36"/>
      </defs>
      <g transform="translate(522.4 184.75125)scale(0.12 -0.12)">
       <use xlink:href="#BitstreamVeraSans-Roman-30"/>
       <use x="63.623046875" xlink:href="#BitstreamVeraSans-Roman-2e"/>
       <use x="95.41015625" xlink:href="#BitstreamVeraSans-Roman-36"/>
      </g>
     </g>
    </g>
    <g id="ytick_10">
     <g id="line2d_22">
      <g>
       <use style="stroke:#000000;stroke-width:0.5;" x="518.4" xlink:href="#mcb0005524f" y="112.32"/>
      </g>
     </g>
     <g id="text_19">
      <!-- 0.8 -->
      <defs>
       <path d="
M31.7812 34.625
Q24.75 34.625 20.7188 30.8594
Q16.7031 27.0938 16.7031 20.5156
Q16.7031 13.9219 20.7188 10.1562
Q24.75 6.39062 31.7812 6.39062
Q38.8125 6.39062 42.8594 10.1719
Q46.9219 13.9688 46.9219 20.5156
Q46.9219 27.0938 42.8906 30.8594
Q38.875 34.625 31.7812 34.625
M21.9219 38.8125
Q15.5781 40.375 12.0312 44.7188
Q8.5 49.0781 8.5 55.3281
Q8.5 64.0625 14.7188 69.1406
Q20.9531 74.2188 31.7812 74.2188
Q42.6719 74.2188 48.875 69.1406
Q55.0781 64.0625 55.0781 55.3281
Q55.0781 49.0781 51.5312 44.7188
Q48 40.375 41.7031 38.8125
Q48.8281 37.1562 52.7969 32.3125
Q56.7812 27.4844 56.7812 20.5156
Q56.7812 9.90625 50.3125 4.23438
Q43.8438 -1.42188 31.7812 -1.42188
Q19.7344 -1.42188 13.25 4.23438
Q6.78125 9.90625 6.78125 20.5156
Q6.78125 27.4844 10.7812 32.3125
Q14.7969 37.1562 21.9219 38.8125
M18.3125 54.3906
Q18.3125 48.7344 21.8438 45.5625
Q25.3906 42.3906 31.7812 42.3906
Q38.1406 42.3906 41.7188 45.5625
Q45.3125 48.7344 45.3125 54.3906
Q45.3125 60.0625 41.7188 63.2344
Q38.1406 66.4062 31.7812 66.4062
Q25.3906 66.4062 21.8438 63.2344
Q18.3125 60.0625 18.3125 54.3906" id="BitstreamVeraSans-Roman-38"/>
      </defs>
      <g transform="translate(522.4 115.63125)scale(0.12 -0.12)">
       <use xlink:href="#BitstreamVeraSans-Roman-30"/>
       <use x="63.623046875" xlink:href="#BitstreamVeraSans-Roman-2e"/>
       <use x="95.41015625" xlink:href="#BitstreamVeraSans-Roman-38"/>
      </g>
     </g>
    </g>
    <g id="ytick_11">
     <g id="line2d_23">
      <g>
       <use style="stroke:#000000;stroke-width:0.5;" x="518.4" xlink:href="#mcb0005524f" y="43.2"/>
      </g>
     </g>
     <g id="text_20">
      <!-- 1.0 -->
      <g transform="translate(522.4 46.51125)scale(0.12 -0.12)">
       <use xlink:href="#BitstreamVeraSans-Roman-31"/>
       <use x="63.623046875" xlink:href="#BitstreamVeraSans-Roman-2e"/>
       <use x="95.41015625" xlink:href="#BitstreamVeraSans-Roman-30"/>
      </g>
     </g>
    </g>
   </g>
  </g>
 </g>
 <defs>
  <clipPath id="p7ff5b81e1d">
   <rect height="345.6" width="446.4" x="72.0" y="43.2"/>
  </clipPath>
 </defs>
</svg>
