<?xml version="1.0" encoding="utf-8" standalone="no"?>
<!DOCTYPE svg PUBLIC "-//W3C//DTD SVG 1.1//EN"
  "http://www.w3.org/Graphics/SVG/1.1/DTD/svg11.dtd">
<!-- Created with matplotlib (http://matplotlib.org/) -->
<svg height="432pt" version="1.1" viewBox="0 0 576 432" width="576pt" xmlns="http://www.w3.org/2000/svg" xmlns:xlink="http://www.w3.org/1999/xlink">
 <defs>
  <style type="text/css">
*{stroke-linecap:butt;stroke-linejoin:round;}
  </style>
 </defs>
 <g id="figure_1">
  <g id="patch_1">
   <path d="
M0 432
L576 432
L576 0
L0 0
z
" style="fill:#ffffff;"/>
  </g>
  <g id="axes_1">
   <g id="patch_2">
    <path d="
M72 388.8
L518.4 388.8
L518.4 43.2
L72 43.2
z
" style="fill:#ffffff;"/>
   </g>
   <g id="PolyCollection_1">
    <defs>
     <path d="
M72 -285.12
L72 -43.2
L73.7856 -43.2
L75.5712 -43.2
L77.3568 -43.2
L79.1424 -43.2
L80.928 -43.2
L82.7136 -43.2
L84.4992 -43.2
L86.2848 -43.2
L88.0704 -43.2
L89.856 -43.2
L91.6416 -43.2
L93.4272 -43.2
L95.2128 -43.2
L96.9984 -43.2
L98.784 -43.2
L100.57 -43.2
L102.355 -43.2
L104.141 -43.2
L105.926 -43.2
L107.712 -43.2
L109.498 -43.2
L111.283 -43.2
L113.069 -43.2
L114.854 -43.2
L116.64 -43.2
L118.426 -43.2
L120.211 -43.2
L121.997 -43.2
L123.782 -43.2
L125.568 -43.2
L127.354 -43.2
L129.139 -43.2
L130.925 -43.2
L132.71 -43.2
L134.496 -43.2
L136.282 -43.2
L138.067 -43.2
L139.853 -43.2
L141.638 -43.2
L143.424 -43.2
L145.21 -43.2
L146.995 -43.2
L148.781 -43.2
L150.566 -43.2
L152.352 -43.2
L154.138 -43.2
L155.923 -43.2
L157.709 -43.2
L159.494 -43.2
L161.28 -43.2
L163.066 -43.2
L164.851 -43.2
L166.637 -43.2
L168.422 -43.2
L170.208 -43.2
L171.994 -43.2
L173.779 -43.2
L175.565 -43.2
L177.35 -43.2
L179.136 -43.2
L180.922 -43.2
L182.707 -43.2
L184.493 -43.2
L186.278 -43.2
L188.064 -43.2
L189.85 -43.2
L191.635 -43.2
L193.421 -43.2
L195.206 -43.2
L196.992 -43.2
L198.778 -43.2
L200.563 -43.2
L202.349 -43.2
L204.134 -43.2
L205.92 -43.2
L207.706 -43.2
L209.491 -43.2
L211.277 -43.2
L213.062 -43.2
L214.848 -43.2
L216.634 -43.2
L218.419 -43.2
L220.205 -43.2
L221.99 -43.2
L223.776 -43.2
L225.562 -43.2
L227.347 -43.2
L229.133 -43.2
L230.918 -43.2
L232.704 -43.2
L234.49 -43.2
L236.275 -43.2
L238.061 -43.2
L239.846 -43.2
L241.632 -43.2
L243.418 -43.2
L245.203 -43.2
L246.989 -43.2
L248.774 -43.2
L250.56 -43.2
L252.346 -43.2
L254.131 -43.2
L255.917 -43.2
L257.702 -43.2
L259.488 -43.2
L261.274 -43.2
L263.059 -43.2
L264.845 -43.2
L266.63 -43.2
L268.416 -43.2
L270.202 -43.2
L271.987 -43.2
L273.773 -43.2
L275.558 -43.2
L277.344 -43.2
L279.13 -43.2
L280.915 -43.2
L282.701 -43.2
L284.486 -43.2
L286.272 -43.2
L288.058 -43.2
L289.843 -43.2
L291.629 -43.2
L293.414 -43.2
L295.2 -43.2
L296.986 -43.2
L298.771 -43.2
L300.557 -43.2
L302.342 -43.2
L304.128 -43.2
L305.914 -43.2
L307.699 -43.2
L309.485 -43.2
L311.27 -43.2
L313.056 -43.2
L314.842 -43.2
L316.627 -43.2
L318.413 -43.2
L320.198 -43.2
L321.984 -43.2
L323.77 -43.2
L325.555 -43.2
L327.341 -43.2
L329.126 -43.2
L330.912 -43.2
L332.698 -43.2
L334.483 -43.2
L336.269 -43.2
L338.054 -43.2
L339.84 -43.2
L341.626 -43.2
L343.411 -43.2
L345.197 -43.2
L346.982 -43.2
L348.768 -43.2
L350.554 -43.2
L352.339 -43.2
L354.125 -43.2
L355.91 -43.2
L357.696 -43.2
L359.482 -43.2
L361.267 -43.2
L363.053 -43.2
L364.838 -43.2
L366.624 -43.2
L368.41 -43.2
L370.195 -43.2
L371.981 -43.2
L373.766 -43.2
L375.552 -43.2
L377.338 -43.2
L379.123 -43.2
L380.909 -43.2
L382.694 -43.2
L384.48 -43.2
L386.266 -43.2
L388.051 -43.2
L389.837 -43.2
L391.622 -43.2
L393.408 -43.2
L395.194 -43.2
L396.979 -43.2
L398.765 -43.2
L400.55 -43.2
L402.336 -43.2
L404.122 -43.2
L405.907 -43.2
L407.693 -43.2
L409.478 -43.2
L411.264 -43.2
L413.05 -43.2
L414.835 -43.2
L416.621 -43.2
L418.406 -43.2
L420.192 -43.2
L421.978 -43.2
L423.763 -43.2
L425.549 -43.2
L427.334 -43.2
L429.12 -43.2
L430.906 -43.2
L432.691 -43.2
L434.477 -43.2
L436.262 -43.2
L438.048 -43.2
L439.834 -43.2
L441.619 -43.2
L443.405 -43.2
L445.19 -43.2
L446.976 -43.2
L448.762 -43.2
L450.547 -43.2
L452.333 -43.2
L454.118 -43.2
L455.904 -43.2
L457.69 -43.2
L459.475 -43.2
L461.261 -43.2
L463.046 -43.2
L464.832 -43.2
L466.618 -43.2
L468.403 -43.2
L470.189 -43.2
L471.974 -43.2
L473.76 -43.2
L475.546 -43.2
L477.331 -43.2
L479.117 -43.2
L480.902 -43.2
L482.688 -43.2
L484.474 -43.2
L486.259 -43.2
L488.045 -43.2
L489.83 -43.2
L491.616 -43.2
L493.402 -43.2
L495.187 -43.2
L496.973 -43.2
L498.758 -43.2
L500.544 -43.2
L502.33 -43.2
L504.115 -43.2
L505.901 -43.2
L507.686 -43.2
L509.472 -43.2
L511.258 -43.2
L513.043 -43.2
L514.829 -43.2
L516.614 -43.2
L518.4 -43.2
L518.4 -43.2
L518.4 -43.2
L516.614 -43.2
L514.829 -43.2
L513.043 -43.2
L511.258 -43.2
L509.472 -43.2
L507.686 -43.2
L505.901 -43.2
L504.115 -43.2
L502.33 -43.2
L500.544 -43.2
L498.758 -43.2
L496.973 -43.2
L495.187 -43.2
L493.402 -43.2
L491.616 -43.2
L489.83 -43.2
L488.045 -43.2
L486.259 -43.2
L484.474 -43.2
L482.688 -43.2
L480.902 -43.2
L479.117 -43.2
L477.331 -43.2
L475.546 -43.2
L473.76 -43.2
L471.974 -43.2
L470.189 -43.2
L468.403 -43.2
L466.618 -43.2
L464.832 -43.2
L463.046 -43.2
L461.261 -43.2
L459.475 -43.2
L457.69 -43.2
L455.904 -43.2
L454.118 -43.2
L452.333 -43.2
L450.547 -43.2
L448.762 -43.2
L446.976 -43.2
L445.19 -43.2
L443.405 -43.2
L441.619 -43.2
L439.834 -43.2
L438.048 -43.2
L436.262 -43.2
L434.477 -43.2
L432.691 -43.2
L430.906 -43.2
L429.12 -43.2
L427.334 -43.2
L425.549 -43.2
L423.763 -43.2
L421.978 -43.2
L420.192 -43.2
L418.406 -43.2
L416.621 -43.2
L414.835 -43.2
L413.05 -43.2
L411.264 -43.2
L409.478 -43.2
L407.693 -43.2
L405.907 -43.2
L404.122 -43.2
L402.336 -43.2
L400.55 -43.2
L398.765 -43.2
L396.979 -43.2
L395.194 -43.2
L393.408 -43.2
L391.622 -43.2001
L389.837 -43.2001
L388.051 -43.2001
L386.266 -43.2001
L384.48 -43.2001
L382.694 -43.2002
L380.909 -43.2002
L379.123 -43.2003
L377.338 -43.2004
L375.552 -43.2005
L373.766 -43.2007
L371.981 -43.2008
L370.195 -43.2011
L368.41 -43.2014
L366.624 -43.2018
L364.838 -43.2023
L363.053 -43.2029
L361.267 -43.2038
L359.482 -43.2049
L357.696 -43.2062
L355.91 -43.208
L354.125 -43.2102
L352.339 -43.2131
L350.554 -43.2168
L348.768 -43.2216
L346.982 -43.2277
L345.197 -43.2355
L343.411 -43.2456
L341.626 -43.2585
L339.84 -43.275
L338.054 -43.2961
L336.269 -43.3233
L334.483 -43.3581
L332.698 -43.4027
L330.912 -43.4598
L329.126 -43.5331
L327.341 -43.6269
L325.555 -43.747
L323.77 -43.9008
L321.984 -44.0974
L320.198 -44.3488
L318.413 -44.6699
L316.627 -45.0796
L314.842 -45.6015
L313.056 -46.2653
L311.27 -47.1077
L309.485 -48.1736
L307.699 -49.5177
L305.914 -51.2053
L304.128 -53.3129
L302.342 -55.9275
L300.557 -59.1451
L298.771 -63.0665
L296.986 -67.7917
L295.2 -73.4086
L293.414 -79.9869
L291.629 -87.5581
L289.843 -96.1118
L288.058 -105.589
L286.272 -115.874
L284.486 -126.813
L282.701 -138.215
L280.915 -149.879
L279.13 -161.601
L277.344 -173.201
L275.558 -184.53
L273.773 -195.457
L271.987 -205.895
L270.202 -215.786
L268.416 -225.108
L266.63 -233.834
L264.845 -241.984
L263.059 -249.568
L261.274 -256.615
L259.488 -263.154
L257.702 -269.213
L255.917 -274.837
L254.131 -280.048
L252.346 -284.882
L250.56 -289.37
L248.774 -293.54
L246.989 -297.418
L245.203 -301.027
L243.418 -304.385
L241.632 -307.519
L239.846 -310.45
L238.061 -313.184
L236.275 -315.746
L234.49 -318.144
L232.704 -320.388
L230.918 -322.5
L229.133 -324.483
L227.347 -326.351
L225.562 -328.117
L223.776 -329.772
L221.99 -331.335
L220.205 -332.81
L218.419 -334.203
L216.634 -335.52
L214.848 -336.758
L213.062 -337.931
L211.277 -339.042
L209.491 -340.096
L207.706 -341.088
L205.92 -342.028
L204.134 -342.923
L202.349 -343.769
L200.563 -344.556
L198.778 -345.314
L196.992 -346.02
L195.206 -346.688
L193.421 -347.327
L191.635 -347.911
L189.85 -348.471
L188.064 -348.989
L186.278 -349.467
L184.493 -349.92
L182.707 -350.344
L180.922 -350.739
L179.136 -351.089
L177.35 -351.411
L175.565 -351.713
L173.779 -351.979
L171.994 -352.227
L170.208 -352.438
L168.422 -352.625
L166.637 -352.772
L164.851 -352.917
L163.066 -353.041
L161.28 -353.114
L159.494 -353.145
L157.709 -353.145
L155.923 -353.117
L154.138 -353.079
L152.352 -353
L150.566 -352.878
L148.781 -352.742
L146.995 -352.578
L145.21 -352.355
L143.424 -352.096
L141.638 -351.804
L139.853 -351.489
L138.067 -351.125
L136.282 -350.757
L134.496 -350.343
L132.71 -349.898
L130.925 -349.341
L129.139 -348.762
L127.354 -348.159
L125.568 -347.458
L123.782 -346.739
L121.997 -345.964
L120.211 -345.166
L118.426 -344.28
L116.64 -343.266
L114.854 -342.206
L113.069 -341.174
L111.283 -339.923
L109.498 -338.686
L107.712 -337.385
L105.926 -335.907
L104.141 -334.41
L102.355 -332.763
L100.57 -331.064
L98.784 -329.22
L96.9984 -327.375
L95.2128 -325.403
L93.4272 -323.341
L91.6416 -321.161
L89.856 -318.671
L88.0704 -316.016
L86.2848 -313.195
L84.4992 -310.323
L82.7136 -307.227
L80.928 -304.186
L79.1424 -300.727
L77.3568 -297.118
L75.5712 -293.257
L73.7856 -289.22
L72 -285.12
z
" id="m3e8729c626" style="stroke:#000000;"/>
    </defs>
    <g clip-path="url(#p7ff5b81e1d)">
     <use style="fill:#0000ff;stroke:#000000;" x="0.0" xlink:href="#m3e8729c626" y="432.0"/>
    </g>
   </g>
   <g id="PolyCollection_2">
    <defs>
     <path d="
M72 -319.68
L72 -285.12
L73.7856 -289.22
L75.5712 -293.257
L77.3568 -297.118
L79.1424 -300.727
L80.928 -304.186
L82.7136 -307.227
L84.4992 -310.323
L86.2848 -313.195
L88.0704 -316.016
L89.856 -318.671
L91.6416 -321.161
L93.4272 -323.341
L95.2128 -325.403
L96.9984 -327.375
L98.784 -329.22
L100.57 -331.064
L102.355 -332.763
L104.141 -334.41
L105.926 -335.907
L107.712 -337.385
L109.498 -338.686
L111.283 -339.923
L113.069 -341.174
L114.854 -342.206
L116.64 -343.266
L118.426 -344.28
L120.211 -345.166
L121.997 -345.964
L123.782 -346.739
L125.568 -347.458
L127.354 -348.159
L129.139 -348.762
L130.925 -349.341
L132.71 -349.898
L134.496 -350.343
L136.282 -350.757
L138.067 -351.125
L139.853 -351.489
L141.638 -351.804
L143.424 -352.096
L145.21 -352.355
L146.995 -352.578
L148.781 -352.742
L150.566 -352.878
L152.352 -353
L154.138 -353.079
L155.923 -353.117
L157.709 -353.145
L159.494 -353.145
L161.28 -353.114
L163.066 -353.041
L164.851 -352.917
L166.637 -352.772
L168.422 -352.625
L170.208 -352.438
L171.994 -352.227
L173.779 -351.979
L175.565 -351.713
L177.35 -351.411
L179.136 -351.089
L180.922 -350.739
L182.707 -350.344
L184.493 -349.92
L186.278 -349.467
L188.064 -348.989
L189.85 -348.471
L191.635 -347.911
L193.421 -347.327
L195.206 -346.688
L196.992 -346.02
L198.778 -345.314
L200.563 -344.556
L202.349 -343.769
L204.134 -342.923
L205.92 -342.028
L207.706 -341.088
L209.491 -340.096
L211.277 -339.042
L213.062 -337.931
L214.848 -336.758
L216.634 -335.52
L218.419 -334.203
L220.205 -332.81
L221.99 -331.335
L223.776 -329.772
L225.562 -328.117
L227.347 -326.351
L229.133 -324.483
L230.918 -322.5
L232.704 -320.388
L234.49 -318.144
L236.275 -315.746
L238.061 -313.184
L239.846 -310.45
L241.632 -307.519
L243.418 -304.385
L245.203 -301.027
L246.989 -297.418
L248.774 -293.54
L250.56 -289.37
L252.346 -284.882
L254.131 -280.048
L255.917 -274.837
L257.702 -269.213
L259.488 -263.154
L261.274 -256.615
L263.059 -249.568
L264.845 -241.984
L266.63 -233.834
L268.416 -225.108
L270.202 -215.786
L271.987 -205.895
L273.773 -195.457
L275.558 -184.53
L277.344 -173.201
L279.13 -161.601
L280.915 -149.879
L282.701 -138.215
L284.486 -126.813
L286.272 -115.874
L288.058 -105.589
L289.843 -96.1118
L291.629 -87.5581
L293.414 -79.9869
L295.2 -73.4086
L296.986 -67.7917
L298.771 -63.0665
L300.557 -59.1451
L302.342 -55.9275
L304.128 -53.3129
L305.914 -51.2053
L307.699 -49.5177
L309.485 -48.1736
L311.27 -47.1077
L313.056 -46.2653
L314.842 -45.6015
L316.627 -45.0796
L318.413 -44.6699
L320.198 -44.3488
L321.984 -44.0974
L323.77 -43.9008
L325.555 -43.747
L327.341 -43.6269
L329.126 -43.5331
L330.912 -43.4598
L332.698 -43.4027
L334.483 -43.3581
L336.269 -43.3233
L338.054 -43.2961
L339.84 -43.275
L341.626 -43.2585
L343.411 -43.2456
L345.197 -43.2355
L346.982 -43.2277
L348.768 -43.2216
L350.554 -43.2168
L352.339 -43.2131
L354.125 -43.2102
L355.91 -43.208
L357.696 -43.2062
L359.482 -43.2049
L361.267 -43.2038
L363.053 -43.2029
L364.838 -43.2023
L366.624 -43.2018
L368.41 -43.2014
L370.195 -43.2011
L371.981 -43.2008
L373.766 -43.2007
L375.552 -43.2005
L377.338 -43.2004
L379.123 -43.2003
L380.909 -43.2002
L382.694 -43.2002
L384.48 -43.2001
L386.266 -43.2001
L388.051 -43.2001
L389.837 -43.2001
L391.622 -43.2001
L393.408 -43.2
L395.194 -43.2
L396.979 -43.2
L398.765 -43.2
L400.55 -43.2
L402.336 -43.2
L404.122 -43.2
L405.907 -43.2
L407.693 -43.2
L409.478 -43.2
L411.264 -43.2
L413.05 -43.2
L414.835 -43.2
L416.621 -43.2
L418.406 -43.2
L420.192 -43.2
L421.978 -43.2
L423.763 -43.2
L425.549 -43.2
L427.334 -43.2
L429.12 -43.2
L430.906 -43.2
L432.691 -43.2
L434.477 -43.2
L436.262 -43.2
L438.048 -43.2
L439.834 -43.2
L441.619 -43.2
L443.405 -43.2
L445.19 -43.2
L446.976 -43.2
L448.762 -43.2
L450.547 -43.2
L452.333 -43.2
L454.118 -43.2
L455.904 -43.2
L457.69 -43.2
L459.475 -43.2
L461.261 -43.2
L463.046 -43.2
L464.832 -43.2
L466.618 -43.2
L468.403 -43.2
L470.189 -43.2
L471.974 -43.2
L473.76 -43.2
L475.546 -43.2
L477.331 -43.2
L479.117 -43.2
L480.902 -43.2
L482.688 -43.2
L484.474 -43.2
L486.259 -43.2
L488.045 -43.2
L489.83 -43.2
L491.616 -43.2
L493.402 -43.2
L495.187 -43.2
L496.973 -43.2
L498.758 -43.2
L500.544 -43.2
L502.33 -43.2
L504.115 -43.2
L505.901 -43.2
L507.686 -43.2
L509.472 -43.2
L511.258 -43.2
L513.043 -43.2
L514.829 -43.2
L516.614 -43.2
L518.4 -43.2
L518.4 -43.2002
L518.4 -43.2002
L516.614 -43.2002
L514.829 -43.2002
L513.043 -43.2002
L511.258 -43.2002
L509.472 -43.2003
L507.686 -43.2003
L505.901 -43.2003
L504.115 -43.2003
L502.33 -43.2003
L500.544 -43.2004
L498.758 -43.2004
L496.973 -43.2004
L495.187 -43.2004
L493.402 -43.2005
L491.616 -43.2005
L489.83 -43.2005
L488.045 -43.2006
L486.259 -43.2006
L484.474 -43.2007
L482.688 -43.2007
L480.902 -43.2007
L479.117 -43.2008
L477.331 -43.2009
L475.546 -43.2009
L473.76 -43.201
L471.974 -43.201
L470.189 -43.2011
L468.403 -43.2012
L466.618 -43.2013
L464.832 -43.2014
L463.046 -43.2015
L461.261 -43.2016
L459.475 -43.2017
L457.69 -43.2018
L455.904 -43.2019
L454.118 -43.202
L452.333 -43.2022
L450.547 -43.2023
L448.762 -43.2025
L446.976 -43.2027
L445.19 -43.2028
L443.405 -43.203
L441.619 -43.2032
L439.834 -43.2035
L438.048 -43.2037
L436.262 -43.204
L434.477 -43.2042
L432.691 -43.2045
L430.906 -43.2049
L429.12 -43.2052
L427.334 -43.2056
L425.549 -43.2059
L423.763 -43.2064
L421.978 -43.2068
L420.192 -43.2073
L418.406 -43.2078
L416.621 -43.2083
L414.835 -43.2089
L413.05 -43.2095
L411.264 -43.2102
L409.478 -43.2109
L407.693 -43.2116
L405.907 -43.2124
L404.122 -43.2133
L402.336 -43.2142
L400.55 -43.2152
L398.765 -43.2162
L396.979 -43.2174
L395.194 -43.2186
L393.408 -43.2199
L391.622 -43.2213
L389.837 -43.2227
L388.051 -43.2243
L386.266 -43.226
L384.48 -43.2279
L382.694 -43.2298
L380.909 -43.2319
L379.123 -43.2342
L377.338 -43.2366
L375.552 -43.2393
L373.766 -43.2421
L371.981 -43.2451
L370.195 -43.2485
L368.41 -43.252
L366.624 -43.2559
L364.838 -43.2602
L363.053 -43.2649
L361.267 -43.27
L359.482 -43.2756
L357.696 -43.2819
L355.91 -43.2889
L354.125 -43.2968
L352.339 -43.3057
L350.554 -43.3158
L348.768 -43.3274
L346.982 -43.3408
L345.197 -43.3565
L343.411 -43.3749
L341.626 -43.3967
L339.84 -43.4228
L338.054 -43.4542
L336.269 -43.4923
L334.483 -43.5387
L332.698 -43.5958
L330.912 -43.6663
L329.126 -43.7538
L327.341 -43.8628
L325.555 -43.9991
L323.77 -44.1702
L321.984 -44.3853
L320.198 -44.6564
L318.413 -44.9985
L316.627 -45.4304
L314.842 -45.976
L313.056 -46.6648
L311.27 -47.5336
L309.485 -48.6274
L307.699 -50.0009
L305.914 -51.719
L304.128 -53.8584
L302.342 -56.5058
L300.557 -59.7568
L298.771 -63.712
L296.986 -68.4709
L295.2 -74.1209
L293.414 -80.7311
L291.629 -88.3324
L289.843 -96.914
L288.058 -106.416
L286.272 -116.723
L284.486 -127.681
L282.701 -139.099
L280.915 -150.774
L279.13 -162.506
L277.344 -174.113
L275.558 -185.448
L273.773 -196.38
L271.987 -206.821
L270.202 -216.715
L268.416 -226.04
L266.63 -234.768
L264.845 -242.922
L263.059 -250.51
L261.274 -257.562
L259.488 -264.106
L257.702 -270.172
L255.917 -275.804
L254.131 -281.024
L252.346 -285.868
L250.56 -290.368
L248.774 -294.55
L246.989 -298.442
L245.203 -302.067
L243.418 -305.441
L241.632 -308.593
L239.846 -311.543
L238.061 -314.298
L236.275 -316.882
L234.49 -319.303
L232.704 -321.573
L230.918 -323.712
L229.133 -325.723
L227.347 -327.62
L225.562 -329.418
L223.776 -331.106
L221.99 -332.704
L220.205 -334.215
L218.419 -335.647
L216.634 -337.005
L214.848 -338.286
L213.062 -339.503
L211.277 -340.661
L209.491 -341.764
L207.706 -342.807
L205.92 -343.802
L204.134 -344.753
L202.349 -345.658
L200.563 -346.507
L198.778 -347.33
L196.992 -348.104
L195.206 -348.843
L193.421 -349.556
L191.635 -350.217
L189.85 -350.858
L188.064 -351.461
L186.278 -352.027
L184.493 -352.574
L182.707 -353.094
L180.922 -353.591
L179.136 -354.046
L177.35 -354.479
L175.565 -354.897
L173.779 -355.285
L171.994 -355.659
L170.208 -356.002
L168.422 -356.325
L166.637 -356.617
L164.851 -356.912
L163.066 -357.193
L161.28 -357.431
L159.494 -357.633
L157.709 -357.813
L155.923 -357.973
L154.138 -358.132
L152.352 -358.258
L150.566 -358.349
L148.781 -358.438
L146.995 -358.509
L145.21 -358.531
L143.424 -358.527
L141.638 -358.501
L139.853 -358.466
L138.067 -358.394
L136.282 -358.336
L134.496 -358.243
L132.71 -358.133
L130.925 -357.928
L129.139 -357.72
L127.354 -357.498
L125.568 -357.201
L123.782 -356.905
L121.997 -356.574
L120.211 -356.232
L118.426 -355.824
L116.64 -355.316
L114.854 -354.782
L113.069 -354.298
L111.283 -353.622
L109.498 -352.983
L107.712 -352.309
L105.926 -351.488
L104.141 -350.676
L102.355 -349.751
L100.57 -348.778
L98.784 -347.698
L96.9984 -346.659
L95.2128 -345.555
L93.4272 -344.36
L91.6416 -343.038
L89.856 -341.531
L88.0704 -339.848
L86.2848 -338.046
L84.4992 -336.243
L82.7136 -334.292
L80.928 -332.334
L79.1424 -330.077
L77.3568 -327.764
L75.5712 -325.134
L73.7856 -322.366
L72 -319.68
z
" id="mc5497e9e8e" style="stroke:#000000;"/>
    </defs>
    <g clip-path="url(#p7ff5b81e1d)">
     <use style="fill:#008000;stroke:#000000;" x="0.0" xlink:href="#mc5497e9e8e" y="432.0"/>
    </g>
   </g>
   <g id="PolyCollection_3">
    <defs>
     <path d="
M72 -354.24
L72 -319.68
L73.7856 -322.366
L75.5712 -325.134
L77.3568 -327.764
L79.1424 -330.077
L80.928 -332.334
L82.7136 -334.292
L84.4992 -336.243
L86.2848 -338.046
L88.0704 -339.848
L89.856 -341.531
L91.6416 -343.038
L93.4272 -344.36
L95.2128 -345.555
L96.9984 -346.659
L98.784 -347.698
L100.57 -348.778
L102.355 -349.751
L104.141 -350.676
L105.926 -351.488
L107.712 -352.309
L109.498 -352.983
L111.283 -353.622
L113.069 -354.298
L114.854 -354.782
L116.64 -355.316
L118.426 -355.824
L120.211 -356.232
L121.997 -356.574
L123.782 -356.905
L125.568 -357.201
L127.354 -357.498
L129.139 -357.72
L130.925 -357.928
L132.71 -358.133
L134.496 -358.243
L136.282 -358.336
L138.067 -358.394
L139.853 -358.466
L141.638 -358.501
L143.424 -358.527
L145.21 -358.531
L146.995 -358.509
L148.781 -358.438
L150.566 -358.349
L152.352 -358.258
L154.138 -358.132
L155.923 -357.973
L157.709 -357.813
L159.494 -357.633
L161.28 -357.431
L163.066 -357.193
L164.851 -356.912
L166.637 -356.617
L168.422 -356.325
L170.208 -356.002
L171.994 -355.659
L173.779 -355.285
L175.565 -354.897
L177.35 -354.479
L179.136 -354.046
L180.922 -353.591
L182.707 -353.094
L184.493 -352.574
L186.278 -352.027
L188.064 -351.461
L189.85 -350.858
L191.635 -350.217
L193.421 -349.556
L195.206 -348.843
L196.992 -348.104
L198.778 -347.33
L200.563 -346.507
L202.349 -345.658
L204.134 -344.753
L205.92 -343.802
L207.706 -342.807
L209.491 -341.764
L211.277 -340.661
L213.062 -339.503
L214.848 -338.286
L216.634 -337.005
L218.419 -335.647
L220.205 -334.215
L221.99 -332.704
L223.776 -331.106
L225.562 -329.418
L227.347 -327.62
L229.133 -325.723
L230.918 -323.712
L232.704 -321.573
L234.49 -319.303
L236.275 -316.882
L238.061 -314.298
L239.846 -311.543
L241.632 -308.593
L243.418 -305.441
L245.203 -302.067
L246.989 -298.442
L248.774 -294.55
L250.56 -290.368
L252.346 -285.868
L254.131 -281.024
L255.917 -275.804
L257.702 -270.172
L259.488 -264.106
L261.274 -257.562
L263.059 -250.51
L264.845 -242.922
L266.63 -234.768
L268.416 -226.04
L270.202 -216.715
L271.987 -206.821
L273.773 -196.38
L275.558 -185.448
L277.344 -174.113
L279.13 -162.506
L280.915 -150.774
L282.701 -139.099
L284.486 -127.681
L286.272 -116.723
L288.058 -106.416
L289.843 -96.914
L291.629 -88.3324
L293.414 -80.7311
L295.2 -74.1209
L296.986 -68.4709
L298.771 -63.712
L300.557 -59.7568
L302.342 -56.5058
L304.128 -53.8584
L305.914 -51.719
L307.699 -50.0009
L309.485 -48.6274
L311.27 -47.5336
L313.056 -46.6648
L314.842 -45.976
L316.627 -45.4304
L318.413 -44.9985
L320.198 -44.6564
L321.984 -44.3853
L323.77 -44.1702
L325.555 -43.9991
L327.341 -43.8628
L329.126 -43.7538
L330.912 -43.6663
L332.698 -43.5958
L334.483 -43.5387
L336.269 -43.4923
L338.054 -43.4542
L339.84 -43.4228
L341.626 -43.3967
L343.411 -43.3749
L345.197 -43.3565
L346.982 -43.3408
L348.768 -43.3274
L350.554 -43.3158
L352.339 -43.3057
L354.125 -43.2968
L355.91 -43.2889
L357.696 -43.2819
L359.482 -43.2756
L361.267 -43.27
L363.053 -43.2649
L364.838 -43.2602
L366.624 -43.2559
L368.41 -43.252
L370.195 -43.2485
L371.981 -43.2451
L373.766 -43.2421
L375.552 -43.2393
L377.338 -43.2366
L379.123 -43.2342
L380.909 -43.2319
L382.694 -43.2298
L384.48 -43.2279
L386.266 -43.226
L388.051 -43.2243
L389.837 -43.2227
L391.622 -43.2213
L393.408 -43.2199
L395.194 -43.2186
L396.979 -43.2174
L398.765 -43.2162
L400.55 -43.2152
L402.336 -43.2142
L404.122 -43.2133
L405.907 -43.2124
L407.693 -43.2116
L409.478 -43.2109
L411.264 -43.2102
L413.05 -43.2095
L414.835 -43.2089
L416.621 -43.2083
L418.406 -43.2078
L420.192 -43.2073
L421.978 -43.2068
L423.763 -43.2064
L425.549 -43.2059
L427.334 -43.2056
L429.12 -43.2052
L430.906 -43.2049
L432.691 -43.2045
L434.477 -43.2042
L436.262 -43.204
L438.048 -43.2037
L439.834 -43.2035
L441.619 -43.2032
L443.405 -43.203
L445.19 -43.2028
L446.976 -43.2027
L448.762 -43.2025
L450.547 -43.2023
L452.333 -43.2022
L454.118 -43.202
L455.904 -43.2019
L457.69 -43.2018
L459.475 -43.2017
L461.261 -43.2016
L463.046 -43.2015
L464.832 -43.2014
L466.618 -43.2013
L468.403 -43.2012
L470.189 -43.2011
L471.974 -43.201
L473.76 -43.201
L475.546 -43.2009
L477.331 -43.2009
L479.117 -43.2008
L480.902 -43.2007
L482.688 -43.2007
L484.474 -43.2007
L486.259 -43.2006
L488.045 -43.2006
L489.83 -43.2005
L491.616 -43.2005
L493.402 -43.2005
L495.187 -43.2004
L496.973 -43.2004
L498.758 -43.2004
L500.544 -43.2004
L502.33 -43.2003
L504.115 -43.2003
L505.901 -43.2003
L507.686 -43.2003
L509.472 -43.2003
L511.258 -43.2002
L513.043 -43.2002
L514.829 -43.2002
L516.614 -43.2002
L518.4 -43.2002
L518.4 -43.2002
L518.4 -43.2002
L516.614 -43.2002
L514.829 -43.2002
L513.043 -43.2002
L511.258 -43.2002
L509.472 -43.2003
L507.686 -43.2003
L505.901 -43.2003
L504.115 -43.2003
L502.33 -43.2003
L500.544 -43.2004
L498.758 -43.2004
L496.973 -43.2004
L495.187 -43.2004
L493.402 -43.2005
L491.616 -43.2005
L489.83 -43.2005
L488.045 -43.2006
L486.259 -43.2006
L484.474 -43.2007
L482.688 -43.2007
L480.902 -43.2008
L479.117 -43.2008
L477.331 -43.2009
L475.546 -43.2009
L473.76 -43.201
L471.974 -43.2011
L470.189 -43.2011
L468.403 -43.2012
L466.618 -43.2013
L464.832 -43.2014
L463.046 -43.2015
L461.261 -43.2016
L459.475 -43.2017
L457.69 -43.2018
L455.904 -43.202
L454.118 -43.2021
L452.333 -43.2022
L450.547 -43.2024
L448.762 -43.2026
L446.976 -43.2027
L445.19 -43.2029
L443.405 -43.2031
L441.619 -43.2034
L439.834 -43.2036
L438.048 -43.2038
L436.262 -43.2041
L434.477 -43.2044
L432.691 -43.2047
L430.906 -43.2051
L429.12 -43.2054
L427.334 -43.2058
L425.549 -43.2062
L423.763 -43.2066
L421.978 -43.2071
L420.192 -43.2076
L418.406 -43.2082
L416.621 -43.2087
L414.835 -43.2094
L413.05 -43.21
L411.264 -43.2107
L409.478 -43.2115
L407.693 -43.2123
L405.907 -43.2132
L404.122 -43.2142
L402.336 -43.2152
L400.55 -43.2163
L398.765 -43.2174
L396.979 -43.2187
L395.194 -43.22
L393.408 -43.2215
L391.622 -43.223
L389.837 -43.2247
L388.051 -43.2265
L386.266 -43.2284
L384.48 -43.2305
L382.694 -43.2327
L380.909 -43.2351
L379.123 -43.2377
L377.338 -43.2405
L375.552 -43.2435
L373.766 -43.2468
L371.981 -43.2504
L370.195 -43.2542
L368.41 -43.2584
L366.624 -43.2629
L364.838 -43.2679
L363.053 -43.2734
L361.267 -43.2794
L359.482 -43.2861
L357.696 -43.2934
L355.91 -43.3016
L354.125 -43.3108
L352.339 -43.3211
L350.554 -43.3329
L348.768 -43.3465
L346.982 -43.3618
L345.197 -43.3798
L343.411 -43.4005
L341.626 -43.425
L339.84 -43.454
L338.054 -43.4884
L336.269 -43.5303
L334.483 -43.5805
L332.698 -43.642
L330.912 -43.7173
L329.126 -43.81
L327.341 -43.9249
L325.555 -44.0681
L323.77 -44.2461
L321.984 -44.4689
L320.198 -44.7487
L318.413 -45.1003
L316.627 -45.5426
L314.842 -46.0997
L313.056 -46.8015
L311.27 -47.6833
L309.485 -48.7924
L307.699 -50.1815
L305.914 -51.9184
L304.128 -54.0753
L302.342 -56.744
L300.557 -60.0159
L298.771 -63.9955
L296.986 -68.7791
L295.2 -74.4521
L293.414 -81.0857
L291.629 -88.7114
L289.843 -97.318
L288.058 -106.843
L286.272 -117.177
L284.486 -128.152
L282.701 -139.588
L280.915 -151.282
L279.13 -163.031
L277.344 -174.653
L275.558 -186
L273.773 -196.944
L271.987 -207.394
L270.202 -217.297
L268.416 -226.634
L266.63 -235.375
L264.845 -243.54
L263.059 -251.139
L261.274 -258.202
L259.488 -264.757
L257.702 -270.834
L255.917 -276.476
L254.131 -281.711
L252.346 -286.569
L250.56 -291.081
L248.774 -295.278
L246.989 -299.186
L245.203 -302.828
L243.418 -306.221
L241.632 -309.39
L239.846 -312.359
L238.061 -315.139
L236.275 -317.748
L234.49 -320.194
L232.704 -322.493
L230.918 -324.654
L229.133 -326.694
L227.347 -328.618
L225.562 -330.445
L223.776 -332.166
L221.99 -333.795
L220.205 -335.343
L218.419 -336.812
L216.634 -338.206
L214.848 -339.532
L213.062 -340.797
L211.277 -342.002
L209.491 -343.146
L207.706 -344.239
L205.92 -345.285
L204.134 -346.287
L202.349 -347.245
L200.563 -348.159
L198.778 -349.036
L196.992 -349.875
L195.206 -350.684
L193.421 -351.457
L191.635 -352.197
L189.85 -352.909
L188.064 -353.594
L186.278 -354.253
L184.493 -354.887
L182.707 -355.497
L180.922 -356.088
L179.136 -356.656
L177.35 -357.2
L175.565 -357.724
L173.779 -358.233
L171.994 -358.722
L170.208 -359.2
L168.422 -359.663
L166.637 -360.098
L164.851 -360.524
L163.066 -360.937
L161.28 -361.332
L159.494 -361.712
L157.709 -362.082
L155.923 -362.435
L154.138 -362.776
L152.352 -363.111
L150.566 -363.43
L148.781 -363.737
L146.995 -364.027
L145.21 -364.31
L143.424 -364.578
L141.638 -364.836
L139.853 -365.083
L138.067 -365.307
L136.282 -365.513
L134.496 -365.721
L132.71 -365.913
L130.925 -366.087
L129.139 -366.242
L127.354 -366.396
L125.568 -366.535
L123.782 -366.648
L121.997 -366.742
L120.211 -366.83
L118.426 -366.891
L116.64 -366.927
L114.854 -366.954
L113.069 -366.953
L111.283 -366.933
L109.498 -366.888
L107.712 -366.835
L105.926 -366.747
L104.141 -366.607
L102.355 -366.423
L100.57 -366.238
L98.784 -366.01
L96.9984 -365.722
L95.2128 -365.396
L93.4272 -365.036
L91.6416 -364.642
L89.856 -364.144
L88.0704 -363.602
L86.2848 -362.962
L84.4992 -362.267
L82.7136 -361.432
L80.928 -360.582
L79.1424 -359.56
L77.3568 -358.404
L75.5712 -357.161
L73.7856 -355.793
L72 -354.24
z
" id="m1f8da19c75" style="stroke:#000000;"/>
    </defs>
    <g clip-path="url(#p7ff5b81e1d)">
     <use style="fill:#ff0000;stroke:#000000;" x="0.0" xlink:href="#m1f8da19c75" y="432.0"/>
    </g>
   </g>
   <g id="PolyCollection_4">
    <defs>
     <path d="
M72 -371.52
L72 -354.24
L73.7856 -355.793
L75.5712 -357.161
L77.3568 -358.404
L79.1424 -359.56
L80.928 -360.582
L82.7136 -361.432
L84.4992 -362.267
L86.2848 -362.962
L88.0704 -363.602
L89.856 -364.144
L91.6416 -364.642
L93.4272 -365.036
L95.2128 -365.396
L96.9984 -365.722
L98.784 -366.01
L100.57 -366.238
L102.355 -366.423
L104.141 -366.607
L105.926 -366.747
L107.712 -366.835
L109.498 -366.888
L111.283 -366.933
L113.069 -366.953
L114.854 -366.954
L116.64 -366.927
L118.426 -366.891
L120.211 -366.83
L121.997 -366.742
L123.782 -366.648
L125.568 -366.535
L127.354 -366.396
L129.139 -366.242
L130.925 -366.087
L132.71 -365.913
L134.496 -365.721
L136.282 -365.513
L138.067 -365.307
L139.853 -365.083
L141.638 -364.836
L143.424 -364.578
L145.21 -364.31
L146.995 -364.027
L148.781 -363.737
L150.566 -363.43
L152.352 -363.111
L154.138 -362.776
L155.923 -362.435
L157.709 -362.082
L159.494 -361.712
L161.28 -361.332
L163.066 -360.937
L164.851 -360.524
L166.637 -360.098
L168.422 -359.663
L170.208 -359.2
L171.994 -358.722
L173.779 -358.233
L175.565 -357.724
L177.35 -357.2
L179.136 -356.656
L180.922 -356.088
L182.707 -355.497
L184.493 -354.887
L186.278 -354.253
L188.064 -353.594
L189.85 -352.909
L191.635 -352.197
L193.421 -351.457
L195.206 -350.684
L196.992 -349.875
L198.778 -349.036
L200.563 -348.159
L202.349 -347.245
L204.134 -346.287
L205.92 -345.285
L207.706 -344.239
L209.491 -343.146
L211.277 -342.002
L213.062 -340.797
L214.848 -339.532
L216.634 -338.206
L218.419 -336.812
L220.205 -335.343
L221.99 -333.795
L223.776 -332.166
L225.562 -330.445
L227.347 -328.618
L229.133 -326.694
L230.918 -324.654
L232.704 -322.493
L234.49 -320.194
L236.275 -317.748
L238.061 -315.139
L239.846 -312.359
L241.632 -309.39
L243.418 -306.221
L245.203 -302.828
L246.989 -299.186
L248.774 -295.278
L250.56 -291.081
L252.346 -286.569
L254.131 -281.711
L255.917 -276.476
L257.702 -270.834
L259.488 -264.757
L261.274 -258.202
L263.059 -251.139
L264.845 -243.54
L266.63 -235.375
L268.416 -226.634
L270.202 -217.297
L271.987 -207.394
L273.773 -196.944
L275.558 -186
L277.344 -174.653
L279.13 -163.031
L280.915 -151.282
L282.701 -139.588
L284.486 -128.152
L286.272 -117.177
L288.058 -106.843
L289.843 -97.318
L291.629 -88.7114
L293.414 -81.0857
L295.2 -74.4521
L296.986 -68.7791
L298.771 -63.9955
L300.557 -60.0159
L302.342 -56.744
L304.128 -54.0753
L305.914 -51.9184
L307.699 -50.1815
L309.485 -48.7924
L311.27 -47.6833
L313.056 -46.8015
L314.842 -46.0997
L316.627 -45.5426
L318.413 -45.1003
L320.198 -44.7487
L321.984 -44.4689
L323.77 -44.2461
L325.555 -44.0681
L327.341 -43.9249
L329.126 -43.81
L330.912 -43.7173
L332.698 -43.642
L334.483 -43.5805
L336.269 -43.5303
L338.054 -43.4884
L339.84 -43.454
L341.626 -43.425
L343.411 -43.4005
L345.197 -43.3798
L346.982 -43.3618
L348.768 -43.3465
L350.554 -43.3329
L352.339 -43.3211
L354.125 -43.3108
L355.91 -43.3016
L357.696 -43.2934
L359.482 -43.2861
L361.267 -43.2794
L363.053 -43.2734
L364.838 -43.2679
L366.624 -43.2629
L368.41 -43.2584
L370.195 -43.2542
L371.981 -43.2504
L373.766 -43.2468
L375.552 -43.2435
L377.338 -43.2405
L379.123 -43.2377
L380.909 -43.2351
L382.694 -43.2327
L384.48 -43.2305
L386.266 -43.2284
L388.051 -43.2265
L389.837 -43.2247
L391.622 -43.223
L393.408 -43.2215
L395.194 -43.22
L396.979 -43.2187
L398.765 -43.2174
L400.55 -43.2163
L402.336 -43.2152
L404.122 -43.2142
L405.907 -43.2132
L407.693 -43.2123
L409.478 -43.2115
L411.264 -43.2107
L413.05 -43.21
L414.835 -43.2094
L416.621 -43.2087
L418.406 -43.2082
L420.192 -43.2076
L421.978 -43.2071
L423.763 -43.2066
L425.549 -43.2062
L427.334 -43.2058
L429.12 -43.2054
L430.906 -43.2051
L432.691 -43.2047
L434.477 -43.2044
L436.262 -43.2041
L438.048 -43.2038
L439.834 -43.2036
L441.619 -43.2034
L443.405 -43.2031
L445.19 -43.2029
L446.976 -43.2027
L448.762 -43.2026
L450.547 -43.2024
L452.333 -43.2022
L454.118 -43.2021
L455.904 -43.202
L457.69 -43.2018
L459.475 -43.2017
L461.261 -43.2016
L463.046 -43.2015
L464.832 -43.2014
L466.618 -43.2013
L468.403 -43.2012
L470.189 -43.2011
L471.974 -43.2011
L473.76 -43.201
L475.546 -43.2009
L477.331 -43.2009
L479.117 -43.2008
L480.902 -43.2008
L482.688 -43.2007
L484.474 -43.2007
L486.259 -43.2006
L488.045 -43.2006
L489.83 -43.2005
L491.616 -43.2005
L493.402 -43.2005
L495.187 -43.2004
L496.973 -43.2004
L498.758 -43.2004
L500.544 -43.2004
L502.33 -43.2003
L504.115 -43.2003
L505.901 -43.2003
L507.686 -43.2003
L509.472 -43.2003
L511.258 -43.2002
L513.043 -43.2002
L514.829 -43.2002
L516.614 -43.2002
L518.4 -43.2002
L518.4 -388.795
L518.4 -388.795
L516.614 -388.795
L514.829 -388.795
L513.043 -388.795
L511.258 -388.795
L509.472 -388.795
L507.686 -388.795
L505.901 -388.795
L504.115 -388.795
L502.33 -388.795
L500.544 -388.795
L498.758 -388.795
L496.973 -388.795
L495.187 -388.795
L493.402 -388.795
L491.616 -388.795
L489.83 -388.795
L488.045 -388.795
L486.259 -388.795
L484.474 -388.795
L482.688 -388.795
L480.902 -388.795
L479.117 -388.795
L477.331 -388.795
L475.546 -388.795
L473.76 -388.795
L471.974 -388.795
L470.189 -388.795
L468.403 -388.795
L466.618 -388.795
L464.832 -388.795
L463.046 -388.795
L461.261 -388.795
L459.475 -388.795
L457.69 -388.795
L455.904 -388.795
L454.118 -388.795
L452.333 -388.795
L450.547 -388.795
L448.762 -388.795
L446.976 -388.795
L445.19 -388.795
L443.405 -388.795
L441.619 -388.795
L439.834 -388.795
L438.048 -388.795
L436.262 -388.795
L434.477 -388.795
L432.691 -388.795
L430.906 -388.795
L429.12 -388.795
L427.334 -388.795
L425.549 -388.795
L423.763 -388.795
L421.978 -388.795
L420.192 -388.795
L418.406 -388.795
L416.621 -388.795
L414.835 -388.795
L413.05 -388.795
L411.264 -388.795
L409.478 -388.795
L407.693 -388.795
L405.907 -388.795
L404.122 -388.795
L402.336 -388.795
L400.55 -388.795
L398.765 -388.795
L396.979 -388.795
L395.194 -388.795
L393.408 -388.795
L391.622 -388.795
L389.837 -388.795
L388.051 -388.795
L386.266 -388.795
L384.48 -388.795
L382.694 -388.795
L380.909 -388.795
L379.123 -388.795
L377.338 -388.795
L375.552 -388.795
L373.766 -388.795
L371.981 -388.795
L370.195 -388.795
L368.41 -388.795
L366.624 -388.795
L364.838 -388.795
L363.053 -388.795
L361.267 -388.795
L359.482 -388.795
L357.696 -388.795
L355.91 -388.795
L354.125 -388.795
L352.339 -388.795
L350.554 -388.795
L348.768 -388.795
L346.982 -388.795
L345.197 -388.795
L343.411 -388.795
L341.626 -388.795
L339.84 -388.795
L338.054 -388.795
L336.269 -388.795
L334.483 -388.795
L332.698 -388.795
L330.912 -388.795
L329.126 -388.795
L327.341 -388.795
L325.555 -388.795
L323.77 -388.795
L321.984 -388.795
L320.198 -388.795
L318.413 -388.795
L316.627 -388.795
L314.842 -388.795
L313.056 -388.795
L311.27 -388.795
L309.485 -388.795
L307.699 -388.795
L305.914 -388.795
L304.128 -388.795
L302.342 -388.795
L300.557 -388.795
L298.771 -388.795
L296.986 -388.795
L295.2 -388.795
L293.414 -388.795
L291.629 -388.795
L289.843 -388.795
L288.058 -388.795
L286.272 -388.795
L284.486 -388.795
L282.701 -388.795
L280.915 -388.795
L279.13 -388.795
L277.344 -388.795
L275.558 -388.795
L273.773 -388.795
L271.987 -388.795
L270.202 -388.795
L268.416 -388.795
L266.63 -388.795
L264.845 -388.795
L263.059 -388.795
L261.274 -388.795
L259.488 -388.795
L257.702 -388.794
L255.917 -388.794
L254.131 -388.794
L252.346 -388.794
L250.56 -388.794
L248.774 -388.793
L246.989 -388.793
L245.203 -388.793
L243.418 -388.793
L241.632 -388.792
L239.846 -388.792
L238.061 -388.791
L236.275 -388.791
L234.49 -388.79
L232.704 -388.79
L230.918 -388.789
L229.133 -388.789
L227.347 -388.788
L225.562 -388.787
L223.776 -388.786
L221.99 -388.785
L220.205 -388.784
L218.419 -388.783
L216.634 -388.782
L214.848 -388.781
L213.062 -388.78
L211.277 -388.778
L209.491 -388.777
L207.706 -388.775
L205.92 -388.773
L204.134 -388.771
L202.349 -388.769
L200.563 -388.767
L198.778 -388.764
L196.992 -388.761
L195.206 -388.758
L193.421 -388.755
L191.635 -388.752
L189.85 -388.748
L188.064 -388.744
L186.278 -388.739
L184.493 -388.734
L182.707 -388.729
L180.922 -388.723
L179.136 -388.716
L177.35 -388.709
L175.565 -388.702
L173.779 -388.694
L171.994 -388.684
L170.208 -388.675
L168.422 -388.664
L166.637 -388.652
L164.851 -388.639
L163.066 -388.625
L161.28 -388.61
L159.494 -388.594
L157.709 -388.575
L155.923 -388.556
L154.138 -388.534
L152.352 -388.51
L150.566 -388.484
L148.781 -388.456
L146.995 -388.425
L145.21 -388.392
L143.424 -388.355
L141.638 -388.314
L139.853 -388.27
L138.067 -388.221
L136.282 -388.168
L134.496 -388.11
L132.71 -388.046
L130.925 -387.976
L129.139 -387.9
L127.354 -387.816
L125.568 -387.724
L123.782 -387.624
L121.997 -387.513
L120.211 -387.392
L118.426 -387.259
L116.64 -387.114
L114.854 -386.954
L113.069 -386.78
L111.283 -386.587
L109.498 -386.376
L107.712 -386.145
L105.926 -385.89
L104.141 -385.608
L102.355 -385.296
L100.57 -384.957
L98.784 -384.584
L96.9984 -384.175
L95.2128 -383.724
L93.4272 -383.235
L91.6416 -382.696
L89.856 -382.1
L88.0704 -381.442
L86.2848 -380.707
L84.4992 -379.92
L82.7136 -379.021
L80.928 -378.081
L79.1424 -376.999
L77.3568 -375.812
L75.5712 -374.517
L73.7856 -373.116
L72 -371.52
z
" id="medd620b1a9" style="stroke:#000000;"/>
    </defs>
    <g clip-path="url(#p7ff5b81e1d)">
     <use style="fill:#00bfbf;stroke:#000000;" x="0.0" xlink:href="#medd620b1a9" y="432.0"/>
    </g>
   </g>
   <g id="PolyCollection_5">
    <defs>
     <path d="
M72 -388.8
L72 -371.52
L73.7856 -373.116
L75.5712 -374.517
L77.3568 -375.812
L79.1424 -376.999
L80.928 -378.081
L82.7136 -379.021
L84.4992 -379.92
L86.2848 -380.707
L88.0704 -381.442
L89.856 -382.1
L91.6416 -382.696
L93.4272 -383.235
L95.2128 -383.724
L96.9984 -384.175
L98.784 -384.584
L100.57 -384.957
L102.355 -385.296
L104.141 -385.608
L105.926 -385.89
L107.712 -386.145
L109.498 -386.376
L111.283 -386.587
L113.069 -386.78
L114.854 -386.954
L116.64 -387.114
L118.426 -387.259
L120.211 -387.392
L121.997 -387.513
L123.782 -387.624
L125.568 -387.724
L127.354 -387.816
L129.139 -387.9
L130.925 -387.976
L132.71 -388.046
L134.496 -388.11
L136.282 -388.168
L138.067 -388.221
L139.853 -388.27
L141.638 -388.314
L143.424 -388.355
L145.21 -388.392
L146.995 -388.425
L148.781 -388.456
L150.566 -388.484
L152.352 -388.51
L154.138 -388.534
L155.923 -388.556
L157.709 -388.575
L159.494 -388.594
L161.28 -388.61
L163.066 -388.625
L164.851 -388.639
L166.637 -388.652
L168.422 -388.664
L170.208 -388.675
L171.994 -388.684
L173.779 -388.694
L175.565 -388.702
L177.35 -388.709
L179.136 -388.716
L180.922 -388.723
L182.707 -388.729
L184.493 -388.734
L186.278 -388.739
L188.064 -388.744
L189.85 -388.748
L191.635 -388.752
L193.421 -388.755
L195.206 -388.758
L196.992 -388.761
L198.778 -388.764
L200.563 -388.767
L202.349 -388.769
L204.134 -388.771
L205.92 -388.773
L207.706 -388.775
L209.491 -388.777
L211.277 -388.778
L213.062 -388.78
L214.848 -388.781
L216.634 -388.782
L218.419 -388.783
L220.205 -388.784
L221.99 -388.785
L223.776 -388.786
L225.562 -388.787
L227.347 -388.788
L229.133 -388.789
L230.918 -388.789
L232.704 -388.79
L234.49 -388.79
L236.275 -388.791
L238.061 -388.791
L239.846 -388.792
L241.632 -388.792
L243.418 -388.793
L245.203 -388.793
L246.989 -388.793
L248.774 -388.793
L250.56 -388.794
L252.346 -388.794
L254.131 -388.794
L255.917 -388.794
L257.702 -388.794
L259.488 -388.795
L261.274 -388.795
L263.059 -388.795
L264.845 -388.795
L266.63 -388.795
L268.416 -388.795
L270.202 -388.795
L271.987 -388.795
L273.773 -388.795
L275.558 -388.795
L277.344 -388.795
L279.13 -388.795
L280.915 -388.795
L282.701 -388.795
L284.486 -388.795
L286.272 -388.795
L288.058 -388.795
L289.843 -388.795
L291.629 -388.795
L293.414 -388.795
L295.2 -388.795
L296.986 -388.795
L298.771 -388.795
L300.557 -388.795
L302.342 -388.795
L304.128 -388.795
L305.914 -388.795
L307.699 -388.795
L309.485 -388.795
L311.27 -388.795
L313.056 -388.795
L314.842 -388.795
L316.627 -388.795
L318.413 -388.795
L320.198 -388.795
L321.984 -388.795
L323.77 -388.795
L325.555 -388.795
L327.341 -388.795
L329.126 -388.795
L330.912 -388.795
L332.698 -388.795
L334.483 -388.795
L336.269 -388.795
L338.054 -388.795
L339.84 -388.795
L341.626 -388.795
L343.411 -388.795
L345.197 -388.795
L346.982 -388.795
L348.768 -388.795
L350.554 -388.795
L352.339 -388.795
L354.125 -388.795
L355.91 -388.795
L357.696 -388.795
L359.482 -388.795
L361.267 -388.795
L363.053 -388.795
L364.838 -388.795
L366.624 -388.795
L368.41 -388.795
L370.195 -388.795
L371.981 -388.795
L373.766 -388.795
L375.552 -388.795
L377.338 -388.795
L379.123 -388.795
L380.909 -388.795
L382.694 -388.795
L384.48 -388.795
L386.266 -388.795
L388.051 -388.795
L389.837 -388.795
L391.622 -388.795
L393.408 -388.795
L395.194 -388.795
L396.979 -388.795
L398.765 -388.795
L400.55 -388.795
L402.336 -388.795
L404.122 -388.795
L405.907 -388.795
L407.693 -388.795
L409.478 -388.795
L411.264 -388.795
L413.05 -388.795
L414.835 -388.795
L416.621 -388.795
L418.406 -388.795
L420.192 -388.795
L421.978 -388.795
L423.763 -388.795
L425.549 -388.795
L427.334 -388.795
L429.12 -388.795
L430.906 -388.795
L432.691 -388.795
L434.477 -388.795
L436.262 -388.795
L438.048 -388.795
L439.834 -388.795
L441.619 -388.795
L443.405 -388.795
L445.19 -388.795
L446.976 -388.795
L448.762 -388.795
L450.547 -388.795
L452.333 -388.795
L454.118 -388.795
L455.904 -388.795
L457.69 -388.795
L459.475 -388.795
L461.261 -388.795
L463.046 -388.795
L464.832 -388.795
L466.618 -388.795
L468.403 -388.795
L470.189 -388.795
L471.974 -388.795
L473.76 -388.795
L475.546 -388.795
L477.331 -388.795
L479.117 -388.795
L480.902 -388.795
L482.688 -388.795
L484.474 -388.795
L486.259 -388.795
L488.045 -388.795
L489.83 -388.795
L491.616 -388.795
L493.402 -388.795
L495.187 -388.795
L496.973 -388.795
L498.758 -388.795
L500.544 -388.795
L502.33 -388.795
L504.115 -388.795
L505.901 -388.795
L507.686 -388.795
L509.472 -388.795
L511.258 -388.795
L513.043 -388.795
L514.829 -388.795
L516.614 -388.795
L518.4 -388.795
L518.4 -388.8
L518.4 -388.8
L516.614 -388.8
L514.829 -388.8
L513.043 -388.8
L511.258 -388.8
L509.472 -388.8
L507.686 -388.8
L505.901 -388.8
L504.115 -388.8
L502.33 -388.8
L500.544 -388.8
L498.758 -388.8
L496.973 -388.8
L495.187 -388.8
L493.402 -388.8
L491.616 -388.8
L489.83 -388.8
L488.045 -388.8
L486.259 -388.8
L484.474 -388.8
L482.688 -388.8
L480.902 -388.8
L479.117 -388.8
L477.331 -388.8
L475.546 -388.8
L473.76 -388.8
L471.974 -388.8
L470.189 -388.8
L468.403 -388.8
L466.618 -388.8
L464.832 -388.8
L463.046 -388.8
L461.261 -388.8
L459.475 -388.8
L457.69 -388.8
L455.904 -388.8
L454.118 -388.8
L452.333 -388.8
L450.547 -388.8
L448.762 -388.8
L446.976 -388.8
L445.19 -388.8
L443.405 -388.8
L441.619 -388.8
L439.834 -388.8
L438.048 -388.8
L436.262 -388.8
L434.477 -388.8
L432.691 -388.8
L430.906 -388.8
L429.12 -388.8
L427.334 -388.8
L425.549 -388.8
L423.763 -388.8
L421.978 -388.8
L420.192 -388.8
L418.406 -388.8
L416.621 -388.8
L414.835 -388.8
L413.05 -388.8
L411.264 -388.8
L409.478 -388.8
L407.693 -388.8
L405.907 -388.8
L404.122 -388.8
L402.336 -388.8
L400.55 -388.8
L398.765 -388.8
L396.979 -388.8
L395.194 -388.8
L393.408 -388.8
L391.622 -388.8
L389.837 -388.8
L388.051 -388.8
L386.266 -388.8
L384.48 -388.8
L382.694 -388.8
L380.909 -388.8
L379.123 -388.8
L377.338 -388.8
L375.552 -388.8
L373.766 -388.8
L371.981 -388.8
L370.195 -388.8
L368.41 -388.8
L366.624 -388.8
L364.838 -388.8
L363.053 -388.8
L361.267 -388.8
L359.482 -388.8
L357.696 -388.8
L355.91 -388.8
L354.125 -388.8
L352.339 -388.8
L350.554 -388.8
L348.768 -388.8
L346.982 -388.8
L345.197 -388.8
L343.411 -388.8
L341.626 -388.8
L339.84 -388.8
L338.054 -388.8
L336.269 -388.8
L334.483 -388.8
L332.698 -388.8
L330.912 -388.8
L329.126 -388.8
L327.341 -388.8
L325.555 -388.8
L323.77 -388.8
L321.984 -388.8
L320.198 -388.8
L318.413 -388.8
L316.627 -388.8
L314.842 -388.8
L313.056 -388.8
L311.27 -388.8
L309.485 -388.8
L307.699 -388.8
L305.914 -388.8
L304.128 -388.8
L302.342 -388.8
L300.557 -388.8
L298.771 -388.8
L296.986 -388.8
L295.2 -388.8
L293.414 -388.8
L291.629 -388.8
L289.843 -388.8
L288.058 -388.8
L286.272 -388.8
L284.486 -388.8
L282.701 -388.8
L280.915 -388.8
L279.13 -388.8
L277.344 -388.8
L275.558 -388.8
L273.773 -388.8
L271.987 -388.8
L270.202 -388.8
L268.416 -388.8
L266.63 -388.8
L264.845 -388.8
L263.059 -388.8
L261.274 -388.8
L259.488 -388.8
L257.702 -388.8
L255.917 -388.8
L254.131 -388.8
L252.346 -388.8
L250.56 -388.8
L248.774 -388.8
L246.989 -388.8
L245.203 -388.8
L243.418 -388.8
L241.632 -388.8
L239.846 -388.8
L238.061 -388.8
L236.275 -388.8
L234.49 -388.8
L232.704 -388.8
L230.918 -388.8
L229.133 -388.8
L227.347 -388.8
L225.562 -388.8
L223.776 -388.8
L221.99 -388.8
L220.205 -388.8
L218.419 -388.8
L216.634 -388.8
L214.848 -388.8
L213.062 -388.8
L211.277 -388.8
L209.491 -388.8
L207.706 -388.8
L205.92 -388.8
L204.134 -388.8
L202.349 -388.8
L200.563 -388.8
L198.778 -388.8
L196.992 -388.8
L195.206 -388.8
L193.421 -388.8
L191.635 -388.8
L189.85 -388.8
L188.064 -388.8
L186.278 -388.8
L184.493 -388.8
L182.707 -388.8
L180.922 -388.8
L179.136 -388.8
L177.35 -388.8
L175.565 -388.8
L173.779 -388.8
L171.994 -388.8
L170.208 -388.8
L168.422 -388.8
L166.637 -388.8
L164.851 -388.8
L163.066 -388.8
L161.28 -388.8
L159.494 -388.8
L157.709 -388.8
L155.923 -388.8
L154.138 -388.8
L152.352 -388.8
L150.566 -388.8
L148.781 -388.8
L146.995 -388.8
L145.21 -388.8
L143.424 -388.8
L141.638 -388.8
L139.853 -388.8
L138.067 -388.8
L136.282 -388.8
L134.496 -388.8
L132.71 -388.8
L130.925 -388.8
L129.139 -388.8
L127.354 -388.8
L125.568 -388.8
L123.782 -388.8
L121.997 -388.8
L120.211 -388.8
L118.426 -388.8
L116.64 -388.8
L114.854 -388.8
L113.069 -388.8
L111.283 -388.8
L109.498 -388.8
L107.712 -388.8
L105.926 -388.8
L104.141 -388.8
L102.355 -388.8
L100.57 -388.8
L98.784 -388.8
L96.9984 -388.8
L95.2128 -388.8
L93.4272 -388.8
L91.6416 -388.8
L89.856 -388.8
L88.0704 -388.8
L86.2848 -388.8
L84.4992 -388.8
L82.7136 -388.8
L80.928 -388.8
L79.1424 -388.8
L77.3568 -388.8
L75.5712 -388.8
L73.7856 -388.8
L72 -388.8
z
" id="m073cc92d66" style="stroke:#000000;"/>
    </defs>
    <g clip-path="url(#p7ff5b81e1d)">
     <use style="fill:#bf00bf;stroke:#000000;" x="0.0" xlink:href="#m073cc92d66" y="432.0"/>
    </g>
   </g>
   <g id="patch_3">
    <path d="
M72 43.2
L518.4 43.2" style="fill:none;stroke:#000000;stroke-linecap:square;stroke-linejoin:miter;"/>
   </g>
   <g id="patch_4">
    <path d="
M518.4 388.8
L518.4 43.2" style="fill:none;stroke:#000000;stroke-linecap:square;stroke-linejoin:miter;"/>
   </g>
   <g id="patch_5">
    <path d="
M72 388.8
L518.4 388.8" style="fill:none;stroke:#000000;stroke-linecap:square;stroke-linejoin:miter;"/>
   </g>
   <g id="patch_6">
    <path d="
M72 388.8
L72 43.2" style="fill:none;stroke:#000000;stroke-linecap:square;stroke-linejoin:miter;"/>
   </g>
   <g id="matplotlib.axis_1">
    <g id="xtick_1">
     <g id="line2d_1">
      <defs>
       <path d="
M0 0
L0 4" id="m741efc42ff" style="stroke:#000000;stroke-width:0.5;"/>
      </defs>
      <g>
       <use style="stroke:#000000;stroke-width:0.5;" x="72.0" xlink:href="#m741efc42ff" y="388.8"/>
      </g>
     </g>
     <g id="line2d_2">
      <defs>
       <path d="
M0 0
L0 -4" id="m93b0483c22" style="stroke:#000000;stroke-width:0.5;"/>
      </defs>
      <g>
       <use style="stroke:#000000;stroke-width:0.5;" x="72.0" xlink:href="#m93b0483c22" y="43.2"/>
      </g>
     </g>
     <g id="text_1">
      <!-- 0 -->
      <defs>
       <path d="
M31.7812 66.4062
Q24.1719 66.4062 20.3281 58.9062
Q16.5 51.4219 16.5 36.375
Q16.5 21.3906 20.3281 13.8906
Q24.1719 6.39062 31.7812 6.39062
Q39.4531 6.39062 43.2812 13.8906
Q47.125 21.3906 47.125 36.375
Q47.125 51.4219 43.2812 58.9062
Q39.4531 66.4062 31.7812 66.4062
M31.7812 74.2188
Q44.0469 74.2188 50.5156 64.5156
Q56.9844 54.8281 56.9844 36.375
Q56.9844 17.9688 50.5156 8.26562
Q44.0469 -1.42188 31.7812 -1.42188
Q19.5312 -1.42188 13.0625 8.26562
Q6.59375 17.9688 6.59375 36.375
Q6.59375 54.8281 13.0625 64.5156
Q19.5312 74.2188 31.7812 74.2188" id="BitstreamVeraSans-Roman-30"/>
      </defs>
      <g transform="translate(68.9765625 405.918125)scale(0.12 -0.12)">
       <use xlink:href="#BitstreamVeraSans-Roman-30"/>
      </g>
     </g>
    </g>
    <g id="xtick_2">
     <g id="line2d_3">
      <g>
       <use style="stroke:#000000;stroke-width:0.5;" x="161.28" xlink:href="#m741efc42ff" y="388.8"/>
      </g>
     </g>
     <g id="line2d_4">
      <g>
       <use style="stroke:#000000;stroke-width:0.5;" x="161.28" xlink:href="#m93b0483c22" y="43.2"/>
      </g>
     </g>
     <g id="text_2">
      <!-- 50 -->
      <defs>
       <path d="
M10.7969 72.9062
L49.5156 72.9062
L49.5156 64.5938
L19.8281 64.5938
L19.8281 46.7344
Q21.9688 47.4688 24.1094 47.8281
Q26.2656 48.1875 28.4219 48.1875
Q40.625 48.1875 47.75 41.5
Q54.8906 34.8125 54.8906 23.3906
Q54.8906 11.625 47.5625 5.09375
Q40.2344 -1.42188 26.9062 -1.42188
Q22.3125 -1.42188 17.5469 -0.640625
Q12.7969 0.140625 7.71875 1.70312
L7.71875 11.625
Q12.1094 9.23438 16.7969 8.0625
Q21.4844 6.89062 26.7031 6.89062
Q35.1562 6.89062 40.0781 11.3281
Q45.0156 15.7656 45.0156 23.3906
Q45.0156 31 40.0781 35.4375
Q35.1562 39.8906 26.7031 39.8906
Q22.75 39.8906 18.8125 39.0156
Q14.8906 38.1406 10.7969 36.2812
z
" id="BitstreamVeraSans-Roman-35"/>
      </defs>
      <g transform="translate(154.5065625 405.918125)scale(0.12 -0.12)">
       <use xlink:href="#BitstreamVeraSans-Roman-35"/>
       <use x="63.623046875" xlink:href="#BitstreamVeraSans-Roman-30"/>
      </g>
     </g>
    </g>
    <g id="xtick_3">
     <g id="line2d_5">
      <g>
       <use style="stroke:#000000;stroke-width:0.5;" x="250.56" xlink:href="#m741efc42ff" y="388.8"/>
      </g>
     </g>
     <g id="line2d_6">
      <g>
       <use style="stroke:#000000;stroke-width:0.5;" x="250.56" xlink:href="#m93b0483c22" y="43.2"/>
      </g>
     </g>
     <g id="text_3">
      <!-- 100 -->
      <defs>
       <path d="
M12.4062 8.29688
L28.5156 8.29688
L28.5156 63.9219
L10.9844 60.4062
L10.9844 69.3906
L28.4219 72.9062
L38.2812 72.9062
L38.2812 8.29688
L54.3906 8.29688
L54.3906 0
L12.4062 0
z
" id="BitstreamVeraSans-Roman-31"/>
      </defs>
      <g transform="translate(240.165 405.918125)scale(0.12 -0.12)">
       <use xlink:href="#BitstreamVeraSans-Roman-31"/>
       <use x="63.623046875" xlink:href="#BitstreamVeraSans-Roman-30"/>
       <use x="127.24609375" xlink:href="#BitstreamVeraSans-Roman-30"/>
      </g>
     </g>
    </g>
    <g id="xtick_4">
     <g id="line2d_7">
      <g>
       <use style="stroke:#000000;stroke-width:0.5;" x="339.84" xlink:href="#m741efc42ff" y="388.8"/>
      </g>
     </g>
     <g id="line2d_8">
      <g>
       <use style="stroke:#000000;stroke-width:0.5;" x="339.84" xlink:href="#m93b0483c22" y="43.2"/>
      </g>
     </g>
     <g id="text_4">
      <!-- 150 -->
      <g transform="translate(329.445 405.918125)scale(0.12 -0.12)">
       <use xlink:href="#BitstreamVeraSans-Roman-31"/>
       <use x="63.623046875" xlink:href="#BitstreamVeraSans-Roman-35"/>
       <use x="127.24609375" xlink:href="#BitstreamVeraSans-Roman-30"/>
      </g>
     </g>
    </g>
    <g id="xtick_5">
     <g id="line2d_9">
      <g>
       <use style="stroke:#000000;stroke-width:0.5;" x="429.12" xlink:href="#m741efc42ff" y="388.8"/>
      </g>
     </g>
     <g id="line2d_10">
      <g>
       <use style="stroke:#000000;stroke-width:0.5;" x="429.12" xlink:href="#m93b0483c22" y="43.2"/>
      </g>
     </g>
     <g id="text_5">
      <!-- 200 -->
      <defs>
       <path d="
M19.1875 8.29688
L53.6094 8.29688
L53.6094 0
L7.32812 0
L7.32812 8.29688
Q12.9375 14.1094 22.625 23.8906
Q32.3281 33.6875 34.8125 36.5312
Q39.5469 41.8438 41.4219 45.5312
Q43.3125 49.2188 43.3125 52.7812
Q43.3125 58.5938 39.2344 62.25
Q35.1562 65.9219 28.6094 65.9219
Q23.9688 65.9219 18.8125 64.3125
Q13.6719 62.7031 7.8125 59.4219
L7.8125 69.3906
Q13.7656 71.7812 18.9375 73
Q24.125 74.2188 28.4219 74.2188
Q39.75 74.2188 46.4844 68.5469
Q53.2188 62.8906 53.2188 53.4219
Q53.2188 48.9219 51.5312 44.8906
Q49.8594 40.875 45.4062 35.4062
Q44.1875 33.9844 37.6406 27.2188
Q31.1094 20.4531 19.1875 8.29688" id="BitstreamVeraSans-Roman-32"/>
      </defs>
      <g transform="translate(418.505625 405.918125)scale(0.12 -0.12)">
       <use xlink:href="#BitstreamVeraSans-Roman-32"/>
       <use x="63.623046875" xlink:href="#BitstreamVeraSans-Roman-30"/>
       <use x="127.24609375" xlink:href="#BitstreamVeraSans-Roman-30"/>
      </g>
     </g>
    </g>
    <g id="xtick_6">
     <g id="line2d_11">
      <g>
       <use style="stroke:#000000;stroke-width:0.5;" x="518.4" xlink:href="#m741efc42ff" y="388.8"/>
      </g>
     </g>
     <g id="line2d_12">
      <g>
       <use style="stroke:#000000;stroke-width:0.5;" x="518.4" xlink:href="#m93b0483c22" y="43.2"/>
      </g>
     </g>
     <g id="text_6">
      <!-- 250 -->
      <g transform="translate(507.785625 405.918125)scale(0.12 -0.12)">
       <use xlink:href="#BitstreamVeraSans-Roman-32"/>
       <use x="63.623046875" xlink:href="#BitstreamVeraSans-Roman-35"/>
       <use x="127.24609375" xlink:href="#BitstreamVeraSans-Roman-30"/>
      </g>
     </g>
    </g>
    <g id="text_7">
     <!-- Turn -->
     <defs>
      <path d="
M54.8906 33.0156
L54.8906 0
L45.9062 0
L45.9062 32.7188
Q45.9062 40.4844 42.875 44.3281
Q39.8438 48.1875 33.7969 48.1875
Q26.5156 48.1875 22.3125 43.5469
Q18.1094 38.9219 18.1094 30.9062
L18.1094 0
L9.07812 0
L9.07812 54.6875
L18.1094 54.6875
L18.1094 46.1875
Q21.3438 51.125 25.7031 53.5625
Q30.0781 56 35.7969 56
Q45.2188 56 50.0469 50.1719
Q54.8906 44.3438 54.8906 33.0156" id="BitstreamVeraSans-Roman-6e"/>
      <path d="
M41.1094 46.2969
Q39.5938 47.1719 37.8125 47.5781
Q36.0312 48 33.8906 48
Q26.2656 48 22.1875 43.0469
Q18.1094 38.0938 18.1094 28.8125
L18.1094 0
L9.07812 0
L9.07812 54.6875
L18.1094 54.6875
L18.1094 46.1875
Q20.9531 51.1719 25.4844 53.5781
Q30.0312 56 36.5312 56
Q37.4531 56 38.5781 55.875
Q39.7031 55.7656 41.0625 55.5156
z
" id="BitstreamVeraSans-Roman-72"/>
      <path d="
M8.5 21.5781
L8.5 54.6875
L17.4844 54.6875
L17.4844 21.9219
Q17.4844 14.1562 20.5 10.2656
Q23.5312 6.39062 29.5938 6.39062
Q36.8594 6.39062 41.0781 11.0312
Q45.3125 15.6719 45.3125 23.6875
L45.3125 54.6875
L54.2969 54.6875
L54.2969 0
L45.3125 0
L45.3125 8.40625
Q42.0469 3.42188 37.7188 1
Q33.4062 -1.42188 27.6875 -1.42188
Q18.2656 -1.42188 13.375 4.4375
Q8.5 10.2969 8.5 21.5781" id="BitstreamVeraSans-Roman-75"/>
      <path d="
M-0.296875 72.9062
L61.375 72.9062
L61.375 64.5938
L35.5 64.5938
L35.5 0
L25.5938 0
L25.5938 64.5938
L-0.296875 64.5938
z
" id="BitstreamVeraSans-Roman-54"/>
     </defs>
     <g transform="translate(282.9675 422.531875)scale(0.12 -0.12)">
      <use xlink:href="#BitstreamVeraSans-Roman-54"/>
      <use x="45.958984375" xlink:href="#BitstreamVeraSans-Roman-75"/>
      <use x="109.337890625" xlink:href="#BitstreamVeraSans-Roman-72"/>
      <use x="148.701171875" xlink:href="#BitstreamVeraSans-Roman-6e"/>
     </g>
    </g>
   </g>
   <g id="matplotlib.axis_2">
    <g id="ytick_1">
     <g id="line2d_13">
      <defs>
       <path d="
M0 0
L-4 0" id="mcb0005524f" style="stroke:#000000;stroke-width:0.5;"/>
      </defs>
      <g>
       <use style="stroke:#000000;stroke-width:0.5;" x="72.0" xlink:href="#mcb0005524f" y="354.24"/>
      </g>
     </g>
    </g>
    <g id="ytick_2">
     <g id="line2d_14">
      <g>
       <use style="stroke:#000000;stroke-width:0.5;" x="72.0" xlink:href="#mcb0005524f" y="285.12"/>
      </g>
     </g>
    </g>
    <g id="ytick_3">
     <g id="line2d_15">
      <g>
       <use style="stroke:#000000;stroke-width:0.5;" x="72.0" xlink:href="#mcb0005524f" y="216.0"/>
      </g>
     </g>
    </g>
    <g id="ytick_4">
     <g id="line2d_16">
      <g>
       <use style="stroke:#000000;stroke-width:0.5;" x="72.0" xlink:href="#mcb0005524f" y="146.88"/>
      </g>
     </g>
    </g>
    <g id="ytick_5">
     <g id="line2d_17">
      <g>
       <use style="stroke:#000000;stroke-width:0.5;" x="72.0" xlink:href="#mcb0005524f" y="77.76"/>
      </g>
     </g>
    </g>
    <g id="text_8">
     <!-- Relative population size -->
     <defs>
      <path id="BitstreamVeraSans-Roman-20"/>
      <path d="
M30.6094 48.3906
Q23.3906 48.3906 19.1875 42.75
Q14.9844 37.1094 14.9844 27.2969
Q14.9844 17.4844 19.1562 11.8438
Q23.3438 6.20312 30.6094 6.20312
Q37.7969 6.20312 41.9844 11.8594
Q46.1875 17.5312 46.1875 27.2969
Q46.1875 37.0156 41.9844 42.7031
Q37.7969 48.3906 30.6094 48.3906
M30.6094 56
Q42.3281 56 49.0156 48.375
Q55.7188 40.7656 55.7188 27.2969
Q55.7188 13.875 49.0156 6.21875
Q42.3281 -1.42188 30.6094 -1.42188
Q18.8438 -1.42188 12.1719 6.21875
Q5.51562 13.875 5.51562 27.2969
Q5.51562 40.7656 12.1719 48.375
Q18.8438 56 30.6094 56" id="BitstreamVeraSans-Roman-6f"/>
      <path d="
M9.42188 75.9844
L18.4062 75.9844
L18.4062 0
L9.42188 0
z
" id="BitstreamVeraSans-Roman-6c"/>
      <path d="
M5.51562 54.6875
L48.1875 54.6875
L48.1875 46.4844
L14.4062 7.17188
L48.1875 7.17188
L48.1875 0
L4.29688 0
L4.29688 8.20312
L38.0938 47.5156
L5.51562 47.5156
z
" id="BitstreamVeraSans-Roman-7a"/>
      <path d="
M2.98438 54.6875
L12.5 54.6875
L29.5938 8.79688
L46.6875 54.6875
L56.2031 54.6875
L35.6875 0
L23.4844 0
z
" id="BitstreamVeraSans-Roman-76"/>
      <path d="
M44.3906 34.1875
Q47.5625 33.1094 50.5625 29.5938
Q53.5625 26.0781 56.5938 19.9219
L66.6094 0
L56 0
L46.6875 18.7031
Q43.0625 26.0312 39.6719 28.4219
Q36.2812 30.8125 30.4219 30.8125
L19.6719 30.8125
L19.6719 0
L9.8125 0
L9.8125 72.9062
L32.0781 72.9062
Q44.5781 72.9062 50.7344 67.6719
Q56.8906 62.4531 56.8906 51.9062
Q56.8906 45.0156 53.6875 40.4688
Q50.4844 35.9375 44.3906 34.1875
M19.6719 64.7969
L19.6719 38.9219
L32.0781 38.9219
Q39.2031 38.9219 42.8438 42.2188
Q46.4844 45.5156 46.4844 51.9062
Q46.4844 58.2969 42.8438 61.5469
Q39.2031 64.7969 32.0781 64.7969
z
" id="BitstreamVeraSans-Roman-52"/>
      <path d="
M9.42188 54.6875
L18.4062 54.6875
L18.4062 0
L9.42188 0
z

M9.42188 75.9844
L18.4062 75.9844
L18.4062 64.5938
L9.42188 64.5938
z
" id="BitstreamVeraSans-Roman-69"/>
      <path d="
M56.2031 29.5938
L56.2031 25.2031
L14.8906 25.2031
Q15.4844 15.9219 20.4844 11.0625
Q25.4844 6.20312 34.4219 6.20312
Q39.5938 6.20312 44.4531 7.46875
Q49.3125 8.73438 54.1094 11.2812
L54.1094 2.78125
Q49.2656 0.734375 44.1875 -0.34375
Q39.1094 -1.42188 33.8906 -1.42188
Q20.7969 -1.42188 13.1562 6.1875
Q5.51562 13.8125 5.51562 26.8125
Q5.51562 40.2344 12.7656 48.1094
Q20.0156 56 32.3281 56
Q43.3594 56 49.7812 48.8906
Q56.2031 41.7969 56.2031 29.5938
M47.2188 32.2344
Q47.125 39.5938 43.0938 43.9844
Q39.0625 48.3906 32.4219 48.3906
Q24.9062 48.3906 20.3906 44.1406
Q15.875 39.8906 15.1875 32.1719
z
" id="BitstreamVeraSans-Roman-65"/>
      <path d="
M18.3125 70.2188
L18.3125 54.6875
L36.8125 54.6875
L36.8125 47.7031
L18.3125 47.7031
L18.3125 18.0156
Q18.3125 11.3281 20.1406 9.42188
Q21.9688 7.51562 27.5938 7.51562
L36.8125 7.51562
L36.8125 0
L27.5938 0
Q17.1875 0 13.2344 3.875
Q9.28125 7.76562 9.28125 18.0156
L9.28125 47.7031
L2.6875 47.7031
L2.6875 54.6875
L9.28125 54.6875
L9.28125 70.2188
z
" id="BitstreamVeraSans-Roman-74"/>
      <path d="
M34.2812 27.4844
Q23.3906 27.4844 19.1875 25
Q14.9844 22.5156 14.9844 16.5
Q14.9844 11.7188 18.1406 8.90625
Q21.2969 6.10938 26.7031 6.10938
Q34.1875 6.10938 38.7031 11.4062
Q43.2188 16.7031 43.2188 25.4844
L43.2188 27.4844
z

M52.2031 31.2031
L52.2031 0
L43.2188 0
L43.2188 8.29688
Q40.1406 3.32812 35.5469 0.953125
Q30.9531 -1.42188 24.3125 -1.42188
Q15.9219 -1.42188 10.9531 3.29688
Q6 8.01562 6 15.9219
Q6 25.1406 12.1719 29.8281
Q18.3594 34.5156 30.6094 34.5156
L43.2188 34.5156
L43.2188 35.4062
Q43.2188 41.6094 39.1406 45
Q35.0625 48.3906 27.6875 48.3906
Q23 48.3906 18.5469 47.2656
Q14.1094 46.1406 10.0156 43.8906
L10.0156 52.2031
Q14.9375 54.1094 19.5781 55.0469
Q24.2188 56 28.6094 56
Q40.4844 56 46.3438 49.8438
Q52.2031 43.7031 52.2031 31.2031" id="BitstreamVeraSans-Roman-61"/>
      <path d="
M44.2812 53.0781
L44.2812 44.5781
Q40.4844 46.5312 36.375 47.5
Q32.2812 48.4844 27.875 48.4844
Q21.1875 48.4844 17.8438 46.4375
Q14.5 44.3906 14.5 40.2812
Q14.5 37.1562 16.8906 35.375
Q19.2812 33.5938 26.5156 31.9844
L29.5938 31.2969
Q39.1562 29.25 43.1875 25.5156
Q47.2188 21.7812 47.2188 15.0938
Q47.2188 7.46875 41.1875 3.01562
Q35.1562 -1.42188 24.6094 -1.42188
Q20.2188 -1.42188 15.4531 -0.5625
Q10.6875 0.296875 5.42188 2
L5.42188 11.2812
Q10.4062 8.6875 15.2344 7.39062
Q20.0625 6.10938 24.8125 6.10938
Q31.1562 6.10938 34.5625 8.28125
Q37.9844 10.4531 37.9844 14.4062
Q37.9844 18.0625 35.5156 20.0156
Q33.0625 21.9688 24.7031 23.7812
L21.5781 24.5156
Q13.2344 26.2656 9.51562 29.9062
Q5.8125 33.5469 5.8125 39.8906
Q5.8125 47.6094 11.2812 51.7969
Q16.75 56 26.8125 56
Q31.7812 56 36.1719 55.2656
Q40.5781 54.5469 44.2812 53.0781" id="BitstreamVeraSans-Roman-73"/>
      <path d="
M18.1094 8.20312
L18.1094 -20.7969
L9.07812 -20.7969
L9.07812 54.6875
L18.1094 54.6875
L18.1094 46.3906
Q20.9531 51.2656 25.2656 53.625
Q29.5938 56 35.5938 56
Q45.5625 56 51.7812 48.0938
Q58.0156 40.1875 58.0156 27.2969
Q58.0156 14.4062 51.7812 6.48438
Q45.5625 -1.42188 35.5938 -1.42188
Q29.5938 -1.42188 25.2656 0.953125
Q20.9531 3.32812 18.1094 8.20312
M48.6875 27.2969
Q48.6875 37.2031 44.6094 42.8438
Q40.5312 48.4844 33.4062 48.4844
Q26.2656 48.4844 22.1875 42.8438
Q18.1094 37.2031 18.1094 27.2969
Q18.1094 17.3906 22.1875 11.75
Q26.2656 6.10938 33.4062 6.10938
Q40.5312 6.10938 44.6094 11.75
Q48.6875 17.3906 48.6875 27.2969" id="BitstreamVeraSans-Roman-70"/>
     </defs>
     <g transform="translate(552.518125 287.2528125)rotate(-90.0)scale(0.12 -0.12)">
      <use xlink:href="#BitstreamVeraSans-Roman-52"/>
      <use x="64.982421875" xlink:href="#BitstreamVeraSans-Roman-65"/>
      <use x="126.505859375" xlink:href="#BitstreamVeraSans-Roman-6c"/>
      <use x="154.2890625" xlink:href="#BitstreamVeraSans-Roman-61"/>
      <use x="215.568359375" xlink:href="#BitstreamVeraSans-Roman-74"/>
      <use x="254.77734375" xlink:href="#BitstreamVeraSans-Roman-69"/>
      <use x="282.560546875" xlink:href="#BitstreamVeraSans-Roman-76"/>
      <use x="341.740234375" xlink:href="#BitstreamVeraSans-Roman-65"/>
      <use x="403.263671875" xlink:href="#BitstreamVeraSans-Roman-20"/>
      <use x="435.05078125" xlink:href="#BitstreamVeraSans-Roman-70"/>
      <use x="498.52734375" xlink:href="#BitstreamVeraSans-Roman-6f"/>
      <use x="559.708984375" xlink:href="#BitstreamVeraSans-Roman-70"/>
      <use x="623.185546875" xlink:href="#BitstreamVeraSans-Roman-75"/>
      <use x="686.564453125" xlink:href="#BitstreamVeraSans-Roman-6c"/>
      <use x="714.34765625" xlink:href="#BitstreamVeraSans-Roman-61"/>
      <use x="775.626953125" xlink:href="#BitstreamVeraSans-Roman-74"/>
      <use x="814.8359375" xlink:href="#BitstreamVeraSans-Roman-69"/>
      <use x="842.619140625" xlink:href="#BitstreamVeraSans-Roman-6f"/>
      <use x="903.80078125" xlink:href="#BitstreamVeraSans-Roman-6e"/>
      <use x="967.1796875" xlink:href="#BitstreamVeraSans-Roman-20"/>
      <use x="998.966796875" xlink:href="#BitstreamVeraSans-Roman-73"/>
      <use x="1051.06640625" xlink:href="#BitstreamVeraSans-Roman-69"/>
      <use x="1078.84960938" xlink:href="#BitstreamVeraSans-Roman-7a"/>
      <use x="1131.33984375" xlink:href="#BitstreamVeraSans-Roman-65"/>
     </g>
    </g>
   </g>
   <g id="text_9">
    <!-- Defector -->
    <defs>
     <path d="
M19.6719 64.7969
L19.6719 8.10938
L31.5938 8.10938
Q46.6875 8.10938 53.6875 14.9375
Q60.6875 21.7812 60.6875 36.5312
Q60.6875 51.1719 53.6875 57.9844
Q46.6875 64.7969 31.5938 64.7969
z

M9.8125 72.9062
L30.0781 72.9062
Q51.2656 72.9062 61.1719 64.0938
Q71.0938 55.2812 71.0938 36.5312
Q71.0938 17.6719 61.125 8.82812
Q51.1719 0 30.0781 0
L9.8125 0
z
" id="BitstreamVeraSans-Roman-44"/>
     <path d="
M37.1094 75.9844
L37.1094 68.5
L28.5156 68.5
Q23.6875 68.5 21.7969 66.5469
Q19.9219 64.5938 19.9219 59.5156
L19.9219 54.6875
L34.7188 54.6875
L34.7188 47.7031
L19.9219 47.7031
L19.9219 0
L10.8906 0
L10.8906 47.7031
L2.29688 47.7031
L2.29688 54.6875
L10.8906 54.6875
L10.8906 58.5
Q10.8906 67.625 15.1406 71.7969
Q19.3906 75.9844 28.6094 75.9844
z
" id="BitstreamVeraSans-Roman-66"/>
     <path d="
M48.7812 52.5938
L48.7812 44.1875
Q44.9688 46.2969 41.1406 47.3438
Q37.3125 48.3906 33.4062 48.3906
Q24.6562 48.3906 19.8125 42.8438
Q14.9844 37.3125 14.9844 27.2969
Q14.9844 17.2812 19.8125 11.7344
Q24.6562 6.20312 33.4062 6.20312
Q37.3125 6.20312 41.1406 7.25
Q44.9688 8.29688 48.7812 10.4062
L48.7812 2.09375
Q45.0156 0.34375 40.9844 -0.53125
Q36.9688 -1.42188 32.4219 -1.42188
Q20.0625 -1.42188 12.7812 6.34375
Q5.51562 14.1094 5.51562 27.2969
Q5.51562 40.6719 12.8594 48.3281
Q20.2188 56 33.0156 56
Q37.1562 56 41.1094 55.1406
Q45.0625 54.2969 48.7812 52.5938" id="BitstreamVeraSans-Roman-63"/>
    </defs>
    <g transform="translate(29.317 356.4475)scale(0.08 -0.08)">
     <use xlink:href="#BitstreamVeraSans-Roman-44"/>
     <use x="77.001953125" xlink:href="#BitstreamVeraSans-Roman-65"/>
     <use x="138.525390625" xlink:href="#BitstreamVeraSans-Roman-66"/>
     <use x="173.73046875" xlink:href="#BitstreamVeraSans-Roman-65"/>
     <use x="235.25390625" xlink:href="#BitstreamVeraSans-Roman-63"/>
     <use x="290.234375" xlink:href="#BitstreamVeraSans-Roman-74"/>
     <use x="329.443359375" xlink:href="#BitstreamVeraSans-Roman-6f"/>
     <use x="390.625" xlink:href="#BitstreamVeraSans-Roman-72"/>
    </g>
   </g>
   <g id="text_10">
    <!-- Alternator -->
    <defs>
     <path d="
M34.1875 63.1875
L20.7969 26.9062
L47.6094 26.9062
z

M28.6094 72.9062
L39.7969 72.9062
L67.5781 0
L57.3281 0
L50.6875 18.7031
L17.8281 18.7031
L11.1875 0
L0.78125 0
z
" id="BitstreamVeraSans-Roman-41"/>
    </defs>
    <g transform="translate(22.9395 287.3275)scale(0.08 -0.08)">
     <use xlink:href="#BitstreamVeraSans-Roman-41"/>
     <use x="68.408203125" xlink:href="#BitstreamVeraSans-Roman-6c"/>
     <use x="96.19140625" xlink:href="#BitstreamVeraSans-Roman-74"/>
     <use x="135.400390625" xlink:href="#BitstreamVeraSans-Roman-65"/>
     <use x="196.923828125" xlink:href="#BitstreamVeraSans-Roman-72"/>
     <use x="236.287109375" xlink:href="#BitstreamVeraSans-Roman-6e"/>
     <use x="299.666015625" xlink:href="#BitstreamVeraSans-Roman-61"/>
     <use x="360.9453125" xlink:href="#BitstreamVeraSans-Roman-74"/>
     <use x="400.154296875" xlink:href="#BitstreamVeraSans-Roman-6f"/>
     <use x="461.3359375" xlink:href="#BitstreamVeraSans-Roman-72"/>
    </g>
   </g>
   <g id="text_11">
    <!-- Random -->
    <defs>
     <path d="
M45.4062 46.3906
L45.4062 75.9844
L54.3906 75.9844
L54.3906 0
L45.4062 0
L45.4062 8.20312
Q42.5781 3.32812 38.25 0.953125
Q33.9375 -1.42188 27.875 -1.42188
Q17.9688 -1.42188 11.7344 6.48438
Q5.51562 14.4062 5.51562 27.2969
Q5.51562 40.1875 11.7344 48.0938
Q17.9688 56 27.875 56
Q33.9375 56 38.25 53.625
Q42.5781 51.2656 45.4062 46.3906
M14.7969 27.2969
Q14.7969 17.3906 18.875 11.75
Q22.9531 6.10938 30.0781 6.10938
Q37.2031 6.10938 41.2969 11.75
Q45.4062 17.3906 45.4062 27.2969
Q45.4062 37.2031 41.2969 42.8438
Q37.2031 48.4844 30.0781 48.4844
Q22.9531 48.4844 18.875 42.8438
Q14.7969 37.2031 14.7969 27.2969" id="BitstreamVeraSans-Roman-64"/>
     <path d="
M52 44.1875
Q55.375 50.25 60.0625 53.125
Q64.75 56 71.0938 56
Q79.6406 56 84.2812 50.0156
Q88.9219 44.0469 88.9219 33.0156
L88.9219 0
L79.8906 0
L79.8906 32.7188
Q79.8906 40.5781 77.0938 44.375
Q74.3125 48.1875 68.6094 48.1875
Q61.625 48.1875 57.5625 43.5469
Q53.5156 38.9219 53.5156 30.9062
L53.5156 0
L44.4844 0
L44.4844 32.7188
Q44.4844 40.625 41.7031 44.4062
Q38.9219 48.1875 33.1094 48.1875
Q26.2188 48.1875 22.1562 43.5312
Q18.1094 38.875 18.1094 30.9062
L18.1094 0
L9.07812 0
L9.07812 54.6875
L18.1094 54.6875
L18.1094 46.1875
Q21.1875 51.2188 25.4844 53.6094
Q29.7812 56 35.6875 56
Q41.6562 56 45.8281 52.9688
Q50 49.9531 52 44.1875" id="BitstreamVeraSans-Roman-6d"/>
    </defs>
    <g transform="translate(31.41825 218.2075)scale(0.08 -0.08)">
     <use xlink:href="#BitstreamVeraSans-Roman-52"/>
     <use x="67.232421875" xlink:href="#BitstreamVeraSans-Roman-61"/>
     <use x="128.51171875" xlink:href="#BitstreamVeraSans-Roman-6e"/>
     <use x="191.890625" xlink:href="#BitstreamVeraSans-Roman-64"/>
     <use x="255.3671875" xlink:href="#BitstreamVeraSans-Roman-6f"/>
     <use x="316.548828125" xlink:href="#BitstreamVeraSans-Roman-6d"/>
    </g>
   </g>
   <g id="text_12">
    <!-- Tit For Tat -->
    <defs>
     <path d="
M9.8125 72.9062
L51.7031 72.9062
L51.7031 64.5938
L19.6719 64.5938
L19.6719 43.1094
L48.5781 43.1094
L48.5781 34.8125
L19.6719 34.8125
L19.6719 0
L9.8125 0
z
" id="BitstreamVeraSans-Roman-46"/>
    </defs>
    <g transform="translate(24.0595 149.0875)scale(0.08 -0.08)">
     <use xlink:href="#BitstreamVeraSans-Roman-54"/>
     <use x="57.958984375" xlink:href="#BitstreamVeraSans-Roman-69"/>
     <use x="85.7421875" xlink:href="#BitstreamVeraSans-Roman-74"/>
     <use x="124.951171875" xlink:href="#BitstreamVeraSans-Roman-20"/>
     <use x="156.73828125" xlink:href="#BitstreamVeraSans-Roman-46"/>
     <use x="210.6328125" xlink:href="#BitstreamVeraSans-Roman-6f"/>
     <use x="271.814453125" xlink:href="#BitstreamVeraSans-Roman-72"/>
     <use x="312.927734375" xlink:href="#BitstreamVeraSans-Roman-20"/>
     <use x="344.71484375" xlink:href="#BitstreamVeraSans-Roman-54"/>
     <use x="389.298828125" xlink:href="#BitstreamVeraSans-Roman-61"/>
     <use x="450.578125" xlink:href="#BitstreamVeraSans-Roman-74"/>
    </g>
   </g>
   <g id="text_13">
    <!-- Cooperator -->
    <defs>
     <path d="
M64.4062 67.2812
L64.4062 56.8906
Q59.4219 61.5312 53.7812 63.8125
Q48.1406 66.1094 41.7969 66.1094
Q29.2969 66.1094 22.6562 58.4688
Q16.0156 50.8281 16.0156 36.375
Q16.0156 21.9688 22.6562 14.3281
Q29.2969 6.6875 41.7969 6.6875
Q48.1406 6.6875 53.7812 8.98438
Q59.4219 11.2812 64.4062 15.9219
L64.4062 5.60938
Q59.2344 2.09375 53.4375 0.328125
Q47.6562 -1.42188 41.2188 -1.42188
Q24.6562 -1.42188 15.125 8.70312
Q5.60938 18.8438 5.60938 36.375
Q5.60938 53.9531 15.125 64.0781
Q24.6562 74.2188 41.2188 74.2188
Q47.75 74.2188 53.5312 72.4844
Q59.3281 70.75 64.4062 67.2812" id="BitstreamVeraSans-Roman-43"/>
    </defs>
    <g transform="translate(18.632 79.9675)scale(0.08 -0.08)">
     <use xlink:href="#BitstreamVeraSans-Roman-43"/>
     <use x="69.82421875" xlink:href="#BitstreamVeraSans-Roman-6f"/>
     <use x="131.005859375" xlink:href="#BitstreamVeraSans-Roman-6f"/>
     <use x="192.1875" xlink:href="#BitstreamVeraSans-Roman-70"/>
     <use x="255.6640625" xlink:href="#BitstreamVeraSans-Roman-65"/>
     <use x="317.1875" xlink:href="#BitstreamVeraSans-Roman-72"/>
     <use x="358.30078125" xlink:href="#BitstreamVeraSans-Roman-61"/>
     <use x="419.580078125" xlink:href="#BitstreamVeraSans-Roman-74"/>
     <use x="458.7890625" xlink:href="#BitstreamVeraSans-Roman-6f"/>
     <use x="519.970703125" xlink:href="#BitstreamVeraSans-Roman-72"/>
    </g>
   </g>
   <g id="text_14">
    <!-- Strategy population dynamics based on average payoffs -->
    <defs>
     <path d="
M45.4062 27.9844
Q45.4062 37.75 41.375 43.1094
Q37.3594 48.4844 30.0781 48.4844
Q22.8594 48.4844 18.8281 43.1094
Q14.7969 37.75 14.7969 27.9844
Q14.7969 18.2656 18.8281 12.8906
Q22.8594 7.51562 30.0781 7.51562
Q37.3594 7.51562 41.375 12.8906
Q45.4062 18.2656 45.4062 27.9844
M54.3906 6.78125
Q54.3906 -7.17188 48.1875 -13.9844
Q42 -20.7969 29.2031 -20.7969
Q24.4688 -20.7969 20.2656 -20.0938
Q16.0625 -19.3906 12.1094 -17.9219
L12.1094 -9.1875
Q16.0625 -11.3281 19.9219 -12.3438
Q23.7812 -13.375 27.7812 -13.375
Q36.625 -13.375 41.0156 -8.76562
Q45.4062 -4.15625 45.4062 5.17188
L45.4062 9.625
Q42.625 4.78125 38.2812 2.39062
Q33.9375 0 27.875 0
Q17.8281 0 11.6719 7.65625
Q5.51562 15.3281 5.51562 27.9844
Q5.51562 40.6719 11.6719 48.3281
Q17.8281 56 27.875 56
Q33.9375 56 38.2812 53.6094
Q42.625 51.2188 45.4062 46.3906
L45.4062 54.6875
L54.3906 54.6875
z
" id="BitstreamVeraSans-Roman-67"/>
     <path d="
M53.5156 70.5156
L53.5156 60.8906
Q47.9062 63.5781 42.9219 64.8906
Q37.9375 66.2188 33.2969 66.2188
Q25.25 66.2188 20.875 63.0938
Q16.5 59.9688 16.5 54.2031
Q16.5 49.3594 19.4062 46.8906
Q22.3125 44.4375 30.4219 42.9219
L36.375 41.7031
Q47.4062 39.5938 52.6562 34.2969
Q57.9062 29 57.9062 20.125
Q57.9062 9.51562 50.7969 4.04688
Q43.7031 -1.42188 29.9844 -1.42188
Q24.8125 -1.42188 18.9688 -0.25
Q13.1406 0.921875 6.89062 3.21875
L6.89062 13.375
Q12.8906 10.0156 18.6562 8.29688
Q24.4219 6.59375 29.9844 6.59375
Q38.4219 6.59375 43.0156 9.90625
Q47.6094 13.2344 47.6094 19.3906
Q47.6094 24.75 44.3125 27.7812
Q41.0156 30.8125 33.5 32.3281
L27.4844 33.5
Q16.4531 35.6875 11.5156 40.375
Q6.59375 45.0625 6.59375 53.4219
Q6.59375 63.0938 13.4062 68.6562
Q20.2188 74.2188 32.1719 74.2188
Q37.3125 74.2188 42.625 73.2812
Q47.9531 72.3594 53.5156 70.5156" id="BitstreamVeraSans-Roman-53"/>
     <path d="
M48.6875 27.2969
Q48.6875 37.2031 44.6094 42.8438
Q40.5312 48.4844 33.4062 48.4844
Q26.2656 48.4844 22.1875 42.8438
Q18.1094 37.2031 18.1094 27.2969
Q18.1094 17.3906 22.1875 11.75
Q26.2656 6.10938 33.4062 6.10938
Q40.5312 6.10938 44.6094 11.75
Q48.6875 17.3906 48.6875 27.2969
M18.1094 46.3906
Q20.9531 51.2656 25.2656 53.625
Q29.5938 56 35.5938 56
Q45.5625 56 51.7812 48.0938
Q58.0156 40.1875 58.0156 27.2969
Q58.0156 14.4062 51.7812 6.48438
Q45.5625 -1.42188 35.5938 -1.42188
Q29.5938 -1.42188 25.2656 0.953125
Q20.9531 3.32812 18.1094 8.20312
L18.1094 0
L9.07812 0
L9.07812 75.9844
L18.1094 75.9844
z
" id="BitstreamVeraSans-Roman-62"/>
     <path d="
M32.1719 -5.07812
Q28.375 -14.8438 24.75 -17.8125
Q21.1406 -20.7969 15.0938 -20.7969
L7.90625 -20.7969
L7.90625 -13.2812
L13.1875 -13.2812
Q16.8906 -13.2812 18.9375 -11.5156
Q21 -9.76562 23.4844 -3.21875
L25.0938 0.875
L2.98438 54.6875
L12.5 54.6875
L29.5938 11.9219
L46.6875 54.6875
L56.2031 54.6875
z
" id="BitstreamVeraSans-Roman-79"/>
    </defs>
    <g transform="translate(91.474875 38.2)scale(0.144 -0.144)">
     <use xlink:href="#BitstreamVeraSans-Roman-53"/>
     <use x="63.4765625" xlink:href="#BitstreamVeraSans-Roman-74"/>
     <use x="102.685546875" xlink:href="#BitstreamVeraSans-Roman-72"/>
     <use x="143.798828125" xlink:href="#BitstreamVeraSans-Roman-61"/>
     <use x="205.078125" xlink:href="#BitstreamVeraSans-Roman-74"/>
     <use x="244.287109375" xlink:href="#BitstreamVeraSans-Roman-65"/>
     <use x="305.810546875" xlink:href="#BitstreamVeraSans-Roman-67"/>
     <use x="369.287109375" xlink:href="#BitstreamVeraSans-Roman-79"/>
     <use x="428.466796875" xlink:href="#BitstreamVeraSans-Roman-20"/>
     <use x="460.25390625" xlink:href="#BitstreamVeraSans-Roman-70"/>
     <use x="523.73046875" xlink:href="#BitstreamVeraSans-Roman-6f"/>
     <use x="584.912109375" xlink:href="#BitstreamVeraSans-Roman-70"/>
     <use x="648.388671875" xlink:href="#BitstreamVeraSans-Roman-75"/>
     <use x="711.767578125" xlink:href="#BitstreamVeraSans-Roman-6c"/>
     <use x="739.55078125" xlink:href="#BitstreamVeraSans-Roman-61"/>
     <use x="800.830078125" xlink:href="#BitstreamVeraSans-Roman-74"/>
     <use x="840.0390625" xlink:href="#BitstreamVeraSans-Roman-69"/>
     <use x="867.822265625" xlink:href="#BitstreamVeraSans-Roman-6f"/>
     <use x="929.00390625" xlink:href="#BitstreamVeraSans-Roman-6e"/>
     <use x="992.3828125" xlink:href="#BitstreamVeraSans-Roman-20"/>
     <use x="1024.16992188" xlink:href="#BitstreamVeraSans-Roman-64"/>
     <use x="1087.64648438" xlink:href="#BitstreamVeraSans-Roman-79"/>
     <use x="1146.82617188" xlink:href="#BitstreamVeraSans-Roman-6e"/>
     <use x="1210.20507812" xlink:href="#BitstreamVeraSans-Roman-61"/>
     <use x="1271.484375" xlink:href="#BitstreamVeraSans-Roman-6d"/>
     <use x="1368.89648438" xlink:href="#BitstreamVeraSans-Roman-69"/>
     <use x="1396.6796875" xlink:href="#BitstreamVeraSans-Roman-63"/>
     <use x="1451.66015625" xlink:href="#BitstreamVeraSans-Roman-73"/>
     <use x="1503.75976562" xlink:href="#BitstreamVeraSans-Roman-20"/>
     <use x="1535.546875" xlink:href="#BitstreamVeraSans-Roman-62"/>
     <use x="1599.0234375" xlink:href="#BitstreamVeraSans-Roman-61"/>
     <use x="1660.30273438" xlink:href="#BitstreamVeraSans-Roman-73"/>
     <use x="1712.40234375" xlink:href="#BitstreamVeraSans-Roman-65"/>
     <use x="1773.92578125" xlink:href="#BitstreamVeraSans-Roman-64"/>
     <use x="1837.40234375" xlink:href="#BitstreamVeraSans-Roman-20"/>
     <use x="1869.18945312" xlink:href="#BitstreamVeraSans-Roman-6f"/>
     <use x="1930.37109375" xlink:href="#BitstreamVeraSans-Roman-6e"/>
     <use x="1993.75" xlink:href="#BitstreamVeraSans-Roman-20"/>
     <use x="2025.53710938" xlink:href="#BitstreamVeraSans-Roman-61"/>
     <use x="2086.81640625" xlink:href="#BitstreamVeraSans-Roman-76"/>
     <use x="2145.99609375" xlink:href="#BitstreamVeraSans-Roman-65"/>
     <use x="2207.51953125" xlink:href="#BitstreamVeraSans-Roman-72"/>
     <use x="2248.6328125" xlink:href="#BitstreamVeraSans-Roman-61"/>
     <use x="2309.91210938" xlink:href="#BitstreamVeraSans-Roman-67"/>
     <use x="2373.38867188" xlink:href="#BitstreamVeraSans-Roman-65"/>
     <use x="2434.91210938" xlink:href="#BitstreamVeraSans-Roman-20"/>
     <use x="2466.69921875" xlink:href="#BitstreamVeraSans-Roman-70"/>
     <use x="2530.17578125" xlink:href="#BitstreamVeraSans-Roman-61"/>
     <use x="2591.45507812" xlink:href="#BitstreamVeraSans-Roman-79"/>
     <use x="2650.63476562" xlink:href="#BitstreamVeraSans-Roman-6f"/>
     <use x="2711.81640625" xlink:href="#BitstreamVeraSans-Roman-66"/>
     <use x="2747.02148438" xlink:href="#BitstreamVeraSans-Roman-66"/>
     <use x="2782.2265625" xlink:href="#BitstreamVeraSans-Roman-73"/>
    </g>
   </g>
  </g>
  <g id="axes_2">
   <g id="patch_7">
    <path d="
M72 43.2
L518.4 43.2" style="fill:none;stroke:#000000;stroke-linecap:square;stroke-linejoin:miter;"/>
   </g>
   <g id="patch_8">
    <path d="
M518.4 388.8
L518.4 43.2" style="fill:none;stroke:#000000;stroke-linecap:square;stroke-linejoin:miter;"/>
   </g>
   <g id="patch_9">
    <path d="
M72 388.8
L518.4 388.8" style="fill:none;stroke:#000000;stroke-linecap:square;stroke-linejoin:miter;"/>
   </g>
   <g id="patch_10">
    <path d="
M72 388.8
L72 43.2" style="fill:none;stroke:#000000;stroke-linecap:square;stroke-linejoin:miter;"/>
   </g>
   <g id="matplotlib.axis_3">
    <g id="ytick_6">
     <g id="line2d_18">
      <g>
       <use style="stroke:#000000;stroke-width:0.5;" x="518.4" xlink:href="#mcb0005524f" y="388.8"/>
      </g>
     </g>
     <g id="text_15">
      <!-- 0.0 -->
      <defs>
       <path d="
M10.6875 12.4062
L21 12.4062
L21 0
L10.6875 0
z
" id="BitstreamVeraSans-Roman-2e"/>
      </defs>
      <g transform="translate(522.4 392.11125)scale(0.12 -0.12)">
       <use xlink:href="#BitstreamVeraSans-Roman-30"/>
       <use x="63.623046875" xlink:href="#BitstreamVeraSans-Roman-2e"/>
       <use x="95.41015625" xlink:href="#BitstreamVeraSans-Roman-30"/>
      </g>
     </g>
    </g>
    <g id="ytick_7">
     <g id="line2d_19">
      <g>
       <use style="stroke:#000000;stroke-width:0.5;" x="518.4" xlink:href="#mcb0005524f" y="319.68"/>
      </g>
     </g>
     <g id="text_16">
      <!-- 0.2 -->
      <g transform="translate(522.4 322.99125)scale(0.12 -0.12)">
       <use xlink:href="#BitstreamVeraSans-Roman-30"/>
       <use x="63.623046875" xlink:href="#BitstreamVeraSans-Roman-2e"/>
       <use x="95.41015625" xlink:href="#BitstreamVeraSans-Roman-32"/>
      </g>
     </g>
    </g>
    <g id="ytick_8">
     <g id="line2d_20">
      <g>
       <use style="stroke:#000000;stroke-width:0.5;" x="518.4" xlink:href="#mcb0005524f" y="250.56"/>
      </g>
     </g>
     <g id="text_17">
      <!-- 0.4 -->
      <defs>
       <path d="
M37.7969 64.3125
L12.8906 25.3906
L37.7969 25.3906
z

M35.2031 72.9062
L47.6094 72.9062
L47.6094 25.3906
L58.0156 25.3906
L58.0156 17.1875
L47.6094 17.1875
L47.6094 0
L37.7969 0
L37.7969 17.1875
L4.89062 17.1875
L4.89062 26.7031
z
" id="BitstreamVeraSans-Roman-34"/>
      </defs>
      <g transform="translate(522.4 253.87125)scale(0.12 -0.12)">
       <use xlink:href="#BitstreamVeraSans-Roman-30"/>
       <use x="63.623046875" xlink:href="#BitstreamVeraSans-Roman-2e"/>
       <use x="95.41015625" xlink:href="#BitstreamVeraSans-Roman-34"/>
      </g>
     </g>
    </g>
    <g id="ytick_9">
     <g id="line2d_21">
      <g>
       <use style="stroke:#000000;stroke-width:0.5;" x="518.4" xlink:href="#mcb0005524f" y="181.44"/>
      </g>
     </g>
     <g id="text_18">
      <!-- 0.6 -->
      <defs>
       <path d="
M33.0156 40.375
Q26.375 40.375 22.4844 35.8281
Q18.6094 31.2969 18.6094 23.3906
Q18.6094 15.5312 22.4844 10.9531
Q26.375 6.39062 33.0156 6.39062
Q39.6562 6.39062 43.5312 10.9531
Q47.4062 15.5312 47.4062 23.3906
Q47.4062 31.2969 43.5312 35.8281
Q39.6562 40.375 33.0156 40.375
M52.5938 71.2969
L52.5938 62.3125
Q48.875 64.0625 45.0938 64.9844
Q41.3125 65.9219 37.5938 65.9219
Q27.8281 65.9219 22.6719 59.3281
Q17.5312 52.7344 16.7969 39.4062
Q19.6719 43.6562 24.0156 45.9219
Q28.375 48.1875 33.5938 48.1875
Q44.5781 48.1875 50.9531 41.5156
Q57.3281 34.8594 57.3281 23.3906
Q57.3281 12.1562 50.6875 5.35938
Q44.0469 -1.42188 33.0156 -1.42188
Q20.3594 -1.42188 13.6719 8.26562
Q6.98438 17.9688 6.98438 36.375
Q6.98438 53.6562 15.1875 63.9375
Q23.3906 74.2188 37.2031 74.2188
Q40.9219 74.2188 44.7031 73.4844
Q48.4844 72.75 52.5938 71.2969" id="BitstreamVeraSans-Roman-36"/>
      </defs>
      <g transform="translate(522.4 184.75125)scale(0.12 -0.12)">
       <use xlink:href="#BitstreamVeraSans-Roman-30"/>
       <use x="63.623046875" xlink:href="#BitstreamVeraSans-Roman-2e"/>
       <use x="95.41015625" xlink:href="#BitstreamVeraSans-Roman-36"/>
      </g>
     </g>
    </g>
    <g id="ytick_10">
     <g id="line2d_22">
      <g>
       <use style="stroke:#000000;stroke-width:0.5;" x="518.4" xlink:href="#mcb0005524f" y="112.32"/>
      </g>
     </g>
     <g id="text_19">
      <!-- 0.8 -->
      <defs>
       <path d="
M31.7812 34.625
Q24.75 34.625 20.7188 30.8594
Q16.7031 27.0938 16.7031 20.5156
Q16.7031 13.9219 20.7188 10.1562
Q24.75 6.39062 31.7812 6.39062
Q38.8125 6.39062 42.8594 10.1719
Q46.9219 13.9688 46.9219 20.5156
Q46.9219 27.0938 42.8906 30.8594
Q38.875 34.625 31.7812 34.625
M21.9219 38.8125
Q15.5781 40.375 12.0312 44.7188
Q8.5 49.0781 8.5 55.3281
Q8.5 64.0625 14.7188 69.1406
Q20.9531 74.2188 31.7812 74.2188
Q42.6719 74.2188 48.875 69.1406
Q55.0781 64.0625 55.0781 55.3281
Q55.0781 49.0781 51.5312 44.7188
Q48 40.375 41.7031 38.8125
Q48.8281 37.1562 52.7969 32.3125
Q56.7812 27.4844 56.7812 20.5156
Q56.7812 9.90625 50.3125 4.23438
Q43.8438 -1.42188 31.7812 -1.42188
Q19.7344 -1.42188 13.25 4.23438
Q6.78125 9.90625 6.78125 20.5156
Q6.78125 27.4844 10.7812 32.3125
Q14.7969 37.1562 21.9219 38.8125
M18.3125 54.3906
Q18.3125 48.7344 21.8438 45.5625
Q25.3906 42.3906 31.7812 42.3906
Q38.1406 42.3906 41.7188 45.5625
Q45.3125 48.7344 45.3125 54.3906
Q45.3125 60.0625 41.7188 63.2344
Q38.1406 66.4062 31.7812 66.4062
Q25.3906 66.4062 21.8438 63.2344
Q18.3125 60.0625 18.3125 54.3906" id="BitstreamVeraSans-Roman-38"/>
      </defs>
      <g transform="translate(522.4 115.63125)scale(0.12 -0.12)">
       <use xlink:href="#BitstreamVeraSans-Roman-30"/>
       <use x="63.623046875" xlink:href="#BitstreamVeraSans-Roman-2e"/>
       <use x="95.41015625" xlink:href="#BitstreamVeraSans-Roman-38"/>
      </g>
     </g>
    </g>
    <g id="ytick_11">
     <g id="line2d_23">
      <g>
       <use style="stroke:#000000;stroke-width:0.5;" x="518.4" xlink:href="#mcb0005524f" y="43.2"/>
      </g>
     </g>
     <g id="text_20">
      <!-- 1.0 -->
      <g transform="translate(522.4 46.51125)scale(0.12 -0.12)">
       <use xlink:href="#BitstreamVeraSans-Roman-31"/>
       <use x="63.623046875" xlink:href="#BitstreamVeraSans-Roman-2e"/>
       <use x="95.41015625" xlink:href="#BitstreamVeraSans-Roman-30"/>
      </g>
     </g>
    </g>
   </g>
  </g>
 </g>
 <defs>
  <clipPath id="p7ff5b81e1d">
   <rect height="345.6" width="446.4" x="72.0" y="43.2"/>
  </clipPath>
 </defs>
</svg>
