<?xml version="1.0" encoding="utf-8" standalone="no"?>
<!DOCTYPE svg PUBLIC "-//W3C//DTD SVG 1.1//EN"
  "http://www.w3.org/Graphics/SVG/1.1/DTD/svg11.dtd">
<!-- Created with matplotlib (http://matplotlib.org/) -->
<svg height="345pt" version="1.1" viewBox="0 0 460 345" width="460pt" xmlns="http://www.w3.org/2000/svg" xmlns:xlink="http://www.w3.org/1999/xlink">
 <defs>
  <style type="text/css">
*{stroke-linecap:butt;stroke-linejoin:round;}
  </style>
 </defs>
 <g id="figure_1">
  <g id="patch_1">
   <path d="M 0 345.6 
L 460.8 345.6 
L 460.8 0 
L 0 0 
z
" style="fill:#ffffff;"/>
  </g>
  <g id="axes_1">
   <g id="patch_2">
    <path d="M 13.32 300.328 
L 414.92 300.328 
L 414.92 13.32 
L 13.32 13.32 
z
" style="fill:#ffffff;"/>
   </g>
   <g id="PolyCollection_1">
    <path clip-path="url(#p3e95ac89bc)" d="M -54732.061818 242.9264 
L -54732.061818 300.328 
L 31.574545 300.328 
L 86.526203 300.328 
L 118.670862 300.328 
L 141.47786 300.328 
L 159.168343 300.328 
L 173.622519 300.328 
L 185.843351 300.328 
L 196.429518 300.328 
L 205.767178 300.328 
L 214.12 300.328 
L 221.676047 300.328 
L 228.574177 300.328 
L 234.919841 300.328 
L 240.795009 300.328 
L 246.264659 300.328 
L 251.381175 300.328 
L 256.187403 300.328 
L 260.718835 300.328 
L 265.005203 300.328 
L 269.071657 300.328 
L 272.939668 300.328 
L 276.627704 300.328 
L 280.151772 300.328 
L 283.525834 300.328 
L 286.76214 300.328 
L 289.871498 300.328 
L 292.863494 300.328 
L 295.746666 300.328 
L 298.528653 300.328 
L 301.216316 300.328 
L 303.815844 300.328 
L 306.332832 300.328 
L 308.772363 300.328 
L 311.13906 300.328 
L 313.437148 300.328 
L 315.670493 300.328 
L 317.842642 300.328 
L 319.95686 300.328 
L 322.016157 300.328 
L 324.023315 300.328 
L 325.980908 300.328 
L 327.891325 300.328 
L 329.756787 300.328 
L 331.579361 300.328 
L 333.360975 300.328 
L 335.10343 300.328 
L 336.808409 300.328 
L 338.477491 300.328 
L 340.112157 300.328 
L 341.713797 300.328 
L 343.283719 300.328 
L 344.823156 300.328 
L 346.333268 300.328 
L 347.815152 300.328 
L 349.269844 300.328 
L 350.698323 300.328 
L 352.101519 300.328 
L 353.48031 300.328 
L 354.835531 300.328 
L 356.167974 300.328 
L 357.478392 300.328 
L 358.767501 300.328 
L 360.035984 300.328 
L 361.28449 300.328 
L 362.513638 300.328 
L 363.72402 300.328 
L 364.9162 300.328 
L 366.090718 300.328 
L 367.248089 300.328 
L 368.388806 300.328 
L 369.513342 300.328 
L 370.62215 300.328 
L 371.715664 300.328 
L 372.794299 300.328 
L 373.858456 300.328 
L 374.908518 300.328 
L 375.944852 300.328 
L 376.967815 300.328 
L 377.977745 300.328 
L 378.974972 300.328 
L 379.959811 300.328 
L 380.932565 300.328 
L 381.893528 300.328 
L 382.842982 300.328 
L 383.7812 300.328 
L 384.708445 300.328 
L 385.624969 300.328 
L 386.531019 300.328 
L 387.42683 300.328 
L 388.312633 300.328 
L 389.188647 300.328 
L 390.055087 300.328 
L 390.91216 300.328 
L 391.760066 300.328 
L 392.599 300.328 
L 393.429149 300.328 
L 394.250695 300.328 
L 395.063815 300.328 
L 395.868679 300.328 
L 396.665455 300.328 
L 396.665455 300.328 
L 396.665455 300.328 
L 395.868679 300.328 
L 395.063815 300.328 
L 394.250695 300.328 
L 393.429149 300.328 
L 392.599 300.328 
L 391.760066 300.328 
L 390.91216 300.328 
L 390.055087 300.328 
L 389.188647 300.328 
L 388.312633 300.328 
L 387.42683 300.328 
L 386.531019 300.328 
L 385.624969 300.328 
L 384.708445 300.328 
L 383.7812 300.328 
L 382.842982 300.328 
L 381.893528 300.328 
L 380.932565 300.328 
L 379.959811 300.328 
L 378.974972 300.328 
L 377.977745 300.328 
L 376.967815 300.328 
L 375.944852 300.328 
L 374.908518 300.328 
L 373.858456 300.328 
L 372.794299 300.328 
L 371.715664 300.328 
L 370.62215 300.328 
L 369.513342 300.328 
L 368.388806 300.328 
L 367.248089 300.328 
L 366.090718 300.328 
L 364.9162 300.328 
L 363.72402 300.328 
L 362.513638 300.328 
L 361.28449 300.328 
L 360.035984 300.328 
L 358.767501 300.328 
L 357.478392 300.328 
L 356.167974 300.328 
L 354.835531 300.328 
L 353.48031 300.328 
L 352.101519 300.328 
L 350.698323 300.328 
L 349.269844 300.328 
L 347.815152 300.328 
L 346.333268 300.328 
L 344.823156 300.328 
L 343.283719 300.328 
L 341.713797 300.328 
L 340.112157 300.328 
L 338.477491 300.328 
L 336.808409 300.328 
L 335.10343 300.328 
L 333.360975 300.328 
L 331.579361 300.328 
L 329.756787 300.328 
L 327.891325 300.328 
L 325.980908 300.328 
L 324.023315 300.328 
L 322.016157 300.328 
L 319.95686 300.328 
L 317.842642 300.327999 
L 315.670493 300.327999 
L 313.437148 300.327997 
L 311.13906 300.327996 
L 308.772363 300.327992 
L 306.332832 300.327986 
L 303.815844 300.327976 
L 301.216316 300.327958 
L 298.528653 300.327927 
L 295.746666 300.327873 
L 292.863494 300.327779 
L 289.871498 300.327614 
L 286.76214 300.327326 
L 283.525834 300.326823 
L 280.151772 300.325947 
L 276.627704 300.324417 
L 272.939668 300.321747 
L 269.071657 300.317088 
L 265.005203 300.308959 
L 260.718835 300.294778 
L 256.187403 300.270047 
L 251.381175 300.226948 
L 246.264659 300.151896 
L 240.795009 300.02138 
L 234.919841 299.795223 
L 228.574177 299.404714 
L 221.676047 298.733947 
L 214.12 297.601713 
L 205.767178 295.726765 
L 196.429518 292.703966 
L 185.843351 288.100194 
L 173.622519 281.614808 
L 159.168343 273.290811 
L 141.47786 264.328752 
L 118.670862 255.530814 
L 86.526203 249.247761 
L 31.574545 245.120868 
L -54732.061818 242.9264 
z
" style="fill:#1f77b4;"/>
   </g>
   <g id="PolyCollection_2">
    <path clip-path="url(#p3e95ac89bc)" d="M -54732.061818 185.5248 
L -54732.061818 242.9264 
L 31.574545 245.120868 
L 86.526203 249.247761 
L 118.670862 255.530814 
L 141.47786 264.328752 
L 159.168343 273.290811 
L 173.622519 281.614808 
L 185.843351 288.100194 
L 196.429518 292.703966 
L 205.767178 295.726765 
L 214.12 297.601713 
L 221.676047 298.733947 
L 228.574177 299.404714 
L 234.919841 299.795223 
L 240.795009 300.02138 
L 246.264659 300.151896 
L 251.381175 300.226948 
L 256.187403 300.270047 
L 260.718835 300.294778 
L 265.005203 300.308959 
L 269.071657 300.317088 
L 272.939668 300.321747 
L 276.627704 300.324417 
L 280.151772 300.325947 
L 283.525834 300.326823 
L 286.76214 300.327326 
L 289.871498 300.327614 
L 292.863494 300.327779 
L 295.746666 300.327873 
L 298.528653 300.327927 
L 301.216316 300.327958 
L 303.815844 300.327976 
L 306.332832 300.327986 
L 308.772363 300.327992 
L 311.13906 300.327996 
L 313.437148 300.327997 
L 315.670493 300.327999 
L 317.842642 300.327999 
L 319.95686 300.328 
L 322.016157 300.328 
L 324.023315 300.328 
L 325.980908 300.328 
L 327.891325 300.328 
L 329.756787 300.328 
L 331.579361 300.328 
L 333.360975 300.328 
L 335.10343 300.328 
L 336.808409 300.328 
L 338.477491 300.328 
L 340.112157 300.328 
L 341.713797 300.328 
L 343.283719 300.328 
L 344.823156 300.328 
L 346.333268 300.328 
L 347.815152 300.328 
L 349.269844 300.328 
L 350.698323 300.328 
L 352.101519 300.328 
L 353.48031 300.328 
L 354.835531 300.328 
L 356.167974 300.328 
L 357.478392 300.328 
L 358.767501 300.328 
L 360.035984 300.328 
L 361.28449 300.328 
L 362.513638 300.328 
L 363.72402 300.328 
L 364.9162 300.328 
L 366.090718 300.328 
L 367.248089 300.328 
L 368.388806 300.328 
L 369.513342 300.328 
L 370.62215 300.328 
L 371.715664 300.328 
L 372.794299 300.328 
L 373.858456 300.328 
L 374.908518 300.328 
L 375.944852 300.328 
L 376.967815 300.328 
L 377.977745 300.328 
L 378.974972 300.328 
L 379.959811 300.328 
L 380.932565 300.328 
L 381.893528 300.328 
L 382.842982 300.328 
L 383.7812 300.328 
L 384.708445 300.328 
L 385.624969 300.328 
L 386.531019 300.328 
L 387.42683 300.328 
L 388.312633 300.328 
L 389.188647 300.328 
L 390.055087 300.328 
L 390.91216 300.328 
L 391.760066 300.328 
L 392.599 300.328 
L 393.429149 300.328 
L 394.250695 300.328 
L 395.063815 300.328 
L 395.868679 300.328 
L 396.665455 300.328 
L 396.665455 170.231999 
L 396.665455 170.231999 
L 395.868679 170.231999 
L 395.063815 170.231999 
L 394.250695 170.231999 
L 393.429149 170.231999 
L 392.599 170.231999 
L 391.760066 170.231999 
L 390.91216 170.231999 
L 390.055087 170.231999 
L 389.188647 170.231999 
L 388.312633 170.231999 
L 387.42683 170.231999 
L 386.531019 170.231999 
L 385.624969 170.231999 
L 384.708445 170.231999 
L 383.7812 170.231999 
L 382.842982 170.231999 
L 381.893528 170.231999 
L 380.932565 170.231999 
L 379.959811 170.231999 
L 378.974972 170.231999 
L 377.977745 170.231999 
L 376.967815 170.231999 
L 375.944852 170.231999 
L 374.908518 170.231999 
L 373.858456 170.231999 
L 372.794299 170.231999 
L 371.715664 170.231999 
L 370.62215 170.231999 
L 369.513342 170.231999 
L 368.388806 170.231999 
L 367.248089 170.231999 
L 366.090718 170.231999 
L 364.9162 170.231999 
L 363.72402 170.231999 
L 362.513638 170.231999 
L 361.28449 170.231999 
L 360.035984 170.231999 
L 358.767501 170.231999 
L 357.478392 170.231999 
L 356.167974 170.231999 
L 354.835531 170.231999 
L 353.48031 170.231999 
L 352.101519 170.231999 
L 350.698323 170.231999 
L 349.269844 170.231999 
L 347.815152 170.231999 
L 346.333268 170.231999 
L 344.823156 170.231999 
L 343.283719 170.231999 
L 341.713797 170.231999 
L 340.112157 170.231999 
L 338.477491 170.231999 
L 336.808409 170.231999 
L 335.10343 170.231999 
L 333.360975 170.231999 
L 331.579361 170.231999 
L 329.756787 170.231999 
L 327.891325 170.231999 
L 325.980908 170.231999 
L 324.023315 170.231999 
L 322.016157 170.231999 
L 319.95686 170.231999 
L 317.842642 170.232 
L 315.670493 170.232 
L 313.437148 170.232001 
L 311.13906 170.232003 
L 308.772363 170.232005 
L 306.332832 170.232009 
L 303.815844 170.232015 
L 301.216316 170.232025 
L 298.528653 170.232041 
L 295.746666 170.232069 
L 292.863494 170.232113 
L 289.871498 170.232179 
L 286.76214 170.232268 
L 283.525834 170.23241 
L 280.151772 170.232584 
L 276.627704 170.23291 
L 272.939668 170.233389 
L 269.071657 170.234107 
L 265.005203 170.234908 
L 260.718835 170.236045 
L 256.187403 170.237128 
L 251.381175 170.238067 
L 246.264659 170.238407 
L 240.795009 170.236403 
L 234.919841 170.229543 
L 228.574177 170.206989 
L 221.676047 170.154258 
L 214.12 170.064401 
L 205.767178 169.900855 
L 196.429518 169.662323 
L 185.843351 169.180626 
L 173.622519 168.772474 
L 159.168343 168.502003 
L 141.47786 169.045822 
L 118.670862 170.326953 
L 86.526203 174.078647 
L 31.574545 179.27438 
L -54732.061818 185.5248 
z
" style="fill:#ff7f0e;"/>
   </g>
   <g id="PolyCollection_3">
    <path clip-path="url(#p3e95ac89bc)" d="M -54732.061818 128.1232 
L -54732.061818 185.5248 
L 31.574545 179.27438 
L 86.526203 174.078647 
L 118.670862 170.326953 
L 141.47786 169.045822 
L 159.168343 168.502003 
L 173.622519 168.772474 
L 185.843351 169.180626 
L 196.429518 169.662323 
L 205.767178 169.900855 
L 214.12 170.064401 
L 221.676047 170.154258 
L 228.574177 170.206989 
L 234.919841 170.229543 
L 240.795009 170.236403 
L 246.264659 170.238407 
L 251.381175 170.238067 
L 256.187403 170.237128 
L 260.718835 170.236045 
L 265.005203 170.234908 
L 269.071657 170.234107 
L 272.939668 170.233389 
L 276.627704 170.23291 
L 280.151772 170.232584 
L 283.525834 170.23241 
L 286.76214 170.232268 
L 289.871498 170.232179 
L 292.863494 170.232113 
L 295.746666 170.232069 
L 298.528653 170.232041 
L 301.216316 170.232025 
L 303.815844 170.232015 
L 306.332832 170.232009 
L 308.772363 170.232005 
L 311.13906 170.232003 
L 313.437148 170.232001 
L 315.670493 170.232 
L 317.842642 170.232 
L 319.95686 170.231999 
L 322.016157 170.231999 
L 324.023315 170.231999 
L 325.980908 170.231999 
L 327.891325 170.231999 
L 329.756787 170.231999 
L 331.579361 170.231999 
L 333.360975 170.231999 
L 335.10343 170.231999 
L 336.808409 170.231999 
L 338.477491 170.231999 
L 340.112157 170.231999 
L 341.713797 170.231999 
L 343.283719 170.231999 
L 344.823156 170.231999 
L 346.333268 170.231999 
L 347.815152 170.231999 
L 349.269844 170.231999 
L 350.698323 170.231999 
L 352.101519 170.231999 
L 353.48031 170.231999 
L 354.835531 170.231999 
L 356.167974 170.231999 
L 357.478392 170.231999 
L 358.767501 170.231999 
L 360.035984 170.231999 
L 361.28449 170.231999 
L 362.513638 170.231999 
L 363.72402 170.231999 
L 364.9162 170.231999 
L 366.090718 170.231999 
L 367.248089 170.231999 
L 368.388806 170.231999 
L 369.513342 170.231999 
L 370.62215 170.231999 
L 371.715664 170.231999 
L 372.794299 170.231999 
L 373.858456 170.231999 
L 374.908518 170.231999 
L 375.944852 170.231999 
L 376.967815 170.231999 
L 377.977745 170.231999 
L 378.974972 170.231999 
L 379.959811 170.231999 
L 380.932565 170.231999 
L 381.893528 170.231999 
L 382.842982 170.231999 
L 383.7812 170.231999 
L 384.708445 170.231999 
L 385.624969 170.231999 
L 386.531019 170.231999 
L 387.42683 170.231999 
L 388.312633 170.231999 
L 389.188647 170.231999 
L 390.055087 170.231999 
L 390.91216 170.231999 
L 391.760066 170.231999 
L 392.599 170.231999 
L 393.429149 170.231999 
L 394.250695 170.231999 
L 395.063815 170.231999 
L 395.868679 170.231999 
L 396.665455 170.231999 
L 396.665455 63.724024 
L 396.665455 63.724024 
L 395.868679 63.724024 
L 395.063815 63.724024 
L 394.250695 63.724024 
L 393.429149 63.724024 
L 392.599 63.724024 
L 391.760066 63.724024 
L 390.91216 63.724024 
L 390.055087 63.724024 
L 389.188647 63.724024 
L 388.312633 63.724024 
L 387.42683 63.724024 
L 386.531019 63.724024 
L 385.624969 63.724024 
L 384.708445 63.724024 
L 383.7812 63.724024 
L 382.842982 63.724024 
L 381.893528 63.724024 
L 380.932565 63.724024 
L 379.959811 63.724024 
L 378.974972 63.724024 
L 377.977745 63.724024 
L 376.967815 63.724024 
L 375.944852 63.724024 
L 374.908518 63.724024 
L 373.858456 63.724024 
L 372.794299 63.724024 
L 371.715664 63.724024 
L 370.62215 63.724024 
L 369.513342 63.724024 
L 368.388806 63.724024 
L 367.248089 63.724024 
L 366.090718 63.724024 
L 364.9162 63.724024 
L 363.72402 63.724024 
L 362.513638 63.724024 
L 361.28449 63.724024 
L 360.035984 63.724024 
L 358.767501 63.724024 
L 357.478392 63.724024 
L 356.167974 63.724024 
L 354.835531 63.724024 
L 353.48031 63.724024 
L 352.101519 63.724024 
L 350.698323 63.724024 
L 349.269844 63.724024 
L 347.815152 63.724024 
L 346.333268 63.724024 
L 344.823156 63.724024 
L 343.283719 63.724024 
L 341.713797 63.724024 
L 340.112157 63.724024 
L 338.477491 63.724024 
L 336.808409 63.724024 
L 335.10343 63.724024 
L 333.360975 63.724024 
L 331.579361 63.724024 
L 329.756787 63.724024 
L 327.891325 63.724024 
L 325.980908 63.724025 
L 324.023315 63.724025 
L 322.016157 63.724025 
L 319.95686 63.724025 
L 317.842642 63.724026 
L 315.670493 63.724028 
L 313.437148 63.72403 
L 311.13906 63.724033 
L 308.772363 63.724039 
L 306.332832 63.724048 
L 303.815844 63.724064 
L 301.216316 63.724091 
L 298.528653 63.724135 
L 295.746666 63.724212 
L 292.863494 63.724338 
L 289.871498 63.724541 
L 286.76214 63.724854 
L 283.525834 63.725384 
L 280.151772 63.726247 
L 276.627704 63.727757 
L 272.939668 63.730152 
L 269.071657 63.734173 
L 265.005203 63.740366 
L 260.718835 63.751398 
L 256.187403 63.769724 
L 251.381175 63.799881 
L 246.264659 63.848696 
L 240.795009 63.9306 
L 234.919841 64.068528 
L 228.574177 64.29296 
L 221.676047 64.651015 
L 214.12 65.2639 
L 205.767178 66.254471 
L 196.429518 67.815343 
L 185.843351 70.176271 
L 173.622519 73.738222 
L 159.168343 78.802019 
L 141.47786 85.744762 
L 118.670862 93.915954 
L 86.526203 104.280927 
L 31.574545 116.095214 
L -54732.061818 128.1232 
z
" style="fill:#2ca02c;"/>
   </g>
   <g id="PolyCollection_4">
    <path clip-path="url(#p3e95ac89bc)" d="M -54732.061818 70.7216 
L -54732.061818 128.1232 
L 31.574545 116.095214 
L 86.526203 104.280927 
L 118.670862 93.915954 
L 141.47786 85.744762 
L 159.168343 78.802019 
L 173.622519 73.738222 
L 185.843351 70.176271 
L 196.429518 67.815343 
L 205.767178 66.254471 
L 214.12 65.2639 
L 221.676047 64.651015 
L 228.574177 64.29296 
L 234.919841 64.068528 
L 240.795009 63.9306 
L 246.264659 63.848696 
L 251.381175 63.799881 
L 256.187403 63.769724 
L 260.718835 63.751398 
L 265.005203 63.740366 
L 269.071657 63.734173 
L 272.939668 63.730152 
L 276.627704 63.727757 
L 280.151772 63.726247 
L 283.525834 63.725384 
L 286.76214 63.724854 
L 289.871498 63.724541 
L 292.863494 63.724338 
L 295.746666 63.724212 
L 298.528653 63.724135 
L 301.216316 63.724091 
L 303.815844 63.724064 
L 306.332832 63.724048 
L 308.772363 63.724039 
L 311.13906 63.724033 
L 313.437148 63.72403 
L 315.670493 63.724028 
L 317.842642 63.724026 
L 319.95686 63.724025 
L 322.016157 63.724025 
L 324.023315 63.724025 
L 325.980908 63.724025 
L 327.891325 63.724024 
L 329.756787 63.724024 
L 331.579361 63.724024 
L 333.360975 63.724024 
L 335.10343 63.724024 
L 336.808409 63.724024 
L 338.477491 63.724024 
L 340.112157 63.724024 
L 341.713797 63.724024 
L 343.283719 63.724024 
L 344.823156 63.724024 
L 346.333268 63.724024 
L 347.815152 63.724024 
L 349.269844 63.724024 
L 350.698323 63.724024 
L 352.101519 63.724024 
L 353.48031 63.724024 
L 354.835531 63.724024 
L 356.167974 63.724024 
L 357.478392 63.724024 
L 358.767501 63.724024 
L 360.035984 63.724024 
L 361.28449 63.724024 
L 362.513638 63.724024 
L 363.72402 63.724024 
L 364.9162 63.724024 
L 366.090718 63.724024 
L 367.248089 63.724024 
L 368.388806 63.724024 
L 369.513342 63.724024 
L 370.62215 63.724024 
L 371.715664 63.724024 
L 372.794299 63.724024 
L 373.858456 63.724024 
L 374.908518 63.724024 
L 375.944852 63.724024 
L 376.967815 63.724024 
L 377.977745 63.724024 
L 378.974972 63.724024 
L 379.959811 63.724024 
L 380.932565 63.724024 
L 381.893528 63.724024 
L 382.842982 63.724024 
L 383.7812 63.724024 
L 384.708445 63.724024 
L 385.624969 63.724024 
L 386.531019 63.724024 
L 387.42683 63.724024 
L 388.312633 63.724024 
L 389.188647 63.724024 
L 390.055087 63.724024 
L 390.91216 63.724024 
L 391.760066 63.724024 
L 392.599 63.724024 
L 393.429149 63.724024 
L 394.250695 63.724024 
L 395.063815 63.724024 
L 395.868679 63.724024 
L 396.665455 63.724024 
L 396.665455 13.32 
L 396.665455 13.32 
L 395.868679 13.32 
L 395.063815 13.32 
L 394.250695 13.32 
L 393.429149 13.32 
L 392.599 13.32 
L 391.760066 13.32 
L 390.91216 13.32 
L 390.055087 13.32 
L 389.188647 13.32 
L 388.312633 13.32 
L 387.42683 13.32 
L 386.531019 13.32 
L 385.624969 13.32 
L 384.708445 13.32 
L 383.7812 13.32 
L 382.842982 13.32 
L 381.893528 13.32 
L 380.932565 13.32 
L 379.959811 13.32 
L 378.974972 13.32 
L 377.977745 13.32 
L 376.967815 13.32 
L 375.944852 13.32 
L 374.908518 13.32 
L 373.858456 13.32 
L 372.794299 13.32 
L 371.715664 13.32 
L 370.62215 13.32 
L 369.513342 13.32 
L 368.388806 13.32 
L 367.248089 13.32 
L 366.090718 13.32 
L 364.9162 13.32 
L 363.72402 13.32 
L 362.513638 13.32 
L 361.28449 13.32 
L 360.035984 13.32 
L 358.767501 13.32 
L 357.478392 13.32 
L 356.167974 13.32 
L 354.835531 13.32 
L 353.48031 13.32 
L 352.101519 13.32 
L 350.698323 13.32 
L 349.269844 13.32 
L 347.815152 13.32 
L 346.333268 13.32 
L 344.823156 13.32 
L 343.283719 13.32 
L 341.713797 13.32 
L 340.112157 13.32 
L 338.477491 13.32 
L 336.808409 13.32 
L 335.10343 13.32 
L 333.360975 13.32 
L 331.579361 13.32 
L 329.756787 13.32 
L 327.891325 13.32 
L 325.980908 13.32 
L 324.023315 13.32 
L 322.016157 13.320001 
L 319.95686 13.320001 
L 317.842642 13.320002 
L 315.670493 13.320003 
L 313.437148 13.320006 
L 311.13906 13.320009 
L 308.772363 13.320016 
L 306.332832 13.320026 
L 303.815844 13.320043 
L 301.216316 13.320071 
L 298.528653 13.320119 
L 295.746666 13.320201 
L 292.863494 13.320337 
L 289.871498 13.320555 
L 286.76214 13.3209 
L 283.525834 13.32148 
L 280.151772 13.322443 
L 276.627704 13.324104 
L 272.939668 13.326804 
L 269.071657 13.331207 
L 265.005203 13.338162 
L 260.718835 13.350351 
L 256.187403 13.370909 
L 251.381175 13.40541 
L 246.264659 13.460818 
L 240.795009 13.553035 
L 234.919841 13.708261 
L 228.574177 13.970528 
L 221.676047 14.382642 
L 214.12 15.073667 
L 205.767178 16.218043 
L 196.429518 17.97894 
L 185.843351 20.657392 
L 173.622519 24.661943 
L 159.168343 30.092022 
L 141.47786 36.883898 
L 118.670862 44.506999 
L 86.526203 52.767443 
L 31.574545 62.05115 
L -54732.061818 70.7216 
z
" style="fill:#d62728;"/>
   </g>
   <g id="PolyCollection_5">
    <path clip-path="url(#p3e95ac89bc)" d="M -54732.061818 13.32 
L -54732.061818 70.7216 
L 31.574545 62.05115 
L 86.526203 52.767443 
L 118.670862 44.506999 
L 141.47786 36.883898 
L 159.168343 30.092022 
L 173.622519 24.661943 
L 185.843351 20.657392 
L 196.429518 17.97894 
L 205.767178 16.218043 
L 214.12 15.073667 
L 221.676047 14.382642 
L 228.574177 13.970528 
L 234.919841 13.708261 
L 240.795009 13.553035 
L 246.264659 13.460818 
L 251.381175 13.40541 
L 256.187403 13.370909 
L 260.718835 13.350351 
L 265.005203 13.338162 
L 269.071657 13.331207 
L 272.939668 13.326804 
L 276.627704 13.324104 
L 280.151772 13.322443 
L 283.525834 13.32148 
L 286.76214 13.3209 
L 289.871498 13.320555 
L 292.863494 13.320337 
L 295.746666 13.320201 
L 298.528653 13.320119 
L 301.216316 13.320071 
L 303.815844 13.320043 
L 306.332832 13.320026 
L 308.772363 13.320016 
L 311.13906 13.320009 
L 313.437148 13.320006 
L 315.670493 13.320003 
L 317.842642 13.320002 
L 319.95686 13.320001 
L 322.016157 13.320001 
L 324.023315 13.32 
L 325.980908 13.32 
L 327.891325 13.32 
L 329.756787 13.32 
L 331.579361 13.32 
L 333.360975 13.32 
L 335.10343 13.32 
L 336.808409 13.32 
L 338.477491 13.32 
L 340.112157 13.32 
L 341.713797 13.32 
L 343.283719 13.32 
L 344.823156 13.32 
L 346.333268 13.32 
L 347.815152 13.32 
L 349.269844 13.32 
L 350.698323 13.32 
L 352.101519 13.32 
L 353.48031 13.32 
L 354.835531 13.32 
L 356.167974 13.32 
L 357.478392 13.32 
L 358.767501 13.32 
L 360.035984 13.32 
L 361.28449 13.32 
L 362.513638 13.32 
L 363.72402 13.32 
L 364.9162 13.32 
L 366.090718 13.32 
L 367.248089 13.32 
L 368.388806 13.32 
L 369.513342 13.32 
L 370.62215 13.32 
L 371.715664 13.32 
L 372.794299 13.32 
L 373.858456 13.32 
L 374.908518 13.32 
L 375.944852 13.32 
L 376.967815 13.32 
L 377.977745 13.32 
L 378.974972 13.32 
L 379.959811 13.32 
L 380.932565 13.32 
L 381.893528 13.32 
L 382.842982 13.32 
L 383.7812 13.32 
L 384.708445 13.32 
L 385.624969 13.32 
L 386.531019 13.32 
L 387.42683 13.32 
L 388.312633 13.32 
L 389.188647 13.32 
L 390.055087 13.32 
L 390.91216 13.32 
L 391.760066 13.32 
L 392.599 13.32 
L 393.429149 13.32 
L 394.250695 13.32 
L 395.063815 13.32 
L 395.868679 13.32 
L 396.665455 13.32 
L 396.665455 13.32 
L 396.665455 13.32 
L 395.868679 13.32 
L 395.063815 13.32 
L 394.250695 13.32 
L 393.429149 13.32 
L 392.599 13.32 
L 391.760066 13.32 
L 390.91216 13.32 
L 390.055087 13.32 
L 389.188647 13.32 
L 388.312633 13.32 
L 387.42683 13.32 
L 386.531019 13.32 
L 385.624969 13.32 
L 384.708445 13.32 
L 383.7812 13.32 
L 382.842982 13.32 
L 381.893528 13.32 
L 380.932565 13.32 
L 379.959811 13.32 
L 378.974972 13.32 
L 377.977745 13.32 
L 376.967815 13.32 
L 375.944852 13.32 
L 374.908518 13.32 
L 373.858456 13.32 
L 372.794299 13.32 
L 371.715664 13.32 
L 370.62215 13.32 
L 369.513342 13.32 
L 368.388806 13.32 
L 367.248089 13.32 
L 366.090718 13.32 
L 364.9162 13.32 
L 363.72402 13.32 
L 362.513638 13.32 
L 361.28449 13.32 
L 360.035984 13.32 
L 358.767501 13.32 
L 357.478392 13.32 
L 356.167974 13.32 
L 354.835531 13.32 
L 353.48031 13.32 
L 352.101519 13.32 
L 350.698323 13.32 
L 349.269844 13.32 
L 347.815152 13.32 
L 346.333268 13.32 
L 344.823156 13.32 
L 343.283719 13.32 
L 341.713797 13.32 
L 340.112157 13.32 
L 338.477491 13.32 
L 336.808409 13.32 
L 335.10343 13.32 
L 333.360975 13.32 
L 331.579361 13.32 
L 329.756787 13.32 
L 327.891325 13.32 
L 325.980908 13.32 
L 324.023315 13.32 
L 322.016157 13.32 
L 319.95686 13.32 
L 317.842642 13.32 
L 315.670493 13.32 
L 313.437148 13.32 
L 311.13906 13.32 
L 308.772363 13.32 
L 306.332832 13.32 
L 303.815844 13.32 
L 301.216316 13.32 
L 298.528653 13.32 
L 295.746666 13.32 
L 292.863494 13.32 
L 289.871498 13.32 
L 286.76214 13.32 
L 283.525834 13.32 
L 280.151772 13.32 
L 276.627704 13.32 
L 272.939668 13.32 
L 269.071657 13.32 
L 265.005203 13.32 
L 260.718835 13.32 
L 256.187403 13.32 
L 251.381175 13.32 
L 246.264659 13.32 
L 240.795009 13.32 
L 234.919841 13.32 
L 228.574177 13.32 
L 221.676047 13.32 
L 214.12 13.32 
L 205.767178 13.32 
L 196.429518 13.32 
L 185.843351 13.32 
L 173.622519 13.32 
L 159.168343 13.32 
L 141.47786 13.32 
L 118.670862 13.32 
L 86.526203 13.32 
L 31.574545 13.32 
L -54732.061818 13.32 
z
" style="fill:#9467bd;"/>
   </g>
   <g id="matplotlib.axis_1">
    <g id="xtick_1">
     <g id="line2d_1">
      <defs>
       <path d="M 0 0 
L 0 3.5 
" id="ma851a8f1fa" style="stroke:#000000;stroke-width:0.8;"/>
      </defs>
      <g>
       <use style="stroke:#000000;stroke-width:0.8;" x="31.574545" xlink:href="#ma851a8f1fa" y="300.328"/>
      </g>
     </g>
     <g id="text_1">
      <!-- ${10^{0}}$ -->
      <defs>
       <path d="M 12.40625 8.296875 
L 28.515625 8.296875 
L 28.515625 63.921875 
L 10.984375 60.40625 
L 10.984375 69.390625 
L 28.421875 72.90625 
L 38.28125 72.90625 
L 38.28125 8.296875 
L 54.390625 8.296875 
L 54.390625 0 
L 12.40625 0 
z
" id="DejaVuSans-31"/>
       <path d="M 31.78125 66.40625 
Q 24.171875 66.40625 20.328125 58.90625 
Q 16.5 51.421875 16.5 36.375 
Q 16.5 21.390625 20.328125 13.890625 
Q 24.171875 6.390625 31.78125 6.390625 
Q 39.453125 6.390625 43.28125 13.890625 
Q 47.125 21.390625 47.125 36.375 
Q 47.125 51.421875 43.28125 58.90625 
Q 39.453125 66.40625 31.78125 66.40625 
M 31.78125 74.21875 
Q 44.046875 74.21875 50.515625 64.515625 
Q 56.984375 54.828125 56.984375 36.375 
Q 56.984375 17.96875 50.515625 8.265625 
Q 44.046875 -1.421875 31.78125 -1.421875 
Q 19.53125 -1.421875 13.0625 8.265625 
Q 6.59375 17.96875 6.59375 36.375 
Q 6.59375 54.828125 13.0625 64.515625 
Q 19.53125 74.21875 31.78125 74.21875 
" id="DejaVuSans-30"/>
      </defs>
      <g transform="translate(22.774545 314.926437)scale(0.1 -0.1)">
       <use transform="translate(0 0.765625)" xlink:href="#DejaVuSans-31"/>
       <use transform="translate(63.623047 0.765625)" xlink:href="#DejaVuSans-30"/>
       <use transform="translate(128.203125 39.046875)scale(0.7)" xlink:href="#DejaVuSans-30"/>
      </g>
     </g>
    </g>
    <g id="xtick_2">
     <g id="line2d_2">
      <g>
       <use style="stroke:#000000;stroke-width:0.8;" x="214.12" xlink:href="#ma851a8f1fa" y="300.328"/>
      </g>
     </g>
     <g id="text_2">
      <!-- ${10^{1}}$ -->
      <g transform="translate(205.32 314.926437)scale(0.1 -0.1)">
       <use transform="translate(0 0.684375)" xlink:href="#DejaVuSans-31"/>
       <use transform="translate(63.623047 0.684375)" xlink:href="#DejaVuSans-30"/>
       <use transform="translate(128.203125 38.965625)scale(0.7)" xlink:href="#DejaVuSans-31"/>
      </g>
     </g>
    </g>
    <g id="xtick_3">
     <g id="line2d_3">
      <g>
       <use style="stroke:#000000;stroke-width:0.8;" x="396.665455" xlink:href="#ma851a8f1fa" y="300.328"/>
      </g>
     </g>
     <g id="text_3">
      <!-- ${10^{2}}$ -->
      <defs>
       <path d="M 19.1875 8.296875 
L 53.609375 8.296875 
L 53.609375 0 
L 7.328125 0 
L 7.328125 8.296875 
Q 12.9375 14.109375 22.625 23.890625 
Q 32.328125 33.6875 34.8125 36.53125 
Q 39.546875 41.84375 41.421875 45.53125 
Q 43.3125 49.21875 43.3125 52.78125 
Q 43.3125 58.59375 39.234375 62.25 
Q 35.15625 65.921875 28.609375 65.921875 
Q 23.96875 65.921875 18.8125 64.3125 
Q 13.671875 62.703125 7.8125 59.421875 
L 7.8125 69.390625 
Q 13.765625 71.78125 18.9375 73 
Q 24.125 74.21875 28.421875 74.21875 
Q 39.75 74.21875 46.484375 68.546875 
Q 53.21875 62.890625 53.21875 53.421875 
Q 53.21875 48.921875 51.53125 44.890625 
Q 49.859375 40.875 45.40625 35.40625 
Q 44.1875 33.984375 37.640625 27.21875 
Q 31.109375 20.453125 19.1875 8.296875 
" id="DejaVuSans-32"/>
      </defs>
      <g transform="translate(387.865455 314.926437)scale(0.1 -0.1)">
       <use transform="translate(0 0.765625)" xlink:href="#DejaVuSans-31"/>
       <use transform="translate(63.623047 0.765625)" xlink:href="#DejaVuSans-30"/>
       <use transform="translate(128.203125 39.046875)scale(0.7)" xlink:href="#DejaVuSans-32"/>
      </g>
     </g>
    </g>
    <g id="xtick_4">
     <g id="line2d_4">
      <defs>
       <path d="M 0 0 
L 0 2 
" id="m74abd48b80" style="stroke:#000000;stroke-width:0.6;"/>
      </defs>
      <g>
       <use style="stroke:#000000;stroke-width:0.6;" x="13.884063" xlink:href="#m74abd48b80" y="300.328"/>
      </g>
     </g>
    </g>
    <g id="xtick_5">
     <g id="line2d_5">
      <g>
       <use style="stroke:#000000;stroke-width:0.6;" x="23.221724" xlink:href="#m74abd48b80" y="300.328"/>
      </g>
     </g>
    </g>
    <g id="xtick_6">
     <g id="line2d_6">
      <g>
       <use style="stroke:#000000;stroke-width:0.6;" x="86.526203" xlink:href="#m74abd48b80" y="300.328"/>
      </g>
     </g>
    </g>
    <g id="xtick_7">
     <g id="line2d_7">
      <g>
       <use style="stroke:#000000;stroke-width:0.6;" x="118.670862" xlink:href="#m74abd48b80" y="300.328"/>
      </g>
     </g>
    </g>
    <g id="xtick_8">
     <g id="line2d_8">
      <g>
       <use style="stroke:#000000;stroke-width:0.6;" x="141.47786" xlink:href="#m74abd48b80" y="300.328"/>
      </g>
     </g>
    </g>
    <g id="xtick_9">
     <g id="line2d_9">
      <g>
       <use style="stroke:#000000;stroke-width:0.6;" x="159.168343" xlink:href="#m74abd48b80" y="300.328"/>
      </g>
     </g>
    </g>
    <g id="xtick_10">
     <g id="line2d_10">
      <g>
       <use style="stroke:#000000;stroke-width:0.6;" x="173.622519" xlink:href="#m74abd48b80" y="300.328"/>
      </g>
     </g>
    </g>
    <g id="xtick_11">
     <g id="line2d_11">
      <g>
       <use style="stroke:#000000;stroke-width:0.6;" x="185.843351" xlink:href="#m74abd48b80" y="300.328"/>
      </g>
     </g>
    </g>
    <g id="xtick_12">
     <g id="line2d_12">
      <g>
       <use style="stroke:#000000;stroke-width:0.6;" x="196.429518" xlink:href="#m74abd48b80" y="300.328"/>
      </g>
     </g>
    </g>
    <g id="xtick_13">
     <g id="line2d_13">
      <g>
       <use style="stroke:#000000;stroke-width:0.6;" x="205.767178" xlink:href="#m74abd48b80" y="300.328"/>
      </g>
     </g>
    </g>
    <g id="xtick_14">
     <g id="line2d_14">
      <g>
       <use style="stroke:#000000;stroke-width:0.6;" x="269.071657" xlink:href="#m74abd48b80" y="300.328"/>
      </g>
     </g>
    </g>
    <g id="xtick_15">
     <g id="line2d_15">
      <g>
       <use style="stroke:#000000;stroke-width:0.6;" x="301.216316" xlink:href="#m74abd48b80" y="300.328"/>
      </g>
     </g>
    </g>
    <g id="xtick_16">
     <g id="line2d_16">
      <g>
       <use style="stroke:#000000;stroke-width:0.6;" x="324.023315" xlink:href="#m74abd48b80" y="300.328"/>
      </g>
     </g>
    </g>
    <g id="xtick_17">
     <g id="line2d_17">
      <g>
       <use style="stroke:#000000;stroke-width:0.6;" x="341.713797" xlink:href="#m74abd48b80" y="300.328"/>
      </g>
     </g>
    </g>
    <g id="xtick_18">
     <g id="line2d_18">
      <g>
       <use style="stroke:#000000;stroke-width:0.6;" x="356.167974" xlink:href="#m74abd48b80" y="300.328"/>
      </g>
     </g>
    </g>
    <g id="xtick_19">
     <g id="line2d_19">
      <g>
       <use style="stroke:#000000;stroke-width:0.6;" x="368.388806" xlink:href="#m74abd48b80" y="300.328"/>
      </g>
     </g>
    </g>
    <g id="xtick_20">
     <g id="line2d_20">
      <g>
       <use style="stroke:#000000;stroke-width:0.6;" x="378.974972" xlink:href="#m74abd48b80" y="300.328"/>
      </g>
     </g>
    </g>
    <g id="xtick_21">
     <g id="line2d_21">
      <g>
       <use style="stroke:#000000;stroke-width:0.6;" x="388.312633" xlink:href="#m74abd48b80" y="300.328"/>
      </g>
     </g>
    </g>
    <g id="text_4">
     <!-- Turn -->
     <defs>
      <path d="M -0.296875 72.90625 
L 61.375 72.90625 
L 61.375 64.59375 
L 35.5 64.59375 
L 35.5 0 
L 25.59375 0 
L 25.59375 64.59375 
L -0.296875 64.59375 
z
" id="DejaVuSans-54"/>
      <path d="M 8.5 21.578125 
L 8.5 54.6875 
L 17.484375 54.6875 
L 17.484375 21.921875 
Q 17.484375 14.15625 20.5 10.265625 
Q 23.53125 6.390625 29.59375 6.390625 
Q 36.859375 6.390625 41.078125 11.03125 
Q 45.3125 15.671875 45.3125 23.6875 
L 45.3125 54.6875 
L 54.296875 54.6875 
L 54.296875 0 
L 45.3125 0 
L 45.3125 8.40625 
Q 42.046875 3.421875 37.71875 1 
Q 33.40625 -1.421875 27.6875 -1.421875 
Q 18.265625 -1.421875 13.375 4.4375 
Q 8.5 10.296875 8.5 21.578125 
M 31.109375 56 
z
" id="DejaVuSans-75"/>
      <path d="M 41.109375 46.296875 
Q 39.59375 47.171875 37.8125 47.578125 
Q 36.03125 48 33.890625 48 
Q 26.265625 48 22.1875 43.046875 
Q 18.109375 38.09375 18.109375 28.8125 
L 18.109375 0 
L 9.078125 0 
L 9.078125 54.6875 
L 18.109375 54.6875 
L 18.109375 46.1875 
Q 20.953125 51.171875 25.484375 53.578125 
Q 30.03125 56 36.53125 56 
Q 37.453125 56 38.578125 55.875 
Q 39.703125 55.765625 41.0625 55.515625 
z
" id="DejaVuSans-72"/>
      <path d="M 54.890625 33.015625 
L 54.890625 0 
L 45.90625 0 
L 45.90625 32.71875 
Q 45.90625 40.484375 42.875 44.328125 
Q 39.84375 48.1875 33.796875 48.1875 
Q 26.515625 48.1875 22.3125 43.546875 
Q 18.109375 38.921875 18.109375 30.90625 
L 18.109375 0 
L 9.078125 0 
L 9.078125 54.6875 
L 18.109375 54.6875 
L 18.109375 46.1875 
Q 21.34375 51.125 25.703125 53.5625 
Q 30.078125 56 35.796875 56 
Q 45.21875 56 50.046875 50.171875 
Q 54.890625 44.34375 54.890625 33.015625 
" id="DejaVuSans-6e"/>
     </defs>
     <g transform="translate(202.685625 328.604562)scale(0.1 -0.1)">
      <use xlink:href="#DejaVuSans-54"/>
      <use x="60.849609" xlink:href="#DejaVuSans-75"/>
      <use x="124.228516" xlink:href="#DejaVuSans-72"/>
      <use x="165.326172" xlink:href="#DejaVuSans-6e"/>
     </g>
    </g>
   </g>
   <g id="matplotlib.axis_2">
    <g id="ytick_1">
     <g id="line2d_22">
      <defs>
       <path d="M 0 0 
L -3.5 0 
" id="m69164e08da" style="stroke:#000000;stroke-width:0.8;"/>
      </defs>
      <g>
       <use style="stroke:#000000;stroke-width:0.8;" x="13.32" xlink:href="#m69164e08da" y="271.6272"/>
      </g>
     </g>
    </g>
    <g id="ytick_2">
     <g id="line2d_23">
      <g>
       <use style="stroke:#000000;stroke-width:0.8;" x="13.32" xlink:href="#m69164e08da" y="214.2256"/>
      </g>
     </g>
    </g>
    <g id="ytick_3">
     <g id="line2d_24">
      <g>
       <use style="stroke:#000000;stroke-width:0.8;" x="13.32" xlink:href="#m69164e08da" y="156.824"/>
      </g>
     </g>
    </g>
    <g id="ytick_4">
     <g id="line2d_25">
      <g>
       <use style="stroke:#000000;stroke-width:0.8;" x="13.32" xlink:href="#m69164e08da" y="99.4224"/>
      </g>
     </g>
    </g>
    <g id="ytick_5">
     <g id="line2d_26">
      <g>
       <use style="stroke:#000000;stroke-width:0.8;" x="13.32" xlink:href="#m69164e08da" y="42.0208"/>
      </g>
     </g>
    </g>
    <g id="text_5">
     <!-- Relative population size -->
     <defs>
      <path d="M 44.390625 34.1875 
Q 47.5625 33.109375 50.5625 29.59375 
Q 53.5625 26.078125 56.59375 19.921875 
L 66.609375 0 
L 56 0 
L 46.6875 18.703125 
Q 43.0625 26.03125 39.671875 28.421875 
Q 36.28125 30.8125 30.421875 30.8125 
L 19.671875 30.8125 
L 19.671875 0 
L 9.8125 0 
L 9.8125 72.90625 
L 32.078125 72.90625 
Q 44.578125 72.90625 50.734375 67.671875 
Q 56.890625 62.453125 56.890625 51.90625 
Q 56.890625 45.015625 53.6875 40.46875 
Q 50.484375 35.9375 44.390625 34.1875 
M 19.671875 64.796875 
L 19.671875 38.921875 
L 32.078125 38.921875 
Q 39.203125 38.921875 42.84375 42.21875 
Q 46.484375 45.515625 46.484375 51.90625 
Q 46.484375 58.296875 42.84375 61.546875 
Q 39.203125 64.796875 32.078125 64.796875 
z
" id="DejaVuSans-52"/>
      <path d="M 56.203125 29.59375 
L 56.203125 25.203125 
L 14.890625 25.203125 
Q 15.484375 15.921875 20.484375 11.0625 
Q 25.484375 6.203125 34.421875 6.203125 
Q 39.59375 6.203125 44.453125 7.46875 
Q 49.3125 8.734375 54.109375 11.28125 
L 54.109375 2.78125 
Q 49.265625 0.734375 44.1875 -0.34375 
Q 39.109375 -1.421875 33.890625 -1.421875 
Q 20.796875 -1.421875 13.15625 6.1875 
Q 5.515625 13.8125 5.515625 26.8125 
Q 5.515625 40.234375 12.765625 48.109375 
Q 20.015625 56 32.328125 56 
Q 43.359375 56 49.78125 48.890625 
Q 56.203125 41.796875 56.203125 29.59375 
M 47.21875 32.234375 
Q 47.125 39.59375 43.09375 43.984375 
Q 39.0625 48.390625 32.421875 48.390625 
Q 24.90625 48.390625 20.390625 44.140625 
Q 15.875 39.890625 15.1875 32.171875 
z
" id="DejaVuSans-65"/>
      <path d="M 9.421875 75.984375 
L 18.40625 75.984375 
L 18.40625 0 
L 9.421875 0 
z
" id="DejaVuSans-6c"/>
      <path d="M 34.28125 27.484375 
Q 23.390625 27.484375 19.1875 25 
Q 14.984375 22.515625 14.984375 16.5 
Q 14.984375 11.71875 18.140625 8.90625 
Q 21.296875 6.109375 26.703125 6.109375 
Q 34.1875 6.109375 38.703125 11.40625 
Q 43.21875 16.703125 43.21875 25.484375 
L 43.21875 27.484375 
z
M 52.203125 31.203125 
L 52.203125 0 
L 43.21875 0 
L 43.21875 8.296875 
Q 40.140625 3.328125 35.546875 0.953125 
Q 30.953125 -1.421875 24.3125 -1.421875 
Q 15.921875 -1.421875 10.953125 3.296875 
Q 6 8.015625 6 15.921875 
Q 6 25.140625 12.171875 29.828125 
Q 18.359375 34.515625 30.609375 34.515625 
L 43.21875 34.515625 
L 43.21875 35.40625 
Q 43.21875 41.609375 39.140625 45 
Q 35.0625 48.390625 27.6875 48.390625 
Q 23 48.390625 18.546875 47.265625 
Q 14.109375 46.140625 10.015625 43.890625 
L 10.015625 52.203125 
Q 14.9375 54.109375 19.578125 55.046875 
Q 24.21875 56 28.609375 56 
Q 40.484375 56 46.34375 49.84375 
Q 52.203125 43.703125 52.203125 31.203125 
" id="DejaVuSans-61"/>
      <path d="M 18.3125 70.21875 
L 18.3125 54.6875 
L 36.8125 54.6875 
L 36.8125 47.703125 
L 18.3125 47.703125 
L 18.3125 18.015625 
Q 18.3125 11.328125 20.140625 9.421875 
Q 21.96875 7.515625 27.59375 7.515625 
L 36.8125 7.515625 
L 36.8125 0 
L 27.59375 0 
Q 17.1875 0 13.234375 3.875 
Q 9.28125 7.765625 9.28125 18.015625 
L 9.28125 47.703125 
L 2.6875 47.703125 
L 2.6875 54.6875 
L 9.28125 54.6875 
L 9.28125 70.21875 
z
" id="DejaVuSans-74"/>
      <path d="M 9.421875 54.6875 
L 18.40625 54.6875 
L 18.40625 0 
L 9.421875 0 
z
M 9.421875 75.984375 
L 18.40625 75.984375 
L 18.40625 64.59375 
L 9.421875 64.59375 
z
" id="DejaVuSans-69"/>
      <path d="M 2.984375 54.6875 
L 12.5 54.6875 
L 29.59375 8.796875 
L 46.6875 54.6875 
L 56.203125 54.6875 
L 35.6875 0 
L 23.484375 0 
z
" id="DejaVuSans-76"/>
      <path id="DejaVuSans-20"/>
      <path d="M 18.109375 8.203125 
L 18.109375 -20.796875 
L 9.078125 -20.796875 
L 9.078125 54.6875 
L 18.109375 54.6875 
L 18.109375 46.390625 
Q 20.953125 51.265625 25.265625 53.625 
Q 29.59375 56 35.59375 56 
Q 45.5625 56 51.78125 48.09375 
Q 58.015625 40.1875 58.015625 27.296875 
Q 58.015625 14.40625 51.78125 6.484375 
Q 45.5625 -1.421875 35.59375 -1.421875 
Q 29.59375 -1.421875 25.265625 0.953125 
Q 20.953125 3.328125 18.109375 8.203125 
M 48.6875 27.296875 
Q 48.6875 37.203125 44.609375 42.84375 
Q 40.53125 48.484375 33.40625 48.484375 
Q 26.265625 48.484375 22.1875 42.84375 
Q 18.109375 37.203125 18.109375 27.296875 
Q 18.109375 17.390625 22.1875 11.75 
Q 26.265625 6.109375 33.40625 6.109375 
Q 40.53125 6.109375 44.609375 11.75 
Q 48.6875 17.390625 48.6875 27.296875 
" id="DejaVuSans-70"/>
      <path d="M 30.609375 48.390625 
Q 23.390625 48.390625 19.1875 42.75 
Q 14.984375 37.109375 14.984375 27.296875 
Q 14.984375 17.484375 19.15625 11.84375 
Q 23.34375 6.203125 30.609375 6.203125 
Q 37.796875 6.203125 41.984375 11.859375 
Q 46.1875 17.53125 46.1875 27.296875 
Q 46.1875 37.015625 41.984375 42.703125 
Q 37.796875 48.390625 30.609375 48.390625 
M 30.609375 56 
Q 42.328125 56 49.015625 48.375 
Q 55.71875 40.765625 55.71875 27.296875 
Q 55.71875 13.875 49.015625 6.21875 
Q 42.328125 -1.421875 30.609375 -1.421875 
Q 18.84375 -1.421875 12.171875 6.21875 
Q 5.515625 13.875 5.515625 27.296875 
Q 5.515625 40.765625 12.171875 48.375 
Q 18.84375 56 30.609375 56 
" id="DejaVuSans-6f"/>
      <path d="M 44.28125 53.078125 
L 44.28125 44.578125 
Q 40.484375 46.53125 36.375 47.5 
Q 32.28125 48.484375 27.875 48.484375 
Q 21.1875 48.484375 17.84375 46.4375 
Q 14.5 44.390625 14.5 40.28125 
Q 14.5 37.15625 16.890625 35.375 
Q 19.28125 33.59375 26.515625 31.984375 
L 29.59375 31.296875 
Q 39.15625 29.25 43.1875 25.515625 
Q 47.21875 21.78125 47.21875 15.09375 
Q 47.21875 7.46875 41.1875 3.015625 
Q 35.15625 -1.421875 24.609375 -1.421875 
Q 20.21875 -1.421875 15.453125 -0.5625 
Q 10.6875 0.296875 5.421875 2 
L 5.421875 11.28125 
Q 10.40625 8.6875 15.234375 7.390625 
Q 20.0625 6.109375 24.8125 6.109375 
Q 31.15625 6.109375 34.5625 8.28125 
Q 37.984375 10.453125 37.984375 14.40625 
Q 37.984375 18.0625 35.515625 20.015625 
Q 33.0625 21.96875 24.703125 23.78125 
L 21.578125 24.515625 
Q 13.234375 26.265625 9.515625 29.90625 
Q 5.8125 33.546875 5.8125 39.890625 
Q 5.8125 47.609375 11.28125 51.796875 
Q 16.75 56 26.8125 56 
Q 31.78125 56 36.171875 55.265625 
Q 40.578125 54.546875 44.28125 53.078125 
" id="DejaVuSans-73"/>
      <path d="M 5.515625 54.6875 
L 48.1875 54.6875 
L 48.1875 46.484375 
L 14.40625 7.171875 
L 48.1875 7.171875 
L 48.1875 0 
L 4.296875 0 
L 4.296875 8.203125 
L 38.09375 47.515625 
L 5.515625 47.515625 
z
" id="DejaVuSans-7a"/>
     </defs>
     <g transform="translate(447.518438 216.689625)rotate(-90)scale(0.1 -0.1)">
      <use xlink:href="#DejaVuSans-52"/>
      <use x="69.419922" xlink:href="#DejaVuSans-65"/>
      <use x="130.943359" xlink:href="#DejaVuSans-6c"/>
      <use x="158.726562" xlink:href="#DejaVuSans-61"/>
      <use x="220.005859" xlink:href="#DejaVuSans-74"/>
      <use x="259.214844" xlink:href="#DejaVuSans-69"/>
      <use x="286.998047" xlink:href="#DejaVuSans-76"/>
      <use x="346.177734" xlink:href="#DejaVuSans-65"/>
      <use x="407.701172" xlink:href="#DejaVuSans-20"/>
      <use x="439.488281" xlink:href="#DejaVuSans-70"/>
      <use x="502.964844" xlink:href="#DejaVuSans-6f"/>
      <use x="564.146484" xlink:href="#DejaVuSans-70"/>
      <use x="627.623047" xlink:href="#DejaVuSans-75"/>
      <use x="691.001953" xlink:href="#DejaVuSans-6c"/>
      <use x="718.785156" xlink:href="#DejaVuSans-61"/>
      <use x="780.064453" xlink:href="#DejaVuSans-74"/>
      <use x="819.273438" xlink:href="#DejaVuSans-69"/>
      <use x="847.056641" xlink:href="#DejaVuSans-6f"/>
      <use x="908.238281" xlink:href="#DejaVuSans-6e"/>
      <use x="971.617188" xlink:href="#DejaVuSans-20"/>
      <use x="1003.404297" xlink:href="#DejaVuSans-73"/>
      <use x="1055.503906" xlink:href="#DejaVuSans-69"/>
      <use x="1083.287109" xlink:href="#DejaVuSans-7a"/>
      <use x="1135.777344" xlink:href="#DejaVuSans-65"/>
     </g>
    </g>
   </g>
   <g id="patch_3">
    <path d="M 13.32 300.328 
L 13.32 13.32 
" style="fill:none;stroke:#000000;stroke-linecap:square;stroke-linejoin:miter;stroke-width:0.8;"/>
   </g>
   <g id="patch_4">
    <path d="M 414.92 300.328 
L 414.92 13.32 
" style="fill:none;stroke:#000000;stroke-linecap:square;stroke-linejoin:miter;stroke-width:0.8;"/>
   </g>
   <g id="patch_5">
    <path d="M 13.32 300.328 
L 414.92 300.328 
" style="fill:none;stroke:#000000;stroke-linecap:square;stroke-linejoin:miter;stroke-width:0.8;"/>
   </g>
   <g id="patch_6">
    <path d="M 13.32 13.32 
L 414.92 13.32 
" style="fill:none;stroke:#000000;stroke-linecap:square;stroke-linejoin:miter;stroke-width:0.8;"/>
   </g>
   <g id="text_6">
    <!-- Defector -->
    <defs>
     <path d="M 19.671875 64.796875 
L 19.671875 8.109375 
L 31.59375 8.109375 
Q 46.6875 8.109375 53.6875 14.9375 
Q 60.6875 21.78125 60.6875 36.53125 
Q 60.6875 51.171875 53.6875 57.984375 
Q 46.6875 64.796875 31.59375 64.796875 
z
M 9.8125 72.90625 
L 30.078125 72.90625 
Q 51.265625 72.90625 61.171875 64.09375 
Q 71.09375 55.28125 71.09375 36.53125 
Q 71.09375 17.671875 61.125 8.828125 
Q 51.171875 0 30.078125 0 
L 9.8125 0 
z
" id="DejaVuSans-44"/>
     <path d="M 37.109375 75.984375 
L 37.109375 68.5 
L 28.515625 68.5 
Q 23.6875 68.5 21.796875 66.546875 
Q 19.921875 64.59375 19.921875 59.515625 
L 19.921875 54.6875 
L 34.71875 54.6875 
L 34.71875 47.703125 
L 19.921875 47.703125 
L 19.921875 0 
L 10.890625 0 
L 10.890625 47.703125 
L 2.296875 47.703125 
L 2.296875 54.6875 
L 10.890625 54.6875 
L 10.890625 58.5 
Q 10.890625 67.625 15.140625 71.796875 
Q 19.390625 75.984375 28.609375 75.984375 
z
" id="DejaVuSans-66"/>
     <path d="M 48.78125 52.59375 
L 48.78125 44.1875 
Q 44.96875 46.296875 41.140625 47.34375 
Q 37.3125 48.390625 33.40625 48.390625 
Q 24.65625 48.390625 19.8125 42.84375 
Q 14.984375 37.3125 14.984375 27.296875 
Q 14.984375 17.28125 19.8125 11.734375 
Q 24.65625 6.203125 33.40625 6.203125 
Q 37.3125 6.203125 41.140625 7.25 
Q 44.96875 8.296875 48.78125 10.40625 
L 48.78125 2.09375 
Q 45.015625 0.34375 40.984375 -0.53125 
Q 36.96875 -1.421875 32.421875 -1.421875 
Q 20.0625 -1.421875 12.78125 6.34375 
Q 5.515625 14.109375 5.515625 27.296875 
Q 5.515625 40.671875 12.859375 48.328125 
Q 20.21875 56 33.015625 56 
Q 37.15625 56 41.109375 55.140625 
Q 45.0625 54.296875 48.78125 52.59375 
" id="DejaVuSans-63"/>
    </defs>
    <g transform="translate(-12.2835 273.006888)scale(0.05 -0.05)">
     <use xlink:href="#DejaVuSans-44"/>
     <use x="77.001953" xlink:href="#DejaVuSans-65"/>
     <use x="138.525391" xlink:href="#DejaVuSans-66"/>
     <use x="173.730469" xlink:href="#DejaVuSans-65"/>
     <use x="235.253906" xlink:href="#DejaVuSans-63"/>
     <use x="290.234375" xlink:href="#DejaVuSans-74"/>
     <use x="329.443359" xlink:href="#DejaVuSans-6f"/>
     <use x="390.625" xlink:href="#DejaVuSans-72"/>
    </g>
   </g>
   <g id="text_7">
    <!-- Grudger -->
    <defs>
     <path d="M 59.515625 10.40625 
L 59.515625 29.984375 
L 43.40625 29.984375 
L 43.40625 38.09375 
L 69.28125 38.09375 
L 69.28125 6.78125 
Q 63.578125 2.734375 56.6875 0.65625 
Q 49.8125 -1.421875 42 -1.421875 
Q 24.90625 -1.421875 15.25 8.5625 
Q 5.609375 18.5625 5.609375 36.375 
Q 5.609375 54.25 15.25 64.234375 
Q 24.90625 74.21875 42 74.21875 
Q 49.125 74.21875 55.546875 72.453125 
Q 61.96875 70.703125 67.390625 67.28125 
L 67.390625 56.78125 
Q 61.921875 61.421875 55.765625 63.765625 
Q 49.609375 66.109375 42.828125 66.109375 
Q 29.4375 66.109375 22.71875 58.640625 
Q 16.015625 51.171875 16.015625 36.375 
Q 16.015625 21.625 22.71875 14.15625 
Q 29.4375 6.6875 42.828125 6.6875 
Q 48.046875 6.6875 52.140625 7.59375 
Q 56.25 8.5 59.515625 10.40625 
" id="DejaVuSans-47"/>
     <path d="M 45.40625 46.390625 
L 45.40625 75.984375 
L 54.390625 75.984375 
L 54.390625 0 
L 45.40625 0 
L 45.40625 8.203125 
Q 42.578125 3.328125 38.25 0.953125 
Q 33.9375 -1.421875 27.875 -1.421875 
Q 17.96875 -1.421875 11.734375 6.484375 
Q 5.515625 14.40625 5.515625 27.296875 
Q 5.515625 40.1875 11.734375 48.09375 
Q 17.96875 56 27.875 56 
Q 33.9375 56 38.25 53.625 
Q 42.578125 51.265625 45.40625 46.390625 
M 14.796875 27.296875 
Q 14.796875 17.390625 18.875 11.75 
Q 22.953125 6.109375 30.078125 6.109375 
Q 37.203125 6.109375 41.296875 11.75 
Q 45.40625 17.390625 45.40625 27.296875 
Q 45.40625 37.203125 41.296875 42.84375 
Q 37.203125 48.484375 30.078125 48.484375 
Q 22.953125 48.484375 18.875 42.84375 
Q 14.796875 37.203125 14.796875 27.296875 
" id="DejaVuSans-64"/>
     <path d="M 45.40625 27.984375 
Q 45.40625 37.75 41.375 43.109375 
Q 37.359375 48.484375 30.078125 48.484375 
Q 22.859375 48.484375 18.828125 43.109375 
Q 14.796875 37.75 14.796875 27.984375 
Q 14.796875 18.265625 18.828125 12.890625 
Q 22.859375 7.515625 30.078125 7.515625 
Q 37.359375 7.515625 41.375 12.890625 
Q 45.40625 18.265625 45.40625 27.984375 
M 54.390625 6.78125 
Q 54.390625 -7.171875 48.1875 -13.984375 
Q 42 -20.796875 29.203125 -20.796875 
Q 24.46875 -20.796875 20.265625 -20.09375 
Q 16.0625 -19.390625 12.109375 -17.921875 
L 12.109375 -9.1875 
Q 16.0625 -11.328125 19.921875 -12.34375 
Q 23.78125 -13.375 27.78125 -13.375 
Q 36.625 -13.375 41.015625 -8.765625 
Q 45.40625 -4.15625 45.40625 5.171875 
L 45.40625 9.625 
Q 42.625 4.78125 38.28125 2.390625 
Q 33.9375 0 27.875 0 
Q 17.828125 0 11.671875 7.65625 
Q 5.515625 15.328125 5.515625 27.984375 
Q 5.515625 40.671875 11.671875 48.328125 
Q 17.828125 56 27.875 56 
Q 33.9375 56 38.28125 53.609375 
Q 42.625 51.21875 45.40625 46.390625 
L 45.40625 54.6875 
L 54.390625 54.6875 
z
" id="DejaVuSans-67"/>
    </defs>
    <g transform="translate(-11.274906 215.605287)scale(0.05 -0.05)">
     <use xlink:href="#DejaVuSans-47"/>
     <use x="77.490234" xlink:href="#DejaVuSans-72"/>
     <use x="118.603516" xlink:href="#DejaVuSans-75"/>
     <use x="181.982422" xlink:href="#DejaVuSans-64"/>
     <use x="245.458984" xlink:href="#DejaVuSans-67"/>
     <use x="308.935547" xlink:href="#DejaVuSans-65"/>
     <use x="370.458984" xlink:href="#DejaVuSans-72"/>
    </g>
   </g>
   <g id="text_8">
    <!-- Tit For Tat -->
    <defs>
     <path d="M 9.8125 72.90625 
L 51.703125 72.90625 
L 51.703125 64.59375 
L 19.671875 64.59375 
L 19.671875 43.109375 
L 48.578125 43.109375 
L 48.578125 34.8125 
L 19.671875 34.8125 
L 19.671875 0 
L 9.8125 0 
z
" id="DejaVuSans-46"/>
    </defs>
    <g transform="translate(-16.328813 158.203687)scale(0.05 -0.05)">
     <use xlink:href="#DejaVuSans-54"/>
     <use x="61.037109" xlink:href="#DejaVuSans-69"/>
     <use x="88.820312" xlink:href="#DejaVuSans-74"/>
     <use x="128.029297" xlink:href="#DejaVuSans-20"/>
     <use x="159.816406" xlink:href="#DejaVuSans-46"/>
     <use x="217.289062" xlink:href="#DejaVuSans-6f"/>
     <use x="278.470703" xlink:href="#DejaVuSans-72"/>
     <use x="319.583984" xlink:href="#DejaVuSans-20"/>
     <use x="351.371094" xlink:href="#DejaVuSans-54"/>
     <use x="412.205078" xlink:href="#DejaVuSans-61"/>
     <use x="473.484375" xlink:href="#DejaVuSans-74"/>
    </g>
   </g>
   <g id="text_9">
    <!-- Cooperator -->
    <defs>
     <path d="M 64.40625 67.28125 
L 64.40625 56.890625 
Q 59.421875 61.53125 53.78125 63.8125 
Q 48.140625 66.109375 41.796875 66.109375 
Q 29.296875 66.109375 22.65625 58.46875 
Q 16.015625 50.828125 16.015625 36.375 
Q 16.015625 21.96875 22.65625 14.328125 
Q 29.296875 6.6875 41.796875 6.6875 
Q 48.140625 6.6875 53.78125 8.984375 
Q 59.421875 11.28125 64.40625 15.921875 
L 64.40625 5.609375 
Q 59.234375 2.09375 53.4375 0.328125 
Q 47.65625 -1.421875 41.21875 -1.421875 
Q 24.65625 -1.421875 15.125 8.703125 
Q 5.609375 18.84375 5.609375 36.375 
Q 5.609375 53.953125 15.125 64.078125 
Q 24.65625 74.21875 41.21875 74.21875 
Q 47.75 74.21875 53.53125 72.484375 
Q 59.328125 70.75 64.40625 67.28125 
" id="DejaVuSans-43"/>
    </defs>
    <g transform="translate(-18.751469 100.802087)scale(0.05 -0.05)">
     <use xlink:href="#DejaVuSans-43"/>
     <use x="69.824219" xlink:href="#DejaVuSans-6f"/>
     <use x="131.005859" xlink:href="#DejaVuSans-6f"/>
     <use x="192.1875" xlink:href="#DejaVuSans-70"/>
     <use x="255.664062" xlink:href="#DejaVuSans-65"/>
     <use x="317.1875" xlink:href="#DejaVuSans-72"/>
     <use x="358.300781" xlink:href="#DejaVuSans-61"/>
     <use x="419.580078" xlink:href="#DejaVuSans-74"/>
     <use x="458.789062" xlink:href="#DejaVuSans-6f"/>
     <use x="519.970703" xlink:href="#DejaVuSans-72"/>
    </g>
   </g>
   <g id="text_10">
    <!-- Random: 0.5 -->
    <defs>
     <path d="M 52 44.1875 
Q 55.375 50.25 60.0625 53.125 
Q 64.75 56 71.09375 56 
Q 79.640625 56 84.28125 50.015625 
Q 88.921875 44.046875 88.921875 33.015625 
L 88.921875 0 
L 79.890625 0 
L 79.890625 32.71875 
Q 79.890625 40.578125 77.09375 44.375 
Q 74.3125 48.1875 68.609375 48.1875 
Q 61.625 48.1875 57.5625 43.546875 
Q 53.515625 38.921875 53.515625 30.90625 
L 53.515625 0 
L 44.484375 0 
L 44.484375 32.71875 
Q 44.484375 40.625 41.703125 44.40625 
Q 38.921875 48.1875 33.109375 48.1875 
Q 26.21875 48.1875 22.15625 43.53125 
Q 18.109375 38.875 18.109375 30.90625 
L 18.109375 0 
L 9.078125 0 
L 9.078125 54.6875 
L 18.109375 54.6875 
L 18.109375 46.1875 
Q 21.1875 51.21875 25.484375 53.609375 
Q 29.78125 56 35.6875 56 
Q 41.65625 56 45.828125 52.96875 
Q 50 49.953125 52 44.1875 
" id="DejaVuSans-6d"/>
     <path d="M 11.71875 12.40625 
L 22.015625 12.40625 
L 22.015625 0 
L 11.71875 0 
z
M 11.71875 51.703125 
L 22.015625 51.703125 
L 22.015625 39.3125 
L 11.71875 39.3125 
z
" id="DejaVuSans-3a"/>
     <path d="M 10.6875 12.40625 
L 21 12.40625 
L 21 0 
L 10.6875 0 
z
" id="DejaVuSans-2e"/>
     <path d="M 10.796875 72.90625 
L 49.515625 72.90625 
L 49.515625 64.59375 
L 19.828125 64.59375 
L 19.828125 46.734375 
Q 21.96875 47.46875 24.109375 47.828125 
Q 26.265625 48.1875 28.421875 48.1875 
Q 40.625 48.1875 47.75 41.5 
Q 54.890625 34.8125 54.890625 23.390625 
Q 54.890625 11.625 47.5625 5.09375 
Q 40.234375 -1.421875 26.90625 -1.421875 
Q 22.3125 -1.421875 17.546875 -0.640625 
Q 12.796875 0.140625 7.71875 1.703125 
L 7.71875 11.625 
Q 12.109375 9.234375 16.796875 8.0625 
Q 21.484375 6.890625 26.703125 6.890625 
Q 35.15625 6.890625 40.078125 11.328125 
Q 45.015625 15.765625 45.015625 23.390625 
Q 45.015625 31 40.078125 35.4375 
Q 35.15625 39.890625 26.703125 39.890625 
Q 22.75 39.890625 18.8125 39.015625 
Q 14.890625 38.140625 10.796875 36.28125 
z
" id="DejaVuSans-35"/>
    </defs>
    <g transform="translate(-22.730375 43.400487)scale(0.05 -0.05)">
     <use xlink:href="#DejaVuSans-52"/>
     <use x="69.451172" xlink:href="#DejaVuSans-61"/>
     <use x="130.730469" xlink:href="#DejaVuSans-6e"/>
     <use x="194.109375" xlink:href="#DejaVuSans-64"/>
     <use x="257.585938" xlink:href="#DejaVuSans-6f"/>
     <use x="318.767578" xlink:href="#DejaVuSans-6d"/>
     <use x="416.179688" xlink:href="#DejaVuSans-3a"/>
     <use x="449.871094" xlink:href="#DejaVuSans-20"/>
     <use x="481.658203" xlink:href="#DejaVuSans-30"/>
     <use x="545.28125" xlink:href="#DejaVuSans-2e"/>
     <use x="577.068359" xlink:href="#DejaVuSans-35"/>
    </g>
   </g>
  </g>
 </g>
 <defs>
  <clipPath id="p3e95ac89bc">
   <rect height="287.008" width="401.6" x="13.32" y="13.32"/>
  </clipPath>
 </defs>
</svg>
