<?xml version="1.0" encoding="utf-8" standalone="no"?>
<!DOCTYPE svg PUBLIC "-//W3C//DTD SVG 1.1//EN"
  "http://www.w3.org/Graphics/SVG/1.1/DTD/svg11.dtd">
<!-- Created with matplotlib (https://matplotlib.org/) -->
<svg height="432pt" version="1.1" viewBox="0 0 1080 432" width="1080pt" xmlns="http://www.w3.org/2000/svg" xmlns:xlink="http://www.w3.org/1999/xlink">
 <defs>
  <style type="text/css">
*{stroke-linecap:butt;stroke-linejoin:round;}
  </style>
 </defs>
 <g id="figure_1">
  <g id="patch_1">
   <path d="M 0 432 
L 1080 432 
L 1080 0 
L 0 0 
z
" style="fill:#ffffff;"/>
  </g>
  <g id="axes_1">
   <g id="patch_2">
    <path d="M 135 384.48 
L 972 384.48 
L 972 51.84 
L 135 51.84 
z
" style="fill:#ffffff;"/>
   </g>
   <g id="PathCollection_1">
    <defs>
     <path d="M 0 3.535534 
C 0.937635 3.535534 1.836992 3.163008 2.5 2.5 
C 3.163008 1.836992 3.535534 0.937635 3.535534 0 
C 3.535534 -0.937635 3.163008 -1.836992 2.5 -2.5 
C 1.836992 -3.163008 0.937635 -3.535534 0 -3.535534 
C -0.937635 -3.535534 -1.836992 -3.163008 -2.5 -2.5 
C -3.163008 -1.836992 -3.535534 -0.937635 -3.535534 0 
C -3.535534 0.937635 -3.163008 1.836992 -2.5 2.5 
C -1.836992 3.163008 -0.937635 3.535534 0 3.535534 
z
" id="m9b301eab1d" style="stroke:#000000;"/>
    </defs>
    <g clip-path="url(#pca7f778298)">
     <use style="stroke:#000000;" x="327.25695" xlink:href="#m9b301eab1d" y="366.835665"/>
    </g>
   </g>
   <g id="PathCollection_2">
    <g clip-path="url(#pca7f778298)">
     <use style="stroke:#000000;" x="377.815083" xlink:href="#m9b301eab1d" y="346.843954"/>
    </g>
   </g>
   <g id="PathCollection_3">
    <g clip-path="url(#pca7f778298)">
     <use style="stroke:#000000;" x="428.373216" xlink:href="#m9b301eab1d" y="326.852243"/>
    </g>
   </g>
   <g id="PathCollection_4">
    <g clip-path="url(#pca7f778298)">
     <use style="stroke:#000000;" x="226.140684" xlink:href="#m9b301eab1d" y="306.860532"/>
    </g>
   </g>
   <g id="PathCollection_5">
    <g clip-path="url(#pca7f778298)">
     <use style="stroke:#000000;" x="276.698817" xlink:href="#m9b301eab1d" y="286.868821"/>
    </g>
   </g>
   <g id="PathCollection_6">
    <g clip-path="url(#pca7f778298)">
     <use style="stroke:#000000;" x="175.582551" xlink:href="#m9b301eab1d" y="266.87711"/>
    </g>
   </g>
   <g id="PathCollection_7">
    <g clip-path="url(#pca7f778298)">
     <use style="stroke:#000000;" x="529.489482" xlink:href="#m9b301eab1d" y="246.885399"/>
    </g>
   </g>
   <g id="PathCollection_8">
    <g clip-path="url(#pca7f778298)">
     <use style="stroke:#000000;" x="478.931349" xlink:href="#m9b301eab1d" y="226.893688"/>
    </g>
   </g>
   <g id="PathCollection_9">
    <defs>
     <path d="M -3.535534 0 
L 3.535534 0 
M 0 3.535534 
L 0 -3.535534 
" id="m427806c8dc" style="stroke:#000000;stroke-width:1.5;"/>
    </defs>
    <g clip-path="url(#pca7f778298)">
     <use style="stroke:#000000;stroke-width:1.5;" x="580.047615" xlink:href="#m427806c8dc" y="206.901977"/>
    </g>
   </g>
   <g id="PathCollection_10">
    <g clip-path="url(#pca7f778298)">
     <use style="stroke:#000000;stroke-width:1.5;" x="630.605748" xlink:href="#m427806c8dc" y="186.910266"/>
    </g>
   </g>
   <g id="PathCollection_11">
    <g clip-path="url(#pca7f778298)">
     <use style="stroke:#000000;stroke-width:1.5;" x="681.163881" xlink:href="#m427806c8dc" y="166.918555"/>
    </g>
   </g>
   <g id="PathCollection_12">
    <g clip-path="url(#pca7f778298)">
     <use style="stroke:#000000;stroke-width:1.5;" x="731.722014" xlink:href="#m427806c8dc" y="146.926844"/>
    </g>
   </g>
   <g id="PathCollection_13">
    <g clip-path="url(#pca7f778298)">
     <use style="stroke:#000000;stroke-width:1.5;" x="782.280147" xlink:href="#m427806c8dc" y="126.935133"/>
    </g>
   </g>
   <g id="PathCollection_14">
    <g clip-path="url(#pca7f778298)">
     <use style="stroke:#000000;" x="883.396413" xlink:href="#m9b301eab1d" y="106.943422"/>
    </g>
   </g>
   <g id="PathCollection_15">
    <g clip-path="url(#pca7f778298)">
     <use style="stroke:#000000;" x="832.83828" xlink:href="#m9b301eab1d" y="86.951711"/>
    </g>
   </g>
   <g id="matplotlib.axis_1">
    <g id="xtick_1">
     <g id="line2d_1">
      <defs>
       <path d="M 0 0 
L 0 3.5 
" id="m3056f0052c" style="stroke:#000000;stroke-width:0.8;"/>
      </defs>
      <g>
       <use style="stroke:#000000;stroke-width:0.8;" x="175.582551" xlink:href="#m3056f0052c" y="384.48"/>
      </g>
     </g>
     <g id="text_1">
      <!-- First by Stein and Rapoport: 0.05: (D, D) -->
      <defs>
       <path d="M 9.8125 72.90625 
L 51.703125 72.90625 
L 51.703125 64.59375 
L 19.671875 64.59375 
L 19.671875 43.109375 
L 48.578125 43.109375 
L 48.578125 34.8125 
L 19.671875 34.8125 
L 19.671875 0 
L 9.8125 0 
z
" id="DejaVuSans-70"/>
       <path d="M 9.421875 54.6875 
L 18.40625 54.6875 
L 18.40625 0 
L 9.421875 0 
z
M 9.421875 75.984375 
L 18.40625 75.984375 
L 18.40625 64.59375 
L 9.421875 64.59375 
z
" id="DejaVuSans-105"/>
       <path d="M 41.109375 46.296875 
Q 39.59375 47.171875 37.8125 47.578125 
Q 36.03125 48 33.890625 48 
Q 26.265625 48 22.1875 43.046875 
Q 18.109375 38.09375 18.109375 28.8125 
L 18.109375 0 
L 9.078125 0 
L 9.078125 54.6875 
L 18.109375 54.6875 
L 18.109375 46.1875 
Q 20.953125 51.171875 25.484375 53.578125 
Q 30.03125 56 36.53125 56 
Q 37.453125 56 38.578125 55.875 
Q 39.703125 55.765625 41.0625 55.515625 
z
" id="DejaVuSans-114"/>
       <path d="M 44.28125 53.078125 
L 44.28125 44.578125 
Q 40.484375 46.53125 36.375 47.5 
Q 32.28125 48.484375 27.875 48.484375 
Q 21.1875 48.484375 17.84375 46.4375 
Q 14.5 44.390625 14.5 40.28125 
Q 14.5 37.15625 16.890625 35.375 
Q 19.28125 33.59375 26.515625 31.984375 
L 29.59375 31.296875 
Q 39.15625 29.25 43.1875 25.515625 
Q 47.21875 21.78125 47.21875 15.09375 
Q 47.21875 7.46875 41.1875 3.015625 
Q 35.15625 -1.421875 24.609375 -1.421875 
Q 20.21875 -1.421875 15.453125 -0.5625 
Q 10.6875 0.296875 5.421875 2 
L 5.421875 11.28125 
Q 10.40625 8.6875 15.234375 7.390625 
Q 20.0625 6.109375 24.8125 6.109375 
Q 31.15625 6.109375 34.5625 8.28125 
Q 37.984375 10.453125 37.984375 14.40625 
Q 37.984375 18.0625 35.515625 20.015625 
Q 33.0625 21.96875 24.703125 23.78125 
L 21.578125 24.515625 
Q 13.234375 26.265625 9.515625 29.90625 
Q 5.8125 33.546875 5.8125 39.890625 
Q 5.8125 47.609375 11.28125 51.796875 
Q 16.75 56 26.8125 56 
Q 31.78125 56 36.171875 55.265625 
Q 40.578125 54.546875 44.28125 53.078125 
z
" id="DejaVuSans-115"/>
       <path d="M 18.3125 70.21875 
L 18.3125 54.6875 
L 36.8125 54.6875 
L 36.8125 47.703125 
L 18.3125 47.703125 
L 18.3125 18.015625 
Q 18.3125 11.328125 20.140625 9.421875 
Q 21.96875 7.515625 27.59375 7.515625 
L 36.8125 7.515625 
L 36.8125 0 
L 27.59375 0 
Q 17.1875 0 13.234375 3.875 
Q 9.28125 7.765625 9.28125 18.015625 
L 9.28125 47.703125 
L 2.6875 47.703125 
L 2.6875 54.6875 
L 9.28125 54.6875 
L 9.28125 70.21875 
z
" id="DejaVuSans-116"/>
       <path id="DejaVuSans-32"/>
       <path d="M 48.6875 27.296875 
Q 48.6875 37.203125 44.609375 42.84375 
Q 40.53125 48.484375 33.40625 48.484375 
Q 26.265625 48.484375 22.1875 42.84375 
Q 18.109375 37.203125 18.109375 27.296875 
Q 18.109375 17.390625 22.1875 11.75 
Q 26.265625 6.109375 33.40625 6.109375 
Q 40.53125 6.109375 44.609375 11.75 
Q 48.6875 17.390625 48.6875 27.296875 
z
M 18.109375 46.390625 
Q 20.953125 51.265625 25.265625 53.625 
Q 29.59375 56 35.59375 56 
Q 45.5625 56 51.78125 48.09375 
Q 58.015625 40.1875 58.015625 27.296875 
Q 58.015625 14.40625 51.78125 6.484375 
Q 45.5625 -1.421875 35.59375 -1.421875 
Q 29.59375 -1.421875 25.265625 0.953125 
Q 20.953125 3.328125 18.109375 8.203125 
L 18.109375 0 
L 9.078125 0 
L 9.078125 75.984375 
L 18.109375 75.984375 
z
" id="DejaVuSans-98"/>
       <path d="M 32.171875 -5.078125 
Q 28.375 -14.84375 24.75 -17.8125 
Q 21.140625 -20.796875 15.09375 -20.796875 
L 7.90625 -20.796875 
L 7.90625 -13.28125 
L 13.1875 -13.28125 
Q 16.890625 -13.28125 18.9375 -11.515625 
Q 21 -9.765625 23.484375 -3.21875 
L 25.09375 0.875 
L 2.984375 54.6875 
L 12.5 54.6875 
L 29.59375 11.921875 
L 46.6875 54.6875 
L 56.203125 54.6875 
z
" id="DejaVuSans-121"/>
       <path d="M 53.515625 70.515625 
L 53.515625 60.890625 
Q 47.90625 63.578125 42.921875 64.890625 
Q 37.9375 66.21875 33.296875 66.21875 
Q 25.25 66.21875 20.875 63.09375 
Q 16.5 59.96875 16.5 54.203125 
Q 16.5 49.359375 19.40625 46.890625 
Q 22.3125 44.4375 30.421875 42.921875 
L 36.375 41.703125 
Q 47.40625 39.59375 52.65625 34.296875 
Q 57.90625 29 57.90625 20.125 
Q 57.90625 9.515625 50.796875 4.046875 
Q 43.703125 -1.421875 29.984375 -1.421875 
Q 24.8125 -1.421875 18.96875 -0.25 
Q 13.140625 0.921875 6.890625 3.21875 
L 6.890625 13.375 
Q 12.890625 10.015625 18.65625 8.296875 
Q 24.421875 6.59375 29.984375 6.59375 
Q 38.421875 6.59375 43.015625 9.90625 
Q 47.609375 13.234375 47.609375 19.390625 
Q 47.609375 24.75 44.3125 27.78125 
Q 41.015625 30.8125 33.5 32.328125 
L 27.484375 33.5 
Q 16.453125 35.6875 11.515625 40.375 
Q 6.59375 45.0625 6.59375 53.421875 
Q 6.59375 63.09375 13.40625 68.65625 
Q 20.21875 74.21875 32.171875 74.21875 
Q 37.3125 74.21875 42.625 73.28125 
Q 47.953125 72.359375 53.515625 70.515625 
z
" id="DejaVuSans-83"/>
       <path d="M 56.203125 29.59375 
L 56.203125 25.203125 
L 14.890625 25.203125 
Q 15.484375 15.921875 20.484375 11.0625 
Q 25.484375 6.203125 34.421875 6.203125 
Q 39.59375 6.203125 44.453125 7.46875 
Q 49.3125 8.734375 54.109375 11.28125 
L 54.109375 2.78125 
Q 49.265625 0.734375 44.1875 -0.34375 
Q 39.109375 -1.421875 33.890625 -1.421875 
Q 20.796875 -1.421875 13.15625 6.1875 
Q 5.515625 13.8125 5.515625 26.8125 
Q 5.515625 40.234375 12.765625 48.109375 
Q 20.015625 56 32.328125 56 
Q 43.359375 56 49.78125 48.890625 
Q 56.203125 41.796875 56.203125 29.59375 
z
M 47.21875 32.234375 
Q 47.125 39.59375 43.09375 43.984375 
Q 39.0625 48.390625 32.421875 48.390625 
Q 24.90625 48.390625 20.390625 44.140625 
Q 15.875 39.890625 15.1875 32.171875 
z
" id="DejaVuSans-101"/>
       <path d="M 54.890625 33.015625 
L 54.890625 0 
L 45.90625 0 
L 45.90625 32.71875 
Q 45.90625 40.484375 42.875 44.328125 
Q 39.84375 48.1875 33.796875 48.1875 
Q 26.515625 48.1875 22.3125 43.546875 
Q 18.109375 38.921875 18.109375 30.90625 
L 18.109375 0 
L 9.078125 0 
L 9.078125 54.6875 
L 18.109375 54.6875 
L 18.109375 46.1875 
Q 21.34375 51.125 25.703125 53.5625 
Q 30.078125 56 35.796875 56 
Q 45.21875 56 50.046875 50.171875 
Q 54.890625 44.34375 54.890625 33.015625 
z
" id="DejaVuSans-110"/>
       <path d="M 34.28125 27.484375 
Q 23.390625 27.484375 19.1875 25 
Q 14.984375 22.515625 14.984375 16.5 
Q 14.984375 11.71875 18.140625 8.90625 
Q 21.296875 6.109375 26.703125 6.109375 
Q 34.1875 6.109375 38.703125 11.40625 
Q 43.21875 16.703125 43.21875 25.484375 
L 43.21875 27.484375 
z
M 52.203125 31.203125 
L 52.203125 0 
L 43.21875 0 
L 43.21875 8.296875 
Q 40.140625 3.328125 35.546875 0.953125 
Q 30.953125 -1.421875 24.3125 -1.421875 
Q 15.921875 -1.421875 10.953125 3.296875 
Q 6 8.015625 6 15.921875 
Q 6 25.140625 12.171875 29.828125 
Q 18.359375 34.515625 30.609375 34.515625 
L 43.21875 34.515625 
L 43.21875 35.40625 
Q 43.21875 41.609375 39.140625 45 
Q 35.0625 48.390625 27.6875 48.390625 
Q 23 48.390625 18.546875 47.265625 
Q 14.109375 46.140625 10.015625 43.890625 
L 10.015625 52.203125 
Q 14.9375 54.109375 19.578125 55.046875 
Q 24.21875 56 28.609375 56 
Q 40.484375 56 46.34375 49.84375 
Q 52.203125 43.703125 52.203125 31.203125 
z
" id="DejaVuSans-97"/>
       <path d="M 45.40625 46.390625 
L 45.40625 75.984375 
L 54.390625 75.984375 
L 54.390625 0 
L 45.40625 0 
L 45.40625 8.203125 
Q 42.578125 3.328125 38.25 0.953125 
Q 33.9375 -1.421875 27.875 -1.421875 
Q 17.96875 -1.421875 11.734375 6.484375 
Q 5.515625 14.40625 5.515625 27.296875 
Q 5.515625 40.1875 11.734375 48.09375 
Q 17.96875 56 27.875 56 
Q 33.9375 56 38.25 53.625 
Q 42.578125 51.265625 45.40625 46.390625 
z
M 14.796875 27.296875 
Q 14.796875 17.390625 18.875 11.75 
Q 22.953125 6.109375 30.078125 6.109375 
Q 37.203125 6.109375 41.296875 11.75 
Q 45.40625 17.390625 45.40625 27.296875 
Q 45.40625 37.203125 41.296875 42.84375 
Q 37.203125 48.484375 30.078125 48.484375 
Q 22.953125 48.484375 18.875 42.84375 
Q 14.796875 37.203125 14.796875 27.296875 
z
" id="DejaVuSans-100"/>
       <path d="M 44.390625 34.1875 
Q 47.5625 33.109375 50.5625 29.59375 
Q 53.5625 26.078125 56.59375 19.921875 
L 66.609375 0 
L 56 0 
L 46.6875 18.703125 
Q 43.0625 26.03125 39.671875 28.421875 
Q 36.28125 30.8125 30.421875 30.8125 
L 19.671875 30.8125 
L 19.671875 0 
L 9.8125 0 
L 9.8125 72.90625 
L 32.078125 72.90625 
Q 44.578125 72.90625 50.734375 67.671875 
Q 56.890625 62.453125 56.890625 51.90625 
Q 56.890625 45.015625 53.6875 40.46875 
Q 50.484375 35.9375 44.390625 34.1875 
z
M 19.671875 64.796875 
L 19.671875 38.921875 
L 32.078125 38.921875 
Q 39.203125 38.921875 42.84375 42.21875 
Q 46.484375 45.515625 46.484375 51.90625 
Q 46.484375 58.296875 42.84375 61.546875 
Q 39.203125 64.796875 32.078125 64.796875 
z
" id="DejaVuSans-82"/>
       <path d="M 18.109375 8.203125 
L 18.109375 -20.796875 
L 9.078125 -20.796875 
L 9.078125 54.6875 
L 18.109375 54.6875 
L 18.109375 46.390625 
Q 20.953125 51.265625 25.265625 53.625 
Q 29.59375 56 35.59375 56 
Q 45.5625 56 51.78125 48.09375 
Q 58.015625 40.1875 58.015625 27.296875 
Q 58.015625 14.40625 51.78125 6.484375 
Q 45.5625 -1.421875 35.59375 -1.421875 
Q 29.59375 -1.421875 25.265625 0.953125 
Q 20.953125 3.328125 18.109375 8.203125 
z
M 48.6875 27.296875 
Q 48.6875 37.203125 44.609375 42.84375 
Q 40.53125 48.484375 33.40625 48.484375 
Q 26.265625 48.484375 22.1875 42.84375 
Q 18.109375 37.203125 18.109375 27.296875 
Q 18.109375 17.390625 22.1875 11.75 
Q 26.265625 6.109375 33.40625 6.109375 
Q 40.53125 6.109375 44.609375 11.75 
Q 48.6875 17.390625 48.6875 27.296875 
z
" id="DejaVuSans-112"/>
       <path d="M 30.609375 48.390625 
Q 23.390625 48.390625 19.1875 42.75 
Q 14.984375 37.109375 14.984375 27.296875 
Q 14.984375 17.484375 19.15625 11.84375 
Q 23.34375 6.203125 30.609375 6.203125 
Q 37.796875 6.203125 41.984375 11.859375 
Q 46.1875 17.53125 46.1875 27.296875 
Q 46.1875 37.015625 41.984375 42.703125 
Q 37.796875 48.390625 30.609375 48.390625 
z
M 30.609375 56 
Q 42.328125 56 49.015625 48.375 
Q 55.71875 40.765625 55.71875 27.296875 
Q 55.71875 13.875 49.015625 6.21875 
Q 42.328125 -1.421875 30.609375 -1.421875 
Q 18.84375 -1.421875 12.171875 6.21875 
Q 5.515625 13.875 5.515625 27.296875 
Q 5.515625 40.765625 12.171875 48.375 
Q 18.84375 56 30.609375 56 
z
" id="DejaVuSans-111"/>
       <path d="M 11.71875 12.40625 
L 22.015625 12.40625 
L 22.015625 0 
L 11.71875 0 
z
M 11.71875 51.703125 
L 22.015625 51.703125 
L 22.015625 39.3125 
L 11.71875 39.3125 
z
" id="DejaVuSans-58"/>
       <path d="M 31.78125 66.40625 
Q 24.171875 66.40625 20.328125 58.90625 
Q 16.5 51.421875 16.5 36.375 
Q 16.5 21.390625 20.328125 13.890625 
Q 24.171875 6.390625 31.78125 6.390625 
Q 39.453125 6.390625 43.28125 13.890625 
Q 47.125 21.390625 47.125 36.375 
Q 47.125 51.421875 43.28125 58.90625 
Q 39.453125 66.40625 31.78125 66.40625 
z
M 31.78125 74.21875 
Q 44.046875 74.21875 50.515625 64.515625 
Q 56.984375 54.828125 56.984375 36.375 
Q 56.984375 17.96875 50.515625 8.265625 
Q 44.046875 -1.421875 31.78125 -1.421875 
Q 19.53125 -1.421875 13.0625 8.265625 
Q 6.59375 17.96875 6.59375 36.375 
Q 6.59375 54.828125 13.0625 64.515625 
Q 19.53125 74.21875 31.78125 74.21875 
z
" id="DejaVuSans-48"/>
       <path d="M 10.6875 12.40625 
L 21 12.40625 
L 21 0 
L 10.6875 0 
z
" id="DejaVuSans-46"/>
       <path d="M 10.796875 72.90625 
L 49.515625 72.90625 
L 49.515625 64.59375 
L 19.828125 64.59375 
L 19.828125 46.734375 
Q 21.96875 47.46875 24.109375 47.828125 
Q 26.265625 48.1875 28.421875 48.1875 
Q 40.625 48.1875 47.75 41.5 
Q 54.890625 34.8125 54.890625 23.390625 
Q 54.890625 11.625 47.5625 5.09375 
Q 40.234375 -1.421875 26.90625 -1.421875 
Q 22.3125 -1.421875 17.546875 -0.640625 
Q 12.796875 0.140625 7.71875 1.703125 
L 7.71875 11.625 
Q 12.109375 9.234375 16.796875 8.0625 
Q 21.484375 6.890625 26.703125 6.890625 
Q 35.15625 6.890625 40.078125 11.328125 
Q 45.015625 15.765625 45.015625 23.390625 
Q 45.015625 31 40.078125 35.4375 
Q 35.15625 39.890625 26.703125 39.890625 
Q 22.75 39.890625 18.8125 39.015625 
Q 14.890625 38.140625 10.796875 36.28125 
z
" id="DejaVuSans-53"/>
       <path d="M 31 75.875 
Q 24.46875 64.65625 21.28125 53.65625 
Q 18.109375 42.671875 18.109375 31.390625 
Q 18.109375 20.125 21.3125 9.0625 
Q 24.515625 -2 31 -13.1875 
L 23.1875 -13.1875 
Q 15.875 -1.703125 12.234375 9.375 
Q 8.59375 20.453125 8.59375 31.390625 
Q 8.59375 42.28125 12.203125 53.3125 
Q 15.828125 64.359375 23.1875 75.875 
z
" id="DejaVuSans-40"/>
       <path d="M 19.671875 64.796875 
L 19.671875 8.109375 
L 31.59375 8.109375 
Q 46.6875 8.109375 53.6875 14.9375 
Q 60.6875 21.78125 60.6875 36.53125 
Q 60.6875 51.171875 53.6875 57.984375 
Q 46.6875 64.796875 31.59375 64.796875 
z
M 9.8125 72.90625 
L 30.078125 72.90625 
Q 51.265625 72.90625 61.171875 64.09375 
Q 71.09375 55.28125 71.09375 36.53125 
Q 71.09375 17.671875 61.125 8.828125 
Q 51.171875 0 30.078125 0 
L 9.8125 0 
z
" id="DejaVuSans-68"/>
       <path d="M 11.71875 12.40625 
L 22.015625 12.40625 
L 22.015625 4 
L 14.015625 -11.625 
L 7.71875 -11.625 
L 11.71875 4 
z
" id="DejaVuSans-44"/>
       <path d="M 8.015625 75.875 
L 15.828125 75.875 
Q 23.140625 64.359375 26.78125 53.3125 
Q 30.421875 42.28125 30.421875 31.390625 
Q 30.421875 20.453125 26.78125 9.375 
Q 23.140625 -1.703125 15.828125 -13.1875 
L 8.015625 -13.1875 
Q 14.5 -2 17.703125 9.0625 
Q 20.90625 20.125 20.90625 31.390625 
Q 20.90625 42.671875 17.703125 53.65625 
Q 14.5 64.65625 8.015625 75.875 
z
" id="DejaVuSans-41"/>
      </defs>
      <g transform="translate(178.341926 593.528437)rotate(-90)scale(0.1 -0.1)">
       <use xlink:href="#DejaVuSans-70"/>
       <use x="57.410156" xlink:href="#DejaVuSans-105"/>
       <use x="85.193359" xlink:href="#DejaVuSans-114"/>
       <use x="126.306641" xlink:href="#DejaVuSans-115"/>
       <use x="178.40625" xlink:href="#DejaVuSans-116"/>
       <use x="217.615234" xlink:href="#DejaVuSans-32"/>
       <use x="249.402344" xlink:href="#DejaVuSans-98"/>
       <use x="312.878906" xlink:href="#DejaVuSans-121"/>
       <use x="372.058594" xlink:href="#DejaVuSans-32"/>
       <use x="403.845703" xlink:href="#DejaVuSans-83"/>
       <use x="467.322266" xlink:href="#DejaVuSans-116"/>
       <use x="506.53125" xlink:href="#DejaVuSans-101"/>
       <use x="568.054688" xlink:href="#DejaVuSans-105"/>
       <use x="595.837891" xlink:href="#DejaVuSans-110"/>
       <use x="659.216797" xlink:href="#DejaVuSans-32"/>
       <use x="691.003906" xlink:href="#DejaVuSans-97"/>
       <use x="752.283203" xlink:href="#DejaVuSans-110"/>
       <use x="815.662109" xlink:href="#DejaVuSans-100"/>
       <use x="879.138672" xlink:href="#DejaVuSans-32"/>
       <use x="910.925781" xlink:href="#DejaVuSans-82"/>
       <use x="980.376953" xlink:href="#DejaVuSans-97"/>
       <use x="1041.65625" xlink:href="#DejaVuSans-112"/>
       <use x="1105.132812" xlink:href="#DejaVuSans-111"/>
       <use x="1166.314453" xlink:href="#DejaVuSans-112"/>
       <use x="1229.791016" xlink:href="#DejaVuSans-111"/>
       <use x="1290.972656" xlink:href="#DejaVuSans-114"/>
       <use x="1332.085938" xlink:href="#DejaVuSans-116"/>
       <use x="1371.294922" xlink:href="#DejaVuSans-58"/>
       <use x="1404.986328" xlink:href="#DejaVuSans-32"/>
       <use x="1436.773438" xlink:href="#DejaVuSans-48"/>
       <use x="1500.396484" xlink:href="#DejaVuSans-46"/>
       <use x="1532.183594" xlink:href="#DejaVuSans-48"/>
       <use x="1595.806641" xlink:href="#DejaVuSans-53"/>
       <use x="1659.429688" xlink:href="#DejaVuSans-58"/>
       <use x="1693.121094" xlink:href="#DejaVuSans-32"/>
       <use x="1724.908203" xlink:href="#DejaVuSans-40"/>
       <use x="1763.921875" xlink:href="#DejaVuSans-68"/>
       <use x="1840.923828" xlink:href="#DejaVuSans-44"/>
       <use x="1872.710938" xlink:href="#DejaVuSans-32"/>
       <use x="1904.498047" xlink:href="#DejaVuSans-68"/>
       <use x="1981.5" xlink:href="#DejaVuSans-41"/>
      </g>
     </g>
    </g>
    <g id="xtick_2">
     <g id="line2d_2">
      <g>
       <use style="stroke:#000000;stroke-width:0.8;" x="226.140684" xlink:href="#m3056f0052c" y="384.48"/>
      </g>
     </g>
     <g id="text_2">
      <!-- First by Grofman -->
      <defs>
       <path d="M 59.515625 10.40625 
L 59.515625 29.984375 
L 43.40625 29.984375 
L 43.40625 38.09375 
L 69.28125 38.09375 
L 69.28125 6.78125 
Q 63.578125 2.734375 56.6875 0.65625 
Q 49.8125 -1.421875 42 -1.421875 
Q 24.90625 -1.421875 15.25 8.5625 
Q 5.609375 18.5625 5.609375 36.375 
Q 5.609375 54.25 15.25 64.234375 
Q 24.90625 74.21875 42 74.21875 
Q 49.125 74.21875 55.546875 72.453125 
Q 61.96875 70.703125 67.390625 67.28125 
L 67.390625 56.78125 
Q 61.921875 61.421875 55.765625 63.765625 
Q 49.609375 66.109375 42.828125 66.109375 
Q 29.4375 66.109375 22.71875 58.640625 
Q 16.015625 51.171875 16.015625 36.375 
Q 16.015625 21.625 22.71875 14.15625 
Q 29.4375 6.6875 42.828125 6.6875 
Q 48.046875 6.6875 52.140625 7.59375 
Q 56.25 8.5 59.515625 10.40625 
z
" id="DejaVuSans-71"/>
       <path d="M 37.109375 75.984375 
L 37.109375 68.5 
L 28.515625 68.5 
Q 23.6875 68.5 21.796875 66.546875 
Q 19.921875 64.59375 19.921875 59.515625 
L 19.921875 54.6875 
L 34.71875 54.6875 
L 34.71875 47.703125 
L 19.921875 47.703125 
L 19.921875 0 
L 10.890625 0 
L 10.890625 47.703125 
L 2.296875 47.703125 
L 2.296875 54.6875 
L 10.890625 54.6875 
L 10.890625 58.5 
Q 10.890625 67.625 15.140625 71.796875 
Q 19.390625 75.984375 28.609375 75.984375 
z
" id="DejaVuSans-102"/>
       <path d="M 52 44.1875 
Q 55.375 50.25 60.0625 53.125 
Q 64.75 56 71.09375 56 
Q 79.640625 56 84.28125 50.015625 
Q 88.921875 44.046875 88.921875 33.015625 
L 88.921875 0 
L 79.890625 0 
L 79.890625 32.71875 
Q 79.890625 40.578125 77.09375 44.375 
Q 74.3125 48.1875 68.609375 48.1875 
Q 61.625 48.1875 57.5625 43.546875 
Q 53.515625 38.921875 53.515625 30.90625 
L 53.515625 0 
L 44.484375 0 
L 44.484375 32.71875 
Q 44.484375 40.625 41.703125 44.40625 
Q 38.921875 48.1875 33.109375 48.1875 
Q 26.21875 48.1875 22.15625 43.53125 
Q 18.109375 38.875 18.109375 30.90625 
L 18.109375 0 
L 9.078125 0 
L 9.078125 54.6875 
L 18.109375 54.6875 
L 18.109375 46.1875 
Q 21.1875 51.21875 25.484375 53.609375 
Q 29.78125 56 35.6875 56 
Q 41.65625 56 45.828125 52.96875 
Q 50 49.953125 52 44.1875 
z
" id="DejaVuSans-109"/>
      </defs>
      <g transform="translate(228.900059 475.564375)rotate(-90)scale(0.1 -0.1)">
       <use xlink:href="#DejaVuSans-70"/>
       <use x="57.410156" xlink:href="#DejaVuSans-105"/>
       <use x="85.193359" xlink:href="#DejaVuSans-114"/>
       <use x="126.306641" xlink:href="#DejaVuSans-115"/>
       <use x="178.40625" xlink:href="#DejaVuSans-116"/>
       <use x="217.615234" xlink:href="#DejaVuSans-32"/>
       <use x="249.402344" xlink:href="#DejaVuSans-98"/>
       <use x="312.878906" xlink:href="#DejaVuSans-121"/>
       <use x="372.058594" xlink:href="#DejaVuSans-32"/>
       <use x="403.845703" xlink:href="#DejaVuSans-71"/>
       <use x="481.335938" xlink:href="#DejaVuSans-114"/>
       <use x="522.417969" xlink:href="#DejaVuSans-111"/>
       <use x="583.599609" xlink:href="#DejaVuSans-102"/>
       <use x="618.804688" xlink:href="#DejaVuSans-109"/>
       <use x="716.216797" xlink:href="#DejaVuSans-97"/>
       <use x="777.496094" xlink:href="#DejaVuSans-110"/>
      </g>
     </g>
    </g>
    <g id="xtick_3">
     <g id="line2d_3">
      <g>
       <use style="stroke:#000000;stroke-width:0.8;" x="276.698817" xlink:href="#m3056f0052c" y="384.48"/>
      </g>
     </g>
     <g id="text_3">
      <!-- First by Shubik -->
      <defs>
       <path d="M 54.890625 33.015625 
L 54.890625 0 
L 45.90625 0 
L 45.90625 32.71875 
Q 45.90625 40.484375 42.875 44.328125 
Q 39.84375 48.1875 33.796875 48.1875 
Q 26.515625 48.1875 22.3125 43.546875 
Q 18.109375 38.921875 18.109375 30.90625 
L 18.109375 0 
L 9.078125 0 
L 9.078125 75.984375 
L 18.109375 75.984375 
L 18.109375 46.1875 
Q 21.34375 51.125 25.703125 53.5625 
Q 30.078125 56 35.796875 56 
Q 45.21875 56 50.046875 50.171875 
Q 54.890625 44.34375 54.890625 33.015625 
z
" id="DejaVuSans-104"/>
       <path d="M 8.5 21.578125 
L 8.5 54.6875 
L 17.484375 54.6875 
L 17.484375 21.921875 
Q 17.484375 14.15625 20.5 10.265625 
Q 23.53125 6.390625 29.59375 6.390625 
Q 36.859375 6.390625 41.078125 11.03125 
Q 45.3125 15.671875 45.3125 23.6875 
L 45.3125 54.6875 
L 54.296875 54.6875 
L 54.296875 0 
L 45.3125 0 
L 45.3125 8.40625 
Q 42.046875 3.421875 37.71875 1 
Q 33.40625 -1.421875 27.6875 -1.421875 
Q 18.265625 -1.421875 13.375 4.4375 
Q 8.5 10.296875 8.5 21.578125 
z
M 31.109375 56 
z
" id="DejaVuSans-117"/>
       <path d="M 9.078125 75.984375 
L 18.109375 75.984375 
L 18.109375 31.109375 
L 44.921875 54.6875 
L 56.390625 54.6875 
L 27.390625 29.109375 
L 57.625 0 
L 45.90625 0 
L 18.109375 26.703125 
L 18.109375 0 
L 9.078125 0 
z
" id="DejaVuSans-107"/>
      </defs>
      <g transform="translate(279.458192 465.803437)rotate(-90)scale(0.1 -0.1)">
       <use xlink:href="#DejaVuSans-70"/>
       <use x="57.410156" xlink:href="#DejaVuSans-105"/>
       <use x="85.193359" xlink:href="#DejaVuSans-114"/>
       <use x="126.306641" xlink:href="#DejaVuSans-115"/>
       <use x="178.40625" xlink:href="#DejaVuSans-116"/>
       <use x="217.615234" xlink:href="#DejaVuSans-32"/>
       <use x="249.402344" xlink:href="#DejaVuSans-98"/>
       <use x="312.878906" xlink:href="#DejaVuSans-121"/>
       <use x="372.058594" xlink:href="#DejaVuSans-32"/>
       <use x="403.845703" xlink:href="#DejaVuSans-83"/>
       <use x="467.322266" xlink:href="#DejaVuSans-104"/>
       <use x="530.701172" xlink:href="#DejaVuSans-117"/>
       <use x="594.080078" xlink:href="#DejaVuSans-98"/>
       <use x="657.556641" xlink:href="#DejaVuSans-105"/>
       <use x="685.339844" xlink:href="#DejaVuSans-107"/>
      </g>
     </g>
    </g>
    <g id="xtick_4">
     <g id="line2d_4">
      <g>
       <use style="stroke:#000000;stroke-width:0.8;" x="327.25695" xlink:href="#m3056f0052c" y="384.48"/>
      </g>
     </g>
     <g id="text_4">
      <!-- Tit For Tat -->
      <defs>
       <path d="M -0.296875 72.90625 
L 61.375 72.90625 
L 61.375 64.59375 
L 35.5 64.59375 
L 35.5 0 
L 25.59375 0 
L 25.59375 64.59375 
L -0.296875 64.59375 
z
" id="DejaVuSans-84"/>
      </defs>
      <g transform="translate(330.016325 442.745625)rotate(-90)scale(0.1 -0.1)">
       <use xlink:href="#DejaVuSans-84"/>
       <use x="61.037109" xlink:href="#DejaVuSans-105"/>
       <use x="88.820312" xlink:href="#DejaVuSans-116"/>
       <use x="128.029297" xlink:href="#DejaVuSans-32"/>
       <use x="159.816406" xlink:href="#DejaVuSans-70"/>
       <use x="217.289062" xlink:href="#DejaVuSans-111"/>
       <use x="278.470703" xlink:href="#DejaVuSans-114"/>
       <use x="319.583984" xlink:href="#DejaVuSans-32"/>
       <use x="351.371094" xlink:href="#DejaVuSans-84"/>
       <use x="412.205078" xlink:href="#DejaVuSans-97"/>
       <use x="473.484375" xlink:href="#DejaVuSans-116"/>
      </g>
     </g>
    </g>
    <g id="xtick_5">
     <g id="line2d_5">
      <g>
       <use style="stroke:#000000;stroke-width:0.8;" x="377.815083" xlink:href="#m3056f0052c" y="384.48"/>
      </g>
     </g>
     <g id="text_5">
      <!-- First by Tideman and Chieruzzi: (D, D) -->
      <defs>
       <path d="M 64.40625 67.28125 
L 64.40625 56.890625 
Q 59.421875 61.53125 53.78125 63.8125 
Q 48.140625 66.109375 41.796875 66.109375 
Q 29.296875 66.109375 22.65625 58.46875 
Q 16.015625 50.828125 16.015625 36.375 
Q 16.015625 21.96875 22.65625 14.328125 
Q 29.296875 6.6875 41.796875 6.6875 
Q 48.140625 6.6875 53.78125 8.984375 
Q 59.421875 11.28125 64.40625 15.921875 
L 64.40625 5.609375 
Q 59.234375 2.09375 53.4375 0.328125 
Q 47.65625 -1.421875 41.21875 -1.421875 
Q 24.65625 -1.421875 15.125 8.703125 
Q 5.609375 18.84375 5.609375 36.375 
Q 5.609375 53.953125 15.125 64.078125 
Q 24.65625 74.21875 41.21875 74.21875 
Q 47.75 74.21875 53.53125 72.484375 
Q 59.328125 70.75 64.40625 67.28125 
z
" id="DejaVuSans-67"/>
       <path d="M 5.515625 54.6875 
L 48.1875 54.6875 
L 48.1875 46.484375 
L 14.40625 7.171875 
L 48.1875 7.171875 
L 48.1875 0 
L 4.296875 0 
L 4.296875 8.203125 
L 38.09375 47.515625 
L 5.515625 47.515625 
z
" id="DejaVuSans-122"/>
      </defs>
      <g transform="translate(380.574458 582.703438)rotate(-90)scale(0.1 -0.1)">
       <use xlink:href="#DejaVuSans-70"/>
       <use x="57.410156" xlink:href="#DejaVuSans-105"/>
       <use x="85.193359" xlink:href="#DejaVuSans-114"/>
       <use x="126.306641" xlink:href="#DejaVuSans-115"/>
       <use x="178.40625" xlink:href="#DejaVuSans-116"/>
       <use x="217.615234" xlink:href="#DejaVuSans-32"/>
       <use x="249.402344" xlink:href="#DejaVuSans-98"/>
       <use x="312.878906" xlink:href="#DejaVuSans-121"/>
       <use x="372.058594" xlink:href="#DejaVuSans-32"/>
       <use x="403.845703" xlink:href="#DejaVuSans-84"/>
       <use x="464.882812" xlink:href="#DejaVuSans-105"/>
       <use x="492.666016" xlink:href="#DejaVuSans-100"/>
       <use x="556.142578" xlink:href="#DejaVuSans-101"/>
       <use x="617.666016" xlink:href="#DejaVuSans-109"/>
       <use x="715.078125" xlink:href="#DejaVuSans-97"/>
       <use x="776.357422" xlink:href="#DejaVuSans-110"/>
       <use x="839.736328" xlink:href="#DejaVuSans-32"/>
       <use x="871.523438" xlink:href="#DejaVuSans-97"/>
       <use x="932.802734" xlink:href="#DejaVuSans-110"/>
       <use x="996.181641" xlink:href="#DejaVuSans-100"/>
       <use x="1059.658203" xlink:href="#DejaVuSans-32"/>
       <use x="1091.445312" xlink:href="#DejaVuSans-67"/>
       <use x="1161.269531" xlink:href="#DejaVuSans-104"/>
       <use x="1224.648438" xlink:href="#DejaVuSans-105"/>
       <use x="1252.431641" xlink:href="#DejaVuSans-101"/>
       <use x="1313.955078" xlink:href="#DejaVuSans-114"/>
       <use x="1355.068359" xlink:href="#DejaVuSans-117"/>
       <use x="1418.447266" xlink:href="#DejaVuSans-122"/>
       <use x="1470.9375" xlink:href="#DejaVuSans-122"/>
       <use x="1523.427734" xlink:href="#DejaVuSans-105"/>
       <use x="1551.210938" xlink:href="#DejaVuSans-58"/>
       <use x="1584.902344" xlink:href="#DejaVuSans-32"/>
       <use x="1616.689453" xlink:href="#DejaVuSans-40"/>
       <use x="1655.703125" xlink:href="#DejaVuSans-68"/>
       <use x="1732.705078" xlink:href="#DejaVuSans-44"/>
       <use x="1764.492188" xlink:href="#DejaVuSans-32"/>
       <use x="1796.279297" xlink:href="#DejaVuSans-68"/>
       <use x="1873.28125" xlink:href="#DejaVuSans-41"/>
      </g>
     </g>
    </g>
    <g id="xtick_6">
     <g id="line2d_6">
      <g>
       <use style="stroke:#000000;stroke-width:0.8;" x="428.373216" xlink:href="#m3056f0052c" y="384.48"/>
      </g>
     </g>
     <g id="text_6">
      <!-- First by Nydegger -->
      <defs>
       <path d="M 9.8125 72.90625 
L 23.09375 72.90625 
L 55.421875 11.921875 
L 55.421875 72.90625 
L 64.984375 72.90625 
L 64.984375 0 
L 51.703125 0 
L 19.390625 60.984375 
L 19.390625 0 
L 9.8125 0 
z
" id="DejaVuSans-78"/>
       <path d="M 45.40625 27.984375 
Q 45.40625 37.75 41.375 43.109375 
Q 37.359375 48.484375 30.078125 48.484375 
Q 22.859375 48.484375 18.828125 43.109375 
Q 14.796875 37.75 14.796875 27.984375 
Q 14.796875 18.265625 18.828125 12.890625 
Q 22.859375 7.515625 30.078125 7.515625 
Q 37.359375 7.515625 41.375 12.890625 
Q 45.40625 18.265625 45.40625 27.984375 
z
M 54.390625 6.78125 
Q 54.390625 -7.171875 48.1875 -13.984375 
Q 42 -20.796875 29.203125 -20.796875 
Q 24.46875 -20.796875 20.265625 -20.09375 
Q 16.0625 -19.390625 12.109375 -17.921875 
L 12.109375 -9.1875 
Q 16.0625 -11.328125 19.921875 -12.34375 
Q 23.78125 -13.375 27.78125 -13.375 
Q 36.625 -13.375 41.015625 -8.765625 
Q 45.40625 -4.15625 45.40625 5.171875 
L 45.40625 9.625 
Q 42.625 4.78125 38.28125 2.390625 
Q 33.9375 0 27.875 0 
Q 17.828125 0 11.671875 7.65625 
Q 5.515625 15.328125 5.515625 27.984375 
Q 5.515625 40.671875 11.671875 48.328125 
Q 17.828125 56 27.875 56 
Q 33.9375 56 38.28125 53.609375 
Q 42.625 51.21875 45.40625 46.390625 
L 45.40625 54.6875 
L 54.390625 54.6875 
z
" id="DejaVuSans-103"/>
      </defs>
      <g transform="translate(431.132591 480.725313)rotate(-90)scale(0.1 -0.1)">
       <use xlink:href="#DejaVuSans-70"/>
       <use x="57.410156" xlink:href="#DejaVuSans-105"/>
       <use x="85.193359" xlink:href="#DejaVuSans-114"/>
       <use x="126.306641" xlink:href="#DejaVuSans-115"/>
       <use x="178.40625" xlink:href="#DejaVuSans-116"/>
       <use x="217.615234" xlink:href="#DejaVuSans-32"/>
       <use x="249.402344" xlink:href="#DejaVuSans-98"/>
       <use x="312.878906" xlink:href="#DejaVuSans-121"/>
       <use x="372.058594" xlink:href="#DejaVuSans-32"/>
       <use x="403.845703" xlink:href="#DejaVuSans-78"/>
       <use x="478.650391" xlink:href="#DejaVuSans-121"/>
       <use x="537.830078" xlink:href="#DejaVuSans-100"/>
       <use x="601.306641" xlink:href="#DejaVuSans-101"/>
       <use x="662.830078" xlink:href="#DejaVuSans-103"/>
       <use x="726.306641" xlink:href="#DejaVuSans-103"/>
       <use x="789.783203" xlink:href="#DejaVuSans-101"/>
       <use x="851.306641" xlink:href="#DejaVuSans-114"/>
      </g>
     </g>
    </g>
    <g id="xtick_7">
     <g id="line2d_7">
      <g>
       <use style="stroke:#000000;stroke-width:0.8;" x="478.931349" xlink:href="#m3056f0052c" y="384.48"/>
      </g>
     </g>
     <g id="text_7">
      <!-- First by Davis: 10 -->
      <defs>
       <path d="M 2.984375 54.6875 
L 12.5 54.6875 
L 29.59375 8.796875 
L 46.6875 54.6875 
L 56.203125 54.6875 
L 35.6875 0 
L 23.484375 0 
z
" id="DejaVuSans-118"/>
       <path d="M 12.40625 8.296875 
L 28.515625 8.296875 
L 28.515625 63.921875 
L 10.984375 60.40625 
L 10.984375 69.390625 
L 28.421875 72.90625 
L 38.28125 72.90625 
L 38.28125 8.296875 
L 54.390625 8.296875 
L 54.390625 0 
L 12.40625 0 
z
" id="DejaVuSans-49"/>
      </defs>
      <g transform="translate(481.690724 478.869063)rotate(-90)scale(0.1 -0.1)">
       <use xlink:href="#DejaVuSans-70"/>
       <use x="57.410156" xlink:href="#DejaVuSans-105"/>
       <use x="85.193359" xlink:href="#DejaVuSans-114"/>
       <use x="126.306641" xlink:href="#DejaVuSans-115"/>
       <use x="178.40625" xlink:href="#DejaVuSans-116"/>
       <use x="217.615234" xlink:href="#DejaVuSans-32"/>
       <use x="249.402344" xlink:href="#DejaVuSans-98"/>
       <use x="312.878906" xlink:href="#DejaVuSans-121"/>
       <use x="372.058594" xlink:href="#DejaVuSans-32"/>
       <use x="403.845703" xlink:href="#DejaVuSans-68"/>
       <use x="480.847656" xlink:href="#DejaVuSans-97"/>
       <use x="542.126953" xlink:href="#DejaVuSans-118"/>
       <use x="601.306641" xlink:href="#DejaVuSans-105"/>
       <use x="629.089844" xlink:href="#DejaVuSans-115"/>
       <use x="681.189453" xlink:href="#DejaVuSans-58"/>
       <use x="714.880859" xlink:href="#DejaVuSans-32"/>
       <use x="746.667969" xlink:href="#DejaVuSans-49"/>
       <use x="810.291016" xlink:href="#DejaVuSans-48"/>
      </g>
     </g>
    </g>
    <g id="xtick_8">
     <g id="line2d_8">
      <g>
       <use style="stroke:#000000;stroke-width:0.8;" x="529.489482" xlink:href="#m3056f0052c" y="384.48"/>
      </g>
     </g>
     <g id="text_8">
      <!-- Grudger -->
      <g transform="translate(532.248857 432.637812)rotate(-90)scale(0.1 -0.1)">
       <use xlink:href="#DejaVuSans-71"/>
       <use x="77.490234" xlink:href="#DejaVuSans-114"/>
       <use x="118.603516" xlink:href="#DejaVuSans-117"/>
       <use x="181.982422" xlink:href="#DejaVuSans-100"/>
       <use x="245.458984" xlink:href="#DejaVuSans-103"/>
       <use x="308.935547" xlink:href="#DejaVuSans-101"/>
       <use x="370.458984" xlink:href="#DejaVuSans-114"/>
      </g>
     </g>
    </g>
    <g id="xtick_9">
     <g id="line2d_9">
      <g>
       <use style="stroke:#000000;stroke-width:0.8;" x="580.047615" xlink:href="#m3056f0052c" y="384.48"/>
      </g>
     </g>
     <g id="text_9">
      <!-- First by Graaskamp: 0.05 -->
      <g transform="translate(582.80699 518.006562)rotate(-90)scale(0.1 -0.1)">
       <use xlink:href="#DejaVuSans-70"/>
       <use x="57.410156" xlink:href="#DejaVuSans-105"/>
       <use x="85.193359" xlink:href="#DejaVuSans-114"/>
       <use x="126.306641" xlink:href="#DejaVuSans-115"/>
       <use x="178.40625" xlink:href="#DejaVuSans-116"/>
       <use x="217.615234" xlink:href="#DejaVuSans-32"/>
       <use x="249.402344" xlink:href="#DejaVuSans-98"/>
       <use x="312.878906" xlink:href="#DejaVuSans-121"/>
       <use x="372.058594" xlink:href="#DejaVuSans-32"/>
       <use x="403.845703" xlink:href="#DejaVuSans-71"/>
       <use x="481.335938" xlink:href="#DejaVuSans-114"/>
       <use x="522.449219" xlink:href="#DejaVuSans-97"/>
       <use x="583.728516" xlink:href="#DejaVuSans-97"/>
       <use x="645.007812" xlink:href="#DejaVuSans-115"/>
       <use x="697.107422" xlink:href="#DejaVuSans-107"/>
       <use x="755.001953" xlink:href="#DejaVuSans-97"/>
       <use x="816.28125" xlink:href="#DejaVuSans-109"/>
       <use x="913.693359" xlink:href="#DejaVuSans-112"/>
       <use x="977.169922" xlink:href="#DejaVuSans-58"/>
       <use x="1010.861328" xlink:href="#DejaVuSans-32"/>
       <use x="1042.648438" xlink:href="#DejaVuSans-48"/>
       <use x="1106.271484" xlink:href="#DejaVuSans-46"/>
       <use x="1138.058594" xlink:href="#DejaVuSans-48"/>
       <use x="1201.681641" xlink:href="#DejaVuSans-53"/>
      </g>
     </g>
    </g>
    <g id="xtick_10">
     <g id="line2d_10">
      <g>
       <use style="stroke:#000000;stroke-width:0.8;" x="630.605748" xlink:href="#m3056f0052c" y="384.48"/>
      </g>
     </g>
     <g id="text_10">
      <!-- First by Downing -->
      <defs>
       <path d="M 4.203125 54.6875 
L 13.1875 54.6875 
L 24.421875 12.015625 
L 35.59375 54.6875 
L 46.1875 54.6875 
L 57.421875 12.015625 
L 68.609375 54.6875 
L 77.59375 54.6875 
L 63.28125 0 
L 52.6875 0 
L 40.921875 44.828125 
L 29.109375 0 
L 18.5 0 
z
" id="DejaVuSans-119"/>
      </defs>
      <g transform="translate(633.365123 475.66125)rotate(-90)scale(0.1 -0.1)">
       <use xlink:href="#DejaVuSans-70"/>
       <use x="57.410156" xlink:href="#DejaVuSans-105"/>
       <use x="85.193359" xlink:href="#DejaVuSans-114"/>
       <use x="126.306641" xlink:href="#DejaVuSans-115"/>
       <use x="178.40625" xlink:href="#DejaVuSans-116"/>
       <use x="217.615234" xlink:href="#DejaVuSans-32"/>
       <use x="249.402344" xlink:href="#DejaVuSans-98"/>
       <use x="312.878906" xlink:href="#DejaVuSans-121"/>
       <use x="372.058594" xlink:href="#DejaVuSans-32"/>
       <use x="403.845703" xlink:href="#DejaVuSans-68"/>
       <use x="480.847656" xlink:href="#DejaVuSans-111"/>
       <use x="542.029297" xlink:href="#DejaVuSans-119"/>
       <use x="623.816406" xlink:href="#DejaVuSans-110"/>
       <use x="687.195312" xlink:href="#DejaVuSans-105"/>
       <use x="714.978516" xlink:href="#DejaVuSans-110"/>
       <use x="778.357422" xlink:href="#DejaVuSans-103"/>
      </g>
     </g>
    </g>
    <g id="xtick_11">
     <g id="line2d_11">
      <g>
       <use style="stroke:#000000;stroke-width:0.8;" x="681.163881" xlink:href="#m3056f0052c" y="384.48"/>
      </g>
     </g>
     <g id="text_11">
      <!-- First by Feld: 1.0, 0.5, 200 -->
      <defs>
       <path d="M 9.421875 75.984375 
L 18.40625 75.984375 
L 18.40625 0 
L 9.421875 0 
z
" id="DejaVuSans-108"/>
       <path d="M 19.1875 8.296875 
L 53.609375 8.296875 
L 53.609375 0 
L 7.328125 0 
L 7.328125 8.296875 
Q 12.9375 14.109375 22.625 23.890625 
Q 32.328125 33.6875 34.8125 36.53125 
Q 39.546875 41.84375 41.421875 45.53125 
Q 43.3125 49.21875 43.3125 52.78125 
Q 43.3125 58.59375 39.234375 62.25 
Q 35.15625 65.921875 28.609375 65.921875 
Q 23.96875 65.921875 18.8125 64.3125 
Q 13.671875 62.703125 7.8125 59.421875 
L 7.8125 69.390625 
Q 13.765625 71.78125 18.9375 73 
Q 24.125 74.21875 28.421875 74.21875 
Q 39.75 74.21875 46.484375 68.546875 
Q 53.21875 62.890625 53.21875 53.421875 
Q 53.21875 48.921875 51.53125 44.890625 
Q 49.859375 40.875 45.40625 35.40625 
Q 44.1875 33.984375 37.640625 27.21875 
Q 31.109375 20.453125 19.1875 8.296875 
z
" id="DejaVuSans-50"/>
      </defs>
      <g transform="translate(683.923256 523.039375)rotate(-90)scale(0.1 -0.1)">
       <use xlink:href="#DejaVuSans-70"/>
       <use x="57.410156" xlink:href="#DejaVuSans-105"/>
       <use x="85.193359" xlink:href="#DejaVuSans-114"/>
       <use x="126.306641" xlink:href="#DejaVuSans-115"/>
       <use x="178.40625" xlink:href="#DejaVuSans-116"/>
       <use x="217.615234" xlink:href="#DejaVuSans-32"/>
       <use x="249.402344" xlink:href="#DejaVuSans-98"/>
       <use x="312.878906" xlink:href="#DejaVuSans-121"/>
       <use x="372.058594" xlink:href="#DejaVuSans-32"/>
       <use x="403.845703" xlink:href="#DejaVuSans-70"/>
       <use x="461.287109" xlink:href="#DejaVuSans-101"/>
       <use x="522.810547" xlink:href="#DejaVuSans-108"/>
       <use x="550.59375" xlink:href="#DejaVuSans-100"/>
       <use x="614.070312" xlink:href="#DejaVuSans-58"/>
       <use x="647.761719" xlink:href="#DejaVuSans-32"/>
       <use x="679.548828" xlink:href="#DejaVuSans-49"/>
       <use x="743.171875" xlink:href="#DejaVuSans-46"/>
       <use x="774.958984" xlink:href="#DejaVuSans-48"/>
       <use x="838.582031" xlink:href="#DejaVuSans-44"/>
       <use x="870.369141" xlink:href="#DejaVuSans-32"/>
       <use x="902.15625" xlink:href="#DejaVuSans-48"/>
       <use x="965.779297" xlink:href="#DejaVuSans-46"/>
       <use x="997.566406" xlink:href="#DejaVuSans-53"/>
       <use x="1061.189453" xlink:href="#DejaVuSans-44"/>
       <use x="1092.976562" xlink:href="#DejaVuSans-32"/>
       <use x="1124.763672" xlink:href="#DejaVuSans-50"/>
       <use x="1188.386719" xlink:href="#DejaVuSans-48"/>
       <use x="1252.009766" xlink:href="#DejaVuSans-48"/>
      </g>
     </g>
    </g>
    <g id="xtick_12">
     <g id="line2d_12">
      <g>
       <use style="stroke:#000000;stroke-width:0.8;" x="731.722014" xlink:href="#m3056f0052c" y="384.48"/>
      </g>
     </g>
     <g id="text_12">
      <!-- First by Joss: 0.9 -->
      <defs>
       <path d="M 9.8125 72.90625 
L 19.671875 72.90625 
L 19.671875 5.078125 
Q 19.671875 -8.109375 14.671875 -14.0625 
Q 9.671875 -20.015625 -1.421875 -20.015625 
L -5.171875 -20.015625 
L -5.171875 -11.71875 
L -2.09375 -11.71875 
Q 4.4375 -11.71875 7.125 -8.046875 
Q 9.8125 -4.390625 9.8125 5.078125 
z
" id="DejaVuSans-74"/>
       <path d="M 10.984375 1.515625 
L 10.984375 10.5 
Q 14.703125 8.734375 18.5 7.8125 
Q 22.3125 6.890625 25.984375 6.890625 
Q 35.75 6.890625 40.890625 13.453125 
Q 46.046875 20.015625 46.78125 33.40625 
Q 43.953125 29.203125 39.59375 26.953125 
Q 35.25 24.703125 29.984375 24.703125 
Q 19.046875 24.703125 12.671875 31.3125 
Q 6.296875 37.9375 6.296875 49.421875 
Q 6.296875 60.640625 12.9375 67.421875 
Q 19.578125 74.21875 30.609375 74.21875 
Q 43.265625 74.21875 49.921875 64.515625 
Q 56.59375 54.828125 56.59375 36.375 
Q 56.59375 19.140625 48.40625 8.859375 
Q 40.234375 -1.421875 26.421875 -1.421875 
Q 22.703125 -1.421875 18.890625 -0.6875 
Q 15.09375 0.046875 10.984375 1.515625 
z
M 30.609375 32.421875 
Q 37.25 32.421875 41.125 36.953125 
Q 45.015625 41.5 45.015625 49.421875 
Q 45.015625 57.28125 41.125 61.84375 
Q 37.25 66.40625 30.609375 66.40625 
Q 23.96875 66.40625 20.09375 61.84375 
Q 16.21875 57.28125 16.21875 49.421875 
Q 16.21875 41.5 20.09375 36.953125 
Q 23.96875 32.421875 30.609375 32.421875 
z
" id="DejaVuSans-57"/>
      </defs>
      <g transform="translate(734.481389 473.800313)rotate(-90)scale(0.1 -0.1)">
       <use xlink:href="#DejaVuSans-70"/>
       <use x="57.410156" xlink:href="#DejaVuSans-105"/>
       <use x="85.193359" xlink:href="#DejaVuSans-114"/>
       <use x="126.306641" xlink:href="#DejaVuSans-115"/>
       <use x="178.40625" xlink:href="#DejaVuSans-116"/>
       <use x="217.615234" xlink:href="#DejaVuSans-32"/>
       <use x="249.402344" xlink:href="#DejaVuSans-98"/>
       <use x="312.878906" xlink:href="#DejaVuSans-121"/>
       <use x="372.058594" xlink:href="#DejaVuSans-32"/>
       <use x="403.845703" xlink:href="#DejaVuSans-74"/>
       <use x="433.337891" xlink:href="#DejaVuSans-111"/>
       <use x="494.519531" xlink:href="#DejaVuSans-115"/>
       <use x="546.619141" xlink:href="#DejaVuSans-115"/>
       <use x="598.71875" xlink:href="#DejaVuSans-58"/>
       <use x="632.410156" xlink:href="#DejaVuSans-32"/>
       <use x="664.197266" xlink:href="#DejaVuSans-48"/>
       <use x="727.820312" xlink:href="#DejaVuSans-46"/>
       <use x="759.607422" xlink:href="#DejaVuSans-57"/>
      </g>
     </g>
    </g>
    <g id="xtick_13">
     <g id="line2d_13">
      <g>
       <use style="stroke:#000000;stroke-width:0.8;" x="782.280147" xlink:href="#m3056f0052c" y="384.48"/>
      </g>
     </g>
     <g id="text_13">
      <!-- First by Tullock -->
      <defs>
       <path d="M 48.78125 52.59375 
L 48.78125 44.1875 
Q 44.96875 46.296875 41.140625 47.34375 
Q 37.3125 48.390625 33.40625 48.390625 
Q 24.65625 48.390625 19.8125 42.84375 
Q 14.984375 37.3125 14.984375 27.296875 
Q 14.984375 17.28125 19.8125 11.734375 
Q 24.65625 6.203125 33.40625 6.203125 
Q 37.3125 6.203125 41.140625 7.25 
Q 44.96875 8.296875 48.78125 10.40625 
L 48.78125 2.09375 
Q 45.015625 0.34375 40.984375 -0.53125 
Q 36.96875 -1.421875 32.421875 -1.421875 
Q 20.0625 -1.421875 12.78125 6.34375 
Q 5.515625 14.109375 5.515625 27.296875 
Q 5.515625 40.671875 12.859375 48.328125 
Q 20.21875 56 33.015625 56 
Q 37.15625 56 41.109375 55.140625 
Q 45.0625 54.296875 48.78125 52.59375 
z
" id="DejaVuSans-99"/>
      </defs>
      <g transform="translate(785.039522 467.24875)rotate(-90)scale(0.1 -0.1)">
       <use xlink:href="#DejaVuSans-70"/>
       <use x="57.410156" xlink:href="#DejaVuSans-105"/>
       <use x="85.193359" xlink:href="#DejaVuSans-114"/>
       <use x="126.306641" xlink:href="#DejaVuSans-115"/>
       <use x="178.40625" xlink:href="#DejaVuSans-116"/>
       <use x="217.615234" xlink:href="#DejaVuSans-32"/>
       <use x="249.402344" xlink:href="#DejaVuSans-98"/>
       <use x="312.878906" xlink:href="#DejaVuSans-121"/>
       <use x="372.058594" xlink:href="#DejaVuSans-32"/>
       <use x="403.845703" xlink:href="#DejaVuSans-84"/>
       <use x="464.695312" xlink:href="#DejaVuSans-117"/>
       <use x="528.074219" xlink:href="#DejaVuSans-108"/>
       <use x="555.857422" xlink:href="#DejaVuSans-108"/>
       <use x="583.640625" xlink:href="#DejaVuSans-111"/>
       <use x="644.822266" xlink:href="#DejaVuSans-99"/>
       <use x="699.802734" xlink:href="#DejaVuSans-107"/>
      </g>
     </g>
    </g>
    <g id="xtick_14">
     <g id="line2d_14">
      <g>
       <use style="stroke:#000000;stroke-width:0.8;" x="832.83828" xlink:href="#m3056f0052c" y="384.48"/>
      </g>
     </g>
     <g id="text_14">
      <!-- Random: 0.5 -->
      <g transform="translate(835.597655 455.54875)rotate(-90)scale(0.1 -0.1)">
       <use xlink:href="#DejaVuSans-82"/>
       <use x="69.451172" xlink:href="#DejaVuSans-97"/>
       <use x="130.730469" xlink:href="#DejaVuSans-110"/>
       <use x="194.109375" xlink:href="#DejaVuSans-100"/>
       <use x="257.585938" xlink:href="#DejaVuSans-111"/>
       <use x="318.767578" xlink:href="#DejaVuSans-109"/>
       <use x="416.179688" xlink:href="#DejaVuSans-58"/>
       <use x="449.871094" xlink:href="#DejaVuSans-32"/>
       <use x="481.658203" xlink:href="#DejaVuSans-48"/>
       <use x="545.28125" xlink:href="#DejaVuSans-46"/>
       <use x="577.068359" xlink:href="#DejaVuSans-53"/>
      </g>
     </g>
    </g>
    <g id="xtick_15">
     <g id="line2d_15">
      <g>
       <use style="stroke:#000000;stroke-width:0.8;" x="883.396413" xlink:href="#m3056f0052c" y="384.48"/>
      </g>
     </g>
     <g id="text_15">
      <!-- First by Anonymous -->
      <defs>
       <path d="M 34.1875 63.1875 
L 20.796875 26.90625 
L 47.609375 26.90625 
z
M 28.609375 72.90625 
L 39.796875 72.90625 
L 67.578125 0 
L 57.328125 0 
L 50.6875 18.703125 
L 17.828125 18.703125 
L 11.1875 0 
L 0.78125 0 
z
" id="DejaVuSans-65"/>
      </defs>
      <g transform="translate(886.155788 490.822188)rotate(-90)scale(0.1 -0.1)">
       <use xlink:href="#DejaVuSans-70"/>
       <use x="57.410156" xlink:href="#DejaVuSans-105"/>
       <use x="85.193359" xlink:href="#DejaVuSans-114"/>
       <use x="126.306641" xlink:href="#DejaVuSans-115"/>
       <use x="178.40625" xlink:href="#DejaVuSans-116"/>
       <use x="217.615234" xlink:href="#DejaVuSans-32"/>
       <use x="249.402344" xlink:href="#DejaVuSans-98"/>
       <use x="312.878906" xlink:href="#DejaVuSans-121"/>
       <use x="372.058594" xlink:href="#DejaVuSans-32"/>
       <use x="403.845703" xlink:href="#DejaVuSans-65"/>
       <use x="472.253906" xlink:href="#DejaVuSans-110"/>
       <use x="535.632812" xlink:href="#DejaVuSans-111"/>
       <use x="596.814453" xlink:href="#DejaVuSans-110"/>
       <use x="660.193359" xlink:href="#DejaVuSans-121"/>
       <use x="719.373047" xlink:href="#DejaVuSans-109"/>
       <use x="816.785156" xlink:href="#DejaVuSans-111"/>
       <use x="877.966797" xlink:href="#DejaVuSans-117"/>
       <use x="941.345703" xlink:href="#DejaVuSans-115"/>
      </g>
     </g>
    </g>
    <g id="text_16">
     <!-- Reproduced rank -->
     <g transform="translate(510.549219 605.126875)scale(0.1 -0.1)">
      <use xlink:href="#DejaVuSans-82"/>
      <use x="69.419922" xlink:href="#DejaVuSans-101"/>
      <use x="130.943359" xlink:href="#DejaVuSans-112"/>
      <use x="194.419922" xlink:href="#DejaVuSans-114"/>
      <use x="235.501953" xlink:href="#DejaVuSans-111"/>
      <use x="296.683594" xlink:href="#DejaVuSans-100"/>
      <use x="360.160156" xlink:href="#DejaVuSans-117"/>
      <use x="423.539062" xlink:href="#DejaVuSans-99"/>
      <use x="478.519531" xlink:href="#DejaVuSans-101"/>
      <use x="540.042969" xlink:href="#DejaVuSans-100"/>
      <use x="603.519531" xlink:href="#DejaVuSans-32"/>
      <use x="635.306641" xlink:href="#DejaVuSans-114"/>
      <use x="676.419922" xlink:href="#DejaVuSans-97"/>
      <use x="737.699219" xlink:href="#DejaVuSans-110"/>
      <use x="801.078125" xlink:href="#DejaVuSans-107"/>
     </g>
    </g>
   </g>
   <g id="matplotlib.axis_2">
    <g id="ytick_1">
     <g id="line2d_16">
      <defs>
       <path d="M 0 0 
L -3.5 0 
" id="mfce821d3a2" style="stroke:#000000;stroke-width:0.8;"/>
      </defs>
      <g>
       <use style="stroke:#000000;stroke-width:0.8;" x="135" xlink:href="#mfce821d3a2" y="366.835665"/>
      </g>
     </g>
     <g id="text_17">
      <!-- 0 -->
      <g transform="translate(121.6375 370.634884)scale(0.1 -0.1)">
       <use xlink:href="#DejaVuSans-48"/>
      </g>
     </g>
    </g>
    <g id="ytick_2">
     <g id="line2d_17">
      <g>
       <use style="stroke:#000000;stroke-width:0.8;" x="135" xlink:href="#mfce821d3a2" y="326.852243"/>
      </g>
     </g>
     <g id="text_18">
      <!-- 2 -->
      <g transform="translate(121.6375 330.651462)scale(0.1 -0.1)">
       <use xlink:href="#DejaVuSans-50"/>
      </g>
     </g>
    </g>
    <g id="ytick_3">
     <g id="line2d_18">
      <g>
       <use style="stroke:#000000;stroke-width:0.8;" x="135" xlink:href="#mfce821d3a2" y="286.868821"/>
      </g>
     </g>
     <g id="text_19">
      <!-- 4 -->
      <defs>
       <path d="M 37.796875 64.3125 
L 12.890625 25.390625 
L 37.796875 25.390625 
z
M 35.203125 72.90625 
L 47.609375 72.90625 
L 47.609375 25.390625 
L 58.015625 25.390625 
L 58.015625 17.1875 
L 47.609375 17.1875 
L 47.609375 0 
L 37.796875 0 
L 37.796875 17.1875 
L 4.890625 17.1875 
L 4.890625 26.703125 
z
" id="DejaVuSans-52"/>
      </defs>
      <g transform="translate(121.6375 290.66804)scale(0.1 -0.1)">
       <use xlink:href="#DejaVuSans-52"/>
      </g>
     </g>
    </g>
    <g id="ytick_4">
     <g id="line2d_19">
      <g>
       <use style="stroke:#000000;stroke-width:0.8;" x="135" xlink:href="#mfce821d3a2" y="246.885399"/>
      </g>
     </g>
     <g id="text_20">
      <!-- 6 -->
      <defs>
       <path d="M 33.015625 40.375 
Q 26.375 40.375 22.484375 35.828125 
Q 18.609375 31.296875 18.609375 23.390625 
Q 18.609375 15.53125 22.484375 10.953125 
Q 26.375 6.390625 33.015625 6.390625 
Q 39.65625 6.390625 43.53125 10.953125 
Q 47.40625 15.53125 47.40625 23.390625 
Q 47.40625 31.296875 43.53125 35.828125 
Q 39.65625 40.375 33.015625 40.375 
z
M 52.59375 71.296875 
L 52.59375 62.3125 
Q 48.875 64.0625 45.09375 64.984375 
Q 41.3125 65.921875 37.59375 65.921875 
Q 27.828125 65.921875 22.671875 59.328125 
Q 17.53125 52.734375 16.796875 39.40625 
Q 19.671875 43.65625 24.015625 45.921875 
Q 28.375 48.1875 33.59375 48.1875 
Q 44.578125 48.1875 50.953125 41.515625 
Q 57.328125 34.859375 57.328125 23.390625 
Q 57.328125 12.15625 50.6875 5.359375 
Q 44.046875 -1.421875 33.015625 -1.421875 
Q 20.359375 -1.421875 13.671875 8.265625 
Q 6.984375 17.96875 6.984375 36.375 
Q 6.984375 53.65625 15.1875 63.9375 
Q 23.390625 74.21875 37.203125 74.21875 
Q 40.921875 74.21875 44.703125 73.484375 
Q 48.484375 72.75 52.59375 71.296875 
z
" id="DejaVuSans-54"/>
      </defs>
      <g transform="translate(121.6375 250.684618)scale(0.1 -0.1)">
       <use xlink:href="#DejaVuSans-54"/>
      </g>
     </g>
    </g>
    <g id="ytick_5">
     <g id="line2d_20">
      <g>
       <use style="stroke:#000000;stroke-width:0.8;" x="135" xlink:href="#mfce821d3a2" y="206.901977"/>
      </g>
     </g>
     <g id="text_21">
      <!-- 8 -->
      <defs>
       <path d="M 31.78125 34.625 
Q 24.75 34.625 20.71875 30.859375 
Q 16.703125 27.09375 16.703125 20.515625 
Q 16.703125 13.921875 20.71875 10.15625 
Q 24.75 6.390625 31.78125 6.390625 
Q 38.8125 6.390625 42.859375 10.171875 
Q 46.921875 13.96875 46.921875 20.515625 
Q 46.921875 27.09375 42.890625 30.859375 
Q 38.875 34.625 31.78125 34.625 
z
M 21.921875 38.8125 
Q 15.578125 40.375 12.03125 44.71875 
Q 8.5 49.078125 8.5 55.328125 
Q 8.5 64.0625 14.71875 69.140625 
Q 20.953125 74.21875 31.78125 74.21875 
Q 42.671875 74.21875 48.875 69.140625 
Q 55.078125 64.0625 55.078125 55.328125 
Q 55.078125 49.078125 51.53125 44.71875 
Q 48 40.375 41.703125 38.8125 
Q 48.828125 37.15625 52.796875 32.3125 
Q 56.78125 27.484375 56.78125 20.515625 
Q 56.78125 9.90625 50.3125 4.234375 
Q 43.84375 -1.421875 31.78125 -1.421875 
Q 19.734375 -1.421875 13.25 4.234375 
Q 6.78125 9.90625 6.78125 20.515625 
Q 6.78125 27.484375 10.78125 32.3125 
Q 14.796875 37.15625 21.921875 38.8125 
z
M 18.3125 54.390625 
Q 18.3125 48.734375 21.84375 45.5625 
Q 25.390625 42.390625 31.78125 42.390625 
Q 38.140625 42.390625 41.71875 45.5625 
Q 45.3125 48.734375 45.3125 54.390625 
Q 45.3125 60.0625 41.71875 63.234375 
Q 38.140625 66.40625 31.78125 66.40625 
Q 25.390625 66.40625 21.84375 63.234375 
Q 18.3125 60.0625 18.3125 54.390625 
z
" id="DejaVuSans-56"/>
      </defs>
      <g transform="translate(121.6375 210.701196)scale(0.1 -0.1)">
       <use xlink:href="#DejaVuSans-56"/>
      </g>
     </g>
    </g>
    <g id="ytick_6">
     <g id="line2d_21">
      <g>
       <use style="stroke:#000000;stroke-width:0.8;" x="135" xlink:href="#mfce821d3a2" y="166.918555"/>
      </g>
     </g>
     <g id="text_22">
      <!-- 10 -->
      <g transform="translate(115.275 170.717774)scale(0.1 -0.1)">
       <use xlink:href="#DejaVuSans-49"/>
       <use x="63.623047" xlink:href="#DejaVuSans-48"/>
      </g>
     </g>
    </g>
    <g id="ytick_7">
     <g id="line2d_22">
      <g>
       <use style="stroke:#000000;stroke-width:0.8;" x="135" xlink:href="#mfce821d3a2" y="126.935133"/>
      </g>
     </g>
     <g id="text_23">
      <!-- 12 -->
      <g transform="translate(115.275 130.734352)scale(0.1 -0.1)">
       <use xlink:href="#DejaVuSans-49"/>
       <use x="63.623047" xlink:href="#DejaVuSans-50"/>
      </g>
     </g>
    </g>
    <g id="ytick_8">
     <g id="line2d_23">
      <g>
       <use style="stroke:#000000;stroke-width:0.8;" x="135" xlink:href="#mfce821d3a2" y="86.951711"/>
      </g>
     </g>
     <g id="text_24">
      <!-- 14 -->
      <g transform="translate(115.275 90.75093)scale(0.1 -0.1)">
       <use xlink:href="#DejaVuSans-49"/>
       <use x="63.623047" xlink:href="#DejaVuSans-52"/>
      </g>
     </g>
    </g>
    <g id="text_25">
     <!-- Reported rank -->
     <g transform="translate(109.195312 253.980312)rotate(-90)scale(0.1 -0.1)">
      <use xlink:href="#DejaVuSans-82"/>
      <use x="69.419922" xlink:href="#DejaVuSans-101"/>
      <use x="130.943359" xlink:href="#DejaVuSans-112"/>
      <use x="194.419922" xlink:href="#DejaVuSans-111"/>
      <use x="255.601562" xlink:href="#DejaVuSans-114"/>
      <use x="296.714844" xlink:href="#DejaVuSans-116"/>
      <use x="335.923828" xlink:href="#DejaVuSans-101"/>
      <use x="397.447266" xlink:href="#DejaVuSans-100"/>
      <use x="460.923828" xlink:href="#DejaVuSans-32"/>
      <use x="492.710938" xlink:href="#DejaVuSans-114"/>
      <use x="533.824219" xlink:href="#DejaVuSans-97"/>
      <use x="595.103516" xlink:href="#DejaVuSans-110"/>
      <use x="658.482422" xlink:href="#DejaVuSans-107"/>
     </g>
    </g>
   </g>
   <g id="line2d_24">
    <path clip-path="url(#pca7f778298)" d="M 175.582551 366.835665 
L 933.954545 66.96 
" style="fill:none;stroke:#808080;stroke-dasharray:5.55,2.4;stroke-dashoffset:0;stroke-width:1.5;"/>
   </g>
   <g id="line2d_25">
    <path clip-path="url(#pca7f778298)" d="M 580.047615 206.901977 
L 580.047615 366.835665 
" style="fill:none;stroke:#808080;stroke-linecap:square;stroke-width:1.5;"/>
   </g>
   <g id="line2d_26">
    <path clip-path="url(#pca7f778298)" d="M 630.605748 186.910266 
L 630.605748 366.835665 
" style="fill:none;stroke:#808080;stroke-linecap:square;stroke-width:1.5;"/>
   </g>
   <g id="line2d_27">
    <path clip-path="url(#pca7f778298)" d="M 681.163881 166.918555 
L 681.163881 366.835665 
" style="fill:none;stroke:#808080;stroke-linecap:square;stroke-width:1.5;"/>
   </g>
   <g id="line2d_28">
    <path clip-path="url(#pca7f778298)" d="M 731.722014 146.926844 
L 731.722014 366.835665 
" style="fill:none;stroke:#808080;stroke-linecap:square;stroke-width:1.5;"/>
   </g>
   <g id="line2d_29">
    <path clip-path="url(#pca7f778298)" d="M 782.280147 126.935133 
L 782.280147 366.835665 
" style="fill:none;stroke:#808080;stroke-linecap:square;stroke-width:1.5;"/>
   </g>
   <g id="patch_3">
    <path d="M 135 384.48 
L 135 51.84 
" style="fill:none;stroke:#000000;stroke-linecap:square;stroke-linejoin:miter;stroke-width:0.8;"/>
   </g>
   <g id="patch_4">
    <path d="M 972 384.48 
L 972 51.84 
" style="fill:none;stroke:#000000;stroke-linecap:square;stroke-linejoin:miter;stroke-width:0.8;"/>
   </g>
   <g id="patch_5">
    <path d="M 135 384.48 
L 972 384.48 
" style="fill:none;stroke:#000000;stroke-linecap:square;stroke-linejoin:miter;stroke-width:0.8;"/>
   </g>
   <g id="patch_6">
    <path d="M 135 51.84 
L 972 51.84 
" style="fill:none;stroke:#000000;stroke-linecap:square;stroke-linejoin:miter;stroke-width:0.8;"/>
   </g>
  </g>
 </g>
 <defs>
  <clipPath id="pca7f778298">
   <rect height="332.64" width="837" x="135" y="51.84"/>
  </clipPath>
 </defs>
</svg>
