<?xml version="1.0" encoding="utf-8" standalone="no"?>
<!DOCTYPE svg PUBLIC "-//W3C//DTD SVG 1.1//EN"
  "http://www.w3.org/Graphics/SVG/1.1/DTD/svg11.dtd">
<!-- Created with matplotlib (http://matplotlib.org/) -->
<svg height="432pt" version="1.1" viewBox="0 0 864 432" width="864pt" xmlns="http://www.w3.org/2000/svg" xmlns:xlink="http://www.w3.org/1999/xlink">
 <defs>
  <style type="text/css">
*{stroke-linecap:butt;stroke-linejoin:round;stroke-miterlimit:100000;}
  </style>
 </defs>
 <g id="figure_1">
  <g id="patch_1">
   <path d="M 0 432 
L 864 432 
L 864 0 
L 0 0 
z
" style="fill:#ffffff;"/>
  </g>
  <g id="axes_1">
   <g id="patch_2">
    <path d="M 108 378 
L 777.6 378 
L 777.6 43.2 
L 108 43.2 
z
" style="fill:#eaeaf2;"/>
   </g>
   <g id="matplotlib.axis_1">
    <g id="xtick_1">
     <g id="line2d_1">
      <path clip-path="url(#p1072bf764b)" d="M 241.92 378 
L 241.92 43.2 
" style="fill:none;stroke:#ffffff;stroke-linecap:round;"/>
     </g>
     <g id="line2d_2">
      <defs>
       <path d="M 0 0 
L 0 0 
" id="m4e12cc692a" style="stroke:#262626;"/>
      </defs>
      <g>
       <use style="fill:#262626;stroke:#262626;" x="241.92" xlink:href="#m4e12cc692a" y="378.0"/>
      </g>
     </g>
     <g id="line2d_3">
      <g>
       <use style="fill:#262626;stroke:#262626;" x="241.92" xlink:href="#m4e12cc692a" y="43.2"/>
      </g>
     </g>
     <g id="text_1">
      <!-- Defector -->
      <defs>
       <path d="M 8.6875 0 
L 8.6875 45.015625 
L 0.921875 45.015625 
L 0.921875 51.859375 
L 8.6875 51.859375 
L 8.6875 57.375 
Q 8.6875 62.59375 9.625 65.140625 
Q 10.890625 68.5625 14.078125 70.671875 
Q 17.28125 72.796875 23.046875 72.796875 
Q 26.765625 72.796875 31.25 71.921875 
L 29.9375 64.265625 
Q 27.203125 64.75 24.75 64.75 
Q 20.75 64.75 19.09375 63.03125 
Q 17.4375 61.328125 17.4375 56.640625 
L 17.4375 51.859375 
L 27.546875 51.859375 
L 27.546875 45.015625 
L 17.4375 45.015625 
L 17.4375 0 
z
" id="ArialMT-66"/>
       <path d="M 42.09375 16.703125 
L 51.171875 15.578125 
Q 49.03125 7.625 43.21875 3.21875 
Q 37.40625 -1.171875 28.375 -1.171875 
Q 17 -1.171875 10.328125 5.828125 
Q 3.65625 12.84375 3.65625 25.484375 
Q 3.65625 38.578125 10.390625 45.796875 
Q 17.140625 53.03125 27.875 53.03125 
Q 38.28125 53.03125 44.875 45.953125 
Q 51.46875 38.875 51.46875 26.03125 
Q 51.46875 25.25 51.421875 23.6875 
L 12.75 23.6875 
Q 13.234375 15.140625 17.578125 10.59375 
Q 21.921875 6.0625 28.421875 6.0625 
Q 33.25 6.0625 36.671875 8.59375 
Q 40.09375 11.140625 42.09375 16.703125 
M 13.234375 30.90625 
L 42.1875 30.90625 
Q 41.609375 37.453125 38.875 40.71875 
Q 34.671875 45.796875 27.984375 45.796875 
Q 21.921875 45.796875 17.796875 41.75 
Q 13.671875 37.703125 13.234375 30.90625 
" id="ArialMT-65"/>
       <path d="M 3.328125 25.921875 
Q 3.328125 40.328125 11.328125 47.265625 
Q 18.015625 53.03125 27.640625 53.03125 
Q 38.328125 53.03125 45.109375 46.015625 
Q 51.90625 39.015625 51.90625 26.65625 
Q 51.90625 16.65625 48.90625 10.90625 
Q 45.90625 5.171875 40.15625 2 
Q 34.421875 -1.171875 27.640625 -1.171875 
Q 16.75 -1.171875 10.03125 5.8125 
Q 3.328125 12.796875 3.328125 25.921875 
M 12.359375 25.921875 
Q 12.359375 15.96875 16.703125 11.015625 
Q 21.046875 6.0625 27.640625 6.0625 
Q 34.1875 6.0625 38.53125 11.03125 
Q 42.875 16.015625 42.875 26.21875 
Q 42.875 35.84375 38.5 40.796875 
Q 34.125 45.75 27.640625 45.75 
Q 21.046875 45.75 16.703125 40.8125 
Q 12.359375 35.890625 12.359375 25.921875 
" id="ArialMT-6f"/>
       <path d="M 6.5 0 
L 6.5 51.859375 
L 14.40625 51.859375 
L 14.40625 44 
Q 17.4375 49.515625 20 51.265625 
Q 22.5625 53.03125 25.640625 53.03125 
Q 30.078125 53.03125 34.671875 50.203125 
L 31.640625 42.046875 
Q 28.421875 43.953125 25.203125 43.953125 
Q 22.3125 43.953125 20.015625 42.21875 
Q 17.71875 40.484375 16.75 37.40625 
Q 15.28125 32.71875 15.28125 27.15625 
L 15.28125 0 
z
" id="ArialMT-72"/>
       <path d="M 40.4375 19 
L 49.078125 17.875 
Q 47.65625 8.9375 41.8125 3.875 
Q 35.984375 -1.171875 27.484375 -1.171875 
Q 16.84375 -1.171875 10.375 5.78125 
Q 3.90625 12.75 3.90625 25.734375 
Q 3.90625 34.125 6.6875 40.421875 
Q 9.46875 46.734375 15.15625 49.875 
Q 20.84375 53.03125 27.546875 53.03125 
Q 35.984375 53.03125 41.359375 48.75 
Q 46.734375 44.484375 48.25 36.625 
L 39.703125 35.296875 
Q 38.484375 40.53125 35.375 43.15625 
Q 32.28125 45.796875 27.875 45.796875 
Q 21.234375 45.796875 17.078125 41.03125 
Q 12.9375 36.28125 12.9375 25.984375 
Q 12.9375 15.53125 16.9375 10.796875 
Q 20.953125 6.0625 27.390625 6.0625 
Q 32.5625 6.0625 36.03125 9.234375 
Q 39.5 12.40625 40.4375 19 
" id="ArialMT-63"/>
       <path d="M 7.71875 0 
L 7.71875 71.578125 
L 32.375 71.578125 
Q 40.71875 71.578125 45.125 70.5625 
Q 51.265625 69.140625 55.609375 65.4375 
Q 61.28125 60.640625 64.078125 53.1875 
Q 66.890625 45.75 66.890625 36.1875 
Q 66.890625 28.03125 64.984375 21.734375 
Q 63.09375 15.4375 60.109375 11.296875 
Q 57.125 7.171875 53.578125 4.796875 
Q 50.046875 2.4375 45.046875 1.21875 
Q 40.046875 0 33.546875 0 
z
M 17.1875 8.453125 
L 32.46875 8.453125 
Q 39.546875 8.453125 43.578125 9.765625 
Q 47.609375 11.078125 50 13.484375 
Q 53.375 16.84375 55.25 22.53125 
Q 57.125 28.21875 57.125 36.328125 
Q 57.125 47.5625 53.4375 53.59375 
Q 49.75 59.625 44.484375 61.671875 
Q 40.671875 63.140625 32.234375 63.140625 
L 17.1875 63.140625 
z
" id="ArialMT-44"/>
       <path d="M 25.78125 7.859375 
L 27.046875 0.09375 
Q 23.34375 -0.6875 20.40625 -0.6875 
Q 15.625 -0.6875 12.984375 0.828125 
Q 10.359375 2.34375 9.28125 4.8125 
Q 8.203125 7.28125 8.203125 15.1875 
L 8.203125 45.015625 
L 1.765625 45.015625 
L 1.765625 51.859375 
L 8.203125 51.859375 
L 8.203125 64.703125 
L 16.9375 69.96875 
L 16.9375 51.859375 
L 25.78125 51.859375 
L 25.78125 45.015625 
L 16.9375 45.015625 
L 16.9375 14.703125 
Q 16.9375 10.9375 17.40625 9.859375 
Q 17.875 8.796875 18.921875 8.15625 
Q 19.96875 7.515625 21.921875 7.515625 
Q 23.390625 7.515625 25.78125 7.859375 
" id="ArialMT-74"/>
      </defs>
      <g style="fill:#262626;" transform="translate(243.988125 415.2325)rotate(-90.0)scale(0.08 -0.08)">
       <use xlink:href="#ArialMT-44"/>
       <use x="72.216796875" xlink:href="#ArialMT-65"/>
       <use x="127.83203125" xlink:href="#ArialMT-66"/>
       <use x="155.615234375" xlink:href="#ArialMT-65"/>
       <use x="211.23046875" xlink:href="#ArialMT-63"/>
       <use x="261.23046875" xlink:href="#ArialMT-74"/>
       <use x="289.013671875" xlink:href="#ArialMT-6f"/>
       <use x="344.62890625" xlink:href="#ArialMT-72"/>
      </g>
     </g>
    </g>
    <g id="xtick_2">
     <g id="line2d_4">
      <path clip-path="url(#p1072bf764b)" d="M 375.84 378 
L 375.84 43.2 
" style="fill:none;stroke:#ffffff;stroke-linecap:round;"/>
     </g>
     <g id="line2d_5">
      <g>
       <use style="fill:#262626;stroke:#262626;" x="375.84" xlink:href="#m4e12cc692a" y="378.0"/>
      </g>
     </g>
     <g id="line2d_6">
      <g>
       <use style="fill:#262626;stroke:#262626;" x="375.84" xlink:href="#m4e12cc692a" y="43.2"/>
      </g>
     </g>
     <g id="text_2">
      <!-- Tit For Tat -->
      <defs>
       <path d="M 40.4375 6.390625 
Q 35.546875 2.25 31.03125 0.53125 
Q 26.515625 -1.171875 21.34375 -1.171875 
Q 12.796875 -1.171875 8.203125 3 
Q 3.609375 7.171875 3.609375 13.671875 
Q 3.609375 17.484375 5.34375 20.625 
Q 7.078125 23.78125 9.890625 25.6875 
Q 12.703125 27.59375 16.21875 28.5625 
Q 18.796875 29.25 24.03125 29.890625 
Q 34.671875 31.15625 39.703125 32.90625 
Q 39.75 34.71875 39.75 35.203125 
Q 39.75 40.578125 37.25 42.78125 
Q 33.890625 45.75 27.25 45.75 
Q 21.046875 45.75 18.09375 43.578125 
Q 15.140625 41.40625 13.71875 35.890625 
L 5.125 37.0625 
Q 6.296875 42.578125 8.984375 45.96875 
Q 11.671875 49.359375 16.75 51.1875 
Q 21.828125 53.03125 28.515625 53.03125 
Q 35.15625 53.03125 39.296875 51.46875 
Q 43.453125 49.90625 45.40625 47.53125 
Q 47.359375 45.171875 48.140625 41.546875 
Q 48.578125 39.3125 48.578125 33.453125 
L 48.578125 21.734375 
Q 48.578125 9.46875 49.140625 6.21875 
Q 49.703125 2.984375 51.375 0 
L 42.1875 0 
Q 40.828125 2.734375 40.4375 6.390625 
M 39.703125 26.03125 
Q 34.90625 24.078125 25.34375 22.703125 
Q 19.921875 21.921875 17.671875 20.9375 
Q 15.4375 19.96875 14.203125 18.09375 
Q 12.984375 16.21875 12.984375 13.921875 
Q 12.984375 10.40625 15.640625 8.0625 
Q 18.3125 5.71875 23.4375 5.71875 
Q 28.515625 5.71875 32.46875 7.9375 
Q 36.421875 10.15625 38.28125 14.015625 
Q 39.703125 17 39.703125 22.796875 
z
" id="ArialMT-61"/>
       <path d="M 25.921875 0 
L 25.921875 63.140625 
L 2.34375 63.140625 
L 2.34375 71.578125 
L 59.078125 71.578125 
L 59.078125 63.140625 
L 35.40625 63.140625 
L 35.40625 0 
z
" id="ArialMT-54"/>
       <path d="M 6.640625 61.46875 
L 6.640625 71.578125 
L 15.4375 71.578125 
L 15.4375 61.46875 
z
M 6.640625 0 
L 6.640625 51.859375 
L 15.4375 51.859375 
L 15.4375 0 
z
" id="ArialMT-69"/>
       <path id="ArialMT-20"/>
       <path d="M 8.203125 0 
L 8.203125 71.578125 
L 56.5 71.578125 
L 56.5 63.140625 
L 17.671875 63.140625 
L 17.671875 40.96875 
L 51.265625 40.96875 
L 51.265625 32.515625 
L 17.671875 32.515625 
L 17.671875 0 
z
" id="ArialMT-46"/>
      </defs>
      <g style="fill:#262626;" transform="translate(377.908125 421.86875)rotate(-90.0)scale(0.08 -0.08)">
       <use xlink:href="#ArialMT-54"/>
       <use x="61.037109375" xlink:href="#ArialMT-69"/>
       <use x="83.25390625" xlink:href="#ArialMT-74"/>
       <use x="111.037109375" xlink:href="#ArialMT-20"/>
       <use x="138.8203125" xlink:href="#ArialMT-46"/>
       <use x="199.904296875" xlink:href="#ArialMT-6f"/>
       <use x="255.51953125" xlink:href="#ArialMT-72"/>
       <use x="288.8203125" xlink:href="#ArialMT-20"/>
       <use x="316.587890625" xlink:href="#ArialMT-54"/>
       <use x="377.5" xlink:href="#ArialMT-61"/>
       <use x="433.115234375" xlink:href="#ArialMT-74"/>
      </g>
     </g>
    </g>
    <g id="xtick_3">
     <g id="line2d_7">
      <path clip-path="url(#p1072bf764b)" d="M 509.76 378 
L 509.76 43.2 
" style="fill:none;stroke:#ffffff;stroke-linecap:round;"/>
     </g>
     <g id="line2d_8">
      <g>
       <use style="fill:#262626;stroke:#262626;" x="509.76" xlink:href="#m4e12cc692a" y="378.0"/>
      </g>
     </g>
     <g id="line2d_9">
      <g>
       <use style="fill:#262626;stroke:#262626;" x="509.76" xlink:href="#m4e12cc692a" y="43.2"/>
      </g>
     </g>
     <g id="text_3">
      <!-- Grudger -->
      <defs>
       <path d="M 4.984375 -4.296875 
L 13.53125 -5.5625 
Q 14.0625 -9.515625 16.5 -11.328125 
Q 19.78125 -13.765625 25.4375 -13.765625 
Q 31.546875 -13.765625 34.859375 -11.328125 
Q 38.1875 -8.890625 39.359375 -4.5 
Q 40.046875 -1.8125 39.984375 6.78125 
Q 34.234375 0 25.640625 0 
Q 14.9375 0 9.078125 7.71875 
Q 3.21875 15.4375 3.21875 26.21875 
Q 3.21875 33.640625 5.90625 39.90625 
Q 8.59375 46.1875 13.6875 49.609375 
Q 18.796875 53.03125 25.6875 53.03125 
Q 34.859375 53.03125 40.828125 45.609375 
L 40.828125 51.859375 
L 48.921875 51.859375 
L 48.921875 7.03125 
Q 48.921875 -5.078125 46.453125 -10.125 
Q 44 -15.1875 38.640625 -18.109375 
Q 33.296875 -21.046875 25.484375 -21.046875 
Q 16.21875 -21.046875 10.5 -16.875 
Q 4.78125 -12.703125 4.984375 -4.296875 
M 12.25 26.859375 
Q 12.25 16.65625 16.296875 11.96875 
Q 20.359375 7.28125 26.46875 7.28125 
Q 32.515625 7.28125 36.609375 11.9375 
Q 40.71875 16.609375 40.71875 26.5625 
Q 40.71875 36.078125 36.5 40.90625 
Q 32.28125 45.75 26.3125 45.75 
Q 20.453125 45.75 16.34375 40.984375 
Q 12.25 36.234375 12.25 26.859375 
" id="ArialMT-67"/>
       <path d="M 40.578125 0 
L 40.578125 7.625 
Q 34.515625 -1.171875 24.125 -1.171875 
Q 19.53125 -1.171875 15.546875 0.578125 
Q 11.578125 2.34375 9.640625 5 
Q 7.71875 7.671875 6.9375 11.53125 
Q 6.390625 14.109375 6.390625 19.734375 
L 6.390625 51.859375 
L 15.1875 51.859375 
L 15.1875 23.09375 
Q 15.1875 16.21875 15.71875 13.8125 
Q 16.546875 10.359375 19.234375 8.375 
Q 21.921875 6.390625 25.875 6.390625 
Q 29.828125 6.390625 33.296875 8.421875 
Q 36.765625 10.453125 38.203125 13.9375 
Q 39.65625 17.4375 39.65625 24.078125 
L 39.65625 51.859375 
L 48.4375 51.859375 
L 48.4375 0 
z
" id="ArialMT-75"/>
       <path d="M 41.21875 28.078125 
L 41.21875 36.46875 
L 71.53125 36.53125 
L 71.53125 9.96875 
Q 64.546875 4.390625 57.125 1.578125 
Q 49.703125 -1.21875 41.890625 -1.21875 
Q 31.34375 -1.21875 22.71875 3.296875 
Q 14.109375 7.8125 9.71875 16.359375 
Q 5.328125 24.90625 5.328125 35.453125 
Q 5.328125 45.90625 9.6875 54.953125 
Q 14.0625 64.015625 22.265625 68.40625 
Q 30.46875 72.796875 41.15625 72.796875 
Q 48.921875 72.796875 55.1875 70.28125 
Q 61.46875 67.78125 65.03125 63.28125 
Q 68.609375 58.796875 70.453125 51.5625 
L 61.921875 49.21875 
Q 60.296875 54.6875 57.90625 57.8125 
Q 55.515625 60.9375 51.0625 62.8125 
Q 46.625 64.703125 41.21875 64.703125 
Q 34.71875 64.703125 29.984375 62.71875 
Q 25.25 60.75 22.34375 57.515625 
Q 19.4375 54.296875 17.828125 50.4375 
Q 15.09375 43.796875 15.09375 36.03125 
Q 15.09375 26.46875 18.390625 20.015625 
Q 21.6875 13.578125 27.984375 10.453125 
Q 34.28125 7.328125 41.359375 7.328125 
Q 47.515625 7.328125 53.375 9.6875 
Q 59.234375 12.0625 62.25 14.75 
L 62.25 28.078125 
z
" id="ArialMT-47"/>
       <path d="M 40.234375 0 
L 40.234375 6.546875 
Q 35.296875 -1.171875 25.734375 -1.171875 
Q 19.53125 -1.171875 14.328125 2.25 
Q 9.125 5.671875 6.265625 11.796875 
Q 3.421875 17.921875 3.421875 25.875 
Q 3.421875 33.640625 6 39.96875 
Q 8.59375 46.296875 13.765625 49.65625 
Q 18.953125 53.03125 25.34375 53.03125 
Q 30.03125 53.03125 33.6875 51.046875 
Q 37.359375 49.078125 39.65625 45.90625 
L 39.65625 71.578125 
L 48.390625 71.578125 
L 48.390625 0 
z
M 12.453125 25.875 
Q 12.453125 15.921875 16.640625 10.984375 
Q 20.84375 6.0625 26.5625 6.0625 
Q 32.328125 6.0625 36.34375 10.765625 
Q 40.375 15.484375 40.375 25.140625 
Q 40.375 35.796875 36.265625 40.765625 
Q 32.171875 45.75 26.171875 45.75 
Q 20.3125 45.75 16.375 40.96875 
Q 12.453125 36.1875 12.453125 25.875 
" id="ArialMT-64"/>
      </defs>
      <g style="fill:#262626;" transform="translate(511.83 414.345)rotate(-90.0)scale(0.08 -0.08)">
       <use xlink:href="#ArialMT-47"/>
       <use x="77.783203125" xlink:href="#ArialMT-72"/>
       <use x="111.083984375" xlink:href="#ArialMT-75"/>
       <use x="166.69921875" xlink:href="#ArialMT-64"/>
       <use x="222.314453125" xlink:href="#ArialMT-67"/>
       <use x="277.9296875" xlink:href="#ArialMT-65"/>
       <use x="333.544921875" xlink:href="#ArialMT-72"/>
      </g>
     </g>
    </g>
    <g id="xtick_4">
     <g id="line2d_10">
      <path clip-path="url(#p1072bf764b)" d="M 643.68 378 
L 643.68 43.2 
" style="fill:none;stroke:#ffffff;stroke-linecap:round;"/>
     </g>
     <g id="line2d_11">
      <g>
       <use style="fill:#262626;stroke:#262626;" x="643.68" xlink:href="#m4e12cc692a" y="378.0"/>
      </g>
     </g>
     <g id="line2d_12">
      <g>
       <use style="fill:#262626;stroke:#262626;" x="643.68" xlink:href="#m4e12cc692a" y="43.2"/>
      </g>
     </g>
     <g id="text_4">
      <!-- Cooperator -->
      <defs>
       <path d="M 6.59375 -19.875 
L 6.59375 51.859375 
L 14.59375 51.859375 
L 14.59375 45.125 
Q 17.4375 49.078125 21 51.046875 
Q 24.5625 53.03125 29.640625 53.03125 
Q 36.28125 53.03125 41.359375 49.609375 
Q 46.4375 46.1875 49.015625 39.953125 
Q 51.609375 33.734375 51.609375 26.3125 
Q 51.609375 18.359375 48.75 11.984375 
Q 45.90625 5.609375 40.453125 2.21875 
Q 35.015625 -1.171875 29 -1.171875 
Q 24.609375 -1.171875 21.109375 0.6875 
Q 17.625 2.546875 15.375 5.375 
L 15.375 -19.875 
z
M 14.546875 25.640625 
Q 14.546875 15.625 18.59375 10.84375 
Q 22.65625 6.0625 28.421875 6.0625 
Q 34.28125 6.0625 38.453125 11.015625 
Q 42.625 15.96875 42.625 26.375 
Q 42.625 36.28125 38.546875 41.203125 
Q 34.46875 46.140625 28.8125 46.140625 
Q 23.1875 46.140625 18.859375 40.890625 
Q 14.546875 35.640625 14.546875 25.640625 
" id="ArialMT-70"/>
       <path d="M 58.796875 25.09375 
L 68.265625 22.703125 
Q 65.28125 11.03125 57.546875 4.90625 
Q 49.8125 -1.21875 38.625 -1.21875 
Q 27.046875 -1.21875 19.796875 3.484375 
Q 12.546875 8.203125 8.765625 17.140625 
Q 4.984375 26.078125 4.984375 36.328125 
Q 4.984375 47.515625 9.25 55.828125 
Q 13.53125 64.15625 21.40625 68.46875 
Q 29.296875 72.796875 38.765625 72.796875 
Q 49.515625 72.796875 56.828125 67.328125 
Q 64.15625 61.859375 67.046875 51.953125 
L 57.71875 49.75 
Q 55.21875 57.5625 50.484375 61.125 
Q 45.75 64.703125 38.578125 64.703125 
Q 30.328125 64.703125 24.78125 60.734375 
Q 19.234375 56.78125 16.984375 50.109375 
Q 14.75 43.453125 14.75 36.375 
Q 14.75 27.25 17.40625 20.4375 
Q 20.0625 13.625 25.671875 10.25 
Q 31.296875 6.890625 37.84375 6.890625 
Q 45.796875 6.890625 51.3125 11.46875 
Q 56.84375 16.0625 58.796875 25.09375 
" id="ArialMT-43"/>
      </defs>
      <g style="fill:#262626;" transform="translate(645.796875 425.02)rotate(-90.0)scale(0.08 -0.08)">
       <use xlink:href="#ArialMT-43"/>
       <use x="72.216796875" xlink:href="#ArialMT-6f"/>
       <use x="127.83203125" xlink:href="#ArialMT-6f"/>
       <use x="183.447265625" xlink:href="#ArialMT-70"/>
       <use x="239.0625" xlink:href="#ArialMT-65"/>
       <use x="294.677734375" xlink:href="#ArialMT-72"/>
       <use x="327.978515625" xlink:href="#ArialMT-61"/>
       <use x="383.59375" xlink:href="#ArialMT-74"/>
       <use x="411.376953125" xlink:href="#ArialMT-6f"/>
       <use x="466.9921875" xlink:href="#ArialMT-72"/>
      </g>
     </g>
    </g>
   </g>
   <g id="matplotlib.axis_2">
    <g id="ytick_1">
     <g id="line2d_13">
      <path clip-path="url(#p1072bf764b)" d="M 108 378 
L 777.6 378 
" style="fill:none;stroke:#ffffff;stroke-linecap:round;"/>
     </g>
     <g id="line2d_14">
      <g>
       <use style="fill:#262626;stroke:#262626;" x="108.0" xlink:href="#m4e12cc692a" y="378.0"/>
      </g>
     </g>
     <g id="line2d_15">
      <g>
       <use style="fill:#262626;stroke:#262626;" x="777.6" xlink:href="#m4e12cc692a" y="378.0"/>
      </g>
     </g>
     <g id="text_5">
      <!-- 0 -->
      <defs>
       <path d="M 4.15625 35.296875 
Q 4.15625 48 6.765625 55.734375 
Q 9.375 63.484375 14.515625 67.671875 
Q 19.671875 71.875 27.484375 71.875 
Q 33.25 71.875 37.59375 69.546875 
Q 41.9375 67.234375 44.765625 62.859375 
Q 47.609375 58.5 49.21875 52.21875 
Q 50.828125 45.953125 50.828125 35.296875 
Q 50.828125 22.703125 48.234375 14.96875 
Q 45.65625 7.234375 40.5 3 
Q 35.359375 -1.21875 27.484375 -1.21875 
Q 17.140625 -1.21875 11.234375 6.203125 
Q 4.15625 15.140625 4.15625 35.296875 
M 13.1875 35.296875 
Q 13.1875 17.671875 17.3125 11.828125 
Q 21.4375 6 27.484375 6 
Q 33.546875 6 37.671875 11.859375 
Q 41.796875 17.71875 41.796875 35.296875 
Q 41.796875 52.984375 37.671875 58.78125 
Q 33.546875 64.59375 27.390625 64.59375 
Q 21.34375 64.59375 17.71875 59.46875 
Q 13.1875 52.9375 13.1875 35.296875 
" id="ArialMT-30"/>
      </defs>
      <g style="fill:#262626;" transform="translate(96.55125 380.068125)scale(0.08 -0.08)">
       <use xlink:href="#ArialMT-30"/>
      </g>
     </g>
    </g>
    <g id="ytick_2">
     <g id="line2d_16">
      <path clip-path="url(#p1072bf764b)" d="M 108 336.15 
L 777.6 336.15 
" style="fill:none;stroke:#ffffff;stroke-linecap:round;"/>
     </g>
     <g id="line2d_17">
      <g>
       <use style="fill:#262626;stroke:#262626;" x="108.0" xlink:href="#m4e12cc692a" y="336.15"/>
      </g>
     </g>
     <g id="line2d_18">
      <g>
       <use style="fill:#262626;stroke:#262626;" x="777.6" xlink:href="#m4e12cc692a" y="336.15"/>
      </g>
     </g>
     <g id="text_6">
      <!-- 5 -->
      <defs>
       <path d="M 4.15625 18.75 
L 13.375 19.53125 
Q 14.40625 12.796875 18.140625 9.390625 
Q 21.875 6 27.15625 6 
Q 33.5 6 37.890625 10.78125 
Q 42.28125 15.578125 42.28125 23.484375 
Q 42.28125 31 38.0625 35.34375 
Q 33.84375 39.703125 27 39.703125 
Q 22.75 39.703125 19.328125 37.765625 
Q 15.921875 35.84375 13.96875 32.765625 
L 5.71875 33.84375 
L 12.640625 70.609375 
L 48.25 70.609375 
L 48.25 62.203125 
L 19.671875 62.203125 
L 15.828125 42.96875 
Q 22.265625 47.46875 29.34375 47.46875 
Q 38.71875 47.46875 45.15625 40.96875 
Q 51.609375 34.46875 51.609375 24.265625 
Q 51.609375 14.546875 45.953125 7.46875 
Q 39.0625 -1.21875 27.15625 -1.21875 
Q 17.390625 -1.21875 11.203125 4.25 
Q 5.03125 9.71875 4.15625 18.75 
" id="ArialMT-35"/>
      </defs>
      <g style="fill:#262626;" transform="translate(96.55125 338.218125)scale(0.08 -0.08)">
       <use xlink:href="#ArialMT-35"/>
      </g>
     </g>
    </g>
    <g id="ytick_3">
     <g id="line2d_19">
      <path clip-path="url(#p1072bf764b)" d="M 108 294.3 
L 777.6 294.3 
" style="fill:none;stroke:#ffffff;stroke-linecap:round;"/>
     </g>
     <g id="line2d_20">
      <g>
       <use style="fill:#262626;stroke:#262626;" x="108.0" xlink:href="#m4e12cc692a" y="294.3"/>
      </g>
     </g>
     <g id="line2d_21">
      <g>
       <use style="fill:#262626;stroke:#262626;" x="777.6" xlink:href="#m4e12cc692a" y="294.3"/>
      </g>
     </g>
     <g id="text_7">
      <!-- 10 -->
      <defs>
       <path d="M 37.25 0 
L 28.46875 0 
L 28.46875 56 
Q 25.296875 52.984375 20.140625 49.953125 
Q 14.984375 46.921875 10.890625 45.40625 
L 10.890625 53.90625 
Q 18.265625 57.375 23.78125 62.296875 
Q 29.296875 67.234375 31.59375 71.875 
L 37.25 71.875 
z
" id="ArialMT-31"/>
      </defs>
      <g style="fill:#262626;" transform="translate(92.1025 296.368125)scale(0.08 -0.08)">
       <use xlink:href="#ArialMT-31"/>
       <use x="55.615234375" xlink:href="#ArialMT-30"/>
      </g>
     </g>
    </g>
    <g id="ytick_4">
     <g id="line2d_22">
      <path clip-path="url(#p1072bf764b)" d="M 108 252.45 
L 777.6 252.45 
" style="fill:none;stroke:#ffffff;stroke-linecap:round;"/>
     </g>
     <g id="line2d_23">
      <g>
       <use style="fill:#262626;stroke:#262626;" x="108.0" xlink:href="#m4e12cc692a" y="252.45"/>
      </g>
     </g>
     <g id="line2d_24">
      <g>
       <use style="fill:#262626;stroke:#262626;" x="777.6" xlink:href="#m4e12cc692a" y="252.45"/>
      </g>
     </g>
     <g id="text_8">
      <!-- 15 -->
      <g style="fill:#262626;" transform="translate(92.1025 254.518125)scale(0.08 -0.08)">
       <use xlink:href="#ArialMT-31"/>
       <use x="55.615234375" xlink:href="#ArialMT-35"/>
      </g>
     </g>
    </g>
    <g id="ytick_5">
     <g id="line2d_25">
      <path clip-path="url(#p1072bf764b)" d="M 108 210.6 
L 777.6 210.6 
" style="fill:none;stroke:#ffffff;stroke-linecap:round;"/>
     </g>
     <g id="line2d_26">
      <g>
       <use style="fill:#262626;stroke:#262626;" x="108.0" xlink:href="#m4e12cc692a" y="210.6"/>
      </g>
     </g>
     <g id="line2d_27">
      <g>
       <use style="fill:#262626;stroke:#262626;" x="777.6" xlink:href="#m4e12cc692a" y="210.6"/>
      </g>
     </g>
     <g id="text_9">
      <!-- 20 -->
      <defs>
       <path d="M 50.34375 8.453125 
L 50.34375 0 
L 3.03125 0 
Q 2.9375 3.171875 4.046875 6.109375 
Q 5.859375 10.9375 9.828125 15.625 
Q 13.8125 20.3125 21.34375 26.46875 
Q 33.015625 36.03125 37.109375 41.625 
Q 41.21875 47.21875 41.21875 52.203125 
Q 41.21875 57.421875 37.46875 61 
Q 33.734375 64.59375 27.734375 64.59375 
Q 21.390625 64.59375 17.578125 60.78125 
Q 13.765625 56.984375 13.71875 50.25 
L 4.6875 51.171875 
Q 5.609375 61.28125 11.65625 66.578125 
Q 17.71875 71.875 27.9375 71.875 
Q 38.234375 71.875 44.234375 66.15625 
Q 50.25 60.453125 50.25 52 
Q 50.25 47.703125 48.484375 43.546875 
Q 46.734375 39.40625 42.65625 34.8125 
Q 38.578125 30.21875 29.109375 22.21875 
Q 21.1875 15.578125 18.9375 13.203125 
Q 16.703125 10.84375 15.234375 8.453125 
z
" id="ArialMT-32"/>
      </defs>
      <g style="fill:#262626;" transform="translate(92.1025 212.668125)scale(0.08 -0.08)">
       <use xlink:href="#ArialMT-32"/>
       <use x="55.615234375" xlink:href="#ArialMT-30"/>
      </g>
     </g>
    </g>
    <g id="ytick_6">
     <g id="line2d_28">
      <path clip-path="url(#p1072bf764b)" d="M 108 168.75 
L 777.6 168.75 
" style="fill:none;stroke:#ffffff;stroke-linecap:round;"/>
     </g>
     <g id="line2d_29">
      <g>
       <use style="fill:#262626;stroke:#262626;" x="108.0" xlink:href="#m4e12cc692a" y="168.75"/>
      </g>
     </g>
     <g id="line2d_30">
      <g>
       <use style="fill:#262626;stroke:#262626;" x="777.6" xlink:href="#m4e12cc692a" y="168.75"/>
      </g>
     </g>
     <g id="text_10">
      <!-- 25 -->
      <g style="fill:#262626;" transform="translate(92.1025 170.818125)scale(0.08 -0.08)">
       <use xlink:href="#ArialMT-32"/>
       <use x="55.615234375" xlink:href="#ArialMT-35"/>
      </g>
     </g>
    </g>
    <g id="ytick_7">
     <g id="line2d_31">
      <path clip-path="url(#p1072bf764b)" d="M 108 126.9 
L 777.6 126.9 
" style="fill:none;stroke:#ffffff;stroke-linecap:round;"/>
     </g>
     <g id="line2d_32">
      <g>
       <use style="fill:#262626;stroke:#262626;" x="108.0" xlink:href="#m4e12cc692a" y="126.9"/>
      </g>
     </g>
     <g id="line2d_33">
      <g>
       <use style="fill:#262626;stroke:#262626;" x="777.6" xlink:href="#m4e12cc692a" y="126.9"/>
      </g>
     </g>
     <g id="text_11">
      <!-- 30 -->
      <defs>
       <path d="M 4.203125 18.890625 
L 12.984375 20.0625 
Q 14.5 12.59375 18.140625 9.296875 
Q 21.78125 6 27 6 
Q 33.203125 6 37.46875 10.296875 
Q 41.75 14.59375 41.75 20.953125 
Q 41.75 27 37.796875 30.921875 
Q 33.84375 34.859375 27.734375 34.859375 
Q 25.25 34.859375 21.53125 33.890625 
L 22.515625 41.609375 
Q 23.390625 41.5 23.921875 41.5 
Q 29.546875 41.5 34.03125 44.421875 
Q 38.53125 47.359375 38.53125 53.46875 
Q 38.53125 58.296875 35.25 61.46875 
Q 31.984375 64.65625 26.8125 64.65625 
Q 21.6875 64.65625 18.265625 61.421875 
Q 14.84375 58.203125 13.875 51.765625 
L 5.078125 53.328125 
Q 6.6875 62.15625 12.390625 67.015625 
Q 18.109375 71.875 26.609375 71.875 
Q 32.46875 71.875 37.390625 69.359375 
Q 42.328125 66.84375 44.9375 62.5 
Q 47.5625 58.15625 47.5625 53.265625 
Q 47.5625 48.640625 45.0625 44.828125 
Q 42.578125 41.015625 37.703125 38.765625 
Q 44.046875 37.3125 47.5625 32.6875 
Q 51.078125 28.078125 51.078125 21.140625 
Q 51.078125 11.765625 44.234375 5.25 
Q 37.40625 -1.265625 26.953125 -1.265625 
Q 17.53125 -1.265625 11.296875 4.34375 
Q 5.078125 9.96875 4.203125 18.890625 
" id="ArialMT-33"/>
      </defs>
      <g style="fill:#262626;" transform="translate(92.1025 128.968125)scale(0.08 -0.08)">
       <use xlink:href="#ArialMT-33"/>
       <use x="55.615234375" xlink:href="#ArialMT-30"/>
      </g>
     </g>
    </g>
    <g id="ytick_8">
     <g id="line2d_34">
      <path clip-path="url(#p1072bf764b)" d="M 108 85.05 
L 777.6 85.05 
" style="fill:none;stroke:#ffffff;stroke-linecap:round;"/>
     </g>
     <g id="line2d_35">
      <g>
       <use style="fill:#262626;stroke:#262626;" x="108.0" xlink:href="#m4e12cc692a" y="85.05"/>
      </g>
     </g>
     <g id="line2d_36">
      <g>
       <use style="fill:#262626;stroke:#262626;" x="777.6" xlink:href="#m4e12cc692a" y="85.05"/>
      </g>
     </g>
     <g id="text_12">
      <!-- 35 -->
      <g style="fill:#262626;" transform="translate(92.1025 87.118125)scale(0.08 -0.08)">
       <use xlink:href="#ArialMT-33"/>
       <use x="55.615234375" xlink:href="#ArialMT-35"/>
      </g>
     </g>
    </g>
    <g id="ytick_9">
     <g id="line2d_37">
      <path clip-path="url(#p1072bf764b)" d="M 108 43.2 
L 777.6 43.2 
" style="fill:none;stroke:#ffffff;stroke-linecap:round;"/>
     </g>
     <g id="line2d_38">
      <g>
       <use style="fill:#262626;stroke:#262626;" x="108.0" xlink:href="#m4e12cc692a" y="43.2"/>
      </g>
     </g>
     <g id="line2d_39">
      <g>
       <use style="fill:#262626;stroke:#262626;" x="777.6" xlink:href="#m4e12cc692a" y="43.2"/>
      </g>
     </g>
     <g id="text_13">
      <!-- 40 -->
      <defs>
       <path d="M 32.328125 0 
L 32.328125 17.140625 
L 1.265625 17.140625 
L 1.265625 25.203125 
L 33.9375 71.578125 
L 41.109375 71.578125 
L 41.109375 25.203125 
L 50.78125 25.203125 
L 50.78125 17.140625 
L 41.109375 17.140625 
L 41.109375 0 
z
M 32.328125 25.203125 
L 32.328125 57.46875 
L 9.90625 25.203125 
z
" id="ArialMT-34"/>
      </defs>
      <g style="fill:#262626;" transform="translate(92.1025 45.268125)scale(0.08 -0.08)">
       <use xlink:href="#ArialMT-34"/>
       <use x="55.615234375" xlink:href="#ArialMT-30"/>
      </g>
     </g>
    </g>
   </g>
   <g id="PolyCollection_1">
    <defs>
     <path d="M 274.479493 -62.37 
L 209.360507 -62.37 
L 208.44 -65.329091 
L 210.650103 -68.288182 
L 212.98783 -71.247273 
L 216.054997 -74.206364 
L 218.463109 -77.165455 
L 220.379431 -80.124545 
L 222.602548 -83.083636 
L 224.193879 -86.042727 
L 225.790644 -89.001818 
L 227.733303 -91.960909 
L 229.139647 -94.92 
L 230.474202 -97.879091 
L 231.778851 -100.838182 
L 232.616057 -103.797273 
L 233.440296 -106.756364 
L 234.141711 -109.715455 
L 234.683343 -112.674545 
L 235.545392 -115.633636 
L 236.383313 -118.592727 
L 236.945556 -121.551818 
L 237.422107 -124.510909 
L 237.721222 -127.47 
L 238.05151 -130.429091 
L 238.572939 -133.388182 
L 238.992283 -136.347273 
L 239.289845 -139.306364 
L 239.51916 -142.265455 
L 239.63434 -145.224545 
L 239.775483 -148.183636 
L 239.928798 -151.142727 
L 240.044507 -154.101818 
L 240.248593 -157.060909 
L 240.478055 -160.02 
L 240.644932 -162.979091 
L 240.804442 -165.938182 
L 240.924022 -168.897273 
L 240.997082 -171.856364 
L 241.062187 -174.815455 
L 241.097735 -177.774545 
L 241.147812 -180.733636 
L 241.23771 -183.692727 
L 241.311935 -186.651818 
L 241.379683 -189.610909 
L 241.450425 -192.57 
L 241.500913 -195.529091 
L 241.551843 -198.488182 
L 241.604603 -201.447273 
L 241.648151 -204.406364 
L 241.70289 -207.365455 
L 241.760499 -210.324545 
L 241.795897 -213.283636 
L 241.808742 -216.242727 
L 241.806413 -219.201818 
L 241.800197 -222.160909 
L 241.795095 -225.12 
L 241.790699 -228.079091 
L 241.803371 -231.038182 
L 241.837344 -233.997273 
L 241.867354 -236.956364 
L 241.875459 -239.915455 
L 241.865227 -242.874545 
L 241.852911 -245.833636 
L 241.852608 -248.792727 
L 241.860073 -251.751818 
L 241.867657 -254.710909 
L 241.876854 -257.67 
L 241.885854 -260.629091 
L 241.891319 -263.588182 
L 241.893976 -266.547273 
L 241.894765 -269.506364 
L 241.896317 -272.465455 
L 241.900065 -275.424545 
L 241.902623 -278.383636 
L 241.900818 -281.342727 
L 241.894513 -284.301818 
L 241.889007 -287.260909 
L 241.892491 -290.22 
L 241.903832 -293.179091 
L 241.9139 -296.138182 
L 241.918536 -299.097273 
L 241.919777 -302.056364 
L 241.919972 -305.015455 
L 241.919933 -307.974545 
L 241.919556 -310.933636 
L 241.918106 -313.892727 
L 241.914872 -316.851818 
L 241.911198 -319.810909 
L 241.91042 -322.77 
L 241.91339 -325.729091 
L 241.917108 -328.688182 
L 241.919198 -331.647273 
L 241.919859 -334.606364 
L 241.919982 -337.565455 
L 241.919966 -340.524545 
L 241.919744 -343.483636 
L 241.918739 -346.442727 
L 241.916062 -349.401818 
L 241.912199 -352.360909 
L 241.910202 -355.32 
L 241.929798 -355.32 
L 241.929798 -355.32 
L 241.927801 -352.360909 
L 241.923938 -349.401818 
L 241.921261 -346.442727 
L 241.920256 -343.483636 
L 241.920034 -340.524545 
L 241.920018 -337.565455 
L 241.920141 -334.606364 
L 241.920802 -331.647273 
L 241.922892 -328.688182 
L 241.92661 -325.729091 
L 241.92958 -322.77 
L 241.928802 -319.810909 
L 241.925128 -316.851818 
L 241.921894 -313.892727 
L 241.920444 -310.933636 
L 241.920067 -307.974545 
L 241.920028 -305.015455 
L 241.920223 -302.056364 
L 241.921464 -299.097273 
L 241.9261 -296.138182 
L 241.936168 -293.179091 
L 241.947509 -290.22 
L 241.950993 -287.260909 
L 241.945487 -284.301818 
L 241.939182 -281.342727 
L 241.937377 -278.383636 
L 241.939935 -275.424545 
L 241.943683 -272.465455 
L 241.945235 -269.506364 
L 241.946024 -266.547273 
L 241.948681 -263.588182 
L 241.954146 -260.629091 
L 241.963146 -257.67 
L 241.972343 -254.710909 
L 241.979927 -251.751818 
L 241.987392 -248.792727 
L 241.987089 -245.833636 
L 241.974773 -242.874545 
L 241.964541 -239.915455 
L 241.972646 -236.956364 
L 242.002656 -233.997273 
L 242.036629 -231.038182 
L 242.049301 -228.079091 
L 242.044905 -225.12 
L 242.039803 -222.160909 
L 242.033587 -219.201818 
L 242.031258 -216.242727 
L 242.044103 -213.283636 
L 242.079501 -210.324545 
L 242.13711 -207.365455 
L 242.191849 -204.406364 
L 242.235397 -201.447273 
L 242.288157 -198.488182 
L 242.339087 -195.529091 
L 242.389575 -192.57 
L 242.460317 -189.610909 
L 242.528065 -186.651818 
L 242.60229 -183.692727 
L 242.692188 -180.733636 
L 242.742265 -177.774545 
L 242.777813 -174.815455 
L 242.842918 -171.856364 
L 242.915978 -168.897273 
L 243.035558 -165.938182 
L 243.195068 -162.979091 
L 243.361945 -160.02 
L 243.591407 -157.060909 
L 243.795493 -154.101818 
L 243.911202 -151.142727 
L 244.064517 -148.183636 
L 244.20566 -145.224545 
L 244.32084 -142.265455 
L 244.550155 -139.306364 
L 244.847717 -136.347273 
L 245.267061 -133.388182 
L 245.78849 -130.429091 
L 246.118778 -127.47 
L 246.417893 -124.510909 
L 246.894444 -121.551818 
L 247.456687 -118.592727 
L 248.294608 -115.633636 
L 249.156657 -112.674545 
L 249.698289 -109.715455 
L 250.399704 -106.756364 
L 251.223943 -103.797273 
L 252.061149 -100.838182 
L 253.365798 -97.879091 
L 254.700353 -94.92 
L 256.106697 -91.960909 
L 258.049356 -89.001818 
L 259.646121 -86.042727 
L 261.237452 -83.083636 
L 263.460569 -80.124545 
L 265.376891 -77.165455 
L 267.785003 -74.206364 
L 270.85217 -71.247273 
L 273.189897 -68.288182 
L 275.4 -65.329091 
L 274.479493 -62.37 
z
" id="mecfc601059" style="stroke:#000000;stroke-opacity:0.3;stroke-width:0.3;"/>
    </defs>
    <g clip-path="url(#p1072bf764b)">
     <use style="fill:#bfbf00;fill-opacity:0.3;stroke:#000000;stroke-opacity:0.3;stroke-width:0.3;" x="0.0" xlink:href="#mecfc601059" y="432.0"/>
    </g>
   </g>
   <g id="PolyCollection_2">
    <defs>
     <path d="M 408.2525 -62.37 
L 343.4275 -62.37 
L 342.36 -65.329091 
L 344.615098 -68.288182 
L 347.160315 -71.247273 
L 350.252948 -74.206364 
L 352.763806 -77.165455 
L 354.772507 -80.124545 
L 356.934792 -83.083636 
L 358.553865 -86.042727 
L 360.136433 -89.001818 
L 361.965821 -91.960909 
L 363.334266 -94.92 
L 364.571985 -97.879091 
L 365.717973 -100.838182 
L 366.461449 -103.797273 
L 367.177523 -106.756364 
L 367.78028 -109.715455 
L 368.278628 -112.674545 
L 369.087288 -115.633636 
L 369.901256 -118.592727 
L 370.513999 -121.551818 
L 371.099288 -124.510909 
L 371.534857 -127.47 
L 371.92124 -130.429091 
L 372.389753 -133.388182 
L 372.761847 -136.347273 
L 373.082406 -139.306364 
L 373.400198 -142.265455 
L 373.625475 -145.224545 
L 373.8408 -148.183636 
L 374.046838 -151.142727 
L 374.183026 -154.101818 
L 374.312342 -157.060909 
L 374.415106 -160.02 
L 374.490754 -162.979091 
L 374.604371 -165.938182 
L 374.710149 -168.897273 
L 374.804576 -171.856364 
L 374.927684 -174.815455 
L 375.032051 -177.774545 
L 375.113568 -180.733636 
L 375.193116 -183.692727 
L 375.255815 -186.651818 
L 375.332241 -189.610909 
L 375.428521 -192.57 
L 375.494104 -195.529091 
L 375.510639 -198.488182 
L 375.489371 -201.447273 
L 375.468368 -204.406364 
L 375.486418 -207.365455 
L 375.523463 -210.324545 
L 375.560043 -213.283636 
L 375.605954 -216.242727 
L 375.648823 -219.201818 
L 375.677175 -222.160909 
L 375.69585 -225.12 
L 375.705868 -228.079091 
L 375.714464 -231.038182 
L 375.725708 -233.997273 
L 375.736113 -236.956364 
L 375.751665 -239.915455 
L 375.772502 -242.874545 
L 375.786384 -245.833636 
L 375.787291 -248.792727 
L 375.779249 -251.751818 
L 375.775381 -254.710909 
L 375.786768 -257.67 
L 375.806004 -260.629091 
L 375.81981 -263.588182 
L 375.825602 -266.547273 
L 375.8269 -269.506364 
L 375.827 -272.465455 
L 375.826924 -275.424545 
L 375.825502 -278.383636 
L 375.821495 -281.342727 
L 375.814691 -284.301818 
L 375.809447 -287.260909 
L 375.812858 -290.22 
L 375.823744 -293.179091 
L 375.833632 -296.138182 
L 375.838384 -299.097273 
L 375.839735 -302.056364 
L 375.839972 -305.015455 
L 375.839998 -307.974545 
L 375.84 -310.933636 
L 375.84 -313.892727 
L 375.84 -316.851818 
L 375.84 -319.810909 
L 375.84 -322.77 
L 375.84 -325.729091 
L 375.839998 -328.688182 
L 375.839972 -331.647273 
L 375.839787 -334.606364 
L 375.838933 -337.565455 
L 375.836536 -340.524545 
L 375.832595 -343.483636 
L 375.829113 -346.442727 
L 375.827728 -349.401818 
L 375.827658 -352.360909 
L 375.828723 -355.32 
L 375.851277 -355.32 
L 375.851277 -355.32 
L 375.852342 -352.360909 
L 375.852272 -349.401818 
L 375.850887 -346.442727 
L 375.847405 -343.483636 
L 375.843464 -340.524545 
L 375.841067 -337.565455 
L 375.840213 -334.606364 
L 375.840028 -331.647273 
L 375.840002 -328.688182 
L 375.84 -325.729091 
L 375.84 -322.77 
L 375.84 -319.810909 
L 375.84 -316.851818 
L 375.84 -313.892727 
L 375.84 -310.933636 
L 375.840002 -307.974545 
L 375.840028 -305.015455 
L 375.840265 -302.056364 
L 375.841616 -299.097273 
L 375.846368 -296.138182 
L 375.856256 -293.179091 
L 375.867142 -290.22 
L 375.870553 -287.260909 
L 375.865309 -284.301818 
L 375.858505 -281.342727 
L 375.854498 -278.383636 
L 375.853076 -275.424545 
L 375.853 -272.465455 
L 375.8531 -269.506364 
L 375.854398 -266.547273 
L 375.86019 -263.588182 
L 375.873996 -260.629091 
L 375.893232 -257.67 
L 375.904619 -254.710909 
L 375.900751 -251.751818 
L 375.892709 -248.792727 
L 375.893616 -245.833636 
L 375.907498 -242.874545 
L 375.928335 -239.915455 
L 375.943887 -236.956364 
L 375.954292 -233.997273 
L 375.965536 -231.038182 
L 375.974132 -228.079091 
L 375.98415 -225.12 
L 376.002825 -222.160909 
L 376.031177 -219.201818 
L 376.074046 -216.242727 
L 376.119957 -213.283636 
L 376.156537 -210.324545 
L 376.193582 -207.365455 
L 376.211632 -204.406364 
L 376.190629 -201.447273 
L 376.169361 -198.488182 
L 376.185896 -195.529091 
L 376.251479 -192.57 
L 376.347759 -189.610909 
L 376.424185 -186.651818 
L 376.486884 -183.692727 
L 376.566432 -180.733636 
L 376.647949 -177.774545 
L 376.752316 -174.815455 
L 376.875424 -171.856364 
L 376.969851 -168.897273 
L 377.075629 -165.938182 
L 377.189246 -162.979091 
L 377.264894 -160.02 
L 377.367658 -157.060909 
L 377.496974 -154.101818 
L 377.633162 -151.142727 
L 377.8392 -148.183636 
L 378.054525 -145.224545 
L 378.279802 -142.265455 
L 378.597594 -139.306364 
L 378.918153 -136.347273 
L 379.290247 -133.388182 
L 379.75876 -130.429091 
L 380.145143 -127.47 
L 380.580712 -124.510909 
L 381.166001 -121.551818 
L 381.778744 -118.592727 
L 382.592712 -115.633636 
L 383.401372 -112.674545 
L 383.89972 -109.715455 
L 384.502477 -106.756364 
L 385.218551 -103.797273 
L 385.962027 -100.838182 
L 387.108015 -97.879091 
L 388.345734 -94.92 
L 389.714179 -91.960909 
L 391.543567 -89.001818 
L 393.126135 -86.042727 
L 394.745208 -83.083636 
L 396.907493 -80.124545 
L 398.916194 -77.165455 
L 401.427052 -74.206364 
L 404.519685 -71.247273 
L 407.064902 -68.288182 
L 409.32 -65.329091 
L 408.2525 -62.37 
z
" id="m82f34e213d" style="stroke:#000000;stroke-opacity:0.3;stroke-width:0.3;"/>
    </defs>
    <g clip-path="url(#p1072bf764b)">
     <use style="fill:#bfbf00;fill-opacity:0.3;stroke:#000000;stroke-opacity:0.3;stroke-width:0.3;" x="0.0" xlink:href="#m82f34e213d" y="432.0"/>
    </g>
   </g>
   <g id="PolyCollection_3">
    <defs>
     <path d="M 542.230131 -62.37 
L 477.289869 -62.37 
L 476.28 -64.990909 
L 478.396754 -67.611818 
L 480.66928 -70.232727 
L 483.157035 -72.853636 
L 485.547315 -75.474545 
L 487.253954 -78.095455 
L 489.096495 -80.716364 
L 491.220992 -83.337273 
L 492.846516 -85.958182 
L 494.22026 -88.579091 
L 495.657957 -91.2 
L 496.754819 -93.820909 
L 497.737273 -96.441818 
L 499.006576 -99.062727 
L 500.145375 -101.683636 
L 500.943299 -104.304545 
L 501.648575 -106.925455 
L 502.170774 -109.546364 
L 502.529995 -112.167273 
L 503.058412 -114.788182 
L 503.662323 -117.409091 
L 504.121688 -120.03 
L 504.601207 -122.650909 
L 505.126246 -125.271818 
L 505.53254 -127.892727 
L 505.924359 -130.513636 
L 506.382843 -133.134545 
L 506.764784 -135.755455 
L 507.07171 -138.376364 
L 507.387366 -140.997273 
L 507.646601 -143.618182 
L 507.835468 -146.239091 
L 508.021766 -148.86 
L 508.175672 -151.480909 
L 508.277759 -154.101818 
L 508.38098 -156.722727 
L 508.474215 -159.343636 
L 508.54246 -161.964545 
L 508.641221 -164.585455 
L 508.766727 -167.206364 
L 508.858465 -169.827273 
L 508.912847 -172.448182 
L 508.940934 -175.069091 
L 508.946228 -177.69 
L 508.978812 -180.310909 
L 509.064932 -182.931818 
L 509.155609 -185.552727 
L 509.219128 -188.173636 
L 509.2644 -190.794545 
L 509.291145 -193.415455 
L 509.312271 -196.036364 
L 509.353638 -198.657273 
L 509.405756 -201.278182 
L 509.449555 -203.899091 
L 509.491984 -206.52 
L 509.532976 -209.140909 
L 509.554816 -211.761818 
L 509.54777 -214.382727 
L 509.514301 -217.003636 
L 509.478264 -219.624545 
L 509.484256 -222.245455 
L 509.545485 -224.866364 
L 509.621581 -227.487273 
L 509.67106 -230.108182 
L 509.687012 -232.729091 
L 509.682464 -235.35 
L 509.672743 -237.970909 
L 509.665423 -240.591818 
L 509.659264 -243.212727 
L 509.658062 -245.833636 
L 509.670915 -248.454545 
L 509.694637 -251.075455 
L 509.715444 -253.696364 
L 509.725908 -256.317273 
L 509.727737 -258.938182 
L 509.726293 -261.559091 
L 509.727536 -264.18 
L 509.733098 -266.800909 
L 509.7389 -269.421818 
L 509.740672 -272.042727 
L 509.737322 -274.663636 
L 509.731021 -277.284545 
L 509.726667 -279.905455 
L 509.727245 -282.526364 
L 509.730697 -285.147273 
L 509.734962 -287.768182 
L 509.741012 -290.389091 
L 509.748596 -293.01 
L 509.754938 -295.630909 
L 509.758387 -298.251818 
L 509.759634 -300.872727 
L 509.759938 -303.493636 
L 509.759956 -306.114545 
L 509.759751 -308.735455 
L 509.758815 -311.356364 
L 509.75601 -313.977273 
L 509.750503 -316.598182 
L 509.744022 -319.219091 
L 509.740996 -321.84 
L 509.779004 -321.84 
L 509.779004 -321.84 
L 509.775978 -319.219091 
L 509.769497 -316.598182 
L 509.76399 -313.977273 
L 509.761185 -311.356364 
L 509.760249 -308.735455 
L 509.760044 -306.114545 
L 509.760062 -303.493636 
L 509.760366 -300.872727 
L 509.761613 -298.251818 
L 509.765062 -295.630909 
L 509.771404 -293.01 
L 509.778988 -290.389091 
L 509.785038 -287.768182 
L 509.789303 -285.147273 
L 509.792755 -282.526364 
L 509.793333 -279.905455 
L 509.788979 -277.284545 
L 509.782678 -274.663636 
L 509.779328 -272.042727 
L 509.7811 -269.421818 
L 509.786902 -266.800909 
L 509.792464 -264.18 
L 509.793707 -261.559091 
L 509.792263 -258.938182 
L 509.794092 -256.317273 
L 509.804556 -253.696364 
L 509.825363 -251.075455 
L 509.849085 -248.454545 
L 509.861938 -245.833636 
L 509.860736 -243.212727 
L 509.854577 -240.591818 
L 509.847257 -237.970909 
L 509.837536 -235.35 
L 509.832988 -232.729091 
L 509.84894 -230.108182 
L 509.898419 -227.487273 
L 509.974515 -224.866364 
L 510.035744 -222.245455 
L 510.041736 -219.624545 
L 510.005699 -217.003636 
L 509.97223 -214.382727 
L 509.965184 -211.761818 
L 509.987024 -209.140909 
L 510.028016 -206.52 
L 510.070445 -203.899091 
L 510.114244 -201.278182 
L 510.166362 -198.657273 
L 510.207729 -196.036364 
L 510.228855 -193.415455 
L 510.2556 -190.794545 
L 510.300872 -188.173636 
L 510.364391 -185.552727 
L 510.455068 -182.931818 
L 510.541188 -180.310909 
L 510.573772 -177.69 
L 510.579066 -175.069091 
L 510.607153 -172.448182 
L 510.661535 -169.827273 
L 510.753273 -167.206364 
L 510.878779 -164.585455 
L 510.97754 -161.964545 
L 511.045785 -159.343636 
L 511.13902 -156.722727 
L 511.242241 -154.101818 
L 511.344328 -151.480909 
L 511.498234 -148.86 
L 511.684532 -146.239091 
L 511.873399 -143.618182 
L 512.132634 -140.997273 
L 512.44829 -138.376364 
L 512.755216 -135.755455 
L 513.137157 -133.134545 
L 513.595641 -130.513636 
L 513.98746 -127.892727 
L 514.393754 -125.271818 
L 514.918793 -122.650909 
L 515.398312 -120.03 
L 515.857677 -117.409091 
L 516.461588 -114.788182 
L 516.990005 -112.167273 
L 517.349226 -109.546364 
L 517.871425 -106.925455 
L 518.576701 -104.304545 
L 519.374625 -101.683636 
L 520.513424 -99.062727 
L 521.782727 -96.441818 
L 522.765181 -93.820909 
L 523.862043 -91.2 
L 525.29974 -88.579091 
L 526.673484 -85.958182 
L 528.299008 -83.337273 
L 530.423505 -80.716364 
L 532.266046 -78.095455 
L 533.972685 -75.474545 
L 536.362965 -72.853636 
L 538.85072 -70.232727 
L 541.123246 -67.611818 
L 543.24 -64.990909 
L 542.230131 -62.37 
z
" id="m0a70e0d835" style="stroke:#000000;stroke-opacity:0.3;stroke-width:0.3;"/>
    </defs>
    <g clip-path="url(#p1072bf764b)">
     <use style="fill:#bfbf00;fill-opacity:0.3;stroke:#000000;stroke-opacity:0.3;stroke-width:0.3;" x="0.0" xlink:href="#m0a70e0d835" y="432.0"/>
    </g>
   </g>
   <g id="PolyCollection_4">
    <defs>
     <path d="M 676.758444 -62.37 
L 610.601556 -62.37 
L 610.2 -65.667273 
L 613.242789 -68.964545 
L 616.217155 -72.261818 
L 619.142187 -75.559091 
L 621.081511 -78.856364 
L 623.604928 -82.153636 
L 625.928221 -85.450909 
L 627.854386 -88.748182 
L 630.029782 -92.045455 
L 631.543597 -95.342727 
L 632.912637 -98.64 
L 633.983194 -101.937273 
L 634.744438 -105.234545 
L 635.619858 -108.531818 
L 636.245385 -111.829091 
L 637.106968 -115.126364 
L 638.041794 -118.423636 
L 638.669686 -121.720909 
L 639.196442 -125.018182 
L 639.527208 -128.315455 
L 639.977326 -131.612727 
L 640.518067 -134.91 
L 640.918852 -138.207273 
L 641.313313 -141.504545 
L 641.589592 -144.801818 
L 641.791894 -148.099091 
L 641.951893 -151.396364 
L 642.053739 -154.693636 
L 642.20991 -157.990909 
L 642.34231 -161.288182 
L 642.490135 -164.585455 
L 642.673293 -167.882727 
L 642.793578 -171.18 
L 642.875066 -174.477273 
L 642.918325 -177.774545 
L 642.984551 -181.071818 
L 643.098353 -184.369091 
L 643.186643 -187.666364 
L 643.255887 -190.963636 
L 643.299244 -194.260909 
L 643.313937 -197.558182 
L 643.311498 -200.855455 
L 643.308368 -204.152727 
L 643.356969 -207.45 
L 643.428095 -210.747273 
L 643.472965 -214.044545 
L 643.49435 -217.341818 
L 643.502707 -220.639091 
L 643.521119 -223.936364 
L 643.543979 -227.233636 
L 643.556013 -230.530909 
L 643.559175 -233.828182 
L 643.557563 -237.125455 
L 643.567963 -240.422727 
L 643.587802 -243.72 
L 643.607392 -247.017273 
L 643.632052 -250.314545 
L 643.65454 -253.611818 
L 643.6676 -256.909091 
L 643.6745 -260.206364 
L 643.676725 -263.503636 
L 643.674292 -266.800909 
L 643.670055 -270.098182 
L 643.667826 -273.395455 
L 643.66707 -276.692727 
L 643.66549 -279.99 
L 643.662358 -283.287273 
L 643.658925 -286.584545 
L 643.660956 -289.881818 
L 643.669206 -293.179091 
L 643.676411 -296.476364 
L 643.679312 -299.773636 
L 643.679923 -303.070909 
L 643.679974 -306.368182 
L 643.679783 -309.665455 
L 643.678715 -312.962727 
L 643.675639 -316.26 
L 643.671525 -319.557273 
L 643.67055 -322.854545 
L 643.673801 -326.151818 
L 643.676657 -329.449091 
L 643.675437 -332.746364 
L 643.671273 -336.043636 
L 643.668258 -339.340909 
L 643.667636 -342.638182 
L 643.668147 -345.935455 
L 643.670997 -349.232727 
L 643.675573 -352.53 
L 643.67871 -355.827273 
L 643.679783 -359.124545 
L 643.679979 -362.421818 
L 643.679999 -365.719091 
L 643.68 -369.016364 
L 643.679991 -372.313636 
L 643.679888 -375.610909 
L 643.679211 -378.908182 
L 643.676823 -382.205455 
L 643.67267 -385.502727 
L 643.670315 -388.8 
L 643.689685 -388.8 
L 643.689685 -388.8 
L 643.68733 -385.502727 
L 643.683177 -382.205455 
L 643.680789 -378.908182 
L 643.680112 -375.610909 
L 643.680009 -372.313636 
L 643.68 -369.016364 
L 643.680001 -365.719091 
L 643.680021 -362.421818 
L 643.680217 -359.124545 
L 643.68129 -355.827273 
L 643.684427 -352.53 
L 643.689003 -349.232727 
L 643.691853 -345.935455 
L 643.692364 -342.638182 
L 643.691742 -339.340909 
L 643.688727 -336.043636 
L 643.684563 -332.746364 
L 643.683343 -329.449091 
L 643.686199 -326.151818 
L 643.68945 -322.854545 
L 643.688475 -319.557273 
L 643.684361 -316.26 
L 643.681285 -312.962727 
L 643.680217 -309.665455 
L 643.680026 -306.368182 
L 643.680077 -303.070909 
L 643.680688 -299.773636 
L 643.683589 -296.476364 
L 643.690794 -293.179091 
L 643.699044 -289.881818 
L 643.701075 -286.584545 
L 643.697642 -283.287273 
L 643.69451 -279.99 
L 643.69293 -276.692727 
L 643.692174 -273.395455 
L 643.689945 -270.098182 
L 643.685708 -266.800909 
L 643.683275 -263.503636 
L 643.6855 -260.206364 
L 643.6924 -256.909091 
L 643.70546 -253.611818 
L 643.727948 -250.314545 
L 643.752608 -247.017273 
L 643.772198 -243.72 
L 643.792037 -240.422727 
L 643.802437 -237.125455 
L 643.800825 -233.828182 
L 643.803987 -230.530909 
L 643.816021 -227.233636 
L 643.838881 -223.936364 
L 643.857293 -220.639091 
L 643.86565 -217.341818 
L 643.887035 -214.044545 
L 643.931905 -210.747273 
L 644.003031 -207.45 
L 644.051632 -204.152727 
L 644.048502 -200.855455 
L 644.046063 -197.558182 
L 644.060756 -194.260909 
L 644.104113 -190.963636 
L 644.173357 -187.666364 
L 644.261647 -184.369091 
L 644.375449 -181.071818 
L 644.441675 -177.774545 
L 644.484934 -174.477273 
L 644.566422 -171.18 
L 644.686707 -167.882727 
L 644.869865 -164.585455 
L 645.01769 -161.288182 
L 645.15009 -157.990909 
L 645.306261 -154.693636 
L 645.408107 -151.396364 
L 645.568106 -148.099091 
L 645.770408 -144.801818 
L 646.046687 -141.504545 
L 646.441148 -138.207273 
L 646.841933 -134.91 
L 647.382674 -131.612727 
L 647.832792 -128.315455 
L 648.163558 -125.018182 
L 648.690314 -121.720909 
L 649.318206 -118.423636 
L 650.253032 -115.126364 
L 651.114615 -111.829091 
L 651.740142 -108.531818 
L 652.615562 -105.234545 
L 653.376806 -101.937273 
L 654.447363 -98.64 
L 655.816403 -95.342727 
L 657.330218 -92.045455 
L 659.505614 -88.748182 
L 661.431779 -85.450909 
L 663.755072 -82.153636 
L 666.278489 -78.856364 
L 668.217813 -75.559091 
L 671.142845 -72.261818 
L 674.117211 -68.964545 
L 677.16 -65.667273 
L 676.758444 -62.37 
z
" id="m29d6121fea" style="stroke:#000000;stroke-opacity:0.3;stroke-width:0.3;"/>
    </defs>
    <g clip-path="url(#p1072bf764b)">
     <use style="fill:#bfbf00;fill-opacity:0.3;stroke:#000000;stroke-opacity:0.3;stroke-width:0.3;" x="0.0" xlink:href="#m29d6121fea" y="432.0"/>
    </g>
   </g>
   <g id="LineCollection_1">
    <path clip-path="url(#p1072bf764b)" d="M 225.18 352.89 
L 258.66 352.89 
" style="fill:none;stroke:#ff0000;stroke-width:1.75;"/>
    <path clip-path="url(#p1072bf764b)" d="M 359.1 352.89 
L 392.58 352.89 
" style="fill:none;stroke:#ff0000;stroke-width:1.75;"/>
    <path clip-path="url(#p1072bf764b)" d="M 493.02 352.89 
L 526.5 352.89 
" style="fill:none;stroke:#ff0000;stroke-width:1.75;"/>
    <path clip-path="url(#p1072bf764b)" d="M 626.94 352.89 
L 660.42 352.89 
" style="fill:none;stroke:#ff0000;stroke-width:1.75;"/>
   </g>
   <g id="patch_3">
    <path d="M 108 43.2 
L 777.6 43.2 
" style="fill:none;"/>
   </g>
   <g id="patch_4">
    <path d="M 108 378 
L 777.6 378 
" style="fill:none;"/>
   </g>
   <g id="patch_5">
    <path d="M 777.6 378 
L 777.6 43.2 
" style="fill:none;"/>
   </g>
   <g id="patch_6">
    <path d="M 108 378 
L 108 43.2 
" style="fill:none;"/>
   </g>
  </g>
 </g>
 <defs>
  <clipPath id="p1072bf764b">
   <rect height="334.8" width="669.6" x="108.0" y="43.2"/>
  </clipPath>
 </defs>
</svg>
