<?xml version="1.0" encoding="utf-8" standalone="no"?>
<!DOCTYPE svg PUBLIC "-//W3C//DTD SVG 1.1//EN"
  "http://www.w3.org/Graphics/SVG/1.1/DTD/svg11.dtd">
<!-- Created with matplotlib (http://matplotlib.org/) -->
<svg height="288pt" version="1.1" viewBox="0 0 432 288" width="432pt" xmlns="http://www.w3.org/2000/svg" xmlns:xlink="http://www.w3.org/1999/xlink">
 <defs>
  <style type="text/css">
*{stroke-linecap:butt;stroke-linejoin:round;stroke-miterlimit:100000;}
  </style>
 </defs>
 <g id="figure_1">
  <g id="patch_1">
   <path d="M 0 288 
L 432 288 
L 432 0 
L 0 0 
z
" style="fill:#ffffff;"/>
  </g>
  <g id="axes_1">
   <g id="patch_2">
    <path d="M 54 252 
L 388.8 252 
L 388.8 28.8 
L 54 28.8 
z
" style="fill:#eaeaf2;"/>
   </g>
   <g id="matplotlib.axis_1">
    <g id="xtick_1">
     <g id="line2d_1">
      <path clip-path="url(#pcce7aca6db)" d="M 54 252 
L 54 28.8 
" style="fill:none;stroke:#ffffff;stroke-linecap:round;"/>
     </g>
     <g id="line2d_2">
      <defs>
       <path d="M 0 0 
L 0 0 
" id="m9d7e1720c1" style="stroke:#262626;"/>
      </defs>
      <g>
       <use style="fill:#262626;stroke:#262626;" x="54.0" xlink:href="#m9d7e1720c1" y="252.0"/>
      </g>
     </g>
     <g id="line2d_3">
      <g>
       <use style="fill:#262626;stroke:#262626;" x="54.0" xlink:href="#m9d7e1720c1" y="28.8"/>
      </g>
     </g>
     <g id="text_1">
      <!-- $\mathdefault{10^{0}}$ -->
      <defs>
       <path d="M 37.25 0 
L 28.46875 0 
L 28.46875 56 
Q 25.296875 52.984375 20.140625 49.953125 
Q 14.984375 46.921875 10.890625 45.40625 
L 10.890625 53.90625 
Q 18.265625 57.375 23.78125 62.296875 
Q 29.296875 67.234375 31.59375 71.875 
L 37.25 71.875 
z
" id="ArialMT-31"/>
       <path d="M 4.15625 35.296875 
Q 4.15625 48 6.765625 55.734375 
Q 9.375 63.484375 14.515625 67.671875 
Q 19.671875 71.875 27.484375 71.875 
Q 33.25 71.875 37.59375 69.546875 
Q 41.9375 67.234375 44.765625 62.859375 
Q 47.609375 58.5 49.21875 52.21875 
Q 50.828125 45.953125 50.828125 35.296875 
Q 50.828125 22.703125 48.234375 14.96875 
Q 45.65625 7.234375 40.5 3 
Q 35.359375 -1.21875 27.484375 -1.21875 
Q 17.140625 -1.21875 11.234375 6.203125 
Q 4.15625 15.140625 4.15625 35.296875 
M 13.1875 35.296875 
Q 13.1875 17.671875 17.3125 11.828125 
Q 21.4375 6 27.484375 6 
Q 33.546875 6 37.671875 11.859375 
Q 41.796875 17.71875 41.796875 35.296875 
Q 41.796875 52.984375 37.671875 58.78125 
Q 33.546875 64.59375 27.390625 64.59375 
Q 21.34375 64.59375 17.71875 59.46875 
Q 13.1875 52.9375 13.1875 35.296875 
" id="ArialMT-30"/>
      </defs>
      <g style="fill:#262626;" transform="translate(45.85 266.8125)scale(0.1 -0.1)">
       <use transform="translate(0.0 0.8843750000000057)" xlink:href="#ArialMT-31"/>
       <use transform="translate(55.615234375 0.8843750000000057)" xlink:href="#ArialMT-30"/>
       <use transform="translate(116.4575 45.68750000000001)scale(0.7)" xlink:href="#ArialMT-30"/>
      </g>
     </g>
    </g>
    <g id="xtick_2">
     <g id="line2d_4">
      <path clip-path="url(#pcce7aca6db)" d="M 221.4 252 
L 221.4 28.8 
" style="fill:none;stroke:#ffffff;stroke-linecap:round;"/>
     </g>
     <g id="line2d_5">
      <g>
       <use style="fill:#262626;stroke:#262626;" x="221.4" xlink:href="#m9d7e1720c1" y="252.0"/>
      </g>
     </g>
     <g id="line2d_6">
      <g>
       <use style="fill:#262626;stroke:#262626;" x="221.4" xlink:href="#m9d7e1720c1" y="28.8"/>
      </g>
     </g>
     <g id="text_2">
      <!-- $\mathdefault{10^{1}}$ -->
      <g style="fill:#262626;" transform="translate(213.25 266.8125)scale(0.1 -0.1)">
       <use transform="translate(0.0 0.8843750000000057)" xlink:href="#ArialMT-31"/>
       <use transform="translate(55.615234375 0.8843750000000057)" xlink:href="#ArialMT-30"/>
       <use transform="translate(116.4575 45.68750000000001)scale(0.7)" xlink:href="#ArialMT-31"/>
      </g>
     </g>
    </g>
    <g id="xtick_3">
     <g id="line2d_7">
      <path clip-path="url(#pcce7aca6db)" d="M 388.8 252 
L 388.8 28.8 
" style="fill:none;stroke:#ffffff;stroke-linecap:round;"/>
     </g>
     <g id="line2d_8">
      <g>
       <use style="fill:#262626;stroke:#262626;" x="388.8" xlink:href="#m9d7e1720c1" y="252.0"/>
      </g>
     </g>
     <g id="line2d_9">
      <g>
       <use style="fill:#262626;stroke:#262626;" x="388.8" xlink:href="#m9d7e1720c1" y="28.8"/>
      </g>
     </g>
     <g id="text_3">
      <!-- $\mathdefault{10^{2}}$ -->
      <defs>
       <path d="M 50.34375 8.453125 
L 50.34375 0 
L 3.03125 0 
Q 2.9375 3.171875 4.046875 6.109375 
Q 5.859375 10.9375 9.828125 15.625 
Q 13.8125 20.3125 21.34375 26.46875 
Q 33.015625 36.03125 37.109375 41.625 
Q 41.21875 47.21875 41.21875 52.203125 
Q 41.21875 57.421875 37.46875 61 
Q 33.734375 64.59375 27.734375 64.59375 
Q 21.390625 64.59375 17.578125 60.78125 
Q 13.765625 56.984375 13.71875 50.25 
L 4.6875 51.171875 
Q 5.609375 61.28125 11.65625 66.578125 
Q 17.71875 71.875 27.9375 71.875 
Q 38.234375 71.875 44.234375 66.15625 
Q 50.25 60.453125 50.25 52 
Q 50.25 47.703125 48.484375 43.546875 
Q 46.734375 39.40625 42.65625 34.8125 
Q 38.578125 30.21875 29.109375 22.21875 
Q 21.1875 15.578125 18.9375 13.203125 
Q 16.703125 10.84375 15.234375 8.453125 
z
" id="ArialMT-32"/>
      </defs>
      <g style="fill:#262626;" transform="translate(380.65 266.8125)scale(0.1 -0.1)">
       <use transform="translate(0.0 0.8843750000000057)" xlink:href="#ArialMT-31"/>
       <use transform="translate(55.615234375 0.8843750000000057)" xlink:href="#ArialMT-30"/>
       <use transform="translate(116.4575 45.68750000000001)scale(0.7)" xlink:href="#ArialMT-32"/>
      </g>
     </g>
    </g>
    <g id="xtick_4">
     <g id="line2d_10">
      <defs>
       <path d="M 0 0 
L 0 0 
" id="m6b2b6a75b7" style="stroke:#262626;stroke-width:0.5;"/>
      </defs>
      <g>
       <use style="fill:#262626;stroke:#262626;stroke-width:0.5;" x="104.392421274" xlink:href="#m6b2b6a75b7" y="252.0"/>
      </g>
     </g>
     <g id="line2d_11">
      <g>
       <use style="fill:#262626;stroke:#262626;stroke-width:0.5;" x="104.392421274" xlink:href="#m6b2b6a75b7" y="28.8"/>
      </g>
     </g>
    </g>
    <g id="xtick_5">
     <g id="line2d_12">
      <g>
       <use style="fill:#262626;stroke:#262626;stroke-width:0.5;" x="133.87009804" xlink:href="#m6b2b6a75b7" y="252.0"/>
      </g>
     </g>
     <g id="line2d_13">
      <g>
       <use style="fill:#262626;stroke:#262626;stroke-width:0.5;" x="133.87009804" xlink:href="#m6b2b6a75b7" y="28.8"/>
      </g>
     </g>
    </g>
    <g id="xtick_6">
     <g id="line2d_14">
      <g>
       <use style="fill:#262626;stroke:#262626;stroke-width:0.5;" x="154.784842548" xlink:href="#m6b2b6a75b7" y="252.0"/>
      </g>
     </g>
     <g id="line2d_15">
      <g>
       <use style="fill:#262626;stroke:#262626;stroke-width:0.5;" x="154.784842548" xlink:href="#m6b2b6a75b7" y="28.8"/>
      </g>
     </g>
    </g>
    <g id="xtick_7">
     <g id="line2d_16">
      <g>
       <use style="fill:#262626;stroke:#262626;stroke-width:0.5;" x="171.007578726" xlink:href="#m6b2b6a75b7" y="252.0"/>
      </g>
     </g>
     <g id="line2d_17">
      <g>
       <use style="fill:#262626;stroke:#262626;stroke-width:0.5;" x="171.007578726" xlink:href="#m6b2b6a75b7" y="28.8"/>
      </g>
     </g>
    </g>
    <g id="xtick_8">
     <g id="line2d_18">
      <g>
       <use style="fill:#262626;stroke:#262626;stroke-width:0.5;" x="184.262519314" xlink:href="#m6b2b6a75b7" y="252.0"/>
      </g>
     </g>
     <g id="line2d_19">
      <g>
       <use style="fill:#262626;stroke:#262626;stroke-width:0.5;" x="184.262519314" xlink:href="#m6b2b6a75b7" y="28.8"/>
      </g>
     </g>
    </g>
    <g id="xtick_9">
     <g id="line2d_20">
      <g>
       <use style="fill:#262626;stroke:#262626;stroke-width:0.5;" x="195.469411898" xlink:href="#m6b2b6a75b7" y="252.0"/>
      </g>
     </g>
     <g id="line2d_21">
      <g>
       <use style="fill:#262626;stroke:#262626;stroke-width:0.5;" x="195.469411898" xlink:href="#m6b2b6a75b7" y="28.8"/>
      </g>
     </g>
    </g>
    <g id="xtick_10">
     <g id="line2d_22">
      <g>
       <use style="fill:#262626;stroke:#262626;stroke-width:0.5;" x="205.177263822" xlink:href="#m6b2b6a75b7" y="252.0"/>
      </g>
     </g>
     <g id="line2d_23">
      <g>
       <use style="fill:#262626;stroke:#262626;stroke-width:0.5;" x="205.177263822" xlink:href="#m6b2b6a75b7" y="28.8"/>
      </g>
     </g>
    </g>
    <g id="xtick_11">
     <g id="line2d_24">
      <g>
       <use style="fill:#262626;stroke:#262626;stroke-width:0.5;" x="213.74019608" xlink:href="#m6b2b6a75b7" y="252.0"/>
      </g>
     </g>
     <g id="line2d_25">
      <g>
       <use style="fill:#262626;stroke:#262626;stroke-width:0.5;" x="213.74019608" xlink:href="#m6b2b6a75b7" y="28.8"/>
      </g>
     </g>
    </g>
    <g id="xtick_12">
     <g id="line2d_26">
      <g>
       <use style="fill:#262626;stroke:#262626;stroke-width:0.5;" x="271.792421274" xlink:href="#m6b2b6a75b7" y="252.0"/>
      </g>
     </g>
     <g id="line2d_27">
      <g>
       <use style="fill:#262626;stroke:#262626;stroke-width:0.5;" x="271.792421274" xlink:href="#m6b2b6a75b7" y="28.8"/>
      </g>
     </g>
    </g>
    <g id="xtick_13">
     <g id="line2d_28">
      <g>
       <use style="fill:#262626;stroke:#262626;stroke-width:0.5;" x="301.27009804" xlink:href="#m6b2b6a75b7" y="252.0"/>
      </g>
     </g>
     <g id="line2d_29">
      <g>
       <use style="fill:#262626;stroke:#262626;stroke-width:0.5;" x="301.27009804" xlink:href="#m6b2b6a75b7" y="28.8"/>
      </g>
     </g>
    </g>
    <g id="xtick_14">
     <g id="line2d_30">
      <g>
       <use style="fill:#262626;stroke:#262626;stroke-width:0.5;" x="322.184842548" xlink:href="#m6b2b6a75b7" y="252.0"/>
      </g>
     </g>
     <g id="line2d_31">
      <g>
       <use style="fill:#262626;stroke:#262626;stroke-width:0.5;" x="322.184842548" xlink:href="#m6b2b6a75b7" y="28.8"/>
      </g>
     </g>
    </g>
    <g id="xtick_15">
     <g id="line2d_32">
      <g>
       <use style="fill:#262626;stroke:#262626;stroke-width:0.5;" x="338.407578726" xlink:href="#m6b2b6a75b7" y="252.0"/>
      </g>
     </g>
     <g id="line2d_33">
      <g>
       <use style="fill:#262626;stroke:#262626;stroke-width:0.5;" x="338.407578726" xlink:href="#m6b2b6a75b7" y="28.8"/>
      </g>
     </g>
    </g>
    <g id="xtick_16">
     <g id="line2d_34">
      <g>
       <use style="fill:#262626;stroke:#262626;stroke-width:0.5;" x="351.662519314" xlink:href="#m6b2b6a75b7" y="252.0"/>
      </g>
     </g>
     <g id="line2d_35">
      <g>
       <use style="fill:#262626;stroke:#262626;stroke-width:0.5;" x="351.662519314" xlink:href="#m6b2b6a75b7" y="28.8"/>
      </g>
     </g>
    </g>
    <g id="xtick_17">
     <g id="line2d_36">
      <g>
       <use style="fill:#262626;stroke:#262626;stroke-width:0.5;" x="362.869411898" xlink:href="#m6b2b6a75b7" y="252.0"/>
      </g>
     </g>
     <g id="line2d_37">
      <g>
       <use style="fill:#262626;stroke:#262626;stroke-width:0.5;" x="362.869411898" xlink:href="#m6b2b6a75b7" y="28.8"/>
      </g>
     </g>
    </g>
    <g id="xtick_18">
     <g id="line2d_38">
      <g>
       <use style="fill:#262626;stroke:#262626;stroke-width:0.5;" x="372.577263822" xlink:href="#m6b2b6a75b7" y="252.0"/>
      </g>
     </g>
     <g id="line2d_39">
      <g>
       <use style="fill:#262626;stroke:#262626;stroke-width:0.5;" x="372.577263822" xlink:href="#m6b2b6a75b7" y="28.8"/>
      </g>
     </g>
    </g>
    <g id="xtick_19">
     <g id="line2d_40">
      <g>
       <use style="fill:#262626;stroke:#262626;stroke-width:0.5;" x="381.14019608" xlink:href="#m6b2b6a75b7" y="252.0"/>
      </g>
     </g>
     <g id="line2d_41">
      <g>
       <use style="fill:#262626;stroke:#262626;stroke-width:0.5;" x="381.14019608" xlink:href="#m6b2b6a75b7" y="28.8"/>
      </g>
     </g>
    </g>
    <g id="text_4">
     <!-- Turn -->
     <defs>
      <path d="M 25.921875 0 
L 25.921875 63.140625 
L 2.34375 63.140625 
L 2.34375 71.578125 
L 59.078125 71.578125 
L 59.078125 63.140625 
L 35.40625 63.140625 
L 35.40625 0 
z
" id="ArialMT-54"/>
      <path d="M 6.5 0 
L 6.5 51.859375 
L 14.40625 51.859375 
L 14.40625 44 
Q 17.4375 49.515625 20 51.265625 
Q 22.5625 53.03125 25.640625 53.03125 
Q 30.078125 53.03125 34.671875 50.203125 
L 31.640625 42.046875 
Q 28.421875 43.953125 25.203125 43.953125 
Q 22.3125 43.953125 20.015625 42.21875 
Q 17.71875 40.484375 16.75 37.40625 
Q 15.28125 32.71875 15.28125 27.15625 
L 15.28125 0 
z
" id="ArialMT-72"/>
      <path d="M 6.59375 0 
L 6.59375 51.859375 
L 14.5 51.859375 
L 14.5 44.484375 
Q 20.21875 53.03125 31 53.03125 
Q 35.6875 53.03125 39.625 51.34375 
Q 43.5625 49.65625 45.515625 46.921875 
Q 47.46875 44.1875 48.25 40.4375 
Q 48.734375 37.984375 48.734375 31.890625 
L 48.734375 0 
L 39.9375 0 
L 39.9375 31.546875 
Q 39.9375 36.921875 38.90625 39.578125 
Q 37.890625 42.234375 35.28125 43.8125 
Q 32.671875 45.40625 29.15625 45.40625 
Q 23.53125 45.40625 19.453125 41.84375 
Q 15.375 38.28125 15.375 28.328125 
L 15.375 0 
z
" id="ArialMT-6e"/>
      <path d="M 40.578125 0 
L 40.578125 7.625 
Q 34.515625 -1.171875 24.125 -1.171875 
Q 19.53125 -1.171875 15.546875 0.578125 
Q 11.578125 2.34375 9.640625 5 
Q 7.71875 7.671875 6.9375 11.53125 
Q 6.390625 14.109375 6.390625 19.734375 
L 6.390625 51.859375 
L 15.1875 51.859375 
L 15.1875 23.09375 
Q 15.1875 16.21875 15.71875 13.8125 
Q 16.546875 10.359375 19.234375 8.375 
Q 21.921875 6.390625 25.875 6.390625 
Q 29.828125 6.390625 33.296875 8.421875 
Q 36.765625 10.453125 38.203125 13.9375 
Q 39.65625 17.4375 39.65625 24.078125 
L 39.65625 51.859375 
L 48.4375 51.859375 
L 48.4375 0 
z
" id="ArialMT-75"/>
     </defs>
     <g style="fill:#262626;" transform="translate(210.094921875 281.67359375)scale(0.11 -0.11)">
      <use xlink:href="#ArialMT-54"/>
      <use x="61.037109375" xlink:href="#ArialMT-75"/>
      <use x="116.65234375" xlink:href="#ArialMT-72"/>
      <use x="149.953125" xlink:href="#ArialMT-6e"/>
     </g>
    </g>
   </g>
   <g id="matplotlib.axis_2">
    <g id="ytick_1">
     <g id="line2d_42">
      <path clip-path="url(#pcce7aca6db)" d="M 54 224.1 
L 388.8 224.1 
" style="fill:none;stroke:#ffffff;stroke-linecap:round;"/>
     </g>
     <g id="line2d_43">
      <g>
       <use style="fill:#262626;stroke:#262626;" x="54.0" xlink:href="#m9d7e1720c1" y="224.1"/>
      </g>
     </g>
    </g>
    <g id="ytick_2">
     <g id="line2d_44">
      <path clip-path="url(#pcce7aca6db)" d="M 54 168.3 
L 388.8 168.3 
" style="fill:none;stroke:#ffffff;stroke-linecap:round;"/>
     </g>
     <g id="line2d_45">
      <g>
       <use style="fill:#262626;stroke:#262626;" x="54.0" xlink:href="#m9d7e1720c1" y="168.3"/>
      </g>
     </g>
    </g>
    <g id="ytick_3">
     <g id="line2d_46">
      <path clip-path="url(#pcce7aca6db)" d="M 54 112.5 
L 388.8 112.5 
" style="fill:none;stroke:#ffffff;stroke-linecap:round;"/>
     </g>
     <g id="line2d_47">
      <g>
       <use style="fill:#262626;stroke:#262626;" x="54.0" xlink:href="#m9d7e1720c1" y="112.5"/>
      </g>
     </g>
    </g>
    <g id="ytick_4">
     <g id="line2d_48">
      <path clip-path="url(#pcce7aca6db)" d="M 54 56.7 
L 388.8 56.7 
" style="fill:none;stroke:#ffffff;stroke-linecap:round;"/>
     </g>
     <g id="line2d_49">
      <g>
       <use style="fill:#262626;stroke:#262626;" x="54.0" xlink:href="#m9d7e1720c1" y="56.7"/>
      </g>
     </g>
    </g>
    <g id="text_5">
     <!-- Relative population size -->
     <defs>
      <path id="ArialMT-20"/>
      <path d="M 6.640625 61.46875 
L 6.640625 71.578125 
L 15.4375 71.578125 
L 15.4375 61.46875 
z
M 6.640625 0 
L 6.640625 51.859375 
L 15.4375 51.859375 
L 15.4375 0 
z
" id="ArialMT-69"/>
      <path d="M 3.078125 15.484375 
L 11.765625 16.84375 
Q 12.5 11.625 15.84375 8.84375 
Q 19.1875 6.0625 25.203125 6.0625 
Q 31.25 6.0625 34.171875 8.515625 
Q 37.109375 10.984375 37.109375 14.3125 
Q 37.109375 17.28125 34.515625 19 
Q 32.71875 20.171875 25.53125 21.96875 
Q 15.875 24.421875 12.140625 26.203125 
Q 8.40625 27.984375 6.46875 31.125 
Q 4.546875 34.28125 4.546875 38.09375 
Q 4.546875 41.546875 6.125 44.5 
Q 7.71875 47.46875 10.453125 49.421875 
Q 12.5 50.921875 16.03125 51.96875 
Q 19.578125 53.03125 23.640625 53.03125 
Q 29.734375 53.03125 34.34375 51.265625 
Q 38.96875 49.515625 41.15625 46.5 
Q 43.359375 43.5 44.1875 38.484375 
L 35.59375 37.3125 
Q 35.015625 41.3125 32.203125 43.546875 
Q 29.390625 45.796875 24.265625 45.796875 
Q 18.21875 45.796875 15.625 43.796875 
Q 13.03125 41.796875 13.03125 39.109375 
Q 13.03125 37.40625 14.109375 36.03125 
Q 15.1875 34.625 17.484375 33.6875 
Q 18.796875 33.203125 25.25 31.453125 
Q 34.578125 28.953125 38.25 27.359375 
Q 41.9375 25.78125 44.03125 22.75 
Q 46.140625 19.734375 46.140625 15.234375 
Q 46.140625 10.84375 43.578125 6.953125 
Q 41.015625 3.078125 36.171875 0.953125 
Q 31.34375 -1.171875 25.25 -1.171875 
Q 15.140625 -1.171875 9.84375 3.03125 
Q 4.546875 7.234375 3.078125 15.484375 
" id="ArialMT-73"/>
      <path d="M 21 0 
L 1.265625 51.859375 
L 10.546875 51.859375 
L 21.6875 20.796875 
Q 23.484375 15.765625 25 10.359375 
Q 26.171875 14.453125 28.265625 20.21875 
L 39.796875 51.859375 
L 48.828125 51.859375 
L 29.203125 0 
z
" id="ArialMT-76"/>
      <path d="M 6.390625 0 
L 6.390625 71.578125 
L 15.1875 71.578125 
L 15.1875 0 
z
" id="ArialMT-6c"/>
      <path d="M 42.09375 16.703125 
L 51.171875 15.578125 
Q 49.03125 7.625 43.21875 3.21875 
Q 37.40625 -1.171875 28.375 -1.171875 
Q 17 -1.171875 10.328125 5.828125 
Q 3.65625 12.84375 3.65625 25.484375 
Q 3.65625 38.578125 10.390625 45.796875 
Q 17.140625 53.03125 27.875 53.03125 
Q 38.28125 53.03125 44.875 45.953125 
Q 51.46875 38.875 51.46875 26.03125 
Q 51.46875 25.25 51.421875 23.6875 
L 12.75 23.6875 
Q 13.234375 15.140625 17.578125 10.59375 
Q 21.921875 6.0625 28.421875 6.0625 
Q 33.25 6.0625 36.671875 8.59375 
Q 40.09375 11.140625 42.09375 16.703125 
M 13.234375 30.90625 
L 42.1875 30.90625 
Q 41.609375 37.453125 38.875 40.71875 
Q 34.671875 45.796875 27.984375 45.796875 
Q 21.921875 45.796875 17.796875 41.75 
Q 13.671875 37.703125 13.234375 30.90625 
" id="ArialMT-65"/>
      <path d="M 6.59375 -19.875 
L 6.59375 51.859375 
L 14.59375 51.859375 
L 14.59375 45.125 
Q 17.4375 49.078125 21 51.046875 
Q 24.5625 53.03125 29.640625 53.03125 
Q 36.28125 53.03125 41.359375 49.609375 
Q 46.4375 46.1875 49.015625 39.953125 
Q 51.609375 33.734375 51.609375 26.3125 
Q 51.609375 18.359375 48.75 11.984375 
Q 45.90625 5.609375 40.453125 2.21875 
Q 35.015625 -1.171875 29 -1.171875 
Q 24.609375 -1.171875 21.109375 0.6875 
Q 17.625 2.546875 15.375 5.375 
L 15.375 -19.875 
z
M 14.546875 25.640625 
Q 14.546875 15.625 18.59375 10.84375 
Q 22.65625 6.0625 28.421875 6.0625 
Q 34.28125 6.0625 38.453125 11.015625 
Q 42.625 15.96875 42.625 26.375 
Q 42.625 36.28125 38.546875 41.203125 
Q 34.46875 46.140625 28.8125 46.140625 
Q 23.1875 46.140625 18.859375 40.890625 
Q 14.546875 35.640625 14.546875 25.640625 
" id="ArialMT-70"/>
      <path d="M 3.328125 25.921875 
Q 3.328125 40.328125 11.328125 47.265625 
Q 18.015625 53.03125 27.640625 53.03125 
Q 38.328125 53.03125 45.109375 46.015625 
Q 51.90625 39.015625 51.90625 26.65625 
Q 51.90625 16.65625 48.90625 10.90625 
Q 45.90625 5.171875 40.15625 2 
Q 34.421875 -1.171875 27.640625 -1.171875 
Q 16.75 -1.171875 10.03125 5.8125 
Q 3.328125 12.796875 3.328125 25.921875 
M 12.359375 25.921875 
Q 12.359375 15.96875 16.703125 11.015625 
Q 21.046875 6.0625 27.640625 6.0625 
Q 34.1875 6.0625 38.53125 11.03125 
Q 42.875 16.015625 42.875 26.21875 
Q 42.875 35.84375 38.5 40.796875 
Q 34.125 45.75 27.640625 45.75 
Q 21.046875 45.75 16.703125 40.8125 
Q 12.359375 35.890625 12.359375 25.921875 
" id="ArialMT-6f"/>
      <path d="M 25.78125 7.859375 
L 27.046875 0.09375 
Q 23.34375 -0.6875 20.40625 -0.6875 
Q 15.625 -0.6875 12.984375 0.828125 
Q 10.359375 2.34375 9.28125 4.8125 
Q 8.203125 7.28125 8.203125 15.1875 
L 8.203125 45.015625 
L 1.765625 45.015625 
L 1.765625 51.859375 
L 8.203125 51.859375 
L 8.203125 64.703125 
L 16.9375 69.96875 
L 16.9375 51.859375 
L 25.78125 51.859375 
L 25.78125 45.015625 
L 16.9375 45.015625 
L 16.9375 14.703125 
Q 16.9375 10.9375 17.40625 9.859375 
Q 17.875 8.796875 18.921875 8.15625 
Q 19.96875 7.515625 21.921875 7.515625 
Q 23.390625 7.515625 25.78125 7.859375 
" id="ArialMT-74"/>
      <path d="M 40.4375 6.390625 
Q 35.546875 2.25 31.03125 0.53125 
Q 26.515625 -1.171875 21.34375 -1.171875 
Q 12.796875 -1.171875 8.203125 3 
Q 3.609375 7.171875 3.609375 13.671875 
Q 3.609375 17.484375 5.34375 20.625 
Q 7.078125 23.78125 9.890625 25.6875 
Q 12.703125 27.59375 16.21875 28.5625 
Q 18.796875 29.25 24.03125 29.890625 
Q 34.671875 31.15625 39.703125 32.90625 
Q 39.75 34.71875 39.75 35.203125 
Q 39.75 40.578125 37.25 42.78125 
Q 33.890625 45.75 27.25 45.75 
Q 21.046875 45.75 18.09375 43.578125 
Q 15.140625 41.40625 13.71875 35.890625 
L 5.125 37.0625 
Q 6.296875 42.578125 8.984375 45.96875 
Q 11.671875 49.359375 16.75 51.1875 
Q 21.828125 53.03125 28.515625 53.03125 
Q 35.15625 53.03125 39.296875 51.46875 
Q 43.453125 49.90625 45.40625 47.53125 
Q 47.359375 45.171875 48.140625 41.546875 
Q 48.578125 39.3125 48.578125 33.453125 
L 48.578125 21.734375 
Q 48.578125 9.46875 49.140625 6.21875 
Q 49.703125 2.984375 51.375 0 
L 42.1875 0 
Q 40.828125 2.734375 40.4375 6.390625 
M 39.703125 26.03125 
Q 34.90625 24.078125 25.34375 22.703125 
Q 19.921875 21.921875 17.671875 20.9375 
Q 15.4375 19.96875 14.203125 18.09375 
Q 12.984375 16.21875 12.984375 13.921875 
Q 12.984375 10.40625 15.640625 8.0625 
Q 18.3125 5.71875 23.4375 5.71875 
Q 28.515625 5.71875 32.46875 7.9375 
Q 36.421875 10.15625 38.28125 14.015625 
Q 39.703125 17 39.703125 22.796875 
z
" id="ArialMT-61"/>
      <path d="M 1.953125 0 
L 1.953125 7.125 
L 34.96875 45.015625 
Q 29.34375 44.734375 25.046875 44.734375 
L 3.90625 44.734375 
L 3.90625 51.859375 
L 46.296875 51.859375 
L 46.296875 46.046875 
L 18.21875 13.140625 
L 12.796875 7.125 
Q 18.703125 7.5625 23.875 7.5625 
L 47.859375 7.5625 
L 47.859375 0 
z
" id="ArialMT-7a"/>
      <path d="M 7.859375 0 
L 7.859375 71.578125 
L 39.59375 71.578125 
Q 49.171875 71.578125 54.140625 69.640625 
Q 59.125 67.71875 62.109375 62.828125 
Q 65.09375 57.953125 65.09375 52.046875 
Q 65.09375 44.4375 60.15625 39.203125 
Q 55.21875 33.984375 44.921875 32.5625 
Q 48.6875 30.765625 50.640625 29 
Q 54.78125 25.203125 58.5 19.484375 
L 70.953125 0 
L 59.03125 0 
L 49.5625 14.890625 
Q 45.40625 21.34375 42.71875 24.75 
Q 40.046875 28.171875 37.921875 29.53125 
Q 35.796875 30.90625 33.59375 31.453125 
Q 31.984375 31.78125 28.328125 31.78125 
L 17.328125 31.78125 
L 17.328125 0 
z
M 17.328125 39.984375 
L 37.703125 39.984375 
Q 44.1875 39.984375 47.84375 41.328125 
Q 51.515625 42.671875 53.421875 45.625 
Q 55.328125 48.578125 55.328125 52.046875 
Q 55.328125 57.125 51.640625 60.390625 
Q 47.953125 63.671875 39.984375 63.671875 
L 17.328125 63.671875 
z
" id="ArialMT-52"/>
     </defs>
     <g style="fill:#262626;" transform="translate(421.67359375 198.487734375)rotate(-90.0)scale(0.11 -0.11)">
      <use xlink:href="#ArialMT-52"/>
      <use x="72.216796875" xlink:href="#ArialMT-65"/>
      <use x="127.83203125" xlink:href="#ArialMT-6c"/>
      <use x="150.048828125" xlink:href="#ArialMT-61"/>
      <use x="205.6640625" xlink:href="#ArialMT-74"/>
      <use x="233.447265625" xlink:href="#ArialMT-69"/>
      <use x="255.6640625" xlink:href="#ArialMT-76"/>
      <use x="305.6640625" xlink:href="#ArialMT-65"/>
      <use x="361.279296875" xlink:href="#ArialMT-20"/>
      <use x="389.0625" xlink:href="#ArialMT-70"/>
      <use x="444.677734375" xlink:href="#ArialMT-6f"/>
      <use x="500.29296875" xlink:href="#ArialMT-70"/>
      <use x="555.908203125" xlink:href="#ArialMT-75"/>
      <use x="611.5234375" xlink:href="#ArialMT-6c"/>
      <use x="633.740234375" xlink:href="#ArialMT-61"/>
      <use x="689.35546875" xlink:href="#ArialMT-74"/>
      <use x="717.138671875" xlink:href="#ArialMT-69"/>
      <use x="739.35546875" xlink:href="#ArialMT-6f"/>
      <use x="794.970703125" xlink:href="#ArialMT-6e"/>
      <use x="850.5859375" xlink:href="#ArialMT-20"/>
      <use x="878.369140625" xlink:href="#ArialMT-73"/>
      <use x="928.369140625" xlink:href="#ArialMT-69"/>
      <use x="950.5859375" xlink:href="#ArialMT-7a"/>
      <use x="1000.5859375" xlink:href="#ArialMT-65"/>
     </g>
    </g>
   </g>
   <g id="PolyCollection_1">
    <path clip-path="url(#pcce7aca6db)" d="M -50333.4 196.2 
L -50333.4 252 
L 54 252 
L 104.392421 252 
L 133.870098 252 
L 154.784843 252 
L 171.007579 252 
L 184.262519 252 
L 195.469412 252 
L 205.177264 252 
L 213.740196 252 
L 221.4 252 
L 228.329135 252 
L 234.654941 252 
L 240.474117 252 
L 245.861833 252 
L 250.877677 252 
L 255.569685 252 
L 259.977149 252 
L 264.132617 252 
L 268.063353 252 
L 271.792421 252 
L 275.33951 252 
L 278.721557 252 
L 281.95324 252 
L 285.047362 252 
L 288.015157 252 
L 290.866538 252 
L 293.610294 252 
L 296.254254 252 
L 298.805425 252 
L 301.270098 252 
L 303.653948 252 
L 305.962106 252 
L 308.199234 252 
L 310.369571 252 
L 312.476991 252 
L 314.525039 252 
L 316.516969 252 
L 318.455774 252 
L 320.344215 252 
L 322.184843 252 
L 323.980018 252 
L 325.731931 252 
L 327.442619 252 
L 329.113978 252 
L 330.747775 252 
L 332.345661 252 
L 333.909181 252 
L 335.439783 252 
L 336.938824 252 
L 338.407579 252 
L 339.847247 252 
L 341.25896 252 
L 342.643781 252 
L 344.002715 252 
L 345.336714 252 
L 346.646676 252 
L 347.933451 252 
L 349.197846 252 
L 350.440627 252 
L 351.662519 252 
L 352.864214 252 
L 354.046369 252 
L 355.209608 252 
L 356.354528 252 
L 357.481696 252 
L 358.591655 252 
L 359.684922 252 
L 360.761992 252 
L 361.823338 252 
L 362.869412 252 
L 363.900648 252 
L 364.91746 252 
L 365.920247 252 
L 366.90939 252 
L 367.885255 252 
L 368.848195 252 
L 369.798547 252 
L 370.736636 252 
L 371.662775 252 
L 372.577264 252 
L 373.480392 252 
L 374.372439 252 
L 375.253673 252 
L 376.124352 252 
L 376.984728 252 
L 377.835041 252 
L 378.675523 252 
L 379.506399 252 
L 380.327887 252 
L 381.140196 252 
L 381.943529 252 
L 382.738082 252 
L 383.524046 252 
L 384.301603 252 
L 385.070932 252 
L 385.832204 252 
L 386.585588 252 
L 387.331245 252 
L 388.069332 252 
L 388.8 252 
L 388.8 252 
L 388.8 252 
L 388.069332 252 
L 387.331245 252 
L 386.585588 252 
L 385.832204 252 
L 385.070932 252 
L 384.301603 252 
L 383.524046 252 
L 382.738082 252 
L 381.943529 252 
L 381.140196 252 
L 380.327887 252 
L 379.506399 252 
L 378.675523 252 
L 377.835041 252 
L 376.984728 252 
L 376.124352 252 
L 375.253673 252 
L 374.372439 252 
L 373.480392 252 
L 372.577264 252 
L 371.662775 252 
L 370.736636 252 
L 369.798547 252 
L 368.848195 252 
L 367.885255 252 
L 366.90939 252 
L 365.920247 252 
L 364.91746 252 
L 363.900648 252 
L 362.869412 252 
L 361.823338 252 
L 360.761992 252 
L 359.684922 252 
L 358.591655 252 
L 357.481696 252 
L 356.354528 252 
L 355.209608 252 
L 354.046369 252 
L 352.864214 252 
L 351.662519 252 
L 350.440627 252 
L 349.197846 252 
L 347.933451 252 
L 346.646676 252 
L 345.336714 252 
L 344.002715 252 
L 342.643781 252 
L 341.25896 251.999999 
L 339.847247 251.999999 
L 338.407579 251.999999 
L 336.938824 251.999998 
L 335.439783 251.999997 
L 333.909181 251.999995 
L 332.345661 251.99999 
L 330.747775 251.999987 
L 329.113978 251.999978 
L 327.442619 251.99997 
L 325.731931 251.999959 
L 323.980018 251.999945 
L 322.184843 251.999928 
L 320.344215 251.999911 
L 318.455774 251.999885 
L 316.516969 251.999809 
L 314.525039 251.999636 
L 312.476991 251.999457 
L 310.369571 251.999065 
L 308.199234 251.9985 
L 305.962106 251.998027 
L 303.653948 251.997361 
L 301.270098 251.996475 
L 298.805425 251.995053 
L 296.254254 251.992593 
L 293.610294 251.990045 
L 290.866538 251.985767 
L 288.015157 251.982022 
L 285.047362 251.9749 
L 281.95324 251.967263 
L 278.721557 251.95471 
L 275.33951 251.934636 
L 271.792421 251.896603 
L 268.063353 251.86201 
L 264.132617 251.808943 
L 259.977149 251.746322 
L 255.569685 251.680023 
L 250.877677 251.537891 
L 245.861833 251.277883 
L 240.474117 250.826383 
L 234.654941 250.217478 
L 228.329135 249.516344 
L 221.4 248.380538 
L 213.740196 246.468996 
L 205.177264 243.586861 
L 195.469412 237.803403 
L 184.262519 234.861216 
L 171.007579 229.202676 
L 154.784843 222.364692 
L 133.870098 212.177892 
L 104.392421 199.923002 
L 54 197.818431 
L -50333.4 196.2 
z
" style="fill:#4c72b0;stroke:#000000;stroke-width:0.3;"/>
   </g>
   <g id="PolyCollection_2">
    <path clip-path="url(#pcce7aca6db)" d="M -50333.4 140.4 
L -50333.4 196.2 
L 54 197.818431 
L 104.392421 199.923002 
L 133.870098 212.177892 
L 154.784843 222.364692 
L 171.007579 229.202676 
L 184.262519 234.861216 
L 195.469412 237.803403 
L 205.177264 243.586861 
L 213.740196 246.468996 
L 221.4 248.380538 
L 228.329135 249.516344 
L 234.654941 250.217478 
L 240.474117 250.826383 
L 245.861833 251.277883 
L 250.877677 251.537891 
L 255.569685 251.680023 
L 259.977149 251.746322 
L 264.132617 251.808943 
L 268.063353 251.86201 
L 271.792421 251.896603 
L 275.33951 251.934636 
L 278.721557 251.95471 
L 281.95324 251.967263 
L 285.047362 251.9749 
L 288.015157 251.982022 
L 290.866538 251.985767 
L 293.610294 251.990045 
L 296.254254 251.992593 
L 298.805425 251.995053 
L 301.270098 251.996475 
L 303.653948 251.997361 
L 305.962106 251.998027 
L 308.199234 251.9985 
L 310.369571 251.999065 
L 312.476991 251.999457 
L 314.525039 251.999636 
L 316.516969 251.999809 
L 318.455774 251.999885 
L 320.344215 251.999911 
L 322.184843 251.999928 
L 323.980018 251.999945 
L 325.731931 251.999959 
L 327.442619 251.99997 
L 329.113978 251.999978 
L 330.747775 251.999987 
L 332.345661 251.99999 
L 333.909181 251.999995 
L 335.439783 251.999997 
L 336.938824 251.999998 
L 338.407579 251.999999 
L 339.847247 251.999999 
L 341.25896 251.999999 
L 342.643781 252 
L 344.002715 252 
L 345.336714 252 
L 346.646676 252 
L 347.933451 252 
L 349.197846 252 
L 350.440627 252 
L 351.662519 252 
L 352.864214 252 
L 354.046369 252 
L 355.209608 252 
L 356.354528 252 
L 357.481696 252 
L 358.591655 252 
L 359.684922 252 
L 360.761992 252 
L 361.823338 252 
L 362.869412 252 
L 363.900648 252 
L 364.91746 252 
L 365.920247 252 
L 366.90939 252 
L 367.885255 252 
L 368.848195 252 
L 369.798547 252 
L 370.736636 252 
L 371.662775 252 
L 372.577264 252 
L 373.480392 252 
L 374.372439 252 
L 375.253673 252 
L 376.124352 252 
L 376.984728 252 
L 377.835041 252 
L 378.675523 252 
L 379.506399 252 
L 380.327887 252 
L 381.140196 252 
L 381.943529 252 
L 382.738082 252 
L 383.524046 252 
L 384.301603 252 
L 385.070932 252 
L 385.832204 252 
L 386.585588 252 
L 387.331245 252 
L 388.069332 252 
L 388.8 252 
L 388.8 166.017365 
L 388.8 166.017365 
L 388.069332 166.017365 
L 387.331245 166.017365 
L 386.585588 166.017365 
L 385.832204 166.017365 
L 385.070932 166.017365 
L 384.301603 166.017365 
L 383.524046 166.017365 
L 382.738082 166.017365 
L 381.943529 166.017365 
L 381.140196 166.017365 
L 380.327887 166.017365 
L 379.506399 166.017365 
L 378.675523 166.017365 
L 377.835041 166.017365 
L 376.984728 166.017365 
L 376.124352 166.017365 
L 375.253673 166.017365 
L 374.372439 166.017365 
L 373.480392 166.017365 
L 372.577264 166.017365 
L 371.662775 166.017365 
L 370.736636 166.017365 
L 369.798547 166.017365 
L 368.848195 166.017365 
L 367.885255 166.017365 
L 366.90939 166.017365 
L 365.920247 166.017365 
L 364.91746 166.017365 
L 363.900648 166.017365 
L 362.869412 166.017365 
L 361.823338 166.017365 
L 360.761992 166.017365 
L 359.684922 166.017365 
L 358.591655 166.017365 
L 357.481696 166.017365 
L 356.354528 166.017365 
L 355.209608 166.017365 
L 354.046369 166.017365 
L 352.864214 166.017365 
L 351.662519 166.017365 
L 350.440627 166.017365 
L 349.197846 166.017365 
L 347.933451 166.017365 
L 346.646676 166.017365 
L 345.336714 166.017365 
L 344.002715 166.017365 
L 342.643781 166.017365 
L 341.25896 166.017365 
L 339.847247 166.017364 
L 338.407579 166.017364 
L 336.938824 166.017364 
L 335.439783 166.017363 
L 333.909181 166.017362 
L 332.345661 166.017359 
L 330.747775 166.017358 
L 329.113978 166.017353 
L 327.442619 166.017348 
L 325.731931 166.017343 
L 323.980018 166.017336 
L 322.184843 166.017329 
L 320.344215 166.01732 
L 318.455774 166.017309 
L 316.516969 166.01727 
L 314.525039 166.017173 
L 312.476991 166.017071 
L 310.369571 166.016867 
L 308.199234 166.016575 
L 305.962106 166.016311 
L 303.653948 166.015992 
L 301.270098 166.015601 
L 298.805425 166.014939 
L 296.254254 166.013702 
L 293.610294 166.01232 
L 290.866538 166.010108 
L 288.015157 166.008453 
L 285.047362 166.005151 
L 281.95324 166.001749 
L 278.721557 165.994993 
L 275.33951 165.984706 
L 271.792421 165.965343 
L 268.063353 165.947205 
L 264.132617 165.920301 
L 259.977149 165.89037 
L 255.569685 165.857606 
L 250.877677 165.786518 
L 245.861833 165.644042 
L 240.474117 165.401555 
L 234.654941 165.09503 
L 228.329135 164.713408 
L 221.4 164.069772 
L 213.740196 163.082765 
L 205.177264 161.575542 
L 195.469412 158.384924 
L 184.262519 156.692832 
L 171.007579 153.907497 
L 154.784843 150.650187 
L 133.870098 145.721823 
L 104.392421 139.22697 
L 54 139.460494 
L -50333.4 140.4 
z
" style="fill:#55a868;stroke:#000000;stroke-width:0.3;"/>
   </g>
   <g id="PolyCollection_3">
    <path clip-path="url(#pcce7aca6db)" d="M -50333.4 84.6 
L -50333.4 140.4 
L 54 139.460494 
L 104.392421 139.22697 
L 133.870098 145.721823 
L 154.784843 150.650187 
L 171.007579 153.907497 
L 184.262519 156.692832 
L 195.469412 158.384924 
L 205.177264 161.575542 
L 213.740196 163.082765 
L 221.4 164.069772 
L 228.329135 164.713408 
L 234.654941 165.09503 
L 240.474117 165.401555 
L 245.861833 165.644042 
L 250.877677 165.786518 
L 255.569685 165.857606 
L 259.977149 165.89037 
L 264.132617 165.920301 
L 268.063353 165.947205 
L 271.792421 165.965343 
L 275.33951 165.984706 
L 278.721557 165.994993 
L 281.95324 166.001749 
L 285.047362 166.005151 
L 288.015157 166.008453 
L 290.866538 166.010108 
L 293.610294 166.01232 
L 296.254254 166.013702 
L 298.805425 166.014939 
L 301.270098 166.015601 
L 303.653948 166.015992 
L 305.962106 166.016311 
L 308.199234 166.016575 
L 310.369571 166.016867 
L 312.476991 166.017071 
L 314.525039 166.017173 
L 316.516969 166.01727 
L 318.455774 166.017309 
L 320.344215 166.01732 
L 322.184843 166.017329 
L 323.980018 166.017336 
L 325.731931 166.017343 
L 327.442619 166.017348 
L 329.113978 166.017353 
L 330.747775 166.017358 
L 332.345661 166.017359 
L 333.909181 166.017362 
L 335.439783 166.017363 
L 336.938824 166.017364 
L 338.407579 166.017364 
L 339.847247 166.017364 
L 341.25896 166.017365 
L 342.643781 166.017365 
L 344.002715 166.017365 
L 345.336714 166.017365 
L 346.646676 166.017365 
L 347.933451 166.017365 
L 349.197846 166.017365 
L 350.440627 166.017365 
L 351.662519 166.017365 
L 352.864214 166.017365 
L 354.046369 166.017365 
L 355.209608 166.017365 
L 356.354528 166.017365 
L 357.481696 166.017365 
L 358.591655 166.017365 
L 359.684922 166.017365 
L 360.761992 166.017365 
L 361.823338 166.017365 
L 362.869412 166.017365 
L 363.900648 166.017365 
L 364.91746 166.017365 
L 365.920247 166.017365 
L 366.90939 166.017365 
L 367.885255 166.017365 
L 368.848195 166.017365 
L 369.798547 166.017365 
L 370.736636 166.017365 
L 371.662775 166.017365 
L 372.577264 166.017365 
L 373.480392 166.017365 
L 374.372439 166.017365 
L 375.253673 166.017365 
L 376.124352 166.017365 
L 376.984728 166.017365 
L 377.835041 166.017365 
L 378.675523 166.017365 
L 379.506399 166.017365 
L 380.327887 166.017365 
L 381.140196 166.017365 
L 381.943529 166.017365 
L 382.738082 166.017365 
L 383.524046 166.017365 
L 384.301603 166.017365 
L 385.070932 166.017365 
L 385.832204 166.017365 
L 386.585588 166.017365 
L 387.331245 166.017365 
L 388.069332 166.017365 
L 388.8 166.017365 
L 388.8 80.508968 
L 388.8 80.508968 
L 388.069332 80.508968 
L 387.331245 80.508968 
L 386.585588 80.508968 
L 385.832204 80.508968 
L 385.070932 80.508968 
L 384.301603 80.508968 
L 383.524046 80.508968 
L 382.738082 80.508968 
L 381.943529 80.508968 
L 381.140196 80.508968 
L 380.327887 80.508968 
L 379.506399 80.508968 
L 378.675523 80.508968 
L 377.835041 80.508968 
L 376.984728 80.508968 
L 376.124352 80.508968 
L 375.253673 80.508968 
L 374.372439 80.508968 
L 373.480392 80.508968 
L 372.577264 80.508968 
L 371.662775 80.508968 
L 370.736636 80.508968 
L 369.798547 80.508968 
L 368.848195 80.508968 
L 367.885255 80.508968 
L 366.90939 80.508968 
L 365.920247 80.508968 
L 364.91746 80.508968 
L 363.900648 80.508968 
L 362.869412 80.508968 
L 361.823338 80.508968 
L 360.761992 80.508968 
L 359.684922 80.508968 
L 358.591655 80.508968 
L 357.481696 80.508968 
L 356.354528 80.508968 
L 355.209608 80.508968 
L 354.046369 80.508968 
L 352.864214 80.508968 
L 351.662519 80.508968 
L 350.440627 80.508968 
L 349.197846 80.508968 
L 347.933451 80.508968 
L 346.646676 80.508968 
L 345.336714 80.508968 
L 344.002715 80.508968 
L 342.643781 80.508968 
L 341.25896 80.508968 
L 339.847247 80.508968 
L 338.407579 80.508968 
L 336.938824 80.508968 
L 335.439783 80.508968 
L 333.909181 80.508968 
L 332.345661 80.508967 
L 330.747775 80.508967 
L 329.113978 80.508966 
L 327.442619 80.508966 
L 325.731931 80.508966 
L 323.980018 80.508966 
L 322.184843 80.508966 
L 320.344215 80.508967 
L 318.455774 80.508967 
L 316.516969 80.508959 
L 314.525039 80.508941 
L 312.476991 80.508929 
L 310.369571 80.50889 
L 308.199234 80.50885 
L 305.962106 80.508866 
L 303.653948 80.508862 
L 301.270098 80.508859 
L 298.805425 80.508802 
L 296.254254 80.508678 
L 293.610294 80.508626 
L 290.866538 80.508543 
L 288.015157 80.508676 
L 285.047362 80.508514 
L 281.95324 80.508445 
L 278.721557 80.508182 
L 275.33951 80.506989 
L 271.792421 80.503424 
L 268.063353 80.502308 
L 264.132617 80.502179 
L 259.977149 80.502038 
L 255.569685 80.501773 
L 250.877677 80.494867 
L 245.861833 80.469448 
L 240.474117 80.438761 
L 234.654941 80.391546 
L 228.329135 80.381863 
L 221.4 80.322626 
L 213.740196 80.183734 
L 205.177264 79.925733 
L 195.469412 79.261414 
L 184.262519 79.443154 
L 171.007579 79.447119 
L 154.784843 79.530754 
L 133.870098 79.480213 
L 104.392421 79.062657 
L 54 81.712987 
L -50333.4 84.6 
z
" style="fill:#c44e52;stroke:#000000;stroke-width:0.3;"/>
   </g>
   <g id="PolyCollection_4">
    <path clip-path="url(#pcce7aca6db)" d="M -50333.4 28.8 
L -50333.4 84.6 
L 54 81.712987 
L 104.392421 79.062657 
L 133.870098 79.480213 
L 154.784843 79.530754 
L 171.007579 79.447119 
L 184.262519 79.443154 
L 195.469412 79.261414 
L 205.177264 79.925733 
L 213.740196 80.183734 
L 221.4 80.322626 
L 228.329135 80.381863 
L 234.654941 80.391546 
L 240.474117 80.438761 
L 245.861833 80.469448 
L 250.877677 80.494867 
L 255.569685 80.501773 
L 259.977149 80.502038 
L 264.132617 80.502179 
L 268.063353 80.502308 
L 271.792421 80.503424 
L 275.33951 80.506989 
L 278.721557 80.508182 
L 281.95324 80.508445 
L 285.047362 80.508514 
L 288.015157 80.508676 
L 290.866538 80.508543 
L 293.610294 80.508626 
L 296.254254 80.508678 
L 298.805425 80.508802 
L 301.270098 80.508859 
L 303.653948 80.508862 
L 305.962106 80.508866 
L 308.199234 80.50885 
L 310.369571 80.50889 
L 312.476991 80.508929 
L 314.525039 80.508941 
L 316.516969 80.508959 
L 318.455774 80.508967 
L 320.344215 80.508967 
L 322.184843 80.508966 
L 323.980018 80.508966 
L 325.731931 80.508966 
L 327.442619 80.508966 
L 329.113978 80.508966 
L 330.747775 80.508967 
L 332.345661 80.508967 
L 333.909181 80.508968 
L 335.439783 80.508968 
L 336.938824 80.508968 
L 338.407579 80.508968 
L 339.847247 80.508968 
L 341.25896 80.508968 
L 342.643781 80.508968 
L 344.002715 80.508968 
L 345.336714 80.508968 
L 346.646676 80.508968 
L 347.933451 80.508968 
L 349.197846 80.508968 
L 350.440627 80.508968 
L 351.662519 80.508968 
L 352.864214 80.508968 
L 354.046369 80.508968 
L 355.209608 80.508968 
L 356.354528 80.508968 
L 357.481696 80.508968 
L 358.591655 80.508968 
L 359.684922 80.508968 
L 360.761992 80.508968 
L 361.823338 80.508968 
L 362.869412 80.508968 
L 363.900648 80.508968 
L 364.91746 80.508968 
L 365.920247 80.508968 
L 366.90939 80.508968 
L 367.885255 80.508968 
L 368.848195 80.508968 
L 369.798547 80.508968 
L 370.736636 80.508968 
L 371.662775 80.508968 
L 372.577264 80.508968 
L 373.480392 80.508968 
L 374.372439 80.508968 
L 375.253673 80.508968 
L 376.124352 80.508968 
L 376.984728 80.508968 
L 377.835041 80.508968 
L 378.675523 80.508968 
L 379.506399 80.508968 
L 380.327887 80.508968 
L 381.140196 80.508968 
L 381.943529 80.508968 
L 382.738082 80.508968 
L 383.524046 80.508968 
L 384.301603 80.508968 
L 385.070932 80.508968 
L 385.832204 80.508968 
L 386.585588 80.508968 
L 387.331245 80.508968 
L 388.069332 80.508968 
L 388.8 80.508968 
L 388.8 28.8 
L 388.8 28.8 
L 388.069332 28.8 
L 387.331245 28.8 
L 386.585588 28.8 
L 385.832204 28.8 
L 385.070932 28.8 
L 384.301603 28.8 
L 383.524046 28.8 
L 382.738082 28.8 
L 381.943529 28.8 
L 381.140196 28.8 
L 380.327887 28.8 
L 379.506399 28.8 
L 378.675523 28.8 
L 377.835041 28.8 
L 376.984728 28.8 
L 376.124352 28.8 
L 375.253673 28.8 
L 374.372439 28.8 
L 373.480392 28.8 
L 372.577264 28.8 
L 371.662775 28.8 
L 370.736636 28.8 
L 369.798547 28.8 
L 368.848195 28.8 
L 367.885255 28.8 
L 366.90939 28.8 
L 365.920247 28.8 
L 364.91746 28.8 
L 363.900648 28.8 
L 362.869412 28.8 
L 361.823338 28.8 
L 360.761992 28.8 
L 359.684922 28.8 
L 358.591655 28.8 
L 357.481696 28.8 
L 356.354528 28.8 
L 355.209608 28.8 
L 354.046369 28.8 
L 352.864214 28.8 
L 351.662519 28.8 
L 350.440627 28.8 
L 349.197846 28.8 
L 347.933451 28.8 
L 346.646676 28.8 
L 345.336714 28.8 
L 344.002715 28.8 
L 342.643781 28.8 
L 341.25896 28.8 
L 339.847247 28.8 
L 338.407579 28.8 
L 336.938824 28.8 
L 335.439783 28.8 
L 333.909181 28.8 
L 332.345661 28.8 
L 330.747775 28.8 
L 329.113978 28.8 
L 327.442619 28.8 
L 325.731931 28.8 
L 323.980018 28.8 
L 322.184843 28.8 
L 320.344215 28.8 
L 318.455774 28.8 
L 316.516969 28.8 
L 314.525039 28.8 
L 312.476991 28.8 
L 310.369571 28.8 
L 308.199234 28.8 
L 305.962106 28.8 
L 303.653948 28.8 
L 301.270098 28.8 
L 298.805425 28.8 
L 296.254254 28.8 
L 293.610294 28.8 
L 290.866538 28.8 
L 288.015157 28.8 
L 285.047362 28.8 
L 281.95324 28.8 
L 278.721557 28.8 
L 275.33951 28.8 
L 271.792421 28.8 
L 268.063353 28.8 
L 264.132617 28.8 
L 259.977149 28.8 
L 255.569685 28.8 
L 250.877677 28.8 
L 245.861833 28.8 
L 240.474117 28.8 
L 234.654941 28.8 
L 228.329135 28.8 
L 221.4 28.8 
L 213.740196 28.8 
L 205.177264 28.8 
L 195.469412 28.8 
L 184.262519 28.8 
L 171.007579 28.8 
L 154.784843 28.8 
L 133.870098 28.8 
L 104.392421 28.8 
L 54 28.8 
L -50333.4 28.8 
z
" style="fill:#8172b2;stroke:#000000;stroke-width:0.3;"/>
   </g>
   <g id="patch_3">
    <path d="M 54 252 
L 54 28.8 
" style="fill:none;"/>
   </g>
   <g id="patch_4">
    <path d="M 54 28.8 
L 388.8 28.8 
" style="fill:none;"/>
   </g>
   <g id="patch_5">
    <path d="M 54 252 
L 388.8 252 
" style="fill:none;"/>
   </g>
   <g id="patch_6">
    <path d="M 388.8 252 
L 388.8 28.8 
" style="fill:none;"/>
   </g>
   <g id="text_6">
    <!-- Defector -->
    <defs>
     <path d="M 7.71875 0 
L 7.71875 71.578125 
L 32.375 71.578125 
Q 40.71875 71.578125 45.125 70.5625 
Q 51.265625 69.140625 55.609375 65.4375 
Q 61.28125 60.640625 64.078125 53.1875 
Q 66.890625 45.75 66.890625 36.1875 
Q 66.890625 28.03125 64.984375 21.734375 
Q 63.09375 15.4375 60.109375 11.296875 
Q 57.125 7.171875 53.578125 4.796875 
Q 50.046875 2.4375 45.046875 1.21875 
Q 40.046875 0 33.546875 0 
z
M 17.1875 8.453125 
L 32.46875 8.453125 
Q 39.546875 8.453125 43.578125 9.765625 
Q 47.609375 11.078125 50 13.484375 
Q 53.375 16.84375 55.25 22.53125 
Q 57.125 28.21875 57.125 36.328125 
Q 57.125 47.5625 53.4375 53.59375 
Q 49.75 59.625 44.484375 61.671875 
Q 40.671875 63.140625 32.234375 63.140625 
L 17.1875 63.140625 
z
" id="ArialMT-44"/>
     <path d="M 40.4375 19 
L 49.078125 17.875 
Q 47.65625 8.9375 41.8125 3.875 
Q 35.984375 -1.171875 27.484375 -1.171875 
Q 16.84375 -1.171875 10.375 5.78125 
Q 3.90625 12.75 3.90625 25.734375 
Q 3.90625 34.125 6.6875 40.421875 
Q 9.46875 46.734375 15.15625 49.875 
Q 20.84375 53.03125 27.546875 53.03125 
Q 35.984375 53.03125 41.359375 48.75 
Q 46.734375 44.484375 48.25 36.625 
L 39.703125 35.296875 
Q 38.484375 40.53125 35.375 43.15625 
Q 32.28125 45.796875 27.875 45.796875 
Q 21.234375 45.796875 17.078125 41.03125 
Q 12.9375 36.28125 12.9375 25.984375 
Q 12.9375 15.53125 16.9375 10.796875 
Q 20.953125 6.0625 27.390625 6.0625 
Q 32.5625 6.0625 36.03125 9.234375 
Q 39.5 12.40625 40.4375 19 
" id="ArialMT-63"/>
     <path d="M 8.6875 0 
L 8.6875 45.015625 
L 0.921875 45.015625 
L 0.921875 51.859375 
L 8.6875 51.859375 
L 8.6875 57.375 
Q 8.6875 62.59375 9.625 65.140625 
Q 10.890625 68.5625 14.078125 70.671875 
Q 17.28125 72.796875 23.046875 72.796875 
Q 26.765625 72.796875 31.25 71.921875 
L 29.9375 64.265625 
Q 27.203125 64.75 24.75 64.75 
Q 20.75 64.75 19.09375 63.03125 
Q 17.4375 61.328125 17.4375 56.640625 
L 17.4375 51.859375 
L 27.546875 51.859375 
L 27.546875 45.015625 
L 17.4375 45.015625 
L 17.4375 0 
z
" id="ArialMT-66"/>
    </defs>
    <g style="fill:#262626;" transform="translate(31.7566875 225.392578125)scale(0.05 -0.05)">
     <use xlink:href="#ArialMT-44"/>
     <use x="72.216796875" xlink:href="#ArialMT-65"/>
     <use x="127.83203125" xlink:href="#ArialMT-66"/>
     <use x="155.615234375" xlink:href="#ArialMT-65"/>
     <use x="211.23046875" xlink:href="#ArialMT-63"/>
     <use x="261.23046875" xlink:href="#ArialMT-74"/>
     <use x="289.013671875" xlink:href="#ArialMT-6f"/>
     <use x="344.62890625" xlink:href="#ArialMT-72"/>
    </g>
   </g>
   <g id="text_7">
    <!-- Tit For Tat -->
    <defs>
     <path d="M 8.203125 0 
L 8.203125 71.578125 
L 56.5 71.578125 
L 56.5 63.140625 
L 17.671875 63.140625 
L 17.671875 40.96875 
L 51.265625 40.96875 
L 51.265625 32.515625 
L 17.671875 32.515625 
L 17.671875 0 
z
" id="ArialMT-46"/>
    </defs>
    <g style="fill:#262626;" transform="translate(27.60903125 169.592578125)scale(0.05 -0.05)">
     <use xlink:href="#ArialMT-54"/>
     <use x="61.037109375" xlink:href="#ArialMT-69"/>
     <use x="83.25390625" xlink:href="#ArialMT-74"/>
     <use x="111.037109375" xlink:href="#ArialMT-20"/>
     <use x="138.8203125" xlink:href="#ArialMT-46"/>
     <use x="199.904296875" xlink:href="#ArialMT-6f"/>
     <use x="255.51953125" xlink:href="#ArialMT-72"/>
     <use x="288.8203125" xlink:href="#ArialMT-20"/>
     <use x="316.587890625" xlink:href="#ArialMT-54"/>
     <use x="377.5" xlink:href="#ArialMT-61"/>
     <use x="433.115234375" xlink:href="#ArialMT-74"/>
    </g>
   </g>
   <g id="text_8">
    <!-- Grudger -->
    <defs>
     <path d="M 40.234375 0 
L 40.234375 6.546875 
Q 35.296875 -1.171875 25.734375 -1.171875 
Q 19.53125 -1.171875 14.328125 2.25 
Q 9.125 5.671875 6.265625 11.796875 
Q 3.421875 17.921875 3.421875 25.875 
Q 3.421875 33.640625 6 39.96875 
Q 8.59375 46.296875 13.765625 49.65625 
Q 18.953125 53.03125 25.34375 53.03125 
Q 30.03125 53.03125 33.6875 51.046875 
Q 37.359375 49.078125 39.65625 45.90625 
L 39.65625 71.578125 
L 48.390625 71.578125 
L 48.390625 0 
z
M 12.453125 25.875 
Q 12.453125 15.921875 16.640625 10.984375 
Q 20.84375 6.0625 26.5625 6.0625 
Q 32.328125 6.0625 36.34375 10.765625 
Q 40.375 15.484375 40.375 25.140625 
Q 40.375 35.796875 36.265625 40.765625 
Q 32.171875 45.75 26.171875 45.75 
Q 20.3125 45.75 16.375 40.96875 
Q 12.453125 36.1875 12.453125 25.875 
" id="ArialMT-64"/>
     <path d="M 41.21875 28.078125 
L 41.21875 36.46875 
L 71.53125 36.53125 
L 71.53125 9.96875 
Q 64.546875 4.390625 57.125 1.578125 
Q 49.703125 -1.21875 41.890625 -1.21875 
Q 31.34375 -1.21875 22.71875 3.296875 
Q 14.109375 7.8125 9.71875 16.359375 
Q 5.328125 24.90625 5.328125 35.453125 
Q 5.328125 45.90625 9.6875 54.953125 
Q 14.0625 64.015625 22.265625 68.40625 
Q 30.46875 72.796875 41.15625 72.796875 
Q 48.921875 72.796875 55.1875 70.28125 
Q 61.46875 67.78125 65.03125 63.28125 
Q 68.609375 58.796875 70.453125 51.5625 
L 61.921875 49.21875 
Q 60.296875 54.6875 57.90625 57.8125 
Q 55.515625 60.9375 51.0625 62.8125 
Q 46.625 64.703125 41.21875 64.703125 
Q 34.71875 64.703125 29.984375 62.71875 
Q 25.25 60.75 22.34375 57.515625 
Q 19.4375 54.296875 17.828125 50.4375 
Q 15.09375 43.796875 15.09375 36.03125 
Q 15.09375 26.46875 18.390625 20.015625 
Q 21.6875 13.578125 27.984375 10.453125 
Q 34.28125 7.328125 41.359375 7.328125 
Q 47.515625 7.328125 53.375 9.6875 
Q 59.234375 12.0625 62.25 14.75 
L 62.25 28.078125 
z
" id="ArialMT-47"/>
     <path d="M 4.984375 -4.296875 
L 13.53125 -5.5625 
Q 14.0625 -9.515625 16.5 -11.328125 
Q 19.78125 -13.765625 25.4375 -13.765625 
Q 31.546875 -13.765625 34.859375 -11.328125 
Q 38.1875 -8.890625 39.359375 -4.5 
Q 40.046875 -1.8125 39.984375 6.78125 
Q 34.234375 0 25.640625 0 
Q 14.9375 0 9.078125 7.71875 
Q 3.21875 15.4375 3.21875 26.21875 
Q 3.21875 33.640625 5.90625 39.90625 
Q 8.59375 46.1875 13.6875 49.609375 
Q 18.796875 53.03125 25.6875 53.03125 
Q 34.859375 53.03125 40.828125 45.609375 
L 40.828125 51.859375 
L 48.921875 51.859375 
L 48.921875 7.03125 
Q 48.921875 -5.078125 46.453125 -10.125 
Q 44 -15.1875 38.640625 -18.109375 
Q 33.296875 -21.046875 25.484375 -21.046875 
Q 16.21875 -21.046875 10.5 -16.875 
Q 4.78125 -12.703125 4.984375 -4.296875 
M 12.25 26.859375 
Q 12.25 16.65625 16.296875 11.96875 
Q 20.359375 7.28125 26.46875 7.28125 
Q 32.515625 7.28125 36.609375 11.9375 
Q 40.71875 16.609375 40.71875 26.5625 
Q 40.71875 36.078125 36.5 40.90625 
Q 32.28125 45.75 26.3125 45.75 
Q 20.453125 45.75 16.34375 40.984375 
Q 12.25 36.234375 12.25 26.859375 
" id="ArialMT-67"/>
    </defs>
    <g style="fill:#262626;" transform="translate(32.311375 113.79375)scale(0.05 -0.05)">
     <use xlink:href="#ArialMT-47"/>
     <use x="77.783203125" xlink:href="#ArialMT-72"/>
     <use x="111.083984375" xlink:href="#ArialMT-75"/>
     <use x="166.69921875" xlink:href="#ArialMT-64"/>
     <use x="222.314453125" xlink:href="#ArialMT-67"/>
     <use x="277.9296875" xlink:href="#ArialMT-65"/>
     <use x="333.544921875" xlink:href="#ArialMT-72"/>
    </g>
   </g>
   <g id="text_9">
    <!-- Cooperator -->
    <defs>
     <path d="M 58.796875 25.09375 
L 68.265625 22.703125 
Q 65.28125 11.03125 57.546875 4.90625 
Q 49.8125 -1.21875 38.625 -1.21875 
Q 27.046875 -1.21875 19.796875 3.484375 
Q 12.546875 8.203125 8.765625 17.140625 
Q 4.984375 26.078125 4.984375 36.328125 
Q 4.984375 47.515625 9.25 55.828125 
Q 13.53125 64.15625 21.40625 68.46875 
Q 29.296875 72.796875 38.765625 72.796875 
Q 49.515625 72.796875 56.828125 67.328125 
Q 64.15625 61.859375 67.046875 51.953125 
L 57.71875 49.75 
Q 55.21875 57.5625 50.484375 61.125 
Q 45.75 64.703125 38.578125 64.703125 
Q 30.328125 64.703125 24.78125 60.734375 
Q 19.234375 56.78125 16.984375 50.109375 
Q 14.75 43.453125 14.75 36.375 
Q 14.75 27.25 17.40625 20.4375 
Q 20.0625 13.625 25.671875 10.25 
Q 31.296875 6.890625 37.84375 6.890625 
Q 45.796875 6.890625 51.3125 11.46875 
Q 56.84375 16.0625 58.796875 25.09375 
" id="ArialMT-43"/>
    </defs>
    <g style="fill:#262626;" transform="translate(25.6395 58.023046875)scale(0.05 -0.05)">
     <use xlink:href="#ArialMT-43"/>
     <use x="72.216796875" xlink:href="#ArialMT-6f"/>
     <use x="127.83203125" xlink:href="#ArialMT-6f"/>
     <use x="183.447265625" xlink:href="#ArialMT-70"/>
     <use x="239.0625" xlink:href="#ArialMT-65"/>
     <use x="294.677734375" xlink:href="#ArialMT-72"/>
     <use x="327.978515625" xlink:href="#ArialMT-61"/>
     <use x="383.59375" xlink:href="#ArialMT-74"/>
     <use x="411.376953125" xlink:href="#ArialMT-6f"/>
     <use x="466.9921875" xlink:href="#ArialMT-72"/>
    </g>
   </g>
   <g id="text_10">
    <!-- Strategy population dynamics based on average payoffs -->
    <defs>
     <path d="M 14.703125 0 
L 6.546875 0 
L 6.546875 71.578125 
L 15.328125 71.578125 
L 15.328125 46.046875 
Q 20.90625 53.03125 29.546875 53.03125 
Q 34.328125 53.03125 38.59375 51.09375 
Q 42.875 49.171875 45.625 45.671875 
Q 48.390625 42.1875 49.953125 37.25 
Q 51.515625 32.328125 51.515625 26.703125 
Q 51.515625 13.375 44.921875 6.09375 
Q 38.328125 -1.171875 29.109375 -1.171875 
Q 19.921875 -1.171875 14.703125 6.5 
z
M 14.59375 26.3125 
Q 14.59375 17 17.140625 12.84375 
Q 21.296875 6.0625 28.375 6.0625 
Q 34.125 6.0625 38.328125 11.0625 
Q 42.53125 16.0625 42.53125 25.984375 
Q 42.53125 36.140625 38.5 40.96875 
Q 34.46875 45.796875 28.765625 45.796875 
Q 23 45.796875 18.796875 40.796875 
Q 14.59375 35.796875 14.59375 26.3125 
" id="ArialMT-62"/>
     <path d="M 6.203125 -19.96875 
L 5.21875 -11.71875 
Q 8.109375 -12.5 10.25 -12.5 
Q 13.1875 -12.5 14.9375 -11.515625 
Q 16.703125 -10.546875 17.828125 -8.796875 
Q 18.65625 -7.46875 20.515625 -2.25 
Q 20.75 -1.515625 21.296875 -0.09375 
L 1.609375 51.859375 
L 11.078125 51.859375 
L 21.875 21.828125 
Q 23.96875 16.109375 25.640625 9.8125 
Q 27.15625 15.875 29.25 21.625 
L 40.328125 51.859375 
L 49.125 51.859375 
L 29.390625 -0.875 
Q 26.21875 -9.421875 24.46875 -12.640625 
Q 22.125 -17 19.09375 -19.015625 
Q 16.0625 -21.046875 11.859375 -21.046875 
Q 9.328125 -21.046875 6.203125 -19.96875 
" id="ArialMT-79"/>
     <path d="M 4.5 23 
L 13.421875 23.78125 
Q 14.0625 18.40625 16.375 14.96875 
Q 18.703125 11.53125 23.578125 9.40625 
Q 28.46875 7.28125 34.578125 7.28125 
Q 39.984375 7.28125 44.140625 8.890625 
Q 48.296875 10.5 50.3125 13.296875 
Q 52.34375 16.109375 52.34375 19.4375 
Q 52.34375 22.796875 50.390625 25.3125 
Q 48.4375 27.828125 43.953125 29.546875 
Q 41.0625 30.671875 31.203125 33.03125 
Q 21.34375 35.40625 17.390625 37.5 
Q 12.25 40.1875 9.734375 44.15625 
Q 7.234375 48.140625 7.234375 53.078125 
Q 7.234375 58.5 10.296875 63.203125 
Q 13.375 67.921875 19.28125 70.359375 
Q 25.203125 72.796875 32.421875 72.796875 
Q 40.375 72.796875 46.453125 70.234375 
Q 52.546875 67.671875 55.8125 62.6875 
Q 59.078125 57.71875 59.328125 51.421875 
L 50.25 50.734375 
Q 49.515625 57.515625 45.28125 60.984375 
Q 41.0625 64.453125 32.8125 64.453125 
Q 24.21875 64.453125 20.28125 61.296875 
Q 16.359375 58.15625 16.359375 53.71875 
Q 16.359375 49.859375 19.140625 47.359375 
Q 21.875 44.875 33.421875 42.265625 
Q 44.96875 39.65625 49.265625 37.703125 
Q 55.515625 34.8125 58.484375 30.390625 
Q 61.46875 25.984375 61.46875 20.21875 
Q 61.46875 14.5 58.203125 9.4375 
Q 54.9375 4.390625 48.796875 1.578125 
Q 42.671875 -1.21875 35.015625 -1.21875 
Q 25.296875 -1.21875 18.71875 1.609375 
Q 12.15625 4.4375 8.421875 10.125 
Q 4.6875 15.828125 4.5 23 
" id="ArialMT-53"/>
     <path d="M 6.59375 0 
L 6.59375 51.859375 
L 14.453125 51.859375 
L 14.453125 44.578125 
Q 16.890625 48.390625 20.9375 50.703125 
Q 25 53.03125 30.171875 53.03125 
Q 35.9375 53.03125 39.625 50.640625 
Q 43.3125 48.25 44.828125 43.953125 
Q 50.984375 53.03125 60.84375 53.03125 
Q 68.5625 53.03125 72.703125 48.75 
Q 76.859375 44.484375 76.859375 35.59375 
L 76.859375 0 
L 68.109375 0 
L 68.109375 32.671875 
Q 68.109375 37.9375 67.25 40.25 
Q 66.40625 42.578125 64.15625 43.984375 
Q 61.921875 45.40625 58.890625 45.40625 
Q 53.421875 45.40625 49.796875 41.765625 
Q 46.1875 38.140625 46.1875 30.125 
L 46.1875 0 
L 37.40625 0 
L 37.40625 33.6875 
Q 37.40625 39.546875 35.25 42.46875 
Q 33.109375 45.40625 28.21875 45.40625 
Q 24.515625 45.40625 21.359375 43.453125 
Q 18.21875 41.5 16.796875 37.734375 
Q 15.375 33.984375 15.375 26.90625 
L 15.375 0 
z
" id="ArialMT-6d"/>
    </defs>
    <g style="fill:#262626;" transform="translate(71.983125 23.8)scale(0.12 -0.12)">
     <use xlink:href="#ArialMT-53"/>
     <use x="66.69921875" xlink:href="#ArialMT-74"/>
     <use x="94.482421875" xlink:href="#ArialMT-72"/>
     <use x="127.783203125" xlink:href="#ArialMT-61"/>
     <use x="183.3984375" xlink:href="#ArialMT-74"/>
     <use x="211.181640625" xlink:href="#ArialMT-65"/>
     <use x="266.796875" xlink:href="#ArialMT-67"/>
     <use x="322.412109375" xlink:href="#ArialMT-79"/>
     <use x="372.412109375" xlink:href="#ArialMT-20"/>
     <use x="400.1953125" xlink:href="#ArialMT-70"/>
     <use x="455.810546875" xlink:href="#ArialMT-6f"/>
     <use x="511.42578125" xlink:href="#ArialMT-70"/>
     <use x="567.041015625" xlink:href="#ArialMT-75"/>
     <use x="622.65625" xlink:href="#ArialMT-6c"/>
     <use x="644.873046875" xlink:href="#ArialMT-61"/>
     <use x="700.48828125" xlink:href="#ArialMT-74"/>
     <use x="728.271484375" xlink:href="#ArialMT-69"/>
     <use x="750.48828125" xlink:href="#ArialMT-6f"/>
     <use x="806.103515625" xlink:href="#ArialMT-6e"/>
     <use x="861.71875" xlink:href="#ArialMT-20"/>
     <use x="889.501953125" xlink:href="#ArialMT-64"/>
     <use x="945.1171875" xlink:href="#ArialMT-79"/>
     <use x="995.1171875" xlink:href="#ArialMT-6e"/>
     <use x="1050.732421875" xlink:href="#ArialMT-61"/>
     <use x="1106.34765625" xlink:href="#ArialMT-6d"/>
     <use x="1189.6484375" xlink:href="#ArialMT-69"/>
     <use x="1211.865234375" xlink:href="#ArialMT-63"/>
     <use x="1261.865234375" xlink:href="#ArialMT-73"/>
     <use x="1311.865234375" xlink:href="#ArialMT-20"/>
     <use x="1339.6484375" xlink:href="#ArialMT-62"/>
     <use x="1395.263671875" xlink:href="#ArialMT-61"/>
     <use x="1450.87890625" xlink:href="#ArialMT-73"/>
     <use x="1500.87890625" xlink:href="#ArialMT-65"/>
     <use x="1556.494140625" xlink:href="#ArialMT-64"/>
     <use x="1612.109375" xlink:href="#ArialMT-20"/>
     <use x="1639.892578125" xlink:href="#ArialMT-6f"/>
     <use x="1695.5078125" xlink:href="#ArialMT-6e"/>
     <use x="1751.123046875" xlink:href="#ArialMT-20"/>
     <use x="1778.90625" xlink:href="#ArialMT-61"/>
     <use x="1834.521484375" xlink:href="#ArialMT-76"/>
     <use x="1884.521484375" xlink:href="#ArialMT-65"/>
     <use x="1940.13671875" xlink:href="#ArialMT-72"/>
     <use x="1973.4375" xlink:href="#ArialMT-61"/>
     <use x="2029.052734375" xlink:href="#ArialMT-67"/>
     <use x="2084.66796875" xlink:href="#ArialMT-65"/>
     <use x="2140.283203125" xlink:href="#ArialMT-20"/>
     <use x="2168.06640625" xlink:href="#ArialMT-70"/>
     <use x="2223.681640625" xlink:href="#ArialMT-61"/>
     <use x="2279.296875" xlink:href="#ArialMT-79"/>
     <use x="2329.296875" xlink:href="#ArialMT-6f"/>
     <use x="2384.912109375" xlink:href="#ArialMT-66"/>
     <use x="2412.6796875" xlink:href="#ArialMT-66"/>
     <use x="2440.462890625" xlink:href="#ArialMT-73"/>
    </g>
   </g>
  </g>
 </g>
 <defs>
  <clipPath id="pcce7aca6db">
   <rect height="223.2" width="334.8" x="54.0" y="28.8"/>
  </clipPath>
 </defs>
</svg>
