<?xml version="1.0" encoding="utf-8" standalone="no"?>
<!DOCTYPE svg PUBLIC "-//W3C//DTD SVG 1.1//EN"
  "http://www.w3.org/Graphics/SVG/1.1/DTD/svg11.dtd">
<!-- Created with matplotlib (http://matplotlib.org/) -->
<svg height="432pt" version="1.1" viewBox="0 0 864 432" width="864pt" xmlns="http://www.w3.org/2000/svg" xmlns:xlink="http://www.w3.org/1999/xlink">
 <defs>
  <style type="text/css">
*{stroke-linecap:butt;stroke-linejoin:round;stroke-miterlimit:100000;}
  </style>
 </defs>
 <g id="figure_1">
  <g id="patch_1">
   <path d="M 0 432 
L 864 432 
L 864 0 
L 0 0 
z
" style="fill:#ffffff;"/>
  </g>
  <g id="axes_1">
   <g id="patch_2">
    <path d="M 108 378 
L 777.6 378 
L 777.6 43.2 
L 108 43.2 
z
" style="fill:#eaeaf2;"/>
   </g>
   <g id="matplotlib.axis_1">
    <g id="xtick_1">
     <g id="line2d_1">
      <path clip-path="url(#pdbcfaf38f3)" d="M 241.92 378 
L 241.92 43.2 
" style="fill:none;stroke:#ffffff;stroke-linecap:round;"/>
     </g>
     <g id="line2d_2">
      <defs>
       <path d="M 0 0 
L 0 0 
" id="me1446697c2" style="stroke:#262626;"/>
      </defs>
      <g>
       <use style="fill:#262626;stroke:#262626;" x="241.92" xlink:href="#me1446697c2" y="378.0"/>
      </g>
     </g>
     <g id="line2d_3">
      <g>
       <use style="fill:#262626;stroke:#262626;" x="241.92" xlink:href="#me1446697c2" y="43.2"/>
      </g>
     </g>
     <g id="text_1">
      <!-- Defector -->
      <defs>
       <path d="M 42.09375 16.703125 
L 51.171875 15.578125 
Q 49.03125 7.625 43.21875 3.21875 
Q 37.40625 -1.171875 28.375 -1.171875 
Q 17 -1.171875 10.328125 5.828125 
Q 3.65625 12.84375 3.65625 25.484375 
Q 3.65625 38.578125 10.390625 45.796875 
Q 17.140625 53.03125 27.875 53.03125 
Q 38.28125 53.03125 44.875 45.953125 
Q 51.46875 38.875 51.46875 26.03125 
Q 51.46875 25.25 51.421875 23.6875 
L 12.75 23.6875 
Q 13.234375 15.140625 17.578125 10.59375 
Q 21.921875 6.0625 28.421875 6.0625 
Q 33.25 6.0625 36.671875 8.59375 
Q 40.09375 11.140625 42.09375 16.703125 
M 13.234375 30.90625 
L 42.1875 30.90625 
Q 41.609375 37.453125 38.875 40.71875 
Q 34.671875 45.796875 27.984375 45.796875 
Q 21.921875 45.796875 17.796875 41.75 
Q 13.671875 37.703125 13.234375 30.90625 
" id="ArialMT-65"/>
       <path d="M 40.4375 19 
L 49.078125 17.875 
Q 47.65625 8.9375 41.8125 3.875 
Q 35.984375 -1.171875 27.484375 -1.171875 
Q 16.84375 -1.171875 10.375 5.78125 
Q 3.90625 12.75 3.90625 25.734375 
Q 3.90625 34.125 6.6875 40.421875 
Q 9.46875 46.734375 15.15625 49.875 
Q 20.84375 53.03125 27.546875 53.03125 
Q 35.984375 53.03125 41.359375 48.75 
Q 46.734375 44.484375 48.25 36.625 
L 39.703125 35.296875 
Q 38.484375 40.53125 35.375 43.15625 
Q 32.28125 45.796875 27.875 45.796875 
Q 21.234375 45.796875 17.078125 41.03125 
Q 12.9375 36.28125 12.9375 25.984375 
Q 12.9375 15.53125 16.9375 10.796875 
Q 20.953125 6.0625 27.390625 6.0625 
Q 32.5625 6.0625 36.03125 9.234375 
Q 39.5 12.40625 40.4375 19 
" id="ArialMT-63"/>
       <path d="M 7.71875 0 
L 7.71875 71.578125 
L 32.375 71.578125 
Q 40.71875 71.578125 45.125 70.5625 
Q 51.265625 69.140625 55.609375 65.4375 
Q 61.28125 60.640625 64.078125 53.1875 
Q 66.890625 45.75 66.890625 36.1875 
Q 66.890625 28.03125 64.984375 21.734375 
Q 63.09375 15.4375 60.109375 11.296875 
Q 57.125 7.171875 53.578125 4.796875 
Q 50.046875 2.4375 45.046875 1.21875 
Q 40.046875 0 33.546875 0 
z
M 17.1875 8.453125 
L 32.46875 8.453125 
Q 39.546875 8.453125 43.578125 9.765625 
Q 47.609375 11.078125 50 13.484375 
Q 53.375 16.84375 55.25 22.53125 
Q 57.125 28.21875 57.125 36.328125 
Q 57.125 47.5625 53.4375 53.59375 
Q 49.75 59.625 44.484375 61.671875 
Q 40.671875 63.140625 32.234375 63.140625 
L 17.1875 63.140625 
z
" id="ArialMT-44"/>
       <path d="M 25.78125 7.859375 
L 27.046875 0.09375 
Q 23.34375 -0.6875 20.40625 -0.6875 
Q 15.625 -0.6875 12.984375 0.828125 
Q 10.359375 2.34375 9.28125 4.8125 
Q 8.203125 7.28125 8.203125 15.1875 
L 8.203125 45.015625 
L 1.765625 45.015625 
L 1.765625 51.859375 
L 8.203125 51.859375 
L 8.203125 64.703125 
L 16.9375 69.96875 
L 16.9375 51.859375 
L 25.78125 51.859375 
L 25.78125 45.015625 
L 16.9375 45.015625 
L 16.9375 14.703125 
Q 16.9375 10.9375 17.40625 9.859375 
Q 17.875 8.796875 18.921875 8.15625 
Q 19.96875 7.515625 21.921875 7.515625 
Q 23.390625 7.515625 25.78125 7.859375 
" id="ArialMT-74"/>
       <path d="M 6.5 0 
L 6.5 51.859375 
L 14.40625 51.859375 
L 14.40625 44 
Q 17.4375 49.515625 20 51.265625 
Q 22.5625 53.03125 25.640625 53.03125 
Q 30.078125 53.03125 34.671875 50.203125 
L 31.640625 42.046875 
Q 28.421875 43.953125 25.203125 43.953125 
Q 22.3125 43.953125 20.015625 42.21875 
Q 17.71875 40.484375 16.75 37.40625 
Q 15.28125 32.71875 15.28125 27.15625 
L 15.28125 0 
z
" id="ArialMT-72"/>
       <path d="M 3.328125 25.921875 
Q 3.328125 40.328125 11.328125 47.265625 
Q 18.015625 53.03125 27.640625 53.03125 
Q 38.328125 53.03125 45.109375 46.015625 
Q 51.90625 39.015625 51.90625 26.65625 
Q 51.90625 16.65625 48.90625 10.90625 
Q 45.90625 5.171875 40.15625 2 
Q 34.421875 -1.171875 27.640625 -1.171875 
Q 16.75 -1.171875 10.03125 5.8125 
Q 3.328125 12.796875 3.328125 25.921875 
M 12.359375 25.921875 
Q 12.359375 15.96875 16.703125 11.015625 
Q 21.046875 6.0625 27.640625 6.0625 
Q 34.1875 6.0625 38.53125 11.03125 
Q 42.875 16.015625 42.875 26.21875 
Q 42.875 35.84375 38.5 40.796875 
Q 34.125 45.75 27.640625 45.75 
Q 21.046875 45.75 16.703125 40.8125 
Q 12.359375 35.890625 12.359375 25.921875 
" id="ArialMT-6f"/>
       <path d="M 8.6875 0 
L 8.6875 45.015625 
L 0.921875 45.015625 
L 0.921875 51.859375 
L 8.6875 51.859375 
L 8.6875 57.375 
Q 8.6875 62.59375 9.625 65.140625 
Q 10.890625 68.5625 14.078125 70.671875 
Q 17.28125 72.796875 23.046875 72.796875 
Q 26.765625 72.796875 31.25 71.921875 
L 29.9375 64.265625 
Q 27.203125 64.75 24.75 64.75 
Q 20.75 64.75 19.09375 63.03125 
Q 17.4375 61.328125 17.4375 56.640625 
L 17.4375 51.859375 
L 27.546875 51.859375 
L 27.546875 45.015625 
L 17.4375 45.015625 
L 17.4375 0 
z
" id="ArialMT-66"/>
      </defs>
      <g style="fill:#262626;" transform="translate(243.988125 415.2325)rotate(-90.0)scale(0.08 -0.08)">
       <use xlink:href="#ArialMT-44"/>
       <use x="72.216796875" xlink:href="#ArialMT-65"/>
       <use x="127.83203125" xlink:href="#ArialMT-66"/>
       <use x="155.615234375" xlink:href="#ArialMT-65"/>
       <use x="211.23046875" xlink:href="#ArialMT-63"/>
       <use x="261.23046875" xlink:href="#ArialMT-74"/>
       <use x="289.013671875" xlink:href="#ArialMT-6f"/>
       <use x="344.62890625" xlink:href="#ArialMT-72"/>
      </g>
     </g>
    </g>
    <g id="xtick_2">
     <g id="line2d_4">
      <path clip-path="url(#pdbcfaf38f3)" d="M 375.84 378 
L 375.84 43.2 
" style="fill:none;stroke:#ffffff;stroke-linecap:round;"/>
     </g>
     <g id="line2d_5">
      <g>
       <use style="fill:#262626;stroke:#262626;" x="375.84" xlink:href="#me1446697c2" y="378.0"/>
      </g>
     </g>
     <g id="line2d_6">
      <g>
       <use style="fill:#262626;stroke:#262626;" x="375.84" xlink:href="#me1446697c2" y="43.2"/>
      </g>
     </g>
     <g id="text_2">
      <!-- Tit For Tat -->
      <defs>
       <path d="M 25.921875 0 
L 25.921875 63.140625 
L 2.34375 63.140625 
L 2.34375 71.578125 
L 59.078125 71.578125 
L 59.078125 63.140625 
L 35.40625 63.140625 
L 35.40625 0 
z
" id="ArialMT-54"/>
       <path d="M 40.4375 6.390625 
Q 35.546875 2.25 31.03125 0.53125 
Q 26.515625 -1.171875 21.34375 -1.171875 
Q 12.796875 -1.171875 8.203125 3 
Q 3.609375 7.171875 3.609375 13.671875 
Q 3.609375 17.484375 5.34375 20.625 
Q 7.078125 23.78125 9.890625 25.6875 
Q 12.703125 27.59375 16.21875 28.5625 
Q 18.796875 29.25 24.03125 29.890625 
Q 34.671875 31.15625 39.703125 32.90625 
Q 39.75 34.71875 39.75 35.203125 
Q 39.75 40.578125 37.25 42.78125 
Q 33.890625 45.75 27.25 45.75 
Q 21.046875 45.75 18.09375 43.578125 
Q 15.140625 41.40625 13.71875 35.890625 
L 5.125 37.0625 
Q 6.296875 42.578125 8.984375 45.96875 
Q 11.671875 49.359375 16.75 51.1875 
Q 21.828125 53.03125 28.515625 53.03125 
Q 35.15625 53.03125 39.296875 51.46875 
Q 43.453125 49.90625 45.40625 47.53125 
Q 47.359375 45.171875 48.140625 41.546875 
Q 48.578125 39.3125 48.578125 33.453125 
L 48.578125 21.734375 
Q 48.578125 9.46875 49.140625 6.21875 
Q 49.703125 2.984375 51.375 0 
L 42.1875 0 
Q 40.828125 2.734375 40.4375 6.390625 
M 39.703125 26.03125 
Q 34.90625 24.078125 25.34375 22.703125 
Q 19.921875 21.921875 17.671875 20.9375 
Q 15.4375 19.96875 14.203125 18.09375 
Q 12.984375 16.21875 12.984375 13.921875 
Q 12.984375 10.40625 15.640625 8.0625 
Q 18.3125 5.71875 23.4375 5.71875 
Q 28.515625 5.71875 32.46875 7.9375 
Q 36.421875 10.15625 38.28125 14.015625 
Q 39.703125 17 39.703125 22.796875 
z
" id="ArialMT-61"/>
       <path id="ArialMT-20"/>
       <path d="M 6.640625 61.46875 
L 6.640625 71.578125 
L 15.4375 71.578125 
L 15.4375 61.46875 
z
M 6.640625 0 
L 6.640625 51.859375 
L 15.4375 51.859375 
L 15.4375 0 
z
" id="ArialMT-69"/>
       <path d="M 8.203125 0 
L 8.203125 71.578125 
L 56.5 71.578125 
L 56.5 63.140625 
L 17.671875 63.140625 
L 17.671875 40.96875 
L 51.265625 40.96875 
L 51.265625 32.515625 
L 17.671875 32.515625 
L 17.671875 0 
z
" id="ArialMT-46"/>
      </defs>
      <g style="fill:#262626;" transform="translate(377.908125 421.86875)rotate(-90.0)scale(0.08 -0.08)">
       <use xlink:href="#ArialMT-54"/>
       <use x="61.037109375" xlink:href="#ArialMT-69"/>
       <use x="83.25390625" xlink:href="#ArialMT-74"/>
       <use x="111.037109375" xlink:href="#ArialMT-20"/>
       <use x="138.8203125" xlink:href="#ArialMT-46"/>
       <use x="199.904296875" xlink:href="#ArialMT-6f"/>
       <use x="255.51953125" xlink:href="#ArialMT-72"/>
       <use x="288.8203125" xlink:href="#ArialMT-20"/>
       <use x="316.587890625" xlink:href="#ArialMT-54"/>
       <use x="377.5" xlink:href="#ArialMT-61"/>
       <use x="433.115234375" xlink:href="#ArialMT-74"/>
      </g>
     </g>
    </g>
    <g id="xtick_3">
     <g id="line2d_7">
      <path clip-path="url(#pdbcfaf38f3)" d="M 509.76 378 
L 509.76 43.2 
" style="fill:none;stroke:#ffffff;stroke-linecap:round;"/>
     </g>
     <g id="line2d_8">
      <g>
       <use style="fill:#262626;stroke:#262626;" x="509.76" xlink:href="#me1446697c2" y="378.0"/>
      </g>
     </g>
     <g id="line2d_9">
      <g>
       <use style="fill:#262626;stroke:#262626;" x="509.76" xlink:href="#me1446697c2" y="43.2"/>
      </g>
     </g>
     <g id="text_3">
      <!-- Grudger -->
      <defs>
       <path d="M 40.578125 0 
L 40.578125 7.625 
Q 34.515625 -1.171875 24.125 -1.171875 
Q 19.53125 -1.171875 15.546875 0.578125 
Q 11.578125 2.34375 9.640625 5 
Q 7.71875 7.671875 6.9375 11.53125 
Q 6.390625 14.109375 6.390625 19.734375 
L 6.390625 51.859375 
L 15.1875 51.859375 
L 15.1875 23.09375 
Q 15.1875 16.21875 15.71875 13.8125 
Q 16.546875 10.359375 19.234375 8.375 
Q 21.921875 6.390625 25.875 6.390625 
Q 29.828125 6.390625 33.296875 8.421875 
Q 36.765625 10.453125 38.203125 13.9375 
Q 39.65625 17.4375 39.65625 24.078125 
L 39.65625 51.859375 
L 48.4375 51.859375 
L 48.4375 0 
z
" id="ArialMT-75"/>
       <path d="M 41.21875 28.078125 
L 41.21875 36.46875 
L 71.53125 36.53125 
L 71.53125 9.96875 
Q 64.546875 4.390625 57.125 1.578125 
Q 49.703125 -1.21875 41.890625 -1.21875 
Q 31.34375 -1.21875 22.71875 3.296875 
Q 14.109375 7.8125 9.71875 16.359375 
Q 5.328125 24.90625 5.328125 35.453125 
Q 5.328125 45.90625 9.6875 54.953125 
Q 14.0625 64.015625 22.265625 68.40625 
Q 30.46875 72.796875 41.15625 72.796875 
Q 48.921875 72.796875 55.1875 70.28125 
Q 61.46875 67.78125 65.03125 63.28125 
Q 68.609375 58.796875 70.453125 51.5625 
L 61.921875 49.21875 
Q 60.296875 54.6875 57.90625 57.8125 
Q 55.515625 60.9375 51.0625 62.8125 
Q 46.625 64.703125 41.21875 64.703125 
Q 34.71875 64.703125 29.984375 62.71875 
Q 25.25 60.75 22.34375 57.515625 
Q 19.4375 54.296875 17.828125 50.4375 
Q 15.09375 43.796875 15.09375 36.03125 
Q 15.09375 26.46875 18.390625 20.015625 
Q 21.6875 13.578125 27.984375 10.453125 
Q 34.28125 7.328125 41.359375 7.328125 
Q 47.515625 7.328125 53.375 9.6875 
Q 59.234375 12.0625 62.25 14.75 
L 62.25 28.078125 
z
" id="ArialMT-47"/>
       <path d="M 4.984375 -4.296875 
L 13.53125 -5.5625 
Q 14.0625 -9.515625 16.5 -11.328125 
Q 19.78125 -13.765625 25.4375 -13.765625 
Q 31.546875 -13.765625 34.859375 -11.328125 
Q 38.1875 -8.890625 39.359375 -4.5 
Q 40.046875 -1.8125 39.984375 6.78125 
Q 34.234375 0 25.640625 0 
Q 14.9375 0 9.078125 7.71875 
Q 3.21875 15.4375 3.21875 26.21875 
Q 3.21875 33.640625 5.90625 39.90625 
Q 8.59375 46.1875 13.6875 49.609375 
Q 18.796875 53.03125 25.6875 53.03125 
Q 34.859375 53.03125 40.828125 45.609375 
L 40.828125 51.859375 
L 48.921875 51.859375 
L 48.921875 7.03125 
Q 48.921875 -5.078125 46.453125 -10.125 
Q 44 -15.1875 38.640625 -18.109375 
Q 33.296875 -21.046875 25.484375 -21.046875 
Q 16.21875 -21.046875 10.5 -16.875 
Q 4.78125 -12.703125 4.984375 -4.296875 
M 12.25 26.859375 
Q 12.25 16.65625 16.296875 11.96875 
Q 20.359375 7.28125 26.46875 7.28125 
Q 32.515625 7.28125 36.609375 11.9375 
Q 40.71875 16.609375 40.71875 26.5625 
Q 40.71875 36.078125 36.5 40.90625 
Q 32.28125 45.75 26.3125 45.75 
Q 20.453125 45.75 16.34375 40.984375 
Q 12.25 36.234375 12.25 26.859375 
" id="ArialMT-67"/>
       <path d="M 40.234375 0 
L 40.234375 6.546875 
Q 35.296875 -1.171875 25.734375 -1.171875 
Q 19.53125 -1.171875 14.328125 2.25 
Q 9.125 5.671875 6.265625 11.796875 
Q 3.421875 17.921875 3.421875 25.875 
Q 3.421875 33.640625 6 39.96875 
Q 8.59375 46.296875 13.765625 49.65625 
Q 18.953125 53.03125 25.34375 53.03125 
Q 30.03125 53.03125 33.6875 51.046875 
Q 37.359375 49.078125 39.65625 45.90625 
L 39.65625 71.578125 
L 48.390625 71.578125 
L 48.390625 0 
z
M 12.453125 25.875 
Q 12.453125 15.921875 16.640625 10.984375 
Q 20.84375 6.0625 26.5625 6.0625 
Q 32.328125 6.0625 36.34375 10.765625 
Q 40.375 15.484375 40.375 25.140625 
Q 40.375 35.796875 36.265625 40.765625 
Q 32.171875 45.75 26.171875 45.75 
Q 20.3125 45.75 16.375 40.96875 
Q 12.453125 36.1875 12.453125 25.875 
" id="ArialMT-64"/>
      </defs>
      <g style="fill:#262626;" transform="translate(511.83 414.345)rotate(-90.0)scale(0.08 -0.08)">
       <use xlink:href="#ArialMT-47"/>
       <use x="77.783203125" xlink:href="#ArialMT-72"/>
       <use x="111.083984375" xlink:href="#ArialMT-75"/>
       <use x="166.69921875" xlink:href="#ArialMT-64"/>
       <use x="222.314453125" xlink:href="#ArialMT-67"/>
       <use x="277.9296875" xlink:href="#ArialMT-65"/>
       <use x="333.544921875" xlink:href="#ArialMT-72"/>
      </g>
     </g>
    </g>
    <g id="xtick_4">
     <g id="line2d_10">
      <path clip-path="url(#pdbcfaf38f3)" d="M 643.68 378 
L 643.68 43.2 
" style="fill:none;stroke:#ffffff;stroke-linecap:round;"/>
     </g>
     <g id="line2d_11">
      <g>
       <use style="fill:#262626;stroke:#262626;" x="643.68" xlink:href="#me1446697c2" y="378.0"/>
      </g>
     </g>
     <g id="line2d_12">
      <g>
       <use style="fill:#262626;stroke:#262626;" x="643.68" xlink:href="#me1446697c2" y="43.2"/>
      </g>
     </g>
     <g id="text_4">
      <!-- Cooperator -->
      <defs>
       <path d="M 58.796875 25.09375 
L 68.265625 22.703125 
Q 65.28125 11.03125 57.546875 4.90625 
Q 49.8125 -1.21875 38.625 -1.21875 
Q 27.046875 -1.21875 19.796875 3.484375 
Q 12.546875 8.203125 8.765625 17.140625 
Q 4.984375 26.078125 4.984375 36.328125 
Q 4.984375 47.515625 9.25 55.828125 
Q 13.53125 64.15625 21.40625 68.46875 
Q 29.296875 72.796875 38.765625 72.796875 
Q 49.515625 72.796875 56.828125 67.328125 
Q 64.15625 61.859375 67.046875 51.953125 
L 57.71875 49.75 
Q 55.21875 57.5625 50.484375 61.125 
Q 45.75 64.703125 38.578125 64.703125 
Q 30.328125 64.703125 24.78125 60.734375 
Q 19.234375 56.78125 16.984375 50.109375 
Q 14.75 43.453125 14.75 36.375 
Q 14.75 27.25 17.40625 20.4375 
Q 20.0625 13.625 25.671875 10.25 
Q 31.296875 6.890625 37.84375 6.890625 
Q 45.796875 6.890625 51.3125 11.46875 
Q 56.84375 16.0625 58.796875 25.09375 
" id="ArialMT-43"/>
       <path d="M 6.59375 -19.875 
L 6.59375 51.859375 
L 14.59375 51.859375 
L 14.59375 45.125 
Q 17.4375 49.078125 21 51.046875 
Q 24.5625 53.03125 29.640625 53.03125 
Q 36.28125 53.03125 41.359375 49.609375 
Q 46.4375 46.1875 49.015625 39.953125 
Q 51.609375 33.734375 51.609375 26.3125 
Q 51.609375 18.359375 48.75 11.984375 
Q 45.90625 5.609375 40.453125 2.21875 
Q 35.015625 -1.171875 29 -1.171875 
Q 24.609375 -1.171875 21.109375 0.6875 
Q 17.625 2.546875 15.375 5.375 
L 15.375 -19.875 
z
M 14.546875 25.640625 
Q 14.546875 15.625 18.59375 10.84375 
Q 22.65625 6.0625 28.421875 6.0625 
Q 34.28125 6.0625 38.453125 11.015625 
Q 42.625 15.96875 42.625 26.375 
Q 42.625 36.28125 38.546875 41.203125 
Q 34.46875 46.140625 28.8125 46.140625 
Q 23.1875 46.140625 18.859375 40.890625 
Q 14.546875 35.640625 14.546875 25.640625 
" id="ArialMT-70"/>
      </defs>
      <g style="fill:#262626;" transform="translate(645.796875 425.02)rotate(-90.0)scale(0.08 -0.08)">
       <use xlink:href="#ArialMT-43"/>
       <use x="72.216796875" xlink:href="#ArialMT-6f"/>
       <use x="127.83203125" xlink:href="#ArialMT-6f"/>
       <use x="183.447265625" xlink:href="#ArialMT-70"/>
       <use x="239.0625" xlink:href="#ArialMT-65"/>
       <use x="294.677734375" xlink:href="#ArialMT-72"/>
       <use x="327.978515625" xlink:href="#ArialMT-61"/>
       <use x="383.59375" xlink:href="#ArialMT-74"/>
       <use x="411.376953125" xlink:href="#ArialMT-6f"/>
       <use x="466.9921875" xlink:href="#ArialMT-72"/>
      </g>
     </g>
    </g>
   </g>
   <g id="matplotlib.axis_2">
    <g id="ytick_1">
     <g id="line2d_13">
      <path clip-path="url(#pdbcfaf38f3)" d="M 108 378 
L 777.6 378 
" style="fill:none;stroke:#ffffff;stroke-linecap:round;"/>
     </g>
     <g id="line2d_14">
      <g>
       <use style="fill:#262626;stroke:#262626;" x="108.0" xlink:href="#me1446697c2" y="378.0"/>
      </g>
     </g>
     <g id="line2d_15">
      <g>
       <use style="fill:#262626;stroke:#262626;" x="777.6" xlink:href="#me1446697c2" y="378.0"/>
      </g>
     </g>
     <g id="text_5">
      <!-- 2.0 -->
      <defs>
       <path d="M 50.34375 8.453125 
L 50.34375 0 
L 3.03125 0 
Q 2.9375 3.171875 4.046875 6.109375 
Q 5.859375 10.9375 9.828125 15.625 
Q 13.8125 20.3125 21.34375 26.46875 
Q 33.015625 36.03125 37.109375 41.625 
Q 41.21875 47.21875 41.21875 52.203125 
Q 41.21875 57.421875 37.46875 61 
Q 33.734375 64.59375 27.734375 64.59375 
Q 21.390625 64.59375 17.578125 60.78125 
Q 13.765625 56.984375 13.71875 50.25 
L 4.6875 51.171875 
Q 5.609375 61.28125 11.65625 66.578125 
Q 17.71875 71.875 27.9375 71.875 
Q 38.234375 71.875 44.234375 66.15625 
Q 50.25 60.453125 50.25 52 
Q 50.25 47.703125 48.484375 43.546875 
Q 46.734375 39.40625 42.65625 34.8125 
Q 38.578125 30.21875 29.109375 22.21875 
Q 21.1875 15.578125 18.9375 13.203125 
Q 16.703125 10.84375 15.234375 8.453125 
z
" id="ArialMT-32"/>
       <path d="M 4.15625 35.296875 
Q 4.15625 48 6.765625 55.734375 
Q 9.375 63.484375 14.515625 67.671875 
Q 19.671875 71.875 27.484375 71.875 
Q 33.25 71.875 37.59375 69.546875 
Q 41.9375 67.234375 44.765625 62.859375 
Q 47.609375 58.5 49.21875 52.21875 
Q 50.828125 45.953125 50.828125 35.296875 
Q 50.828125 22.703125 48.234375 14.96875 
Q 45.65625 7.234375 40.5 3 
Q 35.359375 -1.21875 27.484375 -1.21875 
Q 17.140625 -1.21875 11.234375 6.203125 
Q 4.15625 15.140625 4.15625 35.296875 
M 13.1875 35.296875 
Q 13.1875 17.671875 17.3125 11.828125 
Q 21.4375 6 27.484375 6 
Q 33.546875 6 37.671875 11.859375 
Q 41.796875 17.71875 41.796875 35.296875 
Q 41.796875 52.984375 37.671875 58.78125 
Q 33.546875 64.59375 27.390625 64.59375 
Q 21.34375 64.59375 17.71875 59.46875 
Q 13.1875 52.9375 13.1875 35.296875 
" id="ArialMT-30"/>
       <path d="M 9.078125 0 
L 9.078125 10.015625 
L 19.09375 10.015625 
L 19.09375 0 
z
" id="ArialMT-2e"/>
      </defs>
      <g style="fill:#262626;" transform="translate(89.88 380.068125)scale(0.08 -0.08)">
       <use xlink:href="#ArialMT-32"/>
       <use x="55.615234375" xlink:href="#ArialMT-2e"/>
       <use x="83.3984375" xlink:href="#ArialMT-30"/>
      </g>
     </g>
    </g>
    <g id="ytick_2">
     <g id="line2d_16">
      <path clip-path="url(#pdbcfaf38f3)" d="M 108 322.2 
L 777.6 322.2 
" style="fill:none;stroke:#ffffff;stroke-linecap:round;"/>
     </g>
     <g id="line2d_17">
      <g>
       <use style="fill:#262626;stroke:#262626;" x="108.0" xlink:href="#me1446697c2" y="322.2"/>
      </g>
     </g>
     <g id="line2d_18">
      <g>
       <use style="fill:#262626;stroke:#262626;" x="777.6" xlink:href="#me1446697c2" y="322.2"/>
      </g>
     </g>
     <g id="text_6">
      <!-- 2.5 -->
      <defs>
       <path d="M 4.15625 18.75 
L 13.375 19.53125 
Q 14.40625 12.796875 18.140625 9.390625 
Q 21.875 6 27.15625 6 
Q 33.5 6 37.890625 10.78125 
Q 42.28125 15.578125 42.28125 23.484375 
Q 42.28125 31 38.0625 35.34375 
Q 33.84375 39.703125 27 39.703125 
Q 22.75 39.703125 19.328125 37.765625 
Q 15.921875 35.84375 13.96875 32.765625 
L 5.71875 33.84375 
L 12.640625 70.609375 
L 48.25 70.609375 
L 48.25 62.203125 
L 19.671875 62.203125 
L 15.828125 42.96875 
Q 22.265625 47.46875 29.34375 47.46875 
Q 38.71875 47.46875 45.15625 40.96875 
Q 51.609375 34.46875 51.609375 24.265625 
Q 51.609375 14.546875 45.953125 7.46875 
Q 39.0625 -1.21875 27.15625 -1.21875 
Q 17.390625 -1.21875 11.203125 4.25 
Q 5.03125 9.71875 4.15625 18.75 
" id="ArialMT-35"/>
      </defs>
      <g style="fill:#262626;" transform="translate(89.88 324.268125)scale(0.08 -0.08)">
       <use xlink:href="#ArialMT-32"/>
       <use x="55.615234375" xlink:href="#ArialMT-2e"/>
       <use x="83.3984375" xlink:href="#ArialMT-35"/>
      </g>
     </g>
    </g>
    <g id="ytick_3">
     <g id="line2d_19">
      <path clip-path="url(#pdbcfaf38f3)" d="M 108 266.4 
L 777.6 266.4 
" style="fill:none;stroke:#ffffff;stroke-linecap:round;"/>
     </g>
     <g id="line2d_20">
      <g>
       <use style="fill:#262626;stroke:#262626;" x="108.0" xlink:href="#me1446697c2" y="266.4"/>
      </g>
     </g>
     <g id="line2d_21">
      <g>
       <use style="fill:#262626;stroke:#262626;" x="777.6" xlink:href="#me1446697c2" y="266.4"/>
      </g>
     </g>
     <g id="text_7">
      <!-- 3.0 -->
      <defs>
       <path d="M 4.203125 18.890625 
L 12.984375 20.0625 
Q 14.5 12.59375 18.140625 9.296875 
Q 21.78125 6 27 6 
Q 33.203125 6 37.46875 10.296875 
Q 41.75 14.59375 41.75 20.953125 
Q 41.75 27 37.796875 30.921875 
Q 33.84375 34.859375 27.734375 34.859375 
Q 25.25 34.859375 21.53125 33.890625 
L 22.515625 41.609375 
Q 23.390625 41.5 23.921875 41.5 
Q 29.546875 41.5 34.03125 44.421875 
Q 38.53125 47.359375 38.53125 53.46875 
Q 38.53125 58.296875 35.25 61.46875 
Q 31.984375 64.65625 26.8125 64.65625 
Q 21.6875 64.65625 18.265625 61.421875 
Q 14.84375 58.203125 13.875 51.765625 
L 5.078125 53.328125 
Q 6.6875 62.15625 12.390625 67.015625 
Q 18.109375 71.875 26.609375 71.875 
Q 32.46875 71.875 37.390625 69.359375 
Q 42.328125 66.84375 44.9375 62.5 
Q 47.5625 58.15625 47.5625 53.265625 
Q 47.5625 48.640625 45.0625 44.828125 
Q 42.578125 41.015625 37.703125 38.765625 
Q 44.046875 37.3125 47.5625 32.6875 
Q 51.078125 28.078125 51.078125 21.140625 
Q 51.078125 11.765625 44.234375 5.25 
Q 37.40625 -1.265625 26.953125 -1.265625 
Q 17.53125 -1.265625 11.296875 4.34375 
Q 5.078125 9.96875 4.203125 18.890625 
" id="ArialMT-33"/>
      </defs>
      <g style="fill:#262626;" transform="translate(89.88 268.468125)scale(0.08 -0.08)">
       <use xlink:href="#ArialMT-33"/>
       <use x="55.615234375" xlink:href="#ArialMT-2e"/>
       <use x="83.3984375" xlink:href="#ArialMT-30"/>
      </g>
     </g>
    </g>
    <g id="ytick_4">
     <g id="line2d_22">
      <path clip-path="url(#pdbcfaf38f3)" d="M 108 210.6 
L 777.6 210.6 
" style="fill:none;stroke:#ffffff;stroke-linecap:round;"/>
     </g>
     <g id="line2d_23">
      <g>
       <use style="fill:#262626;stroke:#262626;" x="108.0" xlink:href="#me1446697c2" y="210.6"/>
      </g>
     </g>
     <g id="line2d_24">
      <g>
       <use style="fill:#262626;stroke:#262626;" x="777.6" xlink:href="#me1446697c2" y="210.6"/>
      </g>
     </g>
     <g id="text_8">
      <!-- 3.5 -->
      <g style="fill:#262626;" transform="translate(89.88 212.668125)scale(0.08 -0.08)">
       <use xlink:href="#ArialMT-33"/>
       <use x="55.615234375" xlink:href="#ArialMT-2e"/>
       <use x="83.3984375" xlink:href="#ArialMT-35"/>
      </g>
     </g>
    </g>
    <g id="ytick_5">
     <g id="line2d_25">
      <path clip-path="url(#pdbcfaf38f3)" d="M 108 154.8 
L 777.6 154.8 
" style="fill:none;stroke:#ffffff;stroke-linecap:round;"/>
     </g>
     <g id="line2d_26">
      <g>
       <use style="fill:#262626;stroke:#262626;" x="108.0" xlink:href="#me1446697c2" y="154.8"/>
      </g>
     </g>
     <g id="line2d_27">
      <g>
       <use style="fill:#262626;stroke:#262626;" x="777.6" xlink:href="#me1446697c2" y="154.8"/>
      </g>
     </g>
     <g id="text_9">
      <!-- 4.0 -->
      <defs>
       <path d="M 32.328125 0 
L 32.328125 17.140625 
L 1.265625 17.140625 
L 1.265625 25.203125 
L 33.9375 71.578125 
L 41.109375 71.578125 
L 41.109375 25.203125 
L 50.78125 25.203125 
L 50.78125 17.140625 
L 41.109375 17.140625 
L 41.109375 0 
z
M 32.328125 25.203125 
L 32.328125 57.46875 
L 9.90625 25.203125 
z
" id="ArialMT-34"/>
      </defs>
      <g style="fill:#262626;" transform="translate(89.88 156.868125)scale(0.08 -0.08)">
       <use xlink:href="#ArialMT-34"/>
       <use x="55.615234375" xlink:href="#ArialMT-2e"/>
       <use x="83.3984375" xlink:href="#ArialMT-30"/>
      </g>
     </g>
    </g>
    <g id="ytick_6">
     <g id="line2d_28">
      <path clip-path="url(#pdbcfaf38f3)" d="M 108 99 
L 777.6 99 
" style="fill:none;stroke:#ffffff;stroke-linecap:round;"/>
     </g>
     <g id="line2d_29">
      <g>
       <use style="fill:#262626;stroke:#262626;" x="108.0" xlink:href="#me1446697c2" y="99.0"/>
      </g>
     </g>
     <g id="line2d_30">
      <g>
       <use style="fill:#262626;stroke:#262626;" x="777.6" xlink:href="#me1446697c2" y="99.0"/>
      </g>
     </g>
     <g id="text_10">
      <!-- 4.5 -->
      <g style="fill:#262626;" transform="translate(89.88 101.068125)scale(0.08 -0.08)">
       <use xlink:href="#ArialMT-34"/>
       <use x="55.615234375" xlink:href="#ArialMT-2e"/>
       <use x="83.3984375" xlink:href="#ArialMT-35"/>
      </g>
     </g>
    </g>
    <g id="ytick_7">
     <g id="line2d_31">
      <path clip-path="url(#pdbcfaf38f3)" d="M 108 43.2 
L 777.6 43.2 
" style="fill:none;stroke:#ffffff;stroke-linecap:round;"/>
     </g>
     <g id="line2d_32">
      <g>
       <use style="fill:#262626;stroke:#262626;" x="108.0" xlink:href="#me1446697c2" y="43.2"/>
      </g>
     </g>
     <g id="line2d_33">
      <g>
       <use style="fill:#262626;stroke:#262626;" x="777.6" xlink:href="#me1446697c2" y="43.2"/>
      </g>
     </g>
     <g id="text_11">
      <!-- 5.0 -->
      <g style="fill:#262626;" transform="translate(89.88 45.268125)scale(0.08 -0.08)">
       <use xlink:href="#ArialMT-35"/>
       <use x="55.615234375" xlink:href="#ArialMT-2e"/>
       <use x="83.3984375" xlink:href="#ArialMT-30"/>
      </g>
     </g>
    </g>
   </g>
   <g id="PolyCollection_1">
    <defs>
     <path d="M 258.293651 -195.36 
L 225.546349 -195.36 
L 225.307528 -197.313939 
L 225.095223 -199.267879 
L 224.909284 -201.221818 
L 224.749242 -203.175758 
L 224.614303 -205.129697 
L 224.503351 -207.083636 
L 224.414946 -209.037576 
L 224.347337 -210.991515 
L 224.298474 -212.945455 
L 224.266023 -214.899394 
L 224.247387 -216.853333 
L 224.239735 -218.807273 
L 224.240027 -220.761212 
L 224.245046 -222.715152 
L 224.251438 -224.669091 
L 224.255748 -226.62303 
L 224.254462 -228.57697 
L 224.244048 -230.530909 
L 224.221002 -232.484848 
L 224.181894 -234.438788 
L 224.12341 -236.392727 
L 224.042401 -238.346667 
L 223.935925 -240.300606 
L 223.801293 -242.254545 
L 223.636103 -244.208485 
L 223.438285 -246.162424 
L 223.206134 -248.116364 
L 222.938338 -250.070303 
L 222.63401 -252.024242 
L 222.292708 -253.978182 
L 221.914451 -255.932121 
L 221.499734 -257.886061 
L 221.049533 -259.84 
L 220.565308 -261.793939 
L 220.048993 -263.747879 
L 219.502989 -265.701818 
L 218.930147 -267.655758 
L 218.333741 -269.609697 
L 217.717444 -271.563636 
L 217.08529 -273.517576 
L 216.441638 -275.471515 
L 215.791125 -277.425455 
L 215.13862 -279.379394 
L 214.489173 -281.333333 
L 213.847955 -283.287273 
L 213.220211 -285.241212 
L 212.611191 -287.195152 
L 212.026099 -289.149091 
L 211.470027 -291.10303 
L 210.947906 -293.05697 
L 210.464437 -295.010909 
L 210.024051 -296.964848 
L 209.630845 -298.918788 
L 209.288547 -300.872727 
L 209.000464 -302.826667 
L 208.769452 -304.780606 
L 208.597883 -306.734545 
L 208.48762 -308.688485 
L 208.44 -310.642424 
L 208.455822 -312.596364 
L 208.535344 -314.550303 
L 208.678286 -316.504242 
L 208.883839 -318.458182 
L 209.150684 -320.412121 
L 209.477013 -322.366061 
L 209.860559 -324.32 
L 210.298633 -326.273939 
L 210.788159 -328.227879 
L 211.325721 -330.181818 
L 211.907612 -332.135758 
L 212.529878 -334.089697 
L 213.188376 -336.043636 
L 213.878823 -337.997576 
L 214.596848 -339.951515 
L 215.338049 -341.905455 
L 216.098037 -343.859394 
L 216.87249 -345.813333 
L 217.657196 -347.767273 
L 218.448093 -349.721212 
L 219.241311 -351.675152 
L 220.033202 -353.629091 
L 220.820372 -355.58303 
L 221.599699 -357.53697 
L 222.368358 -359.490909 
L 223.123827 -361.444848 
L 223.8639 -363.398788 
L 224.586688 -365.352727 
L 225.290618 -367.306667 
L 225.974422 -369.260606 
L 226.637131 -371.214545 
L 227.278061 -373.168485 
L 227.896791 -375.122424 
L 228.493146 -377.076364 
L 229.067172 -379.030303 
L 229.619115 -380.984242 
L 230.149394 -382.938182 
L 230.658575 -384.892121 
L 231.147345 -386.846061 
L 231.61649 -388.8 
L 252.22351 -388.8 
L 252.22351 -388.8 
L 252.692655 -386.846061 
L 253.181425 -384.892121 
L 253.690606 -382.938182 
L 254.220885 -380.984242 
L 254.772828 -379.030303 
L 255.346854 -377.076364 
L 255.943209 -375.122424 
L 256.561939 -373.168485 
L 257.202869 -371.214545 
L 257.865578 -369.260606 
L 258.549382 -367.306667 
L 259.253312 -365.352727 
L 259.9761 -363.398788 
L 260.716173 -361.444848 
L 261.471642 -359.490909 
L 262.240301 -357.53697 
L 263.019628 -355.58303 
L 263.806798 -353.629091 
L 264.598689 -351.675152 
L 265.391907 -349.721212 
L 266.182804 -347.767273 
L 266.96751 -345.813333 
L 267.741963 -343.859394 
L 268.501951 -341.905455 
L 269.243152 -339.951515 
L 269.961177 -337.997576 
L 270.651624 -336.043636 
L 271.310122 -334.089697 
L 271.932388 -332.135758 
L 272.514279 -330.181818 
L 273.051841 -328.227879 
L 273.541367 -326.273939 
L 273.979441 -324.32 
L 274.362987 -322.366061 
L 274.689316 -320.412121 
L 274.956161 -318.458182 
L 275.161714 -316.504242 
L 275.304656 -314.550303 
L 275.384178 -312.596364 
L 275.4 -310.642424 
L 275.35238 -308.688485 
L 275.242117 -306.734545 
L 275.070548 -304.780606 
L 274.839536 -302.826667 
L 274.551453 -300.872727 
L 274.209155 -298.918788 
L 273.815949 -296.964848 
L 273.375563 -295.010909 
L 272.892094 -293.05697 
L 272.369973 -291.10303 
L 271.813901 -289.149091 
L 271.228809 -287.195152 
L 270.619789 -285.241212 
L 269.992045 -283.287273 
L 269.350827 -281.333333 
L 268.70138 -279.379394 
L 268.048875 -277.425455 
L 267.398362 -275.471515 
L 266.75471 -273.517576 
L 266.122556 -271.563636 
L 265.506259 -269.609697 
L 264.909853 -267.655758 
L 264.337011 -265.701818 
L 263.791007 -263.747879 
L 263.274692 -261.793939 
L 262.790467 -259.84 
L 262.340266 -257.886061 
L 261.925549 -255.932121 
L 261.547292 -253.978182 
L 261.20599 -252.024242 
L 260.901662 -250.070303 
L 260.633866 -248.116364 
L 260.401715 -246.162424 
L 260.203897 -244.208485 
L 260.038707 -242.254545 
L 259.904075 -240.300606 
L 259.797599 -238.346667 
L 259.71659 -236.392727 
L 259.658106 -234.438788 
L 259.618998 -232.484848 
L 259.595952 -230.530909 
L 259.585538 -228.57697 
L 259.584252 -226.62303 
L 259.588562 -224.669091 
L 259.594954 -222.715152 
L 259.599973 -220.761212 
L 259.600265 -218.807273 
L 259.592613 -216.853333 
L 259.573977 -214.899394 
L 259.541526 -212.945455 
L 259.492663 -210.991515 
L 259.425054 -209.037576 
L 259.336649 -207.083636 
L 259.225697 -205.129697 
L 259.090758 -203.175758 
L 258.930716 -201.221818 
L 258.744777 -199.267879 
L 258.532472 -197.313939 
L 258.293651 -195.36 
z
" id="me504c9d90c" style="stroke:#000000;stroke-opacity:0.3;stroke-width:0.3;"/>
    </defs>
    <g clip-path="url(#pdbcfaf38f3)">
     <use style="fill:#bfbf00;fill-opacity:0.3;stroke:#000000;stroke-opacity:0.3;stroke-width:0.3;" x="0.0" xlink:href="#me504c9d90c" y="432.0"/>
    </g>
   </g>
   <g id="PolyCollection_2">
    <defs>
     <path d="M 401.549632 -54 
L 350.130368 -54 
L 350.044048 -54.300606 
L 349.992303 -54.601212 
L 349.973929 -54.901818 
L 349.987448 -55.202424 
L 350.031114 -55.50303 
L 350.102928 -55.803636 
L 350.200651 -56.104242 
L 350.321821 -56.404848 
L 350.463773 -56.705455 
L 350.623661 -57.006061 
L 350.798485 -57.306667 
L 350.98511 -57.607273 
L 351.180302 -57.907879 
L 351.380751 -58.208485 
L 351.583103 -58.509091 
L 351.783992 -58.809697 
L 351.98007 -59.110303 
L 352.168038 -59.410909 
L 352.344679 -59.711515 
L 352.506889 -60.012121 
L 352.651703 -60.312727 
L 352.776331 -60.613333 
L 352.878177 -60.913939 
L 352.954874 -61.214545 
L 353.0043 -61.515152 
L 353.024603 -61.815758 
L 353.014222 -62.116364 
L 352.9719 -62.41697 
L 352.8967 -62.717576 
L 352.788015 -63.018182 
L 352.645574 -63.318788 
L 352.46945 -63.619394 
L 352.260057 -63.92 
L 352.018152 -64.220606 
L 351.744826 -64.521212 
L 351.441497 -64.821818 
L 351.109897 -65.122424 
L 350.75206 -65.42303 
L 350.3703 -65.723636 
L 349.967192 -66.024242 
L 349.545553 -66.324848 
L 349.108408 -66.625455 
L 348.658972 -66.926061 
L 348.200614 -67.226667 
L 347.736829 -67.527273 
L 347.271207 -67.827879 
L 346.807399 -68.128485 
L 346.349083 -68.429091 
L 345.899934 -68.729697 
L 345.463589 -69.030303 
L 345.043614 -69.330909 
L 344.643475 -69.631515 
L 344.266505 -69.932121 
L 343.91588 -70.232727 
L 343.594585 -70.533333 
L 343.305397 -70.833939 
L 343.05086 -71.134545 
L 342.833263 -71.435152 
L 342.654627 -71.735758 
L 342.51669 -72.036364 
L 342.420896 -72.33697 
L 342.368387 -72.637576 
L 342.36 -72.938182 
L 342.396265 -73.238788 
L 342.477407 -73.539394 
L 342.603351 -73.84 
L 342.773728 -74.140606 
L 342.98789 -74.441212 
L 343.244918 -74.741818 
L 343.543642 -75.042424 
L 343.882655 -75.34303 
L 344.260333 -75.643636 
L 344.674857 -75.944242 
L 345.124238 -76.244848 
L 345.606331 -76.545455 
L 346.118869 -76.846061 
L 346.659482 -77.146667 
L 347.225719 -77.447273 
L 347.815078 -77.747879 
L 348.425022 -78.048485 
L 349.053006 -78.349091 
L 349.6965 -78.649697 
L 350.353003 -78.950303 
L 351.020065 -79.250909 
L 351.695308 -79.551515 
L 352.376432 -79.852121 
L 353.061237 -80.152727 
L 353.747631 -80.453333 
L 354.43364 -80.753939 
L 355.117415 -81.054545 
L 355.797239 -81.355152 
L 356.471532 -81.655758 
L 357.138848 -81.956364 
L 357.797884 -82.25697 
L 358.44747 -82.557576 
L 359.086572 -82.858182 
L 359.714288 -83.158788 
L 360.32984 -83.459394 
L 360.93257 -83.76 
L 390.74743 -83.76 
L 390.74743 -83.76 
L 391.35016 -83.459394 
L 391.965712 -83.158788 
L 392.593428 -82.858182 
L 393.23253 -82.557576 
L 393.882116 -82.25697 
L 394.541152 -81.956364 
L 395.208468 -81.655758 
L 395.882761 -81.355152 
L 396.562585 -81.054545 
L 397.24636 -80.753939 
L 397.932369 -80.453333 
L 398.618763 -80.152727 
L 399.303568 -79.852121 
L 399.984692 -79.551515 
L 400.659935 -79.250909 
L 401.326997 -78.950303 
L 401.9835 -78.649697 
L 402.626994 -78.349091 
L 403.254978 -78.048485 
L 403.864922 -77.747879 
L 404.454281 -77.447273 
L 405.020518 -77.146667 
L 405.561131 -76.846061 
L 406.073669 -76.545455 
L 406.555762 -76.244848 
L 407.005143 -75.944242 
L 407.419667 -75.643636 
L 407.797345 -75.34303 
L 408.136358 -75.042424 
L 408.435082 -74.741818 
L 408.69211 -74.441212 
L 408.906272 -74.140606 
L 409.076649 -73.84 
L 409.202593 -73.539394 
L 409.283735 -73.238788 
L 409.32 -72.938182 
L 409.311613 -72.637576 
L 409.259104 -72.33697 
L 409.16331 -72.036364 
L 409.025373 -71.735758 
L 408.846737 -71.435152 
L 408.62914 -71.134545 
L 408.374603 -70.833939 
L 408.085415 -70.533333 
L 407.76412 -70.232727 
L 407.413495 -69.932121 
L 407.036525 -69.631515 
L 406.636386 -69.330909 
L 406.216411 -69.030303 
L 405.780066 -68.729697 
L 405.330917 -68.429091 
L 404.872601 -68.128485 
L 404.408793 -67.827879 
L 403.943171 -67.527273 
L 403.479386 -67.226667 
L 403.021028 -66.926061 
L 402.571592 -66.625455 
L 402.134447 -66.324848 
L 401.712808 -66.024242 
L 401.3097 -65.723636 
L 400.92794 -65.42303 
L 400.570103 -65.122424 
L 400.238503 -64.821818 
L 399.935174 -64.521212 
L 399.661848 -64.220606 
L 399.419943 -63.92 
L 399.21055 -63.619394 
L 399.034426 -63.318788 
L 398.891985 -63.018182 
L 398.7833 -62.717576 
L 398.7081 -62.41697 
L 398.665778 -62.116364 
L 398.655397 -61.815758 
L 398.6757 -61.515152 
L 398.725126 -61.214545 
L 398.801823 -60.913939 
L 398.903669 -60.613333 
L 399.028297 -60.312727 
L 399.173111 -60.012121 
L 399.335321 -59.711515 
L 399.511962 -59.410909 
L 399.69993 -59.110303 
L 399.896008 -58.809697 
L 400.096897 -58.509091 
L 400.299249 -58.208485 
L 400.499698 -57.907879 
L 400.69489 -57.607273 
L 400.881515 -57.306667 
L 401.056339 -57.006061 
L 401.216227 -56.705455 
L 401.358179 -56.404848 
L 401.479349 -56.104242 
L 401.577072 -55.803636 
L 401.648886 -55.50303 
L 401.692552 -55.202424 
L 401.706071 -54.901818 
L 401.687697 -54.601212 
L 401.635952 -54.300606 
L 401.549632 -54 
z
" id="mc4686fbea0" style="stroke:#000000;stroke-opacity:0.3;stroke-width:0.3;"/>
    </defs>
    <g clip-path="url(#pdbcfaf38f3)">
     <use style="fill:#bfbf00;fill-opacity:0.3;stroke:#000000;stroke-opacity:0.3;stroke-width:0.3;" x="0.0" xlink:href="#mc4686fbea0" y="432.0"/>
    </g>
   </g>
   <g id="PolyCollection_3">
    <defs>
     <path d="M 535.661759 -54 
L 483.858241 -54 
L 483.784552 -54.281818 
L 483.738527 -54.563636 
L 483.719476 -54.845455 
L 483.726549 -55.127273 
L 483.758742 -55.409091 
L 483.814899 -55.690909 
L 483.893722 -55.972727 
L 483.993775 -56.254545 
L 484.113494 -56.536364 
L 484.251198 -56.818182 
L 484.405097 -57.1 
L 484.573306 -57.381818 
L 484.753855 -57.663636 
L 484.944702 -57.945455 
L 485.143749 -58.227273 
L 485.348851 -58.509091 
L 485.557837 -58.790909 
L 485.768518 -59.072727 
L 485.978705 -59.354545 
L 486.186222 -59.636364 
L 486.388923 -59.918182 
L 486.584704 -60.2 
L 486.771517 -60.481818 
L 486.947384 -60.763636 
L 487.110412 -61.045455 
L 487.258803 -61.327273 
L 487.390864 -61.609091 
L 487.505024 -61.890909 
L 487.599836 -62.172727 
L 487.673995 -62.454545 
L 487.726337 -62.736364 
L 487.755853 -63.018182 
L 487.761692 -63.3 
L 487.743166 -63.581818 
L 487.699754 -63.863636 
L 487.631104 -64.145455 
L 487.537036 -64.427273 
L 487.417542 -64.709091 
L 487.272783 -64.990909 
L 487.103088 -65.272727 
L 486.908956 -65.554545 
L 486.691042 -65.836364 
L 486.450161 -66.118182 
L 486.187278 -66.4 
L 485.903503 -66.681818 
L 485.60008 -66.963636 
L 485.278383 -67.245455 
L 484.939905 -67.527273 
L 484.586247 -67.809091 
L 484.219111 -68.090909 
L 483.840288 -68.372727 
L 483.451643 -68.654545 
L 483.055113 -68.936364 
L 482.652687 -69.218182 
L 482.246397 -69.5 
L 481.838309 -69.781818 
L 481.430509 -70.063636 
L 481.025091 -70.345455 
L 480.624148 -70.627273 
L 480.229757 -70.909091 
L 479.843973 -71.190909 
L 479.468815 -71.472727 
L 479.106259 -71.754545 
L 478.758223 -72.036364 
L 478.426564 -72.318182 
L 478.113065 -72.6 
L 477.819432 -72.881818 
L 477.547279 -73.163636 
L 477.298127 -73.445455 
L 477.073397 -73.727273 
L 476.874403 -74.009091 
L 476.702348 -74.290909 
L 476.558319 -74.572727 
L 476.443286 -74.854545 
L 476.358093 -75.136364 
L 476.303466 -75.418182 
L 476.28 -75.7 
L 476.288168 -75.981818 
L 476.328314 -76.263636 
L 476.400658 -76.545455 
L 476.505292 -76.827273 
L 476.642189 -77.109091 
L 476.811196 -77.390909 
L 477.012045 -77.672727 
L 477.244351 -77.954545 
L 477.507619 -78.236364 
L 477.801244 -78.518182 
L 478.124519 -78.8 
L 478.47664 -79.081818 
L 478.856709 -79.363636 
L 479.263742 -79.645455 
L 479.69667 -79.927273 
L 480.154354 -80.209091 
L 480.635582 -80.490909 
L 481.139081 -80.772727 
L 481.663521 -81.054545 
L 482.207526 -81.336364 
L 482.769673 -81.618182 
L 483.348508 -81.9 
L 536.171492 -81.9 
L 536.171492 -81.9 
L 536.750327 -81.618182 
L 537.312474 -81.336364 
L 537.856479 -81.054545 
L 538.380919 -80.772727 
L 538.884418 -80.490909 
L 539.365646 -80.209091 
L 539.82333 -79.927273 
L 540.256258 -79.645455 
L 540.663291 -79.363636 
L 541.04336 -79.081818 
L 541.395481 -78.8 
L 541.718756 -78.518182 
L 542.012381 -78.236364 
L 542.275649 -77.954545 
L 542.507955 -77.672727 
L 542.708804 -77.390909 
L 542.877811 -77.109091 
L 543.014708 -76.827273 
L 543.119342 -76.545455 
L 543.191686 -76.263636 
L 543.231832 -75.981818 
L 543.24 -75.7 
L 543.216534 -75.418182 
L 543.161907 -75.136364 
L 543.076714 -74.854545 
L 542.961681 -74.572727 
L 542.817652 -74.290909 
L 542.645597 -74.009091 
L 542.446603 -73.727273 
L 542.221873 -73.445455 
L 541.972721 -73.163636 
L 541.700568 -72.881818 
L 541.406935 -72.6 
L 541.093436 -72.318182 
L 540.761777 -72.036364 
L 540.413741 -71.754545 
L 540.051185 -71.472727 
L 539.676027 -71.190909 
L 539.290243 -70.909091 
L 538.895852 -70.627273 
L 538.494909 -70.345455 
L 538.089491 -70.063636 
L 537.681691 -69.781818 
L 537.273603 -69.5 
L 536.867313 -69.218182 
L 536.464887 -68.936364 
L 536.068357 -68.654545 
L 535.679712 -68.372727 
L 535.300889 -68.090909 
L 534.933753 -67.809091 
L 534.580095 -67.527273 
L 534.241617 -67.245455 
L 533.91992 -66.963636 
L 533.616497 -66.681818 
L 533.332722 -66.4 
L 533.069839 -66.118182 
L 532.828958 -65.836364 
L 532.611044 -65.554545 
L 532.416912 -65.272727 
L 532.247217 -64.990909 
L 532.102458 -64.709091 
L 531.982964 -64.427273 
L 531.888896 -64.145455 
L 531.820246 -63.863636 
L 531.776834 -63.581818 
L 531.758308 -63.3 
L 531.764147 -63.018182 
L 531.793663 -62.736364 
L 531.846005 -62.454545 
L 531.920164 -62.172727 
L 532.014976 -61.890909 
L 532.129136 -61.609091 
L 532.261197 -61.327273 
L 532.409588 -61.045455 
L 532.572616 -60.763636 
L 532.748483 -60.481818 
L 532.935296 -60.2 
L 533.131077 -59.918182 
L 533.333778 -59.636364 
L 533.541295 -59.354545 
L 533.751482 -59.072727 
L 533.962163 -58.790909 
L 534.171149 -58.509091 
L 534.376251 -58.227273 
L 534.575298 -57.945455 
L 534.766145 -57.663636 
L 534.946694 -57.381818 
L 535.114903 -57.1 
L 535.268802 -56.818182 
L 535.406506 -56.536364 
L 535.526225 -56.254545 
L 535.626278 -55.972727 
L 535.705101 -55.690909 
L 535.761258 -55.409091 
L 535.793451 -55.127273 
L 535.800524 -54.845455 
L 535.781473 -54.563636 
L 535.735448 -54.281818 
L 535.661759 -54 
z
" id="me9de0e1351" style="stroke:#000000;stroke-opacity:0.3;stroke-width:0.3;"/>
    </defs>
    <g clip-path="url(#pdbcfaf38f3)">
     <use style="fill:#bfbf00;fill-opacity:0.3;stroke:#000000;stroke-opacity:0.3;stroke-width:0.3;" x="0.0" xlink:href="#me9de0e1351" y="432.0"/>
    </g>
   </g>
   <g id="PolyCollection_4">
    <defs>
     <path d="M 677.16 -54 
L 610.2 -54 
L 610.2 -54 
L 610.2 -54 
L 610.2 -54 
L 610.2 -54 
L 610.2 -54 
L 610.2 -54 
L 610.2 -54 
L 610.2 -54 
L 610.2 -54 
L 610.2 -54 
L 610.2 -54 
L 610.2 -54 
L 610.2 -54 
L 610.2 -54 
L 610.2 -54 
L 610.2 -54 
L 610.2 -54 
L 610.2 -54 
L 610.2 -54 
L 610.2 -54 
L 610.2 -54 
L 610.2 -54 
L 610.2 -54 
L 610.2 -54 
L 610.2 -54 
L 610.2 -54 
L 610.2 -54 
L 610.2 -54 
L 610.2 -54 
L 610.2 -54 
L 610.2 -54 
L 610.2 -54 
L 610.2 -54 
L 610.2 -54 
L 610.2 -54 
L 610.2 -54 
L 610.2 -54 
L 610.2 -54 
L 610.2 -54 
L 610.2 -54 
L 610.2 -54 
L 610.2 -54 
L 610.2 -54 
L 610.2 -54 
L 610.2 -54 
L 610.2 -54 
L 610.2 -54 
L 610.2 -54 
L 610.2 -54 
L 610.2 -54 
L 610.2 -54 
L 610.2 -54 
L 610.2 -54 
L 610.2 -54 
L 610.2 -54 
L 610.2 -54 
L 610.2 -54 
L 610.2 -54 
L 610.2 -54 
L 610.2 -54 
L 610.2 -54 
L 610.2 -54 
L 610.2 -54 
L 610.2 -54 
L 610.2 -54 
L 610.2 -54 
L 610.2 -54 
L 610.2 -54 
L 610.2 -54 
L 610.2 -54 
L 610.2 -54 
L 610.2 -54 
L 610.2 -54 
L 610.2 -54 
L 610.2 -54 
L 610.2 -54 
L 610.2 -54 
L 610.2 -54 
L 610.2 -54 
L 610.2 -54 
L 610.2 -54 
L 610.2 -54 
L 610.2 -54 
L 610.2 -54 
L 610.2 -54 
L 610.2 -54 
L 610.2 -54 
L 610.2 -54 
L 610.2 -54 
L 610.2 -54 
L 610.2 -54 
L 610.2 -54 
L 610.2 -54 
L 610.2 -54 
L 610.2 -54 
L 610.2 -54 
L 610.2 -54 
L 610.2 -54 
L 610.2 -54 
L 677.16 -54 
L 677.16 -54 
L 677.16 -54 
L 677.16 -54 
L 677.16 -54 
L 677.16 -54 
L 677.16 -54 
L 677.16 -54 
L 677.16 -54 
L 677.16 -54 
L 677.16 -54 
L 677.16 -54 
L 677.16 -54 
L 677.16 -54 
L 677.16 -54 
L 677.16 -54 
L 677.16 -54 
L 677.16 -54 
L 677.16 -54 
L 677.16 -54 
L 677.16 -54 
L 677.16 -54 
L 677.16 -54 
L 677.16 -54 
L 677.16 -54 
L 677.16 -54 
L 677.16 -54 
L 677.16 -54 
L 677.16 -54 
L 677.16 -54 
L 677.16 -54 
L 677.16 -54 
L 677.16 -54 
L 677.16 -54 
L 677.16 -54 
L 677.16 -54 
L 677.16 -54 
L 677.16 -54 
L 677.16 -54 
L 677.16 -54 
L 677.16 -54 
L 677.16 -54 
L 677.16 -54 
L 677.16 -54 
L 677.16 -54 
L 677.16 -54 
L 677.16 -54 
L 677.16 -54 
L 677.16 -54 
L 677.16 -54 
L 677.16 -54 
L 677.16 -54 
L 677.16 -54 
L 677.16 -54 
L 677.16 -54 
L 677.16 -54 
L 677.16 -54 
L 677.16 -54 
L 677.16 -54 
L 677.16 -54 
L 677.16 -54 
L 677.16 -54 
L 677.16 -54 
L 677.16 -54 
L 677.16 -54 
L 677.16 -54 
L 677.16 -54 
L 677.16 -54 
L 677.16 -54 
L 677.16 -54 
L 677.16 -54 
L 677.16 -54 
L 677.16 -54 
L 677.16 -54 
L 677.16 -54 
L 677.16 -54 
L 677.16 -54 
L 677.16 -54 
L 677.16 -54 
L 677.16 -54 
L 677.16 -54 
L 677.16 -54 
L 677.16 -54 
L 677.16 -54 
L 677.16 -54 
L 677.16 -54 
L 677.16 -54 
L 677.16 -54 
L 677.16 -54 
L 677.16 -54 
L 677.16 -54 
L 677.16 -54 
L 677.16 -54 
L 677.16 -54 
L 677.16 -54 
L 677.16 -54 
L 677.16 -54 
L 677.16 -54 
L 677.16 -54 
L 677.16 -54 
L 677.16 -54 
z
" id="md4351ebe18" style="stroke:#000000;stroke-opacity:0.3;stroke-width:0.3;"/>
    </defs>
    <g clip-path="url(#pdbcfaf38f3)">
     <use style="fill:#bfbf00;fill-opacity:0.3;stroke:#000000;stroke-opacity:0.3;stroke-width:0.3;" x="0.0" xlink:href="#md4351ebe18" y="432.0"/>
    </g>
   </g>
   <g id="LineCollection_1">
    <path clip-path="url(#pdbcfaf38f3)" d="M 225.18 117.6 
L 258.66 117.6 
" style="fill:none;stroke:#ff0000;stroke-width:1.75;"/>
    <path clip-path="url(#pdbcfaf38f3)" d="M 359.1 359.4 
L 392.58 359.4 
" style="fill:none;stroke:#ff0000;stroke-width:1.75;"/>
    <path clip-path="url(#pdbcfaf38f3)" d="M 493.02 359.4 
L 526.5 359.4 
" style="fill:none;stroke:#ff0000;stroke-width:1.75;"/>
    <path clip-path="url(#pdbcfaf38f3)" d="M 626.94 378 
L 660.42 378 
" style="fill:none;stroke:#ff0000;stroke-width:1.75;"/>
   </g>
   <g id="patch_3">
    <path d="M 108 378 
L 108 43.2 
" style="fill:none;"/>
   </g>
   <g id="patch_4">
    <path d="M 108 43.2 
L 777.6 43.2 
" style="fill:none;"/>
   </g>
   <g id="patch_5">
    <path d="M 108 378 
L 777.6 378 
" style="fill:none;"/>
   </g>
   <g id="patch_6">
    <path d="M 777.6 378 
L 777.6 43.2 
" style="fill:none;"/>
   </g>
   <g id="text_12">
    <!-- Mean score per stage game (0.5 probability of Match ending) repeated 10 times (4 strategies) -->
    <defs>
     <path d="M 3.078125 15.484375 
L 11.765625 16.84375 
Q 12.5 11.625 15.84375 8.84375 
Q 19.1875 6.0625 25.203125 6.0625 
Q 31.25 6.0625 34.171875 8.515625 
Q 37.109375 10.984375 37.109375 14.3125 
Q 37.109375 17.28125 34.515625 19 
Q 32.71875 20.171875 25.53125 21.96875 
Q 15.875 24.421875 12.140625 26.203125 
Q 8.40625 27.984375 6.46875 31.125 
Q 4.546875 34.28125 4.546875 38.09375 
Q 4.546875 41.546875 6.125 44.5 
Q 7.71875 47.46875 10.453125 49.421875 
Q 12.5 50.921875 16.03125 51.96875 
Q 19.578125 53.03125 23.640625 53.03125 
Q 29.734375 53.03125 34.34375 51.265625 
Q 38.96875 49.515625 41.15625 46.5 
Q 43.359375 43.5 44.1875 38.484375 
L 35.59375 37.3125 
Q 35.015625 41.3125 32.203125 43.546875 
Q 29.390625 45.796875 24.265625 45.796875 
Q 18.21875 45.796875 15.625 43.796875 
Q 13.03125 41.796875 13.03125 39.109375 
Q 13.03125 37.40625 14.109375 36.03125 
Q 15.1875 34.625 17.484375 33.6875 
Q 18.796875 33.203125 25.25 31.453125 
Q 34.578125 28.953125 38.25 27.359375 
Q 41.9375 25.78125 44.03125 22.75 
Q 46.140625 19.734375 46.140625 15.234375 
Q 46.140625 10.84375 43.578125 6.953125 
Q 41.015625 3.078125 36.171875 0.953125 
Q 31.34375 -1.171875 25.25 -1.171875 
Q 15.140625 -1.171875 9.84375 3.03125 
Q 4.546875 7.234375 3.078125 15.484375 
" id="ArialMT-73"/>
     <path d="M 12.359375 -21.046875 
L 6.0625 -21.046875 
Q 20.65625 2.390625 20.65625 25.875 
Q 20.65625 35.0625 18.5625 44.09375 
Q 16.890625 51.421875 13.921875 58.15625 
Q 12.015625 62.546875 6.0625 72.796875 
L 12.359375 72.796875 
Q 21.53125 60.546875 25.921875 48.1875 
Q 29.6875 37.546875 29.6875 25.921875 
Q 29.6875 12.75 24.625 0.4375 
Q 19.578125 -11.859375 12.359375 -21.046875 
" id="ArialMT-29"/>
     <path d="M 23.390625 -21.046875 
Q 16.109375 -11.859375 11.078125 0.4375 
Q 6.0625 12.75 6.0625 25.921875 
Q 6.0625 37.546875 9.8125 48.1875 
Q 14.203125 60.546875 23.390625 72.796875 
L 29.6875 72.796875 
Q 23.78125 62.640625 21.875 58.296875 
Q 18.890625 51.5625 17.1875 44.234375 
Q 15.09375 35.109375 15.09375 25.875 
Q 15.09375 2.390625 29.6875 -21.046875 
z
" id="ArialMT-28"/>
     <path d="M 37.25 0 
L 28.46875 0 
L 28.46875 56 
Q 25.296875 52.984375 20.140625 49.953125 
Q 14.984375 46.921875 10.890625 45.40625 
L 10.890625 53.90625 
Q 18.265625 57.375 23.78125 62.296875 
Q 29.296875 67.234375 31.59375 71.875 
L 37.25 71.875 
z
" id="ArialMT-31"/>
     <path d="M 7.421875 0 
L 7.421875 71.578125 
L 21.6875 71.578125 
L 38.625 20.90625 
Q 40.96875 13.8125 42.046875 10.296875 
Q 43.265625 14.203125 45.84375 21.78125 
L 62.984375 71.578125 
L 75.734375 71.578125 
L 75.734375 0 
L 66.609375 0 
L 66.609375 59.90625 
L 45.796875 0 
L 37.25 0 
L 16.546875 60.9375 
L 16.546875 0 
z
" id="ArialMT-4d"/>
     <path d="M 14.703125 0 
L 6.546875 0 
L 6.546875 71.578125 
L 15.328125 71.578125 
L 15.328125 46.046875 
Q 20.90625 53.03125 29.546875 53.03125 
Q 34.328125 53.03125 38.59375 51.09375 
Q 42.875 49.171875 45.625 45.671875 
Q 48.390625 42.1875 49.953125 37.25 
Q 51.515625 32.328125 51.515625 26.703125 
Q 51.515625 13.375 44.921875 6.09375 
Q 38.328125 -1.171875 29.109375 -1.171875 
Q 19.921875 -1.171875 14.703125 6.5 
z
M 14.59375 26.3125 
Q 14.59375 17 17.140625 12.84375 
Q 21.296875 6.0625 28.375 6.0625 
Q 34.125 6.0625 38.328125 11.0625 
Q 42.53125 16.0625 42.53125 25.984375 
Q 42.53125 36.140625 38.5 40.96875 
Q 34.46875 45.796875 28.765625 45.796875 
Q 23 45.796875 18.796875 40.796875 
Q 14.59375 35.796875 14.59375 26.3125 
" id="ArialMT-62"/>
     <path d="M 6.390625 0 
L 6.390625 71.578125 
L 15.1875 71.578125 
L 15.1875 0 
z
" id="ArialMT-6c"/>
     <path d="M 6.203125 -19.96875 
L 5.21875 -11.71875 
Q 8.109375 -12.5 10.25 -12.5 
Q 13.1875 -12.5 14.9375 -11.515625 
Q 16.703125 -10.546875 17.828125 -8.796875 
Q 18.65625 -7.46875 20.515625 -2.25 
Q 20.75 -1.515625 21.296875 -0.09375 
L 1.609375 51.859375 
L 11.078125 51.859375 
L 21.875 21.828125 
Q 23.96875 16.109375 25.640625 9.8125 
Q 27.15625 15.875 29.25 21.625 
L 40.328125 51.859375 
L 49.125 51.859375 
L 29.390625 -0.875 
Q 26.21875 -9.421875 24.46875 -12.640625 
Q 22.125 -17 19.09375 -19.015625 
Q 16.0625 -21.046875 11.859375 -21.046875 
Q 9.328125 -21.046875 6.203125 -19.96875 
" id="ArialMT-79"/>
     <path d="M 6.59375 0 
L 6.59375 71.578125 
L 15.375 71.578125 
L 15.375 45.90625 
Q 21.53125 53.03125 30.90625 53.03125 
Q 36.671875 53.03125 40.921875 50.75 
Q 45.171875 48.484375 47 44.484375 
Q 48.828125 40.484375 48.828125 32.859375 
L 48.828125 0 
L 40.046875 0 
L 40.046875 32.859375 
Q 40.046875 39.453125 37.1875 42.453125 
Q 34.328125 45.453125 29.109375 45.453125 
Q 25.203125 45.453125 21.75 43.421875 
Q 18.3125 41.40625 16.84375 37.9375 
Q 15.375 34.46875 15.375 28.375 
L 15.375 0 
z
" id="ArialMT-68"/>
     <path d="M 6.59375 0 
L 6.59375 51.859375 
L 14.453125 51.859375 
L 14.453125 44.578125 
Q 16.890625 48.390625 20.9375 50.703125 
Q 25 53.03125 30.171875 53.03125 
Q 35.9375 53.03125 39.625 50.640625 
Q 43.3125 48.25 44.828125 43.953125 
Q 50.984375 53.03125 60.84375 53.03125 
Q 68.5625 53.03125 72.703125 48.75 
Q 76.859375 44.484375 76.859375 35.59375 
L 76.859375 0 
L 68.109375 0 
L 68.109375 32.671875 
Q 68.109375 37.9375 67.25 40.25 
Q 66.40625 42.578125 64.15625 43.984375 
Q 61.921875 45.40625 58.890625 45.40625 
Q 53.421875 45.40625 49.796875 41.765625 
Q 46.1875 38.140625 46.1875 30.125 
L 46.1875 0 
L 37.40625 0 
L 37.40625 33.6875 
Q 37.40625 39.546875 35.25 42.46875 
Q 33.109375 45.40625 28.21875 45.40625 
Q 24.515625 45.40625 21.359375 43.453125 
Q 18.21875 41.5 16.796875 37.734375 
Q 15.375 33.984375 15.375 26.90625 
L 15.375 0 
z
" id="ArialMT-6d"/>
     <path d="M 6.59375 0 
L 6.59375 51.859375 
L 14.5 51.859375 
L 14.5 44.484375 
Q 20.21875 53.03125 31 53.03125 
Q 35.6875 53.03125 39.625 51.34375 
Q 43.5625 49.65625 45.515625 46.921875 
Q 47.46875 44.1875 48.25 40.4375 
Q 48.734375 37.984375 48.734375 31.890625 
L 48.734375 0 
L 39.9375 0 
L 39.9375 31.546875 
Q 39.9375 36.921875 38.90625 39.578125 
Q 37.890625 42.234375 35.28125 43.8125 
Q 32.671875 45.40625 29.15625 45.40625 
Q 23.53125 45.40625 19.453125 41.84375 
Q 15.375 38.28125 15.375 28.328125 
L 15.375 0 
z
" id="ArialMT-6e"/>
    </defs>
    <g style="fill:#262626;" transform="translate(194.3559375 38.2)scale(0.12 -0.12)">
     <use xlink:href="#ArialMT-4d"/>
     <use x="83.30078125" xlink:href="#ArialMT-65"/>
     <use x="138.916015625" xlink:href="#ArialMT-61"/>
     <use x="194.53125" xlink:href="#ArialMT-6e"/>
     <use x="250.146484375" xlink:href="#ArialMT-20"/>
     <use x="277.9296875" xlink:href="#ArialMT-73"/>
     <use x="327.9296875" xlink:href="#ArialMT-63"/>
     <use x="377.9296875" xlink:href="#ArialMT-6f"/>
     <use x="433.544921875" xlink:href="#ArialMT-72"/>
     <use x="466.845703125" xlink:href="#ArialMT-65"/>
     <use x="522.4609375" xlink:href="#ArialMT-20"/>
     <use x="550.244140625" xlink:href="#ArialMT-70"/>
     <use x="605.859375" xlink:href="#ArialMT-65"/>
     <use x="661.474609375" xlink:href="#ArialMT-72"/>
     <use x="694.775390625" xlink:href="#ArialMT-20"/>
     <use x="722.55859375" xlink:href="#ArialMT-73"/>
     <use x="772.55859375" xlink:href="#ArialMT-74"/>
     <use x="800.341796875" xlink:href="#ArialMT-61"/>
     <use x="855.95703125" xlink:href="#ArialMT-67"/>
     <use x="911.572265625" xlink:href="#ArialMT-65"/>
     <use x="967.1875" xlink:href="#ArialMT-20"/>
     <use x="994.970703125" xlink:href="#ArialMT-67"/>
     <use x="1050.5859375" xlink:href="#ArialMT-61"/>
     <use x="1106.201171875" xlink:href="#ArialMT-6d"/>
     <use x="1189.501953125" xlink:href="#ArialMT-65"/>
     <use x="1245.1171875" xlink:href="#ArialMT-20"/>
     <use x="1272.900390625" xlink:href="#ArialMT-28"/>
     <use x="1306.201171875" xlink:href="#ArialMT-30"/>
     <use x="1361.81640625" xlink:href="#ArialMT-2e"/>
     <use x="1389.599609375" xlink:href="#ArialMT-35"/>
     <use x="1445.21484375" xlink:href="#ArialMT-20"/>
     <use x="1472.998046875" xlink:href="#ArialMT-70"/>
     <use x="1528.61328125" xlink:href="#ArialMT-72"/>
     <use x="1561.9140625" xlink:href="#ArialMT-6f"/>
     <use x="1617.529296875" xlink:href="#ArialMT-62"/>
     <use x="1673.14453125" xlink:href="#ArialMT-61"/>
     <use x="1728.759765625" xlink:href="#ArialMT-62"/>
     <use x="1784.375" xlink:href="#ArialMT-69"/>
     <use x="1806.591796875" xlink:href="#ArialMT-6c"/>
     <use x="1828.80859375" xlink:href="#ArialMT-69"/>
     <use x="1851.025390625" xlink:href="#ArialMT-74"/>
     <use x="1878.80859375" xlink:href="#ArialMT-79"/>
     <use x="1928.80859375" xlink:href="#ArialMT-20"/>
     <use x="1956.591796875" xlink:href="#ArialMT-6f"/>
     <use x="2012.20703125" xlink:href="#ArialMT-66"/>
     <use x="2039.990234375" xlink:href="#ArialMT-20"/>
     <use x="2067.7734375" xlink:href="#ArialMT-4d"/>
     <use x="2151.07421875" xlink:href="#ArialMT-61"/>
     <use x="2206.689453125" xlink:href="#ArialMT-74"/>
     <use x="2234.47265625" xlink:href="#ArialMT-63"/>
     <use x="2284.47265625" xlink:href="#ArialMT-68"/>
     <use x="2340.087890625" xlink:href="#ArialMT-20"/>
     <use x="2367.87109375" xlink:href="#ArialMT-65"/>
     <use x="2423.486328125" xlink:href="#ArialMT-6e"/>
     <use x="2479.1015625" xlink:href="#ArialMT-64"/>
     <use x="2534.716796875" xlink:href="#ArialMT-69"/>
     <use x="2556.93359375" xlink:href="#ArialMT-6e"/>
     <use x="2612.548828125" xlink:href="#ArialMT-67"/>
     <use x="2668.1640625" xlink:href="#ArialMT-29"/>
     <use x="2701.46484375" xlink:href="#ArialMT-20"/>
     <use x="2729.248046875" xlink:href="#ArialMT-72"/>
     <use x="2762.548828125" xlink:href="#ArialMT-65"/>
     <use x="2818.1640625" xlink:href="#ArialMT-70"/>
     <use x="2873.779296875" xlink:href="#ArialMT-65"/>
     <use x="2929.39453125" xlink:href="#ArialMT-61"/>
     <use x="2985.009765625" xlink:href="#ArialMT-74"/>
     <use x="3012.79296875" xlink:href="#ArialMT-65"/>
     <use x="3068.408203125" xlink:href="#ArialMT-64"/>
     <use x="3124.0234375" xlink:href="#ArialMT-20"/>
     <use x="3151.806640625" xlink:href="#ArialMT-31"/>
     <use x="3207.421875" xlink:href="#ArialMT-30"/>
     <use x="3263.037109375" xlink:href="#ArialMT-20"/>
     <use x="3290.8203125" xlink:href="#ArialMT-74"/>
     <use x="3318.603515625" xlink:href="#ArialMT-69"/>
     <use x="3340.8203125" xlink:href="#ArialMT-6d"/>
     <use x="3424.12109375" xlink:href="#ArialMT-65"/>
     <use x="3479.736328125" xlink:href="#ArialMT-73"/>
     <use x="3529.736328125" xlink:href="#ArialMT-20"/>
     <use x="3557.51953125" xlink:href="#ArialMT-28"/>
     <use x="3590.8203125" xlink:href="#ArialMT-34"/>
     <use x="3646.435546875" xlink:href="#ArialMT-20"/>
     <use x="3674.21875" xlink:href="#ArialMT-73"/>
     <use x="3724.21875" xlink:href="#ArialMT-74"/>
     <use x="3752.001953125" xlink:href="#ArialMT-72"/>
     <use x="3785.302734375" xlink:href="#ArialMT-61"/>
     <use x="3840.91796875" xlink:href="#ArialMT-74"/>
     <use x="3868.701171875" xlink:href="#ArialMT-65"/>
     <use x="3924.31640625" xlink:href="#ArialMT-67"/>
     <use x="3979.931640625" xlink:href="#ArialMT-69"/>
     <use x="4002.1484375" xlink:href="#ArialMT-65"/>
     <use x="4057.763671875" xlink:href="#ArialMT-73"/>
     <use x="4107.763671875" xlink:href="#ArialMT-29"/>
    </g>
   </g>
  </g>
 </g>
 <defs>
  <clipPath id="pdbcfaf38f3">
   <rect height="334.8" width="669.6" x="108.0" y="43.2"/>
  </clipPath>
 </defs>
</svg>
