<?xml version="1.0" encoding="utf-8" standalone="no"?>
<!DOCTYPE svg PUBLIC "-//W3C//DTD SVG 1.1//EN"
  "http://www.w3.org/Graphics/SVG/1.1/DTD/svg11.dtd">
<!-- Created with matplotlib (http://matplotlib.org/) -->
<svg height="432pt" version="1.1" viewBox="0 0 576 432" width="576pt" xmlns="http://www.w3.org/2000/svg" xmlns:xlink="http://www.w3.org/1999/xlink">
 <defs>
  <style type="text/css">
*{stroke-linecap:butt;stroke-linejoin:round;}
  </style>
 </defs>
 <g id="figure_1">
  <g id="patch_1">
   <path d="
M0 432
L576 432
L576 0
L0 0
z
" style="fill:#ffffff;"/>
  </g>
  <g id="axes_1">
   <g id="patch_2">
    <path d="
M72 388.8
L518.4 388.8
L518.4 43.2
L72 43.2
z
" style="fill:#ffffff;"/>
   </g>
   <g id="PolyCollection_1">
    <defs>
     <path d="
M-67111.2 -112.32
L-67111.2 -43.2
L72 -43.2
L139.19 -43.2
L178.493 -43.2
L206.38 -43.2
L228.01 -43.2
L245.683 -43.2
L260.626 -43.2
L273.57 -43.2
L284.987 -43.2
L295.2 -43.2
L304.439 -43.2
L312.873 -43.2
L320.632 -43.2
L327.816 -43.2
L334.504 -43.2
L340.76 -43.2
L346.636 -43.2
L352.177 -43.2
L357.418 -43.2
L362.39 -43.2
L367.119 -43.2
L371.629 -43.2
L375.938 -43.2
L380.063 -43.2
L384.02 -43.2
L387.822 -43.2
L391.48 -43.2
L395.006 -43.2
L398.407 -43.2
L401.693 -43.2
L404.872 -43.2
L407.949 -43.2
L410.932 -43.2
L413.826 -43.2
L416.636 -43.2
L419.367 -43.2
L422.023 -43.2
L424.608 -43.2
L427.126 -43.2
L429.58 -43.2
L431.973 -43.2
L434.309 -43.2
L436.59 -43.2
L438.819 -43.2
L440.997 -43.2
L443.128 -43.2
L445.212 -43.2
L447.253 -43.2
L449.252 -43.2
L451.21 -43.2
L453.13 -43.2
L455.012 -43.2
L456.858 -43.2
L458.67 -43.2
L460.449 -43.2
L462.196 -43.2
L463.911 -43.2
L465.597 -43.2
L467.254 -43.2
L468.883 -43.2
L470.486 -43.2
L472.062 -43.2
L473.613 -43.2
L475.139 -43.2
L476.642 -43.2
L478.122 -43.2
L479.58 -43.2
L481.016 -43.2
L482.431 -43.2
L483.826 -43.2
L485.201 -43.2
L486.557 -43.2
L487.894 -43.2
L489.213 -43.2
L490.514 -43.2
L491.798 -43.2
L493.065 -43.2
L494.316 -43.2
L495.55 -43.2
L496.77 -43.2
L497.974 -43.2
L499.163 -43.2
L500.338 -43.2
L501.499 -43.2
L502.646 -43.2
L503.78 -43.2
L504.901 -43.2
L506.009 -43.2
L507.104 -43.2
L508.187 -43.2
L509.258 -43.2
L510.317 -43.2
L511.365 -43.2
L512.402 -43.2
L513.428 -43.2
L514.443 -43.2
L515.447 -43.2
L516.442 -43.2
L517.426 -43.2
L518.4 -43.2
L518.4 -43.2
L518.4 -43.2
L517.426 -43.2
L516.442 -43.2
L515.447 -43.2
L514.443 -43.2
L513.428 -43.2
L512.402 -43.2
L511.365 -43.2
L510.317 -43.2
L509.258 -43.2
L508.187 -43.2
L507.104 -43.2
L506.009 -43.2
L504.901 -43.2
L503.78 -43.2
L502.646 -43.2
L501.499 -43.2
L500.338 -43.2
L499.163 -43.2
L497.974 -43.2
L496.77 -43.2
L495.55 -43.2
L494.316 -43.2
L493.065 -43.2
L491.798 -43.2
L490.514 -43.2
L489.213 -43.2
L487.894 -43.2
L486.557 -43.2
L485.201 -43.2
L483.826 -43.2
L482.431 -43.2
L481.016 -43.2
L479.58 -43.2
L478.122 -43.2
L476.642 -43.2
L475.139 -43.2
L473.613 -43.2
L472.062 -43.2
L470.486 -43.2
L468.883 -43.2
L467.254 -43.2
L465.597 -43.2
L463.911 -43.2
L462.196 -43.2
L460.449 -43.2
L458.67 -43.2
L456.858 -43.2
L455.012 -43.2
L453.13 -43.2
L451.21 -43.2
L449.252 -43.2
L447.253 -43.2
L445.212 -43.2
L443.128 -43.2
L440.997 -43.2
L438.819 -43.2
L436.59 -43.2
L434.309 -43.2
L431.973 -43.2
L429.58 -43.2
L427.126 -43.2
L424.608 -43.2
L422.023 -43.2
L419.367 -43.2
L416.636 -43.2
L413.826 -43.2
L410.932 -43.2
L407.949 -43.2
L404.872 -43.2
L401.693 -43.2001
L398.407 -43.2001
L395.006 -43.2002
L391.48 -43.2003
L387.822 -43.2005
L384.02 -43.2008
L380.063 -43.2014
L375.938 -43.2025
L371.629 -43.2043
L367.119 -43.2076
L362.39 -43.2132
L357.418 -43.2231
L352.177 -43.2404
L346.636 -43.2704
L340.76 -43.3229
L334.504 -43.4143
L327.816 -43.5732
L320.632 -43.8489
L312.873 -44.325
L304.439 -45.1422
L295.2 -46.5247
L284.987 -48.821
L273.57 -52.4947
L260.626 -58.1016
L245.683 -66.0787
L228.01 -76.2705
L206.38 -87.7998
L178.493 -98.7305
L139.19 -107.121
L72 -111.209
L-67111.2 -112.32
z
" id="m798a3ab517" style="stroke:#000000;"/>
    </defs>
    <g clip-path="url(#p7ff5b81e1d)">
     <use style="fill:#0000ff;stroke:#000000;" x="0.0" xlink:href="#m798a3ab517" y="432.0"/>
    </g>
   </g>
   <g id="PolyCollection_2">
    <defs>
     <path d="
M-67111.2 -181.44
L-67111.2 -112.32
L72 -111.209
L139.19 -107.121
L178.493 -98.7305
L206.38 -87.7998
L228.01 -76.2705
L245.683 -66.0787
L260.626 -58.1016
L273.57 -52.4947
L284.987 -48.821
L295.2 -46.5247
L304.439 -45.1422
L312.873 -44.325
L320.632 -43.8489
L327.816 -43.5732
L334.504 -43.4143
L340.76 -43.3229
L346.636 -43.2704
L352.177 -43.2404
L357.418 -43.2231
L362.39 -43.2132
L367.119 -43.2076
L371.629 -43.2043
L375.938 -43.2025
L380.063 -43.2014
L384.02 -43.2008
L387.822 -43.2005
L391.48 -43.2003
L395.006 -43.2002
L398.407 -43.2001
L401.693 -43.2001
L404.872 -43.2
L407.949 -43.2
L410.932 -43.2
L413.826 -43.2
L416.636 -43.2
L419.367 -43.2
L422.023 -43.2
L424.608 -43.2
L427.126 -43.2
L429.58 -43.2
L431.973 -43.2
L434.309 -43.2
L436.59 -43.2
L438.819 -43.2
L440.997 -43.2
L443.128 -43.2
L445.212 -43.2
L447.253 -43.2
L449.252 -43.2
L451.21 -43.2
L453.13 -43.2
L455.012 -43.2
L456.858 -43.2
L458.67 -43.2
L460.449 -43.2
L462.196 -43.2
L463.911 -43.2
L465.597 -43.2
L467.254 -43.2
L468.883 -43.2
L470.486 -43.2
L472.062 -43.2
L473.613 -43.2
L475.139 -43.2
L476.642 -43.2
L478.122 -43.2
L479.58 -43.2
L481.016 -43.2
L482.431 -43.2
L483.826 -43.2
L485.201 -43.2
L486.557 -43.2
L487.894 -43.2
L489.213 -43.2
L490.514 -43.2
L491.798 -43.2
L493.065 -43.2
L494.316 -43.2
L495.55 -43.2
L496.77 -43.2
L497.974 -43.2
L499.163 -43.2
L500.338 -43.2
L501.499 -43.2
L502.646 -43.2
L503.78 -43.2
L504.901 -43.2
L506.009 -43.2
L507.104 -43.2
L508.187 -43.2
L509.258 -43.2
L510.317 -43.2
L511.365 -43.2
L512.402 -43.2
L513.428 -43.2
L514.443 -43.2
L515.447 -43.2
L516.442 -43.2
L517.426 -43.2
L518.4 -43.2
L518.4 -200.046
L518.4 -200.046
L517.426 -200.046
L516.442 -200.046
L515.447 -200.046
L514.443 -200.046
L513.428 -200.046
L512.402 -200.046
L511.365 -200.046
L510.317 -200.046
L509.258 -200.046
L508.187 -200.046
L507.104 -200.046
L506.009 -200.046
L504.901 -200.046
L503.78 -200.046
L502.646 -200.046
L501.499 -200.046
L500.338 -200.046
L499.163 -200.046
L497.974 -200.046
L496.77 -200.046
L495.55 -200.046
L494.316 -200.046
L493.065 -200.046
L491.798 -200.046
L490.514 -200.046
L489.213 -200.046
L487.894 -200.046
L486.557 -200.046
L485.201 -200.046
L483.826 -200.046
L482.431 -200.046
L481.016 -200.046
L479.58 -200.046
L478.122 -200.046
L476.642 -200.046
L475.139 -200.046
L473.613 -200.046
L472.062 -200.046
L470.486 -200.046
L468.883 -200.046
L467.254 -200.046
L465.597 -200.046
L463.911 -200.046
L462.196 -200.046
L460.449 -200.046
L458.67 -200.046
L456.858 -200.046
L455.012 -200.046
L453.13 -200.046
L451.21 -200.046
L449.252 -200.046
L447.253 -200.046
L445.212 -200.046
L443.128 -200.046
L440.997 -200.046
L438.819 -200.046
L436.59 -200.046
L434.309 -200.046
L431.973 -200.046
L429.58 -200.046
L427.126 -200.046
L424.608 -200.046
L422.023 -200.046
L419.367 -200.046
L416.636 -200.046
L413.826 -200.046
L410.932 -200.046
L407.949 -200.046
L404.872 -200.046
L401.693 -200.046
L398.407 -200.046
L395.006 -200.046
L391.48 -200.046
L387.822 -200.046
L384.02 -200.046
L380.063 -200.046
L375.938 -200.045
L371.629 -200.045
L367.119 -200.045
L362.39 -200.044
L357.418 -200.044
L352.177 -200.044
L346.636 -200.044
L340.76 -200.045
L334.504 -200.048
L327.816 -200.051
L320.632 -200.079
L312.873 -200.119
L304.439 -200.154
L295.2 -200.324
L284.987 -200.596
L273.57 -201.064
L260.626 -201.867
L245.683 -202.381
L228.01 -203.072
L206.38 -201.886
L178.493 -199.963
L139.19 -196.714
L72 -189.974
L-67111.2 -181.44
z
" id="m4a0d5f5dca" style="stroke:#000000;"/>
    </defs>
    <g clip-path="url(#p7ff5b81e1d)">
     <use style="fill:#008000;stroke:#000000;" x="0.0" xlink:href="#m4a0d5f5dca" y="432.0"/>
    </g>
   </g>
   <g id="PolyCollection_3">
    <defs>
     <path d="
M-67111.2 -250.56
L-67111.2 -181.44
L72 -189.974
L139.19 -196.714
L178.493 -199.963
L206.38 -201.886
L228.01 -203.072
L245.683 -202.381
L260.626 -201.867
L273.57 -201.064
L284.987 -200.596
L295.2 -200.324
L304.439 -200.154
L312.873 -200.119
L320.632 -200.079
L327.816 -200.051
L334.504 -200.048
L340.76 -200.045
L346.636 -200.044
L352.177 -200.044
L357.418 -200.044
L362.39 -200.044
L367.119 -200.045
L371.629 -200.045
L375.938 -200.045
L380.063 -200.046
L384.02 -200.046
L387.822 -200.046
L391.48 -200.046
L395.006 -200.046
L398.407 -200.046
L401.693 -200.046
L404.872 -200.046
L407.949 -200.046
L410.932 -200.046
L413.826 -200.046
L416.636 -200.046
L419.367 -200.046
L422.023 -200.046
L424.608 -200.046
L427.126 -200.046
L429.58 -200.046
L431.973 -200.046
L434.309 -200.046
L436.59 -200.046
L438.819 -200.046
L440.997 -200.046
L443.128 -200.046
L445.212 -200.046
L447.253 -200.046
L449.252 -200.046
L451.21 -200.046
L453.13 -200.046
L455.012 -200.046
L456.858 -200.046
L458.67 -200.046
L460.449 -200.046
L462.196 -200.046
L463.911 -200.046
L465.597 -200.046
L467.254 -200.046
L468.883 -200.046
L470.486 -200.046
L472.062 -200.046
L473.613 -200.046
L475.139 -200.046
L476.642 -200.046
L478.122 -200.046
L479.58 -200.046
L481.016 -200.046
L482.431 -200.046
L483.826 -200.046
L485.201 -200.046
L486.557 -200.046
L487.894 -200.046
L489.213 -200.046
L490.514 -200.046
L491.798 -200.046
L493.065 -200.046
L494.316 -200.046
L495.55 -200.046
L496.77 -200.046
L497.974 -200.046
L499.163 -200.046
L500.338 -200.046
L501.499 -200.046
L502.646 -200.046
L503.78 -200.046
L504.901 -200.046
L506.009 -200.046
L507.104 -200.046
L508.187 -200.046
L509.258 -200.046
L510.317 -200.046
L511.365 -200.046
L512.402 -200.046
L513.428 -200.046
L514.443 -200.046
L515.447 -200.046
L516.442 -200.046
L517.426 -200.046
L518.4 -200.046
L518.4 -328.167
L518.4 -328.167
L517.426 -328.167
L516.442 -328.167
L515.447 -328.167
L514.443 -328.167
L513.428 -328.167
L512.402 -328.167
L511.365 -328.167
L510.317 -328.167
L509.258 -328.167
L508.187 -328.167
L507.104 -328.167
L506.009 -328.167
L504.901 -328.167
L503.78 -328.167
L502.646 -328.167
L501.499 -328.167
L500.338 -328.167
L499.163 -328.167
L497.974 -328.167
L496.77 -328.167
L495.55 -328.167
L494.316 -328.167
L493.065 -328.167
L491.798 -328.167
L490.514 -328.167
L489.213 -328.167
L487.894 -328.167
L486.557 -328.167
L485.201 -328.167
L483.826 -328.167
L482.431 -328.167
L481.016 -328.167
L479.58 -328.167
L478.122 -328.167
L476.642 -328.167
L475.139 -328.167
L473.613 -328.167
L472.062 -328.167
L470.486 -328.167
L468.883 -328.167
L467.254 -328.167
L465.597 -328.167
L463.911 -328.167
L462.196 -328.167
L460.449 -328.167
L458.67 -328.167
L456.858 -328.167
L455.012 -328.167
L453.13 -328.167
L451.21 -328.167
L449.252 -328.167
L447.253 -328.167
L445.212 -328.167
L443.128 -328.167
L440.997 -328.167
L438.819 -328.167
L436.59 -328.167
L434.309 -328.167
L431.973 -328.167
L429.58 -328.167
L427.126 -328.167
L424.608 -328.167
L422.023 -328.167
L419.367 -328.167
L416.636 -328.167
L413.826 -328.167
L410.932 -328.167
L407.949 -328.167
L404.872 -328.167
L401.693 -328.167
L398.407 -328.167
L395.006 -328.167
L391.48 -328.167
L387.822 -328.167
L384.02 -328.166
L380.063 -328.166
L375.938 -328.165
L371.629 -328.163
L367.119 -328.161
L362.39 -328.156
L357.418 -328.149
L352.177 -328.138
L346.636 -328.117
L340.76 -328.084
L334.504 -328.027
L327.816 -327.927
L320.632 -327.77
L312.873 -327.515
L304.439 -327.059
L295.2 -326.377
L284.987 -325.208
L273.57 -323.377
L260.626 -320.725
L245.683 -316.368
L228.01 -310.361
L206.38 -301.811
L178.493 -291.911
L139.19 -280.019
L72 -265.815
L-67111.2 -250.56
z
" id="m80ba391db8" style="stroke:#000000;"/>
    </defs>
    <g clip-path="url(#p7ff5b81e1d)">
     <use style="fill:#ff0000;stroke:#000000;" x="0.0" xlink:href="#m80ba391db8" y="432.0"/>
    </g>
   </g>
   <g id="PolyCollection_4">
    <defs>
     <path d="
M-67111.2 -319.68
L-67111.2 -250.56
L72 -265.815
L139.19 -280.019
L178.493 -291.911
L206.38 -301.811
L228.01 -310.361
L245.683 -316.368
L260.626 -320.725
L273.57 -323.377
L284.987 -325.208
L295.2 -326.377
L304.439 -327.059
L312.873 -327.515
L320.632 -327.77
L327.816 -327.927
L334.504 -328.027
L340.76 -328.084
L346.636 -328.117
L352.177 -328.138
L357.418 -328.149
L362.39 -328.156
L367.119 -328.161
L371.629 -328.163
L375.938 -328.165
L380.063 -328.166
L384.02 -328.166
L387.822 -328.167
L391.48 -328.167
L395.006 -328.167
L398.407 -328.167
L401.693 -328.167
L404.872 -328.167
L407.949 -328.167
L410.932 -328.167
L413.826 -328.167
L416.636 -328.167
L419.367 -328.167
L422.023 -328.167
L424.608 -328.167
L427.126 -328.167
L429.58 -328.167
L431.973 -328.167
L434.309 -328.167
L436.59 -328.167
L438.819 -328.167
L440.997 -328.167
L443.128 -328.167
L445.212 -328.167
L447.253 -328.167
L449.252 -328.167
L451.21 -328.167
L453.13 -328.167
L455.012 -328.167
L456.858 -328.167
L458.67 -328.167
L460.449 -328.167
L462.196 -328.167
L463.911 -328.167
L465.597 -328.167
L467.254 -328.167
L468.883 -328.167
L470.486 -328.167
L472.062 -328.167
L473.613 -328.167
L475.139 -328.167
L476.642 -328.167
L478.122 -328.167
L479.58 -328.167
L481.016 -328.167
L482.431 -328.167
L483.826 -328.167
L485.201 -328.167
L486.557 -328.167
L487.894 -328.167
L489.213 -328.167
L490.514 -328.167
L491.798 -328.167
L493.065 -328.167
L494.316 -328.167
L495.55 -328.167
L496.77 -328.167
L497.974 -328.167
L499.163 -328.167
L500.338 -328.167
L501.499 -328.167
L502.646 -328.167
L503.78 -328.167
L504.901 -328.167
L506.009 -328.167
L507.104 -328.167
L508.187 -328.167
L509.258 -328.167
L510.317 -328.167
L511.365 -328.167
L512.402 -328.167
L513.428 -328.167
L514.443 -328.167
L515.447 -328.167
L516.442 -328.167
L517.426 -328.167
L518.4 -328.167
L518.4 -388.8
L518.4 -388.8
L517.426 -388.8
L516.442 -388.8
L515.447 -388.8
L514.443 -388.8
L513.428 -388.8
L512.402 -388.8
L511.365 -388.8
L510.317 -388.8
L509.258 -388.8
L508.187 -388.8
L507.104 -388.8
L506.009 -388.8
L504.901 -388.8
L503.78 -388.8
L502.646 -388.8
L501.499 -388.8
L500.338 -388.8
L499.163 -388.8
L497.974 -388.8
L496.77 -388.8
L495.55 -388.8
L494.316 -388.8
L493.065 -388.8
L491.798 -388.8
L490.514 -388.8
L489.213 -388.8
L487.894 -388.8
L486.557 -388.8
L485.201 -388.8
L483.826 -388.8
L482.431 -388.8
L481.016 -388.8
L479.58 -388.8
L478.122 -388.8
L476.642 -388.8
L475.139 -388.8
L473.613 -388.8
L472.062 -388.8
L470.486 -388.8
L468.883 -388.8
L467.254 -388.8
L465.597 -388.8
L463.911 -388.8
L462.196 -388.8
L460.449 -388.8
L458.67 -388.8
L456.858 -388.8
L455.012 -388.8
L453.13 -388.8
L451.21 -388.8
L449.252 -388.8
L447.253 -388.8
L445.212 -388.8
L443.128 -388.8
L440.997 -388.8
L438.819 -388.8
L436.59 -388.8
L434.309 -388.8
L431.973 -388.8
L429.58 -388.8
L427.126 -388.8
L424.608 -388.8
L422.023 -388.8
L419.367 -388.8
L416.636 -388.8
L413.826 -388.8
L410.932 -388.8
L407.949 -388.8
L404.872 -388.8
L401.693 -388.8
L398.407 -388.8
L395.006 -388.8
L391.48 -388.8
L387.822 -388.799
L384.02 -388.799
L380.063 -388.798
L375.938 -388.797
L371.629 -388.796
L367.119 -388.793
L362.39 -388.788
L357.418 -388.78
L352.177 -388.766
L346.636 -388.743
L340.76 -388.706
L334.504 -388.64
L327.816 -388.526
L320.632 -388.342
L312.873 -388.042
L304.439 -387.52
L295.2 -386.727
L284.987 -385.376
L273.57 -383.23
L260.626 -380.158
L245.683 -375.421
L228.01 -368.872
L206.38 -360.438
L178.493 -351.102
L139.19 -340.691
L72 -329.77
L-67111.2 -319.68
z
" id="m3855b715b1" style="stroke:#000000;"/>
    </defs>
    <g clip-path="url(#p7ff5b81e1d)">
     <use style="fill:#00bfbf;stroke:#000000;" x="0.0" xlink:href="#m3855b715b1" y="432.0"/>
    </g>
   </g>
   <g id="PolyCollection_5">
    <defs>
     <path d="
M-67111.2 -388.8
L-67111.2 -319.68
L72 -329.77
L139.19 -340.691
L178.493 -351.102
L206.38 -360.438
L228.01 -368.872
L245.683 -375.421
L260.626 -380.158
L273.57 -383.23
L284.987 -385.376
L295.2 -386.727
L304.439 -387.52
L312.873 -388.042
L320.632 -388.342
L327.816 -388.526
L334.504 -388.64
L340.76 -388.706
L346.636 -388.743
L352.177 -388.766
L357.418 -388.78
L362.39 -388.788
L367.119 -388.793
L371.629 -388.796
L375.938 -388.797
L380.063 -388.798
L384.02 -388.799
L387.822 -388.799
L391.48 -388.8
L395.006 -388.8
L398.407 -388.8
L401.693 -388.8
L404.872 -388.8
L407.949 -388.8
L410.932 -388.8
L413.826 -388.8
L416.636 -388.8
L419.367 -388.8
L422.023 -388.8
L424.608 -388.8
L427.126 -388.8
L429.58 -388.8
L431.973 -388.8
L434.309 -388.8
L436.59 -388.8
L438.819 -388.8
L440.997 -388.8
L443.128 -388.8
L445.212 -388.8
L447.253 -388.8
L449.252 -388.8
L451.21 -388.8
L453.13 -388.8
L455.012 -388.8
L456.858 -388.8
L458.67 -388.8
L460.449 -388.8
L462.196 -388.8
L463.911 -388.8
L465.597 -388.8
L467.254 -388.8
L468.883 -388.8
L470.486 -388.8
L472.062 -388.8
L473.613 -388.8
L475.139 -388.8
L476.642 -388.8
L478.122 -388.8
L479.58 -388.8
L481.016 -388.8
L482.431 -388.8
L483.826 -388.8
L485.201 -388.8
L486.557 -388.8
L487.894 -388.8
L489.213 -388.8
L490.514 -388.8
L491.798 -388.8
L493.065 -388.8
L494.316 -388.8
L495.55 -388.8
L496.77 -388.8
L497.974 -388.8
L499.163 -388.8
L500.338 -388.8
L501.499 -388.8
L502.646 -388.8
L503.78 -388.8
L504.901 -388.8
L506.009 -388.8
L507.104 -388.8
L508.187 -388.8
L509.258 -388.8
L510.317 -388.8
L511.365 -388.8
L512.402 -388.8
L513.428 -388.8
L514.443 -388.8
L515.447 -388.8
L516.442 -388.8
L517.426 -388.8
L518.4 -388.8
L518.4 -388.8
L518.4 -388.8
L517.426 -388.8
L516.442 -388.8
L515.447 -388.8
L514.443 -388.8
L513.428 -388.8
L512.402 -388.8
L511.365 -388.8
L510.317 -388.8
L509.258 -388.8
L508.187 -388.8
L507.104 -388.8
L506.009 -388.8
L504.901 -388.8
L503.78 -388.8
L502.646 -388.8
L501.499 -388.8
L500.338 -388.8
L499.163 -388.8
L497.974 -388.8
L496.77 -388.8
L495.55 -388.8
L494.316 -388.8
L493.065 -388.8
L491.798 -388.8
L490.514 -388.8
L489.213 -388.8
L487.894 -388.8
L486.557 -388.8
L485.201 -388.8
L483.826 -388.8
L482.431 -388.8
L481.016 -388.8
L479.58 -388.8
L478.122 -388.8
L476.642 -388.8
L475.139 -388.8
L473.613 -388.8
L472.062 -388.8
L470.486 -388.8
L468.883 -388.8
L467.254 -388.8
L465.597 -388.8
L463.911 -388.8
L462.196 -388.8
L460.449 -388.8
L458.67 -388.8
L456.858 -388.8
L455.012 -388.8
L453.13 -388.8
L451.21 -388.8
L449.252 -388.8
L447.253 -388.8
L445.212 -388.8
L443.128 -388.8
L440.997 -388.8
L438.819 -388.8
L436.59 -388.8
L434.309 -388.8
L431.973 -388.8
L429.58 -388.8
L427.126 -388.8
L424.608 -388.8
L422.023 -388.8
L419.367 -388.8
L416.636 -388.8
L413.826 -388.8
L410.932 -388.8
L407.949 -388.8
L404.872 -388.8
L401.693 -388.8
L398.407 -388.8
L395.006 -388.8
L391.48 -388.8
L387.822 -388.8
L384.02 -388.8
L380.063 -388.8
L375.938 -388.8
L371.629 -388.8
L367.119 -388.8
L362.39 -388.8
L357.418 -388.8
L352.177 -388.8
L346.636 -388.8
L340.76 -388.8
L334.504 -388.8
L327.816 -388.8
L320.632 -388.8
L312.873 -388.8
L304.439 -388.8
L295.2 -388.8
L284.987 -388.8
L273.57 -388.8
L260.626 -388.8
L245.683 -388.8
L228.01 -388.8
L206.38 -388.8
L178.493 -388.8
L139.19 -388.8
L72 -388.8
L-67111.2 -388.8
z
" id="mfba269fd58" style="stroke:#000000;"/>
    </defs>
    <g clip-path="url(#p7ff5b81e1d)">
     <use style="fill:#bf00bf;stroke:#000000;" x="0.0" xlink:href="#mfba269fd58" y="432.0"/>
    </g>
   </g>
   <g id="patch_3">
    <path d="
M72 43.2
L518.4 43.2" style="fill:none;stroke:#000000;stroke-linecap:square;stroke-linejoin:miter;"/>
   </g>
   <g id="patch_4">
    <path d="
M518.4 388.8
L518.4 43.2" style="fill:none;stroke:#000000;stroke-linecap:square;stroke-linejoin:miter;"/>
   </g>
   <g id="patch_5">
    <path d="
M72 388.8
L518.4 388.8" style="fill:none;stroke:#000000;stroke-linecap:square;stroke-linejoin:miter;"/>
   </g>
   <g id="patch_6">
    <path d="
M72 388.8
L72 43.2" style="fill:none;stroke:#000000;stroke-linecap:square;stroke-linejoin:miter;"/>
   </g>
   <g id="matplotlib.axis_1">
    <g id="xtick_1">
     <g id="line2d_1">
      <defs>
       <path d="
M0 0
L0 4" id="m741efc42ff" style="stroke:#000000;stroke-width:0.5;"/>
      </defs>
      <g>
       <use style="stroke:#000000;stroke-width:0.5;" x="72.0" xlink:href="#m741efc42ff" y="388.8"/>
      </g>
     </g>
     <g id="line2d_2">
      <defs>
       <path d="
M0 0
L0 -4" id="m93b0483c22" style="stroke:#000000;stroke-width:0.5;"/>
      </defs>
      <g>
       <use style="stroke:#000000;stroke-width:0.5;" x="72.0" xlink:href="#m93b0483c22" y="43.2"/>
      </g>
     </g>
     <g id="text_1">
      <!-- $\mathdefault{10^{0}}$ -->
      <defs>
       <path d="
M31.7812 66.4062
Q24.1719 66.4062 20.3281 58.9062
Q16.5 51.4219 16.5 36.375
Q16.5 21.3906 20.3281 13.8906
Q24.1719 6.39062 31.7812 6.39062
Q39.4531 6.39062 43.2812 13.8906
Q47.125 21.3906 47.125 36.375
Q47.125 51.4219 43.2812 58.9062
Q39.4531 66.4062 31.7812 66.4062
M31.7812 74.2188
Q44.0469 74.2188 50.5156 64.5156
Q56.9844 54.8281 56.9844 36.375
Q56.9844 17.9688 50.5156 8.26562
Q44.0469 -1.42188 31.7812 -1.42188
Q19.5312 -1.42188 13.0625 8.26562
Q6.59375 17.9688 6.59375 36.375
Q6.59375 54.8281 13.0625 64.5156
Q19.5312 74.2188 31.7812 74.2188" id="BitstreamVeraSans-Roman-30"/>
       <path d="
M12.4062 8.29688
L28.5156 8.29688
L28.5156 63.9219
L10.9844 60.4062
L10.9844 69.3906
L28.4219 72.9062
L38.2812 72.9062
L38.2812 8.29688
L54.3906 8.29688
L54.3906 0
L12.4062 0
z
" id="BitstreamVeraSans-Roman-31"/>
      </defs>
      <g transform="translate(60.42 407.144375)scale(0.12 -0.12)">
       <use transform="translate(0.0 0.546875)" xlink:href="#BitstreamVeraSans-Roman-31"/>
       <use transform="translate(63.623046875 0.546875)" xlink:href="#BitstreamVeraSans-Roman-30"/>
       <use transform="translate(127.24609375 53.046875)scale(0.7)" xlink:href="#BitstreamVeraSans-Roman-30"/>
      </g>
     </g>
    </g>
    <g id="xtick_2">
     <g id="line2d_3">
      <g>
       <use style="stroke:#000000;stroke-width:0.5;" x="295.2" xlink:href="#m741efc42ff" y="388.8"/>
      </g>
     </g>
     <g id="line2d_4">
      <g>
       <use style="stroke:#000000;stroke-width:0.5;" x="295.2" xlink:href="#m93b0483c22" y="43.2"/>
      </g>
     </g>
     <g id="text_2">
      <!-- $\mathdefault{10^{1}}$ -->
      <g transform="translate(283.62 407.024375)scale(0.12 -0.12)">
       <use transform="translate(0.0 0.465625)" xlink:href="#BitstreamVeraSans-Roman-31"/>
       <use transform="translate(63.623046875 0.465625)" xlink:href="#BitstreamVeraSans-Roman-30"/>
       <use transform="translate(127.24609375 52.965625)scale(0.7)" xlink:href="#BitstreamVeraSans-Roman-31"/>
      </g>
     </g>
    </g>
    <g id="xtick_3">
     <g id="line2d_5">
      <g>
       <use style="stroke:#000000;stroke-width:0.5;" x="518.4" xlink:href="#m741efc42ff" y="388.8"/>
      </g>
     </g>
     <g id="line2d_6">
      <g>
       <use style="stroke:#000000;stroke-width:0.5;" x="518.4" xlink:href="#m93b0483c22" y="43.2"/>
      </g>
     </g>
     <g id="text_3">
      <!-- $\mathdefault{10^{2}}$ -->
      <defs>
       <path d="
M19.1875 8.29688
L53.6094 8.29688
L53.6094 0
L7.32812 0
L7.32812 8.29688
Q12.9375 14.1094 22.625 23.8906
Q32.3281 33.6875 34.8125 36.5312
Q39.5469 41.8438 41.4219 45.5312
Q43.3125 49.2188 43.3125 52.7812
Q43.3125 58.5938 39.2344 62.25
Q35.1562 65.9219 28.6094 65.9219
Q23.9688 65.9219 18.8125 64.3125
Q13.6719 62.7031 7.8125 59.4219
L7.8125 69.3906
Q13.7656 71.7812 18.9375 73
Q24.125 74.2188 28.4219 74.2188
Q39.75 74.2188 46.4844 68.5469
Q53.2188 62.8906 53.2188 53.4219
Q53.2188 48.9219 51.5312 44.8906
Q49.8594 40.875 45.4062 35.4062
Q44.1875 33.9844 37.6406 27.2188
Q31.1094 20.4531 19.1875 8.29688" id="BitstreamVeraSans-Roman-32"/>
      </defs>
      <g transform="translate(506.82 407.144375)scale(0.12 -0.12)">
       <use transform="translate(0.0 0.546875)" xlink:href="#BitstreamVeraSans-Roman-31"/>
       <use transform="translate(63.623046875 0.546875)" xlink:href="#BitstreamVeraSans-Roman-30"/>
       <use transform="translate(127.24609375 53.046875)scale(0.7)" xlink:href="#BitstreamVeraSans-Roman-32"/>
      </g>
     </g>
    </g>
    <g id="xtick_4">
     <g id="line2d_7">
      <defs>
       <path d="
M0 0
L0 -2" id="m177f7580d0" style="stroke:#000000;stroke-width:0.5;"/>
      </defs>
      <g>
       <use style="stroke:#000000;stroke-width:0.5;" x="139.189895032" xlink:href="#m177f7580d0" y="388.8"/>
      </g>
     </g>
     <g id="line2d_8">
      <defs>
       <path d="
M0 0
L0 2" id="m5284c7e2a0" style="stroke:#000000;stroke-width:0.5;"/>
      </defs>
      <g>
       <use style="stroke:#000000;stroke-width:0.5;" x="139.189895032" xlink:href="#m5284c7e2a0" y="43.2"/>
      </g>
     </g>
    </g>
    <g id="xtick_5">
     <g id="line2d_9">
      <g>
       <use style="stroke:#000000;stroke-width:0.5;" x="178.493464053" xlink:href="#m177f7580d0" y="388.8"/>
      </g>
     </g>
     <g id="line2d_10">
      <g>
       <use style="stroke:#000000;stroke-width:0.5;" x="178.493464053" xlink:href="#m5284c7e2a0" y="43.2"/>
      </g>
     </g>
    </g>
    <g id="xtick_6">
     <g id="line2d_11">
      <g>
       <use style="stroke:#000000;stroke-width:0.5;" x="206.379790064" xlink:href="#m177f7580d0" y="388.8"/>
      </g>
     </g>
     <g id="line2d_12">
      <g>
       <use style="stroke:#000000;stroke-width:0.5;" x="206.379790064" xlink:href="#m5284c7e2a0" y="43.2"/>
      </g>
     </g>
    </g>
    <g id="xtick_7">
     <g id="line2d_13">
      <g>
       <use style="stroke:#000000;stroke-width:0.5;" x="228.010104968" xlink:href="#m177f7580d0" y="388.8"/>
      </g>
     </g>
     <g id="line2d_14">
      <g>
       <use style="stroke:#000000;stroke-width:0.5;" x="228.010104968" xlink:href="#m5284c7e2a0" y="43.2"/>
      </g>
     </g>
    </g>
    <g id="xtick_8">
     <g id="line2d_15">
      <g>
       <use style="stroke:#000000;stroke-width:0.5;" x="245.683359086" xlink:href="#m177f7580d0" y="388.8"/>
      </g>
     </g>
     <g id="line2d_16">
      <g>
       <use style="stroke:#000000;stroke-width:0.5;" x="245.683359086" xlink:href="#m5284c7e2a0" y="43.2"/>
      </g>
     </g>
    </g>
    <g id="xtick_9">
     <g id="line2d_17">
      <g>
       <use style="stroke:#000000;stroke-width:0.5;" x="260.625882531" xlink:href="#m177f7580d0" y="388.8"/>
      </g>
     </g>
     <g id="line2d_18">
      <g>
       <use style="stroke:#000000;stroke-width:0.5;" x="260.625882531" xlink:href="#m5284c7e2a0" y="43.2"/>
      </g>
     </g>
    </g>
    <g id="xtick_10">
     <g id="line2d_19">
      <g>
       <use style="stroke:#000000;stroke-width:0.5;" x="273.569685097" xlink:href="#m177f7580d0" y="388.8"/>
      </g>
     </g>
     <g id="line2d_20">
      <g>
       <use style="stroke:#000000;stroke-width:0.5;" x="273.569685097" xlink:href="#m5284c7e2a0" y="43.2"/>
      </g>
     </g>
    </g>
    <g id="xtick_11">
     <g id="line2d_21">
      <g>
       <use style="stroke:#000000;stroke-width:0.5;" x="284.986928107" xlink:href="#m177f7580d0" y="388.8"/>
      </g>
     </g>
     <g id="line2d_22">
      <g>
       <use style="stroke:#000000;stroke-width:0.5;" x="284.986928107" xlink:href="#m5284c7e2a0" y="43.2"/>
      </g>
     </g>
    </g>
    <g id="xtick_12">
     <g id="line2d_23">
      <g>
       <use style="stroke:#000000;stroke-width:0.5;" x="362.389895032" xlink:href="#m177f7580d0" y="388.8"/>
      </g>
     </g>
     <g id="line2d_24">
      <g>
       <use style="stroke:#000000;stroke-width:0.5;" x="362.389895032" xlink:href="#m5284c7e2a0" y="43.2"/>
      </g>
     </g>
    </g>
    <g id="xtick_13">
     <g id="line2d_25">
      <g>
       <use style="stroke:#000000;stroke-width:0.5;" x="401.693464053" xlink:href="#m177f7580d0" y="388.8"/>
      </g>
     </g>
     <g id="line2d_26">
      <g>
       <use style="stroke:#000000;stroke-width:0.5;" x="401.693464053" xlink:href="#m5284c7e2a0" y="43.2"/>
      </g>
     </g>
    </g>
    <g id="xtick_14">
     <g id="line2d_27">
      <g>
       <use style="stroke:#000000;stroke-width:0.5;" x="429.579790064" xlink:href="#m177f7580d0" y="388.8"/>
      </g>
     </g>
     <g id="line2d_28">
      <g>
       <use style="stroke:#000000;stroke-width:0.5;" x="429.579790064" xlink:href="#m5284c7e2a0" y="43.2"/>
      </g>
     </g>
    </g>
    <g id="xtick_15">
     <g id="line2d_29">
      <g>
       <use style="stroke:#000000;stroke-width:0.5;" x="451.210104968" xlink:href="#m177f7580d0" y="388.8"/>
      </g>
     </g>
     <g id="line2d_30">
      <g>
       <use style="stroke:#000000;stroke-width:0.5;" x="451.210104968" xlink:href="#m5284c7e2a0" y="43.2"/>
      </g>
     </g>
    </g>
    <g id="xtick_16">
     <g id="line2d_31">
      <g>
       <use style="stroke:#000000;stroke-width:0.5;" x="468.883359086" xlink:href="#m177f7580d0" y="388.8"/>
      </g>
     </g>
     <g id="line2d_32">
      <g>
       <use style="stroke:#000000;stroke-width:0.5;" x="468.883359086" xlink:href="#m5284c7e2a0" y="43.2"/>
      </g>
     </g>
    </g>
    <g id="xtick_17">
     <g id="line2d_33">
      <g>
       <use style="stroke:#000000;stroke-width:0.5;" x="483.825882531" xlink:href="#m177f7580d0" y="388.8"/>
      </g>
     </g>
     <g id="line2d_34">
      <g>
       <use style="stroke:#000000;stroke-width:0.5;" x="483.825882531" xlink:href="#m5284c7e2a0" y="43.2"/>
      </g>
     </g>
    </g>
    <g id="xtick_18">
     <g id="line2d_35">
      <g>
       <use style="stroke:#000000;stroke-width:0.5;" x="496.769685097" xlink:href="#m177f7580d0" y="388.8"/>
      </g>
     </g>
     <g id="line2d_36">
      <g>
       <use style="stroke:#000000;stroke-width:0.5;" x="496.769685097" xlink:href="#m5284c7e2a0" y="43.2"/>
      </g>
     </g>
    </g>
    <g id="xtick_19">
     <g id="line2d_37">
      <g>
       <use style="stroke:#000000;stroke-width:0.5;" x="508.186928107" xlink:href="#m177f7580d0" y="388.8"/>
      </g>
     </g>
     <g id="line2d_38">
      <g>
       <use style="stroke:#000000;stroke-width:0.5;" x="508.186928107" xlink:href="#m5284c7e2a0" y="43.2"/>
      </g>
     </g>
    </g>
    <g id="text_4">
     <!-- Turn -->
     <defs>
      <path d="
M54.8906 33.0156
L54.8906 0
L45.9062 0
L45.9062 32.7188
Q45.9062 40.4844 42.875 44.3281
Q39.8438 48.1875 33.7969 48.1875
Q26.5156 48.1875 22.3125 43.5469
Q18.1094 38.9219 18.1094 30.9062
L18.1094 0
L9.07812 0
L9.07812 54.6875
L18.1094 54.6875
L18.1094 46.1875
Q21.3438 51.125 25.7031 53.5625
Q30.0781 56 35.7969 56
Q45.2188 56 50.0469 50.1719
Q54.8906 44.3438 54.8906 33.0156" id="BitstreamVeraSans-Roman-6e"/>
      <path d="
M41.1094 46.2969
Q39.5938 47.1719 37.8125 47.5781
Q36.0312 48 33.8906 48
Q26.2656 48 22.1875 43.0469
Q18.1094 38.0938 18.1094 28.8125
L18.1094 0
L9.07812 0
L9.07812 54.6875
L18.1094 54.6875
L18.1094 46.1875
Q20.9531 51.1719 25.4844 53.5781
Q30.0312 56 36.5312 56
Q37.4531 56 38.5781 55.875
Q39.7031 55.7656 41.0625 55.5156
z
" id="BitstreamVeraSans-Roman-72"/>
      <path d="
M8.5 21.5781
L8.5 54.6875
L17.4844 54.6875
L17.4844 21.9219
Q17.4844 14.1562 20.5 10.2656
Q23.5312 6.39062 29.5938 6.39062
Q36.8594 6.39062 41.0781 11.0312
Q45.3125 15.6719 45.3125 23.6875
L45.3125 54.6875
L54.2969 54.6875
L54.2969 0
L45.3125 0
L45.3125 8.40625
Q42.0469 3.42188 37.7188 1
Q33.4062 -1.42188 27.6875 -1.42188
Q18.2656 -1.42188 13.375 4.4375
Q8.5 10.2969 8.5 21.5781" id="BitstreamVeraSans-Roman-75"/>
      <path d="
M-0.296875 72.9062
L61.375 72.9062
L61.375 64.5938
L35.5 64.5938
L35.5 0
L25.5938 0
L25.5938 64.5938
L-0.296875 64.5938
z
" id="BitstreamVeraSans-Roman-54"/>
     </defs>
     <g transform="translate(282.9675 423.758125)scale(0.12 -0.12)">
      <use xlink:href="#BitstreamVeraSans-Roman-54"/>
      <use x="45.958984375" xlink:href="#BitstreamVeraSans-Roman-75"/>
      <use x="109.337890625" xlink:href="#BitstreamVeraSans-Roman-72"/>
      <use x="148.701171875" xlink:href="#BitstreamVeraSans-Roman-6e"/>
     </g>
    </g>
   </g>
   <g id="matplotlib.axis_2">
    <g id="ytick_1">
     <g id="line2d_39">
      <defs>
       <path d="
M0 0
L-4 0" id="mcb0005524f" style="stroke:#000000;stroke-width:0.5;"/>
      </defs>
      <g>
       <use style="stroke:#000000;stroke-width:0.5;" x="72.0" xlink:href="#mcb0005524f" y="354.24"/>
      </g>
     </g>
    </g>
    <g id="ytick_2">
     <g id="line2d_40">
      <g>
       <use style="stroke:#000000;stroke-width:0.5;" x="72.0" xlink:href="#mcb0005524f" y="285.12"/>
      </g>
     </g>
    </g>
    <g id="ytick_3">
     <g id="line2d_41">
      <g>
       <use style="stroke:#000000;stroke-width:0.5;" x="72.0" xlink:href="#mcb0005524f" y="216.0"/>
      </g>
     </g>
    </g>
    <g id="ytick_4">
     <g id="line2d_42">
      <g>
       <use style="stroke:#000000;stroke-width:0.5;" x="72.0" xlink:href="#mcb0005524f" y="146.88"/>
      </g>
     </g>
    </g>
    <g id="ytick_5">
     <g id="line2d_43">
      <g>
       <use style="stroke:#000000;stroke-width:0.5;" x="72.0" xlink:href="#mcb0005524f" y="77.76"/>
      </g>
     </g>
    </g>
    <g id="text_5">
     <!-- Relative population size -->
     <defs>
      <path id="BitstreamVeraSans-Roman-20"/>
      <path d="
M30.6094 48.3906
Q23.3906 48.3906 19.1875 42.75
Q14.9844 37.1094 14.9844 27.2969
Q14.9844 17.4844 19.1562 11.8438
Q23.3438 6.20312 30.6094 6.20312
Q37.7969 6.20312 41.9844 11.8594
Q46.1875 17.5312 46.1875 27.2969
Q46.1875 37.0156 41.9844 42.7031
Q37.7969 48.3906 30.6094 48.3906
M30.6094 56
Q42.3281 56 49.0156 48.375
Q55.7188 40.7656 55.7188 27.2969
Q55.7188 13.875 49.0156 6.21875
Q42.3281 -1.42188 30.6094 -1.42188
Q18.8438 -1.42188 12.1719 6.21875
Q5.51562 13.875 5.51562 27.2969
Q5.51562 40.7656 12.1719 48.375
Q18.8438 56 30.6094 56" id="BitstreamVeraSans-Roman-6f"/>
      <path d="
M9.42188 75.9844
L18.4062 75.9844
L18.4062 0
L9.42188 0
z
" id="BitstreamVeraSans-Roman-6c"/>
      <path d="
M5.51562 54.6875
L48.1875 54.6875
L48.1875 46.4844
L14.4062 7.17188
L48.1875 7.17188
L48.1875 0
L4.29688 0
L4.29688 8.20312
L38.0938 47.5156
L5.51562 47.5156
z
" id="BitstreamVeraSans-Roman-7a"/>
      <path d="
M2.98438 54.6875
L12.5 54.6875
L29.5938 8.79688
L46.6875 54.6875
L56.2031 54.6875
L35.6875 0
L23.4844 0
z
" id="BitstreamVeraSans-Roman-76"/>
      <path d="
M44.3906 34.1875
Q47.5625 33.1094 50.5625 29.5938
Q53.5625 26.0781 56.5938 19.9219
L66.6094 0
L56 0
L46.6875 18.7031
Q43.0625 26.0312 39.6719 28.4219
Q36.2812 30.8125 30.4219 30.8125
L19.6719 30.8125
L19.6719 0
L9.8125 0
L9.8125 72.9062
L32.0781 72.9062
Q44.5781 72.9062 50.7344 67.6719
Q56.8906 62.4531 56.8906 51.9062
Q56.8906 45.0156 53.6875 40.4688
Q50.4844 35.9375 44.3906 34.1875
M19.6719 64.7969
L19.6719 38.9219
L32.0781 38.9219
Q39.2031 38.9219 42.8438 42.2188
Q46.4844 45.5156 46.4844 51.9062
Q46.4844 58.2969 42.8438 61.5469
Q39.2031 64.7969 32.0781 64.7969
z
" id="BitstreamVeraSans-Roman-52"/>
      <path d="
M9.42188 54.6875
L18.4062 54.6875
L18.4062 0
L9.42188 0
z

M9.42188 75.9844
L18.4062 75.9844
L18.4062 64.5938
L9.42188 64.5938
z
" id="BitstreamVeraSans-Roman-69"/>
      <path d="
M56.2031 29.5938
L56.2031 25.2031
L14.8906 25.2031
Q15.4844 15.9219 20.4844 11.0625
Q25.4844 6.20312 34.4219 6.20312
Q39.5938 6.20312 44.4531 7.46875
Q49.3125 8.73438 54.1094 11.2812
L54.1094 2.78125
Q49.2656 0.734375 44.1875 -0.34375
Q39.1094 -1.42188 33.8906 -1.42188
Q20.7969 -1.42188 13.1562 6.1875
Q5.51562 13.8125 5.51562 26.8125
Q5.51562 40.2344 12.7656 48.1094
Q20.0156 56 32.3281 56
Q43.3594 56 49.7812 48.8906
Q56.2031 41.7969 56.2031 29.5938
M47.2188 32.2344
Q47.125 39.5938 43.0938 43.9844
Q39.0625 48.3906 32.4219 48.3906
Q24.9062 48.3906 20.3906 44.1406
Q15.875 39.8906 15.1875 32.1719
z
" id="BitstreamVeraSans-Roman-65"/>
      <path d="
M18.3125 70.2188
L18.3125 54.6875
L36.8125 54.6875
L36.8125 47.7031
L18.3125 47.7031
L18.3125 18.0156
Q18.3125 11.3281 20.1406 9.42188
Q21.9688 7.51562 27.5938 7.51562
L36.8125 7.51562
L36.8125 0
L27.5938 0
Q17.1875 0 13.2344 3.875
Q9.28125 7.76562 9.28125 18.0156
L9.28125 47.7031
L2.6875 47.7031
L2.6875 54.6875
L9.28125 54.6875
L9.28125 70.2188
z
" id="BitstreamVeraSans-Roman-74"/>
      <path d="
M34.2812 27.4844
Q23.3906 27.4844 19.1875 25
Q14.9844 22.5156 14.9844 16.5
Q14.9844 11.7188 18.1406 8.90625
Q21.2969 6.10938 26.7031 6.10938
Q34.1875 6.10938 38.7031 11.4062
Q43.2188 16.7031 43.2188 25.4844
L43.2188 27.4844
z

M52.2031 31.2031
L52.2031 0
L43.2188 0
L43.2188 8.29688
Q40.1406 3.32812 35.5469 0.953125
Q30.9531 -1.42188 24.3125 -1.42188
Q15.9219 -1.42188 10.9531 3.29688
Q6 8.01562 6 15.9219
Q6 25.1406 12.1719 29.8281
Q18.3594 34.5156 30.6094 34.5156
L43.2188 34.5156
L43.2188 35.4062
Q43.2188 41.6094 39.1406 45
Q35.0625 48.3906 27.6875 48.3906
Q23 48.3906 18.5469 47.2656
Q14.1094 46.1406 10.0156 43.8906
L10.0156 52.2031
Q14.9375 54.1094 19.5781 55.0469
Q24.2188 56 28.6094 56
Q40.4844 56 46.3438 49.8438
Q52.2031 43.7031 52.2031 31.2031" id="BitstreamVeraSans-Roman-61"/>
      <path d="
M44.2812 53.0781
L44.2812 44.5781
Q40.4844 46.5312 36.375 47.5
Q32.2812 48.4844 27.875 48.4844
Q21.1875 48.4844 17.8438 46.4375
Q14.5 44.3906 14.5 40.2812
Q14.5 37.1562 16.8906 35.375
Q19.2812 33.5938 26.5156 31.9844
L29.5938 31.2969
Q39.1562 29.25 43.1875 25.5156
Q47.2188 21.7812 47.2188 15.0938
Q47.2188 7.46875 41.1875 3.01562
Q35.1562 -1.42188 24.6094 -1.42188
Q20.2188 -1.42188 15.4531 -0.5625
Q10.6875 0.296875 5.42188 2
L5.42188 11.2812
Q10.4062 8.6875 15.2344 7.39062
Q20.0625 6.10938 24.8125 6.10938
Q31.1562 6.10938 34.5625 8.28125
Q37.9844 10.4531 37.9844 14.4062
Q37.9844 18.0625 35.5156 20.0156
Q33.0625 21.9688 24.7031 23.7812
L21.5781 24.5156
Q13.2344 26.2656 9.51562 29.9062
Q5.8125 33.5469 5.8125 39.8906
Q5.8125 47.6094 11.2812 51.7969
Q16.75 56 26.8125 56
Q31.7812 56 36.1719 55.2656
Q40.5781 54.5469 44.2812 53.0781" id="BitstreamVeraSans-Roman-73"/>
      <path d="
M18.1094 8.20312
L18.1094 -20.7969
L9.07812 -20.7969
L9.07812 54.6875
L18.1094 54.6875
L18.1094 46.3906
Q20.9531 51.2656 25.2656 53.625
Q29.5938 56 35.5938 56
Q45.5625 56 51.7812 48.0938
Q58.0156 40.1875 58.0156 27.2969
Q58.0156 14.4062 51.7812 6.48438
Q45.5625 -1.42188 35.5938 -1.42188
Q29.5938 -1.42188 25.2656 0.953125
Q20.9531 3.32812 18.1094 8.20312
M48.6875 27.2969
Q48.6875 37.2031 44.6094 42.8438
Q40.5312 48.4844 33.4062 48.4844
Q26.2656 48.4844 22.1875 42.8438
Q18.1094 37.2031 18.1094 27.2969
Q18.1094 17.3906 22.1875 11.75
Q26.2656 6.10938 33.4062 6.10938
Q40.5312 6.10938 44.6094 11.75
Q48.6875 17.3906 48.6875 27.2969" id="BitstreamVeraSans-Roman-70"/>
     </defs>
     <g transform="translate(552.518125 287.2528125)rotate(-90.0)scale(0.12 -0.12)">
      <use xlink:href="#BitstreamVeraSans-Roman-52"/>
      <use x="64.982421875" xlink:href="#BitstreamVeraSans-Roman-65"/>
      <use x="126.505859375" xlink:href="#BitstreamVeraSans-Roman-6c"/>
      <use x="154.2890625" xlink:href="#BitstreamVeraSans-Roman-61"/>
      <use x="215.568359375" xlink:href="#BitstreamVeraSans-Roman-74"/>
      <use x="254.77734375" xlink:href="#BitstreamVeraSans-Roman-69"/>
      <use x="282.560546875" xlink:href="#BitstreamVeraSans-Roman-76"/>
      <use x="341.740234375" xlink:href="#BitstreamVeraSans-Roman-65"/>
      <use x="403.263671875" xlink:href="#BitstreamVeraSans-Roman-20"/>
      <use x="435.05078125" xlink:href="#BitstreamVeraSans-Roman-70"/>
      <use x="498.52734375" xlink:href="#BitstreamVeraSans-Roman-6f"/>
      <use x="559.708984375" xlink:href="#BitstreamVeraSans-Roman-70"/>
      <use x="623.185546875" xlink:href="#BitstreamVeraSans-Roman-75"/>
      <use x="686.564453125" xlink:href="#BitstreamVeraSans-Roman-6c"/>
      <use x="714.34765625" xlink:href="#BitstreamVeraSans-Roman-61"/>
      <use x="775.626953125" xlink:href="#BitstreamVeraSans-Roman-74"/>
      <use x="814.8359375" xlink:href="#BitstreamVeraSans-Roman-69"/>
      <use x="842.619140625" xlink:href="#BitstreamVeraSans-Roman-6f"/>
      <use x="903.80078125" xlink:href="#BitstreamVeraSans-Roman-6e"/>
      <use x="967.1796875" xlink:href="#BitstreamVeraSans-Roman-20"/>
      <use x="998.966796875" xlink:href="#BitstreamVeraSans-Roman-73"/>
      <use x="1051.06640625" xlink:href="#BitstreamVeraSans-Roman-69"/>
      <use x="1078.84960938" xlink:href="#BitstreamVeraSans-Roman-7a"/>
      <use x="1131.33984375" xlink:href="#BitstreamVeraSans-Roman-65"/>
     </g>
    </g>
   </g>
   <g id="text_6">
    <!-- Defector -->
    <defs>
     <path d="
M19.6719 64.7969
L19.6719 8.10938
L31.5938 8.10938
Q46.6875 8.10938 53.6875 14.9375
Q60.6875 21.7812 60.6875 36.5312
Q60.6875 51.1719 53.6875 57.9844
Q46.6875 64.7969 31.5938 64.7969
z

M9.8125 72.9062
L30.0781 72.9062
Q51.2656 72.9062 61.1719 64.0938
Q71.0938 55.2812 71.0938 36.5312
Q71.0938 17.6719 61.125 8.82812
Q51.1719 0 30.0781 0
L9.8125 0
z
" id="BitstreamVeraSans-Roman-44"/>
     <path d="
M37.1094 75.9844
L37.1094 68.5
L28.5156 68.5
Q23.6875 68.5 21.7969 66.5469
Q19.9219 64.5938 19.9219 59.5156
L19.9219 54.6875
L34.7188 54.6875
L34.7188 47.7031
L19.9219 47.7031
L19.9219 0
L10.8906 0
L10.8906 47.7031
L2.29688 47.7031
L2.29688 54.6875
L10.8906 54.6875
L10.8906 58.5
Q10.8906 67.625 15.1406 71.7969
Q19.3906 75.9844 28.6094 75.9844
z
" id="BitstreamVeraSans-Roman-66"/>
     <path d="
M48.7812 52.5938
L48.7812 44.1875
Q44.9688 46.2969 41.1406 47.3438
Q37.3125 48.3906 33.4062 48.3906
Q24.6562 48.3906 19.8125 42.8438
Q14.9844 37.3125 14.9844 27.2969
Q14.9844 17.2812 19.8125 11.7344
Q24.6562 6.20312 33.4062 6.20312
Q37.3125 6.20312 41.1406 7.25
Q44.9688 8.29688 48.7812 10.4062
L48.7812 2.09375
Q45.0156 0.34375 40.9844 -0.53125
Q36.9688 -1.42188 32.4219 -1.42188
Q20.0625 -1.42188 12.7812 6.34375
Q5.51562 14.1094 5.51562 27.2969
Q5.51562 40.6719 12.8594 48.3281
Q20.2188 56 33.0156 56
Q37.1562 56 41.1094 55.1406
Q45.0625 54.2969 48.7812 52.5938" id="BitstreamVeraSans-Roman-63"/>
    </defs>
    <g transform="translate(46.439125 355.6196875)scale(0.05 -0.05)">
     <use xlink:href="#BitstreamVeraSans-Roman-44"/>
     <use x="77.001953125" xlink:href="#BitstreamVeraSans-Roman-65"/>
     <use x="138.525390625" xlink:href="#BitstreamVeraSans-Roman-66"/>
     <use x="173.73046875" xlink:href="#BitstreamVeraSans-Roman-65"/>
     <use x="235.25390625" xlink:href="#BitstreamVeraSans-Roman-63"/>
     <use x="290.234375" xlink:href="#BitstreamVeraSans-Roman-74"/>
     <use x="329.443359375" xlink:href="#BitstreamVeraSans-Roman-6f"/>
     <use x="390.625" xlink:href="#BitstreamVeraSans-Roman-72"/>
    </g>
   </g>
   <g id="text_7">
    <!-- Grudger -->
    <defs>
     <path d="
M59.5156 10.4062
L59.5156 29.9844
L43.4062 29.9844
L43.4062 38.0938
L69.2812 38.0938
L69.2812 6.78125
Q63.5781 2.73438 56.6875 0.65625
Q49.8125 -1.42188 42 -1.42188
Q24.9062 -1.42188 15.25 8.5625
Q5.60938 18.5625 5.60938 36.375
Q5.60938 54.25 15.25 64.2344
Q24.9062 74.2188 42 74.2188
Q49.125 74.2188 55.5469 72.4531
Q61.9688 70.7031 67.3906 67.2812
L67.3906 56.7812
Q61.9219 61.4219 55.7656 63.7656
Q49.6094 66.1094 42.8281 66.1094
Q29.4375 66.1094 22.7188 58.6406
Q16.0156 51.1719 16.0156 36.375
Q16.0156 21.625 22.7188 14.1562
Q29.4375 6.6875 42.8281 6.6875
Q48.0469 6.6875 52.1406 7.59375
Q56.25 8.5 59.5156 10.4062" id="BitstreamVeraSans-Roman-47"/>
     <path d="
M45.4062 46.3906
L45.4062 75.9844
L54.3906 75.9844
L54.3906 0
L45.4062 0
L45.4062 8.20312
Q42.5781 3.32812 38.25 0.953125
Q33.9375 -1.42188 27.875 -1.42188
Q17.9688 -1.42188 11.7344 6.48438
Q5.51562 14.4062 5.51562 27.2969
Q5.51562 40.1875 11.7344 48.0938
Q17.9688 56 27.875 56
Q33.9375 56 38.25 53.625
Q42.5781 51.2656 45.4062 46.3906
M14.7969 27.2969
Q14.7969 17.3906 18.875 11.75
Q22.9531 6.10938 30.0781 6.10938
Q37.2031 6.10938 41.2969 11.75
Q45.4062 17.3906 45.4062 27.2969
Q45.4062 37.2031 41.2969 42.8438
Q37.2031 48.4844 30.0781 48.4844
Q22.9531 48.4844 18.875 42.8438
Q14.7969 37.2031 14.7969 27.2969" id="BitstreamVeraSans-Roman-64"/>
     <path d="
M45.4062 27.9844
Q45.4062 37.75 41.375 43.1094
Q37.3594 48.4844 30.0781 48.4844
Q22.8594 48.4844 18.8281 43.1094
Q14.7969 37.75 14.7969 27.9844
Q14.7969 18.2656 18.8281 12.8906
Q22.8594 7.51562 30.0781 7.51562
Q37.3594 7.51562 41.375 12.8906
Q45.4062 18.2656 45.4062 27.9844
M54.3906 6.78125
Q54.3906 -7.17188 48.1875 -13.9844
Q42 -20.7969 29.2031 -20.7969
Q24.4688 -20.7969 20.2656 -20.0938
Q16.0625 -19.3906 12.1094 -17.9219
L12.1094 -9.1875
Q16.0625 -11.3281 19.9219 -12.3438
Q23.7812 -13.375 27.7812 -13.375
Q36.625 -13.375 41.0156 -8.76562
Q45.4062 -4.15625 45.4062 5.17188
L45.4062 9.625
Q42.625 4.78125 38.2812 2.39062
Q33.9375 0 27.875 0
Q17.8281 0 11.6719 7.65625
Q5.51562 15.3281 5.51562 27.9844
Q5.51562 40.6719 11.6719 48.3281
Q17.8281 56 27.875 56
Q33.9375 56 38.2812 53.6094
Q42.625 51.2188 45.4062 46.3906
L45.4062 54.6875
L54.3906 54.6875
z
" id="BitstreamVeraSans-Roman-67"/>
    </defs>
    <g transform="translate(47.2375625 286.4996875)scale(0.05 -0.05)">
     <use xlink:href="#BitstreamVeraSans-Roman-47"/>
     <use x="77.490234375" xlink:href="#BitstreamVeraSans-Roman-72"/>
     <use x="118.603515625" xlink:href="#BitstreamVeraSans-Roman-75"/>
     <use x="181.982421875" xlink:href="#BitstreamVeraSans-Roman-64"/>
     <use x="245.458984375" xlink:href="#BitstreamVeraSans-Roman-67"/>
     <use x="308.935546875" xlink:href="#BitstreamVeraSans-Roman-65"/>
     <use x="370.458984375" xlink:href="#BitstreamVeraSans-Roman-72"/>
    </g>
   </g>
   <g id="text_8">
    <!-- Tit For Tat -->
    <defs>
     <path d="
M9.8125 72.9062
L51.7031 72.9062
L51.7031 64.5938
L19.6719 64.5938
L19.6719 43.1094
L48.5781 43.1094
L48.5781 34.8125
L19.6719 34.8125
L19.6719 0
L9.8125 0
z
" id="BitstreamVeraSans-Roman-46"/>
    </defs>
    <g transform="translate(43.1531875 217.3796875)scale(0.05 -0.05)">
     <use xlink:href="#BitstreamVeraSans-Roman-54"/>
     <use x="57.958984375" xlink:href="#BitstreamVeraSans-Roman-69"/>
     <use x="85.7421875" xlink:href="#BitstreamVeraSans-Roman-74"/>
     <use x="124.951171875" xlink:href="#BitstreamVeraSans-Roman-20"/>
     <use x="156.73828125" xlink:href="#BitstreamVeraSans-Roman-46"/>
     <use x="210.6328125" xlink:href="#BitstreamVeraSans-Roman-6f"/>
     <use x="271.814453125" xlink:href="#BitstreamVeraSans-Roman-72"/>
     <use x="312.927734375" xlink:href="#BitstreamVeraSans-Roman-20"/>
     <use x="344.71484375" xlink:href="#BitstreamVeraSans-Roman-54"/>
     <use x="389.298828125" xlink:href="#BitstreamVeraSans-Roman-61"/>
     <use x="450.578125" xlink:href="#BitstreamVeraSans-Roman-74"/>
    </g>
   </g>
   <g id="text_9">
    <!-- Cooperator -->
    <defs>
     <path d="
M64.4062 67.2812
L64.4062 56.8906
Q59.4219 61.5312 53.7812 63.8125
Q48.1406 66.1094 41.7969 66.1094
Q29.2969 66.1094 22.6562 58.4688
Q16.0156 50.8281 16.0156 36.375
Q16.0156 21.9688 22.6562 14.3281
Q29.2969 6.6875 41.7969 6.6875
Q48.1406 6.6875 53.7812 8.98438
Q59.4219 11.2812 64.4062 15.9219
L64.4062 5.60938
Q59.2344 2.09375 53.4375 0.328125
Q47.6562 -1.42188 41.2188 -1.42188
Q24.6562 -1.42188 15.125 8.70312
Q5.60938 18.8438 5.60938 36.375
Q5.60938 53.9531 15.125 64.0781
Q24.6562 74.2188 41.2188 74.2188
Q47.75 74.2188 53.5312 72.4844
Q59.3281 70.75 64.4062 67.2812" id="BitstreamVeraSans-Roman-43"/>
    </defs>
    <g transform="translate(39.761 148.2596875)scale(0.05 -0.05)">
     <use xlink:href="#BitstreamVeraSans-Roman-43"/>
     <use x="69.82421875" xlink:href="#BitstreamVeraSans-Roman-6f"/>
     <use x="131.005859375" xlink:href="#BitstreamVeraSans-Roman-6f"/>
     <use x="192.1875" xlink:href="#BitstreamVeraSans-Roman-70"/>
     <use x="255.6640625" xlink:href="#BitstreamVeraSans-Roman-65"/>
     <use x="317.1875" xlink:href="#BitstreamVeraSans-Roman-72"/>
     <use x="358.30078125" xlink:href="#BitstreamVeraSans-Roman-61"/>
     <use x="419.580078125" xlink:href="#BitstreamVeraSans-Roman-74"/>
     <use x="458.7890625" xlink:href="#BitstreamVeraSans-Roman-6f"/>
     <use x="519.970703125" xlink:href="#BitstreamVeraSans-Roman-72"/>
    </g>
   </g>
   <g id="text_10">
    <!-- Random: 0.5 -->
    <defs>
     <path d="
M52 44.1875
Q55.375 50.25 60.0625 53.125
Q64.75 56 71.0938 56
Q79.6406 56 84.2812 50.0156
Q88.9219 44.0469 88.9219 33.0156
L88.9219 0
L79.8906 0
L79.8906 32.7188
Q79.8906 40.5781 77.0938 44.375
Q74.3125 48.1875 68.6094 48.1875
Q61.625 48.1875 57.5625 43.5469
Q53.5156 38.9219 53.5156 30.9062
L53.5156 0
L44.4844 0
L44.4844 32.7188
Q44.4844 40.625 41.7031 44.4062
Q38.9219 48.1875 33.1094 48.1875
Q26.2188 48.1875 22.1562 43.5312
Q18.1094 38.875 18.1094 30.9062
L18.1094 0
L9.07812 0
L9.07812 54.6875
L18.1094 54.6875
L18.1094 46.1875
Q21.1875 51.2188 25.4844 53.6094
Q29.7812 56 35.6875 56
Q41.6562 56 45.8281 52.9688
Q50 49.9531 52 44.1875" id="BitstreamVeraSans-Roman-6d"/>
     <path d="
M11.7188 12.4062
L22.0156 12.4062
L22.0156 0
L11.7188 0
z

M11.7188 51.7031
L22.0156 51.7031
L22.0156 39.3125
L11.7188 39.3125
z
" id="BitstreamVeraSans-Roman-3a"/>
     <path d="
M10.6875 12.4062
L21 12.4062
L21 0
L10.6875 0
z
" id="BitstreamVeraSans-Roman-2e"/>
     <path d="
M10.7969 72.9062
L49.5156 72.9062
L49.5156 64.5938
L19.8281 64.5938
L19.8281 46.7344
Q21.9688 47.4688 24.1094 47.8281
Q26.2656 48.1875 28.4219 48.1875
Q40.625 48.1875 47.75 41.5
Q54.8906 34.8125 54.8906 23.3906
Q54.8906 11.625 47.5625 5.09375
Q40.2344 -1.42188 26.9062 -1.42188
Q22.3125 -1.42188 17.5469 -0.640625
Q12.7969 0.140625 7.71875 1.70312
L7.71875 11.625
Q12.1094 9.23438 16.7969 8.0625
Q21.4844 6.89062 26.7031 6.89062
Q35.1562 6.89062 40.0781 11.3281
Q45.0156 15.7656 45.0156 23.3906
Q45.0156 31 40.0781 35.4375
Q35.1562 39.8906 26.7031 39.8906
Q22.75 39.8906 18.8125 39.0156
Q14.8906 38.1406 10.7969 36.2812
z
" id="BitstreamVeraSans-Roman-35"/>
    </defs>
    <g transform="translate(36.04928125 79.1396875)scale(0.05 -0.05)">
     <use xlink:href="#BitstreamVeraSans-Roman-52"/>
     <use x="67.232421875" xlink:href="#BitstreamVeraSans-Roman-61"/>
     <use x="128.51171875" xlink:href="#BitstreamVeraSans-Roman-6e"/>
     <use x="191.890625" xlink:href="#BitstreamVeraSans-Roman-64"/>
     <use x="255.3671875" xlink:href="#BitstreamVeraSans-Roman-6f"/>
     <use x="316.548828125" xlink:href="#BitstreamVeraSans-Roman-6d"/>
     <use x="413.9609375" xlink:href="#BitstreamVeraSans-Roman-3a"/>
     <use x="447.65234375" xlink:href="#BitstreamVeraSans-Roman-20"/>
     <use x="479.439453125" xlink:href="#BitstreamVeraSans-Roman-30"/>
     <use x="543.0625" xlink:href="#BitstreamVeraSans-Roman-2e"/>
     <use x="574.849609375" xlink:href="#BitstreamVeraSans-Roman-35"/>
    </g>
   </g>
   <g id="text_11">
    <!-- Strategy population dynamics based on average payoffs -->
    <defs>
     <path d="
M53.5156 70.5156
L53.5156 60.8906
Q47.9062 63.5781 42.9219 64.8906
Q37.9375 66.2188 33.2969 66.2188
Q25.25 66.2188 20.875 63.0938
Q16.5 59.9688 16.5 54.2031
Q16.5 49.3594 19.4062 46.8906
Q22.3125 44.4375 30.4219 42.9219
L36.375 41.7031
Q47.4062 39.5938 52.6562 34.2969
Q57.9062 29 57.9062 20.125
Q57.9062 9.51562 50.7969 4.04688
Q43.7031 -1.42188 29.9844 -1.42188
Q24.8125 -1.42188 18.9688 -0.25
Q13.1406 0.921875 6.89062 3.21875
L6.89062 13.375
Q12.8906 10.0156 18.6562 8.29688
Q24.4219 6.59375 29.9844 6.59375
Q38.4219 6.59375 43.0156 9.90625
Q47.6094 13.2344 47.6094 19.3906
Q47.6094 24.75 44.3125 27.7812
Q41.0156 30.8125 33.5 32.3281
L27.4844 33.5
Q16.4531 35.6875 11.5156 40.375
Q6.59375 45.0625 6.59375 53.4219
Q6.59375 63.0938 13.4062 68.6562
Q20.2188 74.2188 32.1719 74.2188
Q37.3125 74.2188 42.625 73.2812
Q47.9531 72.3594 53.5156 70.5156" id="BitstreamVeraSans-Roman-53"/>
     <path d="
M48.6875 27.2969
Q48.6875 37.2031 44.6094 42.8438
Q40.5312 48.4844 33.4062 48.4844
Q26.2656 48.4844 22.1875 42.8438
Q18.1094 37.2031 18.1094 27.2969
Q18.1094 17.3906 22.1875 11.75
Q26.2656 6.10938 33.4062 6.10938
Q40.5312 6.10938 44.6094 11.75
Q48.6875 17.3906 48.6875 27.2969
M18.1094 46.3906
Q20.9531 51.2656 25.2656 53.625
Q29.5938 56 35.5938 56
Q45.5625 56 51.7812 48.0938
Q58.0156 40.1875 58.0156 27.2969
Q58.0156 14.4062 51.7812 6.48438
Q45.5625 -1.42188 35.5938 -1.42188
Q29.5938 -1.42188 25.2656 0.953125
Q20.9531 3.32812 18.1094 8.20312
L18.1094 0
L9.07812 0
L9.07812 75.9844
L18.1094 75.9844
z
" id="BitstreamVeraSans-Roman-62"/>
     <path d="
M32.1719 -5.07812
Q28.375 -14.8438 24.75 -17.8125
Q21.1406 -20.7969 15.0938 -20.7969
L7.90625 -20.7969
L7.90625 -13.2812
L13.1875 -13.2812
Q16.8906 -13.2812 18.9375 -11.5156
Q21 -9.76562 23.4844 -3.21875
L25.0938 0.875
L2.98438 54.6875
L12.5 54.6875
L29.5938 11.9219
L46.6875 54.6875
L56.2031 54.6875
z
" id="BitstreamVeraSans-Roman-79"/>
    </defs>
    <g transform="translate(91.474875 38.2)scale(0.144 -0.144)">
     <use xlink:href="#BitstreamVeraSans-Roman-53"/>
     <use x="63.4765625" xlink:href="#BitstreamVeraSans-Roman-74"/>
     <use x="102.685546875" xlink:href="#BitstreamVeraSans-Roman-72"/>
     <use x="143.798828125" xlink:href="#BitstreamVeraSans-Roman-61"/>
     <use x="205.078125" xlink:href="#BitstreamVeraSans-Roman-74"/>
     <use x="244.287109375" xlink:href="#BitstreamVeraSans-Roman-65"/>
     <use x="305.810546875" xlink:href="#BitstreamVeraSans-Roman-67"/>
     <use x="369.287109375" xlink:href="#BitstreamVeraSans-Roman-79"/>
     <use x="428.466796875" xlink:href="#BitstreamVeraSans-Roman-20"/>
     <use x="460.25390625" xlink:href="#BitstreamVeraSans-Roman-70"/>
     <use x="523.73046875" xlink:href="#BitstreamVeraSans-Roman-6f"/>
     <use x="584.912109375" xlink:href="#BitstreamVeraSans-Roman-70"/>
     <use x="648.388671875" xlink:href="#BitstreamVeraSans-Roman-75"/>
     <use x="711.767578125" xlink:href="#BitstreamVeraSans-Roman-6c"/>
     <use x="739.55078125" xlink:href="#BitstreamVeraSans-Roman-61"/>
     <use x="800.830078125" xlink:href="#BitstreamVeraSans-Roman-74"/>
     <use x="840.0390625" xlink:href="#BitstreamVeraSans-Roman-69"/>
     <use x="867.822265625" xlink:href="#BitstreamVeraSans-Roman-6f"/>
     <use x="929.00390625" xlink:href="#BitstreamVeraSans-Roman-6e"/>
     <use x="992.3828125" xlink:href="#BitstreamVeraSans-Roman-20"/>
     <use x="1024.16992188" xlink:href="#BitstreamVeraSans-Roman-64"/>
     <use x="1087.64648438" xlink:href="#BitstreamVeraSans-Roman-79"/>
     <use x="1146.82617188" xlink:href="#BitstreamVeraSans-Roman-6e"/>
     <use x="1210.20507812" xlink:href="#BitstreamVeraSans-Roman-61"/>
     <use x="1271.484375" xlink:href="#BitstreamVeraSans-Roman-6d"/>
     <use x="1368.89648438" xlink:href="#BitstreamVeraSans-Roman-69"/>
     <use x="1396.6796875" xlink:href="#BitstreamVeraSans-Roman-63"/>
     <use x="1451.66015625" xlink:href="#BitstreamVeraSans-Roman-73"/>
     <use x="1503.75976562" xlink:href="#BitstreamVeraSans-Roman-20"/>
     <use x="1535.546875" xlink:href="#BitstreamVeraSans-Roman-62"/>
     <use x="1599.0234375" xlink:href="#BitstreamVeraSans-Roman-61"/>
     <use x="1660.30273438" xlink:href="#BitstreamVeraSans-Roman-73"/>
     <use x="1712.40234375" xlink:href="#BitstreamVeraSans-Roman-65"/>
     <use x="1773.92578125" xlink:href="#BitstreamVeraSans-Roman-64"/>
     <use x="1837.40234375" xlink:href="#BitstreamVeraSans-Roman-20"/>
     <use x="1869.18945312" xlink:href="#BitstreamVeraSans-Roman-6f"/>
     <use x="1930.37109375" xlink:href="#BitstreamVeraSans-Roman-6e"/>
     <use x="1993.75" xlink:href="#BitstreamVeraSans-Roman-20"/>
     <use x="2025.53710938" xlink:href="#BitstreamVeraSans-Roman-61"/>
     <use x="2086.81640625" xlink:href="#BitstreamVeraSans-Roman-76"/>
     <use x="2145.99609375" xlink:href="#BitstreamVeraSans-Roman-65"/>
     <use x="2207.51953125" xlink:href="#BitstreamVeraSans-Roman-72"/>
     <use x="2248.6328125" xlink:href="#BitstreamVeraSans-Roman-61"/>
     <use x="2309.91210938" xlink:href="#BitstreamVeraSans-Roman-67"/>
     <use x="2373.38867188" xlink:href="#BitstreamVeraSans-Roman-65"/>
     <use x="2434.91210938" xlink:href="#BitstreamVeraSans-Roman-20"/>
     <use x="2466.69921875" xlink:href="#BitstreamVeraSans-Roman-70"/>
     <use x="2530.17578125" xlink:href="#BitstreamVeraSans-Roman-61"/>
     <use x="2591.45507812" xlink:href="#BitstreamVeraSans-Roman-79"/>
     <use x="2650.63476562" xlink:href="#BitstreamVeraSans-Roman-6f"/>
     <use x="2711.81640625" xlink:href="#BitstreamVeraSans-Roman-66"/>
     <use x="2747.02148438" xlink:href="#BitstreamVeraSans-Roman-66"/>
     <use x="2782.2265625" xlink:href="#BitstreamVeraSans-Roman-73"/>
    </g>
   </g>
  </g>
 </g>
 <defs>
  <clipPath id="p7ff5b81e1d">
   <rect height="345.6" width="446.4" x="72.0" y="43.2"/>
  </clipPath>
 </defs>
</svg>
