<?xml version="1.0" encoding="utf-8" standalone="no"?>
<!DOCTYPE svg PUBLIC "-//W3C//DTD SVG 1.1//EN"
  "http://www.w3.org/Graphics/SVG/1.1/DTD/svg11.dtd">
<!-- Created with matplotlib (http://matplotlib.org/) -->
<svg height="432pt" version="1.1" viewBox="0 0 864 432" width="864pt" xmlns="http://www.w3.org/2000/svg" xmlns:xlink="http://www.w3.org/1999/xlink">
 <defs>
  <style type="text/css">
*{stroke-linecap:butt;stroke-linejoin:round;stroke-miterlimit:100000;}
  </style>
 </defs>
 <g id="figure_1">
  <g id="patch_1">
   <path d="M 0 432 
L 864 432 
L 864 0 
L 0 0 
z
" style="fill:#ffffff;"/>
  </g>
  <g id="axes_1">
   <g id="patch_2">
    <path d="M 108 378 
L 777.6 378 
L 777.6 43.2 
L 108 43.2 
z
" style="fill:#ffffff;"/>
   </g>
   <g id="PolyCollection_1">
    <defs>
     <path d="M 247.5 -355.32 
L 191.7 -355.32 
L 191.7 -355.32 
L 191.7 -355.32 
L 191.7 -355.32 
L 191.7 -355.32 
L 191.7 -355.32 
L 191.7 -355.32 
L 191.7 -355.32 
L 191.7 -355.32 
L 191.7 -355.32 
L 191.7 -355.32 
L 191.7 -355.32 
L 191.7 -355.32 
L 191.7 -355.32 
L 191.7 -355.32 
L 191.7 -355.32 
L 191.7 -355.32 
L 191.7 -355.32 
L 191.7 -355.32 
L 191.7 -355.32 
L 191.7 -355.32 
L 191.7 -355.32 
L 191.7 -355.32 
L 191.7 -355.32 
L 191.7 -355.32 
L 191.7 -355.32 
L 191.7 -355.32 
L 191.7 -355.32 
L 191.7 -355.32 
L 191.7 -355.32 
L 191.7 -355.32 
L 191.7 -355.32 
L 191.7 -355.32 
L 191.7 -355.32 
L 191.7 -355.32 
L 191.7 -355.32 
L 191.7 -355.32 
L 191.7 -355.32 
L 191.7 -355.32 
L 191.7 -355.32 
L 191.7 -355.32 
L 191.7 -355.32 
L 191.7 -355.32 
L 191.7 -355.32 
L 191.7 -355.32 
L 191.7 -355.32 
L 191.7 -355.32 
L 191.7 -355.32 
L 191.7 -355.32 
L 191.7 -355.32 
L 191.7 -355.32 
L 191.7 -355.32 
L 191.7 -355.32 
L 191.7 -355.32 
L 191.7 -355.32 
L 191.7 -355.32 
L 191.7 -355.32 
L 191.7 -355.32 
L 191.7 -355.32 
L 191.7 -355.32 
L 191.7 -355.32 
L 191.7 -355.32 
L 191.7 -355.32 
L 191.7 -355.32 
L 191.7 -355.32 
L 191.7 -355.32 
L 191.7 -355.32 
L 191.7 -355.32 
L 191.7 -355.32 
L 191.7 -355.32 
L 191.7 -355.32 
L 191.7 -355.32 
L 191.7 -355.32 
L 191.7 -355.32 
L 191.7 -355.32 
L 191.7 -355.32 
L 191.7 -355.32 
L 191.7 -355.32 
L 191.7 -355.32 
L 191.7 -355.32 
L 191.7 -355.32 
L 191.7 -355.32 
L 191.7 -355.32 
L 191.7 -355.32 
L 191.7 -355.32 
L 191.7 -355.32 
L 191.7 -355.32 
L 191.7 -355.32 
L 191.7 -355.32 
L 191.7 -355.32 
L 191.7 -355.32 
L 191.7 -355.32 
L 191.7 -355.32 
L 191.7 -355.32 
L 191.7 -355.32 
L 191.7 -355.32 
L 191.7 -355.32 
L 191.7 -355.32 
L 191.7 -355.32 
L 191.7 -355.32 
L 247.5 -355.32 
L 247.5 -355.32 
L 247.5 -355.32 
L 247.5 -355.32 
L 247.5 -355.32 
L 247.5 -355.32 
L 247.5 -355.32 
L 247.5 -355.32 
L 247.5 -355.32 
L 247.5 -355.32 
L 247.5 -355.32 
L 247.5 -355.32 
L 247.5 -355.32 
L 247.5 -355.32 
L 247.5 -355.32 
L 247.5 -355.32 
L 247.5 -355.32 
L 247.5 -355.32 
L 247.5 -355.32 
L 247.5 -355.32 
L 247.5 -355.32 
L 247.5 -355.32 
L 247.5 -355.32 
L 247.5 -355.32 
L 247.5 -355.32 
L 247.5 -355.32 
L 247.5 -355.32 
L 247.5 -355.32 
L 247.5 -355.32 
L 247.5 -355.32 
L 247.5 -355.32 
L 247.5 -355.32 
L 247.5 -355.32 
L 247.5 -355.32 
L 247.5 -355.32 
L 247.5 -355.32 
L 247.5 -355.32 
L 247.5 -355.32 
L 247.5 -355.32 
L 247.5 -355.32 
L 247.5 -355.32 
L 247.5 -355.32 
L 247.5 -355.32 
L 247.5 -355.32 
L 247.5 -355.32 
L 247.5 -355.32 
L 247.5 -355.32 
L 247.5 -355.32 
L 247.5 -355.32 
L 247.5 -355.32 
L 247.5 -355.32 
L 247.5 -355.32 
L 247.5 -355.32 
L 247.5 -355.32 
L 247.5 -355.32 
L 247.5 -355.32 
L 247.5 -355.32 
L 247.5 -355.32 
L 247.5 -355.32 
L 247.5 -355.32 
L 247.5 -355.32 
L 247.5 -355.32 
L 247.5 -355.32 
L 247.5 -355.32 
L 247.5 -355.32 
L 247.5 -355.32 
L 247.5 -355.32 
L 247.5 -355.32 
L 247.5 -355.32 
L 247.5 -355.32 
L 247.5 -355.32 
L 247.5 -355.32 
L 247.5 -355.32 
L 247.5 -355.32 
L 247.5 -355.32 
L 247.5 -355.32 
L 247.5 -355.32 
L 247.5 -355.32 
L 247.5 -355.32 
L 247.5 -355.32 
L 247.5 -355.32 
L 247.5 -355.32 
L 247.5 -355.32 
L 247.5 -355.32 
L 247.5 -355.32 
L 247.5 -355.32 
L 247.5 -355.32 
L 247.5 -355.32 
L 247.5 -355.32 
L 247.5 -355.32 
L 247.5 -355.32 
L 247.5 -355.32 
L 247.5 -355.32 
L 247.5 -355.32 
L 247.5 -355.32 
L 247.5 -355.32 
L 247.5 -355.32 
L 247.5 -355.32 
L 247.5 -355.32 
L 247.5 -355.32 
L 247.5 -355.32 
z
" id="m560c2482fe" style="stroke:#000000;stroke-opacity:0.3;"/>
    </defs>
    <g clip-path="url(#pc5f55ef38f)">
     <use style="fill:#bfbf00;fill-opacity:0.3;stroke:#000000;stroke-opacity:0.3;" x="0.0" xlink:href="#m560c2482fe" y="432.0"/>
    </g>
   </g>
   <g id="PolyCollection_2">
    <defs>
     <path d="M 359.09679 -154.44 
L 303.30321 -154.44 
L 303.3 -155.116364 
L 303.321948 -155.792727 
L 303.368832 -156.469091 
L 303.440351 -157.145455 
L 303.536121 -157.821818 
L 303.655678 -158.498182 
L 303.798481 -159.174545 
L 303.963912 -159.850909 
L 304.151279 -160.527273 
L 304.359821 -161.203636 
L 304.588705 -161.88 
L 304.837034 -162.556364 
L 305.103852 -163.232727 
L 305.388141 -163.909091 
L 305.688833 -164.585455 
L 306.004809 -165.261818 
L 306.334903 -165.938182 
L 306.677914 -166.614545 
L 307.032599 -167.290909 
L 307.39769 -167.967273 
L 307.77189 -168.643636 
L 308.153884 -169.32 
L 308.54234 -169.996364 
L 308.935918 -170.672727 
L 309.333271 -171.349091 
L 309.733055 -172.025455 
L 310.13393 -172.701818 
L 310.534568 -173.378182 
L 310.933654 -174.054545 
L 311.329898 -174.730909 
L 311.722032 -175.407273 
L 312.108819 -176.083636 
L 312.489057 -176.76 
L 312.861583 -177.436364 
L 313.225275 -178.112727 
L 313.57906 -178.789091 
L 313.921913 -179.465455 
L 314.252864 -180.141818 
L 314.570999 -180.818182 
L 314.875465 -181.494545 
L 315.16547 -182.170909 
L 315.440287 -182.847273 
L 315.699256 -183.523636 
L 315.941785 -184.2 
L 316.167353 -184.876364 
L 316.37551 -185.552727 
L 316.565877 -186.229091 
L 316.738151 -186.905455 
L 316.892099 -187.581818 
L 317.027565 -188.258182 
L 317.144464 -188.934545 
L 317.242785 -189.610909 
L 317.32259 -190.287273 
L 317.384013 -190.963636 
L 317.427257 -191.64 
L 317.452595 -192.316364 
L 317.460367 -192.992727 
L 317.45098 -193.669091 
L 317.424904 -194.345455 
L 317.382668 -195.021818 
L 317.324864 -195.698182 
L 317.252136 -196.374545 
L 317.165184 -197.050909 
L 317.064758 -197.727273 
L 316.951653 -198.403636 
L 316.826711 -199.08 
L 316.690811 -199.756364 
L 316.54487 -200.432727 
L 316.389838 -201.109091 
L 316.226694 -201.785455 
L 316.056441 -202.461818 
L 315.880105 -203.138182 
L 315.698728 -203.814545 
L 315.513364 -204.490909 
L 315.325079 -205.167273 
L 315.134939 -205.843636 
L 314.944014 -206.52 
L 314.753371 -207.196364 
L 314.564066 -207.872727 
L 314.377146 -208.549091 
L 314.193642 -209.225455 
L 314.014565 -209.901818 
L 313.840901 -210.578182 
L 313.673613 -211.254545 
L 313.51363 -211.930909 
L 313.361848 -212.607273 
L 313.219127 -213.283636 
L 313.086285 -213.96 
L 312.964098 -214.636364 
L 312.853295 -215.312727 
L 312.754559 -215.989091 
L 312.668521 -216.665455 
L 312.595758 -217.341818 
L 312.536797 -218.018182 
L 312.492104 -218.694545 
L 312.462093 -219.370909 
L 312.447116 -220.047273 
L 312.447468 -220.723636 
L 312.463386 -221.4 
L 349.936614 -221.4 
L 349.936614 -221.4 
L 349.952532 -220.723636 
L 349.952884 -220.047273 
L 349.937907 -219.370909 
L 349.907896 -218.694545 
L 349.863203 -218.018182 
L 349.804242 -217.341818 
L 349.731479 -216.665455 
L 349.645441 -215.989091 
L 349.546705 -215.312727 
L 349.435902 -214.636364 
L 349.313715 -213.96 
L 349.180873 -213.283636 
L 349.038152 -212.607273 
L 348.88637 -211.930909 
L 348.726387 -211.254545 
L 348.559099 -210.578182 
L 348.385435 -209.901818 
L 348.206358 -209.225455 
L 348.022854 -208.549091 
L 347.835934 -207.872727 
L 347.646629 -207.196364 
L 347.455986 -206.52 
L 347.265061 -205.843636 
L 347.074921 -205.167273 
L 346.886636 -204.490909 
L 346.701272 -203.814545 
L 346.519895 -203.138182 
L 346.343559 -202.461818 
L 346.173306 -201.785455 
L 346.010162 -201.109091 
L 345.85513 -200.432727 
L 345.709189 -199.756364 
L 345.573289 -199.08 
L 345.448347 -198.403636 
L 345.335242 -197.727273 
L 345.234816 -197.050909 
L 345.147864 -196.374545 
L 345.075136 -195.698182 
L 345.017332 -195.021818 
L 344.975096 -194.345455 
L 344.94902 -193.669091 
L 344.939633 -192.992727 
L 344.947405 -192.316364 
L 344.972743 -191.64 
L 345.015987 -190.963636 
L 345.07741 -190.287273 
L 345.157215 -189.610909 
L 345.255536 -188.934545 
L 345.372435 -188.258182 
L 345.507901 -187.581818 
L 345.661849 -186.905455 
L 345.834123 -186.229091 
L 346.02449 -185.552727 
L 346.232647 -184.876364 
L 346.458215 -184.2 
L 346.700744 -183.523636 
L 346.959713 -182.847273 
L 347.23453 -182.170909 
L 347.524535 -181.494545 
L 347.829001 -180.818182 
L 348.147136 -180.141818 
L 348.478087 -179.465455 
L 348.82094 -178.789091 
L 349.174725 -178.112727 
L 349.538417 -177.436364 
L 349.910943 -176.76 
L 350.291181 -176.083636 
L 350.677968 -175.407273 
L 351.070102 -174.730909 
L 351.466346 -174.054545 
L 351.865432 -173.378182 
L 352.26607 -172.701818 
L 352.666945 -172.025455 
L 353.066729 -171.349091 
L 353.464082 -170.672727 
L 353.85766 -169.996364 
L 354.246116 -169.32 
L 354.62811 -168.643636 
L 355.00231 -167.967273 
L 355.367401 -167.290909 
L 355.722086 -166.614545 
L 356.065097 -165.938182 
L 356.395191 -165.261818 
L 356.711167 -164.585455 
L 357.011859 -163.909091 
L 357.296148 -163.232727 
L 357.562966 -162.556364 
L 357.811295 -161.88 
L 358.040179 -161.203636 
L 358.248721 -160.527273 
L 358.436088 -159.850909 
L 358.601519 -159.174545 
L 358.744322 -158.498182 
L 358.863879 -157.821818 
L 358.959649 -157.145455 
L 359.031168 -156.469091 
L 359.078052 -155.792727 
L 359.1 -155.116364 
L 359.09679 -154.44 
z
" id="mfb653bf2be" style="stroke:#000000;stroke-opacity:0.3;"/>
    </defs>
    <g clip-path="url(#pc5f55ef38f)">
     <use style="fill:#bfbf00;fill-opacity:0.3;stroke:#000000;stroke-opacity:0.3;" x="0.0" xlink:href="#mfb653bf2be" y="432.0"/>
    </g>
   </g>
   <g id="PolyCollection_3">
    <defs>
     <path d="M 470.7 -154.44 
L 414.9 -154.44 
L 414.9 -154.44 
L 414.9 -154.44 
L 414.9 -154.44 
L 414.9 -154.44 
L 414.9 -154.44 
L 414.9 -154.44 
L 414.9 -154.44 
L 414.9 -154.44 
L 414.9 -154.44 
L 414.9 -154.44 
L 414.9 -154.44 
L 414.9 -154.44 
L 414.9 -154.44 
L 414.9 -154.44 
L 414.9 -154.44 
L 414.9 -154.44 
L 414.9 -154.44 
L 414.9 -154.44 
L 414.9 -154.44 
L 414.9 -154.44 
L 414.9 -154.44 
L 414.9 -154.44 
L 414.9 -154.44 
L 414.9 -154.44 
L 414.9 -154.44 
L 414.9 -154.44 
L 414.9 -154.44 
L 414.9 -154.44 
L 414.9 -154.44 
L 414.9 -154.44 
L 414.9 -154.44 
L 414.9 -154.44 
L 414.9 -154.44 
L 414.9 -154.44 
L 414.9 -154.44 
L 414.9 -154.44 
L 414.9 -154.44 
L 414.9 -154.44 
L 414.9 -154.44 
L 414.9 -154.44 
L 414.9 -154.44 
L 414.9 -154.44 
L 414.9 -154.44 
L 414.9 -154.44 
L 414.9 -154.44 
L 414.9 -154.44 
L 414.9 -154.44 
L 414.9 -154.44 
L 414.9 -154.44 
L 414.9 -154.44 
L 414.9 -154.44 
L 414.9 -154.44 
L 414.9 -154.44 
L 414.9 -154.44 
L 414.9 -154.44 
L 414.9 -154.44 
L 414.9 -154.44 
L 414.9 -154.44 
L 414.9 -154.44 
L 414.9 -154.44 
L 414.9 -154.44 
L 414.9 -154.44 
L 414.9 -154.44 
L 414.9 -154.44 
L 414.9 -154.44 
L 414.9 -154.44 
L 414.9 -154.44 
L 414.9 -154.44 
L 414.9 -154.44 
L 414.9 -154.44 
L 414.9 -154.44 
L 414.9 -154.44 
L 414.9 -154.44 
L 414.9 -154.44 
L 414.9 -154.44 
L 414.9 -154.44 
L 414.9 -154.44 
L 414.9 -154.44 
L 414.9 -154.44 
L 414.9 -154.44 
L 414.9 -154.44 
L 414.9 -154.44 
L 414.9 -154.44 
L 414.9 -154.44 
L 414.9 -154.44 
L 414.9 -154.44 
L 414.9 -154.44 
L 414.9 -154.44 
L 414.9 -154.44 
L 414.9 -154.44 
L 414.9 -154.44 
L 414.9 -154.44 
L 414.9 -154.44 
L 414.9 -154.44 
L 414.9 -154.44 
L 414.9 -154.44 
L 414.9 -154.44 
L 414.9 -154.44 
L 414.9 -154.44 
L 470.7 -154.44 
L 470.7 -154.44 
L 470.7 -154.44 
L 470.7 -154.44 
L 470.7 -154.44 
L 470.7 -154.44 
L 470.7 -154.44 
L 470.7 -154.44 
L 470.7 -154.44 
L 470.7 -154.44 
L 470.7 -154.44 
L 470.7 -154.44 
L 470.7 -154.44 
L 470.7 -154.44 
L 470.7 -154.44 
L 470.7 -154.44 
L 470.7 -154.44 
L 470.7 -154.44 
L 470.7 -154.44 
L 470.7 -154.44 
L 470.7 -154.44 
L 470.7 -154.44 
L 470.7 -154.44 
L 470.7 -154.44 
L 470.7 -154.44 
L 470.7 -154.44 
L 470.7 -154.44 
L 470.7 -154.44 
L 470.7 -154.44 
L 470.7 -154.44 
L 470.7 -154.44 
L 470.7 -154.44 
L 470.7 -154.44 
L 470.7 -154.44 
L 470.7 -154.44 
L 470.7 -154.44 
L 470.7 -154.44 
L 470.7 -154.44 
L 470.7 -154.44 
L 470.7 -154.44 
L 470.7 -154.44 
L 470.7 -154.44 
L 470.7 -154.44 
L 470.7 -154.44 
L 470.7 -154.44 
L 470.7 -154.44 
L 470.7 -154.44 
L 470.7 -154.44 
L 470.7 -154.44 
L 470.7 -154.44 
L 470.7 -154.44 
L 470.7 -154.44 
L 470.7 -154.44 
L 470.7 -154.44 
L 470.7 -154.44 
L 470.7 -154.44 
L 470.7 -154.44 
L 470.7 -154.44 
L 470.7 -154.44 
L 470.7 -154.44 
L 470.7 -154.44 
L 470.7 -154.44 
L 470.7 -154.44 
L 470.7 -154.44 
L 470.7 -154.44 
L 470.7 -154.44 
L 470.7 -154.44 
L 470.7 -154.44 
L 470.7 -154.44 
L 470.7 -154.44 
L 470.7 -154.44 
L 470.7 -154.44 
L 470.7 -154.44 
L 470.7 -154.44 
L 470.7 -154.44 
L 470.7 -154.44 
L 470.7 -154.44 
L 470.7 -154.44 
L 470.7 -154.44 
L 470.7 -154.44 
L 470.7 -154.44 
L 470.7 -154.44 
L 470.7 -154.44 
L 470.7 -154.44 
L 470.7 -154.44 
L 470.7 -154.44 
L 470.7 -154.44 
L 470.7 -154.44 
L 470.7 -154.44 
L 470.7 -154.44 
L 470.7 -154.44 
L 470.7 -154.44 
L 470.7 -154.44 
L 470.7 -154.44 
L 470.7 -154.44 
L 470.7 -154.44 
L 470.7 -154.44 
L 470.7 -154.44 
L 470.7 -154.44 
L 470.7 -154.44 
L 470.7 -154.44 
z
" id="m33d2722129" style="stroke:#000000;stroke-opacity:0.3;"/>
    </defs>
    <g clip-path="url(#pc5f55ef38f)">
     <use style="fill:#bfbf00;fill-opacity:0.3;stroke:#000000;stroke-opacity:0.3;" x="0.0" xlink:href="#m33d2722129" y="432.0"/>
    </g>
   </g>
   <g id="PolyCollection_4">
    <defs>
     <path d="M 582.3 -87.48 
L 526.5 -87.48 
L 526.5 -87.48 
L 526.5 -87.48 
L 526.5 -87.48 
L 526.5 -87.48 
L 526.5 -87.48 
L 526.5 -87.48 
L 526.5 -87.48 
L 526.5 -87.48 
L 526.5 -87.48 
L 526.5 -87.48 
L 526.5 -87.48 
L 526.5 -87.48 
L 526.5 -87.48 
L 526.5 -87.48 
L 526.5 -87.48 
L 526.5 -87.48 
L 526.5 -87.48 
L 526.5 -87.48 
L 526.5 -87.48 
L 526.5 -87.48 
L 526.5 -87.48 
L 526.5 -87.48 
L 526.5 -87.48 
L 526.5 -87.48 
L 526.5 -87.48 
L 526.5 -87.48 
L 526.5 -87.48 
L 526.5 -87.48 
L 526.5 -87.48 
L 526.5 -87.48 
L 526.5 -87.48 
L 526.5 -87.48 
L 526.5 -87.48 
L 526.5 -87.48 
L 526.5 -87.48 
L 526.5 -87.48 
L 526.5 -87.48 
L 526.5 -87.48 
L 526.5 -87.48 
L 526.5 -87.48 
L 526.5 -87.48 
L 526.5 -87.48 
L 526.5 -87.48 
L 526.5 -87.48 
L 526.5 -87.48 
L 526.5 -87.48 
L 526.5 -87.48 
L 526.5 -87.48 
L 526.5 -87.48 
L 526.5 -87.48 
L 526.5 -87.48 
L 526.5 -87.48 
L 526.5 -87.48 
L 526.5 -87.48 
L 526.5 -87.48 
L 526.5 -87.48 
L 526.5 -87.48 
L 526.5 -87.48 
L 526.5 -87.48 
L 526.5 -87.48 
L 526.5 -87.48 
L 526.5 -87.48 
L 526.5 -87.48 
L 526.5 -87.48 
L 526.5 -87.48 
L 526.5 -87.48 
L 526.5 -87.48 
L 526.5 -87.48 
L 526.5 -87.48 
L 526.5 -87.48 
L 526.5 -87.48 
L 526.5 -87.48 
L 526.5 -87.48 
L 526.5 -87.48 
L 526.5 -87.48 
L 526.5 -87.48 
L 526.5 -87.48 
L 526.5 -87.48 
L 526.5 -87.48 
L 526.5 -87.48 
L 526.5 -87.48 
L 526.5 -87.48 
L 526.5 -87.48 
L 526.5 -87.48 
L 526.5 -87.48 
L 526.5 -87.48 
L 526.5 -87.48 
L 526.5 -87.48 
L 526.5 -87.48 
L 526.5 -87.48 
L 526.5 -87.48 
L 526.5 -87.48 
L 526.5 -87.48 
L 526.5 -87.48 
L 526.5 -87.48 
L 526.5 -87.48 
L 526.5 -87.48 
L 526.5 -87.48 
L 526.5 -87.48 
L 582.3 -87.48 
L 582.3 -87.48 
L 582.3 -87.48 
L 582.3 -87.48 
L 582.3 -87.48 
L 582.3 -87.48 
L 582.3 -87.48 
L 582.3 -87.48 
L 582.3 -87.48 
L 582.3 -87.48 
L 582.3 -87.48 
L 582.3 -87.48 
L 582.3 -87.48 
L 582.3 -87.48 
L 582.3 -87.48 
L 582.3 -87.48 
L 582.3 -87.48 
L 582.3 -87.48 
L 582.3 -87.48 
L 582.3 -87.48 
L 582.3 -87.48 
L 582.3 -87.48 
L 582.3 -87.48 
L 582.3 -87.48 
L 582.3 -87.48 
L 582.3 -87.48 
L 582.3 -87.48 
L 582.3 -87.48 
L 582.3 -87.48 
L 582.3 -87.48 
L 582.3 -87.48 
L 582.3 -87.48 
L 582.3 -87.48 
L 582.3 -87.48 
L 582.3 -87.48 
L 582.3 -87.48 
L 582.3 -87.48 
L 582.3 -87.48 
L 582.3 -87.48 
L 582.3 -87.48 
L 582.3 -87.48 
L 582.3 -87.48 
L 582.3 -87.48 
L 582.3 -87.48 
L 582.3 -87.48 
L 582.3 -87.48 
L 582.3 -87.48 
L 582.3 -87.48 
L 582.3 -87.48 
L 582.3 -87.48 
L 582.3 -87.48 
L 582.3 -87.48 
L 582.3 -87.48 
L 582.3 -87.48 
L 582.3 -87.48 
L 582.3 -87.48 
L 582.3 -87.48 
L 582.3 -87.48 
L 582.3 -87.48 
L 582.3 -87.48 
L 582.3 -87.48 
L 582.3 -87.48 
L 582.3 -87.48 
L 582.3 -87.48 
L 582.3 -87.48 
L 582.3 -87.48 
L 582.3 -87.48 
L 582.3 -87.48 
L 582.3 -87.48 
L 582.3 -87.48 
L 582.3 -87.48 
L 582.3 -87.48 
L 582.3 -87.48 
L 582.3 -87.48 
L 582.3 -87.48 
L 582.3 -87.48 
L 582.3 -87.48 
L 582.3 -87.48 
L 582.3 -87.48 
L 582.3 -87.48 
L 582.3 -87.48 
L 582.3 -87.48 
L 582.3 -87.48 
L 582.3 -87.48 
L 582.3 -87.48 
L 582.3 -87.48 
L 582.3 -87.48 
L 582.3 -87.48 
L 582.3 -87.48 
L 582.3 -87.48 
L 582.3 -87.48 
L 582.3 -87.48 
L 582.3 -87.48 
L 582.3 -87.48 
L 582.3 -87.48 
L 582.3 -87.48 
L 582.3 -87.48 
L 582.3 -87.48 
L 582.3 -87.48 
L 582.3 -87.48 
L 582.3 -87.48 
z
" id="m6b57f6412c" style="stroke:#000000;stroke-opacity:0.3;"/>
    </defs>
    <g clip-path="url(#pc5f55ef38f)">
     <use style="fill:#bfbf00;fill-opacity:0.3;stroke:#000000;stroke-opacity:0.3;" x="0.0" xlink:href="#m6b57f6412c" y="432.0"/>
    </g>
   </g>
   <g id="PolyCollection_5">
    <defs>
     <path d="M 693.9 -87.48 
L 638.1 -87.48 
L 638.1 -87.48 
L 638.1 -87.48 
L 638.1 -87.48 
L 638.1 -87.48 
L 638.1 -87.48 
L 638.1 -87.48 
L 638.1 -87.48 
L 638.1 -87.48 
L 638.1 -87.48 
L 638.1 -87.48 
L 638.1 -87.48 
L 638.1 -87.48 
L 638.1 -87.48 
L 638.1 -87.48 
L 638.1 -87.48 
L 638.1 -87.48 
L 638.1 -87.48 
L 638.1 -87.48 
L 638.1 -87.48 
L 638.1 -87.48 
L 638.1 -87.48 
L 638.1 -87.48 
L 638.1 -87.48 
L 638.1 -87.48 
L 638.1 -87.48 
L 638.1 -87.48 
L 638.1 -87.48 
L 638.1 -87.48 
L 638.1 -87.48 
L 638.1 -87.48 
L 638.1 -87.48 
L 638.1 -87.48 
L 638.1 -87.48 
L 638.1 -87.48 
L 638.1 -87.48 
L 638.1 -87.48 
L 638.1 -87.48 
L 638.1 -87.48 
L 638.1 -87.48 
L 638.1 -87.48 
L 638.1 -87.48 
L 638.1 -87.48 
L 638.1 -87.48 
L 638.1 -87.48 
L 638.1 -87.48 
L 638.1 -87.48 
L 638.1 -87.48 
L 638.1 -87.48 
L 638.1 -87.48 
L 638.1 -87.48 
L 638.1 -87.48 
L 638.1 -87.48 
L 638.1 -87.48 
L 638.1 -87.48 
L 638.1 -87.48 
L 638.1 -87.48 
L 638.1 -87.48 
L 638.1 -87.48 
L 638.1 -87.48 
L 638.1 -87.48 
L 638.1 -87.48 
L 638.1 -87.48 
L 638.1 -87.48 
L 638.1 -87.48 
L 638.1 -87.48 
L 638.1 -87.48 
L 638.1 -87.48 
L 638.1 -87.48 
L 638.1 -87.48 
L 638.1 -87.48 
L 638.1 -87.48 
L 638.1 -87.48 
L 638.1 -87.48 
L 638.1 -87.48 
L 638.1 -87.48 
L 638.1 -87.48 
L 638.1 -87.48 
L 638.1 -87.48 
L 638.1 -87.48 
L 638.1 -87.48 
L 638.1 -87.48 
L 638.1 -87.48 
L 638.1 -87.48 
L 638.1 -87.48 
L 638.1 -87.48 
L 638.1 -87.48 
L 638.1 -87.48 
L 638.1 -87.48 
L 638.1 -87.48 
L 638.1 -87.48 
L 638.1 -87.48 
L 638.1 -87.48 
L 638.1 -87.48 
L 638.1 -87.48 
L 638.1 -87.48 
L 638.1 -87.48 
L 638.1 -87.48 
L 638.1 -87.48 
L 638.1 -87.48 
L 693.9 -87.48 
L 693.9 -87.48 
L 693.9 -87.48 
L 693.9 -87.48 
L 693.9 -87.48 
L 693.9 -87.48 
L 693.9 -87.48 
L 693.9 -87.48 
L 693.9 -87.48 
L 693.9 -87.48 
L 693.9 -87.48 
L 693.9 -87.48 
L 693.9 -87.48 
L 693.9 -87.48 
L 693.9 -87.48 
L 693.9 -87.48 
L 693.9 -87.48 
L 693.9 -87.48 
L 693.9 -87.48 
L 693.9 -87.48 
L 693.9 -87.48 
L 693.9 -87.48 
L 693.9 -87.48 
L 693.9 -87.48 
L 693.9 -87.48 
L 693.9 -87.48 
L 693.9 -87.48 
L 693.9 -87.48 
L 693.9 -87.48 
L 693.9 -87.48 
L 693.9 -87.48 
L 693.9 -87.48 
L 693.9 -87.48 
L 693.9 -87.48 
L 693.9 -87.48 
L 693.9 -87.48 
L 693.9 -87.48 
L 693.9 -87.48 
L 693.9 -87.48 
L 693.9 -87.48 
L 693.9 -87.48 
L 693.9 -87.48 
L 693.9 -87.48 
L 693.9 -87.48 
L 693.9 -87.48 
L 693.9 -87.48 
L 693.9 -87.48 
L 693.9 -87.48 
L 693.9 -87.48 
L 693.9 -87.48 
L 693.9 -87.48 
L 693.9 -87.48 
L 693.9 -87.48 
L 693.9 -87.48 
L 693.9 -87.48 
L 693.9 -87.48 
L 693.9 -87.48 
L 693.9 -87.48 
L 693.9 -87.48 
L 693.9 -87.48 
L 693.9 -87.48 
L 693.9 -87.48 
L 693.9 -87.48 
L 693.9 -87.48 
L 693.9 -87.48 
L 693.9 -87.48 
L 693.9 -87.48 
L 693.9 -87.48 
L 693.9 -87.48 
L 693.9 -87.48 
L 693.9 -87.48 
L 693.9 -87.48 
L 693.9 -87.48 
L 693.9 -87.48 
L 693.9 -87.48 
L 693.9 -87.48 
L 693.9 -87.48 
L 693.9 -87.48 
L 693.9 -87.48 
L 693.9 -87.48 
L 693.9 -87.48 
L 693.9 -87.48 
L 693.9 -87.48 
L 693.9 -87.48 
L 693.9 -87.48 
L 693.9 -87.48 
L 693.9 -87.48 
L 693.9 -87.48 
L 693.9 -87.48 
L 693.9 -87.48 
L 693.9 -87.48 
L 693.9 -87.48 
L 693.9 -87.48 
L 693.9 -87.48 
L 693.9 -87.48 
L 693.9 -87.48 
L 693.9 -87.48 
L 693.9 -87.48 
L 693.9 -87.48 
L 693.9 -87.48 
L 693.9 -87.48 
z
" id="m4708e9e41d" style="stroke:#000000;stroke-opacity:0.3;"/>
    </defs>
    <g clip-path="url(#pc5f55ef38f)">
     <use style="fill:#bfbf00;fill-opacity:0.3;stroke:#000000;stroke-opacity:0.3;" x="0.0" xlink:href="#m4708e9e41d" y="432.0"/>
    </g>
   </g>
   <g id="LineCollection_1">
    <path clip-path="url(#pc5f55ef38f)" d="M 205.65 76.68 
L 233.55 76.68 
" style="fill:none;stroke:#ff0000;"/>
    <path clip-path="url(#pc5f55ef38f)" d="M 317.25 277.56 
L 345.15 277.56 
" style="fill:none;stroke:#ff0000;"/>
    <path clip-path="url(#pc5f55ef38f)" d="M 428.85 277.56 
L 456.75 277.56 
" style="fill:none;stroke:#ff0000;"/>
    <path clip-path="url(#pc5f55ef38f)" d="M 540.45 344.52 
L 568.35 344.52 
" style="fill:none;stroke:#ff0000;"/>
    <path clip-path="url(#pc5f55ef38f)" d="M 652.05 344.52 
L 679.95 344.52 
" style="fill:none;stroke:#ff0000;"/>
   </g>
   <g id="patch_3">
    <path d="M 108 43.2 
L 777.6 43.2 
" style="fill:none;stroke:#000000;stroke-linecap:square;stroke-linejoin:miter;"/>
   </g>
   <g id="patch_4">
    <path d="M 777.6 378 
L 777.6 43.2 
" style="fill:none;stroke:#000000;stroke-linecap:square;stroke-linejoin:miter;"/>
   </g>
   <g id="patch_5">
    <path d="M 108 378 
L 777.6 378 
" style="fill:none;stroke:#000000;stroke-linecap:square;stroke-linejoin:miter;"/>
   </g>
   <g id="patch_6">
    <path d="M 108 378 
L 108 43.2 
" style="fill:none;stroke:#000000;stroke-linecap:square;stroke-linejoin:miter;"/>
   </g>
   <g id="matplotlib.axis_1">
    <g id="xtick_1">
     <g id="line2d_1">
      <defs>
       <path d="M 0 0 
L 0 -4 
" id="ma4bf948325" style="stroke:#000000;stroke-width:0.5;"/>
      </defs>
      <g>
       <use style="stroke:#000000;stroke-width:0.5;" x="219.6" xlink:href="#ma4bf948325" y="378.0"/>
      </g>
     </g>
     <g id="line2d_2">
      <defs>
       <path d="M 0 0 
L 0 4 
" id="mc456c1b899" style="stroke:#000000;stroke-width:0.5;"/>
      </defs>
      <g>
       <use style="stroke:#000000;stroke-width:0.5;" x="219.6" xlink:href="#mc456c1b899" y="43.2"/>
      </g>
     </g>
     <g id="text_1">
      <!-- Defector -->
      <defs>
       <path d="M 30.609375 48.390625 
Q 23.390625 48.390625 19.1875 42.75 
Q 14.984375 37.109375 14.984375 27.296875 
Q 14.984375 17.484375 19.15625 11.84375 
Q 23.34375 6.203125 30.609375 6.203125 
Q 37.796875 6.203125 41.984375 11.859375 
Q 46.1875 17.53125 46.1875 27.296875 
Q 46.1875 37.015625 41.984375 42.703125 
Q 37.796875 48.390625 30.609375 48.390625 
M 30.609375 56 
Q 42.328125 56 49.015625 48.375 
Q 55.71875 40.765625 55.71875 27.296875 
Q 55.71875 13.875 49.015625 6.21875 
Q 42.328125 -1.421875 30.609375 -1.421875 
Q 18.84375 -1.421875 12.171875 6.21875 
Q 5.515625 13.875 5.515625 27.296875 
Q 5.515625 40.765625 12.171875 48.375 
Q 18.84375 56 30.609375 56 
" id="BitstreamVeraSans-Roman-6f"/>
       <path d="M 19.671875 64.796875 
L 19.671875 8.109375 
L 31.59375 8.109375 
Q 46.6875 8.109375 53.6875 14.9375 
Q 60.6875 21.78125 60.6875 36.53125 
Q 60.6875 51.171875 53.6875 57.984375 
Q 46.6875 64.796875 31.59375 64.796875 
z
M 9.8125 72.90625 
L 30.078125 72.90625 
Q 51.265625 72.90625 61.171875 64.09375 
Q 71.09375 55.28125 71.09375 36.53125 
Q 71.09375 17.671875 61.125 8.828125 
Q 51.171875 0 30.078125 0 
L 9.8125 0 
z
" id="BitstreamVeraSans-Roman-44"/>
       <path d="M 56.203125 29.59375 
L 56.203125 25.203125 
L 14.890625 25.203125 
Q 15.484375 15.921875 20.484375 11.0625 
Q 25.484375 6.203125 34.421875 6.203125 
Q 39.59375 6.203125 44.453125 7.46875 
Q 49.3125 8.734375 54.109375 11.28125 
L 54.109375 2.78125 
Q 49.265625 0.734375 44.1875 -0.34375 
Q 39.109375 -1.421875 33.890625 -1.421875 
Q 20.796875 -1.421875 13.15625 6.1875 
Q 5.515625 13.8125 5.515625 26.8125 
Q 5.515625 40.234375 12.765625 48.109375 
Q 20.015625 56 32.328125 56 
Q 43.359375 56 49.78125 48.890625 
Q 56.203125 41.796875 56.203125 29.59375 
M 47.21875 32.234375 
Q 47.125 39.59375 43.09375 43.984375 
Q 39.0625 48.390625 32.421875 48.390625 
Q 24.90625 48.390625 20.390625 44.140625 
Q 15.875 39.890625 15.1875 32.171875 
z
" id="BitstreamVeraSans-Roman-65"/>
       <path d="M 18.3125 70.21875 
L 18.3125 54.6875 
L 36.8125 54.6875 
L 36.8125 47.703125 
L 18.3125 47.703125 
L 18.3125 18.015625 
Q 18.3125 11.328125 20.140625 9.421875 
Q 21.96875 7.515625 27.59375 7.515625 
L 36.8125 7.515625 
L 36.8125 0 
L 27.59375 0 
Q 17.1875 0 13.234375 3.875 
Q 9.28125 7.765625 9.28125 18.015625 
L 9.28125 47.703125 
L 2.6875 47.703125 
L 2.6875 54.6875 
L 9.28125 54.6875 
L 9.28125 70.21875 
z
" id="BitstreamVeraSans-Roman-74"/>
       <path d="M 37.109375 75.984375 
L 37.109375 68.5 
L 28.515625 68.5 
Q 23.6875 68.5 21.796875 66.546875 
Q 19.921875 64.59375 19.921875 59.515625 
L 19.921875 54.6875 
L 34.71875 54.6875 
L 34.71875 47.703125 
L 19.921875 47.703125 
L 19.921875 0 
L 10.890625 0 
L 10.890625 47.703125 
L 2.296875 47.703125 
L 2.296875 54.6875 
L 10.890625 54.6875 
L 10.890625 58.5 
Q 10.890625 67.625 15.140625 71.796875 
Q 19.390625 75.984375 28.609375 75.984375 
z
" id="BitstreamVeraSans-Roman-66"/>
       <path d="M 41.109375 46.296875 
Q 39.59375 47.171875 37.8125 47.578125 
Q 36.03125 48 33.890625 48 
Q 26.265625 48 22.1875 43.046875 
Q 18.109375 38.09375 18.109375 28.8125 
L 18.109375 0 
L 9.078125 0 
L 9.078125 54.6875 
L 18.109375 54.6875 
L 18.109375 46.1875 
Q 20.953125 51.171875 25.484375 53.578125 
Q 30.03125 56 36.53125 56 
Q 37.453125 56 38.578125 55.875 
Q 39.703125 55.765625 41.0625 55.515625 
z
" id="BitstreamVeraSans-Roman-72"/>
       <path d="M 48.78125 52.59375 
L 48.78125 44.1875 
Q 44.96875 46.296875 41.140625 47.34375 
Q 37.3125 48.390625 33.40625 48.390625 
Q 24.65625 48.390625 19.8125 42.84375 
Q 14.984375 37.3125 14.984375 27.296875 
Q 14.984375 17.28125 19.8125 11.734375 
Q 24.65625 6.203125 33.40625 6.203125 
Q 37.3125 6.203125 41.140625 7.25 
Q 44.96875 8.296875 48.78125 10.40625 
L 48.78125 2.09375 
Q 45.015625 0.34375 40.984375 -0.53125 
Q 36.96875 -1.421875 32.421875 -1.421875 
Q 20.0625 -1.421875 12.78125 6.34375 
Q 5.515625 14.109375 5.515625 27.296875 
Q 5.515625 40.671875 12.859375 48.328125 
Q 20.21875 56 33.015625 56 
Q 37.15625 56 41.109375 55.140625 
Q 45.0625 54.296875 48.78125 52.59375 
" id="BitstreamVeraSans-Roman-63"/>
      </defs>
      <g transform="translate(221.8075 416.54)rotate(-90.0)scale(0.08 -0.08)">
       <use xlink:href="#BitstreamVeraSans-Roman-44"/>
       <use x="77.001953125" xlink:href="#BitstreamVeraSans-Roman-65"/>
       <use x="138.525390625" xlink:href="#BitstreamVeraSans-Roman-66"/>
       <use x="173.73046875" xlink:href="#BitstreamVeraSans-Roman-65"/>
       <use x="235.25390625" xlink:href="#BitstreamVeraSans-Roman-63"/>
       <use x="290.234375" xlink:href="#BitstreamVeraSans-Roman-74"/>
       <use x="329.443359375" xlink:href="#BitstreamVeraSans-Roman-6f"/>
       <use x="390.625" xlink:href="#BitstreamVeraSans-Roman-72"/>
      </g>
     </g>
    </g>
    <g id="xtick_2">
     <g id="line2d_3">
      <g>
       <use style="stroke:#000000;stroke-width:0.5;" x="331.2" xlink:href="#ma4bf948325" y="378.0"/>
      </g>
     </g>
     <g id="line2d_4">
      <g>
       <use style="stroke:#000000;stroke-width:0.5;" x="331.2" xlink:href="#mc456c1b899" y="43.2"/>
      </g>
     </g>
     <g id="text_2">
      <!-- Random: 0.5 -->
      <defs>
       <path id="BitstreamVeraSans-Roman-20"/>
       <path d="M 31.78125 66.40625 
Q 24.171875 66.40625 20.328125 58.90625 
Q 16.5 51.421875 16.5 36.375 
Q 16.5 21.390625 20.328125 13.890625 
Q 24.171875 6.390625 31.78125 6.390625 
Q 39.453125 6.390625 43.28125 13.890625 
Q 47.125 21.390625 47.125 36.375 
Q 47.125 51.421875 43.28125 58.90625 
Q 39.453125 66.40625 31.78125 66.40625 
M 31.78125 74.21875 
Q 44.046875 74.21875 50.515625 64.515625 
Q 56.984375 54.828125 56.984375 36.375 
Q 56.984375 17.96875 50.515625 8.265625 
Q 44.046875 -1.421875 31.78125 -1.421875 
Q 19.53125 -1.421875 13.0625 8.265625 
Q 6.59375 17.96875 6.59375 36.375 
Q 6.59375 54.828125 13.0625 64.515625 
Q 19.53125 74.21875 31.78125 74.21875 
" id="BitstreamVeraSans-Roman-30"/>
       <path d="M 10.796875 72.90625 
L 49.515625 72.90625 
L 49.515625 64.59375 
L 19.828125 64.59375 
L 19.828125 46.734375 
Q 21.96875 47.46875 24.109375 47.828125 
Q 26.265625 48.1875 28.421875 48.1875 
Q 40.625 48.1875 47.75 41.5 
Q 54.890625 34.8125 54.890625 23.390625 
Q 54.890625 11.625 47.5625 5.09375 
Q 40.234375 -1.421875 26.90625 -1.421875 
Q 22.3125 -1.421875 17.546875 -0.640625 
Q 12.796875 0.140625 7.71875 1.703125 
L 7.71875 11.625 
Q 12.109375 9.234375 16.796875 8.0625 
Q 21.484375 6.890625 26.703125 6.890625 
Q 35.15625 6.890625 40.078125 11.328125 
Q 45.015625 15.765625 45.015625 23.390625 
Q 45.015625 31 40.078125 35.4375 
Q 35.15625 39.890625 26.703125 39.890625 
Q 22.75 39.890625 18.8125 39.015625 
Q 14.890625 38.140625 10.796875 36.28125 
z
" id="BitstreamVeraSans-Roman-35"/>
       <path d="M 54.890625 33.015625 
L 54.890625 0 
L 45.90625 0 
L 45.90625 32.71875 
Q 45.90625 40.484375 42.875 44.328125 
Q 39.84375 48.1875 33.796875 48.1875 
Q 26.515625 48.1875 22.3125 43.546875 
Q 18.109375 38.921875 18.109375 30.90625 
L 18.109375 0 
L 9.078125 0 
L 9.078125 54.6875 
L 18.109375 54.6875 
L 18.109375 46.1875 
Q 21.34375 51.125 25.703125 53.5625 
Q 30.078125 56 35.796875 56 
Q 45.21875 56 50.046875 50.171875 
Q 54.890625 44.34375 54.890625 33.015625 
" id="BitstreamVeraSans-Roman-6e"/>
       <path d="M 52 44.1875 
Q 55.375 50.25 60.0625 53.125 
Q 64.75 56 71.09375 56 
Q 79.640625 56 84.28125 50.015625 
Q 88.921875 44.046875 88.921875 33.015625 
L 88.921875 0 
L 79.890625 0 
L 79.890625 32.71875 
Q 79.890625 40.578125 77.09375 44.375 
Q 74.3125 48.1875 68.609375 48.1875 
Q 61.625 48.1875 57.5625 43.546875 
Q 53.515625 38.921875 53.515625 30.90625 
L 53.515625 0 
L 44.484375 0 
L 44.484375 32.71875 
Q 44.484375 40.625 41.703125 44.40625 
Q 38.921875 48.1875 33.109375 48.1875 
Q 26.21875 48.1875 22.15625 43.53125 
Q 18.109375 38.875 18.109375 30.90625 
L 18.109375 0 
L 9.078125 0 
L 9.078125 54.6875 
L 18.109375 54.6875 
L 18.109375 46.1875 
Q 21.1875 51.21875 25.484375 53.609375 
Q 29.78125 56 35.6875 56 
Q 41.65625 56 45.828125 52.96875 
Q 50 49.953125 52 44.1875 
" id="BitstreamVeraSans-Roman-6d"/>
       <path d="M 44.390625 34.1875 
Q 47.5625 33.109375 50.5625 29.59375 
Q 53.5625 26.078125 56.59375 19.921875 
L 66.609375 0 
L 56 0 
L 46.6875 18.703125 
Q 43.0625 26.03125 39.671875 28.421875 
Q 36.28125 30.8125 30.421875 30.8125 
L 19.671875 30.8125 
L 19.671875 0 
L 9.8125 0 
L 9.8125 72.90625 
L 32.078125 72.90625 
Q 44.578125 72.90625 50.734375 67.671875 
Q 56.890625 62.453125 56.890625 51.90625 
Q 56.890625 45.015625 53.6875 40.46875 
Q 50.484375 35.9375 44.390625 34.1875 
M 19.671875 64.796875 
L 19.671875 38.921875 
L 32.078125 38.921875 
Q 39.203125 38.921875 42.84375 42.21875 
Q 46.484375 45.515625 46.484375 51.90625 
Q 46.484375 58.296875 42.84375 61.546875 
Q 39.203125 64.796875 32.078125 64.796875 
z
" id="BitstreamVeraSans-Roman-52"/>
       <path d="M 11.71875 12.40625 
L 22.015625 12.40625 
L 22.015625 0 
L 11.71875 0 
z
M 11.71875 51.703125 
L 22.015625 51.703125 
L 22.015625 39.3125 
L 11.71875 39.3125 
z
" id="BitstreamVeraSans-Roman-3a"/>
       <path d="M 10.6875 12.40625 
L 21 12.40625 
L 21 0 
L 10.6875 0 
z
" id="BitstreamVeraSans-Roman-2e"/>
       <path d="M 45.40625 46.390625 
L 45.40625 75.984375 
L 54.390625 75.984375 
L 54.390625 0 
L 45.40625 0 
L 45.40625 8.203125 
Q 42.578125 3.328125 38.25 0.953125 
Q 33.9375 -1.421875 27.875 -1.421875 
Q 17.96875 -1.421875 11.734375 6.484375 
Q 5.515625 14.40625 5.515625 27.296875 
Q 5.515625 40.1875 11.734375 48.09375 
Q 17.96875 56 27.875 56 
Q 33.9375 56 38.25 53.625 
Q 42.578125 51.265625 45.40625 46.390625 
M 14.796875 27.296875 
Q 14.796875 17.390625 18.875 11.75 
Q 22.953125 6.109375 30.078125 6.109375 
Q 37.203125 6.109375 41.296875 11.75 
Q 45.40625 17.390625 45.40625 27.296875 
Q 45.40625 37.203125 41.296875 42.84375 
Q 37.203125 48.484375 30.078125 48.484375 
Q 22.953125 48.484375 18.875 42.84375 
Q 14.796875 37.203125 14.796875 27.296875 
" id="BitstreamVeraSans-Roman-64"/>
       <path d="M 34.28125 27.484375 
Q 23.390625 27.484375 19.1875 25 
Q 14.984375 22.515625 14.984375 16.5 
Q 14.984375 11.71875 18.140625 8.90625 
Q 21.296875 6.109375 26.703125 6.109375 
Q 34.1875 6.109375 38.703125 11.40625 
Q 43.21875 16.703125 43.21875 25.484375 
L 43.21875 27.484375 
z
M 52.203125 31.203125 
L 52.203125 0 
L 43.21875 0 
L 43.21875 8.296875 
Q 40.140625 3.328125 35.546875 0.953125 
Q 30.953125 -1.421875 24.3125 -1.421875 
Q 15.921875 -1.421875 10.953125 3.296875 
Q 6 8.015625 6 15.921875 
Q 6 25.140625 12.171875 29.828125 
Q 18.359375 34.515625 30.609375 34.515625 
L 43.21875 34.515625 
L 43.21875 35.40625 
Q 43.21875 41.609375 39.140625 45 
Q 35.0625 48.390625 27.6875 48.390625 
Q 23 48.390625 18.546875 47.265625 
Q 14.109375 46.140625 10.015625 43.890625 
L 10.015625 52.203125 
Q 14.9375 54.109375 19.578125 55.046875 
Q 24.21875 56 28.609375 56 
Q 40.484375 56 46.34375 49.84375 
Q 52.203125 43.703125 52.203125 31.203125 
" id="BitstreamVeraSans-Roman-61"/>
      </defs>
      <g transform="translate(333.4075 433.255)rotate(-90.0)scale(0.08 -0.08)">
       <use xlink:href="#BitstreamVeraSans-Roman-52"/>
       <use x="69.451171875" xlink:href="#BitstreamVeraSans-Roman-61"/>
       <use x="130.73046875" xlink:href="#BitstreamVeraSans-Roman-6e"/>
       <use x="194.109375" xlink:href="#BitstreamVeraSans-Roman-64"/>
       <use x="257.5859375" xlink:href="#BitstreamVeraSans-Roman-6f"/>
       <use x="318.767578125" xlink:href="#BitstreamVeraSans-Roman-6d"/>
       <use x="416.1796875" xlink:href="#BitstreamVeraSans-Roman-3a"/>
       <use x="449.87109375" xlink:href="#BitstreamVeraSans-Roman-20"/>
       <use x="481.658203125" xlink:href="#BitstreamVeraSans-Roman-30"/>
       <use x="545.28125" xlink:href="#BitstreamVeraSans-Roman-2e"/>
       <use x="577.068359375" xlink:href="#BitstreamVeraSans-Roman-35"/>
      </g>
     </g>
    </g>
    <g id="xtick_3">
     <g id="line2d_5">
      <g>
       <use style="stroke:#000000;stroke-width:0.5;" x="442.8" xlink:href="#ma4bf948325" y="378.0"/>
      </g>
     </g>
     <g id="line2d_6">
      <g>
       <use style="stroke:#000000;stroke-width:0.5;" x="442.8" xlink:href="#mc456c1b899" y="43.2"/>
      </g>
     </g>
     <g id="text_3">
      <!-- Grudger -->
      <defs>
       <path d="M 59.515625 10.40625 
L 59.515625 29.984375 
L 43.40625 29.984375 
L 43.40625 38.09375 
L 69.28125 38.09375 
L 69.28125 6.78125 
Q 63.578125 2.734375 56.6875 0.65625 
Q 49.8125 -1.421875 42 -1.421875 
Q 24.90625 -1.421875 15.25 8.5625 
Q 5.609375 18.5625 5.609375 36.375 
Q 5.609375 54.25 15.25 64.234375 
Q 24.90625 74.21875 42 74.21875 
Q 49.125 74.21875 55.546875 72.453125 
Q 61.96875 70.703125 67.390625 67.28125 
L 67.390625 56.78125 
Q 61.921875 61.421875 55.765625 63.765625 
Q 49.609375 66.109375 42.828125 66.109375 
Q 29.4375 66.109375 22.71875 58.640625 
Q 16.015625 51.171875 16.015625 36.375 
Q 16.015625 21.625 22.71875 14.15625 
Q 29.4375 6.6875 42.828125 6.6875 
Q 48.046875 6.6875 52.140625 7.59375 
Q 56.25 8.5 59.515625 10.40625 
" id="BitstreamVeraSans-Roman-47"/>
       <path d="M 45.40625 27.984375 
Q 45.40625 37.75 41.375 43.109375 
Q 37.359375 48.484375 30.078125 48.484375 
Q 22.859375 48.484375 18.828125 43.109375 
Q 14.796875 37.75 14.796875 27.984375 
Q 14.796875 18.265625 18.828125 12.890625 
Q 22.859375 7.515625 30.078125 7.515625 
Q 37.359375 7.515625 41.375 12.890625 
Q 45.40625 18.265625 45.40625 27.984375 
M 54.390625 6.78125 
Q 54.390625 -7.171875 48.1875 -13.984375 
Q 42 -20.796875 29.203125 -20.796875 
Q 24.46875 -20.796875 20.265625 -20.09375 
Q 16.0625 -19.390625 12.109375 -17.921875 
L 12.109375 -9.1875 
Q 16.0625 -11.328125 19.921875 -12.34375 
Q 23.78125 -13.375 27.78125 -13.375 
Q 36.625 -13.375 41.015625 -8.765625 
Q 45.40625 -4.15625 45.40625 5.171875 
L 45.40625 9.625 
Q 42.625 4.78125 38.28125 2.390625 
Q 33.9375 0 27.875 0 
Q 17.828125 0 11.671875 7.65625 
Q 5.515625 15.328125 5.515625 27.984375 
Q 5.515625 40.671875 11.671875 48.328125 
Q 17.828125 56 27.875 56 
Q 33.9375 56 38.28125 53.609375 
Q 42.625 51.21875 45.40625 46.390625 
L 45.40625 54.6875 
L 54.390625 54.6875 
z
" id="BitstreamVeraSans-Roman-67"/>
       <path d="M 8.5 21.578125 
L 8.5 54.6875 
L 17.484375 54.6875 
L 17.484375 21.921875 
Q 17.484375 14.15625 20.5 10.265625 
Q 23.53125 6.390625 29.59375 6.390625 
Q 36.859375 6.390625 41.078125 11.03125 
Q 45.3125 15.671875 45.3125 23.6875 
L 45.3125 54.6875 
L 54.296875 54.6875 
L 54.296875 0 
L 45.3125 0 
L 45.3125 8.40625 
Q 42.046875 3.421875 37.71875 1 
Q 33.40625 -1.421875 27.6875 -1.421875 
Q 18.265625 -1.421875 13.375 4.4375 
Q 8.5 10.296875 8.5 21.578125 
" id="BitstreamVeraSans-Roman-75"/>
      </defs>
      <g transform="translate(445.0075 414.92625)rotate(-90.0)scale(0.08 -0.08)">
       <use xlink:href="#BitstreamVeraSans-Roman-47"/>
       <use x="77.490234375" xlink:href="#BitstreamVeraSans-Roman-72"/>
       <use x="118.603515625" xlink:href="#BitstreamVeraSans-Roman-75"/>
       <use x="181.982421875" xlink:href="#BitstreamVeraSans-Roman-64"/>
       <use x="245.458984375" xlink:href="#BitstreamVeraSans-Roman-67"/>
       <use x="308.935546875" xlink:href="#BitstreamVeraSans-Roman-65"/>
       <use x="370.458984375" xlink:href="#BitstreamVeraSans-Roman-72"/>
      </g>
     </g>
    </g>
    <g id="xtick_4">
     <g id="line2d_7">
      <g>
       <use style="stroke:#000000;stroke-width:0.5;" x="554.4" xlink:href="#ma4bf948325" y="378.0"/>
      </g>
     </g>
     <g id="line2d_8">
      <g>
       <use style="stroke:#000000;stroke-width:0.5;" x="554.4" xlink:href="#mc456c1b899" y="43.2"/>
      </g>
     </g>
     <g id="text_4">
      <!-- Tit For Tat -->
      <defs>
       <path d="M 9.421875 54.6875 
L 18.40625 54.6875 
L 18.40625 0 
L 9.421875 0 
z
M 9.421875 75.984375 
L 18.40625 75.984375 
L 18.40625 64.59375 
L 9.421875 64.59375 
z
" id="BitstreamVeraSans-Roman-69"/>
       <path d="M -0.296875 72.90625 
L 61.375 72.90625 
L 61.375 64.59375 
L 35.5 64.59375 
L 35.5 0 
L 25.59375 0 
L 25.59375 64.59375 
L -0.296875 64.59375 
z
" id="BitstreamVeraSans-Roman-54"/>
       <path d="M 9.8125 72.90625 
L 51.703125 72.90625 
L 51.703125 64.59375 
L 19.671875 64.59375 
L 19.671875 43.109375 
L 48.578125 43.109375 
L 48.578125 34.8125 
L 19.671875 34.8125 
L 19.671875 0 
L 9.8125 0 
z
" id="BitstreamVeraSans-Roman-46"/>
      </defs>
      <g transform="translate(556.6075 423.0125)rotate(-90.0)scale(0.08 -0.08)">
       <use xlink:href="#BitstreamVeraSans-Roman-54"/>
       <use x="61.037109375" xlink:href="#BitstreamVeraSans-Roman-69"/>
       <use x="88.8203125" xlink:href="#BitstreamVeraSans-Roman-74"/>
       <use x="128.029296875" xlink:href="#BitstreamVeraSans-Roman-20"/>
       <use x="159.81640625" xlink:href="#BitstreamVeraSans-Roman-46"/>
       <use x="217.2890625" xlink:href="#BitstreamVeraSans-Roman-6f"/>
       <use x="278.470703125" xlink:href="#BitstreamVeraSans-Roman-72"/>
       <use x="319.583984375" xlink:href="#BitstreamVeraSans-Roman-20"/>
       <use x="351.37109375" xlink:href="#BitstreamVeraSans-Roman-54"/>
       <use x="412.205078125" xlink:href="#BitstreamVeraSans-Roman-61"/>
       <use x="473.484375" xlink:href="#BitstreamVeraSans-Roman-74"/>
      </g>
     </g>
    </g>
    <g id="xtick_5">
     <g id="line2d_9">
      <g>
       <use style="stroke:#000000;stroke-width:0.5;" x="666.0" xlink:href="#ma4bf948325" y="378.0"/>
      </g>
     </g>
     <g id="line2d_10">
      <g>
       <use style="stroke:#000000;stroke-width:0.5;" x="666.0" xlink:href="#mc456c1b899" y="43.2"/>
      </g>
     </g>
     <g id="text_5">
      <!-- Cooperator -->
      <defs>
       <path d="M 64.40625 67.28125 
L 64.40625 56.890625 
Q 59.421875 61.53125 53.78125 63.8125 
Q 48.140625 66.109375 41.796875 66.109375 
Q 29.296875 66.109375 22.65625 58.46875 
Q 16.015625 50.828125 16.015625 36.375 
Q 16.015625 21.96875 22.65625 14.328125 
Q 29.296875 6.6875 41.796875 6.6875 
Q 48.140625 6.6875 53.78125 8.984375 
Q 59.421875 11.28125 64.40625 15.921875 
L 64.40625 5.609375 
Q 59.234375 2.09375 53.4375 0.328125 
Q 47.65625 -1.421875 41.21875 -1.421875 
Q 24.65625 -1.421875 15.125 8.703125 
Q 5.609375 18.84375 5.609375 36.375 
Q 5.609375 53.953125 15.125 64.078125 
Q 24.65625 74.21875 41.21875 74.21875 
Q 47.75 74.21875 53.53125 72.484375 
Q 59.328125 70.75 64.40625 67.28125 
" id="BitstreamVeraSans-Roman-43"/>
       <path d="M 18.109375 8.203125 
L 18.109375 -20.796875 
L 9.078125 -20.796875 
L 9.078125 54.6875 
L 18.109375 54.6875 
L 18.109375 46.390625 
Q 20.953125 51.265625 25.265625 53.625 
Q 29.59375 56 35.59375 56 
Q 45.5625 56 51.78125 48.09375 
Q 58.015625 40.1875 58.015625 27.296875 
Q 58.015625 14.40625 51.78125 6.484375 
Q 45.5625 -1.421875 35.59375 -1.421875 
Q 29.59375 -1.421875 25.265625 0.953125 
Q 20.953125 3.328125 18.109375 8.203125 
M 48.6875 27.296875 
Q 48.6875 37.203125 44.609375 42.84375 
Q 40.53125 48.484375 33.40625 48.484375 
Q 26.265625 48.484375 22.1875 42.84375 
Q 18.109375 37.203125 18.109375 27.296875 
Q 18.109375 17.390625 22.1875 11.75 
Q 26.265625 6.109375 33.40625 6.109375 
Q 40.53125 6.109375 44.609375 11.75 
Q 48.6875 17.390625 48.6875 27.296875 
" id="BitstreamVeraSans-Roman-70"/>
      </defs>
      <g transform="translate(668.2075 426.88875)rotate(-90.0)scale(0.08 -0.08)">
       <use xlink:href="#BitstreamVeraSans-Roman-43"/>
       <use x="69.82421875" xlink:href="#BitstreamVeraSans-Roman-6f"/>
       <use x="131.005859375" xlink:href="#BitstreamVeraSans-Roman-6f"/>
       <use x="192.1875" xlink:href="#BitstreamVeraSans-Roman-70"/>
       <use x="255.6640625" xlink:href="#BitstreamVeraSans-Roman-65"/>
       <use x="317.1875" xlink:href="#BitstreamVeraSans-Roman-72"/>
       <use x="358.30078125" xlink:href="#BitstreamVeraSans-Roman-61"/>
       <use x="419.580078125" xlink:href="#BitstreamVeraSans-Roman-74"/>
       <use x="458.7890625" xlink:href="#BitstreamVeraSans-Roman-6f"/>
       <use x="519.970703125" xlink:href="#BitstreamVeraSans-Roman-72"/>
      </g>
     </g>
    </g>
   </g>
   <g id="matplotlib.axis_2">
    <g id="ytick_1">
     <g id="line2d_11">
      <defs>
       <path d="M 0 0 
L 4 0 
" id="m80f1c6e352" style="stroke:#000000;stroke-width:0.5;"/>
      </defs>
      <g>
       <use style="stroke:#000000;stroke-width:0.5;" x="108.0" xlink:href="#m80f1c6e352" y="344.52"/>
      </g>
     </g>
     <g id="line2d_12">
      <defs>
       <path d="M 0 0 
L -4 0 
" id="m5c5697f0b8" style="stroke:#000000;stroke-width:0.5;"/>
      </defs>
      <g>
       <use style="stroke:#000000;stroke-width:0.5;" x="777.6" xlink:href="#m5c5697f0b8" y="344.52"/>
      </g>
     </g>
     <g id="text_6">
      <!-- 0 -->
      <g transform="translate(98.91 346.7275)scale(0.08 -0.08)">
       <use xlink:href="#BitstreamVeraSans-Roman-30"/>
      </g>
     </g>
    </g>
    <g id="ytick_2">
     <g id="line2d_13">
      <g>
       <use style="stroke:#000000;stroke-width:0.5;" x="108.0" xlink:href="#m80f1c6e352" y="277.56"/>
      </g>
     </g>
     <g id="line2d_14">
      <g>
       <use style="stroke:#000000;stroke-width:0.5;" x="777.6" xlink:href="#m5c5697f0b8" y="277.56"/>
      </g>
     </g>
     <g id="text_7">
      <!-- 1 -->
      <defs>
       <path d="M 12.40625 8.296875 
L 28.515625 8.296875 
L 28.515625 63.921875 
L 10.984375 60.40625 
L 10.984375 69.390625 
L 28.421875 72.90625 
L 38.28125 72.90625 
L 38.28125 8.296875 
L 54.390625 8.296875 
L 54.390625 0 
L 12.40625 0 
z
" id="BitstreamVeraSans-Roman-31"/>
      </defs>
      <g transform="translate(98.91 279.7675)scale(0.08 -0.08)">
       <use xlink:href="#BitstreamVeraSans-Roman-31"/>
      </g>
     </g>
    </g>
    <g id="ytick_3">
     <g id="line2d_15">
      <g>
       <use style="stroke:#000000;stroke-width:0.5;" x="108.0" xlink:href="#m80f1c6e352" y="210.6"/>
      </g>
     </g>
     <g id="line2d_16">
      <g>
       <use style="stroke:#000000;stroke-width:0.5;" x="777.6" xlink:href="#m5c5697f0b8" y="210.6"/>
      </g>
     </g>
     <g id="text_8">
      <!-- 2 -->
      <defs>
       <path d="M 19.1875 8.296875 
L 53.609375 8.296875 
L 53.609375 0 
L 7.328125 0 
L 7.328125 8.296875 
Q 12.9375 14.109375 22.625 23.890625 
Q 32.328125 33.6875 34.8125 36.53125 
Q 39.546875 41.84375 41.421875 45.53125 
Q 43.3125 49.21875 43.3125 52.78125 
Q 43.3125 58.59375 39.234375 62.25 
Q 35.15625 65.921875 28.609375 65.921875 
Q 23.96875 65.921875 18.8125 64.3125 
Q 13.671875 62.703125 7.8125 59.421875 
L 7.8125 69.390625 
Q 13.765625 71.78125 18.9375 73 
Q 24.125 74.21875 28.421875 74.21875 
Q 39.75 74.21875 46.484375 68.546875 
Q 53.21875 62.890625 53.21875 53.421875 
Q 53.21875 48.921875 51.53125 44.890625 
Q 49.859375 40.875 45.40625 35.40625 
Q 44.1875 33.984375 37.640625 27.21875 
Q 31.109375 20.453125 19.1875 8.296875 
" id="BitstreamVeraSans-Roman-32"/>
      </defs>
      <g transform="translate(98.91 212.8075)scale(0.08 -0.08)">
       <use xlink:href="#BitstreamVeraSans-Roman-32"/>
      </g>
     </g>
    </g>
    <g id="ytick_4">
     <g id="line2d_17">
      <g>
       <use style="stroke:#000000;stroke-width:0.5;" x="108.0" xlink:href="#m80f1c6e352" y="143.64"/>
      </g>
     </g>
     <g id="line2d_18">
      <g>
       <use style="stroke:#000000;stroke-width:0.5;" x="777.6" xlink:href="#m5c5697f0b8" y="143.64"/>
      </g>
     </g>
     <g id="text_9">
      <!-- 3 -->
      <defs>
       <path d="M 40.578125 39.3125 
Q 47.65625 37.796875 51.625 33 
Q 55.609375 28.21875 55.609375 21.1875 
Q 55.609375 10.40625 48.1875 4.484375 
Q 40.765625 -1.421875 27.09375 -1.421875 
Q 22.515625 -1.421875 17.65625 -0.515625 
Q 12.796875 0.390625 7.625 2.203125 
L 7.625 11.71875 
Q 11.71875 9.328125 16.59375 8.109375 
Q 21.484375 6.890625 26.8125 6.890625 
Q 36.078125 6.890625 40.9375 10.546875 
Q 45.796875 14.203125 45.796875 21.1875 
Q 45.796875 27.640625 41.28125 31.265625 
Q 36.765625 34.90625 28.71875 34.90625 
L 20.21875 34.90625 
L 20.21875 43.015625 
L 29.109375 43.015625 
Q 36.375 43.015625 40.234375 45.921875 
Q 44.09375 48.828125 44.09375 54.296875 
Q 44.09375 59.90625 40.109375 62.90625 
Q 36.140625 65.921875 28.71875 65.921875 
Q 24.65625 65.921875 20.015625 65.03125 
Q 15.375 64.15625 9.8125 62.3125 
L 9.8125 71.09375 
Q 15.4375 72.65625 20.34375 73.4375 
Q 25.25 74.21875 29.59375 74.21875 
Q 40.828125 74.21875 47.359375 69.109375 
Q 53.90625 64.015625 53.90625 55.328125 
Q 53.90625 49.265625 50.4375 45.09375 
Q 46.96875 40.921875 40.578125 39.3125 
" id="BitstreamVeraSans-Roman-33"/>
      </defs>
      <g transform="translate(98.91 145.8475)scale(0.08 -0.08)">
       <use xlink:href="#BitstreamVeraSans-Roman-33"/>
      </g>
     </g>
    </g>
    <g id="ytick_5">
     <g id="line2d_19">
      <g>
       <use style="stroke:#000000;stroke-width:0.5;" x="108.0" xlink:href="#m80f1c6e352" y="76.68"/>
      </g>
     </g>
     <g id="line2d_20">
      <g>
       <use style="stroke:#000000;stroke-width:0.5;" x="777.6" xlink:href="#m5c5697f0b8" y="76.68"/>
      </g>
     </g>
     <g id="text_10">
      <!-- 4 -->
      <defs>
       <path d="M 37.796875 64.3125 
L 12.890625 25.390625 
L 37.796875 25.390625 
z
M 35.203125 72.90625 
L 47.609375 72.90625 
L 47.609375 25.390625 
L 58.015625 25.390625 
L 58.015625 17.1875 
L 47.609375 17.1875 
L 47.609375 0 
L 37.796875 0 
L 37.796875 17.1875 
L 4.890625 17.1875 
L 4.890625 26.703125 
z
" id="BitstreamVeraSans-Roman-34"/>
      </defs>
      <g transform="translate(98.91 78.8875)scale(0.08 -0.08)">
       <use xlink:href="#BitstreamVeraSans-Roman-34"/>
      </g>
     </g>
    </g>
   </g>
   <g id="text_11">
    <!-- Distributions of wins: 200 turns repeated 10 times (5 strategies) -->
    <defs>
     <path d="M 31 75.875 
Q 24.46875 64.65625 21.28125 53.65625 
Q 18.109375 42.671875 18.109375 31.390625 
Q 18.109375 20.125 21.3125 9.0625 
Q 24.515625 -2 31 -13.1875 
L 23.1875 -13.1875 
Q 15.875 -1.703125 12.234375 9.375 
Q 8.59375 20.453125 8.59375 31.390625 
Q 8.59375 42.28125 12.203125 53.3125 
Q 15.828125 64.359375 23.1875 75.875 
z
" id="BitstreamVeraSans-Roman-28"/>
     <path d="M 4.203125 54.6875 
L 13.1875 54.6875 
L 24.421875 12.015625 
L 35.59375 54.6875 
L 46.1875 54.6875 
L 57.421875 12.015625 
L 68.609375 54.6875 
L 77.59375 54.6875 
L 63.28125 0 
L 52.6875 0 
L 40.921875 44.828125 
L 29.109375 0 
L 18.5 0 
z
" id="BitstreamVeraSans-Roman-77"/>
     <path d="M 8.015625 75.875 
L 15.828125 75.875 
Q 23.140625 64.359375 26.78125 53.3125 
Q 30.421875 42.28125 30.421875 31.390625 
Q 30.421875 20.453125 26.78125 9.375 
Q 23.140625 -1.703125 15.828125 -13.1875 
L 8.015625 -13.1875 
Q 14.5 -2 17.703125 9.0625 
Q 20.90625 20.125 20.90625 31.390625 
Q 20.90625 42.671875 17.703125 53.65625 
Q 14.5 64.65625 8.015625 75.875 
" id="BitstreamVeraSans-Roman-29"/>
     <path d="M 44.28125 53.078125 
L 44.28125 44.578125 
Q 40.484375 46.53125 36.375 47.5 
Q 32.28125 48.484375 27.875 48.484375 
Q 21.1875 48.484375 17.84375 46.4375 
Q 14.5 44.390625 14.5 40.28125 
Q 14.5 37.15625 16.890625 35.375 
Q 19.28125 33.59375 26.515625 31.984375 
L 29.59375 31.296875 
Q 39.15625 29.25 43.1875 25.515625 
Q 47.21875 21.78125 47.21875 15.09375 
Q 47.21875 7.46875 41.1875 3.015625 
Q 35.15625 -1.421875 24.609375 -1.421875 
Q 20.21875 -1.421875 15.453125 -0.5625 
Q 10.6875 0.296875 5.421875 2 
L 5.421875 11.28125 
Q 10.40625 8.6875 15.234375 7.390625 
Q 20.0625 6.109375 24.8125 6.109375 
Q 31.15625 6.109375 34.5625 8.28125 
Q 37.984375 10.453125 37.984375 14.40625 
Q 37.984375 18.0625 35.515625 20.015625 
Q 33.0625 21.96875 24.703125 23.78125 
L 21.578125 24.515625 
Q 13.234375 26.265625 9.515625 29.90625 
Q 5.8125 33.546875 5.8125 39.890625 
Q 5.8125 47.609375 11.28125 51.796875 
Q 16.75 56 26.8125 56 
Q 31.78125 56 36.171875 55.265625 
Q 40.578125 54.546875 44.28125 53.078125 
" id="BitstreamVeraSans-Roman-73"/>
     <path d="M 48.6875 27.296875 
Q 48.6875 37.203125 44.609375 42.84375 
Q 40.53125 48.484375 33.40625 48.484375 
Q 26.265625 48.484375 22.1875 42.84375 
Q 18.109375 37.203125 18.109375 27.296875 
Q 18.109375 17.390625 22.1875 11.75 
Q 26.265625 6.109375 33.40625 6.109375 
Q 40.53125 6.109375 44.609375 11.75 
Q 48.6875 17.390625 48.6875 27.296875 
M 18.109375 46.390625 
Q 20.953125 51.265625 25.265625 53.625 
Q 29.59375 56 35.59375 56 
Q 45.5625 56 51.78125 48.09375 
Q 58.015625 40.1875 58.015625 27.296875 
Q 58.015625 14.40625 51.78125 6.484375 
Q 45.5625 -1.421875 35.59375 -1.421875 
Q 29.59375 -1.421875 25.265625 0.953125 
Q 20.953125 3.328125 18.109375 8.203125 
L 18.109375 0 
L 9.078125 0 
L 9.078125 75.984375 
L 18.109375 75.984375 
z
" id="BitstreamVeraSans-Roman-62"/>
    </defs>
    <g transform="translate(249.2409375 38.2)scale(0.12 -0.12)">
     <use xlink:href="#BitstreamVeraSans-Roman-44"/>
     <use x="77.001953125" xlink:href="#BitstreamVeraSans-Roman-69"/>
     <use x="104.78515625" xlink:href="#BitstreamVeraSans-Roman-73"/>
     <use x="156.884765625" xlink:href="#BitstreamVeraSans-Roman-74"/>
     <use x="196.09375" xlink:href="#BitstreamVeraSans-Roman-72"/>
     <use x="237.20703125" xlink:href="#BitstreamVeraSans-Roman-69"/>
     <use x="264.990234375" xlink:href="#BitstreamVeraSans-Roman-62"/>
     <use x="328.466796875" xlink:href="#BitstreamVeraSans-Roman-75"/>
     <use x="391.845703125" xlink:href="#BitstreamVeraSans-Roman-74"/>
     <use x="431.0546875" xlink:href="#BitstreamVeraSans-Roman-69"/>
     <use x="458.837890625" xlink:href="#BitstreamVeraSans-Roman-6f"/>
     <use x="520.01953125" xlink:href="#BitstreamVeraSans-Roman-6e"/>
     <use x="583.3984375" xlink:href="#BitstreamVeraSans-Roman-73"/>
     <use x="635.498046875" xlink:href="#BitstreamVeraSans-Roman-20"/>
     <use x="667.28515625" xlink:href="#BitstreamVeraSans-Roman-6f"/>
     <use x="728.466796875" xlink:href="#BitstreamVeraSans-Roman-66"/>
     <use x="763.671875" xlink:href="#BitstreamVeraSans-Roman-20"/>
     <use x="795.458984375" xlink:href="#BitstreamVeraSans-Roman-77"/>
     <use x="877.24609375" xlink:href="#BitstreamVeraSans-Roman-69"/>
     <use x="905.029296875" xlink:href="#BitstreamVeraSans-Roman-6e"/>
     <use x="968.408203125" xlink:href="#BitstreamVeraSans-Roman-73"/>
     <use x="1020.5078125" xlink:href="#BitstreamVeraSans-Roman-3a"/>
     <use x="1054.19921875" xlink:href="#BitstreamVeraSans-Roman-20"/>
     <use x="1085.98632812" xlink:href="#BitstreamVeraSans-Roman-32"/>
     <use x="1149.609375" xlink:href="#BitstreamVeraSans-Roman-30"/>
     <use x="1213.23242188" xlink:href="#BitstreamVeraSans-Roman-30"/>
     <use x="1276.85546875" xlink:href="#BitstreamVeraSans-Roman-20"/>
     <use x="1308.64257812" xlink:href="#BitstreamVeraSans-Roman-74"/>
     <use x="1347.8515625" xlink:href="#BitstreamVeraSans-Roman-75"/>
     <use x="1411.23046875" xlink:href="#BitstreamVeraSans-Roman-72"/>
     <use x="1452.328125" xlink:href="#BitstreamVeraSans-Roman-6e"/>
     <use x="1515.70703125" xlink:href="#BitstreamVeraSans-Roman-73"/>
     <use x="1567.80664062" xlink:href="#BitstreamVeraSans-Roman-20"/>
     <use x="1599.59375" xlink:href="#BitstreamVeraSans-Roman-72"/>
     <use x="1640.67578125" xlink:href="#BitstreamVeraSans-Roman-65"/>
     <use x="1702.19921875" xlink:href="#BitstreamVeraSans-Roman-70"/>
     <use x="1765.67578125" xlink:href="#BitstreamVeraSans-Roman-65"/>
     <use x="1827.19921875" xlink:href="#BitstreamVeraSans-Roman-61"/>
     <use x="1888.47851562" xlink:href="#BitstreamVeraSans-Roman-74"/>
     <use x="1927.6875" xlink:href="#BitstreamVeraSans-Roman-65"/>
     <use x="1989.2109375" xlink:href="#BitstreamVeraSans-Roman-64"/>
     <use x="2052.6875" xlink:href="#BitstreamVeraSans-Roman-20"/>
     <use x="2084.47460938" xlink:href="#BitstreamVeraSans-Roman-31"/>
     <use x="2148.09765625" xlink:href="#BitstreamVeraSans-Roman-30"/>
     <use x="2211.72070312" xlink:href="#BitstreamVeraSans-Roman-20"/>
     <use x="2243.5078125" xlink:href="#BitstreamVeraSans-Roman-74"/>
     <use x="2282.71679688" xlink:href="#BitstreamVeraSans-Roman-69"/>
     <use x="2310.5" xlink:href="#BitstreamVeraSans-Roman-6d"/>
     <use x="2407.91210938" xlink:href="#BitstreamVeraSans-Roman-65"/>
     <use x="2469.43554688" xlink:href="#BitstreamVeraSans-Roman-73"/>
     <use x="2521.53515625" xlink:href="#BitstreamVeraSans-Roman-20"/>
     <use x="2553.32226562" xlink:href="#BitstreamVeraSans-Roman-28"/>
     <use x="2592.3359375" xlink:href="#BitstreamVeraSans-Roman-35"/>
     <use x="2655.95898438" xlink:href="#BitstreamVeraSans-Roman-20"/>
     <use x="2687.74609375" xlink:href="#BitstreamVeraSans-Roman-73"/>
     <use x="2739.84570312" xlink:href="#BitstreamVeraSans-Roman-74"/>
     <use x="2779.0546875" xlink:href="#BitstreamVeraSans-Roman-72"/>
     <use x="2820.16796875" xlink:href="#BitstreamVeraSans-Roman-61"/>
     <use x="2881.44726562" xlink:href="#BitstreamVeraSans-Roman-74"/>
     <use x="2920.65625" xlink:href="#BitstreamVeraSans-Roman-65"/>
     <use x="2982.1796875" xlink:href="#BitstreamVeraSans-Roman-67"/>
     <use x="3045.65625" xlink:href="#BitstreamVeraSans-Roman-69"/>
     <use x="3073.43945312" xlink:href="#BitstreamVeraSans-Roman-65"/>
     <use x="3134.96289062" xlink:href="#BitstreamVeraSans-Roman-73"/>
     <use x="3187.0625" xlink:href="#BitstreamVeraSans-Roman-29"/>
    </g>
   </g>
  </g>
 </g>
 <defs>
  <clipPath id="pc5f55ef38f">
   <rect height="334.8" width="669.6" x="108.0" y="43.2"/>
  </clipPath>
 </defs>
</svg>
