<?xml version="1.0" encoding="utf-8" standalone="no"?>
<!DOCTYPE svg PUBLIC "-//W3C//DTD SVG 1.1//EN"
  "http://www.w3.org/Graphics/SVG/1.1/DTD/svg11.dtd">
<!-- Created with matplotlib (http://matplotlib.org/) -->
<svg height="432pt" version="1.1" viewBox="0 0 864 432" width="864pt" xmlns="http://www.w3.org/2000/svg" xmlns:xlink="http://www.w3.org/1999/xlink">
 <defs>
  <style type="text/css">
*{stroke-linecap:butt;stroke-linejoin:round;}
  </style>
 </defs>
 <g id="figure_1">
  <g id="patch_1">
   <path d="
M0 432
L864 432
L864 0
L0 0
z
" style="fill:#ffffff;"/>
  </g>
  <g id="axes_1">
   <g id="patch_2">
    <path d="
M108 388.8
L777.6 388.8
L777.6 43.2
L108 43.2
z
" style="fill:#ffffff;"/>
   </g>
   <g id="PolyCollection_1">
    <defs>
     <path d="
M246.962 -333.36
L236.878 -333.36
L236.868 -333.742
L236.871 -334.124
L236.886 -334.505
L236.913 -334.887
L236.95 -335.269
L236.996 -335.651
L237.05 -336.033
L237.109 -336.415
L237.173 -336.796
L237.239 -337.178
L237.305 -337.56
L237.369 -337.942
L237.429 -338.324
L237.483 -338.705
L237.527 -339.087
L237.561 -339.469
L237.581 -339.851
L237.585 -340.233
L237.571 -340.615
L237.536 -340.996
L237.479 -341.378
L237.397 -341.76
L237.289 -342.142
L237.153 -342.524
L236.987 -342.905
L236.789 -343.287
L236.559 -343.669
L236.296 -344.051
L235.999 -344.433
L235.667 -344.815
L235.301 -345.196
L234.899 -345.578
L234.462 -345.96
L233.991 -346.342
L233.486 -346.724
L232.949 -347.105
L232.379 -347.487
L231.779 -347.869
L231.15 -348.251
L230.494 -348.633
L229.813 -349.015
L229.107 -349.396
L228.381 -349.778
L227.635 -350.16
L226.873 -350.542
L226.096 -350.924
L225.307 -351.305
L224.509 -351.687
L223.704 -352.069
L222.895 -352.451
L222.084 -352.833
L221.273 -353.215
L220.466 -353.596
L219.665 -353.978
L218.872 -354.36
L218.09 -354.742
L217.321 -355.124
L216.568 -355.505
L215.833 -355.887
L215.119 -356.269
L214.427 -356.651
L213.762 -357.033
L213.124 -357.415
L212.516 -357.796
L211.941 -358.178
L211.401 -358.56
L210.899 -358.942
L210.437 -359.324
L210.018 -359.705
L209.643 -360.087
L209.314 -360.469
L209.035 -360.851
L208.807 -361.233
L208.632 -361.615
L208.512 -361.996
L208.447 -362.378
L208.44 -362.76
L208.491 -363.142
L208.601 -363.524
L208.77 -363.905
L208.999 -364.287
L209.287 -364.669
L209.633 -365.051
L210.037 -365.433
L210.497 -365.815
L211.011 -366.196
L211.577 -366.578
L212.192 -366.96
L212.855 -367.342
L213.561 -367.724
L214.307 -368.105
L215.091 -368.487
L215.907 -368.869
L216.753 -369.251
L217.623 -369.633
L218.514 -370.015
L219.422 -370.396
L220.342 -370.778
L221.27 -371.16
L262.57 -371.16
L262.57 -371.16
L263.498 -370.778
L264.418 -370.396
L265.326 -370.015
L266.217 -369.633
L267.087 -369.251
L267.933 -368.869
L268.749 -368.487
L269.533 -368.105
L270.279 -367.724
L270.985 -367.342
L271.648 -366.96
L272.263 -366.578
L272.829 -366.196
L273.343 -365.815
L273.803 -365.433
L274.207 -365.051
L274.553 -364.669
L274.841 -364.287
L275.07 -363.905
L275.239 -363.524
L275.349 -363.142
L275.4 -362.76
L275.393 -362.378
L275.328 -361.996
L275.208 -361.615
L275.033 -361.233
L274.805 -360.851
L274.526 -360.469
L274.197 -360.087
L273.822 -359.705
L273.403 -359.324
L272.941 -358.942
L272.439 -358.56
L271.899 -358.178
L271.324 -357.796
L270.716 -357.415
L270.078 -357.033
L269.413 -356.651
L268.721 -356.269
L268.007 -355.887
L267.272 -355.505
L266.519 -355.124
L265.75 -354.742
L264.968 -354.36
L264.175 -353.978
L263.374 -353.596
L262.567 -353.215
L261.756 -352.833
L260.945 -352.451
L260.136 -352.069
L259.331 -351.687
L258.533 -351.305
L257.744 -350.924
L256.967 -350.542
L256.205 -350.16
L255.459 -349.778
L254.733 -349.396
L254.027 -349.015
L253.346 -348.633
L252.69 -348.251
L252.061 -347.869
L251.461 -347.487
L250.891 -347.105
L250.354 -346.724
L249.849 -346.342
L249.378 -345.96
L248.941 -345.578
L248.539 -345.196
L248.173 -344.815
L247.841 -344.433
L247.544 -344.051
L247.281 -343.669
L247.051 -343.287
L246.853 -342.905
L246.687 -342.524
L246.551 -342.142
L246.443 -341.76
L246.361 -341.378
L246.304 -340.996
L246.269 -340.615
L246.255 -340.233
L246.259 -339.851
L246.279 -339.469
L246.313 -339.087
L246.357 -338.705
L246.411 -338.324
L246.471 -337.942
L246.535 -337.56
L246.601 -337.178
L246.667 -336.796
L246.731 -336.415
L246.79 -336.033
L246.844 -335.651
L246.89 -335.269
L246.927 -334.887
L246.954 -334.505
L246.969 -334.124
L246.972 -333.742
L246.962 -333.36
z
" id="mbbefb6569b" style="stroke:#000000;stroke-opacity:0.3;"/>
    </defs>
    <g clip-path="url(#pad36b945f0)">
     <use style="fill:#bfbf00;fill-opacity:0.3;stroke:#000000;stroke-opacity:0.3;" x="0.0" xlink:href="#mbbefb6569b" y="432.0"/>
    </g>
   </g>
   <g id="PolyCollection_2">
    <defs>
     <path d="
M397.817 -328.32
L353.863 -328.32
L353.356 -328.767
L352.869 -329.215
L352.402 -329.662
L351.957 -330.109
L351.534 -330.556
L351.133 -331.004
L350.754 -331.451
L350.399 -331.898
L350.065 -332.345
L349.754 -332.793
L349.465 -333.24
L349.197 -333.687
L348.949 -334.135
L348.721 -334.582
L348.51 -335.029
L348.317 -335.476
L348.139 -335.924
L347.976 -336.371
L347.825 -336.818
L347.685 -337.265
L347.555 -337.713
L347.432 -338.16
L347.315 -338.607
L347.203 -339.055
L347.094 -339.502
L346.986 -339.949
L346.878 -340.396
L346.768 -340.844
L346.656 -341.291
L346.539 -341.738
L346.418 -342.185
L346.291 -342.633
L346.157 -343.08
L346.017 -343.527
L345.869 -343.975
L345.714 -344.422
L345.552 -344.869
L345.383 -345.316
L345.208 -345.764
L345.027 -346.211
L344.842 -346.658
L344.653 -347.105
L344.461 -347.553
L344.268 -348
L344.075 -348.447
L343.884 -348.895
L343.697 -349.342
L343.515 -349.789
L343.34 -350.236
L343.173 -350.684
L343.018 -351.131
L342.875 -351.578
L342.746 -352.025
L342.633 -352.473
L342.537 -352.92
L342.461 -353.367
L342.405 -353.815
L342.371 -354.262
L342.36 -354.709
L342.373 -355.156
L342.411 -355.604
L342.475 -356.051
L342.564 -356.498
L342.681 -356.945
L342.824 -357.393
L342.993 -357.84
L343.19 -358.287
L343.413 -358.735
L343.662 -359.182
L343.937 -359.629
L344.236 -360.076
L344.56 -360.524
L344.907 -360.971
L345.277 -361.418
L345.668 -361.865
L346.079 -362.313
L346.51 -362.76
L346.958 -363.207
L347.424 -363.655
L347.906 -364.102
L348.402 -364.549
L348.912 -364.996
L349.434 -365.444
L349.967 -365.891
L350.511 -366.338
L351.064 -366.785
L351.624 -367.233
L352.192 -367.68
L352.766 -368.127
L353.346 -368.575
L353.929 -369.022
L354.517 -369.469
L355.107 -369.916
L355.698 -370.364
L356.291 -370.811
L356.884 -371.258
L357.477 -371.705
L358.069 -372.153
L358.659 -372.6
L393.021 -372.6
L393.021 -372.6
L393.611 -372.153
L394.203 -371.705
L394.796 -371.258
L395.389 -370.811
L395.982 -370.364
L396.573 -369.916
L397.163 -369.469
L397.751 -369.022
L398.334 -368.575
L398.914 -368.127
L399.488 -367.68
L400.056 -367.233
L400.616 -366.785
L401.169 -366.338
L401.713 -365.891
L402.246 -365.444
L402.768 -364.996
L403.278 -364.549
L403.774 -364.102
L404.256 -363.655
L404.722 -363.207
L405.17 -362.76
L405.601 -362.313
L406.012 -361.865
L406.403 -361.418
L406.773 -360.971
L407.12 -360.524
L407.444 -360.076
L407.743 -359.629
L408.018 -359.182
L408.267 -358.735
L408.49 -358.287
L408.687 -357.84
L408.856 -357.393
L408.999 -356.945
L409.116 -356.498
L409.205 -356.051
L409.269 -355.604
L409.307 -355.156
L409.32 -354.709
L409.309 -354.262
L409.275 -353.815
L409.219 -353.367
L409.143 -352.92
L409.047 -352.473
L408.934 -352.025
L408.805 -351.578
L408.662 -351.131
L408.507 -350.684
L408.34 -350.236
L408.165 -349.789
L407.983 -349.342
L407.796 -348.895
L407.605 -348.447
L407.412 -348
L407.219 -347.553
L407.027 -347.105
L406.838 -346.658
L406.653 -346.211
L406.472 -345.764
L406.297 -345.316
L406.128 -344.869
L405.966 -344.422
L405.811 -343.975
L405.663 -343.527
L405.523 -343.08
L405.389 -342.633
L405.262 -342.185
L405.141 -341.738
L405.024 -341.291
L404.912 -340.844
L404.802 -340.396
L404.694 -339.949
L404.586 -339.502
L404.477 -339.055
L404.365 -338.607
L404.248 -338.16
L404.125 -337.713
L403.995 -337.265
L403.855 -336.818
L403.704 -336.371
L403.541 -335.924
L403.363 -335.476
L403.17 -335.029
L402.959 -334.582
L402.731 -334.135
L402.483 -333.687
L402.215 -333.24
L401.926 -332.793
L401.615 -332.345
L401.281 -331.898
L400.926 -331.451
L400.547 -331.004
L400.146 -330.556
L399.723 -330.109
L399.278 -329.662
L398.811 -329.215
L398.324 -328.767
L397.817 -328.32
z
" id="m4558085970" style="stroke:#000000;stroke-opacity:0.3;"/>
    </defs>
    <g clip-path="url(#pad36b945f0)">
     <use style="fill:#bfbf00;fill-opacity:0.3;stroke:#000000;stroke-opacity:0.3;" x="0.0" xlink:href="#m4558085970" y="432.0"/>
    </g>
   </g>
   <g id="PolyCollection_3">
    <defs>
     <path d="
M515.452 -205.2
L504.068 -205.2
L504.004 -205.505
L503.949 -205.811
L503.901 -206.116
L503.859 -206.422
L503.822 -206.727
L503.788 -207.033
L503.756 -207.338
L503.723 -207.644
L503.687 -207.949
L503.646 -208.255
L503.599 -208.56
L503.542 -208.865
L503.473 -209.171
L503.391 -209.476
L503.293 -209.782
L503.176 -210.087
L503.04 -210.393
L502.882 -210.698
L502.7 -211.004
L502.493 -211.309
L502.26 -211.615
L501.998 -211.92
L501.708 -212.225
L501.389 -212.531
L501.039 -212.836
L500.659 -213.142
L500.249 -213.447
L499.808 -213.753
L499.336 -214.058
L498.836 -214.364
L498.306 -214.669
L497.748 -214.975
L497.163 -215.28
L496.552 -215.585
L495.917 -215.891
L495.259 -216.196
L494.58 -216.502
L493.881 -216.807
L493.164 -217.113
L492.432 -217.418
L491.686 -217.724
L490.929 -218.029
L490.162 -218.335
L489.39 -218.64
L488.613 -218.945
L487.834 -219.251
L487.057 -219.556
L486.284 -219.862
L485.518 -220.167
L484.761 -220.473
L484.017 -220.778
L483.289 -221.084
L482.58 -221.389
L481.893 -221.695
L481.232 -222
L480.598 -222.305
L479.997 -222.611
L479.43 -222.916
L478.901 -223.222
L478.414 -223.527
L477.97 -223.833
L477.572 -224.138
L477.224 -224.444
L476.927 -224.749
L476.684 -225.055
L476.496 -225.36
L476.365 -225.665
L476.293 -225.971
L476.28 -226.276
L476.327 -226.582
L476.434 -226.887
L476.6 -227.193
L476.826 -227.498
L477.11 -227.804
L477.45 -228.109
L477.846 -228.415
L478.295 -228.72
L478.795 -229.025
L479.342 -229.331
L479.935 -229.636
L480.569 -229.942
L481.241 -230.247
L481.948 -230.553
L482.686 -230.858
L483.451 -231.164
L484.24 -231.469
L485.047 -231.775
L485.871 -232.08
L486.706 -232.385
L487.55 -232.691
L488.399 -232.996
L489.249 -233.302
L490.097 -233.607
L490.941 -233.913
L491.778 -234.218
L492.604 -234.524
L493.419 -234.829
L494.219 -235.135
L495.004 -235.44
L524.516 -235.44
L524.516 -235.44
L525.301 -235.135
L526.101 -234.829
L526.916 -234.524
L527.742 -234.218
L528.579 -233.913
L529.423 -233.607
L530.271 -233.302
L531.121 -232.996
L531.97 -232.691
L532.814 -232.385
L533.649 -232.08
L534.473 -231.775
L535.28 -231.469
L536.069 -231.164
L536.834 -230.858
L537.572 -230.553
L538.279 -230.247
L538.951 -229.942
L539.585 -229.636
L540.178 -229.331
L540.725 -229.025
L541.225 -228.72
L541.674 -228.415
L542.07 -228.109
L542.41 -227.804
L542.694 -227.498
L542.92 -227.193
L543.086 -226.887
L543.193 -226.582
L543.24 -226.276
L543.227 -225.971
L543.155 -225.665
L543.024 -225.36
L542.836 -225.055
L542.593 -224.749
L542.296 -224.444
L541.948 -224.138
L541.55 -223.833
L541.106 -223.527
L540.619 -223.222
L540.09 -222.916
L539.523 -222.611
L538.922 -222.305
L538.288 -222
L537.627 -221.695
L536.94 -221.389
L536.231 -221.084
L535.503 -220.778
L534.759 -220.473
L534.002 -220.167
L533.236 -219.862
L532.463 -219.556
L531.686 -219.251
L530.907 -218.945
L530.13 -218.64
L529.358 -218.335
L528.591 -218.029
L527.834 -217.724
L527.088 -217.418
L526.356 -217.113
L525.639 -216.807
L524.94 -216.502
L524.261 -216.196
L523.603 -215.891
L522.968 -215.585
L522.357 -215.28
L521.772 -214.975
L521.214 -214.669
L520.684 -214.364
L520.184 -214.058
L519.712 -213.753
L519.271 -213.447
L518.861 -213.142
L518.481 -212.836
L518.131 -212.531
L517.812 -212.225
L517.522 -211.92
L517.26 -211.615
L517.027 -211.309
L516.82 -211.004
L516.638 -210.698
L516.48 -210.393
L516.344 -210.087
L516.227 -209.782
L516.129 -209.476
L516.047 -209.171
L515.978 -208.865
L515.921 -208.56
L515.874 -208.255
L515.833 -207.949
L515.797 -207.644
L515.764 -207.338
L515.732 -207.033
L515.698 -206.727
L515.661 -206.422
L515.619 -206.116
L515.571 -205.811
L515.516 -205.505
L515.452 -205.2
z
" id="m30d4c826fe" style="stroke:#000000;stroke-opacity:0.3;"/>
    </defs>
    <g clip-path="url(#pad36b945f0)">
     <use style="fill:#bfbf00;fill-opacity:0.3;stroke:#000000;stroke-opacity:0.3;" x="0.0" xlink:href="#m30d4c826fe" y="432.0"/>
    </g>
   </g>
   <g id="PolyCollection_4">
    <defs>
     <path d="
M662.142 -64.08
L625.218 -64.08
L624.631 -64.6109
L624.052 -65.1418
L623.483 -65.6727
L622.922 -66.2036
L622.371 -66.7345
L621.829 -67.2655
L621.296 -67.7964
L620.772 -68.3273
L620.256 -68.8582
L619.747 -69.3891
L619.246 -69.92
L618.752 -70.4509
L618.265 -70.9818
L617.783 -71.5127
L617.307 -72.0436
L616.837 -72.5745
L616.373 -73.1055
L615.915 -73.6364
L615.463 -74.1673
L615.018 -74.6982
L614.581 -75.2291
L614.154 -75.76
L613.737 -76.2909
L613.332 -76.8218
L612.94 -77.3527
L612.565 -77.8836
L612.208 -78.4145
L611.872 -78.9455
L611.559 -79.4764
L611.271 -80.0073
L611.012 -80.5382
L610.784 -81.0691
L610.59 -81.6
L610.432 -82.1309
L610.313 -82.6618
L610.235 -83.1927
L610.2 -83.7236
L610.21 -84.2545
L610.267 -84.7855
L610.372 -85.3164
L610.526 -85.8473
L610.73 -86.3782
L610.983 -86.9091
L611.286 -87.44
L611.638 -87.9709
L612.039 -88.5018
L612.486 -89.0327
L612.979 -89.5636
L613.515 -90.0945
L614.091 -90.6255
L614.706 -91.1564
L615.356 -91.6873
L616.038 -92.2182
L616.748 -92.7491
L617.484 -93.28
L618.24 -93.8109
L619.013 -94.3418
L619.8 -94.8727
L620.596 -95.4036
L621.397 -95.9345
L622.199 -96.4655
L622.999 -96.9964
L623.793 -97.5273
L624.577 -98.0582
L625.348 -98.5891
L626.102 -99.12
L626.838 -99.6509
L627.552 -100.182
L628.241 -100.713
L628.905 -101.244
L629.54 -101.775
L630.146 -102.305
L630.721 -102.836
L631.264 -103.367
L631.776 -103.898
L632.255 -104.429
L632.702 -104.96
L633.117 -105.491
L633.501 -106.022
L633.854 -106.553
L634.178 -107.084
L634.474 -107.615
L634.744 -108.145
L634.988 -108.676
L635.211 -109.207
L635.412 -109.738
L635.594 -110.269
L635.76 -110.8
L635.911 -111.331
L636.05 -111.862
L636.179 -112.393
L636.3 -112.924
L636.414 -113.455
L636.525 -113.985
L636.633 -114.516
L636.741 -115.047
L636.849 -115.578
L636.96 -116.109
L637.075 -116.64
L650.285 -116.64
L650.285 -116.64
L650.4 -116.109
L650.511 -115.578
L650.619 -115.047
L650.727 -114.516
L650.835 -113.985
L650.946 -113.455
L651.06 -112.924
L651.181 -112.393
L651.31 -111.862
L651.449 -111.331
L651.6 -110.8
L651.766 -110.269
L651.948 -109.738
L652.149 -109.207
L652.372 -108.676
L652.616 -108.145
L652.886 -107.615
L653.182 -107.084
L653.506 -106.553
L653.859 -106.022
L654.243 -105.491
L654.658 -104.96
L655.105 -104.429
L655.584 -103.898
L656.096 -103.367
L656.639 -102.836
L657.214 -102.305
L657.82 -101.775
L658.455 -101.244
L659.119 -100.713
L659.808 -100.182
L660.522 -99.6509
L661.258 -99.12
L662.012 -98.5891
L662.783 -98.0582
L663.567 -97.5273
L664.361 -96.9964
L665.161 -96.4655
L665.963 -95.9345
L666.764 -95.4036
L667.56 -94.8727
L668.347 -94.3418
L669.12 -93.8109
L669.876 -93.28
L670.612 -92.7491
L671.322 -92.2182
L672.004 -91.6873
L672.654 -91.1564
L673.269 -90.6255
L673.845 -90.0945
L674.381 -89.5636
L674.874 -89.0327
L675.321 -88.5018
L675.722 -87.9709
L676.074 -87.44
L676.377 -86.9091
L676.63 -86.3782
L676.834 -85.8473
L676.988 -85.3164
L677.093 -84.7855
L677.15 -84.2545
L677.16 -83.7236
L677.125 -83.1927
L677.047 -82.6618
L676.928 -82.1309
L676.77 -81.6
L676.576 -81.0691
L676.348 -80.5382
L676.089 -80.0073
L675.801 -79.4764
L675.488 -78.9455
L675.152 -78.4145
L674.795 -77.8836
L674.42 -77.3527
L674.028 -76.8218
L673.623 -76.2909
L673.206 -75.76
L672.779 -75.2291
L672.342 -74.6982
L671.897 -74.1673
L671.445 -73.6364
L670.987 -73.1055
L670.523 -72.5745
L670.053 -72.0436
L669.577 -71.5127
L669.095 -70.9818
L668.608 -70.4509
L668.114 -69.92
L667.613 -69.3891
L667.104 -68.8582
L666.588 -68.3273
L666.064 -67.7964
L665.531 -67.2655
L664.989 -66.7345
L664.438 -66.2036
L663.877 -65.6727
L663.308 -65.1418
L662.729 -64.6109
L662.142 -64.08
z
" id="maa192b15f4" style="stroke:#000000;stroke-opacity:0.3;"/>
    </defs>
    <g clip-path="url(#pad36b945f0)">
     <use style="fill:#bfbf00;fill-opacity:0.3;stroke:#000000;stroke-opacity:0.3;" x="0.0" xlink:href="#maa192b15f4" y="432.0"/>
    </g>
   </g>
   <g id="LineCollection_1">
    <defs>
     <path d="
M225.18 -363.06
L258.66 -363.06" id="C0_0_1a2c569707"/>
     <path d="
M359.1 -352.44
L392.58 -352.44" id="C0_1_128aec1d02"/>
     <path d="
M493.02 -225.9
L526.5 -225.9" id="C0_2_9315e16c2e"/>
     <path d="
M626.94 -84.6
L660.42 -84.6" id="C0_3_d2ec97aac6"/>
    </defs>
    <g clip-path="url(#pad36b945f0)">
     <use style="fill:none;stroke:#ff0000;" x="0.0" xlink:href="#C0_0_1a2c569707" y="432.0"/>
    </g>
    <g clip-path="url(#pad36b945f0)">
     <use style="fill:none;stroke:#ff0000;" x="0.0" xlink:href="#C0_1_128aec1d02" y="432.0"/>
    </g>
    <g clip-path="url(#pad36b945f0)">
     <use style="fill:none;stroke:#ff0000;" x="0.0" xlink:href="#C0_2_9315e16c2e" y="432.0"/>
    </g>
    <g clip-path="url(#pad36b945f0)">
     <use style="fill:none;stroke:#ff0000;" x="0.0" xlink:href="#C0_3_d2ec97aac6" y="432.0"/>
    </g>
   </g>
   <g id="patch_3">
    <path d="
M108 43.2
L777.6 43.2" style="fill:none;stroke:#000000;stroke-linecap:square;stroke-linejoin:miter;"/>
   </g>
   <g id="patch_4">
    <path d="
M777.6 388.8
L777.6 43.2" style="fill:none;stroke:#000000;stroke-linecap:square;stroke-linejoin:miter;"/>
   </g>
   <g id="patch_5">
    <path d="
M108 388.8
L777.6 388.8" style="fill:none;stroke:#000000;stroke-linecap:square;stroke-linejoin:miter;"/>
   </g>
   <g id="patch_6">
    <path d="
M108 388.8
L108 43.2" style="fill:none;stroke:#000000;stroke-linecap:square;stroke-linejoin:miter;"/>
   </g>
   <g id="matplotlib.axis_1">
    <g id="xtick_1">
     <g id="line2d_1">
      <defs>
       <path d="
M0 0
L0 -4" id="m93b0483c22" style="stroke:#000000;stroke-width:0.5;"/>
      </defs>
      <g>
       <use style="stroke:#000000;stroke-width:0.5;" x="241.92" xlink:href="#m93b0483c22" y="388.8"/>
      </g>
     </g>
     <g id="line2d_2">
      <defs>
       <path d="
M0 0
L0 4" id="m741efc42ff" style="stroke:#000000;stroke-width:0.5;"/>
      </defs>
      <g>
       <use style="stroke:#000000;stroke-width:0.5;" x="241.92" xlink:href="#m741efc42ff" y="43.2"/>
      </g>
     </g>
     <g id="text_1">
      <!-- Defector -->
      <defs>
       <path d="
M30.6094 48.3906
Q23.3906 48.3906 19.1875 42.75
Q14.9844 37.1094 14.9844 27.2969
Q14.9844 17.4844 19.1562 11.8438
Q23.3438 6.20312 30.6094 6.20312
Q37.7969 6.20312 41.9844 11.8594
Q46.1875 17.5312 46.1875 27.2969
Q46.1875 37.0156 41.9844 42.7031
Q37.7969 48.3906 30.6094 48.3906
M30.6094 56
Q42.3281 56 49.0156 48.375
Q55.7188 40.7656 55.7188 27.2969
Q55.7188 13.875 49.0156 6.21875
Q42.3281 -1.42188 30.6094 -1.42188
Q18.8438 -1.42188 12.1719 6.21875
Q5.51562 13.875 5.51562 27.2969
Q5.51562 40.7656 12.1719 48.375
Q18.8438 56 30.6094 56" id="BitstreamVeraSans-Roman-6f"/>
       <path d="
M19.6719 64.7969
L19.6719 8.10938
L31.5938 8.10938
Q46.6875 8.10938 53.6875 14.9375
Q60.6875 21.7812 60.6875 36.5312
Q60.6875 51.1719 53.6875 57.9844
Q46.6875 64.7969 31.5938 64.7969
z

M9.8125 72.9062
L30.0781 72.9062
Q51.2656 72.9062 61.1719 64.0938
Q71.0938 55.2812 71.0938 36.5312
Q71.0938 17.6719 61.125 8.82812
Q51.1719 0 30.0781 0
L9.8125 0
z
" id="BitstreamVeraSans-Roman-44"/>
       <path d="
M56.2031 29.5938
L56.2031 25.2031
L14.8906 25.2031
Q15.4844 15.9219 20.4844 11.0625
Q25.4844 6.20312 34.4219 6.20312
Q39.5938 6.20312 44.4531 7.46875
Q49.3125 8.73438 54.1094 11.2812
L54.1094 2.78125
Q49.2656 0.734375 44.1875 -0.34375
Q39.1094 -1.42188 33.8906 -1.42188
Q20.7969 -1.42188 13.1562 6.1875
Q5.51562 13.8125 5.51562 26.8125
Q5.51562 40.2344 12.7656 48.1094
Q20.0156 56 32.3281 56
Q43.3594 56 49.7812 48.8906
Q56.2031 41.7969 56.2031 29.5938
M47.2188 32.2344
Q47.125 39.5938 43.0938 43.9844
Q39.0625 48.3906 32.4219 48.3906
Q24.9062 48.3906 20.3906 44.1406
Q15.875 39.8906 15.1875 32.1719
z
" id="BitstreamVeraSans-Roman-65"/>
       <path d="
M18.3125 70.2188
L18.3125 54.6875
L36.8125 54.6875
L36.8125 47.7031
L18.3125 47.7031
L18.3125 18.0156
Q18.3125 11.3281 20.1406 9.42188
Q21.9688 7.51562 27.5938 7.51562
L36.8125 7.51562
L36.8125 0
L27.5938 0
Q17.1875 0 13.2344 3.875
Q9.28125 7.76562 9.28125 18.0156
L9.28125 47.7031
L2.6875 47.7031
L2.6875 54.6875
L9.28125 54.6875
L9.28125 70.2188
z
" id="BitstreamVeraSans-Roman-74"/>
       <path d="
M37.1094 75.9844
L37.1094 68.5
L28.5156 68.5
Q23.6875 68.5 21.7969 66.5469
Q19.9219 64.5938 19.9219 59.5156
L19.9219 54.6875
L34.7188 54.6875
L34.7188 47.7031
L19.9219 47.7031
L19.9219 0
L10.8906 0
L10.8906 47.7031
L2.29688 47.7031
L2.29688 54.6875
L10.8906 54.6875
L10.8906 58.5
Q10.8906 67.625 15.1406 71.7969
Q19.3906 75.9844 28.6094 75.9844
z
" id="BitstreamVeraSans-Roman-66"/>
       <path d="
M41.1094 46.2969
Q39.5938 47.1719 37.8125 47.5781
Q36.0312 48 33.8906 48
Q26.2656 48 22.1875 43.0469
Q18.1094 38.0938 18.1094 28.8125
L18.1094 0
L9.07812 0
L9.07812 54.6875
L18.1094 54.6875
L18.1094 46.1875
Q20.9531 51.1719 25.4844 53.5781
Q30.0312 56 36.5312 56
Q37.4531 56 38.5781 55.875
Q39.7031 55.7656 41.0625 55.5156
z
" id="BitstreamVeraSans-Roman-72"/>
       <path d="
M48.7812 52.5938
L48.7812 44.1875
Q44.9688 46.2969 41.1406 47.3438
Q37.3125 48.3906 33.4062 48.3906
Q24.6562 48.3906 19.8125 42.8438
Q14.9844 37.3125 14.9844 27.2969
Q14.9844 17.2812 19.8125 11.7344
Q24.6562 6.20312 33.4062 6.20312
Q37.3125 6.20312 41.1406 7.25
Q44.9688 8.29688 48.7812 10.4062
L48.7812 2.09375
Q45.0156 0.34375 40.9844 -0.53125
Q36.9688 -1.42188 32.4219 -1.42188
Q20.0625 -1.42188 12.7812 6.34375
Q5.51562 14.1094 5.51562 27.2969
Q5.51562 40.6719 12.8594 48.3281
Q20.2188 56 33.0156 56
Q37.1562 56 41.1094 55.1406
Q45.0625 54.2969 48.7812 52.5938" id="BitstreamVeraSans-Roman-63"/>
      </defs>
      <g transform="translate(244.1275 426.555)rotate(-90.0)scale(0.08 -0.08)">
       <use xlink:href="#BitstreamVeraSans-Roman-44"/>
       <use x="77.001953125" xlink:href="#BitstreamVeraSans-Roman-65"/>
       <use x="138.525390625" xlink:href="#BitstreamVeraSans-Roman-66"/>
       <use x="173.73046875" xlink:href="#BitstreamVeraSans-Roman-65"/>
       <use x="235.25390625" xlink:href="#BitstreamVeraSans-Roman-63"/>
       <use x="290.234375" xlink:href="#BitstreamVeraSans-Roman-74"/>
       <use x="329.443359375" xlink:href="#BitstreamVeraSans-Roman-6f"/>
       <use x="390.625" xlink:href="#BitstreamVeraSans-Roman-72"/>
      </g>
     </g>
    </g>
    <g id="xtick_2">
     <g id="line2d_3">
      <g>
       <use style="stroke:#000000;stroke-width:0.5;" x="375.84" xlink:href="#m93b0483c22" y="388.8"/>
      </g>
     </g>
     <g id="line2d_4">
      <g>
       <use style="stroke:#000000;stroke-width:0.5;" x="375.84" xlink:href="#m741efc42ff" y="43.2"/>
      </g>
     </g>
     <g id="text_2">
      <!-- Grudger -->
      <defs>
       <path d="
M59.5156 10.4062
L59.5156 29.9844
L43.4062 29.9844
L43.4062 38.0938
L69.2812 38.0938
L69.2812 6.78125
Q63.5781 2.73438 56.6875 0.65625
Q49.8125 -1.42188 42 -1.42188
Q24.9062 -1.42188 15.25 8.5625
Q5.60938 18.5625 5.60938 36.375
Q5.60938 54.25 15.25 64.2344
Q24.9062 74.2188 42 74.2188
Q49.125 74.2188 55.5469 72.4531
Q61.9688 70.7031 67.3906 67.2812
L67.3906 56.7812
Q61.9219 61.4219 55.7656 63.7656
Q49.6094 66.1094 42.8281 66.1094
Q29.4375 66.1094 22.7188 58.6406
Q16.0156 51.1719 16.0156 36.375
Q16.0156 21.625 22.7188 14.1562
Q29.4375 6.6875 42.8281 6.6875
Q48.0469 6.6875 52.1406 7.59375
Q56.25 8.5 59.5156 10.4062" id="BitstreamVeraSans-Roman-47"/>
       <path d="
M45.4062 46.3906
L45.4062 75.9844
L54.3906 75.9844
L54.3906 0
L45.4062 0
L45.4062 8.20312
Q42.5781 3.32812 38.25 0.953125
Q33.9375 -1.42188 27.875 -1.42188
Q17.9688 -1.42188 11.7344 6.48438
Q5.51562 14.4062 5.51562 27.2969
Q5.51562 40.1875 11.7344 48.0938
Q17.9688 56 27.875 56
Q33.9375 56 38.25 53.625
Q42.5781 51.2656 45.4062 46.3906
M14.7969 27.2969
Q14.7969 17.3906 18.875 11.75
Q22.9531 6.10938 30.0781 6.10938
Q37.2031 6.10938 41.2969 11.75
Q45.4062 17.3906 45.4062 27.2969
Q45.4062 37.2031 41.2969 42.8438
Q37.2031 48.4844 30.0781 48.4844
Q22.9531 48.4844 18.875 42.8438
Q14.7969 37.2031 14.7969 27.2969" id="BitstreamVeraSans-Roman-64"/>
       <path d="
M45.4062 27.9844
Q45.4062 37.75 41.375 43.1094
Q37.3594 48.4844 30.0781 48.4844
Q22.8594 48.4844 18.8281 43.1094
Q14.7969 37.75 14.7969 27.9844
Q14.7969 18.2656 18.8281 12.8906
Q22.8594 7.51562 30.0781 7.51562
Q37.3594 7.51562 41.375 12.8906
Q45.4062 18.2656 45.4062 27.9844
M54.3906 6.78125
Q54.3906 -7.17188 48.1875 -13.9844
Q42 -20.7969 29.2031 -20.7969
Q24.4688 -20.7969 20.2656 -20.0938
Q16.0625 -19.3906 12.1094 -17.9219
L12.1094 -9.1875
Q16.0625 -11.3281 19.9219 -12.3438
Q23.7812 -13.375 27.7812 -13.375
Q36.625 -13.375 41.0156 -8.76562
Q45.4062 -4.15625 45.4062 5.17188
L45.4062 9.625
Q42.625 4.78125 38.2812 2.39062
Q33.9375 0 27.875 0
Q17.8281 0 11.6719 7.65625
Q5.51562 15.3281 5.51562 27.9844
Q5.51562 40.6719 11.6719 48.3281
Q17.8281 56 27.875 56
Q33.9375 56 38.2812 53.6094
Q42.625 51.2188 45.4062 46.3906
L45.4062 54.6875
L54.3906 54.6875
z
" id="BitstreamVeraSans-Roman-67"/>
       <path d="
M8.5 21.5781
L8.5 54.6875
L17.4844 54.6875
L17.4844 21.9219
Q17.4844 14.1562 20.5 10.2656
Q23.5312 6.39062 29.5938 6.39062
Q36.8594 6.39062 41.0781 11.0312
Q45.3125 15.6719 45.3125 23.6875
L45.3125 54.6875
L54.2969 54.6875
L54.2969 0
L45.3125 0
L45.3125 8.40625
Q42.0469 3.42188 37.7188 1
Q33.4062 -1.42188 27.6875 -1.42188
Q18.2656 -1.42188 13.375 4.4375
Q8.5 10.2969 8.5 21.5781" id="BitstreamVeraSans-Roman-75"/>
      </defs>
      <g transform="translate(378.0475 425.2775)rotate(-90.0)scale(0.08 -0.08)">
       <use xlink:href="#BitstreamVeraSans-Roman-47"/>
       <use x="77.490234375" xlink:href="#BitstreamVeraSans-Roman-72"/>
       <use x="118.603515625" xlink:href="#BitstreamVeraSans-Roman-75"/>
       <use x="181.982421875" xlink:href="#BitstreamVeraSans-Roman-64"/>
       <use x="245.458984375" xlink:href="#BitstreamVeraSans-Roman-67"/>
       <use x="308.935546875" xlink:href="#BitstreamVeraSans-Roman-65"/>
       <use x="370.458984375" xlink:href="#BitstreamVeraSans-Roman-72"/>
      </g>
     </g>
    </g>
    <g id="xtick_3">
     <g id="line2d_5">
      <g>
       <use style="stroke:#000000;stroke-width:0.5;" x="509.76" xlink:href="#m93b0483c22" y="388.8"/>
      </g>
     </g>
     <g id="line2d_6">
      <g>
       <use style="stroke:#000000;stroke-width:0.5;" x="509.76" xlink:href="#m741efc42ff" y="43.2"/>
      </g>
     </g>
     <g id="text_3">
      <!-- Tit For Tat -->
      <defs>
       <path d="
M9.42188 54.6875
L18.4062 54.6875
L18.4062 0
L9.42188 0
z

M9.42188 75.9844
L18.4062 75.9844
L18.4062 64.5938
L9.42188 64.5938
z
" id="BitstreamVeraSans-Roman-69"/>
       <path d="
M34.2812 27.4844
Q23.3906 27.4844 19.1875 25
Q14.9844 22.5156 14.9844 16.5
Q14.9844 11.7188 18.1406 8.90625
Q21.2969 6.10938 26.7031 6.10938
Q34.1875 6.10938 38.7031 11.4062
Q43.2188 16.7031 43.2188 25.4844
L43.2188 27.4844
z

M52.2031 31.2031
L52.2031 0
L43.2188 0
L43.2188 8.29688
Q40.1406 3.32812 35.5469 0.953125
Q30.9531 -1.42188 24.3125 -1.42188
Q15.9219 -1.42188 10.9531 3.29688
Q6 8.01562 6 15.9219
Q6 25.1406 12.1719 29.8281
Q18.3594 34.5156 30.6094 34.5156
L43.2188 34.5156
L43.2188 35.4062
Q43.2188 41.6094 39.1406 45
Q35.0625 48.3906 27.6875 48.3906
Q23 48.3906 18.5469 47.2656
Q14.1094 46.1406 10.0156 43.8906
L10.0156 52.2031
Q14.9375 54.1094 19.5781 55.0469
Q24.2188 56 28.6094 56
Q40.4844 56 46.3438 49.8438
Q52.2031 43.7031 52.2031 31.2031" id="BitstreamVeraSans-Roman-61"/>
       <path d="
M-0.296875 72.9062
L61.375 72.9062
L61.375 64.5938
L35.5 64.5938
L35.5 0
L25.5938 0
L25.5938 64.5938
L-0.296875 64.5938
z
" id="BitstreamVeraSans-Roman-54"/>
       <path d="
M9.8125 72.9062
L51.7031 72.9062
L51.7031 64.5938
L19.6719 64.5938
L19.6719 43.1094
L48.5781 43.1094
L48.5781 34.8125
L19.6719 34.8125
L19.6719 0
L9.8125 0
z
" id="BitstreamVeraSans-Roman-46"/>
       <path id="BitstreamVeraSans-Roman-20"/>
      </defs>
      <g transform="translate(511.9675 431.8125)rotate(-90.0)scale(0.08 -0.08)">
       <use xlink:href="#BitstreamVeraSans-Roman-54"/>
       <use x="57.958984375" xlink:href="#BitstreamVeraSans-Roman-69"/>
       <use x="85.7421875" xlink:href="#BitstreamVeraSans-Roman-74"/>
       <use x="124.951171875" xlink:href="#BitstreamVeraSans-Roman-20"/>
       <use x="156.73828125" xlink:href="#BitstreamVeraSans-Roman-46"/>
       <use x="210.6328125" xlink:href="#BitstreamVeraSans-Roman-6f"/>
       <use x="271.814453125" xlink:href="#BitstreamVeraSans-Roman-72"/>
       <use x="312.927734375" xlink:href="#BitstreamVeraSans-Roman-20"/>
       <use x="344.71484375" xlink:href="#BitstreamVeraSans-Roman-54"/>
       <use x="389.298828125" xlink:href="#BitstreamVeraSans-Roman-61"/>
       <use x="450.578125" xlink:href="#BitstreamVeraSans-Roman-74"/>
      </g>
     </g>
    </g>
    <g id="xtick_4">
     <g id="line2d_7">
      <g>
       <use style="stroke:#000000;stroke-width:0.5;" x="643.68" xlink:href="#m93b0483c22" y="388.8"/>
      </g>
     </g>
     <g id="line2d_8">
      <g>
       <use style="stroke:#000000;stroke-width:0.5;" x="643.68" xlink:href="#m741efc42ff" y="43.2"/>
      </g>
     </g>
     <g id="text_4">
      <!-- Cooperator -->
      <defs>
       <path d="
M64.4062 67.2812
L64.4062 56.8906
Q59.4219 61.5312 53.7812 63.8125
Q48.1406 66.1094 41.7969 66.1094
Q29.2969 66.1094 22.6562 58.4688
Q16.0156 50.8281 16.0156 36.375
Q16.0156 21.9688 22.6562 14.3281
Q29.2969 6.6875 41.7969 6.6875
Q48.1406 6.6875 53.7812 8.98438
Q59.4219 11.2812 64.4062 15.9219
L64.4062 5.60938
Q59.2344 2.09375 53.4375 0.328125
Q47.6562 -1.42188 41.2188 -1.42188
Q24.6562 -1.42188 15.125 8.70312
Q5.60938 18.8438 5.60938 36.375
Q5.60938 53.9531 15.125 64.0781
Q24.6562 74.2188 41.2188 74.2188
Q47.75 74.2188 53.5312 72.4844
Q59.3281 70.75 64.4062 67.2812" id="BitstreamVeraSans-Roman-43"/>
       <path d="
M18.1094 8.20312
L18.1094 -20.7969
L9.07812 -20.7969
L9.07812 54.6875
L18.1094 54.6875
L18.1094 46.3906
Q20.9531 51.2656 25.2656 53.625
Q29.5938 56 35.5938 56
Q45.5625 56 51.7812 48.0938
Q58.0156 40.1875 58.0156 27.2969
Q58.0156 14.4062 51.7812 6.48438
Q45.5625 -1.42188 35.5938 -1.42188
Q29.5938 -1.42188 25.2656 0.953125
Q20.9531 3.32812 18.1094 8.20312
M48.6875 27.2969
Q48.6875 37.2031 44.6094 42.8438
Q40.5312 48.4844 33.4062 48.4844
Q26.2656 48.4844 22.1875 42.8438
Q18.1094 37.2031 18.1094 27.2969
Q18.1094 17.3906 22.1875 11.75
Q26.2656 6.10938 33.4062 6.10938
Q40.5312 6.10938 44.6094 11.75
Q48.6875 17.3906 48.6875 27.2969" id="BitstreamVeraSans-Roman-70"/>
      </defs>
      <g transform="translate(645.8875 437.24)rotate(-90.0)scale(0.08 -0.08)">
       <use xlink:href="#BitstreamVeraSans-Roman-43"/>
       <use x="69.82421875" xlink:href="#BitstreamVeraSans-Roman-6f"/>
       <use x="131.005859375" xlink:href="#BitstreamVeraSans-Roman-6f"/>
       <use x="192.1875" xlink:href="#BitstreamVeraSans-Roman-70"/>
       <use x="255.6640625" xlink:href="#BitstreamVeraSans-Roman-65"/>
       <use x="317.1875" xlink:href="#BitstreamVeraSans-Roman-72"/>
       <use x="358.30078125" xlink:href="#BitstreamVeraSans-Roman-61"/>
       <use x="419.580078125" xlink:href="#BitstreamVeraSans-Roman-74"/>
       <use x="458.7890625" xlink:href="#BitstreamVeraSans-Roman-6f"/>
       <use x="519.970703125" xlink:href="#BitstreamVeraSans-Roman-72"/>
      </g>
     </g>
    </g>
   </g>
   <g id="matplotlib.axis_2">
    <g id="ytick_1">
     <g id="line2d_9">
      <defs>
       <path d="
M0 0
L4 0" id="m728421d6d4" style="stroke:#000000;stroke-width:0.5;"/>
      </defs>
      <g>
       <use style="stroke:#000000;stroke-width:0.5;" x="108.0" xlink:href="#m728421d6d4" y="388.8"/>
      </g>
     </g>
     <g id="line2d_10">
      <defs>
       <path d="
M0 0
L-4 0" id="mcb0005524f" style="stroke:#000000;stroke-width:0.5;"/>
      </defs>
      <g>
       <use style="stroke:#000000;stroke-width:0.5;" x="777.6" xlink:href="#mcb0005524f" y="388.8"/>
      </g>
     </g>
     <g id="text_5">
      <!-- 1.0 -->
      <defs>
       <path d="
M31.7812 66.4062
Q24.1719 66.4062 20.3281 58.9062
Q16.5 51.4219 16.5 36.375
Q16.5 21.3906 20.3281 13.8906
Q24.1719 6.39062 31.7812 6.39062
Q39.4531 6.39062 43.2812 13.8906
Q47.125 21.3906 47.125 36.375
Q47.125 51.4219 43.2812 58.9062
Q39.4531 66.4062 31.7812 66.4062
M31.7812 74.2188
Q44.0469 74.2188 50.5156 64.5156
Q56.9844 54.8281 56.9844 36.375
Q56.9844 17.9688 50.5156 8.26562
Q44.0469 -1.42188 31.7812 -1.42188
Q19.5312 -1.42188 13.0625 8.26562
Q6.59375 17.9688 6.59375 36.375
Q6.59375 54.8281 13.0625 64.5156
Q19.5312 74.2188 31.7812 74.2188" id="BitstreamVeraSans-Roman-30"/>
       <path d="
M12.4062 8.29688
L28.5156 8.29688
L28.5156 63.9219
L10.9844 60.4062
L10.9844 69.3906
L28.4219 72.9062
L38.2812 72.9062
L38.2812 8.29688
L54.3906 8.29688
L54.3906 0
L12.4062 0
z
" id="BitstreamVeraSans-Roman-31"/>
       <path d="
M10.6875 12.4062
L21 12.4062
L21 0
L10.6875 0
z
" id="BitstreamVeraSans-Roman-2e"/>
      </defs>
      <g transform="translate(92.6875 391.0075)scale(0.08 -0.08)">
       <use xlink:href="#BitstreamVeraSans-Roman-31"/>
       <use x="63.623046875" xlink:href="#BitstreamVeraSans-Roman-2e"/>
       <use x="95.41015625" xlink:href="#BitstreamVeraSans-Roman-30"/>
      </g>
     </g>
    </g>
    <g id="ytick_2">
     <g id="line2d_11">
      <g>
       <use style="stroke:#000000;stroke-width:0.5;" x="108.0" xlink:href="#m728421d6d4" y="345.6"/>
      </g>
     </g>
     <g id="line2d_12">
      <g>
       <use style="stroke:#000000;stroke-width:0.5;" x="777.6" xlink:href="#mcb0005524f" y="345.6"/>
      </g>
     </g>
     <g id="text_6">
      <!-- 1.2 -->
      <defs>
       <path d="
M19.1875 8.29688
L53.6094 8.29688
L53.6094 0
L7.32812 0
L7.32812 8.29688
Q12.9375 14.1094 22.625 23.8906
Q32.3281 33.6875 34.8125 36.5312
Q39.5469 41.8438 41.4219 45.5312
Q43.3125 49.2188 43.3125 52.7812
Q43.3125 58.5938 39.2344 62.25
Q35.1562 65.9219 28.6094 65.9219
Q23.9688 65.9219 18.8125 64.3125
Q13.6719 62.7031 7.8125 59.4219
L7.8125 69.3906
Q13.7656 71.7812 18.9375 73
Q24.125 74.2188 28.4219 74.2188
Q39.75 74.2188 46.4844 68.5469
Q53.2188 62.8906 53.2188 53.4219
Q53.2188 48.9219 51.5312 44.8906
Q49.8594 40.875 45.4062 35.4062
Q44.1875 33.9844 37.6406 27.2188
Q31.1094 20.4531 19.1875 8.29688" id="BitstreamVeraSans-Roman-32"/>
      </defs>
      <g transform="translate(92.9575 347.8075)scale(0.08 -0.08)">
       <use xlink:href="#BitstreamVeraSans-Roman-31"/>
       <use x="63.623046875" xlink:href="#BitstreamVeraSans-Roman-2e"/>
       <use x="95.41015625" xlink:href="#BitstreamVeraSans-Roman-32"/>
      </g>
     </g>
    </g>
    <g id="ytick_3">
     <g id="line2d_13">
      <g>
       <use style="stroke:#000000;stroke-width:0.5;" x="108.0" xlink:href="#m728421d6d4" y="302.4"/>
      </g>
     </g>
     <g id="line2d_14">
      <g>
       <use style="stroke:#000000;stroke-width:0.5;" x="777.6" xlink:href="#mcb0005524f" y="302.4"/>
      </g>
     </g>
     <g id="text_7">
      <!-- 1.4 -->
      <defs>
       <path d="
M37.7969 64.3125
L12.8906 25.3906
L37.7969 25.3906
z

M35.2031 72.9062
L47.6094 72.9062
L47.6094 25.3906
L58.0156 25.3906
L58.0156 17.1875
L47.6094 17.1875
L47.6094 0
L37.7969 0
L37.7969 17.1875
L4.89062 17.1875
L4.89062 26.7031
z
" id="BitstreamVeraSans-Roman-34"/>
      </defs>
      <g transform="translate(92.605 304.6075)scale(0.08 -0.08)">
       <use xlink:href="#BitstreamVeraSans-Roman-31"/>
       <use x="63.623046875" xlink:href="#BitstreamVeraSans-Roman-2e"/>
       <use x="95.41015625" xlink:href="#BitstreamVeraSans-Roman-34"/>
      </g>
     </g>
    </g>
    <g id="ytick_4">
     <g id="line2d_15">
      <g>
       <use style="stroke:#000000;stroke-width:0.5;" x="108.0" xlink:href="#m728421d6d4" y="259.2"/>
      </g>
     </g>
     <g id="line2d_16">
      <g>
       <use style="stroke:#000000;stroke-width:0.5;" x="777.6" xlink:href="#mcb0005524f" y="259.2"/>
      </g>
     </g>
     <g id="text_8">
      <!-- 1.6 -->
      <defs>
       <path d="
M33.0156 40.375
Q26.375 40.375 22.4844 35.8281
Q18.6094 31.2969 18.6094 23.3906
Q18.6094 15.5312 22.4844 10.9531
Q26.375 6.39062 33.0156 6.39062
Q39.6562 6.39062 43.5312 10.9531
Q47.4062 15.5312 47.4062 23.3906
Q47.4062 31.2969 43.5312 35.8281
Q39.6562 40.375 33.0156 40.375
M52.5938 71.2969
L52.5938 62.3125
Q48.875 64.0625 45.0938 64.9844
Q41.3125 65.9219 37.5938 65.9219
Q27.8281 65.9219 22.6719 59.3281
Q17.5312 52.7344 16.7969 39.4062
Q19.6719 43.6562 24.0156 45.9219
Q28.375 48.1875 33.5938 48.1875
Q44.5781 48.1875 50.9531 41.5156
Q57.3281 34.8594 57.3281 23.3906
Q57.3281 12.1562 50.6875 5.35938
Q44.0469 -1.42188 33.0156 -1.42188
Q20.3594 -1.42188 13.6719 8.26562
Q6.98438 17.9688 6.98438 36.375
Q6.98438 53.6562 15.1875 63.9375
Q23.3906 74.2188 37.2031 74.2188
Q40.9219 74.2188 44.7031 73.4844
Q48.4844 72.75 52.5938 71.2969" id="BitstreamVeraSans-Roman-36"/>
      </defs>
      <g transform="translate(92.66 261.4075)scale(0.08 -0.08)">
       <use xlink:href="#BitstreamVeraSans-Roman-31"/>
       <use x="63.623046875" xlink:href="#BitstreamVeraSans-Roman-2e"/>
       <use x="95.41015625" xlink:href="#BitstreamVeraSans-Roman-36"/>
      </g>
     </g>
    </g>
    <g id="ytick_5">
     <g id="line2d_17">
      <g>
       <use style="stroke:#000000;stroke-width:0.5;" x="108.0" xlink:href="#m728421d6d4" y="216.0"/>
      </g>
     </g>
     <g id="line2d_18">
      <g>
       <use style="stroke:#000000;stroke-width:0.5;" x="777.6" xlink:href="#mcb0005524f" y="216.0"/>
      </g>
     </g>
     <g id="text_9">
      <!-- 1.8 -->
      <defs>
       <path d="
M31.7812 34.625
Q24.75 34.625 20.7188 30.8594
Q16.7031 27.0938 16.7031 20.5156
Q16.7031 13.9219 20.7188 10.1562
Q24.75 6.39062 31.7812 6.39062
Q38.8125 6.39062 42.8594 10.1719
Q46.9219 13.9688 46.9219 20.5156
Q46.9219 27.0938 42.8906 30.8594
Q38.875 34.625 31.7812 34.625
M21.9219 38.8125
Q15.5781 40.375 12.0312 44.7188
Q8.5 49.0781 8.5 55.3281
Q8.5 64.0625 14.7188 69.1406
Q20.9531 74.2188 31.7812 74.2188
Q42.6719 74.2188 48.875 69.1406
Q55.0781 64.0625 55.0781 55.3281
Q55.0781 49.0781 51.5312 44.7188
Q48 40.375 41.7031 38.8125
Q48.8281 37.1562 52.7969 32.3125
Q56.7812 27.4844 56.7812 20.5156
Q56.7812 9.90625 50.3125 4.23438
Q43.8438 -1.42188 31.7812 -1.42188
Q19.7344 -1.42188 13.25 4.23438
Q6.78125 9.90625 6.78125 20.5156
Q6.78125 27.4844 10.7812 32.3125
Q14.7969 37.1562 21.9219 38.8125
M18.3125 54.3906
Q18.3125 48.7344 21.8438 45.5625
Q25.3906 42.3906 31.7812 42.3906
Q38.1406 42.3906 41.7188 45.5625
Q45.3125 48.7344 45.3125 54.3906
Q45.3125 60.0625 41.7188 63.2344
Q38.1406 66.4062 31.7812 66.4062
Q25.3906 66.4062 21.8438 63.2344
Q18.3125 60.0625 18.3125 54.3906" id="BitstreamVeraSans-Roman-38"/>
      </defs>
      <g transform="translate(92.70375 218.2075)scale(0.08 -0.08)">
       <use xlink:href="#BitstreamVeraSans-Roman-31"/>
       <use x="63.623046875" xlink:href="#BitstreamVeraSans-Roman-2e"/>
       <use x="95.41015625" xlink:href="#BitstreamVeraSans-Roman-38"/>
      </g>
     </g>
    </g>
    <g id="ytick_6">
     <g id="line2d_19">
      <g>
       <use style="stroke:#000000;stroke-width:0.5;" x="108.0" xlink:href="#m728421d6d4" y="172.8"/>
      </g>
     </g>
     <g id="line2d_20">
      <g>
       <use style="stroke:#000000;stroke-width:0.5;" x="777.6" xlink:href="#mcb0005524f" y="172.8"/>
      </g>
     </g>
     <g id="text_10">
      <!-- 2.0 -->
      <g transform="translate(92.395 175.0075)scale(0.08 -0.08)">
       <use xlink:href="#BitstreamVeraSans-Roman-32"/>
       <use x="63.623046875" xlink:href="#BitstreamVeraSans-Roman-2e"/>
       <use x="95.41015625" xlink:href="#BitstreamVeraSans-Roman-30"/>
      </g>
     </g>
    </g>
    <g id="ytick_7">
     <g id="line2d_21">
      <g>
       <use style="stroke:#000000;stroke-width:0.5;" x="108.0" xlink:href="#m728421d6d4" y="129.6"/>
      </g>
     </g>
     <g id="line2d_22">
      <g>
       <use style="stroke:#000000;stroke-width:0.5;" x="777.6" xlink:href="#mcb0005524f" y="129.6"/>
      </g>
     </g>
     <g id="text_11">
      <!-- 2.2 -->
      <g transform="translate(92.665 131.8075)scale(0.08 -0.08)">
       <use xlink:href="#BitstreamVeraSans-Roman-32"/>
       <use x="63.623046875" xlink:href="#BitstreamVeraSans-Roman-2e"/>
       <use x="95.41015625" xlink:href="#BitstreamVeraSans-Roman-32"/>
      </g>
     </g>
    </g>
    <g id="ytick_8">
     <g id="line2d_23">
      <g>
       <use style="stroke:#000000;stroke-width:0.5;" x="108.0" xlink:href="#m728421d6d4" y="86.4"/>
      </g>
     </g>
     <g id="line2d_24">
      <g>
       <use style="stroke:#000000;stroke-width:0.5;" x="777.6" xlink:href="#mcb0005524f" y="86.4"/>
      </g>
     </g>
     <g id="text_12">
      <!-- 2.4 -->
      <g transform="translate(92.3125 88.6075)scale(0.08 -0.08)">
       <use xlink:href="#BitstreamVeraSans-Roman-32"/>
       <use x="63.623046875" xlink:href="#BitstreamVeraSans-Roman-2e"/>
       <use x="95.41015625" xlink:href="#BitstreamVeraSans-Roman-34"/>
      </g>
     </g>
    </g>
    <g id="ytick_9">
     <g id="line2d_25">
      <g>
       <use style="stroke:#000000;stroke-width:0.5;" x="108.0" xlink:href="#m728421d6d4" y="43.2"/>
      </g>
     </g>
     <g id="line2d_26">
      <g>
       <use style="stroke:#000000;stroke-width:0.5;" x="777.6" xlink:href="#mcb0005524f" y="43.2"/>
      </g>
     </g>
     <g id="text_13">
      <!-- 2.6 -->
      <g transform="translate(92.3675 45.4075)scale(0.08 -0.08)">
       <use xlink:href="#BitstreamVeraSans-Roman-32"/>
       <use x="63.623046875" xlink:href="#BitstreamVeraSans-Roman-2e"/>
       <use x="95.41015625" xlink:href="#BitstreamVeraSans-Roman-36"/>
      </g>
     </g>
    </g>
   </g>
   <g id="text_14">
    <!-- Mean score per stage game over 200 turns repeated 10 times (4 strategies) -->
    <defs>
     <path d="
M9.8125 72.9062
L24.5156 72.9062
L43.1094 23.2969
L61.8125 72.9062
L76.5156 72.9062
L76.5156 0
L66.8906 0
L66.8906 64.0156
L48.0938 14.0156
L38.1875 14.0156
L19.3906 64.0156
L19.3906 0
L9.8125 0
z
" id="BitstreamVeraSans-Roman-4d"/>
     <path d="
M54.8906 33.0156
L54.8906 0
L45.9062 0
L45.9062 32.7188
Q45.9062 40.4844 42.875 44.3281
Q39.8438 48.1875 33.7969 48.1875
Q26.5156 48.1875 22.3125 43.5469
Q18.1094 38.9219 18.1094 30.9062
L18.1094 0
L9.07812 0
L9.07812 54.6875
L18.1094 54.6875
L18.1094 46.1875
Q21.3438 51.125 25.7031 53.5625
Q30.0781 56 35.7969 56
Q45.2188 56 50.0469 50.1719
Q54.8906 44.3438 54.8906 33.0156" id="BitstreamVeraSans-Roman-6e"/>
     <path d="
M52 44.1875
Q55.375 50.25 60.0625 53.125
Q64.75 56 71.0938 56
Q79.6406 56 84.2812 50.0156
Q88.9219 44.0469 88.9219 33.0156
L88.9219 0
L79.8906 0
L79.8906 32.7188
Q79.8906 40.5781 77.0938 44.375
Q74.3125 48.1875 68.6094 48.1875
Q61.625 48.1875 57.5625 43.5469
Q53.5156 38.9219 53.5156 30.9062
L53.5156 0
L44.4844 0
L44.4844 32.7188
Q44.4844 40.625 41.7031 44.4062
Q38.9219 48.1875 33.1094 48.1875
Q26.2188 48.1875 22.1562 43.5312
Q18.1094 38.875 18.1094 30.9062
L18.1094 0
L9.07812 0
L9.07812 54.6875
L18.1094 54.6875
L18.1094 46.1875
Q21.1875 51.2188 25.4844 53.6094
Q29.7812 56 35.6875 56
Q41.6562 56 45.8281 52.9688
Q50 49.9531 52 44.1875" id="BitstreamVeraSans-Roman-6d"/>
     <path d="
M8.01562 75.875
L15.8281 75.875
Q23.1406 64.3594 26.7812 53.3125
Q30.4219 42.2812 30.4219 31.3906
Q30.4219 20.4531 26.7812 9.375
Q23.1406 -1.70312 15.8281 -13.1875
L8.01562 -13.1875
Q14.5 -2 17.7031 9.0625
Q20.9062 20.125 20.9062 31.3906
Q20.9062 42.6719 17.7031 53.6562
Q14.5 64.6562 8.01562 75.875" id="BitstreamVeraSans-Roman-29"/>
     <path d="
M31 75.875
Q24.4688 64.6562 21.2812 53.6562
Q18.1094 42.6719 18.1094 31.3906
Q18.1094 20.125 21.3125 9.0625
Q24.5156 -2 31 -13.1875
L23.1875 -13.1875
Q15.875 -1.70312 12.2344 9.375
Q8.59375 20.4531 8.59375 31.3906
Q8.59375 42.2812 12.2031 53.3125
Q15.8281 64.3594 23.1875 75.875
z
" id="BitstreamVeraSans-Roman-28"/>
     <path d="
M2.98438 54.6875
L12.5 54.6875
L29.5938 8.79688
L46.6875 54.6875
L56.2031 54.6875
L35.6875 0
L23.4844 0
z
" id="BitstreamVeraSans-Roman-76"/>
     <path d="
M44.2812 53.0781
L44.2812 44.5781
Q40.4844 46.5312 36.375 47.5
Q32.2812 48.4844 27.875 48.4844
Q21.1875 48.4844 17.8438 46.4375
Q14.5 44.3906 14.5 40.2812
Q14.5 37.1562 16.8906 35.375
Q19.2812 33.5938 26.5156 31.9844
L29.5938 31.2969
Q39.1562 29.25 43.1875 25.5156
Q47.2188 21.7812 47.2188 15.0938
Q47.2188 7.46875 41.1875 3.01562
Q35.1562 -1.42188 24.6094 -1.42188
Q20.2188 -1.42188 15.4531 -0.5625
Q10.6875 0.296875 5.42188 2
L5.42188 11.2812
Q10.4062 8.6875 15.2344 7.39062
Q20.0625 6.10938 24.8125 6.10938
Q31.1562 6.10938 34.5625 8.28125
Q37.9844 10.4531 37.9844 14.4062
Q37.9844 18.0625 35.5156 20.0156
Q33.0625 21.9688 24.7031 23.7812
L21.5781 24.5156
Q13.2344 26.2656 9.51562 29.9062
Q5.8125 33.5469 5.8125 39.8906
Q5.8125 47.6094 11.2812 51.7969
Q16.75 56 26.8125 56
Q31.7812 56 36.1719 55.2656
Q40.5781 54.5469 44.2812 53.0781" id="BitstreamVeraSans-Roman-73"/>
    </defs>
    <g transform="translate(168.496875 38.2)scale(0.144 -0.144)">
     <use xlink:href="#BitstreamVeraSans-Roman-4d"/>
     <use x="86.279296875" xlink:href="#BitstreamVeraSans-Roman-65"/>
     <use x="147.802734375" xlink:href="#BitstreamVeraSans-Roman-61"/>
     <use x="209.08203125" xlink:href="#BitstreamVeraSans-Roman-6e"/>
     <use x="272.4609375" xlink:href="#BitstreamVeraSans-Roman-20"/>
     <use x="304.248046875" xlink:href="#BitstreamVeraSans-Roman-73"/>
     <use x="356.34765625" xlink:href="#BitstreamVeraSans-Roman-63"/>
     <use x="411.328125" xlink:href="#BitstreamVeraSans-Roman-6f"/>
     <use x="472.509765625" xlink:href="#BitstreamVeraSans-Roman-72"/>
     <use x="511.373046875" xlink:href="#BitstreamVeraSans-Roman-65"/>
     <use x="572.896484375" xlink:href="#BitstreamVeraSans-Roman-20"/>
     <use x="604.68359375" xlink:href="#BitstreamVeraSans-Roman-70"/>
     <use x="668.16015625" xlink:href="#BitstreamVeraSans-Roman-65"/>
     <use x="729.68359375" xlink:href="#BitstreamVeraSans-Roman-72"/>
     <use x="770.796875" xlink:href="#BitstreamVeraSans-Roman-20"/>
     <use x="802.583984375" xlink:href="#BitstreamVeraSans-Roman-73"/>
     <use x="854.68359375" xlink:href="#BitstreamVeraSans-Roman-74"/>
     <use x="893.892578125" xlink:href="#BitstreamVeraSans-Roman-61"/>
     <use x="955.171875" xlink:href="#BitstreamVeraSans-Roman-67"/>
     <use x="1018.6484375" xlink:href="#BitstreamVeraSans-Roman-65"/>
     <use x="1080.171875" xlink:href="#BitstreamVeraSans-Roman-20"/>
     <use x="1111.95898438" xlink:href="#BitstreamVeraSans-Roman-67"/>
     <use x="1175.43554688" xlink:href="#BitstreamVeraSans-Roman-61"/>
     <use x="1236.71484375" xlink:href="#BitstreamVeraSans-Roman-6d"/>
     <use x="1334.12695312" xlink:href="#BitstreamVeraSans-Roman-65"/>
     <use x="1395.65039062" xlink:href="#BitstreamVeraSans-Roman-20"/>
     <use x="1427.4375" xlink:href="#BitstreamVeraSans-Roman-6f"/>
     <use x="1488.61914062" xlink:href="#BitstreamVeraSans-Roman-76"/>
     <use x="1547.79882812" xlink:href="#BitstreamVeraSans-Roman-65"/>
     <use x="1609.32226562" xlink:href="#BitstreamVeraSans-Roman-72"/>
     <use x="1650.43554688" xlink:href="#BitstreamVeraSans-Roman-20"/>
     <use x="1682.22265625" xlink:href="#BitstreamVeraSans-Roman-32"/>
     <use x="1745.84570312" xlink:href="#BitstreamVeraSans-Roman-30"/>
     <use x="1809.46875" xlink:href="#BitstreamVeraSans-Roman-30"/>
     <use x="1873.09179688" xlink:href="#BitstreamVeraSans-Roman-20"/>
     <use x="1904.87890625" xlink:href="#BitstreamVeraSans-Roman-74"/>
     <use x="1944.08789062" xlink:href="#BitstreamVeraSans-Roman-75"/>
     <use x="2007.46679688" xlink:href="#BitstreamVeraSans-Roman-72"/>
     <use x="2046.83007812" xlink:href="#BitstreamVeraSans-Roman-6e"/>
     <use x="2110.20898438" xlink:href="#BitstreamVeraSans-Roman-73"/>
     <use x="2162.30859375" xlink:href="#BitstreamVeraSans-Roman-20"/>
     <use x="2194.09570312" xlink:href="#BitstreamVeraSans-Roman-72"/>
     <use x="2232.95898438" xlink:href="#BitstreamVeraSans-Roman-65"/>
     <use x="2294.48242188" xlink:href="#BitstreamVeraSans-Roman-70"/>
     <use x="2357.95898438" xlink:href="#BitstreamVeraSans-Roman-65"/>
     <use x="2419.48242188" xlink:href="#BitstreamVeraSans-Roman-61"/>
     <use x="2480.76171875" xlink:href="#BitstreamVeraSans-Roman-74"/>
     <use x="2519.97070312" xlink:href="#BitstreamVeraSans-Roman-65"/>
     <use x="2581.49414062" xlink:href="#BitstreamVeraSans-Roman-64"/>
     <use x="2644.97070312" xlink:href="#BitstreamVeraSans-Roman-20"/>
     <use x="2676.7578125" xlink:href="#BitstreamVeraSans-Roman-31"/>
     <use x="2740.38085938" xlink:href="#BitstreamVeraSans-Roman-30"/>
     <use x="2804.00390625" xlink:href="#BitstreamVeraSans-Roman-20"/>
     <use x="2835.79101562" xlink:href="#BitstreamVeraSans-Roman-74"/>
     <use x="2875.0" xlink:href="#BitstreamVeraSans-Roman-69"/>
     <use x="2902.78320312" xlink:href="#BitstreamVeraSans-Roman-6d"/>
     <use x="3000.1953125" xlink:href="#BitstreamVeraSans-Roman-65"/>
     <use x="3061.71875" xlink:href="#BitstreamVeraSans-Roman-73"/>
     <use x="3113.81835938" xlink:href="#BitstreamVeraSans-Roman-20"/>
     <use x="3145.60546875" xlink:href="#BitstreamVeraSans-Roman-28"/>
     <use x="3184.61914062" xlink:href="#BitstreamVeraSans-Roman-34"/>
     <use x="3248.2421875" xlink:href="#BitstreamVeraSans-Roman-20"/>
     <use x="3280.02929688" xlink:href="#BitstreamVeraSans-Roman-73"/>
     <use x="3332.12890625" xlink:href="#BitstreamVeraSans-Roman-74"/>
     <use x="3371.33789062" xlink:href="#BitstreamVeraSans-Roman-72"/>
     <use x="3412.45117188" xlink:href="#BitstreamVeraSans-Roman-61"/>
     <use x="3473.73046875" xlink:href="#BitstreamVeraSans-Roman-74"/>
     <use x="3512.93945312" xlink:href="#BitstreamVeraSans-Roman-65"/>
     <use x="3574.46289062" xlink:href="#BitstreamVeraSans-Roman-67"/>
     <use x="3637.93945312" xlink:href="#BitstreamVeraSans-Roman-69"/>
     <use x="3665.72265625" xlink:href="#BitstreamVeraSans-Roman-65"/>
     <use x="3727.24609375" xlink:href="#BitstreamVeraSans-Roman-73"/>
     <use x="3779.34570312" xlink:href="#BitstreamVeraSans-Roman-29"/>
    </g>
   </g>
  </g>
 </g>
 <defs>
  <clipPath id="pad36b945f0">
   <rect height="345.6" width="669.6" x="108.0" y="43.2"/>
  </clipPath>
 </defs>
</svg>
