<?xml version="1.0" encoding="utf-8" standalone="no"?>
<!DOCTYPE svg PUBLIC "-//W3C//DTD SVG 1.1//EN"
  "http://www.w3.org/Graphics/SVG/1.1/DTD/svg11.dtd">
<!-- Created with matplotlib (http://matplotlib.org/) -->
<svg height="432pt" version="1.1" viewBox="0 0 864 432" width="864pt" xmlns="http://www.w3.org/2000/svg" xmlns:xlink="http://www.w3.org/1999/xlink">
 <defs>
  <style type="text/css">
*{stroke-linecap:butt;stroke-linejoin:round;}
  </style>
 </defs>
 <g id="figure_1">
  <g id="patch_1">
   <path d="
M0 432
L864 432
L864 0
L0 0
z
" style="fill:#ffffff;"/>
  </g>
  <g id="axes_1">
   <g id="patch_2">
    <path d="
M108 388.8
L777.6 388.8
L777.6 43.2
L108 43.2
z
" style="fill:#ffffff;"/>
   </g>
   <g id="PolyCollection_1">
    <defs>
     <path d="
M238.322 -338.88
L200.878 -338.88
L200.235 -339.258
L199.606 -339.636
L198.992 -340.015
L198.396 -340.393
L197.819 -340.771
L197.264 -341.149
L196.732 -341.527
L196.224 -341.905
L195.741 -342.284
L195.285 -342.662
L194.857 -343.04
L194.457 -343.418
L194.086 -343.796
L193.744 -344.175
L193.431 -344.553
L193.146 -344.931
L192.89 -345.309
L192.662 -345.687
L192.461 -346.065
L192.286 -346.444
L192.137 -346.822
L192.012 -347.2
L191.91 -347.578
L191.83 -347.956
L191.77 -348.335
L191.729 -348.713
L191.706 -349.091
L191.7 -349.469
L191.709 -349.847
L191.731 -350.225
L191.767 -350.604
L191.814 -350.982
L191.873 -351.36
L191.942 -351.738
L192.02 -352.116
L192.108 -352.495
L192.205 -352.873
L192.311 -353.251
L192.426 -353.629
L192.55 -354.007
L192.685 -354.385
L192.829 -354.764
L192.984 -355.142
L193.15 -355.52
L193.329 -355.898
L193.521 -356.276
L193.727 -356.655
L193.948 -357.033
L194.185 -357.411
L194.437 -357.789
L194.707 -358.167
L194.995 -358.545
L195.3 -358.924
L195.624 -359.302
L195.967 -359.68
L196.328 -360.058
L196.707 -360.436
L197.105 -360.815
L197.519 -361.193
L197.95 -361.571
L198.396 -361.949
L198.856 -362.327
L199.329 -362.705
L199.813 -363.084
L200.307 -363.462
L200.808 -363.84
L201.315 -364.218
L201.826 -364.596
L202.339 -364.975
L202.851 -365.353
L203.362 -365.731
L203.868 -366.109
L204.367 -366.487
L204.859 -366.865
L205.342 -367.244
L205.813 -367.622
L206.271 -368
L206.716 -368.378
L207.146 -368.756
L207.56 -369.135
L207.958 -369.513
L208.339 -369.891
L208.703 -370.269
L209.051 -370.647
L209.381 -371.025
L209.696 -371.404
L209.994 -371.782
L210.278 -372.16
L210.547 -372.538
L210.804 -372.916
L211.048 -373.295
L211.281 -373.673
L211.504 -374.051
L211.718 -374.429
L211.925 -374.807
L212.126 -375.185
L212.321 -375.564
L212.513 -375.942
L212.701 -376.32
L226.499 -376.32
L226.499 -376.32
L226.687 -375.942
L226.879 -375.564
L227.074 -375.185
L227.275 -374.807
L227.482 -374.429
L227.696 -374.051
L227.919 -373.673
L228.152 -373.295
L228.396 -372.916
L228.653 -372.538
L228.922 -372.16
L229.206 -371.782
L229.504 -371.404
L229.819 -371.025
L230.149 -370.647
L230.497 -370.269
L230.861 -369.891
L231.242 -369.513
L231.64 -369.135
L232.054 -368.756
L232.484 -368.378
L232.929 -368
L233.387 -367.622
L233.858 -367.244
L234.341 -366.865
L234.833 -366.487
L235.332 -366.109
L235.838 -365.731
L236.349 -365.353
L236.861 -364.975
L237.374 -364.596
L237.885 -364.218
L238.392 -363.84
L238.893 -363.462
L239.387 -363.084
L239.871 -362.705
L240.344 -362.327
L240.804 -361.949
L241.25 -361.571
L241.681 -361.193
L242.095 -360.815
L242.493 -360.436
L242.872 -360.058
L243.233 -359.68
L243.576 -359.302
L243.9 -358.924
L244.205 -358.545
L244.493 -358.167
L244.763 -357.789
L245.015 -357.411
L245.252 -357.033
L245.473 -356.655
L245.679 -356.276
L245.871 -355.898
L246.05 -355.52
L246.216 -355.142
L246.371 -354.764
L246.515 -354.385
L246.65 -354.007
L246.774 -353.629
L246.889 -353.251
L246.995 -352.873
L247.092 -352.495
L247.18 -352.116
L247.258 -351.738
L247.327 -351.36
L247.386 -350.982
L247.433 -350.604
L247.469 -350.225
L247.491 -349.847
L247.5 -349.469
L247.494 -349.091
L247.471 -348.713
L247.43 -348.335
L247.37 -347.956
L247.29 -347.578
L247.188 -347.2
L247.063 -346.822
L246.914 -346.444
L246.739 -346.065
L246.538 -345.687
L246.31 -345.309
L246.054 -344.931
L245.769 -344.553
L245.456 -344.175
L245.114 -343.796
L244.743 -343.418
L244.343 -343.04
L243.915 -342.662
L243.459 -342.284
L242.976 -341.905
L242.468 -341.527
L241.936 -341.149
L241.381 -340.771
L240.804 -340.393
L240.208 -340.015
L239.594 -339.636
L238.965 -339.258
L238.322 -338.88
z
" id="m912c4549a7" style="stroke:#000000;stroke-opacity:0.3;"/>
    </defs>
    <g clip-path="url(#pad36b945f0)">
     <use style="fill:#bfbf00;fill-opacity:0.3;stroke:#000000;stroke-opacity:0.3;" x="0.0" xlink:href="#m912c4549a7" y="432.0"/>
    </g>
   </g>
   <g id="PolyCollection_2">
    <defs>
     <path d="
M346.178 -335.04
L316.222 -335.04
L315.721 -335.35
L315.219 -335.661
L314.716 -335.971
L314.214 -336.281
L313.713 -336.592
L313.214 -336.902
L312.718 -337.212
L312.227 -337.522
L311.741 -337.833
L311.261 -338.143
L310.788 -338.453
L310.323 -338.764
L309.868 -339.074
L309.424 -339.384
L308.991 -339.695
L308.571 -340.005
L308.164 -340.315
L307.773 -340.625
L307.397 -340.936
L307.038 -341.246
L306.696 -341.556
L306.374 -341.867
L306.07 -342.177
L305.787 -342.487
L305.524 -342.798
L305.282 -343.108
L305.062 -343.418
L304.864 -343.728
L304.688 -344.039
L304.535 -344.349
L304.403 -344.659
L304.293 -344.97
L304.205 -345.28
L304.139 -345.59
L304.092 -345.901
L304.066 -346.211
L304.058 -346.521
L304.068 -346.832
L304.095 -347.142
L304.137 -347.452
L304.193 -347.762
L304.262 -348.073
L304.341 -348.383
L304.43 -348.693
L304.527 -349.004
L304.629 -349.314
L304.736 -349.624
L304.845 -349.935
L304.954 -350.245
L305.062 -350.555
L305.166 -350.865
L305.267 -351.176
L305.36 -351.486
L305.446 -351.796
L305.523 -352.107
L305.589 -352.417
L305.643 -352.727
L305.685 -353.038
L305.713 -353.348
L305.727 -353.658
L305.726 -353.968
L305.711 -354.279
L305.68 -354.589
L305.635 -354.899
L305.574 -355.21
L305.5 -355.52
L305.413 -355.83
L305.313 -356.141
L305.202 -356.451
L305.081 -356.761
L304.951 -357.072
L304.814 -357.382
L304.672 -357.692
L304.527 -358.002
L304.38 -358.313
L304.234 -358.623
L304.091 -358.933
L303.953 -359.244
L303.823 -359.554
L303.702 -359.864
L303.592 -360.175
L303.497 -360.485
L303.418 -360.795
L303.358 -361.105
L303.318 -361.416
L303.3 -361.726
L303.306 -362.036
L303.338 -362.347
L303.398 -362.657
L303.485 -362.967
L303.603 -363.278
L303.751 -363.588
L303.93 -363.898
L304.141 -364.208
L304.384 -364.519
L304.66 -364.829
L304.967 -365.139
L305.307 -365.45
L305.678 -365.76
L356.722 -365.76
L356.722 -365.76
L357.093 -365.45
L357.433 -365.139
L357.74 -364.829
L358.016 -364.519
L358.259 -364.208
L358.47 -363.898
L358.649 -363.588
L358.797 -363.278
L358.915 -362.967
L359.002 -362.657
L359.062 -362.347
L359.094 -362.036
L359.1 -361.726
L359.082 -361.416
L359.042 -361.105
L358.982 -360.795
L358.903 -360.485
L358.808 -360.175
L358.698 -359.864
L358.577 -359.554
L358.447 -359.244
L358.309 -358.933
L358.166 -358.623
L358.02 -358.313
L357.873 -358.002
L357.728 -357.692
L357.586 -357.382
L357.449 -357.072
L357.319 -356.761
L357.198 -356.451
L357.087 -356.141
L356.987 -355.83
L356.9 -355.52
L356.826 -355.21
L356.765 -354.899
L356.72 -354.589
L356.689 -354.279
L356.674 -353.968
L356.673 -353.658
L356.687 -353.348
L356.715 -353.038
L356.757 -352.727
L356.811 -352.417
L356.877 -352.107
L356.954 -351.796
L357.04 -351.486
L357.133 -351.176
L357.234 -350.865
L357.338 -350.555
L357.446 -350.245
L357.555 -349.935
L357.664 -349.624
L357.771 -349.314
L357.873 -349.004
L357.97 -348.693
L358.059 -348.383
L358.138 -348.073
L358.207 -347.762
L358.263 -347.452
L358.305 -347.142
L358.332 -346.832
L358.342 -346.521
L358.334 -346.211
L358.308 -345.901
L358.261 -345.59
L358.195 -345.28
L358.107 -344.97
L357.997 -344.659
L357.865 -344.349
L357.712 -344.039
L357.536 -343.728
L357.338 -343.418
L357.118 -343.108
L356.876 -342.798
L356.613 -342.487
L356.33 -342.177
L356.026 -341.867
L355.704 -341.556
L355.362 -341.246
L355.003 -340.936
L354.627 -340.625
L354.236 -340.315
L353.829 -340.005
L353.409 -339.695
L352.976 -339.384
L352.532 -339.074
L352.077 -338.764
L351.612 -338.453
L351.139 -338.143
L350.659 -337.833
L350.173 -337.522
L349.682 -337.212
L349.186 -336.902
L348.687 -336.592
L348.186 -336.281
L347.684 -335.971
L347.181 -335.661
L346.679 -335.35
L346.178 -335.04
z
" id="mc3349da2fe" style="stroke:#000000;stroke-opacity:0.3;"/>
    </defs>
    <g clip-path="url(#pad36b945f0)">
     <use style="fill:#bfbf00;fill-opacity:0.3;stroke:#000000;stroke-opacity:0.3;" x="0.0" xlink:href="#mc3349da2fe" y="432.0"/>
    </g>
   </g>
   <g id="PolyCollection_3">
    <defs>
     <path d="
M458.064 -271.68
L427.536 -271.68
L427.183 -271.864
L426.844 -272.048
L426.52 -272.233
L426.213 -272.417
L425.921 -272.601
L425.646 -272.785
L425.387 -272.97
L425.143 -273.154
L424.915 -273.338
L424.702 -273.522
L424.503 -273.707
L424.318 -273.891
L424.144 -274.075
L423.982 -274.259
L423.831 -274.444
L423.688 -274.628
L423.552 -274.812
L423.422 -274.996
L423.297 -275.181
L423.174 -275.365
L423.052 -275.549
L422.93 -275.733
L422.806 -275.918
L422.678 -276.102
L422.545 -276.286
L422.405 -276.47
L422.257 -276.655
L422.099 -276.839
L421.931 -277.023
L421.752 -277.207
L421.561 -277.392
L421.356 -277.576
L421.139 -277.76
L420.908 -277.944
L420.664 -278.128
L420.408 -278.313
L420.138 -278.497
L419.858 -278.681
L419.567 -278.865
L419.267 -279.05
L418.959 -279.234
L418.646 -279.418
L418.329 -279.602
L418.011 -279.787
L417.693 -279.971
L417.38 -280.155
L417.072 -280.339
L416.774 -280.524
L416.488 -280.708
L416.217 -280.892
L415.964 -281.076
L415.731 -281.261
L415.522 -281.445
L415.34 -281.629
L415.185 -281.813
L415.062 -281.998
L414.973 -282.182
L414.918 -282.366
L414.9 -282.55
L414.92 -282.735
L414.979 -282.919
L415.078 -283.103
L415.218 -283.287
L415.397 -283.472
L415.616 -283.656
L415.875 -283.84
L416.172 -284.024
L416.506 -284.208
L416.876 -284.393
L417.279 -284.577
L417.714 -284.761
L418.179 -284.945
L418.67 -285.13
L419.186 -285.314
L419.723 -285.498
L420.28 -285.682
L420.852 -285.867
L421.438 -286.051
L422.034 -286.235
L422.637 -286.419
L423.246 -286.604
L423.857 -286.788
L424.469 -286.972
L425.078 -287.156
L425.682 -287.341
L426.281 -287.525
L426.871 -287.709
L427.452 -287.893
L428.022 -288.078
L428.581 -288.262
L429.126 -288.446
L429.658 -288.63
L430.176 -288.815
L430.679 -288.999
L431.168 -289.183
L431.642 -289.367
L432.101 -289.552
L432.546 -289.736
L432.977 -289.92
L452.623 -289.92
L452.623 -289.92
L453.054 -289.736
L453.499 -289.552
L453.958 -289.367
L454.432 -289.183
L454.921 -288.999
L455.424 -288.815
L455.942 -288.63
L456.474 -288.446
L457.019 -288.262
L457.578 -288.078
L458.148 -287.893
L458.729 -287.709
L459.319 -287.525
L459.918 -287.341
L460.522 -287.156
L461.131 -286.972
L461.743 -286.788
L462.354 -286.604
L462.963 -286.419
L463.566 -286.235
L464.162 -286.051
L464.748 -285.867
L465.32 -285.682
L465.877 -285.498
L466.414 -285.314
L466.93 -285.13
L467.421 -284.945
L467.886 -284.761
L468.321 -284.577
L468.724 -284.393
L469.094 -284.208
L469.428 -284.024
L469.725 -283.84
L469.984 -283.656
L470.203 -283.472
L470.382 -283.287
L470.522 -283.103
L470.621 -282.919
L470.68 -282.735
L470.7 -282.55
L470.682 -282.366
L470.627 -282.182
L470.538 -281.998
L470.415 -281.813
L470.26 -281.629
L470.078 -281.445
L469.869 -281.261
L469.636 -281.076
L469.383 -280.892
L469.112 -280.708
L468.826 -280.524
L468.528 -280.339
L468.22 -280.155
L467.907 -279.971
L467.589 -279.787
L467.271 -279.602
L466.954 -279.418
L466.641 -279.234
L466.333 -279.05
L466.033 -278.865
L465.742 -278.681
L465.462 -278.497
L465.192 -278.313
L464.936 -278.128
L464.692 -277.944
L464.461 -277.76
L464.244 -277.576
L464.039 -277.392
L463.848 -277.207
L463.669 -277.023
L463.501 -276.839
L463.343 -276.655
L463.195 -276.47
L463.055 -276.286
L462.922 -276.102
L462.794 -275.918
L462.67 -275.733
L462.548 -275.549
L462.426 -275.365
L462.303 -275.181
L462.178 -274.996
L462.048 -274.812
L461.912 -274.628
L461.769 -274.444
L461.618 -274.259
L461.456 -274.075
L461.282 -273.891
L461.097 -273.707
L460.898 -273.522
L460.685 -273.338
L460.457 -273.154
L460.213 -272.97
L459.954 -272.785
L459.679 -272.601
L459.387 -272.417
L459.08 -272.233
L458.756 -272.048
L458.417 -271.864
L458.064 -271.68
z
" id="m3874870f35" style="stroke:#000000;stroke-opacity:0.3;"/>
    </defs>
    <g clip-path="url(#pad36b945f0)">
     <use style="fill:#bfbf00;fill-opacity:0.3;stroke:#000000;stroke-opacity:0.3;" x="0.0" xlink:href="#m3874870f35" y="432.0"/>
    </g>
   </g>
   <g id="PolyCollection_4">
    <defs>
     <path d="
M563.837 -87.36
L544.963 -87.36
L544.828 -87.7527
L544.704 -88.1455
L544.591 -88.5382
L544.489 -88.9309
L544.398 -89.3236
L544.316 -89.7164
L544.243 -90.1091
L544.179 -90.5018
L544.123 -90.8945
L544.073 -91.2873
L544.029 -91.68
L543.99 -92.0727
L543.954 -92.4655
L543.92 -92.8582
L543.887 -93.2509
L543.854 -93.6436
L543.819 -94.0364
L543.782 -94.4291
L543.74 -94.8218
L543.692 -95.2145
L543.637 -95.6073
L543.574 -96
L543.501 -96.3927
L543.418 -96.7855
L543.323 -97.1782
L543.216 -97.5709
L543.094 -97.9636
L542.958 -98.3564
L542.807 -98.7491
L542.64 -99.1418
L542.456 -99.5345
L542.255 -99.9273
L542.037 -100.32
L541.801 -100.713
L541.548 -101.105
L541.277 -101.498
L540.989 -101.891
L540.684 -102.284
L540.361 -102.676
L540.022 -103.069
L539.668 -103.462
L539.298 -103.855
L538.914 -104.247
L538.516 -104.64
L538.105 -105.033
L537.682 -105.425
L537.249 -105.818
L536.807 -106.211
L536.356 -106.604
L535.898 -106.996
L535.435 -107.389
L534.967 -107.782
L534.497 -108.175
L534.025 -108.567
L533.554 -108.96
L533.084 -109.353
L532.618 -109.745
L532.157 -110.138
L531.702 -110.531
L531.256 -110.924
L530.82 -111.316
L530.396 -111.709
L529.985 -112.102
L529.589 -112.495
L529.21 -112.887
L528.849 -113.28
L528.509 -113.673
L528.19 -114.065
L527.894 -114.458
L527.623 -114.851
L527.378 -115.244
L527.161 -115.636
L526.972 -116.029
L526.814 -116.422
L526.686 -116.815
L526.591 -117.207
L526.529 -117.6
L526.5 -117.993
L526.506 -118.385
L526.547 -118.778
L526.623 -119.171
L526.735 -119.564
L526.882 -119.956
L527.065 -120.349
L527.283 -120.742
L527.536 -121.135
L527.823 -121.527
L528.144 -121.92
L528.498 -122.313
L528.883 -122.705
L529.299 -123.098
L529.744 -123.491
L530.217 -123.884
L530.716 -124.276
L531.24 -124.669
L531.786 -125.062
L532.353 -125.455
L532.939 -125.847
L533.543 -126.24
L575.257 -126.24
L575.257 -126.24
L575.861 -125.847
L576.447 -125.455
L577.014 -125.062
L577.56 -124.669
L578.084 -124.276
L578.583 -123.884
L579.056 -123.491
L579.501 -123.098
L579.917 -122.705
L580.302 -122.313
L580.656 -121.92
L580.977 -121.527
L581.264 -121.135
L581.517 -120.742
L581.735 -120.349
L581.918 -119.956
L582.065 -119.564
L582.177 -119.171
L582.253 -118.778
L582.294 -118.385
L582.3 -117.993
L582.271 -117.6
L582.209 -117.207
L582.114 -116.815
L581.986 -116.422
L581.828 -116.029
L581.639 -115.636
L581.422 -115.244
L581.177 -114.851
L580.906 -114.458
L580.61 -114.065
L580.291 -113.673
L579.951 -113.28
L579.59 -112.887
L579.211 -112.495
L578.815 -112.102
L578.404 -111.709
L577.98 -111.316
L577.544 -110.924
L577.098 -110.531
L576.643 -110.138
L576.182 -109.745
L575.716 -109.353
L575.246 -108.96
L574.775 -108.567
L574.303 -108.175
L573.833 -107.782
L573.365 -107.389
L572.902 -106.996
L572.444 -106.604
L571.993 -106.211
L571.551 -105.818
L571.118 -105.425
L570.695 -105.033
L570.284 -104.64
L569.886 -104.247
L569.502 -103.855
L569.132 -103.462
L568.778 -103.069
L568.439 -102.676
L568.116 -102.284
L567.811 -101.891
L567.523 -101.498
L567.252 -101.105
L566.999 -100.713
L566.763 -100.32
L566.545 -99.9273
L566.344 -99.5345
L566.16 -99.1418
L565.993 -98.7491
L565.842 -98.3564
L565.706 -97.9636
L565.584 -97.5709
L565.477 -97.1782
L565.382 -96.7855
L565.299 -96.3927
L565.226 -96
L565.163 -95.6073
L565.108 -95.2145
L565.06 -94.8218
L565.018 -94.4291
L564.981 -94.0364
L564.946 -93.6436
L564.913 -93.2509
L564.88 -92.8582
L564.846 -92.4655
L564.81 -92.0727
L564.771 -91.68
L564.727 -91.2873
L564.677 -90.8945
L564.621 -90.5018
L564.557 -90.1091
L564.484 -89.7164
L564.402 -89.3236
L564.311 -88.9309
L564.209 -88.5382
L564.096 -88.1455
L563.972 -87.7527
L563.837 -87.36
z
" id="mc92026226a" style="stroke:#000000;stroke-opacity:0.3;"/>
    </defs>
    <g clip-path="url(#pad36b945f0)">
     <use style="fill:#bfbf00;fill-opacity:0.3;stroke:#000000;stroke-opacity:0.3;" x="0.0" xlink:href="#mc92026226a" y="432.0"/>
    </g>
   </g>
   <g id="PolyCollection_5">
    <defs>
     <path d="
M679.572 -76.32
L652.428 -76.32
L651.882 -76.6255
L651.332 -76.9309
L650.776 -77.2364
L650.218 -77.5418
L649.658 -77.8473
L649.096 -78.1527
L648.535 -78.4582
L647.975 -78.7636
L647.417 -79.0691
L646.864 -79.3745
L646.315 -79.68
L645.774 -79.9855
L645.24 -80.2909
L644.716 -80.5964
L644.202 -80.9018
L643.701 -81.2073
L643.214 -81.5127
L642.741 -81.8182
L642.285 -82.1236
L641.847 -82.4291
L641.428 -82.7345
L641.03 -83.04
L640.653 -83.3455
L640.298 -83.6509
L639.968 -83.9564
L639.662 -84.2618
L639.382 -84.5673
L639.128 -84.8727
L638.901 -85.1782
L638.702 -85.4836
L638.531 -85.7891
L638.388 -86.0945
L638.273 -86.4
L638.188 -86.7055
L638.13 -87.0109
L638.101 -87.3164
L638.1 -87.6218
L638.126 -87.9273
L638.179 -88.2327
L638.258 -88.5382
L638.362 -88.8436
L638.49 -89.1491
L638.641 -89.4545
L638.814 -89.76
L639.007 -90.0655
L639.22 -90.3709
L639.449 -90.6764
L639.695 -90.9818
L639.954 -91.2873
L640.226 -91.5927
L640.509 -91.8982
L640.8 -92.2036
L641.099 -92.5091
L641.403 -92.8145
L641.71 -93.12
L642.02 -93.4255
L642.329 -93.7309
L642.638 -94.0364
L642.943 -94.3418
L643.244 -94.6473
L643.539 -94.9527
L643.827 -95.2582
L644.108 -95.5636
L644.379 -95.8691
L644.641 -96.1745
L644.893 -96.48
L645.135 -96.7855
L645.365 -97.0909
L645.584 -97.3964
L645.793 -97.7018
L645.991 -98.0073
L646.179 -98.3127
L646.358 -98.6182
L646.527 -98.9236
L646.689 -99.2291
L646.844 -99.5345
L646.993 -99.84
L647.138 -100.145
L647.279 -100.451
L647.419 -100.756
L647.559 -101.062
L647.699 -101.367
L647.842 -101.673
L647.99 -101.978
L648.143 -102.284
L648.303 -102.589
L648.471 -102.895
L648.648 -103.2
L648.837 -103.505
L649.037 -103.811
L649.249 -104.116
L649.475 -104.422
L649.715 -104.727
L649.97 -105.033
L650.239 -105.338
L650.523 -105.644
L650.822 -105.949
L651.136 -106.255
L651.464 -106.56
L680.536 -106.56
L680.536 -106.56
L680.864 -106.255
L681.178 -105.949
L681.477 -105.644
L681.761 -105.338
L682.03 -105.033
L682.285 -104.727
L682.525 -104.422
L682.751 -104.116
L682.963 -103.811
L683.163 -103.505
L683.352 -103.2
L683.529 -102.895
L683.697 -102.589
L683.857 -102.284
L684.01 -101.978
L684.158 -101.673
L684.301 -101.367
L684.441 -101.062
L684.581 -100.756
L684.721 -100.451
L684.862 -100.145
L685.007 -99.84
L685.156 -99.5345
L685.311 -99.2291
L685.473 -98.9236
L685.642 -98.6182
L685.821 -98.3127
L686.009 -98.0073
L686.207 -97.7018
L686.416 -97.3964
L686.635 -97.0909
L686.865 -96.7855
L687.107 -96.48
L687.359 -96.1745
L687.621 -95.8691
L687.892 -95.5636
L688.173 -95.2582
L688.461 -94.9527
L688.756 -94.6473
L689.057 -94.3418
L689.362 -94.0364
L689.671 -93.7309
L689.98 -93.4255
L690.29 -93.12
L690.597 -92.8145
L690.901 -92.5091
L691.2 -92.2036
L691.491 -91.8982
L691.774 -91.5927
L692.046 -91.2873
L692.305 -90.9818
L692.551 -90.6764
L692.78 -90.3709
L692.993 -90.0655
L693.186 -89.76
L693.359 -89.4545
L693.51 -89.1491
L693.638 -88.8436
L693.742 -88.5382
L693.821 -88.2327
L693.874 -87.9273
L693.9 -87.6218
L693.899 -87.3164
L693.87 -87.0109
L693.812 -86.7055
L693.727 -86.4
L693.612 -86.0945
L693.469 -85.7891
L693.298 -85.4836
L693.099 -85.1782
L692.872 -84.8727
L692.618 -84.5673
L692.338 -84.2618
L692.032 -83.9564
L691.702 -83.6509
L691.347 -83.3455
L690.97 -83.04
L690.572 -82.7345
L690.153 -82.4291
L689.715 -82.1236
L689.259 -81.8182
L688.786 -81.5127
L688.299 -81.2073
L687.798 -80.9018
L687.284 -80.5964
L686.76 -80.2909
L686.226 -79.9855
L685.685 -79.68
L685.136 -79.3745
L684.583 -79.0691
L684.025 -78.7636
L683.465 -78.4582
L682.904 -78.1527
L682.342 -77.8473
L681.782 -77.5418
L681.224 -77.2364
L680.668 -76.9309
L680.118 -76.6255
L679.572 -76.32
z
" id="mc6c9819e91" style="stroke:#000000;stroke-opacity:0.3;"/>
    </defs>
    <g clip-path="url(#pad36b945f0)">
     <use style="fill:#bfbf00;fill-opacity:0.3;stroke:#000000;stroke-opacity:0.3;" x="0.0" xlink:href="#mc6c9819e91" y="432.0"/>
    </g>
   </g>
   <g id="LineCollection_1">
    <defs>
     <path d="
M205.65 -352.32
L233.55 -352.32" id="C0_0_925c702703"/>
     <path d="
M317.25 -351.36
L345.15 -351.36" id="C0_1_7c94580526"/>
     <path d="
M428.85 -282.24
L456.75 -282.24" id="C0_2_6c04c54345"/>
     <path d="
M540.45 -115.44
L568.35 -115.44" id="C0_3_43eb5cfe9a"/>
     <path d="
M652.05 -90.48
L679.95 -90.48" id="C0_4_85c7611c37"/>
    </defs>
    <g clip-path="url(#pad36b945f0)">
     <use style="fill:none;stroke:#ff0000;" x="0.0" xlink:href="#C0_0_925c702703" y="432.0"/>
    </g>
    <g clip-path="url(#pad36b945f0)">
     <use style="fill:none;stroke:#ff0000;" x="0.0" xlink:href="#C0_1_7c94580526" y="432.0"/>
    </g>
    <g clip-path="url(#pad36b945f0)">
     <use style="fill:none;stroke:#ff0000;" x="0.0" xlink:href="#C0_2_6c04c54345" y="432.0"/>
    </g>
    <g clip-path="url(#pad36b945f0)">
     <use style="fill:none;stroke:#ff0000;" x="0.0" xlink:href="#C0_3_43eb5cfe9a" y="432.0"/>
    </g>
    <g clip-path="url(#pad36b945f0)">
     <use style="fill:none;stroke:#ff0000;" x="0.0" xlink:href="#C0_4_85c7611c37" y="432.0"/>
    </g>
   </g>
   <g id="patch_3">
    <path d="
M108 43.2
L777.6 43.2" style="fill:none;stroke:#000000;stroke-linecap:square;stroke-linejoin:miter;"/>
   </g>
   <g id="patch_4">
    <path d="
M777.6 388.8
L777.6 43.2" style="fill:none;stroke:#000000;stroke-linecap:square;stroke-linejoin:miter;"/>
   </g>
   <g id="patch_5">
    <path d="
M108 388.8
L777.6 388.8" style="fill:none;stroke:#000000;stroke-linecap:square;stroke-linejoin:miter;"/>
   </g>
   <g id="patch_6">
    <path d="
M108 388.8
L108 43.2" style="fill:none;stroke:#000000;stroke-linecap:square;stroke-linejoin:miter;"/>
   </g>
   <g id="matplotlib.axis_1">
    <g id="xtick_1">
     <g id="line2d_1">
      <defs>
       <path d="
M0 0
L0 -4" id="m93b0483c22" style="stroke:#000000;stroke-width:0.5;"/>
      </defs>
      <g>
       <use style="stroke:#000000;stroke-width:0.5;" x="219.6" xlink:href="#m93b0483c22" y="388.8"/>
      </g>
     </g>
     <g id="line2d_2">
      <defs>
       <path d="
M0 0
L0 4" id="m741efc42ff" style="stroke:#000000;stroke-width:0.5;"/>
      </defs>
      <g>
       <use style="stroke:#000000;stroke-width:0.5;" x="219.6" xlink:href="#m741efc42ff" y="43.2"/>
      </g>
     </g>
     <g id="text_1">
      <!-- Grudger -->
      <defs>
       <path d="
M59.5156 10.4062
L59.5156 29.9844
L43.4062 29.9844
L43.4062 38.0938
L69.2812 38.0938
L69.2812 6.78125
Q63.5781 2.73438 56.6875 0.65625
Q49.8125 -1.42188 42 -1.42188
Q24.9062 -1.42188 15.25 8.5625
Q5.60938 18.5625 5.60938 36.375
Q5.60938 54.25 15.25 64.2344
Q24.9062 74.2188 42 74.2188
Q49.125 74.2188 55.5469 72.4531
Q61.9688 70.7031 67.3906 67.2812
L67.3906 56.7812
Q61.9219 61.4219 55.7656 63.7656
Q49.6094 66.1094 42.8281 66.1094
Q29.4375 66.1094 22.7188 58.6406
Q16.0156 51.1719 16.0156 36.375
Q16.0156 21.625 22.7188 14.1562
Q29.4375 6.6875 42.8281 6.6875
Q48.0469 6.6875 52.1406 7.59375
Q56.25 8.5 59.5156 10.4062" id="BitstreamVeraSans-Roman-47"/>
       <path d="
M56.2031 29.5938
L56.2031 25.2031
L14.8906 25.2031
Q15.4844 15.9219 20.4844 11.0625
Q25.4844 6.20312 34.4219 6.20312
Q39.5938 6.20312 44.4531 7.46875
Q49.3125 8.73438 54.1094 11.2812
L54.1094 2.78125
Q49.2656 0.734375 44.1875 -0.34375
Q39.1094 -1.42188 33.8906 -1.42188
Q20.7969 -1.42188 13.1562 6.1875
Q5.51562 13.8125 5.51562 26.8125
Q5.51562 40.2344 12.7656 48.1094
Q20.0156 56 32.3281 56
Q43.3594 56 49.7812 48.8906
Q56.2031 41.7969 56.2031 29.5938
M47.2188 32.2344
Q47.125 39.5938 43.0938 43.9844
Q39.0625 48.3906 32.4219 48.3906
Q24.9062 48.3906 20.3906 44.1406
Q15.875 39.8906 15.1875 32.1719
z
" id="BitstreamVeraSans-Roman-65"/>
       <path d="
M45.4062 46.3906
L45.4062 75.9844
L54.3906 75.9844
L54.3906 0
L45.4062 0
L45.4062 8.20312
Q42.5781 3.32812 38.25 0.953125
Q33.9375 -1.42188 27.875 -1.42188
Q17.9688 -1.42188 11.7344 6.48438
Q5.51562 14.4062 5.51562 27.2969
Q5.51562 40.1875 11.7344 48.0938
Q17.9688 56 27.875 56
Q33.9375 56 38.25 53.625
Q42.5781 51.2656 45.4062 46.3906
M14.7969 27.2969
Q14.7969 17.3906 18.875 11.75
Q22.9531 6.10938 30.0781 6.10938
Q37.2031 6.10938 41.2969 11.75
Q45.4062 17.3906 45.4062 27.2969
Q45.4062 37.2031 41.2969 42.8438
Q37.2031 48.4844 30.0781 48.4844
Q22.9531 48.4844 18.875 42.8438
Q14.7969 37.2031 14.7969 27.2969" id="BitstreamVeraSans-Roman-64"/>
       <path d="
M45.4062 27.9844
Q45.4062 37.75 41.375 43.1094
Q37.3594 48.4844 30.0781 48.4844
Q22.8594 48.4844 18.8281 43.1094
Q14.7969 37.75 14.7969 27.9844
Q14.7969 18.2656 18.8281 12.8906
Q22.8594 7.51562 30.0781 7.51562
Q37.3594 7.51562 41.375 12.8906
Q45.4062 18.2656 45.4062 27.9844
M54.3906 6.78125
Q54.3906 -7.17188 48.1875 -13.9844
Q42 -20.7969 29.2031 -20.7969
Q24.4688 -20.7969 20.2656 -20.0938
Q16.0625 -19.3906 12.1094 -17.9219
L12.1094 -9.1875
Q16.0625 -11.3281 19.9219 -12.3438
Q23.7812 -13.375 27.7812 -13.375
Q36.625 -13.375 41.0156 -8.76562
Q45.4062 -4.15625 45.4062 5.17188
L45.4062 9.625
Q42.625 4.78125 38.2812 2.39062
Q33.9375 0 27.875 0
Q17.8281 0 11.6719 7.65625
Q5.51562 15.3281 5.51562 27.9844
Q5.51562 40.6719 11.6719 48.3281
Q17.8281 56 27.875 56
Q33.9375 56 38.2812 53.6094
Q42.625 51.2188 45.4062 46.3906
L45.4062 54.6875
L54.3906 54.6875
z
" id="BitstreamVeraSans-Roman-67"/>
       <path d="
M8.5 21.5781
L8.5 54.6875
L17.4844 54.6875
L17.4844 21.9219
Q17.4844 14.1562 20.5 10.2656
Q23.5312 6.39062 29.5938 6.39062
Q36.8594 6.39062 41.0781 11.0312
Q45.3125 15.6719 45.3125 23.6875
L45.3125 54.6875
L54.2969 54.6875
L54.2969 0
L45.3125 0
L45.3125 8.40625
Q42.0469 3.42188 37.7188 1
Q33.4062 -1.42188 27.6875 -1.42188
Q18.2656 -1.42188 13.375 4.4375
Q8.5 10.2969 8.5 21.5781" id="BitstreamVeraSans-Roman-75"/>
       <path d="
M41.1094 46.2969
Q39.5938 47.1719 37.8125 47.5781
Q36.0312 48 33.8906 48
Q26.2656 48 22.1875 43.0469
Q18.1094 38.0938 18.1094 28.8125
L18.1094 0
L9.07812 0
L9.07812 54.6875
L18.1094 54.6875
L18.1094 46.1875
Q20.9531 51.1719 25.4844 53.5781
Q30.0312 56 36.5312 56
Q37.4531 56 38.5781 55.875
Q39.7031 55.7656 41.0625 55.5156
z
" id="BitstreamVeraSans-Roman-72"/>
      </defs>
      <g transform="translate(221.8075 425.2775)rotate(-90.0)scale(0.08 -0.08)">
       <use xlink:href="#BitstreamVeraSans-Roman-47"/>
       <use x="77.490234375" xlink:href="#BitstreamVeraSans-Roman-72"/>
       <use x="118.603515625" xlink:href="#BitstreamVeraSans-Roman-75"/>
       <use x="181.982421875" xlink:href="#BitstreamVeraSans-Roman-64"/>
       <use x="245.458984375" xlink:href="#BitstreamVeraSans-Roman-67"/>
       <use x="308.935546875" xlink:href="#BitstreamVeraSans-Roman-65"/>
       <use x="370.458984375" xlink:href="#BitstreamVeraSans-Roman-72"/>
      </g>
     </g>
    </g>
    <g id="xtick_2">
     <g id="line2d_3">
      <g>
       <use style="stroke:#000000;stroke-width:0.5;" x="331.2" xlink:href="#m93b0483c22" y="388.8"/>
      </g>
     </g>
     <g id="line2d_4">
      <g>
       <use style="stroke:#000000;stroke-width:0.5;" x="331.2" xlink:href="#m741efc42ff" y="43.2"/>
      </g>
     </g>
     <g id="text_2">
      <!-- Defector -->
      <defs>
       <path d="
M18.3125 70.2188
L18.3125 54.6875
L36.8125 54.6875
L36.8125 47.7031
L18.3125 47.7031
L18.3125 18.0156
Q18.3125 11.3281 20.1406 9.42188
Q21.9688 7.51562 27.5938 7.51562
L36.8125 7.51562
L36.8125 0
L27.5938 0
Q17.1875 0 13.2344 3.875
Q9.28125 7.76562 9.28125 18.0156
L9.28125 47.7031
L2.6875 47.7031
L2.6875 54.6875
L9.28125 54.6875
L9.28125 70.2188
z
" id="BitstreamVeraSans-Roman-74"/>
       <path d="
M19.6719 64.7969
L19.6719 8.10938
L31.5938 8.10938
Q46.6875 8.10938 53.6875 14.9375
Q60.6875 21.7812 60.6875 36.5312
Q60.6875 51.1719 53.6875 57.9844
Q46.6875 64.7969 31.5938 64.7969
z

M9.8125 72.9062
L30.0781 72.9062
Q51.2656 72.9062 61.1719 64.0938
Q71.0938 55.2812 71.0938 36.5312
Q71.0938 17.6719 61.125 8.82812
Q51.1719 0 30.0781 0
L9.8125 0
z
" id="BitstreamVeraSans-Roman-44"/>
       <path d="
M37.1094 75.9844
L37.1094 68.5
L28.5156 68.5
Q23.6875 68.5 21.7969 66.5469
Q19.9219 64.5938 19.9219 59.5156
L19.9219 54.6875
L34.7188 54.6875
L34.7188 47.7031
L19.9219 47.7031
L19.9219 0
L10.8906 0
L10.8906 47.7031
L2.29688 47.7031
L2.29688 54.6875
L10.8906 54.6875
L10.8906 58.5
Q10.8906 67.625 15.1406 71.7969
Q19.3906 75.9844 28.6094 75.9844
z
" id="BitstreamVeraSans-Roman-66"/>
       <path d="
M30.6094 48.3906
Q23.3906 48.3906 19.1875 42.75
Q14.9844 37.1094 14.9844 27.2969
Q14.9844 17.4844 19.1562 11.8438
Q23.3438 6.20312 30.6094 6.20312
Q37.7969 6.20312 41.9844 11.8594
Q46.1875 17.5312 46.1875 27.2969
Q46.1875 37.0156 41.9844 42.7031
Q37.7969 48.3906 30.6094 48.3906
M30.6094 56
Q42.3281 56 49.0156 48.375
Q55.7188 40.7656 55.7188 27.2969
Q55.7188 13.875 49.0156 6.21875
Q42.3281 -1.42188 30.6094 -1.42188
Q18.8438 -1.42188 12.1719 6.21875
Q5.51562 13.875 5.51562 27.2969
Q5.51562 40.7656 12.1719 48.375
Q18.8438 56 30.6094 56" id="BitstreamVeraSans-Roman-6f"/>
       <path d="
M48.7812 52.5938
L48.7812 44.1875
Q44.9688 46.2969 41.1406 47.3438
Q37.3125 48.3906 33.4062 48.3906
Q24.6562 48.3906 19.8125 42.8438
Q14.9844 37.3125 14.9844 27.2969
Q14.9844 17.2812 19.8125 11.7344
Q24.6562 6.20312 33.4062 6.20312
Q37.3125 6.20312 41.1406 7.25
Q44.9688 8.29688 48.7812 10.4062
L48.7812 2.09375
Q45.0156 0.34375 40.9844 -0.53125
Q36.9688 -1.42188 32.4219 -1.42188
Q20.0625 -1.42188 12.7812 6.34375
Q5.51562 14.1094 5.51562 27.2969
Q5.51562 40.6719 12.8594 48.3281
Q20.2188 56 33.0156 56
Q37.1562 56 41.1094 55.1406
Q45.0625 54.2969 48.7812 52.5938" id="BitstreamVeraSans-Roman-63"/>
      </defs>
      <g transform="translate(333.4075 426.555)rotate(-90.0)scale(0.08 -0.08)">
       <use xlink:href="#BitstreamVeraSans-Roman-44"/>
       <use x="77.001953125" xlink:href="#BitstreamVeraSans-Roman-65"/>
       <use x="138.525390625" xlink:href="#BitstreamVeraSans-Roman-66"/>
       <use x="173.73046875" xlink:href="#BitstreamVeraSans-Roman-65"/>
       <use x="235.25390625" xlink:href="#BitstreamVeraSans-Roman-63"/>
       <use x="290.234375" xlink:href="#BitstreamVeraSans-Roman-74"/>
       <use x="329.443359375" xlink:href="#BitstreamVeraSans-Roman-6f"/>
       <use x="390.625" xlink:href="#BitstreamVeraSans-Roman-72"/>
      </g>
     </g>
    </g>
    <g id="xtick_3">
     <g id="line2d_5">
      <g>
       <use style="stroke:#000000;stroke-width:0.5;" x="442.8" xlink:href="#m93b0483c22" y="388.8"/>
      </g>
     </g>
     <g id="line2d_6">
      <g>
       <use style="stroke:#000000;stroke-width:0.5;" x="442.8" xlink:href="#m741efc42ff" y="43.2"/>
      </g>
     </g>
     <g id="text_3">
      <!-- Tit For Tat -->
      <defs>
       <path d="
M9.42188 54.6875
L18.4062 54.6875
L18.4062 0
L9.42188 0
z

M9.42188 75.9844
L18.4062 75.9844
L18.4062 64.5938
L9.42188 64.5938
z
" id="BitstreamVeraSans-Roman-69"/>
       <path d="
M34.2812 27.4844
Q23.3906 27.4844 19.1875 25
Q14.9844 22.5156 14.9844 16.5
Q14.9844 11.7188 18.1406 8.90625
Q21.2969 6.10938 26.7031 6.10938
Q34.1875 6.10938 38.7031 11.4062
Q43.2188 16.7031 43.2188 25.4844
L43.2188 27.4844
z

M52.2031 31.2031
L52.2031 0
L43.2188 0
L43.2188 8.29688
Q40.1406 3.32812 35.5469 0.953125
Q30.9531 -1.42188 24.3125 -1.42188
Q15.9219 -1.42188 10.9531 3.29688
Q6 8.01562 6 15.9219
Q6 25.1406 12.1719 29.8281
Q18.3594 34.5156 30.6094 34.5156
L43.2188 34.5156
L43.2188 35.4062
Q43.2188 41.6094 39.1406 45
Q35.0625 48.3906 27.6875 48.3906
Q23 48.3906 18.5469 47.2656
Q14.1094 46.1406 10.0156 43.8906
L10.0156 52.2031
Q14.9375 54.1094 19.5781 55.0469
Q24.2188 56 28.6094 56
Q40.4844 56 46.3438 49.8438
Q52.2031 43.7031 52.2031 31.2031" id="BitstreamVeraSans-Roman-61"/>
       <path d="
M-0.296875 72.9062
L61.375 72.9062
L61.375 64.5938
L35.5 64.5938
L35.5 0
L25.5938 0
L25.5938 64.5938
L-0.296875 64.5938
z
" id="BitstreamVeraSans-Roman-54"/>
       <path d="
M9.8125 72.9062
L51.7031 72.9062
L51.7031 64.5938
L19.6719 64.5938
L19.6719 43.1094
L48.5781 43.1094
L48.5781 34.8125
L19.6719 34.8125
L19.6719 0
L9.8125 0
z
" id="BitstreamVeraSans-Roman-46"/>
       <path id="BitstreamVeraSans-Roman-20"/>
      </defs>
      <g transform="translate(445.0075 431.8125)rotate(-90.0)scale(0.08 -0.08)">
       <use xlink:href="#BitstreamVeraSans-Roman-54"/>
       <use x="57.958984375" xlink:href="#BitstreamVeraSans-Roman-69"/>
       <use x="85.7421875" xlink:href="#BitstreamVeraSans-Roman-74"/>
       <use x="124.951171875" xlink:href="#BitstreamVeraSans-Roman-20"/>
       <use x="156.73828125" xlink:href="#BitstreamVeraSans-Roman-46"/>
       <use x="210.6328125" xlink:href="#BitstreamVeraSans-Roman-6f"/>
       <use x="271.814453125" xlink:href="#BitstreamVeraSans-Roman-72"/>
       <use x="312.927734375" xlink:href="#BitstreamVeraSans-Roman-20"/>
       <use x="344.71484375" xlink:href="#BitstreamVeraSans-Roman-54"/>
       <use x="389.298828125" xlink:href="#BitstreamVeraSans-Roman-61"/>
       <use x="450.578125" xlink:href="#BitstreamVeraSans-Roman-74"/>
      </g>
     </g>
    </g>
    <g id="xtick_4">
     <g id="line2d_7">
      <g>
       <use style="stroke:#000000;stroke-width:0.5;" x="554.4" xlink:href="#m93b0483c22" y="388.8"/>
      </g>
     </g>
     <g id="line2d_8">
      <g>
       <use style="stroke:#000000;stroke-width:0.5;" x="554.4" xlink:href="#m741efc42ff" y="43.2"/>
      </g>
     </g>
     <g id="text_4">
      <!-- Cooperator -->
      <defs>
       <path d="
M64.4062 67.2812
L64.4062 56.8906
Q59.4219 61.5312 53.7812 63.8125
Q48.1406 66.1094 41.7969 66.1094
Q29.2969 66.1094 22.6562 58.4688
Q16.0156 50.8281 16.0156 36.375
Q16.0156 21.9688 22.6562 14.3281
Q29.2969 6.6875 41.7969 6.6875
Q48.1406 6.6875 53.7812 8.98438
Q59.4219 11.2812 64.4062 15.9219
L64.4062 5.60938
Q59.2344 2.09375 53.4375 0.328125
Q47.6562 -1.42188 41.2188 -1.42188
Q24.6562 -1.42188 15.125 8.70312
Q5.60938 18.8438 5.60938 36.375
Q5.60938 53.9531 15.125 64.0781
Q24.6562 74.2188 41.2188 74.2188
Q47.75 74.2188 53.5312 72.4844
Q59.3281 70.75 64.4062 67.2812" id="BitstreamVeraSans-Roman-43"/>
       <path d="
M18.1094 8.20312
L18.1094 -20.7969
L9.07812 -20.7969
L9.07812 54.6875
L18.1094 54.6875
L18.1094 46.3906
Q20.9531 51.2656 25.2656 53.625
Q29.5938 56 35.5938 56
Q45.5625 56 51.7812 48.0938
Q58.0156 40.1875 58.0156 27.2969
Q58.0156 14.4062 51.7812 6.48438
Q45.5625 -1.42188 35.5938 -1.42188
Q29.5938 -1.42188 25.2656 0.953125
Q20.9531 3.32812 18.1094 8.20312
M48.6875 27.2969
Q48.6875 37.2031 44.6094 42.8438
Q40.5312 48.4844 33.4062 48.4844
Q26.2656 48.4844 22.1875 42.8438
Q18.1094 37.2031 18.1094 27.2969
Q18.1094 17.3906 22.1875 11.75
Q26.2656 6.10938 33.4062 6.10938
Q40.5312 6.10938 44.6094 11.75
Q48.6875 17.3906 48.6875 27.2969" id="BitstreamVeraSans-Roman-70"/>
      </defs>
      <g transform="translate(556.6075 437.24)rotate(-90.0)scale(0.08 -0.08)">
       <use xlink:href="#BitstreamVeraSans-Roman-43"/>
       <use x="69.82421875" xlink:href="#BitstreamVeraSans-Roman-6f"/>
       <use x="131.005859375" xlink:href="#BitstreamVeraSans-Roman-6f"/>
       <use x="192.1875" xlink:href="#BitstreamVeraSans-Roman-70"/>
       <use x="255.6640625" xlink:href="#BitstreamVeraSans-Roman-65"/>
       <use x="317.1875" xlink:href="#BitstreamVeraSans-Roman-72"/>
       <use x="358.30078125" xlink:href="#BitstreamVeraSans-Roman-61"/>
       <use x="419.580078125" xlink:href="#BitstreamVeraSans-Roman-74"/>
       <use x="458.7890625" xlink:href="#BitstreamVeraSans-Roman-6f"/>
       <use x="519.970703125" xlink:href="#BitstreamVeraSans-Roman-72"/>
      </g>
     </g>
    </g>
    <g id="xtick_5">
     <g id="line2d_9">
      <g>
       <use style="stroke:#000000;stroke-width:0.5;" x="666.0" xlink:href="#m93b0483c22" y="388.8"/>
      </g>
     </g>
     <g id="line2d_10">
      <g>
       <use style="stroke:#000000;stroke-width:0.5;" x="666.0" xlink:href="#m741efc42ff" y="43.2"/>
      </g>
     </g>
     <g id="text_5">
      <!-- Random: 0.5 -->
      <defs>
       <path d="
M31.7812 66.4062
Q24.1719 66.4062 20.3281 58.9062
Q16.5 51.4219 16.5 36.375
Q16.5 21.3906 20.3281 13.8906
Q24.1719 6.39062 31.7812 6.39062
Q39.4531 6.39062 43.2812 13.8906
Q47.125 21.3906 47.125 36.375
Q47.125 51.4219 43.2812 58.9062
Q39.4531 66.4062 31.7812 66.4062
M31.7812 74.2188
Q44.0469 74.2188 50.5156 64.5156
Q56.9844 54.8281 56.9844 36.375
Q56.9844 17.9688 50.5156 8.26562
Q44.0469 -1.42188 31.7812 -1.42188
Q19.5312 -1.42188 13.0625 8.26562
Q6.59375 17.9688 6.59375 36.375
Q6.59375 54.8281 13.0625 64.5156
Q19.5312 74.2188 31.7812 74.2188" id="BitstreamVeraSans-Roman-30"/>
       <path d="
M10.7969 72.9062
L49.5156 72.9062
L49.5156 64.5938
L19.8281 64.5938
L19.8281 46.7344
Q21.9688 47.4688 24.1094 47.8281
Q26.2656 48.1875 28.4219 48.1875
Q40.625 48.1875 47.75 41.5
Q54.8906 34.8125 54.8906 23.3906
Q54.8906 11.625 47.5625 5.09375
Q40.2344 -1.42188 26.9062 -1.42188
Q22.3125 -1.42188 17.5469 -0.640625
Q12.7969 0.140625 7.71875 1.70312
L7.71875 11.625
Q12.1094 9.23438 16.7969 8.0625
Q21.4844 6.89062 26.7031 6.89062
Q35.1562 6.89062 40.0781 11.3281
Q45.0156 15.7656 45.0156 23.3906
Q45.0156 31 40.0781 35.4375
Q35.1562 39.8906 26.7031 39.8906
Q22.75 39.8906 18.8125 39.0156
Q14.8906 38.1406 10.7969 36.2812
z
" id="BitstreamVeraSans-Roman-35"/>
       <path d="
M54.8906 33.0156
L54.8906 0
L45.9062 0
L45.9062 32.7188
Q45.9062 40.4844 42.875 44.3281
Q39.8438 48.1875 33.7969 48.1875
Q26.5156 48.1875 22.3125 43.5469
Q18.1094 38.9219 18.1094 30.9062
L18.1094 0
L9.07812 0
L9.07812 54.6875
L18.1094 54.6875
L18.1094 46.1875
Q21.3438 51.125 25.7031 53.5625
Q30.0781 56 35.7969 56
Q45.2188 56 50.0469 50.1719
Q54.8906 44.3438 54.8906 33.0156" id="BitstreamVeraSans-Roman-6e"/>
       <path d="
M52 44.1875
Q55.375 50.25 60.0625 53.125
Q64.75 56 71.0938 56
Q79.6406 56 84.2812 50.0156
Q88.9219 44.0469 88.9219 33.0156
L88.9219 0
L79.8906 0
L79.8906 32.7188
Q79.8906 40.5781 77.0938 44.375
Q74.3125 48.1875 68.6094 48.1875
Q61.625 48.1875 57.5625 43.5469
Q53.5156 38.9219 53.5156 30.9062
L53.5156 0
L44.4844 0
L44.4844 32.7188
Q44.4844 40.625 41.7031 44.4062
Q38.9219 48.1875 33.1094 48.1875
Q26.2188 48.1875 22.1562 43.5312
Q18.1094 38.875 18.1094 30.9062
L18.1094 0
L9.07812 0
L9.07812 54.6875
L18.1094 54.6875
L18.1094 46.1875
Q21.1875 51.2188 25.4844 53.6094
Q29.7812 56 35.6875 56
Q41.6562 56 45.8281 52.9688
Q50 49.9531 52 44.1875" id="BitstreamVeraSans-Roman-6d"/>
       <path d="
M44.3906 34.1875
Q47.5625 33.1094 50.5625 29.5938
Q53.5625 26.0781 56.5938 19.9219
L66.6094 0
L56 0
L46.6875 18.7031
Q43.0625 26.0312 39.6719 28.4219
Q36.2812 30.8125 30.4219 30.8125
L19.6719 30.8125
L19.6719 0
L9.8125 0
L9.8125 72.9062
L32.0781 72.9062
Q44.5781 72.9062 50.7344 67.6719
Q56.8906 62.4531 56.8906 51.9062
Q56.8906 45.0156 53.6875 40.4688
Q50.4844 35.9375 44.3906 34.1875
M19.6719 64.7969
L19.6719 38.9219
L32.0781 38.9219
Q39.2031 38.9219 42.8438 42.2188
Q46.4844 45.5156 46.4844 51.9062
Q46.4844 58.2969 42.8438 61.5469
Q39.2031 64.7969 32.0781 64.7969
z
" id="BitstreamVeraSans-Roman-52"/>
       <path d="
M11.7188 12.4062
L22.0156 12.4062
L22.0156 0
L11.7188 0
z

M11.7188 51.7031
L22.0156 51.7031
L22.0156 39.3125
L11.7188 39.3125
z
" id="BitstreamVeraSans-Roman-3a"/>
       <path d="
M10.6875 12.4062
L21 12.4062
L21 0
L10.6875 0
z
" id="BitstreamVeraSans-Roman-2e"/>
      </defs>
      <g transform="translate(668.2075 443.17875)rotate(-90.0)scale(0.08 -0.08)">
       <use xlink:href="#BitstreamVeraSans-Roman-52"/>
       <use x="67.232421875" xlink:href="#BitstreamVeraSans-Roman-61"/>
       <use x="128.51171875" xlink:href="#BitstreamVeraSans-Roman-6e"/>
       <use x="191.890625" xlink:href="#BitstreamVeraSans-Roman-64"/>
       <use x="255.3671875" xlink:href="#BitstreamVeraSans-Roman-6f"/>
       <use x="316.548828125" xlink:href="#BitstreamVeraSans-Roman-6d"/>
       <use x="413.9609375" xlink:href="#BitstreamVeraSans-Roman-3a"/>
       <use x="447.65234375" xlink:href="#BitstreamVeraSans-Roman-20"/>
       <use x="479.439453125" xlink:href="#BitstreamVeraSans-Roman-30"/>
       <use x="543.0625" xlink:href="#BitstreamVeraSans-Roman-2e"/>
       <use x="574.849609375" xlink:href="#BitstreamVeraSans-Roman-35"/>
      </g>
     </g>
    </g>
   </g>
   <g id="matplotlib.axis_2">
    <g id="ytick_1">
     <g id="line2d_11">
      <defs>
       <path d="
M0 0
L4 0" id="m728421d6d4" style="stroke:#000000;stroke-width:0.5;"/>
      </defs>
      <g>
       <use style="stroke:#000000;stroke-width:0.5;" x="108.0" xlink:href="#m728421d6d4" y="388.8"/>
      </g>
     </g>
     <g id="line2d_12">
      <defs>
       <path d="
M0 0
L-4 0" id="mcb0005524f" style="stroke:#000000;stroke-width:0.5;"/>
      </defs>
      <g>
       <use style="stroke:#000000;stroke-width:0.5;" x="777.6" xlink:href="#mcb0005524f" y="388.8"/>
      </g>
     </g>
     <g id="text_6">
      <!-- 1.7 -->
      <defs>
       <path d="
M12.4062 8.29688
L28.5156 8.29688
L28.5156 63.9219
L10.9844 60.4062
L10.9844 69.3906
L28.4219 72.9062
L38.2812 72.9062
L38.2812 8.29688
L54.3906 8.29688
L54.3906 0
L12.4062 0
z
" id="BitstreamVeraSans-Roman-31"/>
       <path d="
M8.20312 72.9062
L55.0781 72.9062
L55.0781 68.7031
L28.6094 0
L18.3125 0
L43.2188 64.5938
L8.20312 64.5938
z
" id="BitstreamVeraSans-Roman-37"/>
      </defs>
      <g transform="translate(92.84 391.0075)scale(0.08 -0.08)">
       <use xlink:href="#BitstreamVeraSans-Roman-31"/>
       <use x="63.623046875" xlink:href="#BitstreamVeraSans-Roman-2e"/>
       <use x="95.41015625" xlink:href="#BitstreamVeraSans-Roman-37"/>
      </g>
     </g>
    </g>
    <g id="ytick_2">
     <g id="line2d_13">
      <g>
       <use style="stroke:#000000;stroke-width:0.5;" x="108.0" xlink:href="#m728421d6d4" y="350.4"/>
      </g>
     </g>
     <g id="line2d_14">
      <g>
       <use style="stroke:#000000;stroke-width:0.5;" x="777.6" xlink:href="#mcb0005524f" y="350.4"/>
      </g>
     </g>
     <g id="text_7">
      <!-- 1.8 -->
      <defs>
       <path d="
M31.7812 34.625
Q24.75 34.625 20.7188 30.8594
Q16.7031 27.0938 16.7031 20.5156
Q16.7031 13.9219 20.7188 10.1562
Q24.75 6.39062 31.7812 6.39062
Q38.8125 6.39062 42.8594 10.1719
Q46.9219 13.9688 46.9219 20.5156
Q46.9219 27.0938 42.8906 30.8594
Q38.875 34.625 31.7812 34.625
M21.9219 38.8125
Q15.5781 40.375 12.0312 44.7188
Q8.5 49.0781 8.5 55.3281
Q8.5 64.0625 14.7188 69.1406
Q20.9531 74.2188 31.7812 74.2188
Q42.6719 74.2188 48.875 69.1406
Q55.0781 64.0625 55.0781 55.3281
Q55.0781 49.0781 51.5312 44.7188
Q48 40.375 41.7031 38.8125
Q48.8281 37.1562 52.7969 32.3125
Q56.7812 27.4844 56.7812 20.5156
Q56.7812 9.90625 50.3125 4.23438
Q43.8438 -1.42188 31.7812 -1.42188
Q19.7344 -1.42188 13.25 4.23438
Q6.78125 9.90625 6.78125 20.5156
Q6.78125 27.4844 10.7812 32.3125
Q14.7969 37.1562 21.9219 38.8125
M18.3125 54.3906
Q18.3125 48.7344 21.8438 45.5625
Q25.3906 42.3906 31.7812 42.3906
Q38.1406 42.3906 41.7188 45.5625
Q45.3125 48.7344 45.3125 54.3906
Q45.3125 60.0625 41.7188 63.2344
Q38.1406 66.4062 31.7812 66.4062
Q25.3906 66.4062 21.8438 63.2344
Q18.3125 60.0625 18.3125 54.3906" id="BitstreamVeraSans-Roman-38"/>
      </defs>
      <g transform="translate(92.70375 352.6075)scale(0.08 -0.08)">
       <use xlink:href="#BitstreamVeraSans-Roman-31"/>
       <use x="63.623046875" xlink:href="#BitstreamVeraSans-Roman-2e"/>
       <use x="95.41015625" xlink:href="#BitstreamVeraSans-Roman-38"/>
      </g>
     </g>
    </g>
    <g id="ytick_3">
     <g id="line2d_15">
      <g>
       <use style="stroke:#000000;stroke-width:0.5;" x="108.0" xlink:href="#m728421d6d4" y="312.0"/>
      </g>
     </g>
     <g id="line2d_16">
      <g>
       <use style="stroke:#000000;stroke-width:0.5;" x="777.6" xlink:href="#mcb0005524f" y="312.0"/>
      </g>
     </g>
     <g id="text_8">
      <!-- 1.9 -->
      <defs>
       <path d="
M10.9844 1.51562
L10.9844 10.5
Q14.7031 8.73438 18.5 7.8125
Q22.3125 6.89062 25.9844 6.89062
Q35.75 6.89062 40.8906 13.4531
Q46.0469 20.0156 46.7812 33.4062
Q43.9531 29.2031 39.5938 26.9531
Q35.25 24.7031 29.9844 24.7031
Q19.0469 24.7031 12.6719 31.3125
Q6.29688 37.9375 6.29688 49.4219
Q6.29688 60.6406 12.9375 67.4219
Q19.5781 74.2188 30.6094 74.2188
Q43.2656 74.2188 49.9219 64.5156
Q56.5938 54.8281 56.5938 36.375
Q56.5938 19.1406 48.4062 8.85938
Q40.2344 -1.42188 26.4219 -1.42188
Q22.7031 -1.42188 18.8906 -0.6875
Q15.0938 0.046875 10.9844 1.51562
M30.6094 32.4219
Q37.25 32.4219 41.125 36.9531
Q45.0156 41.5 45.0156 49.4219
Q45.0156 57.2812 41.125 61.8438
Q37.25 66.4062 30.6094 66.4062
Q23.9688 66.4062 20.0938 61.8438
Q16.2188 57.2812 16.2188 49.4219
Q16.2188 41.5 20.0938 36.9531
Q23.9688 32.4219 30.6094 32.4219" id="BitstreamVeraSans-Roman-39"/>
      </defs>
      <g transform="translate(92.71875 314.2075)scale(0.08 -0.08)">
       <use xlink:href="#BitstreamVeraSans-Roman-31"/>
       <use x="63.623046875" xlink:href="#BitstreamVeraSans-Roman-2e"/>
       <use x="95.41015625" xlink:href="#BitstreamVeraSans-Roman-39"/>
      </g>
     </g>
    </g>
    <g id="ytick_4">
     <g id="line2d_17">
      <g>
       <use style="stroke:#000000;stroke-width:0.5;" x="108.0" xlink:href="#m728421d6d4" y="273.6"/>
      </g>
     </g>
     <g id="line2d_18">
      <g>
       <use style="stroke:#000000;stroke-width:0.5;" x="777.6" xlink:href="#mcb0005524f" y="273.6"/>
      </g>
     </g>
     <g id="text_9">
      <!-- 2.0 -->
      <defs>
       <path d="
M19.1875 8.29688
L53.6094 8.29688
L53.6094 0
L7.32812 0
L7.32812 8.29688
Q12.9375 14.1094 22.625 23.8906
Q32.3281 33.6875 34.8125 36.5312
Q39.5469 41.8438 41.4219 45.5312
Q43.3125 49.2188 43.3125 52.7812
Q43.3125 58.5938 39.2344 62.25
Q35.1562 65.9219 28.6094 65.9219
Q23.9688 65.9219 18.8125 64.3125
Q13.6719 62.7031 7.8125 59.4219
L7.8125 69.3906
Q13.7656 71.7812 18.9375 73
Q24.125 74.2188 28.4219 74.2188
Q39.75 74.2188 46.4844 68.5469
Q53.2188 62.8906 53.2188 53.4219
Q53.2188 48.9219 51.5312 44.8906
Q49.8594 40.875 45.4062 35.4062
Q44.1875 33.9844 37.6406 27.2188
Q31.1094 20.4531 19.1875 8.29688" id="BitstreamVeraSans-Roman-32"/>
      </defs>
      <g transform="translate(92.395 275.8075)scale(0.08 -0.08)">
       <use xlink:href="#BitstreamVeraSans-Roman-32"/>
       <use x="63.623046875" xlink:href="#BitstreamVeraSans-Roman-2e"/>
       <use x="95.41015625" xlink:href="#BitstreamVeraSans-Roman-30"/>
      </g>
     </g>
    </g>
    <g id="ytick_5">
     <g id="line2d_19">
      <g>
       <use style="stroke:#000000;stroke-width:0.5;" x="108.0" xlink:href="#m728421d6d4" y="235.2"/>
      </g>
     </g>
     <g id="line2d_20">
      <g>
       <use style="stroke:#000000;stroke-width:0.5;" x="777.6" xlink:href="#mcb0005524f" y="235.2"/>
      </g>
     </g>
     <g id="text_10">
      <!-- 2.1 -->
      <g transform="translate(92.6025 237.4075)scale(0.08 -0.08)">
       <use xlink:href="#BitstreamVeraSans-Roman-32"/>
       <use x="63.623046875" xlink:href="#BitstreamVeraSans-Roman-2e"/>
       <use x="95.41015625" xlink:href="#BitstreamVeraSans-Roman-31"/>
      </g>
     </g>
    </g>
    <g id="ytick_6">
     <g id="line2d_21">
      <g>
       <use style="stroke:#000000;stroke-width:0.5;" x="108.0" xlink:href="#m728421d6d4" y="196.8"/>
      </g>
     </g>
     <g id="line2d_22">
      <g>
       <use style="stroke:#000000;stroke-width:0.5;" x="777.6" xlink:href="#mcb0005524f" y="196.8"/>
      </g>
     </g>
     <g id="text_11">
      <!-- 2.2 -->
      <g transform="translate(92.665 199.0075)scale(0.08 -0.08)">
       <use xlink:href="#BitstreamVeraSans-Roman-32"/>
       <use x="63.623046875" xlink:href="#BitstreamVeraSans-Roman-2e"/>
       <use x="95.41015625" xlink:href="#BitstreamVeraSans-Roman-32"/>
      </g>
     </g>
    </g>
    <g id="ytick_7">
     <g id="line2d_23">
      <g>
       <use style="stroke:#000000;stroke-width:0.5;" x="108.0" xlink:href="#m728421d6d4" y="158.4"/>
      </g>
     </g>
     <g id="line2d_24">
      <g>
       <use style="stroke:#000000;stroke-width:0.5;" x="777.6" xlink:href="#mcb0005524f" y="158.4"/>
      </g>
     </g>
     <g id="text_12">
      <!-- 2.3 -->
      <defs>
       <path d="
M40.5781 39.3125
Q47.6562 37.7969 51.625 33
Q55.6094 28.2188 55.6094 21.1875
Q55.6094 10.4062 48.1875 4.48438
Q40.7656 -1.42188 27.0938 -1.42188
Q22.5156 -1.42188 17.6562 -0.515625
Q12.7969 0.390625 7.625 2.20312
L7.625 11.7188
Q11.7188 9.32812 16.5938 8.10938
Q21.4844 6.89062 26.8125 6.89062
Q36.0781 6.89062 40.9375 10.5469
Q45.7969 14.2031 45.7969 21.1875
Q45.7969 27.6406 41.2812 31.2656
Q36.7656 34.9062 28.7188 34.9062
L20.2188 34.9062
L20.2188 43.0156
L29.1094 43.0156
Q36.375 43.0156 40.2344 45.9219
Q44.0938 48.8281 44.0938 54.2969
Q44.0938 59.9062 40.1094 62.9062
Q36.1406 65.9219 28.7188 65.9219
Q24.6562 65.9219 20.0156 65.0312
Q15.375 64.1562 9.8125 62.3125
L9.8125 71.0938
Q15.4375 72.6562 20.3438 73.4375
Q25.25 74.2188 29.5938 74.2188
Q40.8281 74.2188 47.3594 69.1094
Q53.9062 64.0156 53.9062 55.3281
Q53.9062 49.2656 50.4375 45.0938
Q46.9688 40.9219 40.5781 39.3125" id="BitstreamVeraSans-Roman-33"/>
      </defs>
      <g transform="translate(92.505 160.6075)scale(0.08 -0.08)">
       <use xlink:href="#BitstreamVeraSans-Roman-32"/>
       <use x="63.623046875" xlink:href="#BitstreamVeraSans-Roman-2e"/>
       <use x="95.41015625" xlink:href="#BitstreamVeraSans-Roman-33"/>
      </g>
     </g>
    </g>
    <g id="ytick_8">
     <g id="line2d_25">
      <g>
       <use style="stroke:#000000;stroke-width:0.5;" x="108.0" xlink:href="#m728421d6d4" y="120.0"/>
      </g>
     </g>
     <g id="line2d_26">
      <g>
       <use style="stroke:#000000;stroke-width:0.5;" x="777.6" xlink:href="#mcb0005524f" y="120.0"/>
      </g>
     </g>
     <g id="text_13">
      <!-- 2.4 -->
      <defs>
       <path d="
M37.7969 64.3125
L12.8906 25.3906
L37.7969 25.3906
z

M35.2031 72.9062
L47.6094 72.9062
L47.6094 25.3906
L58.0156 25.3906
L58.0156 17.1875
L47.6094 17.1875
L47.6094 0
L37.7969 0
L37.7969 17.1875
L4.89062 17.1875
L4.89062 26.7031
z
" id="BitstreamVeraSans-Roman-34"/>
      </defs>
      <g transform="translate(92.3125 122.2075)scale(0.08 -0.08)">
       <use xlink:href="#BitstreamVeraSans-Roman-32"/>
       <use x="63.623046875" xlink:href="#BitstreamVeraSans-Roman-2e"/>
       <use x="95.41015625" xlink:href="#BitstreamVeraSans-Roman-34"/>
      </g>
     </g>
    </g>
    <g id="ytick_9">
     <g id="line2d_27">
      <g>
       <use style="stroke:#000000;stroke-width:0.5;" x="108.0" xlink:href="#m728421d6d4" y="81.6"/>
      </g>
     </g>
     <g id="line2d_28">
      <g>
       <use style="stroke:#000000;stroke-width:0.5;" x="777.6" xlink:href="#mcb0005524f" y="81.6"/>
      </g>
     </g>
     <g id="text_14">
      <!-- 2.5 -->
      <g transform="translate(92.5625 83.8075)scale(0.08 -0.08)">
       <use xlink:href="#BitstreamVeraSans-Roman-32"/>
       <use x="63.623046875" xlink:href="#BitstreamVeraSans-Roman-2e"/>
       <use x="95.41015625" xlink:href="#BitstreamVeraSans-Roman-35"/>
      </g>
     </g>
    </g>
    <g id="ytick_10">
     <g id="line2d_29">
      <g>
       <use style="stroke:#000000;stroke-width:0.5;" x="108.0" xlink:href="#m728421d6d4" y="43.2"/>
      </g>
     </g>
     <g id="line2d_30">
      <g>
       <use style="stroke:#000000;stroke-width:0.5;" x="777.6" xlink:href="#mcb0005524f" y="43.2"/>
      </g>
     </g>
     <g id="text_15">
      <!-- 2.6 -->
      <defs>
       <path d="
M33.0156 40.375
Q26.375 40.375 22.4844 35.8281
Q18.6094 31.2969 18.6094 23.3906
Q18.6094 15.5312 22.4844 10.9531
Q26.375 6.39062 33.0156 6.39062
Q39.6562 6.39062 43.5312 10.9531
Q47.4062 15.5312 47.4062 23.3906
Q47.4062 31.2969 43.5312 35.8281
Q39.6562 40.375 33.0156 40.375
M52.5938 71.2969
L52.5938 62.3125
Q48.875 64.0625 45.0938 64.9844
Q41.3125 65.9219 37.5938 65.9219
Q27.8281 65.9219 22.6719 59.3281
Q17.5312 52.7344 16.7969 39.4062
Q19.6719 43.6562 24.0156 45.9219
Q28.375 48.1875 33.5938 48.1875
Q44.5781 48.1875 50.9531 41.5156
Q57.3281 34.8594 57.3281 23.3906
Q57.3281 12.1562 50.6875 5.35938
Q44.0469 -1.42188 33.0156 -1.42188
Q20.3594 -1.42188 13.6719 8.26562
Q6.98438 17.9688 6.98438 36.375
Q6.98438 53.6562 15.1875 63.9375
Q23.3906 74.2188 37.2031 74.2188
Q40.9219 74.2188 44.7031 73.4844
Q48.4844 72.75 52.5938 71.2969" id="BitstreamVeraSans-Roman-36"/>
      </defs>
      <g transform="translate(92.3675 45.4075)scale(0.08 -0.08)">
       <use xlink:href="#BitstreamVeraSans-Roman-32"/>
       <use x="63.623046875" xlink:href="#BitstreamVeraSans-Roman-2e"/>
       <use x="95.41015625" xlink:href="#BitstreamVeraSans-Roman-36"/>
      </g>
     </g>
    </g>
   </g>
   <g id="text_16">
    <!-- Mean score per stage game over 200 turns repeated 10 times (5 strategies) -->
    <defs>
     <path d="
M2.98438 54.6875
L12.5 54.6875
L29.5938 8.79688
L46.6875 54.6875
L56.2031 54.6875
L35.6875 0
L23.4844 0
z
" id="BitstreamVeraSans-Roman-76"/>
     <path d="
M31 75.875
Q24.4688 64.6562 21.2812 53.6562
Q18.1094 42.6719 18.1094 31.3906
Q18.1094 20.125 21.3125 9.0625
Q24.5156 -2 31 -13.1875
L23.1875 -13.1875
Q15.875 -1.70312 12.2344 9.375
Q8.59375 20.4531 8.59375 31.3906
Q8.59375 42.2812 12.2031 53.3125
Q15.8281 64.3594 23.1875 75.875
z
" id="BitstreamVeraSans-Roman-28"/>
     <path d="
M8.01562 75.875
L15.8281 75.875
Q23.1406 64.3594 26.7812 53.3125
Q30.4219 42.2812 30.4219 31.3906
Q30.4219 20.4531 26.7812 9.375
Q23.1406 -1.70312 15.8281 -13.1875
L8.01562 -13.1875
Q14.5 -2 17.7031 9.0625
Q20.9062 20.125 20.9062 31.3906
Q20.9062 42.6719 17.7031 53.6562
Q14.5 64.6562 8.01562 75.875" id="BitstreamVeraSans-Roman-29"/>
     <path d="
M9.8125 72.9062
L24.5156 72.9062
L43.1094 23.2969
L61.8125 72.9062
L76.5156 72.9062
L76.5156 0
L66.8906 0
L66.8906 64.0156
L48.0938 14.0156
L38.1875 14.0156
L19.3906 64.0156
L19.3906 0
L9.8125 0
z
" id="BitstreamVeraSans-Roman-4d"/>
     <path d="
M44.2812 53.0781
L44.2812 44.5781
Q40.4844 46.5312 36.375 47.5
Q32.2812 48.4844 27.875 48.4844
Q21.1875 48.4844 17.8438 46.4375
Q14.5 44.3906 14.5 40.2812
Q14.5 37.1562 16.8906 35.375
Q19.2812 33.5938 26.5156 31.9844
L29.5938 31.2969
Q39.1562 29.25 43.1875 25.5156
Q47.2188 21.7812 47.2188 15.0938
Q47.2188 7.46875 41.1875 3.01562
Q35.1562 -1.42188 24.6094 -1.42188
Q20.2188 -1.42188 15.4531 -0.5625
Q10.6875 0.296875 5.42188 2
L5.42188 11.2812
Q10.4062 8.6875 15.2344 7.39062
Q20.0625 6.10938 24.8125 6.10938
Q31.1562 6.10938 34.5625 8.28125
Q37.9844 10.4531 37.9844 14.4062
Q37.9844 18.0625 35.5156 20.0156
Q33.0625 21.9688 24.7031 23.7812
L21.5781 24.5156
Q13.2344 26.2656 9.51562 29.9062
Q5.8125 33.5469 5.8125 39.8906
Q5.8125 47.6094 11.2812 51.7969
Q16.75 56 26.8125 56
Q31.7812 56 36.1719 55.2656
Q40.5781 54.5469 44.2812 53.0781" id="BitstreamVeraSans-Roman-73"/>
    </defs>
    <g transform="translate(168.496875 38.2)scale(0.144 -0.144)">
     <use xlink:href="#BitstreamVeraSans-Roman-4d"/>
     <use x="86.279296875" xlink:href="#BitstreamVeraSans-Roman-65"/>
     <use x="147.802734375" xlink:href="#BitstreamVeraSans-Roman-61"/>
     <use x="209.08203125" xlink:href="#BitstreamVeraSans-Roman-6e"/>
     <use x="272.4609375" xlink:href="#BitstreamVeraSans-Roman-20"/>
     <use x="304.248046875" xlink:href="#BitstreamVeraSans-Roman-73"/>
     <use x="356.34765625" xlink:href="#BitstreamVeraSans-Roman-63"/>
     <use x="411.328125" xlink:href="#BitstreamVeraSans-Roman-6f"/>
     <use x="472.509765625" xlink:href="#BitstreamVeraSans-Roman-72"/>
     <use x="511.373046875" xlink:href="#BitstreamVeraSans-Roman-65"/>
     <use x="572.896484375" xlink:href="#BitstreamVeraSans-Roman-20"/>
     <use x="604.68359375" xlink:href="#BitstreamVeraSans-Roman-70"/>
     <use x="668.16015625" xlink:href="#BitstreamVeraSans-Roman-65"/>
     <use x="729.68359375" xlink:href="#BitstreamVeraSans-Roman-72"/>
     <use x="770.796875" xlink:href="#BitstreamVeraSans-Roman-20"/>
     <use x="802.583984375" xlink:href="#BitstreamVeraSans-Roman-73"/>
     <use x="854.68359375" xlink:href="#BitstreamVeraSans-Roman-74"/>
     <use x="893.892578125" xlink:href="#BitstreamVeraSans-Roman-61"/>
     <use x="955.171875" xlink:href="#BitstreamVeraSans-Roman-67"/>
     <use x="1018.6484375" xlink:href="#BitstreamVeraSans-Roman-65"/>
     <use x="1080.171875" xlink:href="#BitstreamVeraSans-Roman-20"/>
     <use x="1111.95898438" xlink:href="#BitstreamVeraSans-Roman-67"/>
     <use x="1175.43554688" xlink:href="#BitstreamVeraSans-Roman-61"/>
     <use x="1236.71484375" xlink:href="#BitstreamVeraSans-Roman-6d"/>
     <use x="1334.12695312" xlink:href="#BitstreamVeraSans-Roman-65"/>
     <use x="1395.65039062" xlink:href="#BitstreamVeraSans-Roman-20"/>
     <use x="1427.4375" xlink:href="#BitstreamVeraSans-Roman-6f"/>
     <use x="1488.61914062" xlink:href="#BitstreamVeraSans-Roman-76"/>
     <use x="1547.79882812" xlink:href="#BitstreamVeraSans-Roman-65"/>
     <use x="1609.32226562" xlink:href="#BitstreamVeraSans-Roman-72"/>
     <use x="1650.43554688" xlink:href="#BitstreamVeraSans-Roman-20"/>
     <use x="1682.22265625" xlink:href="#BitstreamVeraSans-Roman-32"/>
     <use x="1745.84570312" xlink:href="#BitstreamVeraSans-Roman-30"/>
     <use x="1809.46875" xlink:href="#BitstreamVeraSans-Roman-30"/>
     <use x="1873.09179688" xlink:href="#BitstreamVeraSans-Roman-20"/>
     <use x="1904.87890625" xlink:href="#BitstreamVeraSans-Roman-74"/>
     <use x="1944.08789062" xlink:href="#BitstreamVeraSans-Roman-75"/>
     <use x="2007.46679688" xlink:href="#BitstreamVeraSans-Roman-72"/>
     <use x="2046.83007812" xlink:href="#BitstreamVeraSans-Roman-6e"/>
     <use x="2110.20898438" xlink:href="#BitstreamVeraSans-Roman-73"/>
     <use x="2162.30859375" xlink:href="#BitstreamVeraSans-Roman-20"/>
     <use x="2194.09570312" xlink:href="#BitstreamVeraSans-Roman-72"/>
     <use x="2232.95898438" xlink:href="#BitstreamVeraSans-Roman-65"/>
     <use x="2294.48242188" xlink:href="#BitstreamVeraSans-Roman-70"/>
     <use x="2357.95898438" xlink:href="#BitstreamVeraSans-Roman-65"/>
     <use x="2419.48242188" xlink:href="#BitstreamVeraSans-Roman-61"/>
     <use x="2480.76171875" xlink:href="#BitstreamVeraSans-Roman-74"/>
     <use x="2519.97070312" xlink:href="#BitstreamVeraSans-Roman-65"/>
     <use x="2581.49414062" xlink:href="#BitstreamVeraSans-Roman-64"/>
     <use x="2644.97070312" xlink:href="#BitstreamVeraSans-Roman-20"/>
     <use x="2676.7578125" xlink:href="#BitstreamVeraSans-Roman-31"/>
     <use x="2740.38085938" xlink:href="#BitstreamVeraSans-Roman-30"/>
     <use x="2804.00390625" xlink:href="#BitstreamVeraSans-Roman-20"/>
     <use x="2835.79101562" xlink:href="#BitstreamVeraSans-Roman-74"/>
     <use x="2875.0" xlink:href="#BitstreamVeraSans-Roman-69"/>
     <use x="2902.78320312" xlink:href="#BitstreamVeraSans-Roman-6d"/>
     <use x="3000.1953125" xlink:href="#BitstreamVeraSans-Roman-65"/>
     <use x="3061.71875" xlink:href="#BitstreamVeraSans-Roman-73"/>
     <use x="3113.81835938" xlink:href="#BitstreamVeraSans-Roman-20"/>
     <use x="3145.60546875" xlink:href="#BitstreamVeraSans-Roman-28"/>
     <use x="3184.61914062" xlink:href="#BitstreamVeraSans-Roman-35"/>
     <use x="3248.2421875" xlink:href="#BitstreamVeraSans-Roman-20"/>
     <use x="3280.02929688" xlink:href="#BitstreamVeraSans-Roman-73"/>
     <use x="3332.12890625" xlink:href="#BitstreamVeraSans-Roman-74"/>
     <use x="3371.33789062" xlink:href="#BitstreamVeraSans-Roman-72"/>
     <use x="3412.45117188" xlink:href="#BitstreamVeraSans-Roman-61"/>
     <use x="3473.73046875" xlink:href="#BitstreamVeraSans-Roman-74"/>
     <use x="3512.93945312" xlink:href="#BitstreamVeraSans-Roman-65"/>
     <use x="3574.46289062" xlink:href="#BitstreamVeraSans-Roman-67"/>
     <use x="3637.93945312" xlink:href="#BitstreamVeraSans-Roman-69"/>
     <use x="3665.72265625" xlink:href="#BitstreamVeraSans-Roman-65"/>
     <use x="3727.24609375" xlink:href="#BitstreamVeraSans-Roman-73"/>
     <use x="3779.34570312" xlink:href="#BitstreamVeraSans-Roman-29"/>
    </g>
   </g>
  </g>
 </g>
 <defs>
  <clipPath id="pad36b945f0">
   <rect height="345.6" width="669.6" x="108.0" y="43.2"/>
  </clipPath>
 </defs>
</svg>
